<svg width="1024.0" height="735.3" xmlns="http://www.w3.org/2000/svg">
<path d="M62.371413411431455 723.2736686210286 L66.0 719.6 L66.0 718.3 L83.3 701.0 L96.4 701.0 L53.7 701.0 L17.1 664.4 L12.0 659.3 L12.0 642.5 L12.0 640.6 L79.9 572.8 L110.5 542.1 L110.5 534.4 L159.8 485.2 L171.3 485.2 L213.4 485.2 L270.7 542.5 L352.1 461.2 L352.1 443.9 L352.1 435.7 L389.6 398.2 L416.4 371.5 L461.9 371.5 L506.5 371.5 L564.8 313.2 L639.4 238.6 L739.8 238.6 L749.1 238.6 L784.2 203.5 L813.7 174.0 L817.7 174.0 L817.7 150.1 L812.8 145.1 L854.5 103.5 L868.2 103.5 L884.9 86.7 L884.9 84.9 L913.7 56.1 L937.2 56.1 L967.9 56.1 L1012.0 12.0 " />
<circle cx="62.4" cy="723.3" r="8" />
<circle cx="66.0" cy="718.3" r="8" />
<circle cx="96.4" cy="701.0" r="8" />
<circle cx="17.1" cy="664.4" r="8" />
<circle cx="12.0" cy="642.5" r="8" />
<circle cx="79.9" cy="572.8" r="8" />
<circle cx="110.5" cy="534.4" r="8" />
<circle cx="171.3" cy="485.2" r="8" />
<circle cx="270.7" cy="542.5" r="8" />
<circle cx="352.1" cy="443.9" r="8" />
<circle cx="389.6" cy="398.2" r="8" />
<circle cx="461.9" cy="371.5" r="8" />
<circle cx="564.8" cy="313.2" r="8" />
<circle cx="739.8" cy="238.6" r="8" />
<circle cx="784.2" cy="203.5" r="8" />
<circle cx="817.7" cy="174.0" r="8" />
<circle cx="812.8" cy="145.1" r="8" />
<circle cx="868.2" cy="103.5" r="8" />
<circle cx="884.9" cy="84.9" r="8" />
<circle cx="937.2" cy="56.1" r="8" />
<circle cx="1012.0" cy="12.0" r="8" />
<style>
circle {
fill: white;
stroke: #525252;
stroke-width: 4;
}
path {
fill: none;
stroke: #525252;
stroke-width: 8;
}</style>
</svg>