<svg width="1024.0" height="783.7" xmlns="http://www.w3.org/2000/svg">
<path d="M172.17372015179632 203.55633460665234 L12.0 363.7 L12.0 371.5 L198.5 371.5 L210.9 383.9 L252.5 425.5 L441.7 425.5 L441.7 431.3 L597.0 586.6 L709.2 698.8 L709.2 771.7 L790.0 690.9 L790.0 647.3 L790.0 521.7 L903.4 408.3 L932.8 378.9 L932.8 219.7 L932.8 172.4 L969.4 135.8 L1012.0 93.2 L1012.0 12.0 L965.0 12.0 L724.7 252.3 L684.1 211.7 L494.5 211.7 " />
<circle cx="172.2" cy="203.6" r="8" />
<circle cx="12.0" cy="371.5" r="8" />
<circle cx="210.9" cy="383.9" r="8" />
<circle cx="441.7" cy="425.5" r="8" />
<circle cx="597.0" cy="586.6" r="8" />
<circle cx="709.2" cy="771.7" r="8" />
<circle cx="790.0" cy="647.3" r="8" />
<circle cx="903.4" cy="408.3" r="8" />
<circle cx="932.8" cy="219.7" r="8" />
<circle cx="969.4" cy="135.8" r="8" />
<circle cx="1012.0" cy="12.0" r="8" />
<circle cx="724.7" cy="252.3" r="8" />
<circle cx="494.5" cy="211.7" r="8" />
<style>
circle {
fill: white;
stroke: #525252;
stroke-width: 4;
}
path {
fill: none;
stroke: #525252;
stroke-width: 8;
}</style>
</svg>