<svg width="1024.0" height="922.3" xmlns="http://www.w3.org/2000/svg">
<path d="M12.0 250.3345781142535 L398.9 250.3 L401.7 247.5 L625.3 247.5 L673.1 295.4 L880.2 295.4 L918.6 256.9 L961.8 213.8 L961.8 158.0 L961.8 62.2 L1012.0 12.0 L883.9 140.1 L883.9 479.4 L883.9 627.5 L750.2 761.2 L643.8 867.6 L643.8 910.3 L643.8 810.8 L522.6 689.6 L339.5 506.5 L339.5 499.6 L290.5 450.6 L67.3 450.6 " />
<circle cx="12.0" cy="250.3" r="8" />
<circle cx="401.7" cy="247.5" r="8" />
<circle cx="673.1" cy="295.4" r="8" />
<circle cx="918.6" cy="256.9" r="8" />
<circle cx="961.8" cy="158.0" r="8" />
<circle cx="1012.0" cy="12.0" r="8" />
<circle cx="883.9" cy="479.4" r="8" />
<circle cx="750.2" cy="761.2" r="8" />
<circle cx="643.8" cy="910.3" r="8" />
<circle cx="522.6" cy="689.6" r="8" />
<circle cx="339.5" cy="499.6" r="8" />
<circle cx="67.3" cy="450.6" r="8" />
<style>
circle {
fill: white;
stroke: #525252;
stroke-width: 4;
}
path {
fill: none;
stroke: #525252;
stroke-width: 8;
}</style>
</svg>