<svg width="1024.0" height="207.8" xmlns="http://www.w3.org/2000/svg">
<path d="M1012.0 195.8 L931.4 115.2 L820.4 115.2 L770.7 115.2 L739.4 84.0 L724.4 69.0 L684.5 69.0 L621.3 69.0 L598.3 46.0 L574.0 21.7 L481.0 21.7 L410.4 21.7 L407.4 18.7 L404.4 15.7 L285.6 15.7 L129.1 15.7 L125.4 12.0 L50.6 12.0 L12.0 50.6 " />
<circle cx="1012.0" cy="195.8" r="8" />
<circle cx="820.4" cy="115.2" r="8" />
<circle cx="739.4" cy="84.0" r="8" />
<circle cx="684.5" cy="69.0" r="8" />
<circle cx="598.3" cy="46.0" r="8" />
<circle cx="481.0" cy="21.7" r="8" />
<circle cx="407.4" cy="18.7" r="8" />
<circle cx="285.6" cy="15.7" r="8" />
<circle cx="125.4" cy="12.0" r="8" />
<circle cx="12.0" cy="50.6" r="8" />
<style>
circle {
fill: white;
stroke: #525252;
stroke-width: 4;
}
path {
fill: none;
stroke: #525252;
stroke-width: 8;
}</style>
</svg>