<svg width="1024.0" height="205.5" xmlns="http://www.w3.org/2000/svg">
<path d="M1012.0 193.5 L931.8 113.3 L822.4 113.3 L772.5 113.3 L741.2 82.0 L726.2 67.0 L686.1 67.0 L622.7 67.0 L599.7 43.9 L575.3 19.6 L482.1 19.6 L411.4 19.6 L408.4 16.5 L405.3 13.5 L286.2 13.5 L134.8 13.5 L133.3 12.0 L48.6 12.0 L12.0 48.6 " />
<circle cx="1012.0" cy="193.5" r="8" />
<circle cx="822.4" cy="113.3" r="8" />
<circle cx="741.2" cy="82.0" r="8" />
<circle cx="686.1" cy="67.0" r="8" />
<circle cx="599.7" cy="43.9" r="8" />
<circle cx="482.1" cy="19.6" r="8" />
<circle cx="408.4" cy="16.5" r="8" />
<circle cx="286.2" cy="13.5" r="8" />
<circle cx="133.3" cy="12.0" r="8" />
<circle cx="12.0" cy="48.6" r="8" />
<style>
circle {
fill: white;
stroke: #525252;
stroke-width: 4;
}
path {
fill: none;
stroke: #525252;
stroke-width: 8;
}</style>
</svg>