<svg width="1024.0" height="207.6" xmlns="http://www.w3.org/2000/svg">
<path d="M1012.0 195.6 L931.8 115.4 L822.4 115.4 L772.6 115.4 L741.3 84.1 L726.2 69.1 L686.2 69.1 L622.8 69.1 L599.8 46.1 L575.4 21.7 L482.2 21.7 L411.5 21.7 L408.5 18.7 L405.5 15.7 L286.4 15.7 L129.6 15.7 L125.9 12.0 L50.0 12.0 L12.0 50.0 " />
<circle cx="1012.0" cy="195.6" r="8" />
<circle cx="822.4" cy="115.4" r="8" />
<circle cx="741.3" cy="84.1" r="8" />
<circle cx="686.2" cy="69.1" r="8" />
<circle cx="599.8" cy="46.1" r="8" />
<circle cx="482.2" cy="21.7" r="8" />
<circle cx="408.5" cy="18.7" r="8" />
<circle cx="286.4" cy="15.7" r="8" />
<circle cx="125.9" cy="12.0" r="8" />
<circle cx="12.0" cy="50.0" r="8" />
<style>
circle {
fill: white;
stroke: #525252;
stroke-width: 4;
}
path {
fill: none;
stroke: #525252;
stroke-width: 8;
}</style>
</svg>