<svg width="946.7" height="1024.0" xmlns="http://www.w3.org/2000/svg">
<path d="M138.6 978.8 L138.6 985.4 L146.2 993.0 L138.3 1001.0 L138.3 1011.2 L77.7 1011.2 L76.9 1012.0 L69.1 1004.2 L35.3 1004.2 L35.3 982.0 L39.3 978.0 L12.0 950.7 L12.0 946.4 L12.0 932.0 L23.1 921.0 L56.7 887.3 L56.7 877.5 L56.7 849.3 L85.5 820.6 L117.7 788.4 L124.3 788.4 L323.8 788.4 L331.7 780.5 L338.6 773.5 L338.6 763.2 L338.6 751.1 L369.0 720.7 L345.8 697.5 L316.4 697.5 L316.4 581.2 L316.5 581.1 L349.4 548.2 L349.4 414.2 L349.4 387.8 L357.8 379.4 L374.0 363.3 L374.0 343.0 L400.8 369.8 L523.5 369.8 L575.4 369.8 L577.0 371.5 L577.0 338.2 L580.1 335.2 L584.3 331.0 L584.3 301.6 L584.3 282.3 L640.6 226.1 L680.2 186.4 L716.5 186.4 L739.7 186.4 L757.9 168.1 L765.4 175.6 L813.5 175.6 L818.9 175.6 L855.9 138.6 L873.2 121.2 L874.8 121.2 L899.9 121.2 L913.3 107.8 L934.7 86.4 L934.7 81.6 L934.7 45.4 L928.1 38.9 L910.2 21.0 L907.3 21.0 L879.4 21.0 L870.4 12.0 " />
<circle cx="138.6" cy="978.8" r="8" />
<circle cx="146.2" cy="993.0" r="8" />
<circle cx="138.3" cy="1011.2" r="8" />
<circle cx="76.9" cy="1012.0" r="8" />
<circle cx="35.3" cy="1004.2" r="8" />
<circle cx="39.3" cy="978.0" r="8" />
<circle cx="12.0" cy="946.4" r="8" />
<circle cx="23.1" cy="921.0" r="8" />
<circle cx="56.7" cy="877.5" r="8" />
<circle cx="85.5" cy="820.6" r="8" />
<circle cx="124.3" cy="788.4" r="8" />
<circle cx="331.7" cy="780.5" r="8" />
<circle cx="338.6" cy="763.2" r="8" />
<circle cx="369.0" cy="720.7" r="8" />
<circle cx="316.4" cy="697.5" r="8" />
<circle cx="316.5" cy="581.1" r="8" />
<circle cx="349.4" cy="414.2" r="8" />
<circle cx="357.8" cy="379.4" r="8" />
<circle cx="374.0" cy="343.0" r="8" />
<circle cx="523.5" cy="369.8" r="8" />
<circle cx="577.0" cy="371.5" r="8" />
<circle cx="580.1" cy="335.2" r="8" />
<circle cx="584.3" cy="301.6" r="8" />
<circle cx="640.6" cy="226.1" r="8" />
<circle cx="716.5" cy="186.4" r="8" />
<circle cx="757.9" cy="168.1" r="8" />
<circle cx="813.5" cy="175.6" r="8" />
<circle cx="855.9" cy="138.6" r="8" />
<circle cx="874.8" cy="121.2" r="8" />
<circle cx="913.3" cy="107.8" r="8" />
<circle cx="934.7" cy="81.6" r="8" />
<circle cx="928.1" cy="38.9" r="8" />
<circle cx="907.3" cy="21.0" r="8" />
<circle cx="870.4" cy="12.0" r="8" />
<style>
circle {
fill: white;
stroke: #525252;
stroke-width: 4;
}
path {
fill: none;
stroke: #525252;
stroke-width: 8;
}</style>
</svg>