<svg width="1024.0" height="321.5" xmlns="http://www.w3.org/2000/svg">
<path d="M12.0 12.0 L29.5 29.5 L139.0 29.5 L200.1 29.5 L220.9 50.3 L248.9 78.3 L327.9 78.3 L438.3 78.3 L459.3 99.3 L445.4 113.1 L445.4 142.6 L445.4 171.3 L422.2 194.5 L455.1 194.5 L475.6 215.1 L486.9 226.4 L558.4 226.4 L631.7 226.4 L658.0 252.7 L666.6 261.3 L768.2 261.3 L871.4 261.3 L904.7 294.5 L919.6 309.5 L971.5 309.5 L971.5 303.9 L1012.0 263.4 L991.8 243.2 L956.6 243.2 L884.4 243.2 L857.1 215.9 L833.1 191.8 L788.7 191.8 L740.6 191.8 L721.7 173.0 L703.6 154.9 L671.3 154.9 L624.7 154.9 L608.0 138.2 L586.9 117.1 L524.3 117.1 " />
<circle cx="12.0" cy="12.0" r="8" />
<circle cx="139.0" cy="29.5" r="8" />
<circle cx="220.9" cy="50.3" r="8" />
<circle cx="327.9" cy="78.3" r="8" />
<circle cx="459.3" cy="99.3" r="8" />
<circle cx="445.4" cy="142.6" r="8" />
<circle cx="422.2" cy="194.5" r="8" />
<circle cx="475.6" cy="215.1" r="8" />
<circle cx="558.4" cy="226.4" r="8" />
<circle cx="658.0" cy="252.7" r="8" />
<circle cx="768.2" cy="261.3" r="8" />
<circle cx="904.7" cy="294.5" r="8" />
<circle cx="971.5" cy="309.5" r="8" />
<circle cx="1012.0" cy="263.4" r="8" />
<circle cx="956.6" cy="243.2" r="8" />
<circle cx="857.1" cy="215.9" r="8" />
<circle cx="788.7" cy="191.8" r="8" />
<circle cx="721.7" cy="173.0" r="8" />
<circle cx="671.3" cy="154.9" r="8" />
<circle cx="608.0" cy="138.2" r="8" />
<circle cx="524.3" cy="117.1" r="8" />
<style>
circle {
fill: white;
stroke: #2E6A4C;
stroke-width: 4;
}
path {
fill: none;
stroke: #2E6A4C;
stroke-width: 8;
}</style>
</svg>