<svg width="1024.0" height="265.1" xmlns="http://www.w3.org/2000/svg">
<path d="M12.0 253.11476497244144 L22.4 253.1 L32.8 242.8 L32.8 226.8 L21.5 215.5 L37.8 199.3 L60.9 199.3 L81.7 199.3 L103.9 177.1 L119.5 177.1 L144.9 202.5 L167.3 224.9 L169.7 224.9 L169.7 232.8 L157.2 245.3 L177.1 225.3 L201.3 225.3 L209.0 225.3 L233.7 200.7 L256.8 177.6 L258.0 177.6 L262.7 177.6 L292.9 147.4 L317.8 122.5 L317.8 119.6 L344.8 92.6 L375.6 92.6 L387.0 81.3 L387.0 72.7 L387.0 56.6 L399.9 43.6 L407.4 36.1 L407.4 20.2 L409.9 17.7 L448.1 17.7 L517.3 17.7 L523.0 12.0 L586.9 12.0 L593.6 18.7 L600.3 25.4 L667.4 25.4 L735.1 25.4 L736.1 26.4 L743.4 33.7 L857.7 33.7 L950.7 33.7 L955.5 28.9 L956.1 28.3 L1012.0 28.3 " />
<circle cx="12.0" cy="253.1" r="8" />
<circle cx="32.8" cy="242.8" r="8" />
<circle cx="21.5" cy="215.5" r="8" />
<circle cx="60.9" cy="199.3" r="8" />
<circle cx="103.9" cy="177.1" r="8" />
<circle cx="144.9" cy="202.5" r="8" />
<circle cx="169.7" cy="224.9" r="8" />
<circle cx="157.2" cy="245.3" r="8" />
<circle cx="201.3" cy="225.3" r="8" />
<circle cx="233.7" cy="200.7" r="8" />
<circle cx="258.0" cy="177.6" r="8" />
<circle cx="292.9" cy="147.4" r="8" />
<circle cx="317.8" cy="119.6" r="8" />
<circle cx="375.6" cy="92.6" r="8" />
<circle cx="387.0" cy="72.7" r="8" />
<circle cx="399.9" cy="43.6" r="8" />
<circle cx="407.4" cy="20.2" r="8" />
<circle cx="448.1" cy="17.7" r="8" />
<circle cx="523.0" cy="12.0" r="8" />
<circle cx="593.6" cy="18.7" r="8" />
<circle cx="667.4" cy="25.4" r="8" />
<circle cx="736.1" cy="26.4" r="8" />
<circle cx="857.7" cy="33.7" r="8" />
<circle cx="955.5" cy="28.9" r="8" />
<circle cx="1012.0" cy="28.3" r="8" />
<style>
circle {
fill: white;
stroke: #000000;
stroke-width: 4;
}
path {
fill: none;
stroke: #000000;
stroke-width: 8;
}</style>
</svg>