<svg width="1024.0" height="528.7" xmlns="http://www.w3.org/2000/svg">
<path d="M557.952194731279 508.4744610761746 L538.5 508.5 L530.2 516.7 L493.3 516.7 L468.5 492.0 L456.3 479.7 L404.6 479.7 L376.0 479.7 L353.0 456.8 L312.2 415.9 L302.0 415.9 L297.0 415.9 L258.1 377.0 L211.6 330.5 L192.5 330.5 L145.8 330.5 L140.3 336.0 L134.9 336.0 L97.7 298.8 L80.9 281.9 L78.6 281.9 L58.7 281.9 L33.6 256.8 L12.0 235.2 L12.0 222.2 L38.7 195.5 L130.3 195.5 L130.3 171.0 L109.2 149.9 L88.3 128.9 L88.3 104.5 L88.3 78.5 L64.5 54.7 L64.5 46.2 L98.7 12.0 L174.3 12.0 L191.3 29.0 L209.5 47.2 L313.2 47.2 L436.6 47.2 L439.5 50.1 L441.8 52.5 L535.5 52.5 L591.1 52.5 L593.5 54.9 L612.6 74.0 L685.9 74.0 L735.7 74.0 L753.8 92.2 L765.7 104.0 L797.2 104.0 L836.4 104.0 L861.0 128.6 L899.3 166.8 L921.1 166.8 L934.4 166.8 L952.4 184.8 L959.7 192.1 L1012.0 192.1 " />
<circle cx="558.0" cy="508.5" r="8" />
<circle cx="530.2" cy="516.7" r="8" />
<circle cx="468.5" cy="492.0" r="8" />
<circle cx="404.6" cy="479.7" r="8" />
<circle cx="353.0" cy="456.8" r="8" />
<circle cx="302.0" cy="415.9" r="8" />
<circle cx="258.1" cy="377.0" r="8" />
<circle cx="192.5" cy="330.5" r="8" />
<circle cx="140.3" cy="336.0" r="8" />
<circle cx="97.7" cy="298.8" r="8" />
<circle cx="78.6" cy="281.9" r="8" />
<circle cx="33.6" cy="256.8" r="8" />
<circle cx="12.0" cy="222.2" r="8" />
<circle cx="130.3" cy="195.5" r="8" />
<circle cx="109.2" cy="149.9" r="8" />
<circle cx="88.3" cy="104.5" r="8" />
<circle cx="64.5" cy="54.7" r="8" />
<circle cx="98.7" cy="12.0" r="8" />
<circle cx="191.3" cy="29.0" r="8" />
<circle cx="313.2" cy="47.2" r="8" />
<circle cx="439.5" cy="50.1" r="8" />
<circle cx="535.5" cy="52.5" r="8" />
<circle cx="593.5" cy="54.9" r="8" />
<circle cx="685.9" cy="74.0" r="8" />
<circle cx="753.8" cy="92.2" r="8" />
<circle cx="797.2" cy="104.0" r="8" />
<circle cx="861.0" cy="128.6" r="8" />
<circle cx="921.1" cy="166.8" r="8" />
<circle cx="952.4" cy="184.8" r="8" />
<circle cx="1012.0" cy="192.1" r="8" />
<style>
circle {
fill: white;
stroke: #525252;
stroke-width: 4;
}
path {
fill: none;
stroke: #525252;
stroke-width: 8;
}</style>
</svg>