<svg width="1024.0" height="962.8" xmlns="http://www.w3.org/2000/svg">
<path d="M879.0 950.8 L925.4 904.5 L948.0 904.5 L948.0 901.7 L1012.0 837.8 L918.9 744.7 L709.1 744.7 L709.1 667.9 L753.2 623.7 L808.2 568.8 L808.2 507.2 L808.2 477.0 L847.4 437.8 L873.3 412.0 L873.3 365.0 L783.4 365.0 L757.4 339.1 L699.7 281.4 L520.7 281.4 L344.6 281.4 L329.6 266.5 L284.0 220.8 L156.9 220.8 L28.6 220.8 L12.0 204.2 L69.2 147.0 L69.2 116.6 L69.2 95.9 L93.8 71.3 L100.5 78.1 L169.7 78.1 L190.8 78.1 L239.1 29.7 L256.8 12.0 L414.2 12.0 " />
<circle cx="879.0" cy="950.8" r="8" />
<circle cx="948.0" cy="904.5" r="8" />
<circle cx="1012.0" cy="837.8" r="8" />
<circle cx="709.1" cy="744.7" r="8" />
<circle cx="753.2" cy="623.7" r="8" />
<circle cx="808.2" cy="507.2" r="8" />
<circle cx="847.4" cy="437.8" r="8" />
<circle cx="873.3" cy="365.0" r="8" />
<circle cx="757.4" cy="339.1" r="8" />
<circle cx="520.7" cy="281.4" r="8" />
<circle cx="329.6" cy="266.5" r="8" />
<circle cx="156.9" cy="220.8" r="8" />
<circle cx="12.0" cy="204.2" r="8" />
<circle cx="69.2" cy="116.6" r="8" />
<circle cx="93.8" cy="71.3" r="8" />
<circle cx="169.7" cy="78.1" r="8" />
<circle cx="239.1" cy="29.7" r="8" />
<circle cx="414.2" cy="12.0" r="8" />
<style>
circle {
fill: white;
stroke: black;
stroke-width: 4;
}
path {
fill: none;
stroke: #FFFFFF;
stroke-width: 8;
}</style>
</svg>