<svg width="1024.0" height="156.8" xmlns="http://www.w3.org/2000/svg">
<path d="M1011.9999999999999 144.78081755595235 L986.2 144.8 L967.5 126.1 L960.3 118.8 L948.7 118.8 L939.4 118.8 L935.9 115.3 L930.6 110.0 L915.9 110.0 L894.3 110.0 L888.7 104.3 L888.0 103.6 L871.6 103.6 L844.0 103.6 L843.3 103.0 L842.5 102.1 L806.1 102.1 L775.6 102.1 L770.2 96.7 L765.2 91.7 L742.9 91.7 L705.3 91.7 L704.3 90.8 L692.0 78.4 L653.7 78.4 L635.5 78.4 L633.2 76.2 L612.6 55.5 L567.9 55.5 L522.1 55.5 L505.5 38.9 L497.5 30.9 L474.9 30.9 L453.2 30.9 L445.3 23.0 L439.1 16.9 L422.4 16.9 L405.6 16.9 L400.8 12.0 L396.1 16.6 L376.0 16.6 L359.9 16.6 L349.3 27.2 L338.0 38.6 L334.0 38.6 L313.9 58.6 L313.9 70.4 L302.7 81.7 L278.2 81.7 L272.7 81.7 L268.7 77.6 L267.8 78.5 L224.4 78.5 L207.9 78.5 L199.3 87.1 L177.9 108.5 L172.2 108.5 L167.9 108.5 L156.3 120.1 L143.2 133.2 L139.9 133.2 L75.8 133.2 L65.1 122.5 L42.2 99.6 L26.9 99.6 L13.2 99.6 L12.0 98.4 " />
<circle cx="1012.0" cy="144.8" r="8" />
<circle cx="967.5" cy="126.1" r="8" />
<circle cx="948.7" cy="118.8" r="8" />
<circle cx="935.9" cy="115.3" r="8" />
<circle cx="915.9" cy="110.0" r="8" />
<circle cx="888.7" cy="104.3" r="8" />
<circle cx="871.6" cy="103.6" r="8" />
<circle cx="843.3" cy="103.0" r="8" />
<circle cx="806.1" cy="102.1" r="8" />
<circle cx="770.2" cy="96.7" r="8" />
<circle cx="742.9" cy="91.7" r="8" />
<circle cx="704.3" cy="90.8" r="8" />
<circle cx="653.7" cy="78.4" r="8" />
<circle cx="633.2" cy="76.2" r="8" />
<circle cx="567.9" cy="55.5" r="8" />
<circle cx="505.5" cy="38.9" r="8" />
<circle cx="474.9" cy="30.9" r="8" />
<circle cx="445.3" cy="23.0" r="8" />
<circle cx="422.4" cy="16.9" r="8" />
<circle cx="400.8" cy="12.0" r="8" />
<circle cx="376.0" cy="16.6" r="8" />
<circle cx="349.3" cy="27.2" r="8" />
<circle cx="334.0" cy="38.6" r="8" />
<circle cx="313.9" cy="70.4" r="8" />
<circle cx="278.2" cy="81.7" r="8" />
<circle cx="268.7" cy="77.6" r="8" />
<circle cx="224.4" cy="78.5" r="8" />
<circle cx="199.3" cy="87.1" r="8" />
<circle cx="172.2" cy="108.5" r="8" />
<circle cx="156.3" cy="120.1" r="8" />
<circle cx="139.9" cy="133.2" r="8" />
<circle cx="65.1" cy="122.5" r="8" />
<circle cx="26.9" cy="99.6" r="8" />
<circle cx="12.0" cy="98.4" r="8" />
<style>
circle {
fill: white;
stroke: #525252;
stroke-width: 4;
}
path {
fill: none;
stroke: #525252;
stroke-width: 8;
}</style>
</svg>