<svg width="1024.0" height="939.7" xmlns="http://www.w3.org/2000/svg">
<path d="M99.51483689578075 927.7432986648117 L124.4 902.9 L124.4 887.3 L79.9 842.7 L75.2 842.7 L87.0 842.7 L117.4 812.3 L170.8 758.9 L177.3 758.9 L152.2 758.9 L98.7 705.5 L49.2 655.9 L23.8 655.9 L23.8 590.1 L12.0 578.3 L12.0 528.9 L13.3 527.6 L52.4 488.5 L52.4 469.4 L52.4 454.1 L119.2 387.3 L234.6 387.3 L252.6 405.3 L306.5 351.4 L306.5 329.4 L306.5 265.3 L359.8 211.9 L438.3 211.9 L468.0 241.6 L498.1 271.7 L517.5 271.7 L588.0 271.7 L598.4 282.1 L627.4 282.1 L655.8 253.6 L678.7 230.7 L690.3 230.7 L745.6 230.7 L757.2 219.2 L799.1 177.2 L856.4 177.2 L937.4 177.2 L941.2 173.4 L972.1 142.4 L972.1 118.6 L972.1 93.5 L1007.0 58.6 L1012.0 53.6 L1012.0 12.0 " />
<circle cx="99.5" cy="927.7" r="8" />
<circle cx="124.4" cy="887.3" r="8" />
<circle cx="75.2" cy="842.7" r="8" />
<circle cx="117.4" cy="812.3" r="8" />
<circle cx="177.3" cy="758.9" r="8" />
<circle cx="98.7" cy="705.5" r="8" />
<circle cx="23.8" cy="655.9" r="8" />
<circle cx="12.0" cy="578.3" r="8" />
<circle cx="13.3" cy="527.6" r="8" />
<circle cx="52.4" cy="469.4" r="8" />
<circle cx="119.2" cy="387.3" r="8" />
<circle cx="252.6" cy="405.3" r="8" />
<circle cx="306.5" cy="329.4" r="8" />
<circle cx="359.8" cy="211.9" r="8" />
<circle cx="468.0" cy="241.6" r="8" />
<circle cx="517.5" cy="271.7" r="8" />
<circle cx="598.4" cy="282.1" r="8" />
<circle cx="655.8" cy="253.6" r="8" />
<circle cx="690.3" cy="230.7" r="8" />
<circle cx="757.2" cy="219.2" r="8" />
<circle cx="856.4" cy="177.2" r="8" />
<circle cx="941.2" cy="173.4" r="8" />
<circle cx="972.1" cy="118.6" r="8" />
<circle cx="1007.0" cy="58.6" r="8" />
<circle cx="1012.0" cy="12.0" r="8" />
<style>
circle {
fill: white;
stroke: #525252;
stroke-width: 4;
}
path {
fill: none;
stroke: #525252;
stroke-width: 8;
}</style>
</svg>