<svg width="1024.0" height="686.4" xmlns="http://www.w3.org/2000/svg">
<path d="M796.4 12.0 L793.7 14.6 L793.7 45.0 L859.6 45.0 L868.6 54.0 L909.1 94.5 L920.0 94.5 L914.5 100.1 L914.5 129.1 L924.9 129.1 L948.7 152.9 L994.4 107.3 L1012.0 107.3 L947.4 171.9 L929.0 171.9 L925.9 171.9 L901.3 196.5 L883.4 214.4 L879.2 214.4 L874.4 214.4 L856.2 232.5 L829.8 258.9 L829.1 258.9 L829.1 283.0 L812.9 299.2 L795.2 316.9 L795.2 340.8 L792.2 340.8 L765.6 367.5 L738.0 395.0 L738.0 396.5 L738.0 434.5 L739.4 435.9 L742.1 438.5 L742.1 485.9 L742.1 505.5 L757.1 520.5 L764.7 528.2 L764.7 552.2 L764.7 564.3 L778.4 578.0 L784.3 583.8 L784.3 622.8 L717.6 622.8 L690.7 649.6 L672.2 668.2 L659.3 668.2 L608.8 668.2 L602.5 674.4 L548.7 620.6 L508.3 620.6 L482.0 620.6 L423.3 561.8 L393.6 532.2 L350.7 532.2 L331.1 532.2 L287.5 488.6 L263.8 464.8 L229.6 464.8 L166.2 464.8 L141.3 440.0 L87.2 440.0 L55.3 471.9 L12.0 515.2 L12.0 527.5 " />
<circle cx="796.4" cy="12.0" r="8" />
<circle cx="793.7" cy="45.0" r="8" />
<circle cx="868.6" cy="54.0" r="8" />
<circle cx="920.0" cy="94.5" r="8" />
<circle cx="914.5" cy="129.1" r="8" />
<circle cx="948.7" cy="152.9" r="8" />
<circle cx="1012.0" cy="107.3" r="8" />
<circle cx="929.0" cy="171.9" r="8" />
<circle cx="901.3" cy="196.5" r="8" />
<circle cx="879.2" cy="214.4" r="8" />
<circle cx="856.2" cy="232.5" r="8" />
<circle cx="829.1" cy="258.9" r="8" />
<circle cx="812.9" cy="299.2" r="8" />
<circle cx="795.2" cy="340.8" r="8" />
<circle cx="765.6" cy="367.5" r="8" />
<circle cx="738.0" cy="396.5" r="8" />
<circle cx="739.4" cy="435.9" r="8" />
<circle cx="742.1" cy="485.9" r="8" />
<circle cx="757.1" cy="520.5" r="8" />
<circle cx="764.7" cy="552.2" r="8" />
<circle cx="778.4" cy="578.0" r="8" />
<circle cx="784.3" cy="622.8" r="8" />
<circle cx="690.7" cy="649.6" r="8" />
<circle cx="659.3" cy="668.2" r="8" />
<circle cx="602.5" cy="674.4" r="8" />
<circle cx="508.3" cy="620.6" r="8" />
<circle cx="423.3" cy="561.8" r="8" />
<circle cx="350.7" cy="532.2" r="8" />
<circle cx="287.5" cy="488.6" r="8" />
<circle cx="229.6" cy="464.8" r="8" />
<circle cx="141.3" cy="440.0" r="8" />
<circle cx="55.3" cy="471.9" r="8" />
<circle cx="12.0" cy="527.5" r="8" />
<style>
circle {
fill: white;
stroke: #525252;
stroke-width: 4;
}
path {
fill: none;
stroke: #525252;
stroke-width: 8;
}</style>
</svg>