<svg width="1024.0" height="685.5" xmlns="http://www.w3.org/2000/svg">
<path d="M12.0 525.6 L12.0 515.9 L56.6 471.2 L88.5 439.4 L142.5 439.4 L205.9 439.4 L230.7 464.2 L254.4 487.9 L288.5 487.9 L308.1 487.9 L351.6 531.4 L381.2 561.0 L424.1 561.0 L450.2 561.0 L508.9 619.7 L539.7 650.4 L554.4 650.4 L580.0 650.4 L603.1 673.5 L609.4 667.3 L659.8 667.3 L672.7 667.3 L691.2 648.8 L718.0 622.0 L784.6 622.0 L778.7 616.1 L778.7 577.2 L778.7 565.1 L765.1 551.4 L757.4 543.8 L757.4 519.8 L757.4 500.2 L742.4 485.3 L739.8 482.6 L739.8 435.3 L739.8 397.4 L738.4 396.0 L765.9 368.4 L765.9 367.0 L768.8 367.0 L795.5 340.4 L813.2 322.6 L813.2 298.8 L813.2 274.8 L829.3 258.6 L855.7 232.2 L856.4 232.2 L861.2 232.2 L879.4 214.1 L897.2 196.3 L901.4 196.3 L905.2 196.3 L948.8 152.7 L994.4 107.1 L1012.0 107.1 L990.2 128.9 L914.6 128.9 L914.6 99.9 L920.1 94.4 L879.6 54.0 L868.8 54.0 L803.0 54.0 L794.0 45.0 L796.7 42.4 L796.7 12.0 " />
<circle cx="12.0" cy="525.6" r="8" />
<circle cx="56.6" cy="471.2" r="8" />
<circle cx="142.5" cy="439.4" r="8" />
<circle cx="230.7" cy="464.2" r="8" />
<circle cx="288.5" cy="487.9" r="8" />
<circle cx="351.6" cy="531.4" r="8" />
<circle cx="424.1" cy="561.0" r="8" />
<circle cx="508.9" cy="619.7" r="8" />
<circle cx="554.4" cy="650.4" r="8" />
<circle cx="603.1" cy="673.5" r="8" />
<circle cx="659.8" cy="667.3" r="8" />
<circle cx="691.2" cy="648.8" r="8" />
<circle cx="784.6" cy="622.0" r="8" />
<circle cx="778.7" cy="577.2" r="8" />
<circle cx="765.1" cy="551.4" r="8" />
<circle cx="757.4" cy="519.8" r="8" />
<circle cx="742.4" cy="485.3" r="8" />
<circle cx="739.8" cy="435.3" r="8" />
<circle cx="738.4" cy="396.0" r="8" />
<circle cx="765.9" cy="367.0" r="8" />
<circle cx="795.5" cy="340.4" r="8" />
<circle cx="813.2" cy="298.8" r="8" />
<circle cx="829.3" cy="258.6" r="8" />
<circle cx="856.4" cy="232.2" r="8" />
<circle cx="879.4" cy="214.1" r="8" />
<circle cx="901.4" cy="196.3" r="8" />
<circle cx="948.8" cy="152.7" r="8" />
<circle cx="1012.0" cy="107.1" r="8" />
<circle cx="914.6" cy="128.9" r="8" />
<circle cx="920.1" cy="94.4" r="8" />
<circle cx="868.8" cy="54.0" r="8" />
<circle cx="794.0" cy="45.0" r="8" />
<circle cx="796.7" cy="12.0" r="8" />
<style>
circle {
fill: white;
stroke: #525252;
stroke-width: 4;
}
path {
fill: none;
stroke: #525252;
stroke-width: 8;
}</style>
</svg>