<svg width="1024.0" height="435.4" xmlns="http://www.w3.org/2000/svg">
<path d="M12.0 12.0 L27.6 27.6 L68.1 27.6 L105.9 27.6 L152.0 73.7 L295.5 217.2 L304.5 217.2 L339.4 217.2 L357.0 199.6 L375.8 218.4 L399.5 218.4 L434.4 218.4 L466.8 250.8 L487.6 271.6 L509.8 271.6 L528.2 271.6 L545.3 288.7 L579.4 322.9 L613.0 322.9 L672.7 322.9 L708.6 358.8 L743.1 393.3 L872.6 393.3 L900.6 393.3 L909.3 401.9 L914.5 407.1 L950.3 407.1 L965.6 407.1 L977.5 419.0 L981.8 423.4 L1012.0 423.4 " />
<circle cx="12.0" cy="12.0" r="8" />
<circle cx="68.1" cy="27.6" r="8" />
<circle cx="152.0" cy="73.7" r="8" />
<circle cx="304.5" cy="217.2" r="8" />
<circle cx="357.0" cy="199.6" r="8" />
<circle cx="399.5" cy="218.4" r="8" />
<circle cx="466.8" cy="250.8" r="8" />
<circle cx="509.8" cy="271.6" r="8" />
<circle cx="545.3" cy="288.7" r="8" />
<circle cx="613.0" cy="322.9" r="8" />
<circle cx="708.6" cy="358.8" r="8" />
<circle cx="872.6" cy="393.3" r="8" />
<circle cx="909.3" cy="401.9" r="8" />
<circle cx="950.3" cy="407.1" r="8" />
<circle cx="977.5" cy="419.0" r="8" />
<circle cx="1012.0" cy="423.4" r="8" />
<style>
circle {
fill: white;
stroke: #525252;
stroke-width: 4;
}
path {
fill: none;
stroke: #525252;
stroke-width: 8;
}</style>
</svg>