<svg width="1024.0" height="405.6" xmlns="http://www.w3.org/2000/svg">
<path d="M17.1 213.2 L12.0 218.2 L12.0 261.0 L12.8 261.0 L36.9 285.1 L42.1 279.9 L112.0 279.9 L178.3 279.9 L179.9 281.5 L183.1 284.6 L242.7 284.6 L316.2 284.6 L327.7 296.1 L357.1 325.5 L420.7 325.5 L484.3 325.5 L495.8 337.0 L539.9 381.1 L658.0 381.1 L786.9 381.1 L799.3 393.6 L799.3 350.6 L814.5 335.4 L825.6 324.3 L825.6 289.3 L825.6 261.0 L848.6 238.0 L902.6 184.0 L945.7 184.0 L945.7 156.9 L946.8 155.8 L968.5 134.1 L968.5 126.6 L968.5 82.3 L963.0 76.8 L1012.0 27.8 L1012.0 12.0 " />
<circle cx="17.1" cy="213.2" r="8" />
<circle cx="12.0" cy="261.0" r="8" />
<circle cx="36.9" cy="285.1" r="8" />
<circle cx="112.0" cy="279.9" r="8" />
<circle cx="179.9" cy="281.5" r="8" />
<circle cx="242.7" cy="284.6" r="8" />
<circle cx="327.7" cy="296.1" r="8" />
<circle cx="420.7" cy="325.5" r="8" />
<circle cx="495.8" cy="337.0" r="8" />
<circle cx="658.0" cy="381.1" r="8" />
<circle cx="799.3" cy="393.6" r="8" />
<circle cx="814.5" cy="335.4" r="8" />
<circle cx="825.6" cy="289.3" r="8" />
<circle cx="848.6" cy="238.0" r="8" />
<circle cx="945.7" cy="184.0" r="8" />
<circle cx="946.8" cy="155.8" r="8" />
<circle cx="968.5" cy="126.6" r="8" />
<circle cx="963.0" cy="76.8" r="8" />
<circle cx="1012.0" cy="12.0" r="8" />
<style>
circle {
fill: white;
stroke: #525252;
stroke-width: 4;
}
path {
fill: none;
stroke: #525252;
stroke-width: 8;
}</style>
</svg>