<svg width="1024.0" height="841.0" xmlns="http://www.w3.org/2000/svg">
<path d="M12.0 828.9593198605645 L12.0 765.7 L37.9 739.8 L82.5 695.2 L82.5 691.5 L131.0 691.5 L199.2 623.2 L229.1 593.4 L301.4 593.4 L394.8 593.4 L427.5 560.7 L474.2 514.0 L474.2 476.8 L474.2 398.7 L501.7 371.2 L521.9 351.0 L521.9 287.4 L521.9 236.1 L563.6 194.4 L661.5 96.5 L739.8 96.5 L795.0 96.5 L866.5 24.9 L879.4 12.0 L971.7 12.0 L971.7 63.9 L1012.0 104.2 L979.5 104.2 L931.5 152.2 " />
<circle cx="12.0" cy="829.0" r="8" />
<circle cx="37.9" cy="739.8" r="8" />
<circle cx="82.5" cy="691.5" r="8" />
<circle cx="199.2" cy="623.2" r="8" />
<circle cx="301.4" cy="593.4" r="8" />
<circle cx="427.5" cy="560.7" r="8" />
<circle cx="474.2" cy="476.8" r="8" />
<circle cx="501.7" cy="371.2" r="8" />
<circle cx="521.9" cy="287.4" r="8" />
<circle cx="563.6" cy="194.4" r="8" />
<circle cx="739.8" cy="96.5" r="8" />
<circle cx="866.5" cy="24.9" r="8" />
<circle cx="971.7" cy="12.0" r="8" />
<circle cx="1012.0" cy="104.2" r="8" />
<circle cx="931.5" cy="152.2" r="8" />
<style>
circle {
fill: white;
stroke: #525252;
stroke-width: 4;
}
path {
fill: none;
stroke: #525252;
stroke-width: 8;
}</style>
</svg>