<svg width="1024.0" height="321.3" xmlns="http://www.w3.org/2000/svg">
<path d="M12.0 12.0 L41.3 12.0 L52.5 23.3 L85.9 56.6 L113.1 56.6 L119.7 56.6 L223.3 160.2 L248.5 160.2 L261.2 147.5 L278.3 147.5 L291.9 161.1 L315.3 184.5 L340.5 184.5 L356.5 184.5 L371.5 199.5 L383.8 211.8 L397.2 211.8 L421.1 211.8 L445.7 236.4 L471.7 262.5 L515.1 262.5 L608.6 262.5 L633.5 287.4 L639.8 293.6 L660.0 293.6 L685.9 293.6 L689.7 297.4 L701.6 309.3 L735.2 309.3 L776.8 309.3 L794.1 292.0 L814.1 272.0 L842.4 272.0 L867.2 272.0 L883.3 255.9 L902.4 236.8 L928.0 236.8 L958.7 236.8 L972.0 223.5 L982.9 212.6 L1012.0 212.6 " />
<circle cx="12.0" cy="12.0" r="8" />
<circle cx="52.5" cy="23.3" r="8" />
<circle cx="113.1" cy="56.6" r="8" />
<circle cx="223.3" cy="160.2" r="8" />
<circle cx="261.2" cy="147.5" r="8" />
<circle cx="291.9" cy="161.1" r="8" />
<circle cx="340.5" cy="184.5" r="8" />
<circle cx="371.5" cy="199.5" r="8" />
<circle cx="397.2" cy="211.8" r="8" />
<circle cx="445.7" cy="236.4" r="8" />
<circle cx="515.1" cy="262.5" r="8" />
<circle cx="633.5" cy="287.4" r="8" />
<circle cx="660.0" cy="293.6" r="8" />
<circle cx="689.7" cy="297.4" r="8" />
<circle cx="735.2" cy="309.3" r="8" />
<circle cx="794.1" cy="292.0" r="8" />
<circle cx="842.4" cy="272.0" r="8" />
<circle cx="883.3" cy="255.9" r="8" />
<circle cx="928.0" cy="236.8" r="8" />
<circle cx="972.0" cy="223.5" r="8" />
<circle cx="1012.0" cy="212.6" r="8" />
<style>
circle {
fill: white;
stroke: black;
stroke-width: 4;
}
path {
fill: none;
stroke: #FFFFFF;
stroke-width: 8;
}</style>
</svg>