<svg width="1024.0" height="182.1" xmlns="http://www.w3.org/2000/svg">
<path d="M12.0 88.89984447401754 L88.9 12.0 L125.8 12.0 L325.8 12.0 L376.3 62.5 L401.6 87.8 L482.4 87.8 L582.5 87.8 L595.7 101.0 L664.9 170.1 L695.3 170.1 L744.2 170.1 L756.8 157.5 L786.0 128.3 L786.0 114.2 L991.8 114.2 L1012.0 134.4 " />
<circle cx="12.0" cy="88.9" r="8" />
<circle cx="125.8" cy="12.0" r="8" />
<circle cx="376.3" cy="62.5" r="8" />
<circle cx="482.4" cy="87.8" r="8" />
<circle cx="595.7" cy="101.0" r="8" />
<circle cx="695.3" cy="170.1" r="8" />
<circle cx="756.8" cy="157.5" r="8" />
<circle cx="786.0" cy="114.2" r="8" />
<circle cx="1012.0" cy="134.4" r="8" />
<style>
circle {
fill: white;
stroke: #525252;
stroke-width: 4;
}
path {
fill: none;
stroke: #525252;
stroke-width: 8;
}</style>
</svg>