<svg width="696.0" height="1024.0" xmlns="http://www.w3.org/2000/svg">
<path d="M145.41316036594282 1012.0 L145.4 980.8 L168.4 957.8 L90.7 957.8 L12.0 879.1 L12.0 780.4 L71.0 721.4 L145.3 647.1 L145.3 523.7 L145.3 435.2 L155.4 425.1 L158.8 421.7 L158.8 370.5 L231.9 297.3 L263.3 297.3 L263.3 219.0 L256.3 212.0 L256.1 212.2 L176.1 212.2 L303.6 212.2 L336.7 245.3 L382.0 290.6 L416.9 290.6 L431.3 290.6 L490.6 349.9 L546.8 349.9 L561.5 335.2 L601.9 294.8 L603.5 294.8 L628.5 269.8 L628.5 248.4 L628.5 209.7 L637.5 200.6 L536.2 200.6 L465.9 130.3 L508.8 87.4 L559.6 87.4 L608.7 87.4 L684.0 12.0 " />
<circle cx="145.4" cy="1012.0" r="8" />
<circle cx="168.4" cy="957.8" r="8" />
<circle cx="12.0" cy="879.1" r="8" />
<circle cx="71.0" cy="721.4" r="8" />
<circle cx="145.3" cy="523.7" r="8" />
<circle cx="155.4" cy="425.1" r="8" />
<circle cx="158.8" cy="370.5" r="8" />
<circle cx="263.3" cy="297.3" r="8" />
<circle cx="256.3" cy="212.0" r="8" />
<circle cx="176.1" cy="212.2" r="8" />
<circle cx="336.7" cy="245.3" r="8" />
<circle cx="416.9" cy="290.6" r="8" />
<circle cx="490.6" cy="349.9" r="8" />
<circle cx="561.5" cy="335.2" r="8" />
<circle cx="603.5" cy="294.8" r="8" />
<circle cx="628.5" cy="248.4" r="8" />
<circle cx="637.5" cy="200.6" r="8" />
<circle cx="465.9" cy="130.3" r="8" />
<circle cx="559.6" cy="87.4" r="8" />
<circle cx="684.0" cy="12.0" r="8" />
<style>
circle {
fill: white;
stroke: #525252;
stroke-width: 4;
}
path {
fill: none;
stroke: #525252;
stroke-width: 8;
}</style>
</svg>