<svg width="1024.0" height="733.7" xmlns="http://www.w3.org/2000/svg">
<path d="M59.3 721.7 L62.8 718.2 L63.9 718.2 L79.3 718.2 L96.4 701.0 L59.8 664.4 L17.1 664.4 L12.0 659.3 L12.0 642.5 L12.0 640.6 L79.9 572.8 L110.5 542.1 L110.5 534.4 L122.1 534.4 L172.2 484.3 L231.2 543.4 L273.2 543.4 L273.2 525.0 L353.2 445.0 L389.6 408.6 L389.6 398.2 L435.1 398.2 L461.9 371.5 L520.1 313.2 L564.8 313.2 L665.2 313.2 L739.8 238.6 L774.9 203.5 L784.2 203.5 L788.3 203.5 L817.7 174.0 L826.6 165.2 L826.6 142.8 L828.8 142.8 L868.2 103.5 L884.9 86.7 L884.9 84.9 L908.4 84.9 L937.2 56.1 L981.3 12.0 L1012.0 12.0 " />
<circle cx="59.3" cy="721.7" r="8" />
<circle cx="63.9" cy="718.2" r="8" />
<circle cx="96.4" cy="701.0" r="8" />
<circle cx="17.1" cy="664.4" r="8" />
<circle cx="12.0" cy="642.5" r="8" />
<circle cx="79.9" cy="572.8" r="8" />
<circle cx="110.5" cy="534.4" r="8" />
<circle cx="172.2" cy="484.3" r="8" />
<circle cx="273.2" cy="543.4" r="8" />
<circle cx="353.2" cy="445.0" r="8" />
<circle cx="389.6" cy="398.2" r="8" />
<circle cx="461.9" cy="371.5" r="8" />
<circle cx="564.8" cy="313.2" r="8" />
<circle cx="739.8" cy="238.6" r="8" />
<circle cx="784.2" cy="203.5" r="8" />
<circle cx="817.7" cy="174.0" r="8" />
<circle cx="826.6" cy="142.8" r="8" />
<circle cx="868.2" cy="103.5" r="8" />
<circle cx="884.9" cy="84.9" r="8" />
<circle cx="937.2" cy="56.1" r="8" />
<circle cx="1012.0" cy="12.0" r="8" />
<style>
circle {
fill: white;
stroke: #525252;
stroke-width: 4;
}
path {
fill: none;
stroke: #525252;
stroke-width: 8;
}</style>
</svg>