<svg width="712.1" height="1024.0" xmlns="http://www.w3.org/2000/svg">
<path d="M595.8672697155636 12.0 L595.9 68.2 L641.3 113.6 L700.1 172.4 L700.1 227.9 L700.1 316.8 L679.7 337.2 L585.3 431.6 L585.3 506.3 L529.3 562.2 L514.4 562.2 L504.8 571.8 L504.8 630.8 L500.2 635.4 L463.7 635.4 L383.2 635.4 L359.3 611.5 L310.6 562.8 L159.6 562.8 L73.2 562.8 L12.0 624.0 L12.0 648.3 L39.3 675.6 L241.3 675.6 L249.7 667.2 L281.8 699.3 L281.8 747.4 L281.8 842.4 L278.7 845.5 L277.9 846.3 L277.9 936.5 L277.9 963.7 L229.6 1012.0 L100.1 1012.0 L61.9 973.7 " />
<circle cx="595.9" cy="12.0" r="8" />
<circle cx="641.3" cy="113.6" r="8" />
<circle cx="700.1" cy="227.9" r="8" />
<circle cx="679.7" cy="337.2" r="8" />
<circle cx="585.3" cy="506.3" r="8" />
<circle cx="514.4" cy="562.2" r="8" />
<circle cx="504.8" cy="630.8" r="8" />
<circle cx="463.7" cy="635.4" r="8" />
<circle cx="359.3" cy="611.5" r="8" />
<circle cx="159.6" cy="562.8" r="8" />
<circle cx="12.0" cy="624.0" r="8" />
<circle cx="39.3" cy="675.6" r="8" />
<circle cx="249.7" cy="667.2" r="8" />
<circle cx="281.8" cy="747.4" r="8" />
<circle cx="278.7" cy="845.5" r="8" />
<circle cx="277.9" cy="936.5" r="8" />
<circle cx="229.6" cy="1012.0" r="8" />
<circle cx="61.9" cy="973.7" r="8" />
<style>
circle {
fill: white;
stroke: black;
stroke-width: 4;
}
path {
fill: none;
stroke: #FFFFFF;
stroke-width: 8;
}</style>
</svg>