<svg width="868.0" height="1024.0" xmlns="http://www.w3.org/2000/svg">
<path d="M804.1240612115089 1012.0 L823.3 992.8 L829.6 992.8 L856.0 966.4 L856.0 964.9 L856.0 949.8 L847.3 941.1 L820.2 914.0 L820.2 905.5 L820.2 876.3 L809.7 865.8 L794.4 850.6 L791.1 850.6 L789.9 850.6 L775.9 836.6 L705.5 766.2 L705.5 757.8 L705.5 693.7 L599.5 587.7 L569.2 557.4 L569.2 500.9 L427.5 359.2 L363.6 359.2 L363.6 304.4 L117.9 58.7 L83.0 23.8 L54.4 23.8 L23.8 23.8 L12.0 12.0 " />
<circle cx="804.1" cy="1012.0" r="8" />
<circle cx="829.6" cy="992.8" r="8" />
<circle cx="856.0" cy="964.9" r="8" />
<circle cx="847.3" cy="941.1" r="8" />
<circle cx="820.2" cy="905.5" r="8" />
<circle cx="809.7" cy="865.8" r="8" />
<circle cx="791.1" cy="850.6" r="8" />
<circle cx="775.9" cy="836.6" r="8" />
<circle cx="705.5" cy="757.8" r="8" />
<circle cx="599.5" cy="587.7" r="8" />
<circle cx="569.2" cy="500.9" r="8" />
<circle cx="363.6" cy="359.2" r="8" />
<circle cx="117.9" cy="58.7" r="8" />
<circle cx="54.4" cy="23.8" r="8" />
<circle cx="12.0" cy="12.0" r="8" />
<style>
circle {
fill: white;
stroke: #525252;
stroke-width: 4;
}
path {
fill: none;
stroke: #525252;
stroke-width: 8;
}</style>
</svg>