<svg width="1024.0" height="321.3" xmlns="http://www.w3.org/2000/svg">
<path d="M12.0 12.0 L23.3 23.3 L52.5 23.3 L79.8 23.3 L113.1 56.6 L216.7 160.2 L223.3 160.2 L248.5 160.2 L261.2 147.5 L274.7 161.1 L291.9 161.1 L317.0 161.1 L340.5 184.5 L355.5 199.5 L371.5 199.5 L384.8 199.5 L397.2 211.8 L421.7 236.4 L445.7 236.4 L489.0 236.4 L515.1 262.5 L540.0 287.4 L633.5 287.4 L653.8 287.4 L660.0 293.6 L663.8 297.4 L689.7 297.4 L723.3 297.4 L735.2 309.3 L752.6 292.0 L794.1 292.0 L822.5 292.0 L842.4 272.0 L858.5 255.9 L883.3 255.9 L908.9 255.9 L928.0 236.8 L941.4 223.5 L972.0 223.5 L1001.2 223.5 L1012.0 212.6 " />
<circle cx="12.0" cy="12.0" r="8" />
<circle cx="52.5" cy="23.3" r="8" />
<circle cx="113.1" cy="56.6" r="8" />
<circle cx="223.3" cy="160.2" r="8" />
<circle cx="261.2" cy="147.5" r="8" />
<circle cx="291.9" cy="161.1" r="8" />
<circle cx="340.5" cy="184.5" r="8" />
<circle cx="371.5" cy="199.5" r="8" />
<circle cx="397.2" cy="211.8" r="8" />
<circle cx="445.7" cy="236.4" r="8" />
<circle cx="515.1" cy="262.5" r="8" />
<circle cx="633.5" cy="287.4" r="8" />
<circle cx="660.0" cy="293.6" r="8" />
<circle cx="689.7" cy="297.4" r="8" />
<circle cx="735.2" cy="309.3" r="8" />
<circle cx="794.1" cy="292.0" r="8" />
<circle cx="842.4" cy="272.0" r="8" />
<circle cx="883.3" cy="255.9" r="8" />
<circle cx="928.0" cy="236.8" r="8" />
<circle cx="972.0" cy="223.5" r="8" />
<circle cx="1012.0" cy="212.6" r="8" />
<style>
circle {
fill: white;
stroke: black;
stroke-width: 4;
}
path {
fill: none;
stroke: #FFFFFF;
stroke-width: 8;
}</style>
</svg>