<svg width="523.1" height="1024.0" xmlns="http://www.w3.org/2000/svg">
<path d="M362.0758253962456 983.3906624651636 L352.2 993.2 L352.2 1012.0 L374.6 989.7 L443.3 989.7 L481.3 989.7 L511.1 959.9 L496.1 944.9 L472.2 944.9 L432.6 905.3 L432.6 896.8 L394.4 896.8 L381.0 883.4 L365.3 867.7 L333.3 867.7 L332.4 867.7 L308.3 843.6 L331.8 820.1 L331.8 793.7 L331.8 780.9 L348.6 764.1 L359.6 753.1 L359.6 733.0 L321.2 733.0 L310.1 721.9 L285.4 697.2 L208.9 697.2 L242.6 663.6 L274.8 663.6 L252.5 641.3 L252.5 639.3 L252.5 611.5 L238.6 597.6 L235.2 594.1 L235.2 575.1 L235.2 525.0 L247.5 512.6 L311.1 449.0 L340.1 449.0 L330.2 439.2 L330.2 402.8 L283.5 402.8 L255.4 374.7 L246.1 365.5 L217.3 365.5 L217.3 349.0 L238.6 327.7 L228.4 317.5 L163.4 317.5 L158.7 312.7 L158.7 282.2 L158.7 252.1 L142.7 236.2 L128.5 221.9 L128.5 202.6 L128.5 158.5 L124.5 154.6 L125.6 153.5 L125.6 125.3 L125.6 94.1 L125.0 93.5 L129.3 89.2 L129.3 57.3 L74.0 57.3 L72.1 59.3 L68.1 55.4 L12.0 55.4 L12.0 12.4 L12.4 12.0 " />
<circle cx="362.1" cy="983.4" r="8" />
<circle cx="352.2" cy="1012.0" r="8" />
<circle cx="443.3" cy="989.7" r="8" />
<circle cx="511.1" cy="959.9" r="8" />
<circle cx="472.2" cy="944.9" r="8" />
<circle cx="432.6" cy="896.8" r="8" />
<circle cx="381.0" cy="883.4" r="8" />
<circle cx="333.3" cy="867.7" r="8" />
<circle cx="308.3" cy="843.6" r="8" />
<circle cx="331.8" cy="793.7" r="8" />
<circle cx="348.6" cy="764.1" r="8" />
<circle cx="359.6" cy="733.0" r="8" />
<circle cx="310.1" cy="721.9" r="8" />
<circle cx="208.9" cy="697.2" r="8" />
<circle cx="274.8" cy="663.6" r="8" />
<circle cx="252.5" cy="639.3" r="8" />
<circle cx="238.6" cy="597.6" r="8" />
<circle cx="235.2" cy="575.1" r="8" />
<circle cx="247.5" cy="512.6" r="8" />
<circle cx="340.1" cy="449.0" r="8" />
<circle cx="330.2" cy="402.8" r="8" />
<circle cx="255.4" cy="374.7" r="8" />
<circle cx="217.3" cy="365.5" r="8" />
<circle cx="238.6" cy="327.7" r="8" />
<circle cx="163.4" cy="317.5" r="8" />
<circle cx="158.7" cy="282.2" r="8" />
<circle cx="142.7" cy="236.2" r="8" />
<circle cx="128.5" cy="202.6" r="8" />
<circle cx="124.5" cy="154.6" r="8" />
<circle cx="125.6" cy="125.3" r="8" />
<circle cx="125.0" cy="93.5" r="8" />
<circle cx="129.3" cy="57.3" r="8" />
<circle cx="72.1" cy="59.3" r="8" />
<circle cx="12.0" cy="55.4" r="8" />
<circle cx="12.4" cy="12.0" r="8" />
<style>
circle {
fill: white;
stroke: #525252;
stroke-width: 4;
}
path {
fill: none;
stroke: #525252;
stroke-width: 8;
}</style>
</svg>