<svg width="523.1" height="1024.0" xmlns="http://www.w3.org/2000/svg">
<path d="M12.378406390540595 12.0 L12.4 55.0 L12.0 55.4 L15.9 59.3 L72.1 59.3 L127.3 59.3 L129.3 57.3 L125.0 61.6 L125.0 93.5 L125.0 124.7 L125.6 125.3 L125.6 153.5 L124.5 154.6 L124.5 198.7 L128.5 202.6 L142.7 216.9 L142.7 236.2 L142.7 266.2 L158.7 282.2 L163.4 286.9 L163.4 317.5 L173.6 327.7 L238.6 327.7 L238.6 344.1 L217.3 365.5 L254.7 402.8 L330.2 402.8 L340.1 412.7 L340.1 449.0 L276.5 512.6 L247.5 512.6 L243.9 516.2 L243.9 554.3 L243.9 566.4 L235.2 575.1 L232.0 578.3 L232.0 619.3 L232.0 637.9 L224.1 645.8 L208.9 660.9 L208.9 697.2 L233.6 721.9 L310.1 721.9 L348.5 721.9 L359.6 733.0 L359.6 753.1 L348.6 764.1 L331.8 780.9 L331.8 793.7 L331.8 820.1 L308.3 843.6 L332.4 867.7 L333.3 867.7 L365.3 867.7 L381.0 883.4 L394.4 896.8 L432.6 896.8 L472.2 936.4 L472.2 944.9 L487.2 959.9 L511.1 959.9 L473.0 959.9 L443.3 989.7 L420.9 1012.0 L352.2 1012.0 L362.1 1002.2 L362.1 983.4 " />
<circle cx="12.4" cy="12.0" r="8" />
<circle cx="12.0" cy="55.4" r="8" />
<circle cx="72.1" cy="59.3" r="8" />
<circle cx="129.3" cy="57.3" r="8" />
<circle cx="125.0" cy="93.5" r="8" />
<circle cx="125.6" cy="125.3" r="8" />
<circle cx="124.5" cy="154.6" r="8" />
<circle cx="128.5" cy="202.6" r="8" />
<circle cx="142.7" cy="236.2" r="8" />
<circle cx="158.7" cy="282.2" r="8" />
<circle cx="163.4" cy="317.5" r="8" />
<circle cx="238.6" cy="327.7" r="8" />
<circle cx="217.3" cy="365.5" r="8" />
<circle cx="330.2" cy="402.8" r="8" />
<circle cx="340.1" cy="449.0" r="8" />
<circle cx="247.5" cy="512.6" r="8" />
<circle cx="243.9" cy="554.3" r="8" />
<circle cx="235.2" cy="575.1" r="8" />
<circle cx="232.0" cy="619.3" r="8" />
<circle cx="224.1" cy="645.8" r="8" />
<circle cx="208.9" cy="697.2" r="8" />
<circle cx="310.1" cy="721.9" r="8" />
<circle cx="359.6" cy="733.0" r="8" />
<circle cx="348.6" cy="764.1" r="8" />
<circle cx="331.8" cy="793.7" r="8" />
<circle cx="308.3" cy="843.6" r="8" />
<circle cx="333.3" cy="867.7" r="8" />
<circle cx="381.0" cy="883.4" r="8" />
<circle cx="432.6" cy="896.8" r="8" />
<circle cx="472.2" cy="944.9" r="8" />
<circle cx="511.1" cy="959.9" r="8" />
<circle cx="443.3" cy="989.7" r="8" />
<circle cx="352.2" cy="1012.0" r="8" />
<circle cx="362.1" cy="983.4" r="8" />
<style>
circle {
fill: white;
stroke: #525252;
stroke-width: 4;
}
path {
fill: none;
stroke: #525252;
stroke-width: 8;
}</style>
</svg>