<svg width="797.8" height="1024.0" xmlns="http://www.w3.org/2000/svg">
<path d="M656.6 1012.0 L625.3 980.7 L307.2 980.7 L307.2 951.3 L313.0 945.5 L249.0 881.4 L244.3 881.4 L162.1 799.3 L162.1 798.8 L162.1 798.0 L12.0 647.8 L246.7 647.8 L414.3 815.5 L414.3 760.1 L541.4 633.0 L785.8 388.6 L785.8 285.8 L785.8 150.8 L661.6 26.6 L647.0 12.0 L565.8 12.0 " />
<circle cx="656.6" cy="1012.0" r="8" />
<circle cx="307.2" cy="980.7" r="8" />
<circle cx="313.0" cy="945.5" r="8" />
<circle cx="244.3" cy="881.4" r="8" />
<circle cx="162.1" cy="798.8" r="8" />
<circle cx="12.0" cy="647.8" r="8" />
<circle cx="414.3" cy="815.5" r="8" />
<circle cx="541.4" cy="633.0" r="8" />
<circle cx="785.8" cy="285.8" r="8" />
<circle cx="661.6" cy="26.6" r="8" />
<circle cx="565.8" cy="12.0" r="8" />
<style>
circle {
fill: white;
stroke: #525252;
stroke-width: 4;
}
path {
fill: none;
stroke: #525252;
stroke-width: 8;
}</style>
</svg>