<svg width="1024.0" height="450.0" xmlns="http://www.w3.org/2000/svg">
<path d="M12.0 438.0 L45.9 404.1 L87.1 404.1 L100.2 404.1 L142.2 362.1 L181.4 322.9 L183.4 322.9 L191.5 322.9 L242.7 271.6 L285.0 229.3 L285.0 224.3 L337.5 224.3 L383.4 178.4 L400.1 161.8 L452.5 161.8 L452.5 146.5 L482.1 116.9 L495.2 103.8 L495.2 92.9 L513.2 111.0 L576.9 111.0 L627.9 111.0 L632.4 106.4 L649.1 123.0 L678.7 123.0 L723.0 123.0 L740.3 140.4 L762.4 162.5 L803.2 162.5 L869.6 162.5 L894.7 187.6 L913.3 206.2 L945.6 206.2 L945.6 172.9 L970.4 148.1 L996.3 122.2 L996.3 65.9 L996.3 27.7 L1012.0 12.0 " />
<circle cx="12.0" cy="438.0" r="8" />
<circle cx="87.1" cy="404.1" r="8" />
<circle cx="142.2" cy="362.1" r="8" />
<circle cx="183.4" cy="322.9" r="8" />
<circle cx="242.7" cy="271.6" r="8" />
<circle cx="285.0" cy="224.3" r="8" />
<circle cx="383.4" cy="178.4" r="8" />
<circle cx="452.5" cy="161.8" r="8" />
<circle cx="482.1" cy="116.9" r="8" />
<circle cx="495.2" cy="92.9" r="8" />
<circle cx="576.9" cy="111.0" r="8" />
<circle cx="632.4" cy="106.4" r="8" />
<circle cx="678.7" cy="123.0" r="8" />
<circle cx="740.3" cy="140.4" r="8" />
<circle cx="803.2" cy="162.5" r="8" />
<circle cx="894.7" cy="187.6" r="8" />
<circle cx="945.6" cy="206.2" r="8" />
<circle cx="970.4" cy="148.1" r="8" />
<circle cx="996.3" cy="65.9" r="8" />
<circle cx="1012.0" cy="12.0" r="8" />
<style>
circle {
fill: white;
stroke: #6CC24A;
stroke-width: 4;
}
path {
fill: none;
stroke: #6CC24A;
stroke-width: 8;
}</style>
</svg>