<svg width="1024.0" height="583.2" xmlns="http://www.w3.org/2000/svg">
<path d="M12.0 571.1914921418984 L66.7 516.5 L133.0 516.5 L154.2 516.5 L221.8 448.9 L285.0 385.7 L288.3 385.7 L301.3 385.7 L383.9 303.0 L452.1 234.9 L452.1 226.8 L536.6 226.8 L610.6 152.8 L641.7 121.8 L641.7 98.4 L641.7 54.1 L677.2 18.6 L680.8 14.9 L790.8 14.9 L893.4 14.9 L922.5 44.1 L929.9 36.8 L1012.0 36.8 L987.2 12.0 L918.1 12.0 L864.3 12.0 L855.6 20.7 " />
<circle cx="12.0" cy="571.2" r="8" />
<circle cx="133.0" cy="516.5" r="8" />
<circle cx="221.8" cy="448.9" r="8" />
<circle cx="288.3" cy="385.7" r="8" />
<circle cx="383.9" cy="303.0" r="8" />
<circle cx="452.1" cy="226.8" r="8" />
<circle cx="610.6" cy="152.8" r="8" />
<circle cx="641.7" cy="98.4" r="8" />
<circle cx="677.2" cy="18.6" r="8" />
<circle cx="790.8" cy="14.9" r="8" />
<circle cx="922.5" cy="44.1" r="8" />
<circle cx="1012.0" cy="36.8" r="8" />
<circle cx="918.1" cy="12.0" r="8" />
<circle cx="855.6" cy="20.7" r="8" />
<style>
circle {
fill: white;
stroke: black;
stroke-width: 4;
}
path {
fill: none;
stroke: #FFFFFF;
stroke-width: 8;
}</style>
</svg>