<svg width="1024.0" height="179.8" xmlns="http://www.w3.org/2000/svg">
<path d="M1012.0 139.46831787758288 L1003.1 139.5 L996.8 133.2 L994.2 135.8 L953.1 135.8 L945.8 135.8 L929.4 119.4 L911.8 101.8 L900.7 101.8 L869.9 101.8 L860.3 111.4 L843.1 128.5 L822.0 128.5 L818.6 128.5 L803.0 144.1 L792.5 154.7 L774.3 154.7 L752.2 154.7 L739.1 167.8 L686.8 167.8 L664.8 145.7 L650.8 131.8 L578.2 131.8 L517.1 131.8 L511.4 126.0 L504.1 118.8 L491.8 118.8 L434.9 118.8 L421.2 105.2 L402.5 86.4 L370.7 86.4 L335.9 86.4 L322.3 72.9 L322.3 55.7 L335.3 42.8 L340.4 37.7 L340.4 12.0 L327.6 24.8 L297.0 24.8 L269.2 24.8 L261.7 32.3 L246.4 47.6 L208.1 47.6 L187.2 47.6 L178.8 56.0 L160.4 74.4 L152.5 74.4 L141.3 74.4 L128.4 87.3 L117.7 98.0 L97.8 98.0 L78.8 98.0 L67.9 108.9 L57.9 119.0 L40.6 119.0 L19.5 119.0 L12.0 126.5 " />
<circle cx="1012.0" cy="139.5" r="8" />
<circle cx="996.8" cy="133.2" r="8" />
<circle cx="953.1" cy="135.8" r="8" />
<circle cx="929.4" cy="119.4" r="8" />
<circle cx="900.7" cy="101.8" r="8" />
<circle cx="860.3" cy="111.4" r="8" />
<circle cx="822.0" cy="128.5" r="8" />
<circle cx="803.0" cy="144.1" r="8" />
<circle cx="774.3" cy="154.7" r="8" />
<circle cx="739.1" cy="167.8" r="8" />
<circle cx="664.8" cy="145.7" r="8" />
<circle cx="578.2" cy="131.8" r="8" />
<circle cx="511.4" cy="126.0" r="8" />
<circle cx="491.8" cy="118.8" r="8" />
<circle cx="421.2" cy="105.2" r="8" />
<circle cx="370.7" cy="86.4" r="8" />
<circle cx="322.3" cy="72.9" r="8" />
<circle cx="335.3" cy="42.8" r="8" />
<circle cx="340.4" cy="12.0" r="8" />
<circle cx="297.0" cy="24.8" r="8" />
<circle cx="261.7" cy="32.3" r="8" />
<circle cx="208.1" cy="47.6" r="8" />
<circle cx="178.8" cy="56.0" r="8" />
<circle cx="152.5" cy="74.4" r="8" />
<circle cx="128.4" cy="87.3" r="8" />
<circle cx="97.8" cy="98.0" r="8" />
<circle cx="67.9" cy="108.9" r="8" />
<circle cx="40.6" cy="119.0" r="8" />
<circle cx="12.0" cy="126.5" r="8" />
<style>
circle {
fill: white;
stroke: #D0006F;
stroke-width: 4;
}
path {
fill: none;
stroke: #D0006F;
stroke-width: 8;
}</style>
</svg>