<svg width="1024.0" height="388.6" xmlns="http://www.w3.org/2000/svg">
<path d="M12.0 71.3 L71.3 12.0 L132.0 12.0 L187.3 12.0 L187.6 12.3 L250.1 74.8 L283.1 74.8 L280.3 72.1 L280.3 47.4 L342.2 109.2 L342.2 114.7 L397.3 114.7 L451.5 169.0 L479.1 196.6 L494.2 196.6 L567.8 196.6 L575.6 204.4 L576.7 205.5 L626.8 205.5 L728.4 205.5 L733.1 210.3 L747.6 224.7 L781.7 224.7 L781.7 246.9 L815.4 280.6 L849.5 314.7 L849.5 365.3 L899.1 365.3 L910.4 376.6 L911.6 375.4 L1000.4 375.4 L1000.4 360.5 L1012.0 348.9 L1000.8 337.7 L1000.8 327.9 " />
<circle cx="12.0" cy="71.3" r="8" />
<circle cx="132.0" cy="12.0" r="8" />
<circle cx="187.6" cy="12.3" r="8" />
<circle cx="283.1" cy="74.8" r="8" />
<circle cx="280.3" cy="47.4" r="8" />
<circle cx="342.2" cy="114.7" r="8" />
<circle cx="451.5" cy="169.0" r="8" />
<circle cx="494.2" cy="196.6" r="8" />
<circle cx="575.6" cy="204.4" r="8" />
<circle cx="626.8" cy="205.5" r="8" />
<circle cx="733.1" cy="210.3" r="8" />
<circle cx="781.7" cy="224.7" r="8" />
<circle cx="815.4" cy="280.6" r="8" />
<circle cx="849.5" cy="365.3" r="8" />
<circle cx="910.4" cy="376.6" r="8" />
<circle cx="1000.4" cy="375.4" r="8" />
<circle cx="1012.0" cy="348.9" r="8" />
<circle cx="1000.8" cy="327.9" r="8" />
<style>
circle {
fill: white;
stroke: #525252;
stroke-width: 4;
}
path {
fill: none;
stroke: #525252;
stroke-width: 8;
}</style>
</svg>