<svg width="1024.0" height="556.6" xmlns="http://www.w3.org/2000/svg">
<path d="M189.77733402612637 474.04252589650457 L338.7 474.0 L392.0 420.8 L477.2 420.8 L601.0 544.6 L737.6 544.6 L739.1 543.0 L691.7 543.0 L615.4 466.7 L585.0 436.3 L585.0 349.5 L661.5 273.0 L796.2 273.0 L936.2 273.0 L1012.0 197.2 L913.5 197.2 L763.6 47.3 L678.5 132.4 L586.5 132.4 L425.0 132.4 L304.6 12.0 L373.0 80.4 L373.0 137.7 L312.8 197.9 L12.0 197.9 L85.7 197.9 L170.9 283.1 " />
<circle cx="189.8" cy="474.0" r="8" />
<circle cx="392.0" cy="420.8" r="8" />
<circle cx="601.0" cy="544.6" r="8" />
<circle cx="739.1" cy="543.0" r="8" />
<circle cx="615.4" cy="466.7" r="8" />
<circle cx="585.0" cy="349.5" r="8" />
<circle cx="796.2" cy="273.0" r="8" />
<circle cx="1012.0" cy="197.2" r="8" />
<circle cx="763.6" cy="47.3" r="8" />
<circle cx="586.5" cy="132.4" r="8" />
<circle cx="304.6" cy="12.0" r="8" />
<circle cx="373.0" cy="137.7" r="8" />
<circle cx="12.0" cy="197.9" r="8" />
<circle cx="170.9" cy="283.1" r="8" />
<style>
circle {
fill: white;
stroke: #525252;
stroke-width: 4;
}
path {
fill: none;
stroke: #525252;
stroke-width: 8;
}</style>
</svg>