<svg width="427.3" height="1024.0" xmlns="http://www.w3.org/2000/svg">
<path d="M382.6 12.0 L382.6 49.5 L400.5 67.3 L405.1 72.0 L405.1 126.2 L405.1 198.4 L415.3 208.5 L360.3 263.5 L360.3 353.0 L360.3 356.0 L281.6 434.8 L190.4 525.9 L190.4 597.2 L190.4 666.5 L141.9 715.0 L112.6 744.3 L112.6 837.3 L112.6 883.2 L91.5 904.2 L12.0 983.7 L12.0 1012.0 " />
<circle cx="382.6" cy="12.0" r="8" />
<circle cx="400.5" cy="67.3" r="8" />
<circle cx="405.1" cy="126.2" r="8" />
<circle cx="415.3" cy="208.5" r="8" />
<circle cx="360.3" cy="353.0" r="8" />
<circle cx="281.6" cy="434.8" r="8" />
<circle cx="190.4" cy="597.2" r="8" />
<circle cx="141.9" cy="715.0" r="8" />
<circle cx="112.6" cy="837.3" r="8" />
<circle cx="91.5" cy="904.2" r="8" />
<circle cx="12.0" cy="1012.0" r="8" />
<style>
circle {
fill: white;
stroke: #525252;
stroke-width: 4;
}
path {
fill: none;
stroke: #525252;
stroke-width: 8;
}</style>
</svg>