<svg width="1024.0" height="923.7" xmlns="http://www.w3.org/2000/svg">
<path d="M12.0 911.6976809407431 L69.9 853.8 L98.4 853.8 L98.4 428.6 L227.1 299.9 L311.4 384.2 L315.5 384.2 L323.1 384.2 L381.1 442.1 L462.6 360.7 L577.5 360.7 L577.5 357.7 L660.9 274.3 L780.0 155.2 L780.0 154.7 L780.0 29.1 L797.1 12.0 L797.1 270.3 L532.9 534.5 L595.4 534.5 L729.5 668.6 L777.6 716.7 L881.9 716.7 L999.3 716.7 L1012.0 729.5 L944.1 729.5 L838.8 834.7 L810.1 863.4 L735.7 863.4 " />
<circle cx="12.0" cy="911.7" r="8" />
<circle cx="98.4" cy="853.8" r="8" />
<circle cx="227.1" cy="299.9" r="8" />
<circle cx="315.5" cy="384.2" r="8" />
<circle cx="381.1" cy="442.1" r="8" />
<circle cx="577.5" cy="360.7" r="8" />
<circle cx="660.9" cy="274.3" r="8" />
<circle cx="780.0" cy="154.7" r="8" />
<circle cx="797.1" cy="12.0" r="8" />
<circle cx="532.9" cy="534.5" r="8" />
<circle cx="729.5" cy="668.6" r="8" />
<circle cx="881.9" cy="716.7" r="8" />
<circle cx="1012.0" cy="729.5" r="8" />
<circle cx="838.8" cy="834.7" r="8" />
<circle cx="735.7" cy="863.4" r="8" />
<style>
circle {
fill: white;
stroke: black;
stroke-width: 4;
}
path {
fill: none;
stroke: #FFFFFF;
stroke-width: 8;
}</style>
</svg>