<svg width="983.5" height="1024.0" xmlns="http://www.w3.org/2000/svg">
<path d="M971.4719063250536 932.9762111493491 L773.7 933.0 L728.4 978.3 L694.7 1012.0 L607.4 1012.0 L774.5 1012.0 L931.9 854.6 L794.0 854.6 L779.1 839.7 L722.6 783.2 L600.1 783.2 L564.4 783.2 L490.0 708.9 L406.8 625.6 L369.2 625.6 L421.6 573.3 L421.6 421.5 L421.6 418.0 L519.6 320.1 L659.5 180.2 L659.5 179.6 L659.5 32.1 L679.5 12.0 L190.9 500.6 L190.9 517.2 L122.8 449.1 L113.9 449.1 L112.0 449.1 L12.0 349.1 " />
<circle cx="971.5" cy="933.0" r="8" />
<circle cx="728.4" cy="978.3" r="8" />
<circle cx="607.4" cy="1012.0" r="8" />
<circle cx="931.9" cy="854.6" r="8" />
<circle cx="779.1" cy="839.7" r="8" />
<circle cx="600.1" cy="783.2" r="8" />
<circle cx="490.0" cy="708.9" r="8" />
<circle cx="369.2" cy="625.6" r="8" />
<circle cx="421.6" cy="421.5" r="8" />
<circle cx="519.6" cy="320.1" r="8" />
<circle cx="659.5" cy="179.6" r="8" />
<circle cx="679.5" cy="12.0" r="8" />
<circle cx="190.9" cy="517.2" r="8" />
<circle cx="113.9" cy="449.1" r="8" />
<circle cx="12.0" cy="349.1" r="8" />
<style>
circle {
fill: white;
stroke: black;
stroke-width: 4;
}
path {
fill: none;
stroke: #FFFFFF;
stroke-width: 8;
}</style>
</svg>