<svg width="1024.0" height="274.9" xmlns="http://www.w3.org/2000/svg">
<path d="M1012.0 38.1 L1011.5 38.7 L955.5 38.7 L862.6 38.7 L857.7 43.5 L850.5 36.2 L736.1 36.2 L668.5 36.2 L667.4 35.2 L660.8 28.5 L593.6 28.5 L529.7 28.5 L523.0 21.8 L513.2 12.0 L457.3 12.0 L425.4 12.0 L407.4 30.0 L399.9 37.5 L399.9 53.4 L399.9 69.0 L387.4 81.5 L375.6 93.3 L375.6 102.4 L344.8 102.4 L317.8 129.4 L292.9 154.3 L292.9 157.2 L288.1 157.2 L258.0 187.4 L234.9 210.5 L233.7 210.5 L226.0 210.5 L201.3 235.1 L181.4 255.1 L157.2 255.1 L157.2 247.2 L169.7 234.7 L147.3 212.3 L144.9 212.3 L129.4 212.3 L103.9 186.9 L83.1 186.9 L60.9 209.1 L44.6 225.3 L21.5 225.3 L32.8 236.6 L32.8 252.6 L22.3 252.6 L12.0 262.9 " />
<circle cx="1012.0" cy="38.1" r="8" />
<circle cx="955.5" cy="38.7" r="8" />
<circle cx="857.7" cy="43.5" r="8" />
<circle cx="736.1" cy="36.2" r="8" />
<circle cx="667.4" cy="35.2" r="8" />
<circle cx="593.6" cy="28.5" r="8" />
<circle cx="523.0" cy="21.8" r="8" />
<circle cx="457.3" cy="12.0" r="8" />
<circle cx="407.4" cy="30.0" r="8" />
<circle cx="399.9" cy="53.4" r="8" />
<circle cx="387.4" cy="81.5" r="8" />
<circle cx="375.6" cy="102.4" r="8" />
<circle cx="317.8" cy="129.4" r="8" />
<circle cx="292.9" cy="157.2" r="8" />
<circle cx="258.0" cy="187.4" r="8" />
<circle cx="233.7" cy="210.5" r="8" />
<circle cx="201.3" cy="235.1" r="8" />
<circle cx="157.2" cy="255.1" r="8" />
<circle cx="169.7" cy="234.7" r="8" />
<circle cx="144.9" cy="212.3" r="8" />
<circle cx="103.9" cy="186.9" r="8" />
<circle cx="60.9" cy="209.1" r="8" />
<circle cx="21.5" cy="225.3" r="8" />
<circle cx="32.8" cy="252.6" r="8" />
<circle cx="12.0" cy="262.9" r="8" />
<style>
circle {
fill: white;
stroke: #000000;
stroke-width: 4;
}
path {
fill: none;
stroke: #000000;
stroke-width: 8;
}</style>
</svg>