<svg width="494.4" height="1024.0" xmlns="http://www.w3.org/2000/svg">
<path d="M441.84496889762266 12.0 L441.8 61.2 L441.4 61.6 L441.4 136.3 L480.6 175.5 L480.6 275.7 L479.5 276.7 L479.5 353.9 L482.4 356.8 L482.4 457.7 L478.4 461.8 L404.7 535.5 L404.7 658.8 L404.7 683.8 L392.9 695.6 L354.8 733.7 L354.8 772.4 L312.4 814.8 L264.0 814.8 L225.0 853.9 L225.0 858.5 L177.6 905.8 L170.2 905.8 L168.3 905.8 L132.1 942.0 L93.4 980.7 L81.3 980.7 L43.3 980.7 L12.0 1012.0 " />
<circle cx="441.8" cy="12.0" r="8" />
<circle cx="441.4" cy="61.6" r="8" />
<circle cx="480.6" cy="175.5" r="8" />
<circle cx="479.5" cy="276.7" r="8" />
<circle cx="482.4" cy="356.8" r="8" />
<circle cx="478.4" cy="461.8" r="8" />
<circle cx="404.7" cy="658.8" r="8" />
<circle cx="392.9" cy="695.6" r="8" />
<circle cx="354.8" cy="772.4" r="8" />
<circle cx="264.0" cy="814.8" r="8" />
<circle cx="225.0" cy="858.5" r="8" />
<circle cx="170.2" cy="905.8" r="8" />
<circle cx="132.1" cy="942.0" r="8" />
<circle cx="81.3" cy="980.7" r="8" />
<circle cx="12.0" cy="1012.0" r="8" />
<style>
circle {
fill: white;
stroke: #946037;
stroke-width: 4;
}
path {
fill: none;
stroke: #946037;
stroke-width: 8;
}</style>
</svg>