<svg width="863.3" height="1024.0" xmlns="http://www.w3.org/2000/svg">
<path d="M470.0558267799889 226.6397122277697 L470.1 91.0 L549.1 12.0 L773.9 12.0 L851.3 89.4 L851.3 190.9 L723.0 319.1 L457.1 319.1 L437.8 299.8 L341.8 395.8 L144.8 395.8 L349.8 395.8 L416.1 462.1 L494.9 540.9 L595.4 540.9 L595.4 674.1 L544.8 724.6 L497.2 772.2 L497.2 887.1 L497.2 965.6 L450.8 1012.0 L245.8 1012.0 L239.9 1006.1 L187.9 954.1 L12.0 954.1 " />
<circle cx="470.1" cy="226.6" r="8" />
<circle cx="549.1" cy="12.0" r="8" />
<circle cx="851.3" cy="89.4" r="8" />
<circle cx="723.0" cy="319.1" r="8" />
<circle cx="437.8" cy="299.8" r="8" />
<circle cx="144.8" cy="395.8" r="8" />
<circle cx="416.1" cy="462.1" r="8" />
<circle cx="595.4" cy="540.9" r="8" />
<circle cx="544.8" cy="724.6" r="8" />
<circle cx="497.2" cy="887.1" r="8" />
<circle cx="450.8" cy="1012.0" r="8" />
<circle cx="239.9" cy="1006.1" r="8" />
<circle cx="12.0" cy="954.1" r="8" />
<style>
circle {
fill: white;
stroke: black;
stroke-width: 4;
}
path {
fill: none;
stroke: #FFFFFF;
stroke-width: 8;
}</style>
</svg>