<svg width="1024.0" height="731.1" xmlns="http://www.w3.org/2000/svg">
<path d="M997.4940587246266 719.1418728071908 L997.5 680.1 L1012.0 665.6 L986.4 640.0 L954.7 640.0 L951.6 636.9 L951.6 595.8 L898.6 595.8 L888.1 606.3 L886.7 607.8 L886.7 614.3 L886.7 619.8 L834.5 672.0 L822.6 660.1 L792.2 660.1 L764.6 660.1 L738.4 633.9 L719.0 614.5 L688.1 614.5 L741.4 561.3 L766.1 561.3 L761.6 556.8 L667.4 556.8 L631.8 556.8 L623.9 548.9 L468.3 393.3 L398.2 393.3 L128.3 123.5 L128.3 63.3 L97.0 63.3 L58.6 24.9 L45.7 12.0 L12.0 12.0 " />
<circle cx="997.5" cy="719.1" r="8" />
<circle cx="1012.0" cy="665.6" r="8" />
<circle cx="954.7" cy="640.0" r="8" />
<circle cx="951.6" cy="595.8" r="8" />
<circle cx="888.1" cy="606.3" r="8" />
<circle cx="886.7" cy="614.3" r="8" />
<circle cx="834.5" cy="672.0" r="8" />
<circle cx="792.2" cy="660.1" r="8" />
<circle cx="738.4" cy="633.9" r="8" />
<circle cx="688.1" cy="614.5" r="8" />
<circle cx="766.1" cy="561.3" r="8" />
<circle cx="667.4" cy="556.8" r="8" />
<circle cx="623.9" cy="548.9" r="8" />
<circle cx="398.2" cy="393.3" r="8" />
<circle cx="128.3" cy="63.3" r="8" />
<circle cx="58.6" cy="24.9" r="8" />
<circle cx="12.0" cy="12.0" r="8" />
<style>
circle {
fill: white;
stroke: #525252;
stroke-width: 4;
}
path {
fill: none;
stroke: #525252;
stroke-width: 8;
}</style>
</svg>