<svg width="1024.0" height="728.7" xmlns="http://www.w3.org/2000/svg">
<path d="M989.9999935614616 716.7149558459782 L990.0 687.6 L1012.0 665.6 L980.3 665.6 L954.7 640.0 L951.6 636.9 L951.6 595.8 L941.1 606.3 L888.1 606.3 L882.8 611.7 L882.8 611.9 L882.8 623.7 L834.5 672.0 L804.1 672.0 L792.2 660.1 L766.0 633.9 L738.4 633.9 L707.5 633.9 L688.1 614.5 L741.3 561.4 L767.8 561.4 L672.0 561.4 L667.4 556.8 L659.5 548.9 L623.9 548.9 L553.7 548.9 L398.2 393.3 L128.3 123.5 L128.3 63.3 L90.0 24.9 L58.6 24.9 L24.9 24.9 L12.0 12.0 " />
<circle cx="990.0" cy="716.7" r="8" />
<circle cx="1012.0" cy="665.6" r="8" />
<circle cx="954.7" cy="640.0" r="8" />
<circle cx="951.6" cy="595.8" r="8" />
<circle cx="888.1" cy="606.3" r="8" />
<circle cx="882.8" cy="611.9" r="8" />
<circle cx="834.5" cy="672.0" r="8" />
<circle cx="792.2" cy="660.1" r="8" />
<circle cx="738.4" cy="633.9" r="8" />
<circle cx="688.1" cy="614.5" r="8" />
<circle cx="767.8" cy="561.4" r="8" />
<circle cx="667.4" cy="556.8" r="8" />
<circle cx="623.9" cy="548.9" r="8" />
<circle cx="398.2" cy="393.3" r="8" />
<circle cx="128.3" cy="63.3" r="8" />
<circle cx="58.6" cy="24.9" r="8" />
<circle cx="12.0" cy="12.0" r="8" />
<style>
circle {
fill: white;
stroke: #525252;
stroke-width: 4;
}
path {
fill: none;
stroke: #525252;
stroke-width: 8;
}</style>
</svg>