<svg width="1024.0" height="728.7" xmlns="http://www.w3.org/2000/svg">
<path d="M12.0 12.0 L45.7 12.0 L58.6 24.9 L97.0 63.3 L128.3 63.3 L398.2 333.2 L398.2 393.3 L486.8 481.9 L518.5 481.9 L526.9 490.4 L526.9 522.4 L561.3 556.8 L667.4 556.8 L688.1 577.4 L688.1 614.5 L707.5 633.9 L738.4 633.9 L766.0 633.9 L792.2 660.1 L804.1 672.0 L834.5 672.0 L922.6 672.0 L954.7 640.0 L921.8 640.0 L888.1 606.3 L898.6 595.8 L951.6 595.8 L1012.0 656.2 L1012.0 665.6 L1012.0 694.7 L990.0 716.7 " />
<circle cx="12.0" cy="12.0" r="8" />
<circle cx="58.6" cy="24.9" r="8" />
<circle cx="128.3" cy="63.3" r="8" />
<circle cx="398.2" cy="393.3" r="8" />
<circle cx="518.5" cy="481.9" r="8" />
<circle cx="526.9" cy="522.4" r="8" />
<circle cx="667.4" cy="556.8" r="8" />
<circle cx="688.1" cy="614.5" r="8" />
<circle cx="738.4" cy="633.9" r="8" />
<circle cx="792.2" cy="660.1" r="8" />
<circle cx="834.5" cy="672.0" r="8" />
<circle cx="954.7" cy="640.0" r="8" />
<circle cx="888.1" cy="606.3" r="8" />
<circle cx="951.6" cy="595.8" r="8" />
<circle cx="1012.0" cy="665.6" r="8" />
<circle cx="990.0" cy="716.7" r="8" />
<style>
circle {
fill: white;
stroke: #525252;
stroke-width: 4;
}
path {
fill: none;
stroke: #525252;
stroke-width: 8;
}</style>
</svg>