<svg xmlns="http://www.w3.org/2000/svg" width="904" height="418" viewBox="0 0 904 418" fill="none">
  <path fill-rule="evenodd" clip-rule="evenodd" d="M0 97.1621L340.155 9.02809C340.155 9.02809 365.913 1.91391 382.484 3.24191C397.22 4.57314 418.85 13.048 418.85 13.048C418.85 13.048 443.256 22.3864 459.828 23.2695C475.481 24.1691 499.404 17.9314 499.404 17.9314L552.805 4.1316C552.805 4.1316 576.743 -2.98914 602.05 1.46581C629.672 6.80062 651.77 29.0556 651.77 29.0556L512.296 65.1076C512.296 65.1076 485.147 72.2347 467.658 70.4552C451.997 68.6759 429.438 58.8763 429.438 58.8763C429.438 58.8763 408.735 51.3208 394.463 50.4212C378.353 49.0933 353.036 55.7625 353.036 55.7625L74.5631 128.324C74.5631 128.324 85.1608 140.344 108.165 149.686C138.087 161.252 171.692 153.241 171.692 153.241L365.913 102.952C365.913 102.952 393.089 95.831 410.568 97.6135C424.384 98.935 444.638 106.955 444.638 106.955C444.638 106.955 467.658 116.742 483.302 118.083C499.875 119.414 525.172 111.852 525.172 111.852L719.434 61.5519C719.434 61.5519 776.502 41.5145 836.337 76.6831C892.958 109.631 904 164.817 904 164.817L563.854 252.938C563.854 252.938 544.521 258.286 525.648 257.837C503.092 257.406 484.229 248.042 484.229 248.042C484.229 248.042 471.799 240.934 452.927 238.242C428.537 235.125 405.978 243.587 405.978 243.587L356.723 256.493C356.723 256.493 332.795 261.841 307.928 254.714C280.773 246.7 264.2 229.787 264.2 229.787L392.621 196.872C392.621 196.872 417.008 190.189 434.057 191.072C453.373 191.975 471.799 201.768 471.799 201.768C471.799 201.768 494.351 210.659 509.536 211.551C525.648 212.883 550.96 206.204 550.96 206.204L829.91 133.652C829.91 133.652 811.945 112.735 778.808 106.955C753.942 102.5 732.323 108.738 732.323 108.738L538.542 159.028C538.542 159.028 512.296 165.697 495.254 164.376C480.073 163.025 457.985 154.131 457.985 154.131C457.985 154.131 438.198 146.13 424.384 144.338C406.888 142.555 379.275 149.686 379.275 149.686L185.031 200.414C185.031 200.414 121.978 220.455 61.6693 179.948C8.73981 144.78 0 97.1621 0 97.1621Z" fill="white"/>
  <path d="M735.898 334.575H724.265C719.557 334.575 715.799 333.147 713.003 330.301C710.203 327.453 708.8 323.624 708.8 318.821V307.023C708.8 302.222 710.203 298.4 713.003 295.555C715.799 292.697 719.557 291.271 724.265 291.271H735.898C740.613 291.271 744.393 292.697 747.239 295.555C750.085 298.4 751.515 302.222 751.515 307.023V318.821C751.515 323.624 750.085 327.453 747.239 330.301C744.393 333.147 740.613 334.575 735.898 334.575ZM724.265 331.337H735.898C739.725 331.337 742.696 330.203 744.815 327.944C746.925 325.68 747.977 322.596 747.977 318.668V307.188C747.977 303.258 746.925 300.164 744.815 297.9C742.696 295.641 739.725 294.519 735.898 294.519H724.265C720.438 294.519 717.467 295.641 715.358 297.9C713.245 300.164 712.186 303.258 712.186 307.188V318.668C712.186 322.596 713.245 325.68 715.358 327.944C717.467 330.203 720.438 331.337 724.265 331.337ZM722.499 324.561V300.996C722.499 300.115 722.891 299.676 723.681 299.676H732.807C734.774 299.676 736.32 300.26 737.446 301.437C738.577 302.617 739.136 304.187 739.136 306.143V309.535C739.136 312.773 737.86 314.834 735.314 315.717L739.435 324.561C739.828 325.442 739.681 325.883 738.999 325.883H737.517C736.835 325.883 736.393 325.586 736.197 325L732.069 316.012H725.884V324.561C725.884 325.442 725.497 325.883 724.712 325.883H723.681C722.891 325.883 722.499 325.442 722.499 324.561ZM732.807 302.762H725.884V312.928H732.807C734.774 312.928 735.756 311.893 735.756 309.832V305.711C735.756 303.748 734.774 302.762 732.807 302.762Z" fill="white"/>
  <path d="M505.576 393.029C522.699 393.029 539.746 379.711 544.375 362.698C546.828 353.685 545.351 344.731 540.315 338.152C535.799 332.237 528.984 328.795 521.006 328.261L439.738 328.067L435.312 344.329H516.635C516.635 344.329 518.116 344.246 518.847 344.246C522.689 344.246 525.694 345.516 527.531 347.925C529.521 350.521 529.992 354.276 528.846 358.476C526.273 367.933 516.625 375.982 507.227 376.855H441.884H426.466L415.478 417.235H431.74L438.305 393.125H503.36C503.36 393.125 504.845 393.029 505.576 393.029ZM356.249 327.981C346.593 327.981 336.967 332.218 329.576 338.952C329.353 338.628 329.156 338.284 328.921 337.978C324.4 332.058 317.597 328.626 309.609 328.087L260.87 327.898H244.61L220.301 417.235C229.283 417.235 238.55 409.954 240.993 400.965L256.444 344.169H305.24C305.24 344.169 306.717 344.071 307.453 344.071C311.295 344.071 314.3 345.337 316.137 347.751C318.127 350.359 318.591 354.107 317.447 358.309C316.282 362.595 318.806 367.023 323.102 368.181C323.808 368.385 324.517 368.468 325.214 368.468C328.761 368.468 332.004 366.12 332.976 362.539C335.547 353.079 345.198 345.031 354.593 344.169H402.739L387.372 400.965C384.929 409.954 390.228 417.235 399.211 417.235L423.517 327.898C423.517 327.898 356.983 327.981 356.249 327.981ZM665.713 337.919C665.063 338.812 663.807 340.46 663.385 342.011C660.814 351.48 651.139 359.546 641.736 360.39H577.326L586.162 327.898H569.898L547.775 409.205H564.042L572.895 376.662C572.895 376.662 639.386 376.573 640.117 376.573C643.964 376.573 646.961 377.839 648.801 380.258C650.788 382.851 651.365 386.541 650.224 390.75C650.043 391.42 649.765 392.838 649.765 392.838C647.324 401.807 652.623 409.1 661.609 409.1C661.609 409.1 665.485 395.588 665.64 395.031C668.095 386.003 666.621 377.064 661.587 370.47C661.452 370.301 661.283 370.136 661.138 369.964C669.58 364.442 676.272 355.954 678.911 346.247C679.105 345.536 679.451 344.15 679.451 344.15L683.707 327.868C676.846 327.868 669.744 331.901 665.713 337.919Z" fill="white"/>
</svg>