<?xml version="1.0" encoding="utf-8"?>
<!DOCTYPE svg PUBLIC "-//W3C//DTD SVG 1.0//EN" "http://www.w3.org/TR/2001/REC-SVG-20010904/DTD/svg10.dtd">
<svg version="1.0" xmlns="http://www.w3.org/2000/svg" width="1279px" height="452px" viewBox="0 0 1279 452" preserveAspectRatio="xMidYMid meet">
 <g fill="white">
  <path d="M 379.50 414.90 c -10.20 -0.70 -17.55 -3.40 -22.35 -8.20 -3.25 -3.25 -4.90 -6.75 -5.60 -11.90 -1.20 -8.60 1.95 -18 9.20 -27.35 1.65 -2.15 19.45 -23.25 39.50 -46.80 54.80 -64.35 127.30 -149.60 129.20 -152.05 1.35 -1.65 1.75 -2.70 1.95 -4.75 0.15 -2.20 0.05 -2.75 -0.90 -3.60 -1.10 -1 -1.90 -1 -86.30 -1.15 l -85.20 -0.10 0 -12.50 0 -12.50 91.40 0 c 100.45 0 95.10 -0.15 101.20 3.10 9.20 4.90 13.65 15.15 11.15 25.80 -1.80 7.70 -4.65 12.50 -13.85 23.35 -34.40 40.70 -152.30 179.90 -158.35 187 -4.20 4.95 -8.10 9.70 -8.60 10.50 -1.20 1.85 -1.25 4.90 -0.10 5.80 0.65 0.60 15.50 0.70 91.50 0.85 l 90.65 0.10 -0.10 12.40 -0.15 12.35 -89.50 0 c -49.20 0 -91.85 -0.15 -94.75 -0.35 z "/>
  <path d="M 697 415 c -8.50 -0.45 -17.35 -1.60 -22.65 -3 -25.70 -6.75 -39 -21.60 -43.05 -48.25 -1.70 -10.90 -1.80 -17.15 -1.80 -110.85 l 0 -93.90 -22.10 0 -22.15 0 0.10 -12.35 0.15 -12.40 22 -0.15 22 -0.10 0 -45 0 -45 13.75 0 13.75 0 0 45 0 45 37.75 0 37.75 0 0 12.50 0 12.50 -37.75 0 -37.80 0 0.20 95.40 c 0.10 88.60 0.20 95.70 1 100.60 1.15 6.55 3.85 14.75 6.10 18.50 2.40 3.95 7.80 8.90 11.85 10.85 8.85 4.30 17.50 5.60 40.05 6 l 16.35 0.30 -0.10 12.30 -0.15 12.30 -14 0.05 c -7.70 0.05 -17.25 -0.10 -21.25 -0.30 z "/>
  <path d="M 761.35 415.15 c -0.55 -0.55 -0.40 -241.30 0.15 -246.65 2 -19.05 9.55 -29.05 25 -33.15 l 4.25 -1.10 140.75 0 c 133.05 0 141.05 0.05 146.50 0.90 29.25 4.55 46.35 17.15 56.25 41.35 1.90 4.65 4.05 13.35 5.35 21.60 l 1.15 7.15 0 105 0 105 -13.60 0.10 -13.65 0.10 0 -100.10 c 0 -63.75 -0.20 -102.20 -0.50 -105.85 -2.05 -23.25 -10.45 -37.85 -26.05 -45.25 -4.25 -2 -11.60 -4 -17.55 -4.75 -2.60 -0.30 -22.85 -0.50 -54.25 -0.50 l -50.15 0 -0.10 128.15 -0.15 128.10 -13.75 0 -13.75 0 -0.10 -128 -0.15 -128 -69.35 0 -69.40 0 -2.40 1.20 c -2.95 1.45 -4.60 3.60 -6 7.65 l -1.10 3.15 -0.15 122.15 -0.10 122.10 -13.40 0 c -7.40 0 -13.60 -0.15 -13.75 -0.35 z "/>
  <path d="M 200 171.70 c 0 -26.60 -0.10 -30.75 -0.70 -30.55 -0.40 0.15 -12.40 7.10 -26.65 15.40 -14.25 8.30 -28.75 16.75 -32.25 18.75 l -6.35 3.70 -30.60 -0.10 -30.60 -0.15 46.70 -27.45 c 25.70 -15.10 50.60 -29.70 55.30 -32.50 4.75 -2.80 8.55 -5.25 8.50 -5.45 -0.10 -0.35 -58.50 -34.85 -60.10 -35.50 -0.30 -0.15 -0.30 -0.55 0.05 -1.15 6.50 -11.15 15.35 -26.05 15.65 -26.35 0.20 -0.20 10.60 5.65 23.10 12.95 12.50 7.35 26.10 15.35 30.20 17.75 l 7.50 4.40 0.15 -34.75 0.10 -34.70 16 0 16 0 0 34.55 c 0 19 0.20 34.45 0.40 34.35 0.25 -0.05 13.50 -7.85 29.50 -17.30 15.95 -9.40 29.25 -17.10 29.45 -17.10 0.65 0.05 16.25 26.95 15.90 27.50 -0.15 0.25 -1.55 1.15 -3.15 2.05 -3.15 1.80 -30.70 17.80 -46.05 26.80 -5.30 3.10 -9.90 5.65 -10.10 5.65 -0.25 0 -0.45 0.20 -0.45 0.45 0 0.20 13.85 8.50 30.75 18.35 22.75 13.30 30.65 18.15 30.45 18.70 -0.35 1.05 -14.75 25.60 -15.45 26.40 -0.50 0.55 -2.40 -0.35 -10.30 -5.05 -5.35 -3.10 -15.75 -9.25 -23.20 -13.60 -7.40 -4.35 -16.50 -9.65 -20.20 -11.80 -3.65 -2.20 -6.85 -3.95 -7.10 -3.95 -0.25 0 -0.45 12.80 -0.45 30.25 l 0 30.25 -16 0 -16 0 0 -30.80 z "/>
 </g>
</svg>