<svg width="1024.0" height="392.5" xmlns="http://www.w3.org/2000/svg">
<path d="M12.0 12.0 L47.9 47.9 L90.8 47.9 L98.0 47.9 L151.2 101.1 L151.5 101.3 L151.5 128.4 L151.5 145.0 L99.8 196.6 L175.8 196.6 L306.7 327.5 L327.4 348.2 L409.3 348.2 L481.6 348.2 L513.9 380.5 L513.9 326.6 L530.0 310.5 L604.9 235.6 L608.0 235.6 L580.4 263.2 L574.9 263.2 L585.3 273.7 L699.6 273.7 L750.3 273.7 L750.7 274.0 L757.3 267.4 L846.1 267.4 L930.3 267.4 L932.4 269.5 L936.3 273.4 L1012.0 273.4 " />
<circle cx="12.0" cy="12.0" r="8" />
<circle cx="90.8" cy="47.9" r="8" />
<circle cx="151.2" cy="101.1" r="8" />
<circle cx="151.5" cy="128.4" r="8" />
<circle cx="99.8" cy="196.6" r="8" />
<circle cx="306.7" cy="327.5" r="8" />
<circle cx="409.3" cy="348.2" r="8" />
<circle cx="513.9" cy="380.5" r="8" />
<circle cx="530.0" cy="310.5" r="8" />
<circle cx="608.0" cy="235.6" r="8" />
<circle cx="574.9" cy="263.2" r="8" />
<circle cx="699.6" cy="273.7" r="8" />
<circle cx="750.7" cy="274.0" r="8" />
<circle cx="846.1" cy="267.4" r="8" />
<circle cx="932.4" cy="269.5" r="8" />
<circle cx="1012.0" cy="273.4" r="8" />
<style>
circle {
fill: white;
stroke: #525252;
stroke-width: 4;
}
path {
fill: none;
stroke: #525252;
stroke-width: 8;
}</style>
</svg>