<svg width="236.7" height="1024.0" xmlns="http://www.w3.org/2000/svg">
<path d="M224.66916139554064 1012.0000000000001 L123.7 1012.0 L122.1 1010.4 L112.2 1000.5 L12.0 1000.5 L25.4 987.1 L25.4 932.4 L94.6 863.2 L126.2 863.2 L126.2 823.7 L115.5 812.9 L105.3 802.8 L105.3 759.4 L105.3 724.7 L116.9 713.1 L116.9 670.5 L111.4 665.0 L94.0 647.6 L94.0 602.3 L112.3 584.0 L119.8 584.0 L123.9 579.8 L123.9 554.9 L123.9 502.3 L123.4 501.8 L112.4 490.8 L112.4 454.9 L112.4 410.4 L125.3 397.5 L125.3 354.0 L115.3 344.0 L115.3 300.9 L119.4 296.7 L119.4 273.5 L107.6 261.6 L96.1 250.2 L96.1 220.3 L96.1 208.7 L77.9 190.4 L64.3 176.8 L64.3 131.6 L64.3 112.8 L50.5 98.9 L50.5 84.0 L60.6 73.9 L104.7 29.7 L104.7 12.0 " />
<circle cx="224.7" cy="1012.0" r="8" />
<circle cx="122.1" cy="1010.4" r="8" />
<circle cx="12.0" cy="1000.5" r="8" />
<circle cx="25.4" cy="932.4" r="8" />
<circle cx="126.2" cy="863.2" r="8" />
<circle cx="115.5" cy="812.9" r="8" />
<circle cx="105.3" cy="759.4" r="8" />
<circle cx="116.9" cy="713.1" r="8" />
<circle cx="111.4" cy="665.0" r="8" />
<circle cx="94.0" cy="602.3" r="8" />
<circle cx="119.8" cy="584.0" r="8" />
<circle cx="123.9" cy="554.9" r="8" />
<circle cx="123.4" cy="501.8" r="8" />
<circle cx="112.4" cy="454.9" r="8" />
<circle cx="125.3" cy="397.5" r="8" />
<circle cx="115.3" cy="344.0" r="8" />
<circle cx="119.4" cy="296.7" r="8" />
<circle cx="107.6" cy="261.6" r="8" />
<circle cx="96.1" cy="220.3" r="8" />
<circle cx="77.9" cy="190.4" r="8" />
<circle cx="64.3" cy="131.6" r="8" />
<circle cx="50.5" cy="98.9" r="8" />
<circle cx="60.6" cy="73.9" r="8" />
<circle cx="104.7" cy="12.0" r="8" />
<style>
circle {
fill: white;
stroke: #525252;
stroke-width: 4;
}
path {
fill: none;
stroke: #525252;
stroke-width: 8;
}</style>
</svg>