<svg width="1024.0" height="365.6" xmlns="http://www.w3.org/2000/svg">
<path d="M831.9862977474136 353.59320963710314 L857.7 327.9 L857.7 325.3 L901.8 281.3 L904.7 281.3 L930.9 255.1 L930.9 246.0 L930.9 218.9 L946.5 203.4 L965.4 184.5 L965.4 163.2 L965.4 152.9 L978.9 139.4 L987.8 130.5 L987.8 114.3 L987.8 111.0 L1012.0 86.8 L991.0 86.8 L978.9 74.7 L962.6 58.4 L919.5 58.4 L893.0 58.4 L878.6 44.0 L867.4 32.8 L838.7 32.8 L819.4 32.8 L808.6 22.0 L798.6 12.0 L770.8 12.0 L749.1 12.0 L745.6 15.5 L721.8 15.5 L719.4 13.2 L718.0 14.6 L673.7 14.6 L669.2 14.6 L659.2 24.7 L650.7 33.2 L568.1 33.2 L519.7 33.2 L501.7 51.3 L495.2 57.8 L474.3 57.8 L431.3 57.8 L413.2 75.9 L402.8 86.3 L363.6 86.3 L309.6 86.3 L288.0 107.9 L276.2 119.7 L246.8 119.7 L235.7 119.7 L209.8 145.6 L191.6 163.8 L175.9 163.8 L147.9 163.8 L132.8 178.9 L117.6 194.2 L90.8 194.2 L66.5 194.2 L52.3 208.4 L41.7 219.0 L12.0 219.0 " />
<circle cx="832.0" cy="353.6" r="8" />
<circle cx="857.7" cy="325.3" r="8" />
<circle cx="904.7" cy="281.3" r="8" />
<circle cx="930.9" cy="246.0" r="8" />
<circle cx="946.5" cy="203.4" r="8" />
<circle cx="965.4" cy="163.2" r="8" />
<circle cx="978.9" cy="139.4" r="8" />
<circle cx="987.8" cy="114.3" r="8" />
<circle cx="1012.0" cy="86.8" r="8" />
<circle cx="978.9" cy="74.7" r="8" />
<circle cx="919.5" cy="58.4" r="8" />
<circle cx="878.6" cy="44.0" r="8" />
<circle cx="838.7" cy="32.8" r="8" />
<circle cx="808.6" cy="22.0" r="8" />
<circle cx="770.8" cy="12.0" r="8" />
<circle cx="745.6" cy="15.5" r="8" />
<circle cx="719.4" cy="13.2" r="8" />
<circle cx="673.7" cy="14.6" r="8" />
<circle cx="659.2" cy="24.7" r="8" />
<circle cx="568.1" cy="33.2" r="8" />
<circle cx="501.7" cy="51.3" r="8" />
<circle cx="474.3" cy="57.8" r="8" />
<circle cx="413.2" cy="75.9" r="8" />
<circle cx="363.6" cy="86.3" r="8" />
<circle cx="288.0" cy="107.9" r="8" />
<circle cx="246.8" cy="119.7" r="8" />
<circle cx="209.8" cy="145.6" r="8" />
<circle cx="175.9" cy="163.8" r="8" />
<circle cx="132.8" cy="178.9" r="8" />
<circle cx="90.8" cy="194.2" r="8" />
<circle cx="52.3" cy="208.4" r="8" />
<circle cx="12.0" cy="219.0" r="8" />
<style>
circle {
fill: white;
stroke: #AD841F;
stroke-width: 4;
}
path {
fill: none;
stroke: #AD841F;
stroke-width: 8;
}</style>
</svg>