<svg width="1024.0" height="364.4" xmlns="http://www.w3.org/2000/svg">
<path d="M12.0 217.81052047025645 L41.7 217.8 L52.3 207.2 L66.5 193.0 L90.8 193.0 L117.6 193.0 L132.8 177.7 L147.9 162.6 L175.9 162.6 L191.6 162.6 L209.8 144.5 L235.7 118.6 L246.8 118.6 L276.2 118.6 L288.0 106.7 L309.6 85.1 L363.6 85.1 L402.8 85.1 L413.2 74.7 L431.3 56.6 L474.3 56.6 L543.5 56.6 L568.1 32.0 L576.7 23.5 L659.2 23.5 L663.6 23.5 L673.7 13.5 L675.1 12.0 L719.4 12.0 L760.8 12.0 L772.5 23.7 L805.6 23.7 L808.6 20.8 L827.9 20.8 L838.7 31.6 L849.9 42.9 L878.6 42.9 L905.2 42.9 L919.5 57.2 L935.8 73.5 L978.9 73.5 L1000.0 73.5 L1012.0 85.6 L1012.0 88.9 L987.8 113.1 L978.9 122.0 L978.9 138.2 L978.9 148.5 L965.4 162.1 L946.5 181.0 L946.5 202.2 L946.5 229.2 L930.9 244.8 L904.7 271.0 L904.7 280.1 L860.7 324.1 L857.7 324.1 L832.0 349.9 L832.0 352.4 " />
<circle cx="12.0" cy="217.8" r="8" />
<circle cx="52.3" cy="207.2" r="8" />
<circle cx="90.8" cy="193.0" r="8" />
<circle cx="132.8" cy="177.7" r="8" />
<circle cx="175.9" cy="162.6" r="8" />
<circle cx="209.8" cy="144.5" r="8" />
<circle cx="246.8" cy="118.6" r="8" />
<circle cx="288.0" cy="106.7" r="8" />
<circle cx="363.6" cy="85.1" r="8" />
<circle cx="413.2" cy="74.7" r="8" />
<circle cx="474.3" cy="56.6" r="8" />
<circle cx="568.1" cy="32.0" r="8" />
<circle cx="659.2" cy="23.5" r="8" />
<circle cx="673.7" cy="13.5" r="8" />
<circle cx="719.4" cy="12.0" r="8" />
<circle cx="772.5" cy="23.7" r="8" />
<circle cx="808.6" cy="20.8" r="8" />
<circle cx="838.7" cy="31.6" r="8" />
<circle cx="878.6" cy="42.9" r="8" />
<circle cx="919.5" cy="57.2" r="8" />
<circle cx="978.9" cy="73.5" r="8" />
<circle cx="1012.0" cy="85.6" r="8" />
<circle cx="987.8" cy="113.1" r="8" />
<circle cx="978.9" cy="138.2" r="8" />
<circle cx="965.4" cy="162.1" r="8" />
<circle cx="946.5" cy="202.2" r="8" />
<circle cx="930.9" cy="244.8" r="8" />
<circle cx="904.7" cy="280.1" r="8" />
<circle cx="857.7" cy="324.1" r="8" />
<circle cx="832.0" cy="352.4" r="8" />
<style>
circle {
fill: white;
stroke: #AD841F;
stroke-width: 4;
}
path {
fill: none;
stroke: #AD841F;
stroke-width: 8;
}</style>
</svg>