<svg width="1024.0" height="107.5" xmlns="http://www.w3.org/2000/svg">
<path d="M12.0 16.6 L18.1 22.7 L115.3 22.7 L194.3 22.7 L198.4 18.6 L201.3 15.8 L265.1 15.8 L318.0 15.8 L318.4 15.4 L321.8 12.0 L400.4 12.0 L478.7 12.0 L485.4 18.7 L509.7 42.9 L574.2 42.9 L649.7 42.9 L681.1 74.3 L691.3 84.5 L713.4 84.5 L750.3 84.5 L768.3 66.5 L771.9 70.1 L821.8 70.1 L851.1 70.1 L853.0 72.0 L860.3 79.3 L905.6 79.3 L974.3 79.3 L986.4 91.4 L990.5 95.5 L1012.0 95.5 " />
<circle cx="12.0" cy="16.6" r="8" />
<circle cx="115.3" cy="22.7" r="8" />
<circle cx="198.4" cy="18.6" r="8" />
<circle cx="265.1" cy="15.8" r="8" />
<circle cx="318.4" cy="15.4" r="8" />
<circle cx="400.4" cy="12.0" r="8" />
<circle cx="485.4" cy="18.7" r="8" />
<circle cx="574.2" cy="42.9" r="8" />
<circle cx="681.1" cy="74.3" r="8" />
<circle cx="713.4" cy="84.5" r="8" />
<circle cx="768.3" cy="66.5" r="8" />
<circle cx="821.8" cy="70.1" r="8" />
<circle cx="853.0" cy="72.0" r="8" />
<circle cx="905.6" cy="79.3" r="8" />
<circle cx="986.4" cy="91.4" r="8" />
<circle cx="1012.0" cy="95.5" r="8" />
<style>
circle {
fill: white;
stroke: black;
stroke-width: 4;
}
path {
fill: none;
stroke: #FFFFFF;
stroke-width: 8;
}</style>
</svg>