<svg width="1024.0" height="751.1" xmlns="http://www.w3.org/2000/svg">
<path d="M12.0 16.944424927060624 L27.2 16.9 L29.6 14.6 L32.1 12.0 L94.1 12.0 L122.3 40.2 L122.3 56.6 L122.3 82.3 L215.4 175.5 L251.2 211.2 L253.4 211.2 L316.8 211.2 L528.6 423.0 L551.1 445.5 L589.1 445.5 L611.3 445.5 L613.7 447.9 L633.7 447.9 L654.8 426.8 L682.6 399.0 L708.9 399.0 L740.2 399.0 L773.1 366.2 L825.9 313.4 L892.0 313.4 L922.1 283.3 L922.1 255.6 L716.3 461.4 L664.4 461.4 L793.7 461.4 L812.7 480.4 L833.6 501.3 L999.4 501.3 L1004.6 506.4 L1004.6 594.8 L1004.6 663.6 L958.8 709.3 L958.8 715.1 L968.2 724.5 L982.8 739.1 L1012.0 739.1 " />
<circle cx="12.0" cy="16.9" r="8" />
<circle cx="29.6" cy="14.6" r="8" />
<circle cx="94.1" cy="12.0" r="8" />
<circle cx="122.3" cy="56.6" r="8" />
<circle cx="215.4" cy="175.5" r="8" />
<circle cx="253.4" cy="211.2" r="8" />
<circle cx="528.6" cy="423.0" r="8" />
<circle cx="589.1" cy="445.5" r="8" />
<circle cx="613.7" cy="447.9" r="8" />
<circle cx="654.8" cy="426.8" r="8" />
<circle cx="708.9" cy="399.0" r="8" />
<circle cx="773.1" cy="366.2" r="8" />
<circle cx="892.0" cy="313.4" r="8" />
<circle cx="922.1" cy="255.6" r="8" />
<circle cx="664.4" cy="461.4" r="8" />
<circle cx="812.7" cy="480.4" r="8" />
<circle cx="999.4" cy="501.3" r="8" />
<circle cx="1004.6" cy="594.8" r="8" />
<circle cx="958.8" cy="709.3" r="8" />
<circle cx="968.2" cy="724.5" r="8" />
<circle cx="1012.0" cy="739.1" r="8" />
<style>
circle {
fill: white;
stroke: #525252;
stroke-width: 4;
}
path {
fill: none;
stroke: #525252;
stroke-width: 8;
}</style>
</svg>