<svg width="1024.0" height="993.0" xmlns="http://www.w3.org/2000/svg">
<path d="M665.194447474952 12.0 L665.2 22.3 L677.1 34.2 L664.8 46.6 L664.8 62.4 L570.5 62.4 L569.3 63.7 L538.6 94.3 L511.7 94.3 L532.3 114.9 L532.3 138.1 L578.4 138.1 L605.4 165.1 L621.5 181.2 L639.4 181.2 L701.5 181.2 L704.6 178.2 L704.9 177.9 L795.7 177.9 L904.7 177.9 L905.2 177.3 L940.5 212.6 L1000.4 212.6 L1000.4 230.0 L1012.0 241.5 L960.4 293.1 L960.4 293.7 L960.4 327.1 L956.4 331.1 L928.4 359.1 L928.4 379.2 L928.4 398.4 L903.6 423.2 L900.5 426.2 L835.6 426.2 L789.6 426.2 L755.9 459.9 L746.7 469.2 L702.3 469.2 L702.3 533.0 L700.3 535.0 L706.2 535.0 L734.7 563.5 L784.1 612.9 L784.2 612.9 L756.4 640.7 L707.0 640.7 L707.0 679.2 L681.5 704.7 L679.4 706.8 L615.4 706.8 L609.0 706.8 L594.5 721.3 L575.4 702.2 L452.1 702.2 L375.5 702.2 L363.1 689.8 L355.1 681.8 L318.9 681.8 L318.9 728.5 L305.2 742.1 L301.9 745.5 L236.5 745.5 L160.7 745.5 L158.1 748.1 L167.5 757.5 L167.5 810.3 L187.9 810.3 L227.7 850.1 L200.0 877.8 L200.0 886.0 L177.0 886.0 L143.3 919.6 L107.9 955.0 L74.7 955.0 L38.0 955.0 L12.0 981.0 " />
<circle cx="665.2" cy="12.0" r="8" />
<circle cx="677.1" cy="34.2" r="8" />
<circle cx="664.8" cy="62.4" r="8" />
<circle cx="569.3" cy="63.7" r="8" />
<circle cx="511.7" cy="94.3" r="8" />
<circle cx="532.3" cy="138.1" r="8" />
<circle cx="605.4" cy="165.1" r="8" />
<circle cx="639.4" cy="181.2" r="8" />
<circle cx="704.6" cy="178.2" r="8" />
<circle cx="795.7" cy="177.9" r="8" />
<circle cx="905.2" cy="177.3" r="8" />
<circle cx="1000.4" cy="212.6" r="8" />
<circle cx="1012.0" cy="241.5" r="8" />
<circle cx="960.4" cy="293.7" r="8" />
<circle cx="956.4" cy="331.1" r="8" />
<circle cx="928.4" cy="379.2" r="8" />
<circle cx="903.6" cy="423.2" r="8" />
<circle cx="835.6" cy="426.2" r="8" />
<circle cx="755.9" cy="459.9" r="8" />
<circle cx="702.3" cy="469.2" r="8" />
<circle cx="700.3" cy="535.0" r="8" />
<circle cx="734.7" cy="563.5" r="8" />
<circle cx="784.2" cy="612.9" r="8" />
<circle cx="707.0" cy="640.7" r="8" />
<circle cx="681.5" cy="704.7" r="8" />
<circle cx="615.4" cy="706.8" r="8" />
<circle cx="594.5" cy="721.3" r="8" />
<circle cx="452.1" cy="702.2" r="8" />
<circle cx="363.1" cy="689.8" r="8" />
<circle cx="318.9" cy="681.8" r="8" />
<circle cx="305.2" cy="742.1" r="8" />
<circle cx="236.5" cy="745.5" r="8" />
<circle cx="158.1" cy="748.1" r="8" />
<circle cx="167.5" cy="810.3" r="8" />
<circle cx="227.7" cy="850.1" r="8" />
<circle cx="200.0" cy="886.0" r="8" />
<circle cx="143.3" cy="919.6" r="8" />
<circle cx="74.7" cy="955.0" r="8" />
<circle cx="12.0" cy="981.0" r="8" />
<style>
circle {
fill: white;
stroke: #525252;
stroke-width: 4;
}
path {
fill: none;
stroke: #525252;
stroke-width: 8;
}</style>
</svg>