<svg width="1024.0" height="993.0" xmlns="http://www.w3.org/2000/svg">
<path d="M12.0 980.9749153359753 L48.8 981.0 L74.7 955.0 L110.2 919.6 L143.3 919.6 L166.4 919.6 L200.0 886.0 L227.7 858.3 L227.7 850.1 L187.9 810.3 L167.5 810.3 L167.5 757.5 L158.1 748.1 L160.7 745.5 L236.5 745.5 L301.9 745.5 L305.2 742.1 L357.6 689.8 L363.1 689.8 L439.7 689.8 L452.1 702.2 L456.7 706.8 L615.4 706.8 L679.4 706.8 L681.5 704.7 L692.2 694.0 L692.2 665.5 L744.7 612.9 L784.2 612.9 L784.2 578.9 L745.3 540.0 L702.3 497.0 L702.3 469.2 L711.6 459.9 L755.9 459.9 L801.9 459.9 L835.6 426.2 L838.7 423.2 L903.6 423.2 L928.4 398.4 L928.4 379.2 L928.4 359.1 L956.4 331.1 L960.4 327.1 L960.4 293.7 L960.4 293.1 L1012.0 241.5 L1012.0 224.2 L1000.4 212.6 L965.2 177.3 L905.2 177.3 L876.6 177.3 L868.0 168.7 L858.8 177.9 L795.7 177.9 L704.9 177.9 L704.6 178.2 L701.5 181.2 L639.4 181.2 L621.5 181.2 L605.4 165.1 L578.4 138.1 L532.3 138.1 L532.3 114.9 L511.7 94.3 L542.3 63.7 L569.3 63.7 L663.5 63.7 L664.8 62.4 L677.1 50.1 L677.1 34.2 L677.1 23.9 L665.2 12.0 " />
<circle cx="12.0" cy="981.0" r="8" />
<circle cx="74.7" cy="955.0" r="8" />
<circle cx="143.3" cy="919.6" r="8" />
<circle cx="200.0" cy="886.0" r="8" />
<circle cx="227.7" cy="850.1" r="8" />
<circle cx="167.5" cy="810.3" r="8" />
<circle cx="158.1" cy="748.1" r="8" />
<circle cx="236.5" cy="745.5" r="8" />
<circle cx="305.2" cy="742.1" r="8" />
<circle cx="363.1" cy="689.8" r="8" />
<circle cx="452.1" cy="702.2" r="8" />
<circle cx="615.4" cy="706.8" r="8" />
<circle cx="681.5" cy="704.7" r="8" />
<circle cx="692.2" cy="665.5" r="8" />
<circle cx="784.2" cy="612.9" r="8" />
<circle cx="745.3" cy="540.0" r="8" />
<circle cx="702.3" cy="469.2" r="8" />
<circle cx="755.9" cy="459.9" r="8" />
<circle cx="835.6" cy="426.2" r="8" />
<circle cx="903.6" cy="423.2" r="8" />
<circle cx="928.4" cy="379.2" r="8" />
<circle cx="956.4" cy="331.1" r="8" />
<circle cx="960.4" cy="293.7" r="8" />
<circle cx="1012.0" cy="241.5" r="8" />
<circle cx="1000.4" cy="212.6" r="8" />
<circle cx="905.2" cy="177.3" r="8" />
<circle cx="868.0" cy="168.7" r="8" />
<circle cx="795.7" cy="177.9" r="8" />
<circle cx="704.6" cy="178.2" r="8" />
<circle cx="639.4" cy="181.2" r="8" />
<circle cx="605.4" cy="165.1" r="8" />
<circle cx="532.3" cy="138.1" r="8" />
<circle cx="511.7" cy="94.3" r="8" />
<circle cx="569.3" cy="63.7" r="8" />
<circle cx="664.8" cy="62.4" r="8" />
<circle cx="677.1" cy="34.2" r="8" />
<circle cx="665.2" cy="12.0" r="8" />
<style>
circle {
fill: white;
stroke: #525252;
stroke-width: 4;
}
path {
fill: none;
stroke: #525252;
stroke-width: 8;
}</style>
</svg>