<svg width="1024.0" height="127.6" xmlns="http://www.w3.org/2000/svg">
<path d="M1011.9999999999999 91.8631990851737 L902.6 91.9 L885.6 74.9 L874.7 63.9 L806.8 63.9 L739.9 63.9 L729.3 53.3 L714.1 38.1 L653.6 38.1 L604.8 38.1 L602.0 35.3 L598.5 31.8 L553.1 31.8 L542.6 42.4 L542.6 81.5 L542.6 107.4 L534.4 115.6 L491.9 115.6 L481.9 105.5 L469.2 92.8 L361.4 92.8 L310.8 92.8 L296.4 78.4 L289.0 71.0 L247.7 71.0 L206.2 71.0 L186.6 51.4 L167.3 32.2 L167.3 20.9 L158.5 12.0 L100.5 12.0 L34.4 12.0 L12.0 34.4 L35.9 58.3 L59.4 58.3 " />
<circle cx="1012.0" cy="91.9" r="8" />
<circle cx="885.6" cy="74.9" r="8" />
<circle cx="806.8" cy="63.9" r="8" />
<circle cx="729.3" cy="53.3" r="8" />
<circle cx="653.6" cy="38.1" r="8" />
<circle cx="602.0" cy="35.3" r="8" />
<circle cx="553.1" cy="31.8" r="8" />
<circle cx="542.6" cy="81.5" r="8" />
<circle cx="534.4" cy="115.6" r="8" />
<circle cx="481.9" cy="105.5" r="8" />
<circle cx="361.4" cy="92.8" r="8" />
<circle cx="296.4" cy="78.4" r="8" />
<circle cx="247.7" cy="71.0" r="8" />
<circle cx="186.6" cy="51.4" r="8" />
<circle cx="167.3" cy="20.9" r="8" />
<circle cx="100.5" cy="12.0" r="8" />
<circle cx="12.0" cy="34.4" r="8" />
<circle cx="59.4" cy="58.3" r="8" />
<style>
circle {
fill: white;
stroke: #525252;
stroke-width: 4;
}
path {
fill: none;
stroke: #525252;
stroke-width: 8;
}</style>
</svg>