<svg width="843.9" height="1024.0" xmlns="http://www.w3.org/2000/svg">
<path d="M518.1 1012.0 L518.1 997.1 L569.4 945.8 L490.3 945.8 L466.5 969.6 L427.7 930.8 L424.2 930.8 L424.2 912.2 L466.2 870.2 L502.8 833.6 L650.8 833.6 L650.8 751.7 L680.3 722.2 L679.1 721.0 L679.1 651.4 L679.1 588.0 L784.3 482.8 L818.2 449.0 L821.3 449.0 L794.6 422.3 L776.2 422.3 L776.2 348.5 L831.9 292.8 L767.0 228.0 L686.7 228.0 L678.9 220.2 L678.9 116.2 L544.9 116.2 L518.4 142.7 L504.7 156.3 L504.7 156.9 L470.0 156.9 L424.0 110.9 L378.5 65.4 L312.6 65.4 L302.0 54.8 L302.0 12.0 L163.6 12.0 L12.0 163.6 " />
<circle cx="518.1" cy="1012.0" r="8" />
<circle cx="569.4" cy="945.8" r="8" />
<circle cx="466.5" cy="969.6" r="8" />
<circle cx="424.2" cy="930.8" r="8" />
<circle cx="466.2" cy="870.2" r="8" />
<circle cx="650.8" cy="833.6" r="8" />
<circle cx="680.3" cy="722.2" r="8" />
<circle cx="679.1" cy="651.4" r="8" />
<circle cx="784.3" cy="482.8" r="8" />
<circle cx="821.3" cy="449.0" r="8" />
<circle cx="776.2" cy="422.3" r="8" />
<circle cx="831.9" cy="292.8" r="8" />
<circle cx="686.7" cy="228.0" r="8" />
<circle cx="678.9" cy="116.2" r="8" />
<circle cx="518.4" cy="142.7" r="8" />
<circle cx="504.7" cy="156.9" r="8" />
<circle cx="424.0" cy="110.9" r="8" />
<circle cx="312.6" cy="65.4" r="8" />
<circle cx="302.0" cy="12.0" r="8" />
<circle cx="12.0" cy="163.6" r="8" />
<style>
circle {
fill: white;
stroke: black;
stroke-width: 4;
}
path {
fill: none;
stroke: #FFFFFF;
stroke-width: 8;
}</style>
</svg>