<svg width="1024.0" height="860.3" xmlns="http://www.w3.org/2000/svg">
<path d="M400.1477601868634 49.38496144079327 L434.2 49.4 L441.3 56.5 L423.2 38.4 L409.3 38.4 L366.3 38.4 L349.7 21.8 L344.4 16.5 L307.0 16.5 L253.9 16.5 L253.4 17.0 L203.0 17.0 L200.0 14.0 L198.0 12.0 L136.4 12.0 L84.9 12.0 L79.5 17.4 L14.5 17.4 L12.0 14.8 L12.6 15.4 L12.6 65.6 L12.6 112.5 L31.3 131.2 L106.9 206.8 L124.4 206.8 L173.1 206.8 L191.2 224.8 L248.1 224.8 L248.4 224.5 L249.9 223.0 L322.3 223.0 L326.1 226.9 L326.1 407.2 L339.8 420.9 L358.4 420.9 L358.4 421.2 L333.2 446.4 L326.2 453.4 L321.3 453.4 L321.3 484.5 L339.9 503.1 L354.5 517.7 L354.5 531.5 L354.5 539.3 L336.7 557.1 L289.7 604.1 L289.7 627.7 L333.5 627.7 L376.4 584.9 L416.3 584.9 L416.5 585.1 L461.7 630.3 L485.5 630.3 L499.4 630.3 L528.2 659.1 L567.4 698.3 L607.2 698.3 L618.1 698.3 L638.0 718.2 L643.7 723.9 L696.8 723.9 L733.0 723.9 L733.8 724.7 L737.2 728.1 L810.6 728.1 L835.2 728.1 L845.7 738.6 L870.0 762.9 L870.0 778.9 L870.0 815.4 L894.6 840.1 L902.9 848.3 L938.6 848.3 L1002.7 848.3 L1003.6 847.4 L1012.0 839.0 L1012.0 828.2 L1012.0 821.2 L1003.9 813.1 " />
<circle cx="400.1" cy="49.4" r="8" />
<circle cx="441.3" cy="56.5" r="8" />
<circle cx="409.3" cy="38.4" r="8" />
<circle cx="349.7" cy="21.8" r="8" />
<circle cx="307.0" cy="16.5" r="8" />
<circle cx="253.4" cy="17.0" r="8" />
<circle cx="200.0" cy="14.0" r="8" />
<circle cx="136.4" cy="12.0" r="8" />
<circle cx="79.5" cy="17.4" r="8" />
<circle cx="12.0" cy="14.8" r="8" />
<circle cx="12.6" cy="65.6" r="8" />
<circle cx="31.3" cy="131.2" r="8" />
<circle cx="124.4" cy="206.8" r="8" />
<circle cx="191.2" cy="224.8" r="8" />
<circle cx="248.4" cy="224.5" r="8" />
<circle cx="322.3" cy="223.0" r="8" />
<circle cx="326.1" cy="407.2" r="8" />
<circle cx="358.4" cy="420.9" r="8" />
<circle cx="333.2" cy="446.4" r="8" />
<circle cx="321.3" cy="453.4" r="8" />
<circle cx="339.9" cy="503.1" r="8" />
<circle cx="354.5" cy="531.5" r="8" />
<circle cx="336.7" cy="557.1" r="8" />
<circle cx="289.7" cy="627.7" r="8" />
<circle cx="376.4" cy="584.9" r="8" />
<circle cx="416.5" cy="585.1" r="8" />
<circle cx="485.5" cy="630.3" r="8" />
<circle cx="528.2" cy="659.1" r="8" />
<circle cx="607.2" cy="698.3" r="8" />
<circle cx="638.0" cy="718.2" r="8" />
<circle cx="696.8" cy="723.9" r="8" />
<circle cx="733.8" cy="724.7" r="8" />
<circle cx="810.6" cy="728.1" r="8" />
<circle cx="845.7" cy="738.6" r="8" />
<circle cx="870.0" cy="778.9" r="8" />
<circle cx="894.6" cy="840.1" r="8" />
<circle cx="938.6" cy="848.3" r="8" />
<circle cx="1003.6" cy="847.4" r="8" />
<circle cx="1012.0" cy="828.2" r="8" />
<circle cx="1003.9" cy="813.1" r="8" />
<style>
circle {
fill: white;
stroke: #525252;
stroke-width: 4;
}
path {
fill: none;
stroke: #525252;
stroke-width: 8;
}</style>
</svg>