<svg width="1024.0" height="165.0" xmlns="http://www.w3.org/2000/svg">
<path d="M12.0 153.03733552385907 L23.5 141.5 L44.8 141.5 L56.9 141.5 L70.7 127.6 L90.5 107.9 L99.0 107.9 L121.4 107.9 L130.5 98.8 L146.9 82.4 L188.1 82.4 L218.0 82.4 L226.0 74.4 L239.8 60.6 L272.6 60.6 L325.4 60.6 L344.2 41.8 L350.7 35.3 L413.7 35.3 L413.7 50.9 L414.2 51.3 L423.5 60.7 L438.5 60.7 L471.1 60.7 L476.3 65.8 L488.3 77.8 L521.7 77.8 L568.0 77.8 L571.9 81.7 L587.0 96.9 L634.1 96.9 L657.7 96.9 L664.5 103.7 L664.5 101.2 L683.0 82.7 L695.2 70.4 L695.2 53.9 L695.2 26.0 L708.1 13.2 L713.7 18.8 L744.2 18.8 L810.1 18.8 L810.6 19.3 L812.8 17.0 L867.3 17.0 L891.2 17.0 L893.0 15.2 L893.4 14.8 L940.6 14.8 L1009.2 14.8 L1012.0 12.0 " />
<circle cx="12.0" cy="153.0" r="8" />
<circle cx="44.8" cy="141.5" r="8" />
<circle cx="70.7" cy="127.6" r="8" />
<circle cx="99.0" cy="107.9" r="8" />
<circle cx="130.5" cy="98.8" r="8" />
<circle cx="188.1" cy="82.4" r="8" />
<circle cx="226.0" cy="74.4" r="8" />
<circle cx="272.6" cy="60.6" r="8" />
<circle cx="344.2" cy="41.8" r="8" />
<circle cx="413.7" cy="35.3" r="8" />
<circle cx="414.2" cy="51.3" r="8" />
<circle cx="438.5" cy="60.7" r="8" />
<circle cx="476.3" cy="65.8" r="8" />
<circle cx="521.7" cy="77.8" r="8" />
<circle cx="571.9" cy="81.7" r="8" />
<circle cx="634.1" cy="96.9" r="8" />
<circle cx="664.5" cy="103.7" r="8" />
<circle cx="683.0" cy="82.7" r="8" />
<circle cx="695.2" cy="53.9" r="8" />
<circle cx="708.1" cy="13.2" r="8" />
<circle cx="744.2" cy="18.8" r="8" />
<circle cx="810.6" cy="19.3" r="8" />
<circle cx="867.3" cy="17.0" r="8" />
<circle cx="893.0" cy="15.2" r="8" />
<circle cx="940.6" cy="14.8" r="8" />
<circle cx="1012.0" cy="12.0" r="8" />
<style>
circle {
fill: white;
stroke: #009639;
stroke-width: 4;
}
path {
fill: none;
stroke: #009639;
stroke-width: 8;
}</style>
</svg>