<svg width="1024.0" height="165.0" xmlns="http://www.w3.org/2000/svg">
<path d="M1012.0 12.0 L943.3 12.0 L940.6 14.8 L940.1 15.2 L893.0 15.2 L869.1 15.2 L867.3 17.0 L865.0 19.3 L810.6 19.3 L744.7 19.3 L744.2 18.8 L738.6 13.2 L708.1 13.2 L695.2 26.0 L695.2 53.9 L695.2 70.4 L683.0 82.7 L664.5 101.2 L664.5 103.7 L657.7 96.9 L634.1 96.9 L587.0 96.9 L571.9 81.7 L568.0 77.8 L521.7 77.8 L488.3 77.8 L476.3 65.8 L471.1 60.7 L438.5 60.7 L422.3 60.7 L413.8 52.2 L413.7 52.1 L413.7 35.3 L407.2 41.8 L344.2 41.8 L307.3 41.8 L293.5 55.6 L288.5 60.6 L272.6 60.6 L239.8 60.6 L226.0 74.4 L218.0 82.4 L188.1 82.4 L146.9 82.4 L130.5 98.8 L121.4 107.9 L99.0 107.9 L90.5 107.9 L70.7 127.6 L56.9 141.5 L44.8 141.5 L23.5 141.5 L12.0 153.0 " />
<circle cx="1012.0" cy="12.0" r="8" />
<circle cx="940.6" cy="14.8" r="8" />
<circle cx="893.0" cy="15.2" r="8" />
<circle cx="867.3" cy="17.0" r="8" />
<circle cx="810.6" cy="19.3" r="8" />
<circle cx="744.2" cy="18.8" r="8" />
<circle cx="708.1" cy="13.2" r="8" />
<circle cx="695.2" cy="53.9" r="8" />
<circle cx="683.0" cy="82.7" r="8" />
<circle cx="664.5" cy="103.7" r="8" />
<circle cx="634.1" cy="96.9" r="8" />
<circle cx="571.9" cy="81.7" r="8" />
<circle cx="521.7" cy="77.8" r="8" />
<circle cx="476.3" cy="65.8" r="8" />
<circle cx="438.5" cy="60.7" r="8" />
<circle cx="413.8" cy="52.2" r="8" />
<circle cx="413.7" cy="35.3" r="8" />
<circle cx="344.2" cy="41.8" r="8" />
<circle cx="293.5" cy="55.6" r="8" />
<circle cx="272.6" cy="60.6" r="8" />
<circle cx="226.0" cy="74.4" r="8" />
<circle cx="188.1" cy="82.4" r="8" />
<circle cx="130.5" cy="98.8" r="8" />
<circle cx="99.0" cy="107.9" r="8" />
<circle cx="70.7" cy="127.6" r="8" />
<circle cx="44.8" cy="141.5" r="8" />
<circle cx="12.0" cy="153.0" r="8" />
<style>
circle {
fill: white;
stroke: #009639;
stroke-width: 4;
}
path {
fill: none;
stroke: #009639;
stroke-width: 8;
}</style>
</svg>