<svg width="1024.0" height="684.4" xmlns="http://www.w3.org/2000/svg">
<path d="M105.6 280.8 L85.5 300.9 L85.5 337.5 L85.5 361.0 L54.9 391.7 L12.0 434.5 L12.0 482.6 L13.6 482.6 L57.7 526.6 L86.2 555.2 L144.6 555.2 L214.3 555.2 L238.8 579.8 L311.1 652.0 L311.1 667.6 L408.7 667.6 L413.5 672.4 L448.1 637.9 L495.7 637.9 L523.9 637.9 L576.6 585.2 L607.4 554.4 L659.7 554.4 L728.6 554.4 L744.2 538.8 L787.8 495.2 L820.9 495.2 L841.0 495.2 L903.2 433.0 L935.9 400.4 L945.4 400.4 L945.4 431.9 L1012.0 498.5 L988.6 498.5 L861.9 371.8 L848.3 358.2 L742.7 358.2 L721.9 358.2 L699.0 335.3 L737.5 296.9 L737.5 280.5 L633.4 280.5 L582.8 229.8 L550.3 197.3 L464.6 197.3 L388.8 197.3 L352.9 161.4 L324.5 133.0 L196.9 133.0 L196.9 50.2 L235.0 12.0 L253.1 30.1 L539.3 30.1 L540.3 30.1 L607.6 97.3 " />
<circle cx="105.6" cy="280.8" r="8" />
<circle cx="85.5" cy="337.5" r="8" />
<circle cx="54.9" cy="391.7" r="8" />
<circle cx="12.0" cy="482.6" r="8" />
<circle cx="57.7" cy="526.6" r="8" />
<circle cx="144.6" cy="555.2" r="8" />
<circle cx="238.8" cy="579.8" r="8" />
<circle cx="311.1" cy="667.6" r="8" />
<circle cx="413.5" cy="672.4" r="8" />
<circle cx="495.7" cy="637.9" r="8" />
<circle cx="576.6" cy="585.2" r="8" />
<circle cx="659.7" cy="554.4" r="8" />
<circle cx="744.2" cy="538.8" r="8" />
<circle cx="820.9" cy="495.2" r="8" />
<circle cx="903.2" cy="433.0" r="8" />
<circle cx="945.4" cy="400.4" r="8" />
<circle cx="1012.0" cy="498.5" r="8" />
<circle cx="861.9" cy="371.8" r="8" />
<circle cx="742.7" cy="358.2" r="8" />
<circle cx="699.0" cy="335.3" r="8" />
<circle cx="737.5" cy="280.5" r="8" />
<circle cx="582.8" cy="229.8" r="8" />
<circle cx="464.6" cy="197.3" r="8" />
<circle cx="352.9" cy="161.4" r="8" />
<circle cx="196.9" cy="133.0" r="8" />
<circle cx="235.0" cy="12.0" r="8" />
<circle cx="539.3" cy="30.1" r="8" />
<circle cx="607.6" cy="97.3" r="8" />
<style>
circle {
fill: white;
stroke: #525252;
stroke-width: 4;
}
path {
fill: none;
stroke: #525252;
stroke-width: 8;
}</style>
</svg>