<svg width="1024.0" height="445.8" xmlns="http://www.w3.org/2000/svg">
<path d="M12.0 433.84596481917487 L12.0 387.3 L31.1 368.2 L64.0 335.3 L64.0 332.5 L99.7 332.5 L150.0 282.3 L171.9 260.3 L225.2 260.3 L294.1 260.3 L318.1 236.2 L330.6 223.7 L444.4 223.7 L524.9 223.7 L538.5 210.2 L560.0 188.6 L610.9 188.6 L695.8 188.6 L736.4 148.1 L769.9 114.6 L864.9 114.6 L977.3 114.6 L1012.0 79.9 L745.8 79.9 L741.0 84.8 L805.9 84.8 L836.7 53.9 L878.7 12.0 L991.2 12.0 " />
<circle cx="12.0" cy="433.8" r="8" />
<circle cx="31.1" cy="368.2" r="8" />
<circle cx="64.0" cy="332.5" r="8" />
<circle cx="150.0" cy="282.3" r="8" />
<circle cx="225.2" cy="260.3" r="8" />
<circle cx="318.1" cy="236.2" r="8" />
<circle cx="444.4" cy="223.7" r="8" />
<circle cx="538.5" cy="210.2" r="8" />
<circle cx="610.9" cy="188.6" r="8" />
<circle cx="736.4" cy="148.1" r="8" />
<circle cx="864.9" cy="114.6" r="8" />
<circle cx="1012.0" cy="79.9" r="8" />
<circle cx="741.0" cy="84.8" r="8" />
<circle cx="836.7" cy="53.9" r="8" />
<circle cx="991.2" cy="12.0" r="8" />
<style>
circle {
fill: white;
stroke: #525252;
stroke-width: 4;
}
path {
fill: none;
stroke: #525252;
stroke-width: 8;
}</style>
</svg>