<svg width="1024.0" height="454.8" xmlns="http://www.w3.org/2000/svg">
<path d="M1012.0 12.0 L897.1 12.0 L854.3 54.8 L822.8 86.3 L756.5 86.3 L852.6 86.3 L883.1 116.8 L848.9 151.0 L751.8 151.0 L665.1 151.0 L623.7 192.4 L601.7 214.4 L549.7 214.4 L467.4 214.4 L453.6 228.2 L440.9 241.0 L324.6 241.0 L254.4 241.0 L229.8 265.6 L207.3 288.0 L152.9 288.0 L116.4 288.0 L65.1 339.4 L31.5 372.9 L31.5 375.7 L31.5 423.3 L12.0 442.8 " />
<circle cx="1012.0" cy="12.0" r="8" />
<circle cx="854.3" cy="54.8" r="8" />
<circle cx="756.5" cy="86.3" r="8" />
<circle cx="883.1" cy="116.8" r="8" />
<circle cx="751.8" cy="151.0" r="8" />
<circle cx="623.7" cy="192.4" r="8" />
<circle cx="549.7" cy="214.4" r="8" />
<circle cx="453.6" cy="228.2" r="8" />
<circle cx="324.6" cy="241.0" r="8" />
<circle cx="229.8" cy="265.6" r="8" />
<circle cx="152.9" cy="288.0" r="8" />
<circle cx="65.1" cy="339.4" r="8" />
<circle cx="31.5" cy="375.7" r="8" />
<circle cx="12.0" cy="442.8" r="8" />
<style>
circle {
fill: white;
stroke: #525252;
stroke-width: 4;
}
path {
fill: none;
stroke: #525252;
stroke-width: 8;
}</style>
</svg>