<svg width="1024.0" height="416.8" xmlns="http://www.w3.org/2000/svg">
<path d="M920.4 397.7 L927.5 404.8 L971.7 404.8 L971.7 396.5 L991.9 376.3 L1012.0 356.2 L1012.0 332.1 L984.5 332.1 L972.3 319.9 L964.4 312.0 L933.3 312.0 L904.5 312.0 L854.8 262.3 L852.9 260.4 L830.2 260.4 L805.4 260.4 L775.7 230.8 L742.2 197.3 L727.7 197.3 L712.8 197.3 L695.7 180.1 L642.8 127.2 L611.1 127.2 L599.0 127.2 L570.8 99.1 L545.2 73.4 L466.8 73.4 L466.8 78.2 L459.8 85.1 L450.5 75.7 L418.0 75.7 L400.9 75.7 L388.7 63.5 L372.6 47.4 L340.8 47.4 L332.1 47.4 L317.6 61.9 L307.5 72.0 L302.3 72.0 L302.3 67.6 L327.1 42.9 L280.8 42.9 L278.6 45.0 L277.5 46.2 L247.1 46.2 L215.1 46.2 L196.0 65.3 L185.9 75.4 L180.0 75.4 L159.1 75.4 L155.0 79.4 L87.6 12.0 L39.7 12.0 L39.7 32.8 L12.3 60.2 L12.0 60.4 L12.0 88.2 " />
<circle cx="920.4" cy="397.7" r="8" />
<circle cx="971.7" cy="404.8" r="8" />
<circle cx="991.9" cy="376.3" r="8" />
<circle cx="1012.0" cy="332.1" r="8" />
<circle cx="972.3" cy="319.9" r="8" />
<circle cx="933.3" cy="312.0" r="8" />
<circle cx="854.8" cy="262.3" r="8" />
<circle cx="830.2" cy="260.4" r="8" />
<circle cx="775.7" cy="230.8" r="8" />
<circle cx="727.7" cy="197.3" r="8" />
<circle cx="695.7" cy="180.1" r="8" />
<circle cx="611.1" cy="127.2" r="8" />
<circle cx="570.8" cy="99.1" r="8" />
<circle cx="466.8" cy="73.4" r="8" />
<circle cx="459.8" cy="85.1" r="8" />
<circle cx="418.0" cy="75.7" r="8" />
<circle cx="388.7" cy="63.5" r="8" />
<circle cx="340.8" cy="47.4" r="8" />
<circle cx="317.6" cy="61.9" r="8" />
<circle cx="302.3" cy="72.0" r="8" />
<circle cx="327.1" cy="42.9" r="8" />
<circle cx="278.6" cy="45.0" r="8" />
<circle cx="247.1" cy="46.2" r="8" />
<circle cx="196.0" cy="65.3" r="8" />
<circle cx="180.0" cy="75.4" r="8" />
<circle cx="155.0" cy="79.4" r="8" />
<circle cx="39.7" cy="12.0" r="8" />
<circle cx="12.3" cy="60.2" r="8" />
<circle cx="12.0" cy="88.2" r="8" />
<style>
circle {
fill: white;
stroke: #525252;
stroke-width: 4;
}
path {
fill: none;
stroke: #525252;
stroke-width: 8;
}</style>
</svg>