<svg width="1024.0" height="416.8" xmlns="http://www.w3.org/2000/svg">
<path d="M921.6 398.0 L928.3 404.8 L971.7 404.8 L971.7 396.5 L991.9 376.3 L1012.0 356.2 L1012.0 332.1 L984.5 332.1 L972.3 319.9 L964.4 312.0 L933.3 312.0 L908.5 312.0 L853.9 257.4 L850.6 254.1 L835.1 254.1 L830.8 254.1 L826.1 258.8 L798.1 230.8 L775.7 230.8 L762.1 230.8 L728.2 196.9 L711.5 180.1 L695.7 180.1 L664.0 180.1 L611.1 127.2 L583.0 99.1 L570.8 99.1 L492.4 99.1 L466.8 73.4 L459.8 80.4 L459.8 85.1 L427.4 85.1 L418.0 75.7 L405.7 63.5 L388.7 63.5 L356.8 63.5 L340.8 47.4 L332.1 47.4 L317.6 61.9 L307.5 72.0 L302.3 72.0 L302.3 67.6 L327.1 42.9 L280.8 42.9 L278.6 45.0 L277.5 46.2 L247.1 46.2 L215.1 46.2 L196.0 65.3 L185.9 75.4 L180.0 75.4 L159.1 75.4 L155.0 79.4 L87.6 12.0 L39.7 12.0 L39.7 32.8 L12.3 60.2 L12.0 60.4 L12.0 88.2 " />
<circle cx="921.6" cy="398.0" r="8" />
<circle cx="971.7" cy="404.8" r="8" />
<circle cx="991.9" cy="376.3" r="8" />
<circle cx="1012.0" cy="332.1" r="8" />
<circle cx="972.3" cy="319.9" r="8" />
<circle cx="933.3" cy="312.0" r="8" />
<circle cx="853.9" cy="257.4" r="8" />
<circle cx="835.1" cy="254.1" r="8" />
<circle cx="826.1" cy="258.8" r="8" />
<circle cx="775.7" cy="230.8" r="8" />
<circle cx="728.2" cy="196.9" r="8" />
<circle cx="695.7" cy="180.1" r="8" />
<circle cx="611.1" cy="127.2" r="8" />
<circle cx="570.8" cy="99.1" r="8" />
<circle cx="466.8" cy="73.4" r="8" />
<circle cx="459.8" cy="85.1" r="8" />
<circle cx="418.0" cy="75.7" r="8" />
<circle cx="388.7" cy="63.5" r="8" />
<circle cx="340.8" cy="47.4" r="8" />
<circle cx="317.6" cy="61.9" r="8" />
<circle cx="302.3" cy="72.0" r="8" />
<circle cx="327.1" cy="42.9" r="8" />
<circle cx="278.6" cy="45.0" r="8" />
<circle cx="247.1" cy="46.2" r="8" />
<circle cx="196.0" cy="65.3" r="8" />
<circle cx="180.0" cy="75.4" r="8" />
<circle cx="155.0" cy="79.4" r="8" />
<circle cx="39.7" cy="12.0" r="8" />
<circle cx="12.3" cy="60.2" r="8" />
<circle cx="12.0" cy="88.2" r="8" />
<style>
circle {
fill: white;
stroke: #525252;
stroke-width: 4;
}
path {
fill: none;
stroke: #525252;
stroke-width: 8;
}</style>
</svg>