<svg width="1024.0" height="328.1" xmlns="http://www.w3.org/2000/svg">
<path d="M22.815242773181893 316.0998787949669 L12.0 305.3 L12.0 297.7 L38.6 297.7 L44.1 292.2 L45.7 290.6 L80.8 290.6 L167.4 290.6 L169.6 288.4 L215.0 243.0 L300.0 243.0 L300.0 238.8 L312.1 226.7 L335.0 203.8 L335.0 202.8 L335.0 171.9 L348.5 158.4 L332.5 142.4 L313.8 142.4 L268.5 142.4 L253.6 127.6 L226.8 100.8 L204.7 100.8 L204.7 76.9 L213.5 68.2 L221.5 76.1 L320.0 76.1 L329.5 76.1 L343.0 89.7 L360.6 107.2 L400.1 107.2 L423.0 107.2 L433.2 117.4 L455.1 139.3 L503.0 139.3 L516.3 139.3 L523.9 146.9 L532.1 138.7 L563.6 138.7 L576.8 138.7 L590.6 124.9 L609.2 106.4 L627.2 106.4 L641.7 106.4 L661.5 86.6 L686.5 61.6 L701.8 61.6 L710.7 61.6 L725.1 47.2 L736.0 36.2 L759.0 36.2 L767.5 36.2 L773.3 30.4 L774.8 31.9 L798.2 31.9 L835.7 31.9 L837.2 33.4 L839.3 35.6 L859.3 35.6 L893.7 35.6 L894.2 36.0 L896.2 38.1 L923.5 38.1 L966.5 38.1 L967.7 36.9 L968.9 38.1 L990.7 38.1 L990.7 33.3 L1012.0 12.0 " />
<circle cx="22.8" cy="316.1" r="8" />
<circle cx="12.0" cy="297.7" r="8" />
<circle cx="44.1" cy="292.2" r="8" />
<circle cx="80.8" cy="290.6" r="8" />
<circle cx="169.6" cy="288.4" r="8" />
<circle cx="300.0" cy="243.0" r="8" />
<circle cx="312.1" cy="226.7" r="8" />
<circle cx="335.0" cy="202.8" r="8" />
<circle cx="348.5" cy="158.4" r="8" />
<circle cx="313.8" cy="142.4" r="8" />
<circle cx="253.6" cy="127.6" r="8" />
<circle cx="204.7" cy="100.8" r="8" />
<circle cx="213.5" cy="68.2" r="8" />
<circle cx="320.0" cy="76.1" r="8" />
<circle cx="343.0" cy="89.7" r="8" />
<circle cx="400.1" cy="107.2" r="8" />
<circle cx="433.2" cy="117.4" r="8" />
<circle cx="503.0" cy="139.3" r="8" />
<circle cx="523.9" cy="146.9" r="8" />
<circle cx="563.6" cy="138.7" r="8" />
<circle cx="590.6" cy="124.9" r="8" />
<circle cx="627.2" cy="106.4" r="8" />
<circle cx="661.5" cy="86.6" r="8" />
<circle cx="701.8" cy="61.6" r="8" />
<circle cx="725.1" cy="47.2" r="8" />
<circle cx="759.0" cy="36.2" r="8" />
<circle cx="773.3" cy="30.4" r="8" />
<circle cx="798.2" cy="31.9" r="8" />
<circle cx="837.2" cy="33.4" r="8" />
<circle cx="859.3" cy="35.6" r="8" />
<circle cx="894.2" cy="36.0" r="8" />
<circle cx="923.5" cy="38.1" r="8" />
<circle cx="967.7" cy="36.9" r="8" />
<circle cx="990.7" cy="38.1" r="8" />
<circle cx="1012.0" cy="12.0" r="8" />
<style>
circle {
fill: white;
stroke: #525252;
stroke-width: 4;
}
path {
fill: none;
stroke: #525252;
stroke-width: 8;
}</style>
</svg>