<svg width="664.2" height="1024.0" xmlns="http://www.w3.org/2000/svg">
<path d="M12.0 1012.0 L30.6 993.4 L49.4 993.4 L29.2 973.2 L29.2 944.3 L70.7 944.3 L100.0 915.0 L140.0 875.0 L177.5 875.0 L205.6 875.0 L251.4 920.9 L279.0 893.3 L289.7 893.3 L295.6 893.3 L344.0 844.9 L349.4 839.5 L384.0 839.5 L429.7 839.5 L446.9 856.6 L488.2 815.3 L490.1 815.3 L490.1 803.0 L523.2 769.9 L505.7 752.4 L455.3 752.4 L430.7 752.4 L384.7 706.4 L493.4 706.4 L536.4 663.3 L568.3 631.4 L568.3 618.3 L568.3 600.0 L596.2 572.0 L594.1 569.9 L594.1 554.5 L594.1 542.1 L621.1 515.1 L651.6 484.6 L651.6 454.3 L651.6 404.0 L652.2 403.4 L628.2 379.4 L596.2 379.4 L539.5 379.4 L509.3 349.3 L479.8 319.8 L413.6 319.8 L338.6 319.8 L319.7 300.8 L184.4 165.5 L141.6 165.5 L141.6 154.6 L177.6 118.6 L177.4 118.4 L177.4 93.6 L170.8 93.6 L122.0 44.8 L89.2 12.0 L49.9 12.0 " />
<circle cx="12.0" cy="1012.0" r="8" />
<circle cx="49.4" cy="993.4" r="8" />
<circle cx="29.2" cy="944.3" r="8" />
<circle cx="100.0" cy="915.0" r="8" />
<circle cx="177.5" cy="875.0" r="8" />
<circle cx="251.4" cy="920.9" r="8" />
<circle cx="289.7" cy="893.3" r="8" />
<circle cx="344.0" cy="844.9" r="8" />
<circle cx="384.0" cy="839.5" r="8" />
<circle cx="446.9" cy="856.6" r="8" />
<circle cx="490.1" cy="815.3" r="8" />
<circle cx="523.2" cy="769.9" r="8" />
<circle cx="455.3" cy="752.4" r="8" />
<circle cx="384.7" cy="706.4" r="8" />
<circle cx="536.4" cy="663.3" r="8" />
<circle cx="568.3" cy="618.3" r="8" />
<circle cx="596.2" cy="572.0" r="8" />
<circle cx="594.1" cy="554.5" r="8" />
<circle cx="621.1" cy="515.1" r="8" />
<circle cx="651.6" cy="454.3" r="8" />
<circle cx="652.2" cy="403.4" r="8" />
<circle cx="596.2" cy="379.4" r="8" />
<circle cx="509.3" cy="349.3" r="8" />
<circle cx="413.6" cy="319.8" r="8" />
<circle cx="319.7" cy="300.8" r="8" />
<circle cx="141.6" cy="165.5" r="8" />
<circle cx="177.6" cy="118.6" r="8" />
<circle cx="177.4" cy="93.6" r="8" />
<circle cx="122.0" cy="44.8" r="8" />
<circle cx="49.9" cy="12.0" r="8" />
<style>
circle {
fill: white;
stroke: #525252;
stroke-width: 4;
}
path {
fill: none;
stroke: #525252;
stroke-width: 8;
}</style>
</svg>