<svg width="1024.0" height="99.8" xmlns="http://www.w3.org/2000/svg">
<path d="M1012.0 67.9 L1008.5 71.4 L921.0 71.4 L860.9 71.4 L860.3 72.0 L858.1 74.3 L827.6 74.3 L758.2 74.3 L755.3 77.2 L754.7 76.6 L670.8 76.6 L631.9 76.6 L624.7 69.4 L623.6 68.2 L551.0 68.2 L478.8 68.2 L471.7 61.1 L418.7 61.1 L413.4 66.3 L407.3 72.5 L356.9 72.5 L310.1 72.5 L309.5 73.0 L299.1 62.7 L271.8 62.7 L271.8 79.8 L263.7 87.8 L259.5 83.6 L230.4 83.6 L184.3 83.6 L178.8 78.1 L195.5 61.4 L195.5 50.5 L149.6 50.5 L133.3 34.2 L121.2 22.1 L85.7 22.1 L22.1 22.1 L12.0 12.0 " />
<circle cx="1012.0" cy="67.9" r="8" />
<circle cx="921.0" cy="71.4" r="8" />
<circle cx="860.3" cy="72.0" r="8" />
<circle cx="827.6" cy="74.3" r="8" />
<circle cx="755.3" cy="77.2" r="8" />
<circle cx="670.8" cy="76.6" r="8" />
<circle cx="624.7" cy="69.4" r="8" />
<circle cx="551.0" cy="68.2" r="8" />
<circle cx="471.7" cy="61.1" r="8" />
<circle cx="413.4" cy="66.3" r="8" />
<circle cx="356.9" cy="72.5" r="8" />
<circle cx="309.5" cy="73.0" r="8" />
<circle cx="271.8" cy="62.7" r="8" />
<circle cx="263.7" cy="87.8" r="8" />
<circle cx="230.4" cy="83.6" r="8" />
<circle cx="178.8" cy="78.1" r="8" />
<circle cx="195.5" cy="50.5" r="8" />
<circle cx="133.3" cy="34.2" r="8" />
<circle cx="85.7" cy="22.1" r="8" />
<circle cx="12.0" cy="12.0" r="8" />
<style>
circle {
fill: white;
stroke: #DA291C;
stroke-width: 4;
}
path {
fill: none;
stroke: #DA291C;
stroke-width: 8;
}</style>
</svg>