<svg width="1024.0" height="271.8" xmlns="http://www.w3.org/2000/svg">
<path d="M12.0 107.09924191527897 L224.0 107.1 L270.3 153.4 L251.1 134.2 L251.1 60.0 L251.1 43.5 L219.6 12.0 L271.3 63.7 L271.3 112.5 L315.1 156.2 L362.7 156.2 L375.7 156.2 L382.2 162.8 L395.1 175.7 L442.9 175.7 L552.8 175.7 L608.3 120.2 L648.8 120.2 L661.1 132.4 L788.5 259.8 L1012.0 259.8 " />
<circle cx="12.0" cy="107.1" r="8" />
<circle cx="270.3" cy="153.4" r="8" />
<circle cx="251.1" cy="60.0" r="8" />
<circle cx="219.6" cy="12.0" r="8" />
<circle cx="271.3" cy="112.5" r="8" />
<circle cx="362.7" cy="156.2" r="8" />
<circle cx="382.2" cy="162.8" r="8" />
<circle cx="442.9" cy="175.7" r="8" />
<circle cx="608.3" cy="120.2" r="8" />
<circle cx="661.1" cy="132.4" r="8" />
<circle cx="1012.0" cy="259.8" r="8" />
<style>
circle {
fill: white;
stroke: #525252;
stroke-width: 4;
}
path {
fill: none;
stroke: #525252;
stroke-width: 8;
}</style>
</svg>