<svg width="1024.0" height="271.8" xmlns="http://www.w3.org/2000/svg">
<path d="M12.0 107.09924191527897 L58.2 153.3 L269.3 153.3 L247.4 131.4 L247.4 102.0 L247.4 39.8 L219.6 12.0 L219.6 61.8 L272.7 114.9 L314.0 156.2 L362.7 156.2 L375.7 156.2 L382.2 162.8 L395.1 175.7 L442.9 175.7 L553.5 175.7 L608.9 120.3 L622.1 133.5 L664.7 133.5 L885.6 133.5 L1012.0 259.8 " />
<circle cx="12.0" cy="107.1" r="8" />
<circle cx="269.3" cy="153.3" r="8" />
<circle cx="247.4" cy="102.0" r="8" />
<circle cx="219.6" cy="12.0" r="8" />
<circle cx="272.7" cy="114.9" r="8" />
<circle cx="362.7" cy="156.2" r="8" />
<circle cx="382.2" cy="162.8" r="8" />
<circle cx="442.9" cy="175.7" r="8" />
<circle cx="608.9" cy="120.3" r="8" />
<circle cx="664.7" cy="133.5" r="8" />
<circle cx="1012.0" cy="259.8" r="8" />
<style>
circle {
fill: white;
stroke: #525252;
stroke-width: 4;
}
path {
fill: none;
stroke: #525252;
stroke-width: 8;
}</style>
</svg>