<svg width="664.2" height="1024.0" xmlns="http://www.w3.org/2000/svg">
<path d="M49.92434866790521 12.0 L89.2 12.0 L122.0 44.8 L170.8 93.6 L177.4 93.6 L177.6 93.8 L177.6 118.6 L177.6 129.5 L141.6 165.5 L276.9 300.8 L319.7 300.8 L394.6 300.8 L413.6 319.8 L443.1 349.3 L509.3 349.3 L580.5 349.3 L607.4 376.2 L634.6 403.4 L652.2 403.4 L652.2 446.7 L648.7 450.2 L621.1 477.7 L621.1 515.1 L621.1 527.4 L594.1 554.5 L594.1 569.9 L596.2 572.0 L596.2 590.4 L568.3 618.3 L538.5 648.1 L538.5 665.0 L538.5 712.6 L532.1 718.9 L532.1 770.0 L533.0 770.9 L533.0 772.5 L490.1 815.3 L448.8 856.6 L446.9 856.6 L401.2 856.6 L384.0 839.5 L378.6 844.9 L344.0 844.9 L338.1 844.9 L289.7 893.3 L262.1 920.9 L251.4 920.9 L223.4 920.9 L177.5 875.0 L137.5 915.0 L100.0 915.0 L58.5 915.0 L29.2 944.3 L29.2 973.2 L49.4 993.4 L30.8 1012.0 L12.0 1012.0 " />
<circle cx="49.9" cy="12.0" r="8" />
<circle cx="122.0" cy="44.8" r="8" />
<circle cx="177.4" cy="93.6" r="8" />
<circle cx="177.6" cy="118.6" r="8" />
<circle cx="141.6" cy="165.5" r="8" />
<circle cx="319.7" cy="300.8" r="8" />
<circle cx="413.6" cy="319.8" r="8" />
<circle cx="509.3" cy="349.3" r="8" />
<circle cx="607.4" cy="376.2" r="8" />
<circle cx="652.2" cy="403.4" r="8" />
<circle cx="648.7" cy="450.2" r="8" />
<circle cx="621.1" cy="515.1" r="8" />
<circle cx="594.1" cy="554.5" r="8" />
<circle cx="596.2" cy="572.0" r="8" />
<circle cx="568.3" cy="618.3" r="8" />
<circle cx="538.5" cy="665.0" r="8" />
<circle cx="532.1" cy="718.9" r="8" />
<circle cx="533.0" cy="770.9" r="8" />
<circle cx="490.1" cy="815.3" r="8" />
<circle cx="446.9" cy="856.6" r="8" />
<circle cx="384.0" cy="839.5" r="8" />
<circle cx="344.0" cy="844.9" r="8" />
<circle cx="289.7" cy="893.3" r="8" />
<circle cx="251.4" cy="920.9" r="8" />
<circle cx="177.5" cy="875.0" r="8" />
<circle cx="100.0" cy="915.0" r="8" />
<circle cx="29.2" cy="944.3" r="8" />
<circle cx="49.4" cy="993.4" r="8" />
<circle cx="12.0" cy="1012.0" r="8" />
<style>
circle {
fill: white;
stroke: #525252;
stroke-width: 4;
}
path {
fill: none;
stroke: #525252;
stroke-width: 8;
}</style>
</svg>