<svg width="1024.0" height="934.4" xmlns="http://www.w3.org/2000/svg">
<path d="M91.3 12.0 L90.9 12.4 L90.9 57.2 L90.9 125.2 L126.6 160.9 L125.6 161.8 L125.6 253.0 L125.6 323.3 L128.2 325.9 L124.5 329.6 L124.5 421.5 L124.5 533.8 L57.4 600.9 L46.7 611.6 L46.7 634.4 L46.7 669.7 L12.0 704.4 L12.0 691.3 L28.8 674.5 L70.8 632.5 L105.9 632.5 L159.4 632.5 L174.6 647.7 L178.4 643.9 L221.3 643.9 L246.2 643.9 L260.2 657.8 L274.8 672.4 L311.9 672.4 L346.2 672.4 L364.8 691.0 L385.9 712.1 L441.7 712.1 L468.9 712.1 L484.4 727.7 L510.5 753.8 L591.4 753.8 L608.1 753.8 L633.2 778.9 L658.2 803.9 L695.6 803.9 L738.8 803.9 L767.7 832.8 L788.6 853.7 L809.2 853.7 L829.5 853.7 L861.6 885.8 L891.5 915.7 L904.8 915.7 L979.6 915.7 L984.4 910.9 L995.8 922.4 L1012.0 922.4 " />
<circle cx="91.3" cy="12.0" r="8" />
<circle cx="90.9" cy="57.2" r="8" />
<circle cx="126.6" cy="160.9" r="8" />
<circle cx="125.6" cy="253.0" r="8" />
<circle cx="128.2" cy="325.9" r="8" />
<circle cx="124.5" cy="421.5" r="8" />
<circle cx="57.4" cy="600.9" r="8" />
<circle cx="46.7" cy="634.4" r="8" />
<circle cx="12.0" cy="704.4" r="8" />
<circle cx="28.8" cy="674.5" r="8" />
<circle cx="105.9" cy="632.5" r="8" />
<circle cx="174.6" cy="647.7" r="8" />
<circle cx="221.3" cy="643.9" r="8" />
<circle cx="260.2" cy="657.8" r="8" />
<circle cx="311.9" cy="672.4" r="8" />
<circle cx="364.8" cy="691.0" r="8" />
<circle cx="441.7" cy="712.1" r="8" />
<circle cx="484.4" cy="727.7" r="8" />
<circle cx="591.4" cy="753.8" r="8" />
<circle cx="633.2" cy="778.9" r="8" />
<circle cx="695.6" cy="803.9" r="8" />
<circle cx="767.7" cy="832.8" r="8" />
<circle cx="809.2" cy="853.7" r="8" />
<circle cx="861.6" cy="885.8" r="8" />
<circle cx="904.8" cy="915.7" r="8" />
<circle cx="984.4" cy="910.9" r="8" />
<circle cx="1012.0" cy="922.4" r="8" />
<style>
circle {
fill: white;
stroke: #000000;
stroke-width: 4;
}
path {
fill: none;
stroke: #000000;
stroke-width: 8;
}</style>
</svg>