<svg width="285.3" height="1024.0" xmlns="http://www.w3.org/2000/svg">
<path d="M19.6 1012.0 L47.5 984.2 L47.6 984.2 L47.6 947.5 L52.8 942.3 L64.6 930.5 L76.1 930.5 L125.3 930.5 L126.5 929.3 L145.1 910.8 L145.1 904.2 L145.1 902.4 L103.0 860.4 L115.3 848.1 L115.3 833.6 L115.3 824.8 L144.4 795.7 L132.7 783.9 L132.7 763.2 L132.7 760.0 L150.9 741.8 L172.5 720.2 L172.5 707.4 L172.5 675.8 L179.5 668.8 L126.5 615.7 L118.3 615.7 L118.3 604.6 L139.9 583.0 L124.1 567.1 L98.1 567.1 L98.1 547.4 L107.4 538.1 L110.5 535.0 L157.7 535.0 L188.4 535.0 L229.2 494.2 L199.6 464.6 L199.6 435.8 L199.6 416.5 L165.6 382.5 L167.5 380.7 L167.5 358.2 L167.5 330.6 L169.5 328.5 L197.1 300.9 L223.1 300.9 L270.8 300.9 L273.3 303.4 L273.3 275.8 L269.0 271.5 L254.6 257.1 L254.6 230.0 L118.6 230.0 L106.7 218.1 L110.4 214.3 L110.4 198.3 L110.4 166.4 L90.3 146.3 L69.3 125.3 L33.5 125.3 L17.5 109.3 L17.5 91.3 L17.5 63.6 L12.0 58.1 L16.8 53.3 L16.8 26.4 L28.1 26.4 L39.5 15.1 L42.5 12.0 L77.9 12.0 L121.4 12.0 L136.8 27.3 " />
<circle cx="19.6" cy="1012.0" r="8" />
<circle cx="47.6" cy="984.2" r="8" />
<circle cx="52.8" cy="942.3" r="8" />
<circle cx="76.1" cy="930.5" r="8" />
<circle cx="126.5" cy="929.3" r="8" />
<circle cx="145.1" cy="904.2" r="8" />
<circle cx="103.0" cy="860.4" r="8" />
<circle cx="115.3" cy="833.6" r="8" />
<circle cx="144.4" cy="795.7" r="8" />
<circle cx="132.7" cy="763.2" r="8" />
<circle cx="150.9" cy="741.8" r="8" />
<circle cx="172.5" cy="707.4" r="8" />
<circle cx="179.5" cy="668.8" r="8" />
<circle cx="118.3" cy="615.7" r="8" />
<circle cx="139.9" cy="583.0" r="8" />
<circle cx="98.1" cy="567.1" r="8" />
<circle cx="107.4" cy="538.1" r="8" />
<circle cx="157.7" cy="535.0" r="8" />
<circle cx="229.2" cy="494.2" r="8" />
<circle cx="199.6" cy="435.8" r="8" />
<circle cx="165.6" cy="382.5" r="8" />
<circle cx="167.5" cy="358.2" r="8" />
<circle cx="169.5" cy="328.5" r="8" />
<circle cx="223.1" cy="300.9" r="8" />
<circle cx="273.3" cy="303.4" r="8" />
<circle cx="269.0" cy="271.5" r="8" />
<circle cx="254.6" cy="230.0" r="8" />
<circle cx="106.7" cy="218.1" r="8" />
<circle cx="110.4" cy="198.3" r="8" />
<circle cx="90.3" cy="146.3" r="8" />
<circle cx="33.5" cy="125.3" r="8" />
<circle cx="17.5" cy="91.3" r="8" />
<circle cx="12.0" cy="58.1" r="8" />
<circle cx="16.8" cy="26.4" r="8" />
<circle cx="39.5" cy="15.1" r="8" />
<circle cx="77.9" cy="12.0" r="8" />
<circle cx="136.8" cy="27.3" r="8" />
<style>
circle {
fill: white;
stroke: #000000;
stroke-width: 4;
}
path {
fill: none;
stroke: #000000;
stroke-width: 8;
}</style>
</svg>