<svg width="1024.0" height="610.2" xmlns="http://www.w3.org/2000/svg">
<path d="M1012.0 12.0 L911.2 112.8 L845.2 112.8 L829.4 112.8 L812.9 129.3 L795.1 147.0 L786.3 147.0 L764.9 125.6 L764.9 112.9 L718.7 112.9 L712.2 106.3 L709.8 104.0 L674.6 104.0 L656.6 104.0 L626.5 134.1 L604.9 155.7 L585.3 155.7 L585.3 161.2 L569.9 176.7 L527.5 219.1 L485.2 219.1 L456.0 219.1 L443.1 232.0 L408.5 266.6 L396.0 266.6 L392.6 266.6 L369.4 289.8 L357.2 302.0 L357.2 302.8 L299.1 302.8 L297.5 304.5 L290.8 297.8 L258.6 297.8 L258.6 301.1 L230.1 329.6 L225.8 333.9 L216.1 333.9 L216.1 351.0 L207.2 359.9 L209.8 362.4 L209.8 383.1 L209.8 386.6 L199.7 396.7 L199.2 397.2 L199.2 409.9 L179.0 409.9 L153.9 435.0 L143.1 445.8 L143.1 459.0 L143.1 475.3 L137.9 480.5 L130.9 487.6 L130.9 507.7 L130.9 517.2 L118.9 529.2 L110.5 537.6 L86.4 537.6 L67.8 537.6 L60.2 545.3 L42.6 562.9 L30.1 562.9 L30.1 563.8 L18.7 575.3 L12.0 582.0 L12.0 598.2 " />
<circle cx="1012.0" cy="12.0" r="8" />
<circle cx="845.2" cy="112.8" r="8" />
<circle cx="812.9" cy="129.3" r="8" />
<circle cx="786.3" cy="147.0" r="8" />
<circle cx="764.9" cy="112.9" r="8" />
<circle cx="712.2" cy="106.3" r="8" />
<circle cx="674.6" cy="104.0" r="8" />
<circle cx="626.5" cy="134.1" r="8" />
<circle cx="585.3" cy="155.7" r="8" />
<circle cx="569.9" cy="176.7" r="8" />
<circle cx="485.2" cy="219.1" r="8" />
<circle cx="443.1" cy="232.0" r="8" />
<circle cx="396.0" cy="266.6" r="8" />
<circle cx="369.4" cy="289.8" r="8" />
<circle cx="357.2" cy="302.8" r="8" />
<circle cx="297.5" cy="304.5" r="8" />
<circle cx="258.6" cy="297.8" r="8" />
<circle cx="230.1" cy="329.6" r="8" />
<circle cx="216.1" cy="333.9" r="8" />
<circle cx="207.2" cy="359.9" r="8" />
<circle cx="209.8" cy="383.1" r="8" />
<circle cx="199.7" cy="396.7" r="8" />
<circle cx="199.2" cy="409.9" r="8" />
<circle cx="153.9" cy="435.0" r="8" />
<circle cx="143.1" cy="459.0" r="8" />
<circle cx="137.9" cy="480.5" r="8" />
<circle cx="130.9" cy="507.7" r="8" />
<circle cx="118.9" cy="529.2" r="8" />
<circle cx="86.4" cy="537.6" r="8" />
<circle cx="60.2" cy="545.3" r="8" />
<circle cx="30.1" cy="562.9" r="8" />
<circle cx="18.7" cy="575.3" r="8" />
<circle cx="12.0" cy="598.2" r="8" />
<style>
circle {
fill: white;
stroke: #525252;
stroke-width: 4;
}
path {
fill: none;
stroke: #525252;
stroke-width: 8;
}</style>
</svg>