<svg width="1024.0" height="610.2" xmlns="http://www.w3.org/2000/svg">
<path d="M12.0 598.2336867881615 L12.0 582.0 L18.7 575.3 L30.1 563.8 L30.1 562.9 L47.7 545.3 L60.2 545.3 L78.8 545.3 L86.4 537.6 L94.8 529.2 L118.9 529.2 L130.9 517.2 L130.9 507.7 L130.9 487.6 L137.9 480.5 L143.1 475.3 L143.1 459.0 L143.1 445.8 L153.9 435.0 L179.0 409.9 L199.2 409.9 L199.7 409.4 L199.7 396.7 L199.7 393.2 L209.8 383.1 L209.8 362.4 L207.2 359.9 L207.2 352.5 L230.1 329.6 L258.6 301.1 L258.6 297.8 L290.8 297.8 L297.5 304.5 L355.6 304.5 L357.2 302.8 L369.4 290.6 L369.4 289.8 L392.6 266.6 L396.0 266.6 L408.5 266.6 L443.1 232.0 L456.0 219.1 L485.2 219.1 L527.5 219.1 L569.9 176.7 L585.3 161.2 L585.3 155.7 L606.9 134.1 L626.5 134.1 L644.5 134.1 L674.6 104.0 L709.8 104.0 L712.2 106.3 L718.7 112.9 L764.9 112.9 L786.3 134.3 L786.3 147.0 L765.7 167.6 L763.8 167.6 L763.8 204.3 L780.6 221.2 L812.9 188.9 L812.9 129.3 L829.4 112.8 L845.2 112.8 L911.2 112.8 L1012.0 12.0 " />
<circle cx="12.0" cy="598.2" r="8" />
<circle cx="18.7" cy="575.3" r="8" />
<circle cx="30.1" cy="562.9" r="8" />
<circle cx="60.2" cy="545.3" r="8" />
<circle cx="86.4" cy="537.6" r="8" />
<circle cx="118.9" cy="529.2" r="8" />
<circle cx="130.9" cy="507.7" r="8" />
<circle cx="137.9" cy="480.5" r="8" />
<circle cx="143.1" cy="459.0" r="8" />
<circle cx="153.9" cy="435.0" r="8" />
<circle cx="199.2" cy="409.9" r="8" />
<circle cx="199.7" cy="396.7" r="8" />
<circle cx="209.8" cy="383.1" r="8" />
<circle cx="207.2" cy="359.9" r="8" />
<circle cx="230.1" cy="329.6" r="8" />
<circle cx="258.6" cy="297.8" r="8" />
<circle cx="297.5" cy="304.5" r="8" />
<circle cx="357.2" cy="302.8" r="8" />
<circle cx="369.4" cy="289.8" r="8" />
<circle cx="396.0" cy="266.6" r="8" />
<circle cx="443.1" cy="232.0" r="8" />
<circle cx="485.2" cy="219.1" r="8" />
<circle cx="569.9" cy="176.7" r="8" />
<circle cx="585.3" cy="155.7" r="8" />
<circle cx="626.5" cy="134.1" r="8" />
<circle cx="674.6" cy="104.0" r="8" />
<circle cx="712.2" cy="106.3" r="8" />
<circle cx="764.9" cy="112.9" r="8" />
<circle cx="786.3" cy="147.0" r="8" />
<circle cx="763.8" cy="167.6" r="8" />
<circle cx="780.6" cy="221.2" r="8" />
<circle cx="812.9" cy="129.3" r="8" />
<circle cx="845.2" cy="112.8" r="8" />
<circle cx="1012.0" cy="12.0" r="8" />
<style>
circle {
fill: white;
stroke: #525252;
stroke-width: 4;
}
path {
fill: none;
stroke: #525252;
stroke-width: 8;
}</style>
</svg>