<svg width="871.1" height="1024.0" xmlns="http://www.w3.org/2000/svg">
<path d="M12.0 12.0 L29.2 29.2 L73.9 29.2 L115.6 29.2 L166.6 80.2 L325.1 238.6 L335.1 238.6 L309.6 264.1 L287.9 264.1 L287.9 280.2 L263.1 305.0 L272.6 314.5 L272.6 358.5 L272.6 381.3 L282.3 391.0 L304.8 413.5 L304.8 439.9 L304.8 449.0 L312.0 456.2 L329.8 474.0 L333.7 474.0 L368.9 474.0 L369.3 473.6 L379.1 483.4 L431.0 483.4 L478.2 483.4 L512.2 517.5 L521.1 526.3 L536.8 526.3 L536.8 534.1 L571.6 568.8 L638.8 636.1 L638.8 656.0 L638.8 719.8 L611.9 746.6 L609.9 744.6 L572.6 744.6 L571.5 744.6 L551.0 765.0 L532.8 783.2 L522.6 783.2 L551.1 811.8 L560.5 811.8 L546.8 825.6 L530.5 825.6 L519.9 825.6 L472.3 873.2 L437.8 907.7 L437.8 910.2 L416.1 910.2 L389.1 937.3 L387.3 935.5 L331.1 935.5 L297.4 935.5 L281.3 919.4 L278.1 916.2 L278.1 885.6 L339.9 947.4 L433.0 947.4 L480.8 947.4 L489.1 955.7 L502.8 969.5 L545.8 969.5 L599.3 969.5 L609.4 979.5 L615.5 985.6 L665.1 985.6 L755.6 985.6 L756.6 984.6 L784.0 1012.0 L834.5 1012.0 L816.5 994.0 L816.5 965.2 L816.5 939.9 L825.7 930.7 L814.9 920.0 L814.9 901.3 L814.9 868.9 L859.1 824.7 " />
<circle cx="12.0" cy="12.0" r="8" />
<circle cx="73.9" cy="29.2" r="8" />
<circle cx="166.6" cy="80.2" r="8" />
<circle cx="335.1" cy="238.6" r="8" />
<circle cx="287.9" cy="264.1" r="8" />
<circle cx="263.1" cy="305.0" r="8" />
<circle cx="272.6" cy="358.5" r="8" />
<circle cx="282.3" cy="391.0" r="8" />
<circle cx="304.8" cy="439.9" r="8" />
<circle cx="312.0" cy="456.2" r="8" />
<circle cx="333.7" cy="474.0" r="8" />
<circle cx="369.3" cy="473.6" r="8" />
<circle cx="431.0" cy="483.4" r="8" />
<circle cx="512.2" cy="517.5" r="8" />
<circle cx="536.8" cy="526.3" r="8" />
<circle cx="571.6" cy="568.8" r="8" />
<circle cx="638.8" cy="656.0" r="8" />
<circle cx="611.9" cy="746.6" r="8" />
<circle cx="572.6" cy="744.6" r="8" />
<circle cx="551.0" cy="765.0" r="8" />
<circle cx="522.6" cy="783.2" r="8" />
<circle cx="560.5" cy="811.8" r="8" />
<circle cx="530.5" cy="825.6" r="8" />
<circle cx="472.3" cy="873.2" r="8" />
<circle cx="437.8" cy="910.2" r="8" />
<circle cx="389.1" cy="937.3" r="8" />
<circle cx="331.1" cy="935.5" r="8" />
<circle cx="281.3" cy="919.4" r="8" />
<circle cx="278.1" cy="885.6" r="8" />
<circle cx="433.0" cy="947.4" r="8" />
<circle cx="489.1" cy="955.7" r="8" />
<circle cx="545.8" cy="969.5" r="8" />
<circle cx="609.4" cy="979.5" r="8" />
<circle cx="665.1" cy="985.6" r="8" />
<circle cx="756.6" cy="984.6" r="8" />
<circle cx="834.5" cy="1012.0" r="8" />
<circle cx="816.5" cy="965.2" r="8" />
<circle cx="825.7" cy="930.7" r="8" />
<circle cx="814.9" cy="901.3" r="8" />
<circle cx="859.1" cy="824.7" r="8" />
<style>
circle {
fill: white;
stroke: #525252;
stroke-width: 4;
}
path {
fill: none;
stroke: #525252;
stroke-width: 8;
}</style>
</svg>