<svg width="1024.0" height="474.9" xmlns="http://www.w3.org/2000/svg">
<path d="M12.0 270.2906030116128 L33.2 291.5 L33.2 304.8 L68.2 339.7 L73.7 339.7 L101.0 339.7 L126.6 365.4 L126.6 391.8 L112.8 405.7 L112.8 437.7 L116.7 441.7 L116.7 447.2 L101.0 462.9 L109.2 454.7 L150.9 454.7 L194.5 454.7 L219.5 429.8 L283.3 365.9 L328.9 365.9 L345.6 349.2 L345.6 317.1 L345.6 315.8 L364.6 296.9 L400.7 260.8 L405.9 260.8 L425.3 260.8 L479.0 207.1 L499.1 187.0 L544.4 187.0 L610.0 187.0 L675.9 121.2 L699.8 97.2 L699.8 88.6 L717.0 71.4 L764.7 71.4 L777.7 71.4 L792.4 86.1 L833.2 126.9 L879.1 126.9 L939.7 126.9 L1003.2 190.3 L977.0 164.1 L977.0 107.2 L1009.0 75.2 L1012.0 75.2 L1012.0 55.5 L978.7 22.2 L968.5 12.0 L896.8 12.0 " />
<circle cx="12.0" cy="270.3" r="8" />
<circle cx="33.2" cy="304.8" r="8" />
<circle cx="73.7" cy="339.7" r="8" />
<circle cx="126.6" cy="365.4" r="8" />
<circle cx="112.8" cy="405.7" r="8" />
<circle cx="116.7" cy="441.7" r="8" />
<circle cx="101.0" cy="462.9" r="8" />
<circle cx="150.9" cy="454.7" r="8" />
<circle cx="219.5" cy="429.8" r="8" />
<circle cx="328.9" cy="365.9" r="8" />
<circle cx="345.6" cy="317.1" r="8" />
<circle cx="364.6" cy="296.9" r="8" />
<circle cx="405.9" cy="260.8" r="8" />
<circle cx="479.0" cy="207.1" r="8" />
<circle cx="544.4" cy="187.0" r="8" />
<circle cx="675.9" cy="121.2" r="8" />
<circle cx="699.8" cy="88.6" r="8" />
<circle cx="764.7" cy="71.4" r="8" />
<circle cx="792.4" cy="86.1" r="8" />
<circle cx="879.1" cy="126.9" r="8" />
<circle cx="1003.2" cy="190.3" r="8" />
<circle cx="977.0" cy="107.2" r="8" />
<circle cx="1012.0" cy="75.2" r="8" />
<circle cx="978.7" cy="22.2" r="8" />
<circle cx="896.8" cy="12.0" r="8" />
<style>
circle {
fill: white;
stroke: #525252;
stroke-width: 4;
}
path {
fill: none;
stroke: #525252;
stroke-width: 8;
}</style>
</svg>