<svg width="440.8" height="1024.0" xmlns="http://www.w3.org/2000/svg">
<path d="M86.9 12.0 L86.5 12.4 L86.5 54.7 L86.5 118.9 L120.2 152.6 L119.3 153.6 L119.3 239.7 L119.3 306.1 L121.8 308.6 L118.3 312.1 L118.3 398.9 L118.3 505.0 L54.9 568.4 L44.8 578.5 L44.8 600.0 L44.8 633.4 L12.0 666.2 L52.1 666.2 L65.6 652.6 L74.2 661.2 L127.3 661.2 L184.1 661.2 L204.3 681.3 L209.7 686.8 L282.5 686.8 L355.9 686.8 L380.0 710.9 L391.0 721.9 L428.8 721.9 L417.9 732.7 L417.9 752.5 L417.9 765.2 L401.4 781.7 L378.3 804.8 L378.3 830.8 L378.3 863.8 L359.3 882.8 L327.2 914.9 L327.2 926.0 L323.6 926.0 L269.8 979.9 L240.2 1009.4 L240.2 1012.0 " />
<circle cx="86.9" cy="12.0" r="8" />
<circle cx="86.5" cy="54.7" r="8" />
<circle cx="120.2" cy="152.6" r="8" />
<circle cx="119.3" cy="239.7" r="8" />
<circle cx="121.8" cy="308.6" r="8" />
<circle cx="118.3" cy="398.9" r="8" />
<circle cx="54.9" cy="568.4" r="8" />
<circle cx="44.8" cy="600.0" r="8" />
<circle cx="12.0" cy="666.2" r="8" />
<circle cx="65.6" cy="652.6" r="8" />
<circle cx="127.3" cy="661.2" r="8" />
<circle cx="204.3" cy="681.3" r="8" />
<circle cx="282.5" cy="686.8" r="8" />
<circle cx="380.0" cy="710.9" r="8" />
<circle cx="428.8" cy="721.9" r="8" />
<circle cx="417.9" cy="752.5" r="8" />
<circle cx="401.4" cy="781.7" r="8" />
<circle cx="378.3" cy="830.8" r="8" />
<circle cx="359.3" cy="882.8" r="8" />
<circle cx="327.2" cy="926.0" r="8" />
<circle cx="269.8" cy="979.9" r="8" />
<circle cx="240.2" cy="1012.0" r="8" />
<style>
circle {
fill: white;
stroke: #CBA3D8;
stroke-width: 4;
}
path {
fill: none;
stroke: #CBA3D8;
stroke-width: 8;
}</style>
</svg>