<svg width="1024.0" height="861.2" xmlns="http://www.w3.org/2000/svg">
<path d="M1012.0 819.6 L998.5 806.1 L960.0 806.1 L918.8 806.1 L906.1 818.8 L882.9 842.0 L855.2 842.0 L818.7 842.0 L811.6 849.2 L744.6 782.2 L730.6 782.2 L718.9 782.2 L684.4 747.7 L660.7 724.0 L643.1 724.0 L632.1 724.0 L612.0 703.9 L572.5 664.4 L532.4 664.4 L518.4 664.4 L489.4 635.3 L443.8 589.8 L419.8 589.8 L411.4 589.8 L357.3 535.7 L342.6 521.0 L342.6 507.1 L342.6 456.7 L335.8 450.0 L361.2 424.5 L361.2 424.3 L342.5 424.3 L328.6 410.4 L324.8 406.5 L324.8 224.8 L251.8 224.8 L250.3 226.2 L250.0 226.6 L192.7 226.6 L143.5 226.6 L125.3 208.4 L49.1 132.2 L31.4 132.2 L12.6 113.3 L12.6 66.1 L12.6 15.4 L12.0 14.9 L77.6 14.9 L80.1 17.4 L85.5 12.0 L137.5 12.0 L199.5 12.0 L201.5 14.0 L204.6 17.1 L255.3 17.1 L308.9 17.1 L309.4 16.5 L314.8 21.9 L352.5 21.9 L375.6 21.9 L403.3 49.7 " />
<circle cx="1012.0" cy="819.6" r="8" />
<circle cx="960.0" cy="806.1" r="8" />
<circle cx="906.1" cy="818.8" r="8" />
<circle cx="855.2" cy="842.0" r="8" />
<circle cx="811.6" cy="849.2" r="8" />
<circle cx="730.6" cy="782.2" r="8" />
<circle cx="684.4" cy="747.7" r="8" />
<circle cx="643.1" cy="724.0" r="8" />
<circle cx="612.0" cy="703.9" r="8" />
<circle cx="532.4" cy="664.4" r="8" />
<circle cx="489.4" cy="635.3" r="8" />
<circle cx="419.8" cy="589.8" r="8" />
<circle cx="357.3" cy="535.7" r="8" />
<circle cx="342.6" cy="507.1" r="8" />
<circle cx="335.8" cy="450.0" r="8" />
<circle cx="361.2" cy="424.3" r="8" />
<circle cx="328.6" cy="410.4" r="8" />
<circle cx="324.8" cy="224.8" r="8" />
<circle cx="250.3" cy="226.2" r="8" />
<circle cx="192.7" cy="226.6" r="8" />
<circle cx="125.3" cy="208.4" r="8" />
<circle cx="31.4" cy="132.2" r="8" />
<circle cx="12.6" cy="66.1" r="8" />
<circle cx="12.0" cy="14.9" r="8" />
<circle cx="80.1" cy="17.4" r="8" />
<circle cx="137.5" cy="12.0" r="8" />
<circle cx="201.5" cy="14.0" r="8" />
<circle cx="255.3" cy="17.1" r="8" />
<circle cx="309.4" cy="16.5" r="8" />
<circle cx="352.5" cy="21.9" r="8" />
<circle cx="403.3" cy="49.7" r="8" />
<style>
circle {
fill: white;
stroke: #525252;
stroke-width: 4;
}
path {
fill: none;
stroke: #525252;
stroke-width: 8;
}</style>
</svg>