<svg width="1024.0" height="178.5" xmlns="http://www.w3.org/2000/svg">
<path d="M1012.0 138.3 L1005.7 132.0 L996.9 132.0 L955.8 132.0 L953.2 134.6 L936.2 117.6 L929.2 117.6 L918.8 117.6 L903.7 102.4 L868.4 102.4 L860.6 110.2 L843.9 126.9 L822.9 126.9 L818.9 126.9 L802.1 143.7 L792.8 153.0 L777.0 153.0 L753.2 153.0 L739.7 166.5 L717.6 144.5 L665.5 144.5 L593.0 144.5 L579.1 130.6 L573.4 124.8 L512.4 124.8 L500.1 124.8 L492.9 117.6 L479.3 104.0 L422.5 104.0 L390.8 104.0 L372.0 85.3 L358.6 71.8 L323.8 71.8 L323.8 54.7 L336.7 41.8 L339.6 38.9 L339.6 12.0 L310.4 12.0 L298.5 23.9 L291.1 31.3 L263.3 31.3 L225.0 31.3 L209.8 46.6 L201.4 55.0 L180.5 55.0 L172.7 55.0 L154.3 73.3 L141.4 86.2 L130.2 86.2 L110.5 86.2 L99.8 96.9 L88.9 107.7 L69.9 107.7 L52.7 107.7 L42.7 117.8 L35.1 125.4 L12.0 125.4 " />
<circle cx="1012.0" cy="138.3" r="8" />
<circle cx="996.9" cy="132.0" r="8" />
<circle cx="953.2" cy="134.6" r="8" />
<circle cx="929.2" cy="117.6" r="8" />
<circle cx="903.7" cy="102.4" r="8" />
<circle cx="860.6" cy="110.2" r="8" />
<circle cx="822.9" cy="126.9" r="8" />
<circle cx="802.1" cy="143.7" r="8" />
<circle cx="777.0" cy="153.0" r="8" />
<circle cx="739.7" cy="166.5" r="8" />
<circle cx="665.5" cy="144.5" r="8" />
<circle cx="579.1" cy="130.6" r="8" />
<circle cx="512.4" cy="124.8" r="8" />
<circle cx="492.9" cy="117.6" r="8" />
<circle cx="422.5" cy="104.0" r="8" />
<circle cx="372.0" cy="85.3" r="8" />
<circle cx="323.8" cy="71.8" r="8" />
<circle cx="336.7" cy="41.8" r="8" />
<circle cx="339.6" cy="12.0" r="8" />
<circle cx="298.5" cy="23.9" r="8" />
<circle cx="263.3" cy="31.3" r="8" />
<circle cx="209.8" cy="46.6" r="8" />
<circle cx="180.5" cy="55.0" r="8" />
<circle cx="154.3" cy="73.3" r="8" />
<circle cx="130.2" cy="86.2" r="8" />
<circle cx="99.8" cy="96.9" r="8" />
<circle cx="69.9" cy="107.7" r="8" />
<circle cx="42.7" cy="117.8" r="8" />
<circle cx="12.0" cy="125.4" r="8" />
<style>
circle {
fill: white;
stroke: #D0006F;
stroke-width: 4;
}
path {
fill: none;
stroke: #D0006F;
stroke-width: 8;
}</style>
</svg>