<svg width="1024.0" height="178.9" xmlns="http://www.w3.org/2000/svg">
<path d="M12.0 125.8 L19.6 118.2 L42.7 118.2 L59.9 118.2 L69.9 108.1 L80.7 97.3 L99.8 97.3 L119.5 97.3 L130.2 86.6 L143.1 73.7 L154.3 73.7 L162.2 73.7 L180.5 55.3 L189.0 46.9 L209.8 46.9 L248.1 46.9 L263.3 31.7 L270.7 24.2 L298.5 24.2 L329.2 24.2 L341.5 12.0 L341.5 37.4 L336.7 42.2 L323.8 55.1 L323.8 72.2 L358.6 72.2 L372.0 85.7 L390.8 104.4 L422.5 104.4 L479.3 104.4 L492.9 118.0 L500.1 125.2 L512.4 125.2 L573.4 125.2 L579.1 130.9 L593.0 144.8 L665.5 144.8 L717.6 144.8 L739.7 166.9 L752.8 153.8 L774.8 153.8 L792.9 153.8 L803.5 143.2 L819.0 127.7 L822.4 127.7 L843.5 127.7 L860.6 110.6 L870.2 101.0 L900.9 101.0 L912.0 101.0 L929.6 118.6 L946.0 135.0 L953.2 135.0 L994.3 135.0 L996.9 132.4 L1003.1 138.6 L1012.0 138.6 " />
<circle cx="12.0" cy="125.8" r="8" />
<circle cx="42.7" cy="118.2" r="8" />
<circle cx="69.9" cy="108.1" r="8" />
<circle cx="99.8" cy="97.3" r="8" />
<circle cx="130.2" cy="86.6" r="8" />
<circle cx="154.3" cy="73.7" r="8" />
<circle cx="180.5" cy="55.3" r="8" />
<circle cx="209.8" cy="46.9" r="8" />
<circle cx="263.3" cy="31.7" r="8" />
<circle cx="298.5" cy="24.2" r="8" />
<circle cx="341.5" cy="12.0" r="8" />
<circle cx="336.7" cy="42.2" r="8" />
<circle cx="323.8" cy="72.2" r="8" />
<circle cx="372.0" cy="85.7" r="8" />
<circle cx="422.5" cy="104.4" r="8" />
<circle cx="492.9" cy="118.0" r="8" />
<circle cx="512.4" cy="125.2" r="8" />
<circle cx="579.1" cy="130.9" r="8" />
<circle cx="665.5" cy="144.8" r="8" />
<circle cx="739.7" cy="166.9" r="8" />
<circle cx="774.8" cy="153.8" r="8" />
<circle cx="803.5" cy="143.2" r="8" />
<circle cx="822.4" cy="127.7" r="8" />
<circle cx="860.6" cy="110.6" r="8" />
<circle cx="900.9" cy="101.0" r="8" />
<circle cx="929.6" cy="118.6" r="8" />
<circle cx="953.2" cy="135.0" r="8" />
<circle cx="996.9" cy="132.4" r="8" />
<circle cx="1012.0" cy="138.6" r="8" />
<style>
circle {
fill: white;
stroke: #D0006F;
stroke-width: 4;
}
path {
fill: none;
stroke: #D0006F;
stroke-width: 8;
}</style>
</svg>