<svg width="1024.0" height="178.5" xmlns="http://www.w3.org/2000/svg">
<path d="M12.0 125.4 L19.6 117.8 L42.7 117.8 L59.9 117.8 L69.9 107.7 L80.7 96.9 L99.8 96.9 L119.5 96.9 L130.2 86.2 L143.1 73.3 L154.3 73.3 L162.2 73.3 L180.5 55.0 L189.0 46.6 L209.8 46.6 L248.1 46.6 L263.3 31.3 L270.7 23.9 L298.5 23.9 L327.7 23.9 L339.6 12.0 L339.6 38.9 L336.7 41.8 L323.8 54.7 L323.8 71.8 L358.6 71.8 L372.0 85.3 L390.8 104.0 L422.5 104.0 L479.3 104.0 L492.9 117.6 L500.1 124.8 L512.4 124.8 L573.4 124.8 L579.1 130.6 L593.0 144.5 L665.5 144.5 L717.6 144.5 L739.7 166.5 L752.8 153.4 L774.8 153.4 L792.9 153.4 L803.5 142.9 L819.0 127.3 L822.4 127.3 L843.5 127.3 L860.6 110.2 L870.2 100.7 L900.9 100.7 L912.0 100.7 L929.6 118.2 L946.0 134.6 L953.2 134.6 L994.3 134.6 L996.9 132.0 L1003.1 138.3 L1012.0 138.3 " />
<circle cx="12.0" cy="125.4" r="8" />
<circle cx="42.7" cy="117.8" r="8" />
<circle cx="69.9" cy="107.7" r="8" />
<circle cx="99.8" cy="96.9" r="8" />
<circle cx="130.2" cy="86.2" r="8" />
<circle cx="154.3" cy="73.3" r="8" />
<circle cx="180.5" cy="55.0" r="8" />
<circle cx="209.8" cy="46.6" r="8" />
<circle cx="263.3" cy="31.3" r="8" />
<circle cx="298.5" cy="23.9" r="8" />
<circle cx="339.6" cy="12.0" r="8" />
<circle cx="336.7" cy="41.8" r="8" />
<circle cx="323.8" cy="71.8" r="8" />
<circle cx="372.0" cy="85.3" r="8" />
<circle cx="422.5" cy="104.0" r="8" />
<circle cx="492.9" cy="117.6" r="8" />
<circle cx="512.4" cy="124.8" r="8" />
<circle cx="579.1" cy="130.6" r="8" />
<circle cx="665.5" cy="144.5" r="8" />
<circle cx="739.7" cy="166.5" r="8" />
<circle cx="774.8" cy="153.4" r="8" />
<circle cx="803.5" cy="142.9" r="8" />
<circle cx="822.4" cy="127.3" r="8" />
<circle cx="860.6" cy="110.2" r="8" />
<circle cx="900.9" cy="100.7" r="8" />
<circle cx="929.6" cy="118.2" r="8" />
<circle cx="953.2" cy="134.6" r="8" />
<circle cx="996.9" cy="132.0" r="8" />
<circle cx="1012.0" cy="138.3" r="8" />
<style>
circle {
fill: white;
stroke: #D0006F;
stroke-width: 4;
}
path {
fill: none;
stroke: #D0006F;
stroke-width: 8;
}</style>
</svg>