<svg width="1024.0" height="510.5" xmlns="http://www.w3.org/2000/svg">
<path d="M1012.0000000000001 41.386422063308544 L1011.4 42.0 L948.5 42.0 L843.9 42.0 L838.5 47.4 L830.3 39.3 L701.7 39.3 L625.6 39.3 L624.4 38.1 L616.9 30.6 L541.4 30.6 L469.5 30.6 L461.9 23.0 L450.9 12.0 L388.1 12.0 L352.1 12.0 L331.9 32.2 L323.5 40.7 L323.5 58.6 L323.5 76.1 L309.4 90.2 L296.1 103.4 L296.1 113.7 L261.4 113.7 L231.1 144.1 L203.1 172.1 L203.1 175.4 L197.7 175.4 L163.8 209.3 L137.9 235.3 L136.5 235.3 L127.8 235.3 L100.1 263.0 L77.6 285.5 L50.4 285.5 L50.4 311.7 L48.1 314.0 L31.3 330.8 L31.3 331.0 L31.3 335.6 L13.2 353.6 L12.0 354.8 L12.0 392.2 L12.0 420.2 L31.6 439.7 L49.4 457.6 L49.4 473.6 L53.7 473.6 L78.6 498.5 L101.4 475.8 L102.0 475.8 L106.2 475.8 L121.9 460.1 L137.3 444.7 L140.9 444.7 L144.2 444.7 L181.9 407.1 L221.3 367.7 L236.5 367.7 " />
<circle cx="1012.0" cy="41.4" r="8" />
<circle cx="948.5" cy="42.0" r="8" />
<circle cx="838.5" cy="47.4" r="8" />
<circle cx="701.7" cy="39.3" r="8" />
<circle cx="624.4" cy="38.1" r="8" />
<circle cx="541.4" cy="30.6" r="8" />
<circle cx="461.9" cy="23.0" r="8" />
<circle cx="388.1" cy="12.0" r="8" />
<circle cx="331.9" cy="32.2" r="8" />
<circle cx="323.5" cy="58.6" r="8" />
<circle cx="309.4" cy="90.2" r="8" />
<circle cx="296.1" cy="113.7" r="8" />
<circle cx="231.1" cy="144.1" r="8" />
<circle cx="203.1" cy="175.4" r="8" />
<circle cx="163.8" cy="209.3" r="8" />
<circle cx="136.5" cy="235.3" r="8" />
<circle cx="100.1" cy="263.0" r="8" />
<circle cx="50.4" cy="285.5" r="8" />
<circle cx="48.1" cy="314.0" r="8" />
<circle cx="31.3" cy="331.0" r="8" />
<circle cx="13.2" cy="353.6" r="8" />
<circle cx="12.0" cy="392.2" r="8" />
<circle cx="31.6" cy="439.7" r="8" />
<circle cx="49.4" cy="473.6" r="8" />
<circle cx="78.6" cy="498.5" r="8" />
<circle cx="102.0" cy="475.8" r="8" />
<circle cx="121.9" cy="460.1" r="8" />
<circle cx="140.9" cy="444.7" r="8" />
<circle cx="181.9" cy="407.1" r="8" />
<circle cx="236.5" cy="367.7" r="8" />
<style>
circle {
fill: white;
stroke: #000000;
stroke-width: 4;
}
path {
fill: none;
stroke: #000000;
stroke-width: 8;
}</style>
</svg>