<svg width="1024.0" height="499.5" xmlns="http://www.w3.org/2000/svg">
<path d="M236.48167656224456 356.6286060810972 L180.7 412.4 L164.8 412.4 L162.2 412.4 L140.9 433.7 L125.5 449.1 L121.9 449.1 L117.7 449.1 L102.0 464.7 L79.3 487.5 L78.6 487.5 L74.4 487.5 L49.4 462.6 L31.6 444.7 L31.6 428.7 L31.6 400.7 L12.0 381.1 L13.2 379.9 L13.2 342.6 L13.2 338.0 L31.3 320.0 L48.1 303.1 L48.1 302.9 L48.1 276.7 L50.4 274.4 L72.8 252.0 L100.1 252.0 L108.8 252.0 L136.5 224.2 L162.5 198.3 L163.8 198.3 L169.1 198.3 L203.1 164.3 L231.1 136.3 L231.1 133.1 L265.8 133.1 L296.1 102.7 L308.9 89.9 L308.9 80.3 L308.9 62.1 L323.5 47.6 L331.9 39.1 L331.9 21.2 L374.8 21.2 L377.6 18.4 L384.0 12.0 L461.9 12.0 L533.8 12.0 L541.4 19.6 L548.8 27.0 L624.4 27.0 L700.5 27.0 L701.7 28.2 L709.8 36.4 L838.5 36.4 L943.1 36.4 L948.5 31.0 L949.1 30.4 L1012.0 30.4 " />
<circle cx="236.5" cy="356.6" r="8" />
<circle cx="164.8" cy="412.4" r="8" />
<circle cx="140.9" cy="433.7" r="8" />
<circle cx="121.9" cy="449.1" r="8" />
<circle cx="102.0" cy="464.7" r="8" />
<circle cx="78.6" cy="487.5" r="8" />
<circle cx="49.4" cy="462.6" r="8" />
<circle cx="31.6" cy="428.7" r="8" />
<circle cx="12.0" cy="381.1" r="8" />
<circle cx="13.2" cy="342.6" r="8" />
<circle cx="31.3" cy="320.0" r="8" />
<circle cx="48.1" cy="302.9" r="8" />
<circle cx="50.4" cy="274.4" r="8" />
<circle cx="100.1" cy="252.0" r="8" />
<circle cx="136.5" cy="224.2" r="8" />
<circle cx="163.8" cy="198.3" r="8" />
<circle cx="203.1" cy="164.3" r="8" />
<circle cx="231.1" cy="133.1" r="8" />
<circle cx="296.1" cy="102.7" r="8" />
<circle cx="308.9" cy="80.3" r="8" />
<circle cx="323.5" cy="47.6" r="8" />
<circle cx="331.9" cy="21.2" r="8" />
<circle cx="377.6" cy="18.4" r="8" />
<circle cx="461.9" cy="12.0" r="8" />
<circle cx="541.4" cy="19.6" r="8" />
<circle cx="624.4" cy="27.0" r="8" />
<circle cx="701.7" cy="28.2" r="8" />
<circle cx="838.5" cy="36.4" r="8" />
<circle cx="948.5" cy="31.0" r="8" />
<circle cx="1012.0" cy="30.4" r="8" />
<style>
circle {
fill: white;
stroke: #000000;
stroke-width: 4;
}
path {
fill: none;
stroke: #000000;
stroke-width: 8;
}</style>
</svg>