<svg width="1024.0" height="356.0" xmlns="http://www.w3.org/2000/svg">
<path d="M1012.0 344.0354309633573 L976.6 308.6 L884.6 308.6 L854.0 308.6 L800.4 255.0 L765.9 220.5 L710.9 220.5 L666.7 220.5 L650.2 203.9 L624.8 178.5 L555.0 178.5 L452.2 178.5 L425.4 151.7 L422.0 148.3 L344.1 148.3 L313.9 118.2 L313.9 97.8 L212.9 97.8 L211.4 99.3 L210.2 100.5 L120.5 100.5 L40.7 100.5 L34.8 94.6 L12.0 71.8 L12.0 12.0 " />
<circle cx="1012.0" cy="344.0" r="8" />
<circle cx="884.6" cy="308.6" r="8" />
<circle cx="800.4" cy="255.0" r="8" />
<circle cx="710.9" cy="220.5" r="8" />
<circle cx="650.2" cy="203.9" r="8" />
<circle cx="555.0" cy="178.5" r="8" />
<circle cx="425.4" cy="151.7" r="8" />
<circle cx="344.1" cy="148.3" r="8" />
<circle cx="313.9" cy="97.8" r="8" />
<circle cx="211.4" cy="99.3" r="8" />
<circle cx="120.5" cy="100.5" r="8" />
<circle cx="34.8" cy="94.6" r="8" />
<circle cx="12.0" cy="12.0" r="8" />
<style>
circle {
fill: white;
stroke: #525252;
stroke-width: 4;
}
path {
fill: none;
stroke: #525252;
stroke-width: 8;
}</style>
</svg>