<svg width="1024.0" height="773.8" xmlns="http://www.w3.org/2000/svg">
<path d="M1012.0 226.5 L931.7 146.3 L798.3 146.3 L709.8 146.3 L688.0 124.5 L677.1 135.4 L677.1 237.5 L567.7 237.5 L546.6 258.6 L495.1 310.1 L398.2 310.1 L394.2 310.1 L303.2 401.1 L189.4 514.9 L189.4 597.0 L189.4 635.8 L207.3 653.7 L149.6 711.4 L149.6 761.8 L49.8 761.8 L12.0 724.1 L146.4 589.7 L146.4 582.3 L180.3 582.3 L750.6 12.0 L824.8 86.2 L985.4 86.2 " />
<circle cx="1012.0" cy="226.5" r="8" />
<circle cx="798.3" cy="146.3" r="8" />
<circle cx="688.0" cy="124.5" r="8" />
<circle cx="677.1" cy="237.5" r="8" />
<circle cx="546.6" cy="258.6" r="8" />
<circle cx="398.2" cy="310.1" r="8" />
<circle cx="303.2" cy="401.1" r="8" />
<circle cx="189.4" cy="597.0" r="8" />
<circle cx="207.3" cy="653.7" r="8" />
<circle cx="149.6" cy="761.8" r="8" />
<circle cx="12.0" cy="724.1" r="8" />
<circle cx="146.4" cy="582.3" r="8" />
<circle cx="750.6" cy="12.0" r="8" />
<circle cx="985.4" cy="86.2" r="8" />
<style>
circle {
fill: white;
stroke: #525252;
stroke-width: 4;
}
path {
fill: none;
stroke: #525252;
stroke-width: 8;
}</style>
</svg>