<svg width="1024.0" height="345.5" xmlns="http://www.w3.org/2000/svg">
<path d="M12.0 286.26154772993533 L16.6 281.7 L47.6 281.7 L148.6 281.7 L149.3 281.0 L155.8 274.5 L305.6 274.5 L454.9 274.5 L467.7 287.3 L513.9 333.5 L636.9 333.5 L636.9 308.3 L656.5 288.7 L661.6 283.6 L661.6 220.5 L684.3 243.2 L705.3 243.2 L796.0 243.2 L904.0 135.3 L913.9 125.4 L913.9 100.8 L913.9 94.7 L901.3 82.1 L937.1 82.1 L979.0 40.2 L1007.2 12.0 L1012.0 12.0 " />
<circle cx="12.0" cy="286.3" r="8" />
<circle cx="47.6" cy="281.7" r="8" />
<circle cx="149.3" cy="281.0" r="8" />
<circle cx="305.6" cy="274.5" r="8" />
<circle cx="467.7" cy="287.3" r="8" />
<circle cx="636.9" cy="333.5" r="8" />
<circle cx="656.5" cy="288.7" r="8" />
<circle cx="661.6" cy="220.5" r="8" />
<circle cx="705.3" cy="243.2" r="8" />
<circle cx="904.0" cy="135.3" r="8" />
<circle cx="913.9" cy="100.8" r="8" />
<circle cx="901.3" cy="82.1" r="8" />
<circle cx="979.0" cy="40.2" r="8" />
<circle cx="1012.0" cy="12.0" r="8" />
<style>
circle {
fill: white;
stroke: #525252;
stroke-width: 4;
}
path {
fill: none;
stroke: #525252;
stroke-width: 8;
}</style>
</svg>