<svg width="1024.0" height="302.4" xmlns="http://www.w3.org/2000/svg">
<path d="M12.0 12.0 L134.4 12.0 L137.3 14.9 L139.7 17.2 L232.6 17.2 L287.8 17.2 L290.2 19.6 L309.2 38.6 L381.9 38.6 L431.4 38.6 L449.3 56.6 L461.1 68.3 L492.3 68.3 L531.3 68.3 L555.7 92.7 L593.7 130.7 L615.3 130.7 L628.6 130.7 L646.4 148.5 L653.7 155.8 L705.6 155.8 L777.0 155.8 L788.1 166.9 L802.0 180.8 L842.6 180.8 L895.2 180.8 L913.8 199.4 L913.8 211.9 L894.7 231.0 L901.0 237.3 L953.8 237.3 L987.1 237.3 L991.9 242.2 L1012.0 262.2 L1012.0 290.4 " />
<circle cx="12.0" cy="12.0" r="8" />
<circle cx="137.3" cy="14.9" r="8" />
<circle cx="232.6" cy="17.2" r="8" />
<circle cx="290.2" cy="19.6" r="8" />
<circle cx="381.9" cy="38.6" r="8" />
<circle cx="449.3" cy="56.6" r="8" />
<circle cx="492.3" cy="68.3" r="8" />
<circle cx="555.7" cy="92.7" r="8" />
<circle cx="615.3" cy="130.7" r="8" />
<circle cx="646.4" cy="148.5" r="8" />
<circle cx="705.6" cy="155.8" r="8" />
<circle cx="788.1" cy="166.9" r="8" />
<circle cx="842.6" cy="180.8" r="8" />
<circle cx="913.8" cy="199.4" r="8" />
<circle cx="894.7" cy="231.0" r="8" />
<circle cx="953.8" cy="237.3" r="8" />
<circle cx="991.9" cy="242.2" r="8" />
<circle cx="1012.0" cy="290.4" r="8" />
<style>
circle {
fill: white;
stroke: #000000;
stroke-width: 4;
}
path {
fill: none;
stroke: #000000;
stroke-width: 8;
}</style>
</svg>