<svg width="1024.0" height="335.7" xmlns="http://www.w3.org/2000/svg">
<path d="M1012.0000000000001 323.6894286790676 L991.9 303.6 L991.9 275.4 L958.6 275.4 L953.7 270.6 L947.4 264.2 L894.5 264.2 L894.5 251.7 L913.6 232.6 L895.0 213.9 L842.3 213.9 L801.6 213.9 L787.8 200.1 L776.6 188.9 L705.1 188.9 L639.8 188.9 L614.7 163.8 L576.7 125.7 L555.0 125.7 L516.0 125.7 L491.5 101.3 L479.8 89.5 L448.4 89.5 L398.9 89.5 L380.9 71.5 L361.9 52.5 L289.0 52.5 L233.7 52.5 L231.4 50.1 L210.0 28.7 L210.0 14.3 L138.3 14.3 L137.3 15.3 L136.4 16.2 L72.8 16.2 L16.2 16.2 L12.0 12.0 L12.0 42.2 L16.3 46.6 " />
<circle cx="1012.0" cy="323.7" r="8" />
<circle cx="991.9" cy="275.4" r="8" />
<circle cx="953.7" cy="270.6" r="8" />
<circle cx="894.5" cy="264.2" r="8" />
<circle cx="913.6" cy="232.6" r="8" />
<circle cx="842.3" cy="213.9" r="8" />
<circle cx="787.8" cy="200.1" r="8" />
<circle cx="705.1" cy="188.9" r="8" />
<circle cx="614.7" cy="163.8" r="8" />
<circle cx="555.0" cy="125.7" r="8" />
<circle cx="491.5" cy="101.3" r="8" />
<circle cx="448.4" cy="89.5" r="8" />
<circle cx="380.9" cy="71.5" r="8" />
<circle cx="289.0" cy="52.5" r="8" />
<circle cx="231.4" cy="50.1" r="8" />
<circle cx="210.0" cy="14.3" r="8" />
<circle cx="137.3" cy="15.3" r="8" />
<circle cx="72.8" cy="16.2" r="8" />
<circle cx="12.0" cy="12.0" r="8" />
<circle cx="16.3" cy="46.6" r="8" />
<style>
circle {
fill: white;
stroke: #000000;
stroke-width: 4;
}
path {
fill: none;
stroke: #000000;
stroke-width: 8;
}</style>
</svg>