<svg width="1024.0" height="335.2" xmlns="http://www.w3.org/2000/svg">
<path d="M1011.9999999999999 323.1871546136576 L1012.0 295.1 L991.9 275.0 L987.1 270.1 L953.8 270.1 L901.0 270.1 L894.7 263.8 L894.7 251.3 L913.8 232.2 L861.2 232.2 L842.6 213.6 L828.7 199.8 L788.1 199.8 L716.7 199.8 L705.6 188.6 L680.5 163.5 L615.3 163.5 L593.7 163.5 L555.7 125.6 L531.3 101.1 L492.3 101.1 L461.1 101.1 L449.3 89.4 L431.4 71.4 L381.9 71.4 L309.2 71.4 L290.2 52.4 L287.8 50.0 L232.6 50.0 L232.6 35.6 L211.3 14.3 L210.2 15.3 L138.7 15.3 L75.1 15.3 L74.3 16.2 L17.8 16.2 L13.6 12.0 L13.6 43.2 L12.0 44.8 " />
<circle cx="1012.0" cy="323.2" r="8" />
<circle cx="991.9" cy="275.0" r="8" />
<circle cx="953.8" cy="270.1" r="8" />
<circle cx="894.7" cy="263.8" r="8" />
<circle cx="913.8" cy="232.2" r="8" />
<circle cx="842.6" cy="213.6" r="8" />
<circle cx="788.1" cy="199.8" r="8" />
<circle cx="705.6" cy="188.6" r="8" />
<circle cx="615.3" cy="163.5" r="8" />
<circle cx="555.7" cy="125.6" r="8" />
<circle cx="492.3" cy="101.1" r="8" />
<circle cx="449.3" cy="89.4" r="8" />
<circle cx="381.9" cy="71.4" r="8" />
<circle cx="290.2" cy="52.4" r="8" />
<circle cx="232.6" cy="50.0" r="8" />
<circle cx="211.3" cy="14.3" r="8" />
<circle cx="138.7" cy="15.3" r="8" />
<circle cx="74.3" cy="16.2" r="8" />
<circle cx="13.6" cy="12.0" r="8" />
<circle cx="12.0" cy="44.8" r="8" />
<style>
circle {
fill: white;
stroke: #000000;
stroke-width: 4;
}
path {
fill: none;
stroke: #000000;
stroke-width: 8;
}</style>
</svg>