<svg width="1024.0" height="414.3" xmlns="http://www.w3.org/2000/svg">
<path d="M144.5234957907684 12.0 L85.3 71.2 L12.0 71.2 L53.9 113.1 L115.4 113.1 L184.7 113.1 L201.9 130.3 L227.2 155.6 L227.9 155.6 L227.9 177.0 L265.2 214.3 L300.3 249.5 L329.7 249.5 L373.8 249.5 L402.8 278.5 L424.6 256.7 L431.4 256.7 L436.2 256.7 L494.6 198.2 L495.9 199.5 L555.3 199.5 L675.7 199.5 L681.4 205.1 L698.5 222.3 L739.0 222.3 L739.0 248.6 L778.9 288.4 L819.4 329.0 L819.4 388.9 L878.1 388.9 L891.6 402.3 L893.0 400.9 L998.2 400.9 L998.2 383.2 L1012.0 369.4 L998.7 356.1 L998.7 344.6 " />
<circle cx="144.5" cy="12.0" r="8" />
<circle cx="12.0" cy="71.2" r="8" />
<circle cx="115.4" cy="113.1" r="8" />
<circle cx="201.9" cy="130.3" r="8" />
<circle cx="227.9" cy="155.6" r="8" />
<circle cx="265.2" cy="214.3" r="8" />
<circle cx="329.7" cy="249.5" r="8" />
<circle cx="402.8" cy="278.5" r="8" />
<circle cx="431.4" cy="256.7" r="8" />
<circle cx="494.6" cy="198.2" r="8" />
<circle cx="555.3" cy="199.5" r="8" />
<circle cx="681.4" cy="205.1" r="8" />
<circle cx="739.0" cy="222.3" r="8" />
<circle cx="778.9" cy="288.4" r="8" />
<circle cx="819.4" cy="388.9" r="8" />
<circle cx="891.6" cy="402.3" r="8" />
<circle cx="998.2" cy="400.9" r="8" />
<circle cx="1012.0" cy="369.4" r="8" />
<circle cx="998.7" cy="344.6" r="8" />
<style>
circle {
fill: white;
stroke: #525252;
stroke-width: 4;
}
path {
fill: none;
stroke: #525252;
stroke-width: 8;
}</style>
</svg>