<svg width="1024.0" height="414.3" xmlns="http://www.w3.org/2000/svg">
<path d="M998.7234826653067 344.59158534103756 L1012.0 357.9 L1012.0 369.4 L1012.0 387.2 L998.2 400.9 L996.8 402.3 L891.6 402.3 L832.8 402.3 L819.4 388.9 L819.4 350.2 L826.3 343.3 L826.3 335.9 L778.9 288.4 L739.0 248.6 L739.0 222.3 L721.8 205.1 L681.4 205.1 L560.9 205.1 L555.3 199.5 L554.0 198.2 L494.6 198.2 L494.6 198.2 L465.4 227.4 L414.4 278.5 L402.8 278.5 L358.7 278.5 L329.7 249.5 L294.6 214.3 L265.2 214.3 L265.2 192.8 L227.9 155.6 L202.6 130.3 L201.9 130.3 L132.5 130.3 L115.4 113.1 L73.5 71.2 L12.0 71.2 L68.5 71.2 L86.0 53.7 L95.1 44.5 L147.8 44.5 L147.8 15.3 L144.5 12.0 " />
<circle cx="998.7" cy="344.6" r="8" />
<circle cx="1012.0" cy="369.4" r="8" />
<circle cx="998.2" cy="400.9" r="8" />
<circle cx="891.6" cy="402.3" r="8" />
<circle cx="819.4" cy="388.9" r="8" />
<circle cx="826.3" cy="343.3" r="8" />
<circle cx="778.9" cy="288.4" r="8" />
<circle cx="739.0" cy="222.3" r="8" />
<circle cx="681.4" cy="205.1" r="8" />
<circle cx="555.3" cy="199.5" r="8" />
<circle cx="494.6" cy="198.2" r="8" />
<circle cx="465.4" cy="227.4" r="8" />
<circle cx="402.8" cy="278.5" r="8" />
<circle cx="329.7" cy="249.5" r="8" />
<circle cx="265.2" cy="214.3" r="8" />
<circle cx="227.9" cy="155.6" r="8" />
<circle cx="201.9" cy="130.3" r="8" />
<circle cx="115.4" cy="113.1" r="8" />
<circle cx="12.0" cy="71.2" r="8" />
<circle cx="86.0" cy="53.7" r="8" />
<circle cx="147.8" cy="44.5" r="8" />
<circle cx="144.5" cy="12.0" r="8" />
<style>
circle {
fill: white;
stroke: #525252;
stroke-width: 4;
}
path {
fill: none;
stroke: #525252;
stroke-width: 8;
}</style>
</svg>