<svg width="319.8" height="1024.0" xmlns="http://www.w3.org/2000/svg">
<path d="M50.231015472590386 12.0 L50.2 37.2 L76.9 63.9 L99.6 86.6 L124.2 86.6 L130.9 86.6 L134.3 90.0 L147.7 76.5 L219.1 76.5 L175.8 119.7 L175.8 143.3 L175.8 225.5 L141.2 260.1 L212.9 260.1 L214.5 258.5 L214.5 283.3 L226.1 294.9 L165.0 294.9 L159.1 300.7 L148.3 311.5 L148.3 356.3 L148.3 384.7 L154.2 390.6 L162.8 399.2 L162.8 476.1 L162.8 510.0 L167.6 514.8 L172.9 520.1 L172.9 556.2 L172.9 595.4 L177.1 599.6 L194.4 616.9 L194.4 627.7 L196.8 625.4 L256.1 625.4 L304.4 625.4 L307.8 628.8 L288.2 648.4 L288.2 671.7 L276.0 671.7 L270.6 677.2 L259.3 688.5 L259.3 710.1 L259.3 736.2 L262.5 739.5 L249.7 752.3 L249.7 756.7 L215.1 756.7 L206.8 748.3 L191.7 763.4 L191.7 805.3 L191.7 822.0 L178.1 835.6 L171.5 842.2 L171.5 862.9 L171.5 888.3 L162.6 897.3 L147.4 912.5 L147.4 924.6 L116.9 924.6 L106.3 935.3 L96.6 945.0 L73.0 945.0 L57.2 945.0 L35.0 967.2 L20.4 981.7 L20.4 983.0 L20.4 1003.6 L12.0 1012.0 " />
<circle cx="50.2" cy="12.0" r="8" />
<circle cx="76.9" cy="63.9" r="8" />
<circle cx="124.2" cy="86.6" r="8" />
<circle cx="134.3" cy="90.0" r="8" />
<circle cx="219.1" cy="76.5" r="8" />
<circle cx="175.8" cy="143.3" r="8" />
<circle cx="141.2" cy="260.1" r="8" />
<circle cx="214.5" cy="258.5" r="8" />
<circle cx="226.1" cy="294.9" r="8" />
<circle cx="159.1" cy="300.7" r="8" />
<circle cx="148.3" cy="356.3" r="8" />
<circle cx="154.2" cy="390.6" r="8" />
<circle cx="162.8" cy="476.1" r="8" />
<circle cx="167.6" cy="514.8" r="8" />
<circle cx="172.9" cy="556.2" r="8" />
<circle cx="177.1" cy="599.6" r="8" />
<circle cx="194.4" cy="627.7" r="8" />
<circle cx="256.1" cy="625.4" r="8" />
<circle cx="307.8" cy="628.8" r="8" />
<circle cx="288.2" cy="671.7" r="8" />
<circle cx="270.6" cy="677.2" r="8" />
<circle cx="259.3" cy="710.1" r="8" />
<circle cx="262.5" cy="739.5" r="8" />
<circle cx="249.7" cy="756.7" r="8" />
<circle cx="206.8" cy="748.3" r="8" />
<circle cx="191.7" cy="805.3" r="8" />
<circle cx="178.1" cy="835.6" r="8" />
<circle cx="171.5" cy="862.9" r="8" />
<circle cx="162.6" cy="897.3" r="8" />
<circle cx="147.4" cy="924.6" r="8" />
<circle cx="106.3" cy="935.3" r="8" />
<circle cx="73.0" cy="945.0" r="8" />
<circle cx="35.0" cy="967.2" r="8" />
<circle cx="20.4" cy="983.0" r="8" />
<circle cx="12.0" cy="1012.0" r="8" />
<style>
circle {
fill: white;
stroke: #525252;
stroke-width: 4;
}
path {
fill: none;
stroke: #525252;
stroke-width: 8;
}</style>
</svg>