<svg width="340.2" height="1024.0" xmlns="http://www.w3.org/2000/svg">
<path d="M12.0 1012.0 L12.0 990.0 L21.0 981.0 L36.6 965.4 L36.6 964.1 L60.3 940.3 L77.2 940.3 L102.4 940.3 L112.8 930.0 L124.2 918.6 L156.7 918.6 L173.0 902.3 L173.0 889.4 L173.0 862.2 L182.5 852.6 L189.6 845.5 L189.6 823.4 L189.6 805.5 L204.1 791.0 L220.2 774.9 L220.2 730.1 L257.1 730.1 L266.1 739.1 L279.8 725.4 L279.8 720.7 L279.8 692.7 L276.3 689.2 L276.3 679.2 L307.3 648.3 L328.2 627.3 L328.2 602.4 L324.6 598.7 L273.0 598.7 L209.5 598.7 L207.0 601.2 L207.0 589.7 L188.5 571.2 L184.0 566.7 L184.0 524.7 L184.0 486.1 L178.3 480.5 L173.1 475.3 L173.1 439.6 L173.1 356.8 L164.1 347.8 L157.8 341.5 L157.8 311.0 L157.8 263.2 L169.3 251.7 L175.6 245.4 L240.8 245.4 L240.8 218.9 L228.5 206.5 L226.7 208.2 L150.1 208.2 L187.1 171.2 L187.1 83.4 L187.1 58.2 L233.3 12.0 L219.0 26.4 L142.7 26.4 L86.1 26.4 L80.9 21.2 " />
<circle cx="12.0" cy="1012.0" r="8" />
<circle cx="21.0" cy="981.0" r="8" />
<circle cx="36.6" cy="964.1" r="8" />
<circle cx="77.2" cy="940.3" r="8" />
<circle cx="112.8" cy="930.0" r="8" />
<circle cx="156.7" cy="918.6" r="8" />
<circle cx="173.0" cy="889.4" r="8" />
<circle cx="182.5" cy="852.6" r="8" />
<circle cx="189.6" cy="823.4" r="8" />
<circle cx="204.1" cy="791.0" r="8" />
<circle cx="220.2" cy="730.1" r="8" />
<circle cx="266.1" cy="739.1" r="8" />
<circle cx="279.8" cy="720.7" r="8" />
<circle cx="276.3" cy="689.2" r="8" />
<circle cx="307.3" cy="648.3" r="8" />
<circle cx="328.2" cy="602.4" r="8" />
<circle cx="273.0" cy="598.7" r="8" />
<circle cx="207.0" cy="601.2" r="8" />
<circle cx="188.5" cy="571.2" r="8" />
<circle cx="184.0" cy="524.7" r="8" />
<circle cx="178.3" cy="480.5" r="8" />
<circle cx="173.1" cy="439.6" r="8" />
<circle cx="164.1" cy="347.8" r="8" />
<circle cx="157.8" cy="311.0" r="8" />
<circle cx="169.3" cy="251.7" r="8" />
<circle cx="240.8" cy="245.4" r="8" />
<circle cx="228.5" cy="206.5" r="8" />
<circle cx="150.1" cy="208.2" r="8" />
<circle cx="187.1" cy="83.4" r="8" />
<circle cx="233.3" cy="12.0" r="8" />
<circle cx="142.7" cy="26.4" r="8" />
<circle cx="80.9" cy="21.2" r="8" />
<style>
circle {
fill: white;
stroke: #525252;
stroke-width: 4;
}
path {
fill: none;
stroke: #525252;
stroke-width: 8;
}</style>
</svg>