<svg width="1024.0" height="364.9" xmlns="http://www.w3.org/2000/svg">
<path d="M29.57940686415382 352.90245580354446 L12.0 335.3 L12.0 323.0 L55.2 323.0 L64.2 314.1 L66.8 311.4 L123.8 311.4 L264.6 311.4 L268.1 307.9 L342.0 234.0 L480.2 234.0 L480.2 227.2 L499.8 207.6 L536.9 170.4 L536.9 168.7 L536.9 122.3 L544.5 114.8 L558.9 100.3 L558.9 96.6 L558.9 87.0 L595.5 50.4 L632.5 13.4 L642.9 13.4 L680.1 13.4 L696.7 30.0 L732.2 65.5 L810.0 65.5 L831.8 65.5 L844.1 77.8 L857.4 64.6 L908.6 64.6 L930.1 64.6 L952.5 42.1 L982.6 12.0 L1012.0 12.0 " />
<circle cx="29.6" cy="352.9" r="8" />
<circle cx="12.0" cy="323.0" r="8" />
<circle cx="64.2" cy="314.1" r="8" />
<circle cx="123.8" cy="311.4" r="8" />
<circle cx="268.1" cy="307.9" r="8" />
<circle cx="480.2" cy="234.0" r="8" />
<circle cx="499.8" cy="207.6" r="8" />
<circle cx="536.9" cy="168.7" r="8" />
<circle cx="544.5" cy="114.8" r="8" />
<circle cx="558.9" cy="96.6" r="8" />
<circle cx="595.5" cy="50.4" r="8" />
<circle cx="642.9" cy="13.4" r="8" />
<circle cx="696.7" cy="30.0" r="8" />
<circle cx="810.0" cy="65.5" r="8" />
<circle cx="844.1" cy="77.8" r="8" />
<circle cx="908.6" cy="64.6" r="8" />
<circle cx="952.5" cy="42.1" r="8" />
<circle cx="1012.0" cy="12.0" r="8" />
<style>
circle {
fill: white;
stroke: black;
stroke-width: 4;
}
path {
fill: none;
stroke: #FFFFFF;
stroke-width: 8;
}</style>
</svg>