<svg width="1024.0" height="364.9" xmlns="http://www.w3.org/2000/svg">
<path d="M1012.0 12.0 L981.9 42.1 L952.5 42.1 L931.1 42.1 L908.6 64.6 L895.3 77.8 L844.1 77.8 L822.3 77.8 L810.0 65.5 L774.4 30.0 L696.7 30.0 L659.5 30.0 L642.9 13.4 L605.9 50.4 L595.5 50.4 L558.9 87.0 L558.9 96.6 L558.9 100.3 L544.5 114.8 L536.9 122.3 L536.9 168.7 L536.9 170.4 L499.8 207.6 L480.2 227.2 L480.2 234.0 L406.3 307.9 L268.1 307.9 L127.4 307.9 L123.8 311.4 L121.2 314.1 L64.2 314.1 L21.0 314.1 L12.0 323.0 L12.0 335.3 L29.6 352.9 " />
<circle cx="1012.0" cy="12.0" r="8" />
<circle cx="952.5" cy="42.1" r="8" />
<circle cx="908.6" cy="64.6" r="8" />
<circle cx="844.1" cy="77.8" r="8" />
<circle cx="810.0" cy="65.5" r="8" />
<circle cx="696.7" cy="30.0" r="8" />
<circle cx="642.9" cy="13.4" r="8" />
<circle cx="595.5" cy="50.4" r="8" />
<circle cx="558.9" cy="96.6" r="8" />
<circle cx="544.5" cy="114.8" r="8" />
<circle cx="536.9" cy="168.7" r="8" />
<circle cx="499.8" cy="207.6" r="8" />
<circle cx="480.2" cy="234.0" r="8" />
<circle cx="268.1" cy="307.9" r="8" />
<circle cx="123.8" cy="311.4" r="8" />
<circle cx="64.2" cy="314.1" r="8" />
<circle cx="12.0" cy="323.0" r="8" />
<circle cx="29.6" cy="352.9" r="8" />
<style>
circle {
fill: white;
stroke: black;
stroke-width: 4;
}
path {
fill: none;
stroke: #FFFFFF;
stroke-width: 8;
}</style>
</svg>