<svg width="1024.0" height="505.0" xmlns="http://www.w3.org/2000/svg">
<path d="M1012.0 22.1 L1001.9 12.0 L899.6 12.0 L899.6 19.0 L885.2 33.5 L848.4 70.2 L848.4 80.8 L848.4 121.3 L830.5 139.3 L808.3 161.4 L808.3 217.0 L806.3 217.0 L779.3 244.0 L756.4 266.9 L697.3 266.9 L622.8 266.9 L538.7 351.0 L516.0 373.8 L486.2 373.8 L410.4 373.8 L382.8 401.3 L360.8 423.4 L309.3 423.4 L225.1 423.4 L204.3 444.1 L189.5 458.9 L124.9 458.9 L73.3 458.9 L39.3 493.0 L12.0 465.7 L12.0 451.6 " />
<circle cx="1012.0" cy="22.1" r="8" />
<circle cx="899.6" cy="12.0" r="8" />
<circle cx="885.2" cy="33.5" r="8" />
<circle cx="848.4" cy="80.8" r="8" />
<circle cx="830.5" cy="139.3" r="8" />
<circle cx="808.3" cy="217.0" r="8" />
<circle cx="779.3" cy="244.0" r="8" />
<circle cx="697.3" cy="266.9" r="8" />
<circle cx="538.7" cy="351.0" r="8" />
<circle cx="486.2" cy="373.8" r="8" />
<circle cx="382.8" cy="401.3" r="8" />
<circle cx="309.3" cy="423.4" r="8" />
<circle cx="204.3" cy="444.1" r="8" />
<circle cx="124.9" cy="458.9" r="8" />
<circle cx="39.3" cy="493.0" r="8" />
<circle cx="12.0" cy="451.6" r="8" />
<style>
circle {
fill: white;
stroke: #525252;
stroke-width: 4;
}
path {
fill: none;
stroke: #525252;
stroke-width: 8;
}</style>
</svg>