<svg width="1024.0" height="188.2" xmlns="http://www.w3.org/2000/svg">
<path d="M849.2225052821825 33.15426426222544 L851.1 31.3 L863.7 31.3 L904.8 31.3 L905.1 31.0 L907.8 28.4 L968.7 28.4 L999.7 28.4 L1012.0 40.6 L1003.8 48.8 L1003.8 54.7 L1001.6 54.7 L989.5 66.8 L980.1 76.2 L980.1 85.8 L980.1 102.2 L962.2 120.1 L943.4 138.9 L933.9 138.9 L928.5 138.9 L891.2 176.2 L875.1 160.1 L872.1 160.1 L851.5 139.5 L851.5 135.5 L841.3 135.5 L832.5 126.7 L829.0 123.2 L801.1 123.2 L790.1 123.2 L778.4 134.9 L772.4 128.9 L766.0 128.9 L752.5 128.9 L745.1 121.5 L730.5 121.5 L720.3 131.7 L701.6 150.4 L701.6 157.6 L698.3 157.6 L677.9 137.3 L662.6 121.9 L645.3 121.9 L633.2 109.8 L633.2 102.8 L614.7 102.8 L609.4 97.4 L597.5 85.6 L560.7 85.6 L524.5 85.6 L521.4 82.5 L508.0 69.1 L456.3 69.1 L456.3 63.2 L467.9 51.7 L472.9 46.6 L472.9 42.4 L465.1 42.4 L450.5 27.8 L445.6 32.7 L445.6 43.2 L442.9 43.2 L436.9 49.2 L429.0 41.3 L378.0 41.3 L346.4 41.3 L341.3 36.2 L336.3 31.2 L305.1 31.2 L276.9 31.2 L269.9 24.2 L256.9 37.1 L256.9 43.5 L256.9 59.9 L256.5 60.3 L256.4 60.3 L214.3 60.3 L214.3 48.2 L218.1 44.4 L223.0 39.5 L223.0 21.2 L202.6 21.2 L199.7 24.1 L197.6 22.0 L169.2 22.0 L133.3 22.0 L132.8 21.5 L128.0 21.5 L114.6 34.9 L106.5 42.9 L103.3 42.9 L84.1 42.9 L80.6 39.5 L71.5 30.4 L52.1 30.4 L43.1 21.4 L43.1 16.1 L16.1 16.1 L12.0 12.0 " />
<circle cx="849.2" cy="33.2" r="8" />
<circle cx="863.7" cy="31.3" r="8" />
<circle cx="905.1" cy="31.0" r="8" />
<circle cx="968.7" cy="28.4" r="8" />
<circle cx="1012.0" cy="40.6" r="8" />
<circle cx="1003.8" cy="54.7" r="8" />
<circle cx="989.5" cy="66.8" r="8" />
<circle cx="980.1" cy="85.8" r="8" />
<circle cx="962.2" cy="120.1" r="8" />
<circle cx="933.9" cy="138.9" r="8" />
<circle cx="891.2" cy="176.2" r="8" />
<circle cx="872.1" cy="160.1" r="8" />
<circle cx="851.5" cy="135.5" r="8" />
<circle cx="832.5" cy="126.7" r="8" />
<circle cx="801.1" cy="123.2" r="8" />
<circle cx="778.4" cy="134.9" r="8" />
<circle cx="766.0" cy="128.9" r="8" />
<circle cx="745.1" cy="121.5" r="8" />
<circle cx="720.3" cy="131.7" r="8" />
<circle cx="701.6" cy="157.6" r="8" />
<circle cx="677.9" cy="137.3" r="8" />
<circle cx="645.3" cy="121.9" r="8" />
<circle cx="633.2" cy="102.8" r="8" />
<circle cx="609.4" cy="97.4" r="8" />
<circle cx="560.7" cy="85.6" r="8" />
<circle cx="521.4" cy="82.5" r="8" />
<circle cx="456.3" cy="69.1" r="8" />
<circle cx="467.9" cy="51.7" r="8" />
<circle cx="472.9" cy="42.4" r="8" />
<circle cx="450.5" cy="27.8" r="8" />
<circle cx="445.6" cy="43.2" r="8" />
<circle cx="436.9" cy="49.2" r="8" />
<circle cx="378.0" cy="41.3" r="8" />
<circle cx="341.3" cy="36.2" r="8" />
<circle cx="305.1" cy="31.2" r="8" />
<circle cx="269.9" cy="24.2" r="8" />
<circle cx="256.9" cy="43.5" r="8" />
<circle cx="256.5" cy="60.3" r="8" />
<circle cx="214.3" cy="60.3" r="8" />
<circle cx="218.1" cy="44.4" r="8" />
<circle cx="223.0" cy="21.2" r="8" />
<circle cx="199.7" cy="24.1" r="8" />
<circle cx="169.2" cy="22.0" r="8" />
<circle cx="132.8" cy="21.5" r="8" />
<circle cx="114.6" cy="34.9" r="8" />
<circle cx="103.3" cy="42.9" r="8" />
<circle cx="80.6" cy="39.5" r="8" />
<circle cx="52.1" cy="30.4" r="8" />
<circle cx="43.1" cy="16.1" r="8" />
<circle cx="12.0" cy="12.0" r="8" />
<style>
circle {
fill: white;
stroke: #000000;
stroke-width: 4;
}
path {
fill: none;
stroke: #000000;
stroke-width: 8;
}</style>
</svg>