<svg width="1024.0" height="181.7" xmlns="http://www.w3.org/2000/svg">
<path d="M51.638572281342974 12.0 L22.0 12.0 L12.0 22.0 L22.7 32.7 L33.2 32.7 L56.2 32.7 L67.2 21.8 L82.3 21.8 L90.2 29.7 L98.9 38.4 L117.5 38.4 L136.0 38.4 L139.3 41.7 L142.4 41.7 L150.2 33.9 L163.0 21.1 L167.6 21.1 L202.1 21.1 L202.6 21.6 L204.6 23.7 L231.9 23.7 L251.5 23.7 L254.3 20.9 L249.5 25.6 L249.5 43.1 L249.5 54.7 L245.9 58.4 L245.9 58.4 L286.4 58.4 L286.8 58.0 L286.8 42.2 L286.8 36.1 L299.3 23.7 L326.4 23.7 L333.2 30.5 L337.9 35.2 L367.8 35.2 L398.2 35.2 L403.2 40.2 L405.0 42.0 L468.0 42.0 L472.8 37.2 L472.8 27.2 L480.3 27.2 L494.3 41.2 L494.3 45.2 L489.4 50.1 L478.4 61.2 L478.4 66.8 L505.4 66.8 L507.3 64.9 L526.0 64.9 L540.9 79.7 L543.8 82.7 L578.6 82.7 L613.9 82.7 L625.3 94.0 L630.5 99.2 L648.2 99.2 L659.9 110.8 L659.9 117.6 L674.6 132.3 L691.2 132.3 L694.4 132.3 L713.9 151.8 L731.9 133.9 L731.9 126.9 L741.6 117.2 L755.7 117.2 L768.7 117.2 L775.7 124.2 L781.5 130.0 L787.7 130.0 L798.3 130.0 L809.5 118.8 L836.2 118.8 L839.7 122.2 L848.0 130.6 L857.8 130.6 L877.7 150.4 L877.7 154.3 L893.1 169.7 L896.0 169.7 L901.1 169.7 L937.0 133.9 L955.0 115.8 L964.2 115.8 L981.4 98.6 L981.4 82.9 L981.4 73.6 L990.4 64.6 L1002.0 53.0 L1004.1 53.0 L1012.0 45.1 L1012.0 39.5 L1002.8 30.2 L909.4 30.2 L869.9 30.2 L869.6 30.5 L867.8 32.3 L855.7 32.3 " />
<circle cx="51.6" cy="12.0" r="8" />
<circle cx="12.0" cy="22.0" r="8" />
<circle cx="33.2" cy="32.7" r="8" />
<circle cx="67.2" cy="21.8" r="8" />
<circle cx="90.2" cy="29.7" r="8" />
<circle cx="117.5" cy="38.4" r="8" />
<circle cx="139.3" cy="41.7" r="8" />
<circle cx="150.2" cy="33.9" r="8" />
<circle cx="167.6" cy="21.1" r="8" />
<circle cx="202.6" cy="21.6" r="8" />
<circle cx="231.9" cy="23.7" r="8" />
<circle cx="254.3" cy="20.9" r="8" />
<circle cx="249.5" cy="43.1" r="8" />
<circle cx="245.9" cy="58.4" r="8" />
<circle cx="286.4" cy="58.4" r="8" />
<circle cx="286.8" cy="42.2" r="8" />
<circle cx="299.3" cy="23.7" r="8" />
<circle cx="333.2" cy="30.5" r="8" />
<circle cx="367.8" cy="35.2" r="8" />
<circle cx="403.2" cy="40.2" r="8" />
<circle cx="468.0" cy="42.0" r="8" />
<circle cx="472.8" cy="27.2" r="8" />
<circle cx="494.3" cy="41.2" r="8" />
<circle cx="489.4" cy="50.1" r="8" />
<circle cx="478.4" cy="66.8" r="8" />
<circle cx="507.3" cy="64.9" r="8" />
<circle cx="540.9" cy="79.7" r="8" />
<circle cx="578.6" cy="82.7" r="8" />
<circle cx="625.3" cy="94.0" r="8" />
<circle cx="648.2" cy="99.2" r="8" />
<circle cx="659.9" cy="117.6" r="8" />
<circle cx="691.2" cy="132.3" r="8" />
<circle cx="713.9" cy="151.8" r="8" />
<circle cx="731.9" cy="126.9" r="8" />
<circle cx="755.7" cy="117.2" r="8" />
<circle cx="775.7" cy="124.2" r="8" />
<circle cx="787.7" cy="130.0" r="8" />
<circle cx="809.5" cy="118.8" r="8" />
<circle cx="839.7" cy="122.2" r="8" />
<circle cx="857.8" cy="130.6" r="8" />
<circle cx="877.7" cy="154.3" r="8" />
<circle cx="896.0" cy="169.7" r="8" />
<circle cx="937.0" cy="133.9" r="8" />
<circle cx="964.2" cy="115.8" r="8" />
<circle cx="981.4" cy="82.9" r="8" />
<circle cx="990.4" cy="64.6" r="8" />
<circle cx="1004.1" cy="53.0" r="8" />
<circle cx="1012.0" cy="39.5" r="8" />
<circle cx="909.4" cy="30.2" r="8" />
<circle cx="869.6" cy="30.5" r="8" />
<circle cx="855.7" cy="32.3" r="8" />
<style>
circle {
fill: white;
stroke: #000000;
stroke-width: 4;
}
path {
fill: none;
stroke: #000000;
stroke-width: 8;
}</style>
</svg>