<svg width="1024.0" height="850.7" xmlns="http://www.w3.org/2000/svg">
<path d="M51.441212925484486 12.0 L51.4 50.9 L47.8 54.6 L38.8 63.5 L38.8 75.9 L38.8 117.7 L35.6 121.0 L27.5 129.1 L27.5 148.1 L27.5 185.2 L12.0 200.7 L46.4 166.3 L79.3 166.3 L134.1 166.3 L154.7 187.0 L166.0 198.2 L166.0 237.2 L187.9 259.2 L245.0 259.2 L308.3 259.2 L312.4 263.3 L347.8 298.6 L351.0 298.6 L373.2 320.8 L373.2 352.3 L547.2 526.3 L578.2 526.3 L627.3 526.3 L652.1 501.6 L685.5 501.6 L712.0 528.0 L757.7 573.7 L806.8 573.7 L838.0 573.7 L867.3 603.0 L891.4 627.1 L917.4 627.1 L964.1 627.1 L1012.0 675.0 L969.6 717.3 L951.3 717.3 L769.2 717.3 L707.3 655.4 L736.1 684.2 L736.1 709.9 L736.1 733.4 L765.4 762.7 L814.6 811.9 L814.6 817.9 L798.4 834.1 L764.5 834.1 L705.2 834.1 L700.6 838.7 L634.3 838.7 L621.8 826.2 L621.3 826.7 L576.4 826.7 L571.5 826.7 L548.8 804.0 L539.5 794.7 L539.5 783.1 L539.5 749.4 L510.8 720.7 L498.5 708.4 L498.5 679.2 L498.5 623.2 L486.4 611.1 L486.4 590.5 L518.0 558.8 L518.0 454.5 L396.0 332.5 L265.8 202.3 L196.7 202.3 L117.3 202.3 L56.5 141.5 L42.3 127.3 L42.3 98.8 " />
<circle cx="51.4" cy="12.0" r="8" />
<circle cx="47.8" cy="54.6" r="8" />
<circle cx="38.8" cy="75.9" r="8" />
<circle cx="35.6" cy="121.0" r="8" />
<circle cx="27.5" cy="148.1" r="8" />
<circle cx="12.0" cy="200.7" r="8" />
<circle cx="79.3" cy="166.3" r="8" />
<circle cx="154.7" cy="187.0" r="8" />
<circle cx="166.0" cy="237.2" r="8" />
<circle cx="245.0" cy="259.2" r="8" />
<circle cx="312.4" cy="263.3" r="8" />
<circle cx="351.0" cy="298.6" r="8" />
<circle cx="373.2" cy="352.3" r="8" />
<circle cx="578.2" cy="526.3" r="8" />
<circle cx="652.1" cy="501.6" r="8" />
<circle cx="712.0" cy="528.0" r="8" />
<circle cx="806.8" cy="573.7" r="8" />
<circle cx="867.3" cy="603.0" r="8" />
<circle cx="917.4" cy="627.1" r="8" />
<circle cx="1012.0" cy="675.0" r="8" />
<circle cx="951.3" cy="717.3" r="8" />
<circle cx="707.3" cy="655.4" r="8" />
<circle cx="736.1" cy="709.9" r="8" />
<circle cx="765.4" cy="762.7" r="8" />
<circle cx="814.6" cy="817.9" r="8" />
<circle cx="764.5" cy="834.1" r="8" />
<circle cx="700.6" cy="838.7" r="8" />
<circle cx="621.8" cy="826.2" r="8" />
<circle cx="576.4" cy="826.7" r="8" />
<circle cx="548.8" cy="804.0" r="8" />
<circle cx="539.5" cy="783.1" r="8" />
<circle cx="510.8" cy="720.7" r="8" />
<circle cx="498.5" cy="679.2" r="8" />
<circle cx="486.4" cy="611.1" r="8" />
<circle cx="518.0" cy="558.8" r="8" />
<circle cx="396.0" cy="332.5" r="8" />
<circle cx="196.7" cy="202.3" r="8" />
<circle cx="56.5" cy="141.5" r="8" />
<circle cx="42.3" cy="98.8" r="8" />
<style>
circle {
fill: white;
stroke: #000000;
stroke-width: 4;
}
path {
fill: none;
stroke: #000000;
stroke-width: 8;
}</style>
</svg>