<svg width="1024.0" height="346.2" xmlns="http://www.w3.org/2000/svg">
<path d="M12.0 12.0 L24.2 24.2 L31.8 24.2 L81.0 24.2 L142.2 85.4 L161.8 105.1 L166.7 105.1 L167.3 105.1 L179.3 117.1 L187.6 125.4 L188.7 125.4 L197.1 125.4 L210.3 138.6 L229.5 157.7 L238.4 157.7 L253.3 157.7 L260.1 164.6 L271.5 175.9 L283.5 175.9 L303.4 175.9 L309.2 181.7 L326.0 198.4 L371.8 198.4 L398.8 198.4 L408.3 207.9 L428.1 227.7 L482.7 227.7 L535.9 227.7 L560.6 252.4 L563.2 255.1 L585.0 255.1 L630.6 255.1 L645.3 269.8 L646.4 270.9 L691.3 270.9 L717.9 270.9 L723.8 276.9 L730.2 283.3 L766.6 283.3 L809.9 283.3 L811.0 284.3 L811.8 285.1 L844.7 285.1 L864.2 285.1 L865.0 286.0 L871.8 292.7 L897.5 292.7 L915.0 292.7 L921.4 299.1 L925.5 303.2 L936.6 303.2 L950.3 303.2 L959.0 311.8 L972.4 325.3 L980.1 325.3 L984.8 325.3 L991.1 331.6 L993.6 334.2 L1012.0 334.2 " />
<circle cx="12.0" cy="12.0" r="8" />
<circle cx="31.8" cy="24.2" r="8" />
<circle cx="142.2" cy="85.4" r="8" />
<circle cx="166.7" cy="105.1" r="8" />
<circle cx="179.3" cy="117.1" r="8" />
<circle cx="188.7" cy="125.4" r="8" />
<circle cx="210.3" cy="138.6" r="8" />
<circle cx="238.4" cy="157.7" r="8" />
<circle cx="260.1" cy="164.6" r="8" />
<circle cx="283.5" cy="175.9" r="8" />
<circle cx="309.2" cy="181.7" r="8" />
<circle cx="371.8" cy="198.4" r="8" />
<circle cx="408.3" cy="207.9" r="8" />
<circle cx="482.7" cy="227.7" r="8" />
<circle cx="560.6" cy="252.4" r="8" />
<circle cx="585.0" cy="255.1" r="8" />
<circle cx="645.3" cy="269.8" r="8" />
<circle cx="691.3" cy="270.9" r="8" />
<circle cx="723.8" cy="276.9" r="8" />
<circle cx="766.6" cy="283.3" r="8" />
<circle cx="811.0" cy="284.3" r="8" />
<circle cx="844.7" cy="285.1" r="8" />
<circle cx="865.0" cy="286.0" r="8" />
<circle cx="897.5" cy="292.7" r="8" />
<circle cx="921.4" cy="299.1" r="8" />
<circle cx="936.6" cy="303.2" r="8" />
<circle cx="959.0" cy="311.8" r="8" />
<circle cx="980.1" cy="325.3" r="8" />
<circle cx="991.1" cy="331.6" r="8" />
<circle cx="1012.0" cy="334.2" r="8" />
<style>
circle {
fill: white;
stroke: #525252;
stroke-width: 4;
}
path {
fill: none;
stroke: #525252;
stroke-width: 8;
}</style>
</svg>