<svg width="1024.0" height="463.7" xmlns="http://www.w3.org/2000/svg">
<path d="M12.0 313.8 L38.6 287.2 L70.8 287.2 L81.1 287.2 L114.0 254.3 L144.7 223.6 L146.3 223.6 L152.6 223.6 L192.8 183.4 L225.9 150.3 L225.9 146.4 L267.0 146.4 L303.0 110.4 L316.4 97.0 L356.0 97.0 L356.0 86.6 L380.4 62.2 L390.6 52.0 L390.6 43.4 L393.4 46.2 L422.1 46.2 L430.9 46.2 L451.0 26.1 L458.6 18.5 L521.1 18.5 L586.9 18.5 L593.4 12.0 L602.3 20.8 L691.7 20.8 L781.8 20.8 L783.3 22.3 L762.9 42.6 L762.9 86.7 L762.9 112.7 L743.5 132.1 L818.9 132.1 L843.2 156.5 L866.7 179.9 L882.3 179.9 L917.1 179.9 L940.4 203.2 L971.9 234.7 L1012.0 234.7 L980.7 266.0 L977.8 266.0 L942.0 266.0 L913.6 294.3 L885.0 322.9 L878.2 322.9 L851.3 322.9 L835.5 338.7 L812.5 361.8 L772.0 361.8 L683.2 361.8 L645.7 324.2 L614.1 355.8 L614.1 366.9 L610.5 366.9 L557.4 420.0 L528.2 449.2 L528.2 451.7 " />
<circle cx="12.0" cy="313.8" r="8" />
<circle cx="70.8" cy="287.2" r="8" />
<circle cx="114.0" cy="254.3" r="8" />
<circle cx="146.3" cy="223.6" r="8" />
<circle cx="192.8" cy="183.4" r="8" />
<circle cx="225.9" cy="146.4" r="8" />
<circle cx="303.0" cy="110.4" r="8" />
<circle cx="356.0" cy="97.0" r="8" />
<circle cx="380.4" cy="62.2" r="8" />
<circle cx="390.6" cy="43.4" r="8" />
<circle cx="422.1" cy="46.2" r="8" />
<circle cx="451.0" cy="26.1" r="8" />
<circle cx="521.1" cy="18.5" r="8" />
<circle cx="593.4" cy="12.0" r="8" />
<circle cx="691.7" cy="20.8" r="8" />
<circle cx="783.3" cy="22.3" r="8" />
<circle cx="762.9" cy="86.7" r="8" />
<circle cx="743.5" cy="132.1" r="8" />
<circle cx="843.2" cy="156.5" r="8" />
<circle cx="882.3" cy="179.9" r="8" />
<circle cx="940.4" cy="203.2" r="8" />
<circle cx="1012.0" cy="234.7" r="8" />
<circle cx="977.8" cy="266.0" r="8" />
<circle cx="913.6" cy="294.3" r="8" />
<circle cx="878.2" cy="322.9" r="8" />
<circle cx="835.5" cy="338.7" r="8" />
<circle cx="772.0" cy="361.8" r="8" />
<circle cx="645.7" cy="324.2" r="8" />
<circle cx="614.1" cy="366.9" r="8" />
<circle cx="557.4" cy="420.0" r="8" />
<circle cx="528.2" cy="451.7" r="8" />
<style>
circle {
fill: white;
stroke: #004F71;
stroke-width: 4;
}
path {
fill: none;
stroke: #004F71;
stroke-width: 8;
}</style>
</svg>