<svg width="1024.0" height="835.5" xmlns="http://www.w3.org/2000/svg">
<path d="M364.6404566774265 730.8764869932958 L364.6 749.4 L385.9 770.7 L363.9 792.8 L363.9 821.2 L195.1 821.2 L192.8 823.5 L171.2 801.9 L77.0 801.9 L77.0 739.9 L88.1 728.8 L12.0 652.7 L12.0 640.8 L12.0 600.8 L42.9 569.9 L136.7 476.1 L136.7 448.7 L136.7 370.2 L216.7 290.2 L186.4 260.0 L186.4 200.7 L128.9 200.7 L114.8 186.6 L311.0 186.6 L324.8 200.5 L346.8 178.5 L902.6 178.5 L902.6 149.9 L922.0 130.5 L1006.5 46.0 L1006.5 12.0 L929.0 89.5 L929.0 241.1 L929.0 327.5 L955.0 353.5 L990.0 388.6 L990.0 410.8 L990.0 468.0 L1012.0 489.9 L960.0 489.9 L879.3 570.7 " />
<circle cx="364.6" cy="730.9" r="8" />
<circle cx="385.9" cy="770.7" r="8" />
<circle cx="363.9" cy="821.2" r="8" />
<circle cx="192.8" cy="823.5" r="8" />
<circle cx="77.0" cy="801.9" r="8" />
<circle cx="88.1" cy="728.8" r="8" />
<circle cx="12.0" cy="640.8" r="8" />
<circle cx="42.9" cy="569.9" r="8" />
<circle cx="136.7" cy="448.7" r="8" />
<circle cx="216.7" cy="290.2" r="8" />
<circle cx="186.4" cy="200.7" r="8" />
<circle cx="114.8" cy="186.6" r="8" />
<circle cx="324.8" cy="200.5" r="8" />
<circle cx="902.6" cy="178.5" r="8" />
<circle cx="922.0" cy="130.5" r="8" />
<circle cx="1006.5" cy="12.0" r="8" />
<circle cx="929.0" cy="241.1" r="8" />
<circle cx="955.0" cy="353.5" r="8" />
<circle cx="990.0" cy="410.8" r="8" />
<circle cx="1012.0" cy="489.9" r="8" />
<circle cx="879.3" cy="570.7" r="8" />
<style>
circle {
fill: white;
stroke: #525252;
stroke-width: 4;
}
path {
fill: none;
stroke: #525252;
stroke-width: 8;
}</style>
</svg>