<svg width="1024.0" height="817.5" xmlns="http://www.w3.org/2000/svg">
<path d="M860.0355192718629 558.3258204443247 L935.2 633.5 L1004.2 633.5 L1012.0 625.7 L1012.0 545.0 L1012.0 501.5 L989.8 479.3 L968.4 457.9 L968.4 402.0 L968.4 380.2 L934.1 346.0 L908.7 320.6 L908.7 236.0 L908.7 200.6 L882.9 174.8 L882.9 146.8 L901.8 127.8 L984.5 45.2 L984.5 12.0 L800.2 196.3 L317.9 196.3 L182.8 196.3 L182.6 196.5 L126.3 196.5 L112.5 182.8 L212.1 282.4 L212.1 284.1 L212.1 360.8 L133.9 439.0 L42.2 530.7 L42.2 557.5 L42.2 596.7 L12.0 626.9 L12.0 720.9 L75.5 784.4 L96.7 805.5 L188.8 805.5 L353.8 805.5 L356.1 803.3 L377.6 781.7 L377.6 753.9 L377.6 735.8 L356.8 714.9 " />
<circle cx="860.0" cy="558.3" r="8" />
<circle cx="1004.2" cy="633.5" r="8" />
<circle cx="1012.0" cy="545.0" r="8" />
<circle cx="989.8" cy="479.3" r="8" />
<circle cx="968.4" cy="402.0" r="8" />
<circle cx="934.1" cy="346.0" r="8" />
<circle cx="908.7" cy="236.0" r="8" />
<circle cx="882.9" cy="174.8" r="8" />
<circle cx="901.8" cy="127.8" r="8" />
<circle cx="984.5" cy="12.0" r="8" />
<circle cx="317.9" cy="196.3" r="8" />
<circle cx="182.6" cy="196.5" r="8" />
<circle cx="112.5" cy="182.8" r="8" />
<circle cx="212.1" cy="284.1" r="8" />
<circle cx="133.9" cy="439.0" r="8" />
<circle cx="42.2" cy="557.5" r="8" />
<circle cx="12.0" cy="626.9" r="8" />
<circle cx="75.5" cy="784.4" r="8" />
<circle cx="188.8" cy="805.5" r="8" />
<circle cx="356.1" cy="803.3" r="8" />
<circle cx="377.6" cy="753.9" r="8" />
<circle cx="356.8" cy="714.9" r="8" />
<style>
circle {
fill: white;
stroke: #525252;
stroke-width: 4;
}
path {
fill: none;
stroke: #525252;
stroke-width: 8;
}</style>
</svg>