<svg width="706.3" height="1024.0" xmlns="http://www.w3.org/2000/svg">
<path d="M412.6 1012.0 L433.0 991.6 L443.0 991.6 L484.7 991.6 L538.4 937.9 L555.1 921.1 L583.6 921.1 L590.9 921.1 L621.2 890.8 L651.2 860.7 L689.2 860.7 L689.2 815.2 L694.3 810.1 L679.1 794.9 L646.7 794.9 L617.7 794.9 L596.5 816.1 L560.9 780.5 L557.6 780.5 L493.8 780.5 L489.7 776.3 L467.6 754.2 L410.1 754.2 L410.1 748.6 L439.5 719.2 L461.5 697.1 L461.5 670.8 L461.5 624.1 L483.1 602.6 L481.6 601.0 L386.1 601.0 L291.3 601.0 L281.9 591.7 L210.5 591.7 L209.0 593.2 L198.0 582.2 L182.3 582.2 L100.4 582.2 L89.9 571.6 L63.1 598.3 L63.1 618.3 L20.8 618.3 L12.0 627.1 L12.0 599.2 L18.2 593.0 L67.6 543.6 L67.6 542.6 L67.6 535.0 L123.4 479.1 L85.4 441.1 L85.4 416.5 L85.4 391.0 L87.5 388.8 L89.9 386.5 L89.9 355.0 L89.9 323.1 L92.0 320.9 L93.2 319.7 L93.2 249.0 L93.2 163.1 L90.0 159.9 L75.8 145.7 L75.8 115.5 L75.8 76.2 L58.2 58.6 L52.6 53.1 L52.6 12.0 " />
<circle cx="412.6" cy="1012.0" r="8" />
<circle cx="443.0" cy="991.6" r="8" />
<circle cx="538.4" cy="937.9" r="8" />
<circle cx="583.6" cy="921.1" r="8" />
<circle cx="621.2" cy="890.8" r="8" />
<circle cx="689.2" cy="860.7" r="8" />
<circle cx="694.3" cy="810.1" r="8" />
<circle cx="646.7" cy="794.9" r="8" />
<circle cx="596.5" cy="816.1" r="8" />
<circle cx="557.6" cy="780.5" r="8" />
<circle cx="489.7" cy="776.3" r="8" />
<circle cx="410.1" cy="754.2" r="8" />
<circle cx="439.5" cy="719.2" r="8" />
<circle cx="461.5" cy="670.8" r="8" />
<circle cx="483.1" cy="602.6" r="8" />
<circle cx="386.1" cy="601.0" r="8" />
<circle cx="281.9" cy="591.7" r="8" />
<circle cx="209.0" cy="593.2" r="8" />
<circle cx="182.3" cy="582.2" r="8" />
<circle cx="89.9" cy="571.6" r="8" />
<circle cx="63.1" cy="618.3" r="8" />
<circle cx="12.0" cy="627.1" r="8" />
<circle cx="18.2" cy="593.0" r="8" />
<circle cx="67.6" cy="542.6" r="8" />
<circle cx="123.4" cy="479.1" r="8" />
<circle cx="85.4" cy="416.5" r="8" />
<circle cx="87.5" cy="388.8" r="8" />
<circle cx="89.9" cy="355.0" r="8" />
<circle cx="92.0" cy="320.9" r="8" />
<circle cx="93.2" cy="249.0" r="8" />
<circle cx="90.0" cy="159.9" r="8" />
<circle cx="75.8" cy="115.5" r="8" />
<circle cx="58.2" cy="58.6" r="8" />
<circle cx="52.6" cy="12.0" r="8" />
<style>
circle {
fill: white;
stroke: #000000;
stroke-width: 4;
}
path {
fill: none;
stroke: #000000;
stroke-width: 8;
}</style>
</svg>