<svg width="468.9" height="1024.0" xmlns="http://www.w3.org/2000/svg">
<path d="M129.77641890501502 12.0 L129.8 58.1 L125.8 62.1 L139.4 75.7 L239.3 75.7 L255.8 75.7 L317.3 137.2 L317.3 181.2 L308.9 189.6 L345.1 225.8 L360.8 225.8 L387.6 225.8 L456.9 156.5 L358.8 254.5 L330.9 254.5 L326.2 254.5 L288.9 291.9 L261.8 319.0 L255.4 319.0 L248.1 319.0 L220.5 346.5 L180.5 386.5 L179.4 386.5 L154.8 411.1 L154.8 447.7 L154.8 483.8 L128.0 510.7 L131.9 514.7 L269.6 514.7 L293.7 538.8 L293.7 571.7 L267.1 545.1 L213.5 545.1 L164.8 545.1 L153.1 556.9 L153.1 582.1 L162.8 591.8 L159.5 595.2 L41.2 595.2 L41.2 652.8 L43.4 655.0 L47.4 659.0 L47.4 730.8 L47.4 760.6 L70.1 783.3 L81.8 794.9 L81.8 831.3 L81.8 849.7 L102.5 870.4 L102.5 912.2 L99.8 914.9 L95.4 919.4 L12.0 919.4 L92.4 919.4 L111.4 938.5 L136.3 963.3 L136.3 1012.0 " />
<circle cx="129.8" cy="12.0" r="8" />
<circle cx="125.8" cy="62.1" r="8" />
<circle cx="239.3" cy="75.7" r="8" />
<circle cx="317.3" cy="137.2" r="8" />
<circle cx="308.9" cy="189.6" r="8" />
<circle cx="360.8" cy="225.8" r="8" />
<circle cx="456.9" cy="156.5" r="8" />
<circle cx="330.9" cy="254.5" r="8" />
<circle cx="288.9" cy="291.9" r="8" />
<circle cx="255.4" cy="319.0" r="8" />
<circle cx="220.5" cy="346.5" r="8" />
<circle cx="179.4" cy="386.5" r="8" />
<circle cx="154.8" cy="447.7" r="8" />
<circle cx="128.0" cy="510.7" r="8" />
<circle cx="269.6" cy="514.7" r="8" />
<circle cx="293.7" cy="571.7" r="8" />
<circle cx="213.5" cy="545.1" r="8" />
<circle cx="153.1" cy="556.9" r="8" />
<circle cx="162.8" cy="591.8" r="8" />
<circle cx="41.2" cy="595.2" r="8" />
<circle cx="43.4" cy="655.0" r="8" />
<circle cx="47.4" cy="730.8" r="8" />
<circle cx="70.1" cy="783.3" r="8" />
<circle cx="81.8" cy="831.3" r="8" />
<circle cx="102.5" cy="870.4" r="8" />
<circle cx="99.8" cy="914.9" r="8" />
<circle cx="12.0" cy="919.4" r="8" />
<circle cx="111.4" cy="938.5" r="8" />
<circle cx="136.3" cy="1012.0" r="8" />
<style>
circle {
fill: white;
stroke: #525252;
stroke-width: 4;
}
path {
fill: none;
stroke: #525252;
stroke-width: 8;
}</style>
</svg>