<svg width="1024.0" height="993.0" xmlns="http://www.w3.org/2000/svg">
<path d="M12.0 981.0 L38.0 955.0 L74.7 955.0 L107.9 955.0 L143.3 919.6 L177.0 886.0 L200.0 886.0 L200.0 877.8 L227.7 850.1 L187.9 810.3 L167.5 810.3 L158.1 800.9 L158.1 748.1 L233.9 748.1 L236.5 745.5 L239.8 742.1 L305.2 742.1 L310.8 742.1 L363.1 689.8 L375.5 702.2 L452.1 702.2 L610.8 702.2 L615.4 706.8 L617.5 704.7 L681.5 704.7 L681.5 676.1 L692.2 665.5 L744.7 612.9 L784.2 612.9 L746.1 574.8 L746.1 537.8 L746.1 512.9 L702.3 469.2 L746.7 469.2 L755.9 459.9 L789.6 426.2 L835.6 426.2 L901.7 426.2 L902.9 425.0 L928.4 399.6 L928.4 379.2 L928.4 359.1 L956.4 331.1 L960.4 327.1 L960.4 293.7 L960.4 293.1 L1012.0 241.5 L1000.4 230.0 L1000.4 212.6 L940.5 212.6 L905.2 177.3 L896.6 168.7 L868.0 168.7 L804.9 168.7 L795.7 177.9 L795.4 178.2 L704.6 178.2 L642.5 178.2 L639.4 181.2 L623.4 165.1 L605.4 165.1 L559.3 165.1 L532.3 138.1 L511.7 117.6 L511.7 94.3 L538.6 94.3 L569.3 63.7 L570.5 62.4 L664.8 62.4 L664.8 46.6 L677.1 34.2 L665.2 22.3 L665.2 12.0 " />
<circle cx="12.0" cy="981.0" r="8" />
<circle cx="74.7" cy="955.0" r="8" />
<circle cx="143.3" cy="919.6" r="8" />
<circle cx="200.0" cy="886.0" r="8" />
<circle cx="227.7" cy="850.1" r="8" />
<circle cx="167.5" cy="810.3" r="8" />
<circle cx="158.1" cy="748.1" r="8" />
<circle cx="236.5" cy="745.5" r="8" />
<circle cx="305.2" cy="742.1" r="8" />
<circle cx="363.1" cy="689.8" r="8" />
<circle cx="452.1" cy="702.2" r="8" />
<circle cx="615.4" cy="706.8" r="8" />
<circle cx="681.5" cy="704.7" r="8" />
<circle cx="692.2" cy="665.5" r="8" />
<circle cx="784.2" cy="612.9" r="8" />
<circle cx="746.1" cy="537.8" r="8" />
<circle cx="702.3" cy="469.2" r="8" />
<circle cx="755.9" cy="459.9" r="8" />
<circle cx="835.6" cy="426.2" r="8" />
<circle cx="902.9" cy="425.0" r="8" />
<circle cx="928.4" cy="379.2" r="8" />
<circle cx="956.4" cy="331.1" r="8" />
<circle cx="960.4" cy="293.7" r="8" />
<circle cx="1012.0" cy="241.5" r="8" />
<circle cx="1000.4" cy="212.6" r="8" />
<circle cx="905.2" cy="177.3" r="8" />
<circle cx="868.0" cy="168.7" r="8" />
<circle cx="795.7" cy="177.9" r="8" />
<circle cx="704.6" cy="178.2" r="8" />
<circle cx="639.4" cy="181.2" r="8" />
<circle cx="605.4" cy="165.1" r="8" />
<circle cx="532.3" cy="138.1" r="8" />
<circle cx="511.7" cy="94.3" r="8" />
<circle cx="569.3" cy="63.7" r="8" />
<circle cx="664.8" cy="62.4" r="8" />
<circle cx="677.1" cy="34.2" r="8" />
<circle cx="665.2" cy="12.0" r="8" />
<style>
circle {
fill: white;
stroke: #525252;
stroke-width: 4;
}
path {
fill: none;
stroke: #525252;
stroke-width: 8;
}</style>
</svg>