<svg width="912.9" height="1024.0" xmlns="http://www.w3.org/2000/svg">
<path d="M724.9 1012.0 L748.7 988.2 L785.3 988.2 L791.5 988.2 L810.2 969.5 L835.9 943.7 L835.9 942.2 L835.9 927.5 L827.4 918.9 L837.3 909.0 L837.3 880.5 L837.3 862.7 L836.7 862.1 L820.1 845.5 L790.7 845.5 L790.7 840.2 L808.7 822.2 L780.9 822.2 L772.6 830.6 L758.9 817.0 L757.7 817.0 L791.8 782.8 L837.3 782.8 L837.3 754.1 L847.7 743.7 L847.2 743.3 L847.2 718.9 L847.2 696.6 L884.2 659.7 L896.1 647.8 L897.2 647.8 L887.8 638.4 L881.3 638.4 L881.3 612.5 L900.9 592.9 L878.1 570.2 L849.9 570.2 L847.2 567.4 L847.2 530.9 L800.1 530.9 L790.8 540.2 L786.0 545.0 L786.0 545.2 L773.8 545.2 L757.6 529.1 L741.7 513.1 L718.5 513.1 L696.6 513.1 L683.8 500.3 L679.7 496.2 L594.6 496.2 L562.9 496.2 L555.9 489.2 L417.6 351.0 L355.3 351.0 L115.4 111.1 L115.4 57.6 L87.5 57.6 L53.4 23.5 L41.9 12.0 L12.0 12.0 " />
<circle cx="724.9" cy="1012.0" r="8" />
<circle cx="785.3" cy="988.2" r="8" />
<circle cx="810.2" cy="969.5" r="8" />
<circle cx="835.9" cy="942.2" r="8" />
<circle cx="827.4" cy="918.9" r="8" />
<circle cx="837.3" cy="880.5" r="8" />
<circle cx="836.7" cy="862.1" r="8" />
<circle cx="790.7" cy="845.5" r="8" />
<circle cx="808.7" cy="822.2" r="8" />
<circle cx="772.6" cy="830.6" r="8" />
<circle cx="757.7" cy="817.0" r="8" />
<circle cx="837.3" cy="782.8" r="8" />
<circle cx="847.7" cy="743.7" r="8" />
<circle cx="847.2" cy="718.9" r="8" />
<circle cx="884.2" cy="659.7" r="8" />
<circle cx="897.2" cy="647.8" r="8" />
<circle cx="881.3" cy="638.4" r="8" />
<circle cx="900.9" cy="592.9" r="8" />
<circle cx="849.9" cy="570.2" r="8" />
<circle cx="847.2" cy="530.9" r="8" />
<circle cx="790.8" cy="540.2" r="8" />
<circle cx="786.0" cy="545.2" r="8" />
<circle cx="757.6" cy="529.1" r="8" />
<circle cx="718.5" cy="513.1" r="8" />
<circle cx="683.8" cy="500.3" r="8" />
<circle cx="594.6" cy="496.2" r="8" />
<circle cx="555.9" cy="489.2" r="8" />
<circle cx="355.3" cy="351.0" r="8" />
<circle cx="115.4" cy="57.6" r="8" />
<circle cx="53.4" cy="23.5" r="8" />
<circle cx="12.0" cy="12.0" r="8" />
<style>
circle {
fill: white;
stroke: #525252;
stroke-width: 4;
}
path {
fill: none;
stroke: #525252;
stroke-width: 8;
}</style>
</svg>