<svg width="1024.0" height="546.6" xmlns="http://www.w3.org/2000/svg">
<path d="M12.0 12.0 L135.7 12.0 L175.7 52.0 L175.7 99.8 L112.2 163.3 L109.6 165.9 L109.6 243.8 L109.6 317.7 L108.9 318.4 L69.4 357.9 L69.4 380.3 L72.9 383.9 L196.7 383.9 L224.7 355.9 L224.7 308.5 L224.7 281.9 L274.6 232.0 L287.7 219.0 L479.8 219.0 L610.1 219.0 L628.7 237.5 L702.6 311.4 L707.2 311.4 L812.9 417.2 L812.9 502.5 L812.9 515.0 L832.5 534.6 L900.0 534.6 L952.8 481.7 L1012.0 422.5 L1012.0 417.7 " />
<circle cx="12.0" cy="12.0" r="8" />
<circle cx="175.7" cy="52.0" r="8" />
<circle cx="112.2" cy="163.3" r="8" />
<circle cx="109.6" cy="243.8" r="8" />
<circle cx="108.9" cy="318.4" r="8" />
<circle cx="69.4" cy="380.3" r="8" />
<circle cx="196.7" cy="383.9" r="8" />
<circle cx="224.7" cy="308.5" r="8" />
<circle cx="274.6" cy="232.0" r="8" />
<circle cx="479.8" cy="219.0" r="8" />
<circle cx="628.7" cy="237.5" r="8" />
<circle cx="707.2" cy="311.4" r="8" />
<circle cx="812.9" cy="502.5" r="8" />
<circle cx="832.5" cy="534.6" r="8" />
<circle cx="952.8" cy="481.7" r="8" />
<circle cx="1012.0" cy="417.7" r="8" />
<style>
circle {
fill: white;
stroke: black;
stroke-width: 4;
}
path {
fill: none;
stroke: #FFFFFF;
stroke-width: 8;
}</style>
</svg>