<svg width="1024.0" height="270.0" xmlns="http://www.w3.org/2000/svg">
<path d="M12.0 12.0 L35.8 12.0 L42.8 18.9 L62.8 38.9 L117.5 38.9 L149.8 38.9 L161.1 50.3 L184.8 74.0 L250.0 74.0 L248.3 74.0 L227.9 94.4 L185.3 136.9 L146.5 136.9 L159.8 136.9 L161.5 135.2 L169.0 135.2 L176.8 143.0 L197.6 163.8 L212.7 163.8 L224.4 163.8 L232.8 172.1 L238.4 177.7 L282.7 177.7 L309.6 177.7 L312.9 181.1 L313.1 181.2 L338.1 181.2 L368.5 181.2 L371.0 183.7 L373.9 186.6 L426.8 186.6 L442.6 186.6 L446.0 190.0 L453.2 197.2 L453.2 198.7 L457.0 202.5 L512.6 202.5 L512.6 192.2 L503.7 183.4 L494.9 174.6 L494.9 164.3 L494.9 153.4 L484.9 143.4 L484.9 139.9 L499.3 125.5 L531.0 125.5 L538.1 132.7 L545.8 140.3 L589.3 140.3 L641.0 140.3 L642.3 141.5 L643.2 142.5 L682.5 142.5 L705.9 142.5 L706.9 143.5 L714.9 151.6 L745.7 151.6 L766.6 151.6 L774.2 159.2 L779.1 164.1 L792.3 164.1 L808.8 164.1 L819.1 174.4 L835.2 190.5 L844.3 190.5 L849.9 190.5 L857.5 198.0 L860.5 201.1 L882.5 201.1 L912.7 201.1 L917.4 205.8 L923.2 211.7 L940.4 211.7 L962.6 211.7 L970.5 219.5 L970.5 224.8 L962.4 232.9 L965.1 235.6 L987.4 235.6 L1001.5 235.6 L1003.5 237.6 L1012.0 246.1 L1012.0 258.0 " />
<circle cx="12.0" cy="12.0" r="8" />
<circle cx="42.8" cy="18.9" r="8" />
<circle cx="117.5" cy="38.9" r="8" />
<circle cx="161.1" cy="50.3" r="8" />
<circle cx="250.0" cy="74.0" r="8" />
<circle cx="227.9" cy="94.4" r="8" />
<circle cx="146.5" cy="136.9" r="8" />
<circle cx="161.5" cy="135.2" r="8" />
<circle cx="176.8" cy="143.0" r="8" />
<circle cx="212.7" cy="163.8" r="8" />
<circle cx="232.8" cy="172.1" r="8" />
<circle cx="282.7" cy="177.7" r="8" />
<circle cx="312.9" cy="181.1" r="8" />
<circle cx="338.1" cy="181.2" r="8" />
<circle cx="371.0" cy="183.7" r="8" />
<circle cx="426.8" cy="186.6" r="8" />
<circle cx="446.0" cy="190.0" r="8" />
<circle cx="453.2" cy="198.7" r="8" />
<circle cx="512.6" cy="202.5" r="8" />
<circle cx="503.7" cy="183.4" r="8" />
<circle cx="494.9" cy="164.3" r="8" />
<circle cx="484.9" cy="143.4" r="8" />
<circle cx="499.3" cy="125.5" r="8" />
<circle cx="538.1" cy="132.7" r="8" />
<circle cx="589.3" cy="140.3" r="8" />
<circle cx="642.3" cy="141.5" r="8" />
<circle cx="682.5" cy="142.5" r="8" />
<circle cx="706.9" cy="143.5" r="8" />
<circle cx="745.7" cy="151.6" r="8" />
<circle cx="774.2" cy="159.2" r="8" />
<circle cx="792.3" cy="164.1" r="8" />
<circle cx="819.1" cy="174.4" r="8" />
<circle cx="844.3" cy="190.5" r="8" />
<circle cx="857.5" cy="198.0" r="8" />
<circle cx="882.5" cy="201.1" r="8" />
<circle cx="917.4" cy="205.8" r="8" />
<circle cx="940.4" cy="211.7" r="8" />
<circle cx="970.5" cy="219.5" r="8" />
<circle cx="962.4" cy="232.9" r="8" />
<circle cx="987.4" cy="235.6" r="8" />
<circle cx="1003.5" cy="237.6" r="8" />
<circle cx="1012.0" cy="258.0" r="8" />
<style>
circle {
fill: white;
stroke: #000000;
stroke-width: 4;
}
path {
fill: none;
stroke: #000000;
stroke-width: 8;
}</style>
</svg>