<svg width="1024.0" height="345.9" xmlns="http://www.w3.org/2000/svg">
<path d="M12.0 290.76647770235854 L96.9 205.9 L116.3 205.9 L149.9 205.9 L161.7 194.1 L185.0 170.9 L304.9 170.9 L392.9 170.9 L429.1 134.7 L446.1 117.7 L501.0 117.7 L586.2 117.7 L627.5 76.5 L646.1 57.9 L692.8 57.9 L771.7 57.9 L778.5 51.0 L816.8 12.7 L944.4 12.7 L978.1 12.7 L978.8 12.0 L931.8 59.0 L931.8 59.5 L931.8 105.9 L916.5 121.2 L916.5 140.7 L980.4 204.5 L994.1 218.3 L994.1 235.4 L994.1 252.2 L1012.0 270.0 L996.1 285.9 L938.3 285.9 L920.6 303.6 L920.6 333.9 " />
<circle cx="12.0" cy="290.8" r="8" />
<circle cx="116.3" cy="205.9" r="8" />
<circle cx="161.7" cy="194.1" r="8" />
<circle cx="304.9" cy="170.9" r="8" />
<circle cx="429.1" cy="134.7" r="8" />
<circle cx="501.0" cy="117.7" r="8" />
<circle cx="627.5" cy="76.5" r="8" />
<circle cx="692.8" cy="57.9" r="8" />
<circle cx="778.5" cy="51.0" r="8" />
<circle cx="944.4" cy="12.7" r="8" />
<circle cx="978.8" cy="12.0" r="8" />
<circle cx="931.8" cy="59.5" r="8" />
<circle cx="916.5" cy="121.2" r="8" />
<circle cx="980.4" cy="204.5" r="8" />
<circle cx="994.1" cy="235.4" r="8" />
<circle cx="1012.0" cy="270.0" r="8" />
<circle cx="938.3" cy="285.9" r="8" />
<circle cx="920.6" cy="333.9" r="8" />
<style>
circle {
fill: white;
stroke: black;
stroke-width: 4;
}
path {
fill: none;
stroke: #FFFFFF;
stroke-width: 8;
}</style>
</svg>