<svg width="526.7" height="1024.0" xmlns="http://www.w3.org/2000/svg">
<path d="M12.0 990.5922309459727 L15.6 994.2 L153.5 994.2 L236.7 994.2 L254.5 1012.0 L268.9 997.7 L345.9 997.7 L345.9 976.9 L362.0 960.9 L380.7 942.2 L380.7 906.5 L399.1 906.5 L436.7 868.9 L514.7 790.9 L514.7 742.0 L442.1 742.0 L416.5 716.4 L386.8 686.7 L326.1 686.7 L296.5 686.7 L241.8 741.3 L241.8 677.6 L278.5 640.9 L323.2 596.2 L323.2 546.2 L323.2 521.7 L355.0 489.8 L376.0 468.9 L376.0 430.7 L376.0 422.8 L433.1 365.7 L404.7 337.3 L355.1 337.3 L253.4 337.3 L214.9 298.9 L172.5 256.5 L172.5 252.8 L172.5 199.9 L146.1 173.4 L139.6 166.9 L139.6 130.8 L139.6 35.5 L163.0 12.0 " />
<circle cx="12.0" cy="990.6" r="8" />
<circle cx="153.5" cy="994.2" r="8" />
<circle cx="254.5" cy="1012.0" r="8" />
<circle cx="345.9" cy="997.7" r="8" />
<circle cx="362.0" cy="960.9" r="8" />
<circle cx="380.7" cy="906.5" r="8" />
<circle cx="436.7" cy="868.9" r="8" />
<circle cx="514.7" cy="742.0" r="8" />
<circle cx="416.5" cy="716.4" r="8" />
<circle cx="326.1" cy="686.7" r="8" />
<circle cx="241.8" cy="741.3" r="8" />
<circle cx="278.5" cy="640.9" r="8" />
<circle cx="323.2" cy="546.2" r="8" />
<circle cx="355.0" cy="489.8" r="8" />
<circle cx="376.0" cy="430.7" r="8" />
<circle cx="433.1" cy="365.7" r="8" />
<circle cx="355.1" cy="337.3" r="8" />
<circle cx="214.9" cy="298.9" r="8" />
<circle cx="172.5" cy="252.8" r="8" />
<circle cx="146.1" cy="173.4" r="8" />
<circle cx="139.6" cy="130.8" r="8" />
<circle cx="163.0" cy="12.0" r="8" />
<style>
circle {
fill: white;
stroke: #000000;
stroke-width: 4;
}
path {
fill: none;
stroke: #000000;
stroke-width: 8;
}</style>
</svg>