<svg width="530.3" height="1024.0" xmlns="http://www.w3.org/2000/svg">
<path d="M12.0 995.2213592162285 L156.0 995.2 L157.1 994.2 L240.3 994.2 L258.1 1012.0 L335.2 1012.0 L349.5 997.7 L365.6 981.6 L365.6 960.9 L365.6 925.2 L384.2 906.5 L421.9 868.9 L440.3 868.9 L518.3 790.9 L518.3 742.0 L492.7 716.4 L420.1 716.4 L359.4 716.4 L329.6 686.7 L275.0 741.3 L245.4 741.3 L282.1 704.6 L282.1 640.9 L282.1 590.8 L326.7 546.2 L358.6 514.3 L358.6 489.8 L358.6 451.7 L379.6 430.7 L436.7 373.7 L436.7 365.7 L408.2 337.3 L358.7 337.3 L256.9 337.3 L218.5 298.9 L176.1 256.5 L176.1 252.8 L176.1 199.9 L149.7 173.4 L143.1 166.9 L143.1 130.8 L143.1 35.5 L166.6 12.0 " />
<circle cx="12.0" cy="995.2" r="8" />
<circle cx="157.1" cy="994.2" r="8" />
<circle cx="258.1" cy="1012.0" r="8" />
<circle cx="349.5" cy="997.7" r="8" />
<circle cx="365.6" cy="960.9" r="8" />
<circle cx="384.2" cy="906.5" r="8" />
<circle cx="440.3" cy="868.9" r="8" />
<circle cx="518.3" cy="742.0" r="8" />
<circle cx="420.1" cy="716.4" r="8" />
<circle cx="329.6" cy="686.7" r="8" />
<circle cx="245.4" cy="741.3" r="8" />
<circle cx="282.1" cy="640.9" r="8" />
<circle cx="326.7" cy="546.2" r="8" />
<circle cx="358.6" cy="489.8" r="8" />
<circle cx="379.6" cy="430.7" r="8" />
<circle cx="436.7" cy="365.7" r="8" />
<circle cx="358.7" cy="337.3" r="8" />
<circle cx="218.5" cy="298.9" r="8" />
<circle cx="176.1" cy="252.8" r="8" />
<circle cx="149.7" cy="173.4" r="8" />
<circle cx="143.1" cy="130.8" r="8" />
<circle cx="166.6" cy="12.0" r="8" />
<style>
circle {
fill: white;
stroke: #000000;
stroke-width: 4;
}
path {
fill: none;
stroke: #000000;
stroke-width: 8;
}</style>
</svg>