<svg width="1024.0" height="939.7" xmlns="http://www.w3.org/2000/svg">
<path d="M1012.0 12.0 L1007.0 17.0 L1007.0 58.6 L1007.0 83.7 L972.1 118.6 L940.4 150.3 L940.4 175.7 L857.9 175.7 L856.4 177.2 L814.5 219.2 L757.2 219.2 L701.9 219.2 L690.3 230.7 L667.4 253.6 L655.8 253.6 L626.9 253.6 L598.4 282.1 L588.0 271.7 L517.5 271.7 L498.1 271.7 L468.0 241.6 L438.3 211.9 L359.8 211.9 L359.8 276.0 L306.5 329.4 L252.6 383.2 L252.6 405.3 L137.2 405.3 L119.2 387.3 L52.4 454.1 L52.4 469.4 L52.4 488.5 L13.3 527.6 L12.0 528.9 L12.0 578.3 L12.0 644.1 L23.8 655.9 L73.3 705.5 L98.7 705.5 L123.9 705.5 L177.3 758.9 L170.8 758.9 L117.4 812.3 L87.0 842.7 L75.2 842.7 L119.7 887.3 L124.4 887.3 L99.5 912.1 L99.5 927.7 " />
<circle cx="1012.0" cy="12.0" r="8" />
<circle cx="1007.0" cy="58.6" r="8" />
<circle cx="972.1" cy="118.6" r="8" />
<circle cx="940.4" cy="175.7" r="8" />
<circle cx="856.4" cy="177.2" r="8" />
<circle cx="757.2" cy="219.2" r="8" />
<circle cx="690.3" cy="230.7" r="8" />
<circle cx="655.8" cy="253.6" r="8" />
<circle cx="598.4" cy="282.1" r="8" />
<circle cx="517.5" cy="271.7" r="8" />
<circle cx="468.0" cy="241.6" r="8" />
<circle cx="359.8" cy="211.9" r="8" />
<circle cx="306.5" cy="329.4" r="8" />
<circle cx="252.6" cy="405.3" r="8" />
<circle cx="119.2" cy="387.3" r="8" />
<circle cx="52.4" cy="469.4" r="8" />
<circle cx="13.3" cy="527.6" r="8" />
<circle cx="12.0" cy="578.3" r="8" />
<circle cx="23.8" cy="655.9" r="8" />
<circle cx="98.7" cy="705.5" r="8" />
<circle cx="177.3" cy="758.9" r="8" />
<circle cx="117.4" cy="812.3" r="8" />
<circle cx="75.2" cy="842.7" r="8" />
<circle cx="124.4" cy="887.3" r="8" />
<circle cx="99.5" cy="927.7" r="8" />
<style>
circle {
fill: white;
stroke: #525252;
stroke-width: 4;
}
path {
fill: none;
stroke: #525252;
stroke-width: 8;
}</style>
</svg>