<svg width="1024.0" height="372.8" xmlns="http://www.w3.org/2000/svg">
<path d="M904.0 298.7 L892.5 310.2 L892.5 316.7 L905.7 303.4 L917.7 303.4 L923.9 303.4 L936.6 290.7 L936.3 290.4 L936.3 278.2 L916.9 278.2 L892.0 253.4 L892.7 253.4 L911.1 235.0 L912.3 236.2 L964.6 236.2 L1001.7 236.2 L1012.0 225.9 L1007.6 221.4 L988.1 221.4 L938.6 221.4 L931.3 214.1 L922.2 214.1 L909.1 227.2 L904.6 231.6 L868.9 231.6 L840.3 231.6 L802.2 193.5 L760.6 151.9 L742.1 151.9 L711.7 151.9 L690.7 130.9 L659.9 100.1 L646.0 100.1 L564.5 100.1 L557.6 107.0 L554.3 110.4 L525.2 110.4 L483.8 110.4 L482.5 109.1 L469.6 109.1 L451.1 127.7 L383.6 195.1 L383.6 210.6 L383.6 228.9 L393.7 238.9 L326.3 238.9 L207.3 357.8 L204.4 360.8 L203.5 360.8 L220.8 343.4 L234.7 343.4 L203.9 312.6 L167.9 312.6 L163.6 308.2 L163.6 294.1 L163.6 292.5 L220.8 235.3 L246.6 209.5 L246.6 203.0 L256.4 203.0 L297.8 161.5 L268.7 132.4 L180.7 132.4 L144.6 132.4 L134.9 122.7 L128.5 116.3 L52.2 116.3 L26.6 116.3 L12.0 101.7 L96.0 101.7 L176.6 21.1 L185.7 12.0 L216.5 12.0 " />
<circle cx="904.0" cy="298.7" r="8" />
<circle cx="892.5" cy="316.7" r="8" />
<circle cx="917.7" cy="303.4" r="8" />
<circle cx="936.6" cy="290.7" r="8" />
<circle cx="936.3" cy="278.2" r="8" />
<circle cx="892.0" cy="253.4" r="8" />
<circle cx="911.1" cy="235.0" r="8" />
<circle cx="964.6" cy="236.2" r="8" />
<circle cx="1012.0" cy="225.9" r="8" />
<circle cx="988.1" cy="221.4" r="8" />
<circle cx="931.3" cy="214.1" r="8" />
<circle cx="909.1" cy="227.2" r="8" />
<circle cx="868.9" cy="231.6" r="8" />
<circle cx="802.2" cy="193.5" r="8" />
<circle cx="742.1" cy="151.9" r="8" />
<circle cx="690.7" cy="130.9" r="8" />
<circle cx="646.0" cy="100.1" r="8" />
<circle cx="557.6" cy="107.0" r="8" />
<circle cx="525.2" cy="110.4" r="8" />
<circle cx="482.5" cy="109.1" r="8" />
<circle cx="451.1" cy="127.7" r="8" />
<circle cx="383.6" cy="210.6" r="8" />
<circle cx="393.7" cy="238.9" r="8" />
<circle cx="207.3" cy="357.8" r="8" />
<circle cx="203.5" cy="360.8" r="8" />
<circle cx="234.7" cy="343.4" r="8" />
<circle cx="167.9" cy="312.6" r="8" />
<circle cx="163.6" cy="294.1" r="8" />
<circle cx="220.8" cy="235.3" r="8" />
<circle cx="246.6" cy="203.0" r="8" />
<circle cx="297.8" cy="161.5" r="8" />
<circle cx="180.7" cy="132.4" r="8" />
<circle cx="134.9" cy="122.7" r="8" />
<circle cx="52.2" cy="116.3" r="8" />
<circle cx="12.0" cy="101.7" r="8" />
<circle cx="176.6" cy="21.1" r="8" />
<circle cx="216.5" cy="12.0" r="8" />
<style>
circle {
fill: white;
stroke: black;
stroke-width: 4;
}
path {
fill: none;
stroke: #FFFFFF;
stroke-width: 8;
}</style>
</svg>