<svg width="370.2" height="1024.0" xmlns="http://www.w3.org/2000/svg">
<path d="M312.17177368429225 12.0 L332.2 12.0 L338.6 18.4 L351.5 31.2 L353.5 31.2 L358.2 35.9 L358.2 61.9 L358.2 65.3 L342.9 80.6 L333.3 90.2 L315.3 90.2 L314.2 90.2 L301.8 102.7 L276.7 127.7 L253.1 127.7 L211.1 127.7 L201.9 136.9 L173.5 165.4 L147.5 165.4 L107.2 205.7 L107.2 219.5 L107.2 240.5 L104.2 243.5 L102.0 245.7 L102.0 269.5 L104.7 272.2 L110.1 272.2 L167.4 272.2 L178.1 261.5 L143.5 296.1 L143.5 315.1 L143.5 381.0 L115.7 408.7 L117.0 407.4 L174.5 407.4 L183.8 416.7 L183.8 436.6 L179.0 441.3 L130.1 441.3 L121.4 450.0 L121.4 485.9 L121.4 508.7 L126.1 513.4 L132.9 520.3 L132.9 582.4 L132.9 609.2 L136.8 613.1 L141.1 617.3 L141.1 646.3 L141.1 677.8 L144.5 681.1 L158.4 695.0 L158.4 703.7 L158.4 747.9 L169.5 759.0 L169.5 799.2 L168.3 800.5 L156.2 812.5 L156.2 846.1 L156.2 859.6 L145.3 870.5 L140.0 875.7 L140.0 892.4 L140.0 912.8 L132.8 919.9 L120.6 932.1 L120.6 941.9 L112.1 950.4 L87.6 950.4 L68.7 950.4 L60.9 958.2 L43.1 976.1 L30.4 976.1 L18.8 987.7 L18.8 988.7 L18.8 1005.2 L12.0 1012.0 " />
<circle cx="312.2" cy="12.0" r="8" />
<circle cx="338.6" cy="18.4" r="8" />
<circle cx="353.5" cy="31.2" r="8" />
<circle cx="358.2" cy="61.9" r="8" />
<circle cx="342.9" cy="80.6" r="8" />
<circle cx="315.3" cy="90.2" r="8" />
<circle cx="301.8" cy="102.7" r="8" />
<circle cx="253.1" cy="127.7" r="8" />
<circle cx="201.9" cy="136.9" r="8" />
<circle cx="147.5" cy="165.4" r="8" />
<circle cx="107.2" cy="219.5" r="8" />
<circle cx="104.2" cy="243.5" r="8" />
<circle cx="102.0" cy="269.5" r="8" />
<circle cx="110.1" cy="272.2" r="8" />
<circle cx="178.1" cy="261.5" r="8" />
<circle cx="143.5" cy="315.1" r="8" />
<circle cx="115.7" cy="408.7" r="8" />
<circle cx="174.5" cy="407.4" r="8" />
<circle cx="183.8" cy="436.6" r="8" />
<circle cx="130.1" cy="441.3" r="8" />
<circle cx="121.4" cy="485.9" r="8" />
<circle cx="126.1" cy="513.4" r="8" />
<circle cx="132.9" cy="582.4" r="8" />
<circle cx="136.8" cy="613.1" r="8" />
<circle cx="141.1" cy="646.3" r="8" />
<circle cx="144.5" cy="681.1" r="8" />
<circle cx="158.4" cy="703.7" r="8" />
<circle cx="169.5" cy="759.0" r="8" />
<circle cx="168.3" cy="800.5" r="8" />
<circle cx="156.2" cy="846.1" r="8" />
<circle cx="145.3" cy="870.5" r="8" />
<circle cx="140.0" cy="892.4" r="8" />
<circle cx="132.8" cy="919.9" r="8" />
<circle cx="120.6" cy="941.9" r="8" />
<circle cx="87.6" cy="950.4" r="8" />
<circle cx="60.9" cy="958.2" r="8" />
<circle cx="30.4" cy="976.1" r="8" />
<circle cx="18.8" cy="988.7" r="8" />
<circle cx="12.0" cy="1012.0" r="8" />
<style>
circle {
fill: white;
stroke: #525252;
stroke-width: 4;
}
path {
fill: none;
stroke: #525252;
stroke-width: 8;
}</style>
</svg>