<svg width="707.6" height="1024.0" xmlns="http://www.w3.org/2000/svg">
<path d="M648.3788295742396 12.0 L648.4 77.6 L654.0 83.2 L639.9 97.3 L639.9 150.4 L639.9 177.3 L657.7 195.2 L686.5 224.0 L686.5 298.9 L686.5 369.4 L695.6 378.5 L676.5 397.7 L676.5 455.1 L676.5 526.8 L693.3 543.6 L691.0 543.6 L651.1 583.6 L629.5 562.0 L534.1 562.0 L401.5 562.0 L399.7 563.8 L367.2 596.3 L306.1 596.3 L305.6 596.3 L244.9 657.1 L147.3 754.7 L147.3 768.0 L134.5 768.0 L100.5 802.0 L62.5 840.0 L62.5 857.4 L133.6 857.4 L159.7 883.6 L193.4 917.2 L204.7 917.2 L199.5 912.0 L146.3 912.0 L146.3 927.9 L127.4 946.8 L84.3 989.9 L84.3 1012.0 L36.9 1012.0 L12.0 987.1 L44.0 955.1 L44.0 915.2 " />
<circle cx="648.4" cy="12.0" r="8" />
<circle cx="654.0" cy="83.2" r="8" />
<circle cx="639.9" cy="150.4" r="8" />
<circle cx="657.7" cy="195.2" r="8" />
<circle cx="686.5" cy="298.9" r="8" />
<circle cx="695.6" cy="378.5" r="8" />
<circle cx="676.5" cy="455.1" r="8" />
<circle cx="693.3" cy="543.6" r="8" />
<circle cx="651.1" cy="583.6" r="8" />
<circle cx="534.1" cy="562.0" r="8" />
<circle cx="399.7" cy="563.8" r="8" />
<circle cx="306.1" cy="596.3" r="8" />
<circle cx="244.9" cy="657.1" r="8" />
<circle cx="147.3" cy="768.0" r="8" />
<circle cx="100.5" cy="802.0" r="8" />
<circle cx="62.5" cy="857.4" r="8" />
<circle cx="159.7" cy="883.6" r="8" />
<circle cx="204.7" cy="917.2" r="8" />
<circle cx="146.3" cy="912.0" r="8" />
<circle cx="127.4" cy="946.8" r="8" />
<circle cx="84.3" cy="1012.0" r="8" />
<circle cx="12.0" cy="987.1" r="8" />
<circle cx="44.0" cy="915.2" r="8" />
<style>
circle {
fill: white;
stroke: #000000;
stroke-width: 4;
}
path {
fill: none;
stroke: #000000;
stroke-width: 8;
}</style>
</svg>