<svg width="1024.0" height="468.0" xmlns="http://www.w3.org/2000/svg">
<path d="M12.0 315.1164913533538 L44.4 315.1 L71.1 288.4 L104.1 255.4 L114.4 255.4 L116.0 255.4 L146.9 224.5 L187.2 184.2 L193.6 184.2 L226.9 150.9 L226.9 147.0 L263.0 110.8 L304.3 110.8 L345.5 110.8 L358.6 97.7 L382.0 74.4 L382.0 62.4 L382.0 53.8 L392.2 43.5 L421.1 43.5 L423.9 46.3 L432.7 46.3 L452.9 26.2 L460.5 18.5 L523.4 18.5 L589.5 18.5 L596.0 12.0 L685.8 12.0 L694.7 20.9 L696.1 22.3 L786.6 22.3 L786.6 66.6 L766.2 87.0 L746.7 106.5 L746.7 132.7 L771.2 157.1 L846.9 157.1 L862.5 157.1 L886.1 180.6 L909.5 204.1 L944.5 204.1 L984.9 204.1 L1012.0 231.2 L1012.0 237.1 L982.0 267.1 L952.8 296.3 L916.7 296.3 L910.9 296.3 L884.3 322.9 L866.3 340.9 L835.4 340.9 L797.7 340.9 L775.3 363.3 L686.2 363.3 L648.5 325.6 L648.5 336.7 L616.7 368.4 L563.4 421.8 L559.8 421.8 L528.6 452.9 L528.6 456.0 " />
<circle cx="12.0" cy="315.1" r="8" />
<circle cx="71.1" cy="288.4" r="8" />
<circle cx="114.4" cy="255.4" r="8" />
<circle cx="146.9" cy="224.5" r="8" />
<circle cx="193.6" cy="184.2" r="8" />
<circle cx="226.9" cy="147.0" r="8" />
<circle cx="304.3" cy="110.8" r="8" />
<circle cx="358.6" cy="97.7" r="8" />
<circle cx="382.0" cy="62.4" r="8" />
<circle cx="392.2" cy="43.5" r="8" />
<circle cx="423.9" cy="46.3" r="8" />
<circle cx="452.9" cy="26.2" r="8" />
<circle cx="523.4" cy="18.5" r="8" />
<circle cx="596.0" cy="12.0" r="8" />
<circle cx="694.7" cy="20.9" r="8" />
<circle cx="786.6" cy="22.3" r="8" />
<circle cx="766.2" cy="87.0" r="8" />
<circle cx="746.7" cy="132.7" r="8" />
<circle cx="846.9" cy="157.1" r="8" />
<circle cx="886.1" cy="180.6" r="8" />
<circle cx="944.5" cy="204.1" r="8" />
<circle cx="1012.0" cy="231.2" r="8" />
<circle cx="982.0" cy="267.1" r="8" />
<circle cx="916.7" cy="296.3" r="8" />
<circle cx="884.3" cy="322.9" r="8" />
<circle cx="835.4" cy="340.9" r="8" />
<circle cx="775.3" cy="363.3" r="8" />
<circle cx="648.5" cy="325.6" r="8" />
<circle cx="616.7" cy="368.4" r="8" />
<circle cx="559.8" cy="421.8" r="8" />
<circle cx="528.6" cy="456.0" r="8" />
<style>
circle {
fill: white;
stroke: #004F71;
stroke-width: 4;
}
path {
fill: none;
stroke: #004F71;
stroke-width: 8;
}</style>
</svg>