<svg width="1024.0" height="969.8" xmlns="http://www.w3.org/2000/svg">
<path d="M972.6058651975878 12.0 L972.6 59.8 L972.2 60.2 L972.2 132.7 L1010.2 170.8 L1010.2 268.0 L1009.2 269.1 L1009.2 344.0 L1012.0 346.8 L1012.0 444.8 L1008.1 448.8 L936.5 520.3 L936.5 640.1 L936.5 664.4 L925.1 675.8 L911.2 689.6 L905.1 689.6 L791.2 689.6 L779.4 701.4 L754.5 726.3 L687.7 726.3 L658.9 726.3 L649.9 735.3 L625.0 760.2 L565.7 760.2 L511.6 760.2 L497.1 774.7 L467.4 804.4 L392.9 804.4 L352.4 804.4 L336.0 820.8 L300.3 856.6 L285.0 856.6 L263.2 856.6 L238.1 881.7 L217.3 902.5 L178.8 902.5 L141.7 902.5 L120.7 923.5 L101.1 943.1 L67.6 943.1 L26.6 943.1 L12.0 957.8 " />
<circle cx="972.6" cy="12.0" r="8" />
<circle cx="972.2" cy="60.2" r="8" />
<circle cx="1010.2" cy="170.8" r="8" />
<circle cx="1009.2" cy="269.1" r="8" />
<circle cx="1012.0" cy="346.8" r="8" />
<circle cx="1008.1" cy="448.8" r="8" />
<circle cx="936.5" cy="640.1" r="8" />
<circle cx="925.1" cy="675.8" r="8" />
<circle cx="905.1" cy="689.6" r="8" />
<circle cx="779.4" cy="701.4" r="8" />
<circle cx="687.7" cy="726.3" r="8" />
<circle cx="649.9" cy="735.3" r="8" />
<circle cx="565.7" cy="760.2" r="8" />
<circle cx="497.1" cy="774.7" r="8" />
<circle cx="392.9" cy="804.4" r="8" />
<circle cx="336.0" cy="820.8" r="8" />
<circle cx="285.0" cy="856.6" r="8" />
<circle cx="238.1" cy="881.7" r="8" />
<circle cx="178.8" cy="902.5" r="8" />
<circle cx="120.7" cy="923.5" r="8" />
<circle cx="67.6" cy="943.1" r="8" />
<circle cx="12.0" cy="957.8" r="8" />
<style>
circle {
fill: white;
stroke: #A2AAAD;
stroke-width: 4;
}
path {
fill: none;
stroke: #A2AAAD;
stroke-width: 8;
}</style>
</svg>