<svg width="1024.0" height="969.8" xmlns="http://www.w3.org/2000/svg">
<path d="M12.0 957.772841751655 L53.0 957.8 L67.6 943.1 L87.2 923.5 L120.7 923.5 L157.7 923.5 L178.8 902.5 L199.6 881.7 L238.1 881.7 L259.9 881.7 L285.0 856.6 L320.7 820.8 L336.0 820.8 L376.5 820.8 L392.9 804.4 L422.6 774.7 L497.1 774.7 L551.2 774.7 L565.7 760.2 L590.6 735.3 L649.9 735.3 L745.5 735.3 L779.4 701.4 L791.2 689.6 L905.1 689.6 L911.2 689.6 L925.1 675.8 L936.5 664.4 L936.5 640.1 L936.5 520.3 L1008.1 448.8 L1012.0 444.8 L1012.0 346.8 L1012.0 271.9 L1009.2 269.1 L1009.2 171.8 L1010.2 170.8 L1010.2 98.2 L972.2 60.2 L972.2 12.4 L972.6 12.0 " />
<circle cx="12.0" cy="957.8" r="8" />
<circle cx="67.6" cy="943.1" r="8" />
<circle cx="120.7" cy="923.5" r="8" />
<circle cx="178.8" cy="902.5" r="8" />
<circle cx="238.1" cy="881.7" r="8" />
<circle cx="285.0" cy="856.6" r="8" />
<circle cx="336.0" cy="820.8" r="8" />
<circle cx="392.9" cy="804.4" r="8" />
<circle cx="497.1" cy="774.7" r="8" />
<circle cx="565.7" cy="760.2" r="8" />
<circle cx="649.9" cy="735.3" r="8" />
<circle cx="779.4" cy="701.4" r="8" />
<circle cx="905.1" cy="689.6" r="8" />
<circle cx="925.1" cy="675.8" r="8" />
<circle cx="936.5" cy="640.1" r="8" />
<circle cx="1008.1" cy="448.8" r="8" />
<circle cx="1012.0" cy="346.8" r="8" />
<circle cx="1009.2" cy="269.1" r="8" />
<circle cx="1010.2" cy="170.8" r="8" />
<circle cx="972.2" cy="60.2" r="8" />
<circle cx="972.6" cy="12.0" r="8" />
<style>
circle {
fill: white;
stroke: #A2AAAD;
stroke-width: 4;
}
path {
fill: none;
stroke: #A2AAAD;
stroke-width: 8;
}</style>
</svg>