<svg width="1024.0" height="784.5" xmlns="http://www.w3.org/2000/svg">
<path d="M334.6332859949767 130.67093880396618 L245.4 219.9 L245.4 223.1 L245.4 319.9 L140.5 424.7 L96.4 468.8 L96.4 500.2 L96.4 542.2 L57.4 581.1 L12.0 626.5 L12.0 695.8 L176.8 695.8 L218.7 737.7 L253.5 772.5 L402.5 772.5 L566.0 772.5 L566.7 771.8 L600.9 737.7 L600.9 630.9 L600.9 574.8 L622.9 552.9 L649.2 526.5 L649.2 459.3 L680.6 490.6 L788.9 490.6 L951.8 490.6 L1012.0 550.9 L868.0 550.9 L702.2 385.1 L768.8 318.5 L768.8 244.7 L768.8 151.2 L786.1 133.9 L807.6 112.5 L807.6 84.7 L807.6 37.0 L832.6 12.0 " />
<circle cx="334.6" cy="130.7" r="8" />
<circle cx="245.4" cy="223.1" r="8" />
<circle cx="140.5" cy="424.7" r="8" />
<circle cx="96.4" cy="500.2" r="8" />
<circle cx="57.4" cy="581.1" r="8" />
<circle cx="12.0" cy="695.8" r="8" />
<circle cx="218.7" cy="737.7" r="8" />
<circle cx="402.5" cy="772.5" r="8" />
<circle cx="566.7" cy="771.8" r="8" />
<circle cx="600.9" cy="630.9" r="8" />
<circle cx="622.9" cy="552.9" r="8" />
<circle cx="649.2" cy="459.3" r="8" />
<circle cx="788.9" cy="490.6" r="8" />
<circle cx="1012.0" cy="550.9" r="8" />
<circle cx="702.2" cy="385.1" r="8" />
<circle cx="768.8" cy="244.7" r="8" />
<circle cx="786.1" cy="133.9" r="8" />
<circle cx="807.6" cy="84.7" r="8" />
<circle cx="832.6" cy="12.0" r="8" />
<style>
circle {
fill: white;
stroke: #525252;
stroke-width: 4;
}
path {
fill: none;
stroke: #525252;
stroke-width: 8;
}</style>
</svg>