<svg width="1024.0" height="784.5" xmlns="http://www.w3.org/2000/svg">
<path d="M832.550708397182 12.0 L832.6 59.7 L807.6 84.7 L786.1 106.2 L786.1 133.9 L786.1 227.4 L768.8 244.7 L702.2 311.3 L702.2 385.1 L702.2 406.3 L649.2 459.3 L680.6 490.6 L788.9 490.6 L951.8 490.6 L1012.0 550.9 L1010.0 552.9 L622.9 552.9 L600.9 574.8 L600.9 630.9 L600.9 737.7 L566.7 771.8 L566.0 772.5 L402.5 772.5 L253.5 772.5 L218.7 737.7 L176.8 695.8 L12.0 695.8 L57.4 650.3 L57.4 581.1 L57.4 539.1 L96.4 500.2 L140.5 456.1 L140.5 424.7 L140.5 328.0 L245.4 223.1 L334.6 133.8 L334.6 130.7 " />
<circle cx="832.6" cy="12.0" r="8" />
<circle cx="807.6" cy="84.7" r="8" />
<circle cx="786.1" cy="133.9" r="8" />
<circle cx="768.8" cy="244.7" r="8" />
<circle cx="702.2" cy="385.1" r="8" />
<circle cx="649.2" cy="459.3" r="8" />
<circle cx="788.9" cy="490.6" r="8" />
<circle cx="1012.0" cy="550.9" r="8" />
<circle cx="622.9" cy="552.9" r="8" />
<circle cx="600.9" cy="630.9" r="8" />
<circle cx="566.7" cy="771.8" r="8" />
<circle cx="402.5" cy="772.5" r="8" />
<circle cx="218.7" cy="737.7" r="8" />
<circle cx="12.0" cy="695.8" r="8" />
<circle cx="57.4" cy="581.1" r="8" />
<circle cx="96.4" cy="500.2" r="8" />
<circle cx="140.5" cy="424.7" r="8" />
<circle cx="245.4" cy="223.1" r="8" />
<circle cx="334.6" cy="130.7" r="8" />
<style>
circle {
fill: white;
stroke: #525252;
stroke-width: 4;
}
path {
fill: none;
stroke: #525252;
stroke-width: 8;
}</style>
</svg>