<svg width="1024.0" height="347.5" xmlns="http://www.w3.org/2000/svg">
<path d="M1012.0 149.5 L1006.6 154.9 L995.7 154.9 L971.2 154.9 L954.7 138.4 L946.5 130.2 L912.1 130.2 L893.0 130.2 L877.8 115.0 L850.6 87.8 L843.8 87.8 L840.5 87.8 L814.6 61.9 L791.0 61.9 L766.8 86.0 L748.8 104.0 L731.6 104.0 L690.5 104.0 L679.8 114.7 L669.9 104.8 L652.4 104.8 L590.0 104.8 L561.5 76.3 L548.2 63.0 L518.3 63.0 L466.7 63.0 L443.8 40.1 L426.2 22.4 L413.8 22.4 L285.3 22.4 L274.9 12.0 L263.4 23.5 L263.4 54.6 L292.3 54.6 L327.2 89.5 L346.6 108.9 L405.6 108.9 L430.1 108.9 L451.0 129.7 L439.3 141.4 L439.3 144.4 L439.3 181.6 L433.3 187.6 L403.5 217.4 L403.5 218.8 L403.5 224.3 L387.7 240.0 L328.5 299.3 L217.6 299.3 L104.6 299.3 L101.8 302.2 L99.6 304.3 L53.9 304.3 L19.2 304.3 L12.0 311.5 L26.1 325.6 L26.1 335.5 " />
<circle cx="1012.0" cy="149.5" r="8" />
<circle cx="995.7" cy="154.9" r="8" />
<circle cx="954.7" cy="138.4" r="8" />
<circle cx="912.1" cy="130.2" r="8" />
<circle cx="877.8" cy="115.0" r="8" />
<circle cx="843.8" cy="87.8" r="8" />
<circle cx="814.6" cy="61.9" r="8" />
<circle cx="766.8" cy="86.0" r="8" />
<circle cx="731.6" cy="104.0" r="8" />
<circle cx="679.8" cy="114.7" r="8" />
<circle cx="652.4" cy="104.8" r="8" />
<circle cx="561.5" cy="76.3" r="8" />
<circle cx="518.3" cy="63.0" r="8" />
<circle cx="443.8" cy="40.1" r="8" />
<circle cx="413.8" cy="22.4" r="8" />
<circle cx="274.9" cy="12.0" r="8" />
<circle cx="263.4" cy="54.6" r="8" />
<circle cx="327.2" cy="89.5" r="8" />
<circle cx="405.6" cy="108.9" r="8" />
<circle cx="451.0" cy="129.7" r="8" />
<circle cx="439.3" cy="144.4" r="8" />
<circle cx="433.3" cy="187.6" r="8" />
<circle cx="403.5" cy="218.8" r="8" />
<circle cx="387.7" cy="240.0" r="8" />
<circle cx="217.6" cy="299.3" r="8" />
<circle cx="101.8" cy="302.2" r="8" />
<circle cx="53.9" cy="304.3" r="8" />
<circle cx="12.0" cy="311.5" r="8" />
<circle cx="26.1" cy="335.5" r="8" />
<style>
circle {
fill: white;
stroke: #000000;
stroke-width: 4;
}
path {
fill: none;
stroke: #000000;
stroke-width: 8;
}</style>
</svg>