<svg width="440.8" height="1024.0" xmlns="http://www.w3.org/2000/svg">
<path d="M240.17260557267318 1012.0 L240.2 1009.4 L269.8 979.9 L323.6 926.0 L327.2 926.0 L327.2 914.9 L359.3 882.8 L378.3 863.8 L378.3 830.8 L378.3 804.8 L401.4 781.7 L417.9 765.2 L417.9 752.5 L417.9 732.7 L428.8 721.9 L417.9 710.9 L380.0 710.9 L304.7 710.9 L280.4 686.7 L274.1 680.4 L200.0 680.4 L146.5 680.4 L127.3 661.2 L119.1 653.0 L66.8 653.0 L25.2 653.0 L12.0 666.2 L12.0 632.8 L44.8 600.0 L54.9 589.9 L54.9 568.4 L54.9 462.3 L118.3 398.9 L121.8 395.4 L121.8 308.6 L121.8 242.2 L119.3 239.7 L120.2 238.8 L120.2 152.6 L120.2 88.4 L86.5 54.7 L86.9 54.3 L86.9 12.0 " />
<circle cx="240.2" cy="1012.0" r="8" />
<circle cx="269.8" cy="979.9" r="8" />
<circle cx="327.2" cy="926.0" r="8" />
<circle cx="359.3" cy="882.8" r="8" />
<circle cx="378.3" cy="830.8" r="8" />
<circle cx="401.4" cy="781.7" r="8" />
<circle cx="417.9" cy="752.5" r="8" />
<circle cx="428.8" cy="721.9" r="8" />
<circle cx="380.0" cy="710.9" r="8" />
<circle cx="280.4" cy="686.7" r="8" />
<circle cx="200.0" cy="680.4" r="8" />
<circle cx="127.3" cy="661.2" r="8" />
<circle cx="66.8" cy="653.0" r="8" />
<circle cx="12.0" cy="666.2" r="8" />
<circle cx="44.8" cy="600.0" r="8" />
<circle cx="54.9" cy="568.4" r="8" />
<circle cx="118.3" cy="398.9" r="8" />
<circle cx="121.8" cy="308.6" r="8" />
<circle cx="119.3" cy="239.7" r="8" />
<circle cx="120.2" cy="152.6" r="8" />
<circle cx="86.5" cy="54.7" r="8" />
<circle cx="86.9" cy="12.0" r="8" />
<style>
circle {
fill: white;
stroke: #CBA3D8;
stroke-width: 4;
}
path {
fill: none;
stroke: #CBA3D8;
stroke-width: 8;
}</style>
</svg>