<svg width="439.8" height="1024.0" xmlns="http://www.w3.org/2000/svg">
<path d="M237.77762470634784 1012.0 L269.2 980.6 L269.2 977.5 L322.9 923.8 L326.5 923.8 L358.4 891.9 L358.4 880.8 L358.4 847.8 L377.4 828.8 L400.5 805.7 L400.5 779.9 L400.5 767.2 L417.0 750.7 L427.8 739.9 L427.8 720.2 L416.9 709.3 L379.2 709.3 L304.0 709.3 L279.8 685.1 L273.5 678.8 L199.5 678.8 L146.2 678.8 L127.0 659.6 L118.8 651.4 L66.7 651.4 L25.2 651.4 L12.0 664.6 L44.7 631.9 L44.7 598.6 L44.7 577.2 L54.8 567.1 L118.1 503.8 L118.1 398.0 L118.1 311.4 L121.5 307.9 L121.5 241.7 L119.1 239.2 L119.1 153.2 L120.0 152.3 L120.0 88.2 L86.4 54.6 L86.4 12.4 L86.7 12.0 " />
<circle cx="237.8" cy="1012.0" r="8" />
<circle cx="269.2" cy="977.5" r="8" />
<circle cx="326.5" cy="923.8" r="8" />
<circle cx="358.4" cy="880.8" r="8" />
<circle cx="377.4" cy="828.8" r="8" />
<circle cx="400.5" cy="779.9" r="8" />
<circle cx="417.0" cy="750.7" r="8" />
<circle cx="427.8" cy="720.2" r="8" />
<circle cx="379.2" cy="709.3" r="8" />
<circle cx="279.8" cy="685.1" r="8" />
<circle cx="199.5" cy="678.8" r="8" />
<circle cx="127.0" cy="659.6" r="8" />
<circle cx="66.7" cy="651.4" r="8" />
<circle cx="12.0" cy="664.6" r="8" />
<circle cx="44.7" cy="598.6" r="8" />
<circle cx="54.8" cy="567.1" r="8" />
<circle cx="118.1" cy="398.0" r="8" />
<circle cx="121.5" cy="307.9" r="8" />
<circle cx="119.1" cy="239.2" r="8" />
<circle cx="120.0" cy="152.3" r="8" />
<circle cx="86.4" cy="54.6" r="8" />
<circle cx="86.7" cy="12.0" r="8" />
<style>
circle {
fill: white;
stroke: #CBA3D8;
stroke-width: 4;
}
path {
fill: none;
stroke: #CBA3D8;
stroke-width: 8;
}</style>
</svg>