<svg width="1024.0" height="886.9" xmlns="http://www.w3.org/2000/svg">
<path d="M12.0 874.933879261556 L12.0 829.4 L30.6 810.8 L82.5 758.9 L82.5 722.7 L83.6 722.7 L138.3 668.0 L160.0 646.3 L160.0 605.2 L176.3 621.5 L344.6 621.5 L344.6 565.3 L364.4 545.5 L378.9 531.0 L378.9 485.3 L378.9 448.3 L408.9 418.3 L479.4 347.9 L535.7 347.9 L575.4 347.9 L626.9 296.3 L671.9 251.4 L750.5 251.4 L832.6 251.4 L947.6 136.4 L977.9 106.2 L977.9 48.4 L977.9 46.1 L1012.0 12.0 " />
<circle cx="12.0" cy="874.9" r="8" />
<circle cx="30.6" cy="810.8" r="8" />
<circle cx="82.5" cy="722.7" r="8" />
<circle cx="138.3" cy="668.0" r="8" />
<circle cx="160.0" cy="605.2" r="8" />
<circle cx="344.6" cy="621.5" r="8" />
<circle cx="364.4" cy="545.5" r="8" />
<circle cx="378.9" cy="485.3" r="8" />
<circle cx="408.9" cy="418.3" r="8" />
<circle cx="535.7" cy="347.9" r="8" />
<circle cx="626.9" cy="296.3" r="8" />
<circle cx="750.5" cy="251.4" r="8" />
<circle cx="947.6" cy="136.4" r="8" />
<circle cx="977.9" cy="48.4" r="8" />
<circle cx="1012.0" cy="12.0" r="8" />
<style>
circle {
fill: white;
stroke: #525252;
stroke-width: 4;
}
path {
fill: none;
stroke: #525252;
stroke-width: 8;
}</style>
</svg>