<svg width="1024.0" height="593.4" xmlns="http://www.w3.org/2000/svg">
<path d="M1012.0 515.7 L1008.2 519.5 L1008.2 559.5 L1008.2 572.2 L999.0 581.4 L989.3 571.7 L897.3 571.7 L831.1 571.7 L796.1 536.7 L754.7 495.3 L732.1 495.3 L696.0 495.3 L670.5 469.7 L673.3 466.9 L673.3 432.3 L659.2 432.3 L637.4 410.6 L615.9 389.1 L559.0 389.1 L559.0 349.6 L570.8 337.8 L625.6 283.0 L628.0 283.0 L595.6 250.7 L593.0 250.7 L548.1 250.7 L523.9 274.9 L517.9 280.9 L483.4 280.9 L482.2 280.9 L432.7 231.4 L445.3 218.8 L445.3 208.3 L445.3 186.0 L422.4 163.1 L372.6 113.3 L363.6 113.3 L358.6 113.3 L328.6 83.3 L329.8 83.3 L345.3 67.9 L314.0 36.7 L288.0 36.7 L257.7 36.7 L233.1 12.0 L217.0 12.0 L209.2 19.7 L144.2 84.7 L85.2 84.7 L55.6 84.7 L12.0 128.4 " />
<circle cx="1012.0" cy="515.7" r="8" />
<circle cx="1008.2" cy="559.5" r="8" />
<circle cx="999.0" cy="581.4" r="8" />
<circle cx="897.3" cy="571.7" r="8" />
<circle cx="796.1" cy="536.7" r="8" />
<circle cx="732.1" cy="495.3" r="8" />
<circle cx="670.5" cy="469.7" r="8" />
<circle cx="673.3" cy="432.3" r="8" />
<circle cx="637.4" cy="410.6" r="8" />
<circle cx="559.0" cy="389.1" r="8" />
<circle cx="570.8" cy="337.8" r="8" />
<circle cx="628.0" cy="283.0" r="8" />
<circle cx="593.0" cy="250.7" r="8" />
<circle cx="523.9" cy="274.9" r="8" />
<circle cx="483.4" cy="280.9" r="8" />
<circle cx="432.7" cy="231.4" r="8" />
<circle cx="445.3" cy="208.3" r="8" />
<circle cx="422.4" cy="163.1" r="8" />
<circle cx="363.6" cy="113.3" r="8" />
<circle cx="328.6" cy="83.3" r="8" />
<circle cx="345.3" cy="67.9" r="8" />
<circle cx="288.0" cy="36.7" r="8" />
<circle cx="233.1" cy="12.0" r="8" />
<circle cx="209.2" cy="19.7" r="8" />
<circle cx="85.2" cy="84.7" r="8" />
<circle cx="12.0" cy="128.4" r="8" />
<style>
circle {
fill: white;
stroke: #525252;
stroke-width: 4;
}
path {
fill: none;
stroke: #525252;
stroke-width: 8;
}</style>
</svg>