<svg width="1024.0" height="592.8" xmlns="http://www.w3.org/2000/svg">
<path d="M1012.0 515.2 L1008.2 519.0 L1008.2 558.9 L1008.2 571.7 L999.0 580.8 L989.4 571.1 L897.4 571.1 L831.3 571.1 L796.4 536.2 L755.0 494.8 L732.4 494.8 L696.4 494.8 L670.8 469.3 L673.6 466.5 L673.6 431.9 L659.6 431.9 L637.8 410.2 L616.3 388.7 L559.5 388.7 L559.5 349.3 L571.3 337.5 L626.0 282.8 L628.3 282.8 L596.0 250.4 L593.5 250.4 L548.6 250.4 L524.3 274.7 L518.4 280.6 L483.9 280.6 L482.8 280.6 L433.3 231.2 L445.9 218.6 L445.9 208.1 L445.9 185.9 L423.0 162.9 L373.2 113.2 L364.2 113.2 L359.3 113.2 L329.3 83.3 L330.5 83.3 L345.9 67.8 L314.7 36.7 L288.7 36.7 L258.5 36.7 L233.8 12.0 L217.8 12.0 L210.0 19.7 L145.1 84.7 L86.1 84.7 L56.3 84.7 L12.0 129.0 " />
<circle cx="1012.0" cy="515.2" r="8" />
<circle cx="1008.2" cy="558.9" r="8" />
<circle cx="999.0" cy="580.8" r="8" />
<circle cx="897.4" cy="571.1" r="8" />
<circle cx="796.4" cy="536.2" r="8" />
<circle cx="732.4" cy="494.8" r="8" />
<circle cx="670.8" cy="469.3" r="8" />
<circle cx="673.6" cy="431.9" r="8" />
<circle cx="637.8" cy="410.2" r="8" />
<circle cx="559.5" cy="388.7" r="8" />
<circle cx="571.3" cy="337.5" r="8" />
<circle cx="628.3" cy="282.8" r="8" />
<circle cx="593.5" cy="250.4" r="8" />
<circle cx="524.3" cy="274.7" r="8" />
<circle cx="483.9" cy="280.6" r="8" />
<circle cx="433.3" cy="231.2" r="8" />
<circle cx="445.9" cy="208.1" r="8" />
<circle cx="423.0" cy="162.9" r="8" />
<circle cx="364.2" cy="113.2" r="8" />
<circle cx="329.3" cy="83.3" r="8" />
<circle cx="345.9" cy="67.8" r="8" />
<circle cx="288.7" cy="36.7" r="8" />
<circle cx="233.8" cy="12.0" r="8" />
<circle cx="210.0" cy="19.7" r="8" />
<circle cx="86.1" cy="84.7" r="8" />
<circle cx="12.0" cy="129.0" r="8" />
<style>
circle {
fill: white;
stroke: #525252;
stroke-width: 4;
}
path {
fill: none;
stroke: #525252;
stroke-width: 8;
}</style>
</svg>