<svg width="1024.0" height="593.0" xmlns="http://www.w3.org/2000/svg">
<path d="M902.7 581.0 L902.7 547.4 L916.5 533.7 L954.8 495.4 L954.8 468.6 L955.6 468.6 L996.0 428.2 L1012.0 412.2 L1012.0 381.9 L898.2 381.9 L855.7 339.3 L844.6 328.3 L783.3 328.3 L722.0 328.3 L693.7 299.9 L682.6 288.8 L611.7 288.8 L554.3 288.8 L551.3 285.8 L549.7 284.3 L485.8 284.3 L373.1 284.3 L364.2 293.2 L352.2 281.1 L280.0 281.1 L301.0 260.1 L305.1 260.1 L271.6 226.6 L268.9 226.6 L222.3 226.6 L197.2 251.7 L191.0 257.9 L155.2 257.9 L154.0 257.9 L102.7 206.6 L115.8 193.5 L115.8 182.6 L115.8 151.8 L135.4 132.1 L109.8 106.5 L109.8 96.5 L87.8 96.5 L54.4 63.1 L28.3 37.1 L12.0 37.1 L37.1 12.0 L39.3 12.0 " />
<circle cx="902.7" cy="581.0" r="8" />
<circle cx="916.5" cy="533.7" r="8" />
<circle cx="954.8" cy="468.6" r="8" />
<circle cx="996.0" cy="428.2" r="8" />
<circle cx="1012.0" cy="381.9" r="8" />
<circle cx="855.7" cy="339.3" r="8" />
<circle cx="783.3" cy="328.3" r="8" />
<circle cx="693.7" cy="299.9" r="8" />
<circle cx="611.7" cy="288.8" r="8" />
<circle cx="551.3" cy="285.8" r="8" />
<circle cx="485.8" cy="284.3" r="8" />
<circle cx="364.2" cy="293.2" r="8" />
<circle cx="280.0" cy="281.1" r="8" />
<circle cx="305.1" cy="260.1" r="8" />
<circle cx="268.9" cy="226.6" r="8" />
<circle cx="197.2" cy="251.7" r="8" />
<circle cx="155.2" cy="257.9" r="8" />
<circle cx="102.7" cy="206.6" r="8" />
<circle cx="115.8" cy="182.6" r="8" />
<circle cx="135.4" cy="132.1" r="8" />
<circle cx="109.8" cy="96.5" r="8" />
<circle cx="54.4" cy="63.1" r="8" />
<circle cx="12.0" cy="37.1" r="8" />
<circle cx="39.3" cy="12.0" r="8" />
<style>
circle {
fill: white;
stroke: #525252;
stroke-width: 4;
}
path {
fill: none;
stroke: #525252;
stroke-width: 8;
}</style>
</svg>