<svg width="1024.0" height="764.2" xmlns="http://www.w3.org/2000/svg">
<path d="M670.5 12.0 L683.6 25.0 L766.7 25.0 L739.4 52.3 L739.4 73.4 L739.4 121.2 L733.9 126.7 L725.1 135.5 L675.3 135.5 L632.0 135.5 L608.9 158.6 L565.8 201.7 L565.4 201.7 L565.4 211.1 L496.1 280.4 L472.0 304.6 L462.9 304.6 L462.9 317.0 L435.9 343.9 L486.4 343.9 L505.0 362.5 L507.5 359.9 L574.8 359.9 L657.1 359.9 L667.1 349.9 L675.7 341.4 L762.3 341.4 L880.0 341.4 L891.6 353.0 L893.5 354.9 L1012.0 354.9 L985.3 381.6 L985.3 439.6 L985.3 473.9 L959.7 499.5 L921.3 537.9 L921.3 543.2 L921.3 568.8 L907.2 582.9 L885.8 604.4 L885.8 620.9 L885.8 654.5 L855.8 684.6 L831.0 709.3 L831.0 752.2 L668.8 752.2 L637.7 721.1 L624.9 708.3 L488.3 708.3 L460.7 708.3 L444.5 692.1 L414.1 661.7 L286.9 661.7 L215.9 661.7 L174.0 619.8 L143.8 589.6 L65.9 589.6 L65.9 551.2 L94.9 522.3 L101.3 515.9 L101.3 455.6 L101.3 361.9 L96.9 357.5 L132.3 322.1 L132.3 277.8 L28.6 277.8 L12.0 261.2 " />
<circle cx="670.5" cy="12.0" r="8" />
<circle cx="766.7" cy="25.0" r="8" />
<circle cx="739.4" cy="73.4" r="8" />
<circle cx="733.9" cy="126.7" r="8" />
<circle cx="675.3" cy="135.5" r="8" />
<circle cx="608.9" cy="158.6" r="8" />
<circle cx="565.4" cy="201.7" r="8" />
<circle cx="496.1" cy="280.4" r="8" />
<circle cx="462.9" cy="304.6" r="8" />
<circle cx="435.9" cy="343.9" r="8" />
<circle cx="505.0" cy="362.5" r="8" />
<circle cx="574.8" cy="359.9" r="8" />
<circle cx="667.1" cy="349.9" r="8" />
<circle cx="762.3" cy="341.4" r="8" />
<circle cx="891.6" cy="353.0" r="8" />
<circle cx="1012.0" cy="354.9" r="8" />
<circle cx="985.3" cy="439.6" r="8" />
<circle cx="959.7" cy="499.5" r="8" />
<circle cx="921.3" cy="543.2" r="8" />
<circle cx="907.2" cy="582.9" r="8" />
<circle cx="885.8" cy="620.9" r="8" />
<circle cx="855.8" cy="684.6" r="8" />
<circle cx="831.0" cy="752.2" r="8" />
<circle cx="637.7" cy="721.1" r="8" />
<circle cx="488.3" cy="708.3" r="8" />
<circle cx="444.5" cy="692.1" r="8" />
<circle cx="286.9" cy="661.7" r="8" />
<circle cx="174.0" cy="619.8" r="8" />
<circle cx="65.9" cy="589.6" r="8" />
<circle cx="94.9" cy="522.3" r="8" />
<circle cx="101.3" cy="455.6" r="8" />
<circle cx="96.9" cy="357.5" r="8" />
<circle cx="132.3" cy="277.8" r="8" />
<circle cx="12.0" cy="261.2" r="8" />
<style>
circle {
fill: white;
stroke: #003594;
stroke-width: 4;
}
path {
fill: none;
stroke: #003594;
stroke-width: 8;
}</style>
</svg>