<svg width="1024.0" height="515.6" xmlns="http://www.w3.org/2000/svg">
<path d="M12.0 12.0 L27.9 27.9 L130.0 27.9 L94.4 63.5 L94.4 107.9 L94.4 196.7 L103.1 205.4 L92.4 216.1 L92.4 273.1 L92.4 311.5 L63.4 340.5 L141.5 340.5 L171.8 370.8 L213.8 412.8 L285.0 412.8 L412.5 412.8 L443.0 443.3 L459.2 459.5 L486.9 459.5 L623.8 459.5 L636.7 472.4 L667.9 503.6 L830.5 503.6 L830.5 460.6 L855.3 435.8 L885.4 405.7 L885.4 371.9 L885.4 355.4 L907.0 333.9 L921.1 319.7 L921.1 294.0 L921.1 288.7 L959.6 250.2 L985.2 224.6 L985.2 190.2 L985.2 132.0 L1012.0 105.2 L1010.1 103.3 L891.3 103.3 L773.2 103.3 L761.6 91.7 L674.8 91.7 L666.2 100.2 L656.2 110.3 L573.6 110.3 L562.1 110.3 L535.6 136.8 L531.9 133.1 L494.0 133.1 L423.5 133.1 L421.2 135.4 L421.2 107.4 L434.3 94.2 L451.3 111.2 L496.1 111.2 " />
<circle cx="12.0" cy="12.0" r="8" />
<circle cx="130.0" cy="27.9" r="8" />
<circle cx="94.4" cy="107.9" r="8" />
<circle cx="103.1" cy="205.4" r="8" />
<circle cx="92.4" cy="273.1" r="8" />
<circle cx="63.4" cy="340.5" r="8" />
<circle cx="171.8" cy="370.8" r="8" />
<circle cx="285.0" cy="412.8" r="8" />
<circle cx="443.0" cy="443.3" r="8" />
<circle cx="486.9" cy="459.5" r="8" />
<circle cx="636.7" cy="472.4" r="8" />
<circle cx="830.5" cy="503.6" r="8" />
<circle cx="855.3" cy="435.8" r="8" />
<circle cx="885.4" cy="371.9" r="8" />
<circle cx="907.0" cy="333.9" r="8" />
<circle cx="921.1" cy="294.0" r="8" />
<circle cx="959.6" cy="250.2" r="8" />
<circle cx="985.2" cy="190.2" r="8" />
<circle cx="1012.0" cy="105.2" r="8" />
<circle cx="891.3" cy="103.3" r="8" />
<circle cx="761.6" cy="91.7" r="8" />
<circle cx="666.2" cy="100.2" r="8" />
<circle cx="573.6" cy="110.3" r="8" />
<circle cx="535.6" cy="136.8" r="8" />
<circle cx="494.0" cy="133.1" r="8" />
<circle cx="421.2" cy="135.4" r="8" />
<circle cx="434.3" cy="94.2" r="8" />
<circle cx="496.1" cy="111.2" r="8" />
<style>
circle {
fill: white;
stroke: #003594;
stroke-width: 4;
}
path {
fill: none;
stroke: #003594;
stroke-width: 8;
}</style>
</svg>