<svg width="1024.0" height="858.7" xmlns="http://www.w3.org/2000/svg">
<path d="M1012.0000000000001 791.3994432056282 L982.3 761.7 L976.6 761.7 L938.4 723.4 L938.4 715.9 L937.2 715.9 L923.5 729.6 L893.1 760.1 L883.2 760.1 L867.0 760.1 L845.7 781.4 L838.1 789.0 L804.4 789.0 L765.0 789.0 L724.2 829.8 L707.3 846.7 L684.1 846.7 L636.4 846.7 L634.0 844.3 L598.7 809.0 L598.7 801.4 L564.6 801.4 L552.6 789.4 L538.6 775.4 L510.1 775.4 L496.2 775.4 L470.5 801.1 L448.8 779.4 L335.6 779.4 L240.3 779.4 L231.3 770.4 L220.1 759.2 L200.8 759.2 L112.0 759.2 L90.8 737.9 L61.6 708.7 L12.0 708.7 L48.9 671.8 L54.7 671.8 L54.7 668.2 L85.1 637.8 L118.2 604.8 L155.9 604.8 L155.9 594.3 L169.7 580.5 L185.6 564.6 L185.6 544.8 L185.6 525.4 L194.8 516.2 L236.8 474.2 L236.8 471.9 L236.8 465.3 L285.2 416.9 L252.2 383.9 L252.2 362.6 L286.2 362.6 L293.3 355.5 L319.2 329.7 L354.4 329.7 L404.2 329.7 L406.6 327.3 L425.6 308.3 L425.6 293.6 L425.6 278.2 L447.1 256.7 L450.1 253.6 L450.1 228.0 L450.1 227.6 L489.7 188.0 L480.9 179.2 L480.9 165.9 L434.9 165.9 L407.9 138.8 L401.2 132.2 L379.3 132.2 L330.9 132.2 L323.8 139.2 L323.8 114.0 L324.7 113.1 L324.2 112.6 L324.2 84.7 L324.2 56.3 L328.1 52.4 L278.8 52.4 L277.0 54.2 L273.5 50.7 L223.4 50.7 L223.4 12.3 L223.8 12.0 " />
<circle cx="1012.0" cy="791.4" r="8" />
<circle cx="976.6" cy="761.7" r="8" />
<circle cx="938.4" cy="715.9" r="8" />
<circle cx="923.5" cy="729.6" r="8" />
<circle cx="883.2" cy="760.1" r="8" />
<circle cx="845.7" cy="781.4" r="8" />
<circle cx="804.4" cy="789.0" r="8" />
<circle cx="724.2" cy="829.8" r="8" />
<circle cx="684.1" cy="846.7" r="8" />
<circle cx="634.0" cy="844.3" r="8" />
<circle cx="598.7" cy="801.4" r="8" />
<circle cx="552.6" cy="789.4" r="8" />
<circle cx="510.1" cy="775.4" r="8" />
<circle cx="470.5" cy="801.1" r="8" />
<circle cx="335.6" cy="779.4" r="8" />
<circle cx="231.3" cy="770.4" r="8" />
<circle cx="200.8" cy="759.2" r="8" />
<circle cx="90.8" cy="737.9" r="8" />
<circle cx="12.0" cy="708.7" r="8" />
<circle cx="54.7" cy="671.8" r="8" />
<circle cx="85.1" cy="637.8" r="8" />
<circle cx="155.9" cy="604.8" r="8" />
<circle cx="169.7" cy="580.5" r="8" />
<circle cx="185.6" cy="544.8" r="8" />
<circle cx="194.8" cy="516.2" r="8" />
<circle cx="236.8" cy="471.9" r="8" />
<circle cx="285.2" cy="416.9" r="8" />
<circle cx="252.2" cy="362.6" r="8" />
<circle cx="293.3" cy="355.5" r="8" />
<circle cx="354.4" cy="329.7" r="8" />
<circle cx="406.6" cy="327.3" r="8" />
<circle cx="425.6" cy="293.6" r="8" />
<circle cx="447.1" cy="256.7" r="8" />
<circle cx="450.1" cy="228.0" r="8" />
<circle cx="489.7" cy="188.0" r="8" />
<circle cx="480.9" cy="165.9" r="8" />
<circle cx="407.9" cy="138.8" r="8" />
<circle cx="379.3" cy="132.2" r="8" />
<circle cx="323.8" cy="139.2" r="8" />
<circle cx="324.7" cy="113.1" r="8" />
<circle cx="324.2" cy="84.7" r="8" />
<circle cx="328.1" cy="52.4" r="8" />
<circle cx="277.0" cy="54.2" r="8" />
<circle cx="223.4" cy="50.7" r="8" />
<circle cx="223.8" cy="12.0" r="8" />
<style>
circle {
fill: white;
stroke: #000000;
stroke-width: 4;
}
path {
fill: none;
stroke: #000000;
stroke-width: 8;
}</style>
</svg>