<svg width="1023.7" height="1024.0" xmlns="http://www.w3.org/2000/svg">
<path d="M995.2 12.0 L961.3 45.9 L961.3 59.5 L961.3 71.0 L953.5 78.8 L964.1 89.4 L964.1 103.9 L964.1 138.6 L974.6 149.0 L988.6 163.1 L988.6 172.0 L988.6 194.9 L997.4 203.7 L1006.5 212.8 L1006.5 230.7 L1006.5 263.8 L1003.3 267.0 L1011.0 274.7 L1011.0 308.1 L1011.0 342.3 L1001.1 352.2 L1009.6 360.7 L1009.6 388.2 L1009.6 428.7 L1010.0 429.0 L987.0 452.0 L987.0 465.4 L987.0 500.2 L1000.3 513.5 L1004.6 517.8 L1004.6 550.5 L1004.6 577.2 L995.7 586.1 L1003.5 593.8 L1003.5 627.2 L1003.5 657.6 L1011.7 665.8 L987.5 665.8 L934.3 718.9 L931.3 722.0 L931.3 753.8 L931.3 763.9 L924.0 771.2 L916.3 763.5 L843.0 763.5 L779.0 763.5 L767.8 752.3 L731.2 752.3 L710.6 772.9 L702.0 781.5 L702.0 799.8 L702.0 817.6 L687.6 832.0 L674.1 845.4 L674.1 855.9 L638.8 855.9 L607.8 886.9 L595.6 874.7 L539.4 874.7 L523.8 874.7 L494.5 845.4 L449.5 845.4 L431.6 863.3 L420.7 874.2 L380.0 874.2 L324.0 874.2 L301.6 896.5 L289.3 908.9 L258.8 908.9 L247.3 908.9 L220.4 935.7 L201.5 954.6 L185.2 954.6 L156.2 954.6 L140.5 970.3 L124.7 986.1 L96.8 986.1 L71.6 986.1 L56.9 1000.9 L45.8 1012.0 L12.0 1012.0 " />
<circle cx="995.2" cy="12.0" r="8" />
<circle cx="961.3" cy="59.5" r="8" />
<circle cx="953.5" cy="78.8" r="8" />
<circle cx="964.1" cy="103.9" r="8" />
<circle cx="974.6" cy="149.0" r="8" />
<circle cx="988.6" cy="172.0" r="8" />
<circle cx="997.4" cy="203.7" r="8" />
<circle cx="1006.5" cy="230.7" r="8" />
<circle cx="1003.3" cy="267.0" r="8" />
<circle cx="1011.0" cy="308.1" r="8" />
<circle cx="1001.1" cy="352.2" r="8" />
<circle cx="1009.6" cy="388.2" r="8" />
<circle cx="1010.0" cy="429.0" r="8" />
<circle cx="987.0" cy="465.4" r="8" />
<circle cx="1000.3" cy="513.5" r="8" />
<circle cx="1004.6" cy="550.5" r="8" />
<circle cx="995.7" cy="586.1" r="8" />
<circle cx="1003.5" cy="627.2" r="8" />
<circle cx="1011.7" cy="665.8" r="8" />
<circle cx="934.3" cy="718.9" r="8" />
<circle cx="931.3" cy="753.8" r="8" />
<circle cx="924.0" cy="771.2" r="8" />
<circle cx="843.0" cy="763.5" r="8" />
<circle cx="767.8" cy="752.3" r="8" />
<circle cx="710.6" cy="772.9" r="8" />
<circle cx="702.0" cy="799.8" r="8" />
<circle cx="687.6" cy="832.0" r="8" />
<circle cx="674.1" cy="855.9" r="8" />
<circle cx="607.8" cy="886.9" r="8" />
<circle cx="539.4" cy="874.7" r="8" />
<circle cx="494.5" cy="845.4" r="8" />
<circle cx="431.6" cy="863.3" r="8" />
<circle cx="380.0" cy="874.2" r="8" />
<circle cx="301.6" cy="896.5" r="8" />
<circle cx="258.8" cy="908.9" r="8" />
<circle cx="220.4" cy="935.7" r="8" />
<circle cx="185.2" cy="954.6" r="8" />
<circle cx="140.5" cy="970.3" r="8" />
<circle cx="96.8" cy="986.1" r="8" />
<circle cx="56.9" cy="1000.9" r="8" />
<circle cx="12.0" cy="1012.0" r="8" />
<style>
circle {
fill: white;
stroke: #000000;
stroke-width: 4;
}
path {
fill: none;
stroke: #000000;
stroke-width: 8;
}</style>
</svg>