<svg width="906.8" height="1024.0" xmlns="http://www.w3.org/2000/svg">
<path d="M263.4031813319265 12.0 L240.6 12.0 L222.9 29.7 L222.9 76.1 L246.1 99.3 L267.9 121.1 L267.9 131.8 L267.9 155.7 L249.7 173.9 L194.3 229.3 L171.0 229.3 L145.3 255.0 L145.3 274.8 L177.0 306.5 L214.1 306.5 L261.1 306.5 L294.5 339.9 L341.5 386.9 L357.4 386.9 L347.7 386.9 L321.8 412.8 L292.9 441.7 L292.9 455.0 L292.9 484.9 L278.8 499.0 L254.4 523.4 L254.4 553.8 L254.4 569.8 L233.1 591.1 L182.3 641.9 L124.4 641.9 L77.6 688.7 L77.6 694.2 L20.9 750.9 L12.0 750.9 L88.2 750.9 L133.1 795.8 L165.7 828.4 L302.1 828.4 L331.7 828.4 L349.1 845.7 L362.8 859.5 L509.3 859.5 L683.3 859.5 L716.6 892.8 L769.6 945.8 L894.8 945.8 L894.8 947.3 L857.3 984.8 L830.1 1012.0 L816.8 1012.0 " />
<circle cx="263.4" cy="12.0" r="8" />
<circle cx="222.9" cy="29.7" r="8" />
<circle cx="246.1" cy="99.3" r="8" />
<circle cx="267.9" cy="131.8" r="8" />
<circle cx="249.7" cy="173.9" r="8" />
<circle cx="171.0" cy="229.3" r="8" />
<circle cx="145.3" cy="274.8" r="8" />
<circle cx="214.1" cy="306.5" r="8" />
<circle cx="294.5" cy="339.9" r="8" />
<circle cx="357.4" cy="386.9" r="8" />
<circle cx="321.8" cy="412.8" r="8" />
<circle cx="292.9" cy="455.0" r="8" />
<circle cx="278.8" cy="499.0" r="8" />
<circle cx="254.4" cy="553.8" r="8" />
<circle cx="233.1" cy="591.1" r="8" />
<circle cx="124.4" cy="641.9" r="8" />
<circle cx="77.6" cy="694.2" r="8" />
<circle cx="12.0" cy="750.9" r="8" />
<circle cx="133.1" cy="795.8" r="8" />
<circle cx="302.1" cy="828.4" r="8" />
<circle cx="349.1" cy="845.7" r="8" />
<circle cx="509.3" cy="859.5" r="8" />
<circle cx="716.6" cy="892.8" r="8" />
<circle cx="894.8" cy="945.8" r="8" />
<circle cx="857.3" cy="984.8" r="8" />
<circle cx="816.8" cy="1012.0" r="8" />
<style>
circle {
fill: white;
stroke: #3CDBC0;
stroke-width: 4;
}
path {
fill: none;
stroke: #3CDBC0;
stroke-width: 8;
}</style>
</svg>