<svg width="1024.0" height="127.6" xmlns="http://www.w3.org/2000/svg">
<path d="M1012.0 91.9 L995.0 74.9 L885.6 74.9 L817.7 74.9 L806.8 63.9 L796.1 53.3 L729.3 53.3 L668.8 53.3 L653.6 38.1 L650.9 35.3 L602.0 35.3 L556.7 35.3 L553.1 31.8 L542.6 42.4 L542.6 81.5 L542.6 107.4 L534.4 115.6 L524.3 105.5 L481.9 105.5 L374.1 105.5 L361.4 92.8 L347.0 78.4 L296.4 78.4 L255.1 78.4 L247.7 71.0 L228.2 51.4 L186.6 51.4 L167.3 32.2 L167.3 20.9 L109.4 20.9 L100.5 12.0 L34.4 12.0 L12.0 34.4 L35.5 34.4 L59.4 58.3 " />
<circle cx="1012.0" cy="91.9" r="8" />
<circle cx="885.6" cy="74.9" r="8" />
<circle cx="806.8" cy="63.9" r="8" />
<circle cx="729.3" cy="53.3" r="8" />
<circle cx="653.6" cy="38.1" r="8" />
<circle cx="602.0" cy="35.3" r="8" />
<circle cx="553.1" cy="31.8" r="8" />
<circle cx="542.6" cy="81.5" r="8" />
<circle cx="534.4" cy="115.6" r="8" />
<circle cx="481.9" cy="105.5" r="8" />
<circle cx="361.4" cy="92.8" r="8" />
<circle cx="296.4" cy="78.4" r="8" />
<circle cx="247.7" cy="71.0" r="8" />
<circle cx="186.6" cy="51.4" r="8" />
<circle cx="167.3" cy="20.9" r="8" />
<circle cx="100.5" cy="12.0" r="8" />
<circle cx="12.0" cy="34.4" r="8" />
<circle cx="59.4" cy="58.3" r="8" />
<style>
circle {
fill: white;
stroke: #525252;
stroke-width: 4;
}
path {
fill: none;
stroke: #525252;
stroke-width: 8;
}</style>
</svg>