<svg width="1024.0" height="108.2" xmlns="http://www.w3.org/2000/svg">
<path d="M12.0 37.2 L37.2 12.0 L90.0 12.0 L124.8 12.0 L142.9 30.2 L163.1 50.3 L205.9 50.3 L248.4 50.3 L256.0 57.9 L270.8 72.7 L323.0 72.7 L433.9 72.7 L447.0 85.8 L457.4 96.2 L501.1 96.2 L501.1 69.6 L509.5 61.2 L557.1 13.6 L570.7 13.6 L621.0 13.6 L623.9 16.4 L639.5 32.0 L701.8 32.0 L770.6 32.0 L781.6 43.0 L792.9 54.3 L862.8 54.3 L1007.8 54.3 L1012.0 58.5 " />
<circle cx="12.0" cy="37.2" r="8" />
<circle cx="90.0" cy="12.0" r="8" />
<circle cx="142.9" cy="30.2" r="8" />
<circle cx="205.9" cy="50.3" r="8" />
<circle cx="256.0" cy="57.9" r="8" />
<circle cx="323.0" cy="72.7" r="8" />
<circle cx="447.0" cy="85.8" r="8" />
<circle cx="501.1" cy="96.2" r="8" />
<circle cx="509.5" cy="61.2" r="8" />
<circle cx="570.7" cy="13.6" r="8" />
<circle cx="623.9" cy="16.4" r="8" />
<circle cx="701.8" cy="32.0" r="8" />
<circle cx="781.6" cy="43.0" r="8" />
<circle cx="862.8" cy="54.3" r="8" />
<circle cx="1012.0" cy="58.5" r="8" />
<style>
circle {
fill: white;
stroke: #525252;
stroke-width: 4;
}
path {
fill: none;
stroke: #525252;
stroke-width: 8;
}</style>
</svg>