<svg width="1024.0" height="676.6" xmlns="http://www.w3.org/2000/svg">
<path d="M1012.0 664.6 L983.7 636.3 L977.6 636.3 L975.2 636.3 L949.3 610.4 L818.9 479.9 L818.9 464.4 L818.9 323.7 L608.9 113.8 L552.8 169.9 L552.8 211.1 L552.8 234.8 L566.5 248.4 L554.9 260.0 L554.9 292.2 L554.9 328.8 L577.7 351.6 L513.5 351.6 L478.7 316.9 L363.8 316.9 L362.6 318.1 L354.8 310.4 L291.8 310.4 L223.8 310.4 L211.1 297.6 L193.6 280.2 L139.1 280.2 L78.4 280.2 L67.8 269.6 L54.9 256.7 L12.0 256.7 L46.3 222.4 L73.9 222.4 L73.9 219.2 L117.7 175.3 L178.2 114.9 L191.6 114.9 L214.5 114.9 L234.4 95.0 L286.6 42.8 L286.6 36.4 L269.4 36.4 L245.1 12.0 L243.6 12.0 L217.6 38.0 L194.6 61.1 L181.5 61.1 " />
<circle cx="1012.0" cy="664.6" r="8" />
<circle cx="977.6" cy="636.3" r="8" />
<circle cx="949.3" cy="610.4" r="8" />
<circle cx="818.9" cy="464.4" r="8" />
<circle cx="608.9" cy="113.8" r="8" />
<circle cx="552.8" cy="211.1" r="8" />
<circle cx="566.5" cy="248.4" r="8" />
<circle cx="554.9" cy="292.2" r="8" />
<circle cx="577.7" cy="351.6" r="8" />
<circle cx="478.7" cy="316.9" r="8" />
<circle cx="362.6" cy="318.1" r="8" />
<circle cx="291.8" cy="310.4" r="8" />
<circle cx="211.1" cy="297.6" r="8" />
<circle cx="139.1" cy="280.2" r="8" />
<circle cx="67.8" cy="269.6" r="8" />
<circle cx="12.0" cy="256.7" r="8" />
<circle cx="73.9" cy="222.4" r="8" />
<circle cx="117.7" cy="175.3" r="8" />
<circle cx="191.6" cy="114.9" r="8" />
<circle cx="234.4" cy="95.0" r="8" />
<circle cx="286.6" cy="36.4" r="8" />
<circle cx="245.1" cy="12.0" r="8" />
<circle cx="217.6" cy="38.0" r="8" />
<circle cx="181.5" cy="61.1" r="8" />
<style>
circle {
fill: white;
stroke: black;
stroke-width: 4;
}
path {
fill: none;
stroke: #FFFFFF;
stroke-width: 8;
}</style>
</svg>