<svg width="161.2" height="1024.0" xmlns="http://www.w3.org/2000/svg">
<path d="M76.54627397289082 12.0 L76.5 31.0 L61.4 46.2 L53.5 54.1 L53.5 78.8 L53.5 204.7 L22.6 235.6 L22.5 235.7 L22.5 344.9 L44.3 366.7 L71.8 366.7 L71.8 378.1 L43.4 406.6 L36.8 413.2 L36.8 422.8 L36.8 435.0 L45.7 443.9 L54.5 452.7 L54.5 481.8 L54.5 489.3 L66.3 501.1 L73.7 508.5 L73.7 527.8 L73.7 542.8 L81.3 550.4 L81.3 578.3 L78.7 580.9 L78.7 609.0 L85.1 615.5 L85.1 644.2 L76.8 652.5 L76.8 675.7 L83.9 682.8 L84.2 683.1 L84.2 717.1 L84.2 728.3 L64.9 747.6 L64.9 776.8 L76.1 788.1 L79.7 791.6 L79.7 819.1 L79.7 841.5 L72.2 849.0 L72.2 877.0 L78.8 883.5 L85.7 890.5 L85.7 916.0 L41.1 960.7 L20.7 960.7 L18.1 963.2 L18.1 989.9 L18.1 998.4 L12.0 1004.6 L18.4 1011.0 L83.1 1011.0 L148.2 1011.0 L149.2 1012.0 " />
<circle cx="76.5" cy="12.0" r="8" />
<circle cx="61.4" cy="46.2" r="8" />
<circle cx="53.5" cy="78.8" r="8" />
<circle cx="22.6" cy="235.6" r="8" />
<circle cx="22.5" cy="344.9" r="8" />
<circle cx="71.8" cy="366.7" r="8" />
<circle cx="43.4" cy="406.6" r="8" />
<circle cx="36.8" cy="422.8" r="8" />
<circle cx="45.7" cy="443.9" r="8" />
<circle cx="54.5" cy="481.8" r="8" />
<circle cx="66.3" cy="501.1" r="8" />
<circle cx="73.7" cy="527.8" r="8" />
<circle cx="81.3" cy="550.4" r="8" />
<circle cx="78.7" cy="580.9" r="8" />
<circle cx="85.1" cy="615.5" r="8" />
<circle cx="76.8" cy="652.5" r="8" />
<circle cx="83.9" cy="682.8" r="8" />
<circle cx="84.2" cy="717.1" r="8" />
<circle cx="64.9" cy="747.6" r="8" />
<circle cx="76.1" cy="788.1" r="8" />
<circle cx="79.7" cy="819.1" r="8" />
<circle cx="72.2" cy="849.0" r="8" />
<circle cx="78.8" cy="883.5" r="8" />
<circle cx="85.7" cy="916.0" r="8" />
<circle cx="20.7" cy="960.7" r="8" />
<circle cx="18.1" cy="989.9" r="8" />
<circle cx="12.0" cy="1004.6" r="8" />
<circle cx="83.1" cy="1011.0" r="8" />
<circle cx="149.2" cy="1012.0" r="8" />
<style>
circle {
fill: white;
stroke: #525252;
stroke-width: 4;
}
path {
fill: none;
stroke: #525252;
stroke-width: 8;
}</style>
</svg>