<svg width="1024.0" height="356.2" xmlns="http://www.w3.org/2000/svg">
<path d="M12.0 12.0 L12.0 72.0 L34.9 94.8 L40.8 100.8 L120.8 100.8 L210.7 100.8 L212.0 99.5 L213.4 98.1 L314.7 98.1 L314.7 118.5 L345.0 148.7 L348.3 152.0 L426.5 152.0 L529.5 152.0 L556.4 179.0 L581.9 204.4 L651.9 204.4 L696.2 204.4 L712.8 221.0 L747.4 255.6 L802.5 255.6 L923.4 255.6 L1012.0 344.2 " />
<circle cx="12.0" cy="12.0" r="8" />
<circle cx="34.9" cy="94.8" r="8" />
<circle cx="120.8" cy="100.8" r="8" />
<circle cx="212.0" cy="99.5" r="8" />
<circle cx="314.7" cy="98.1" r="8" />
<circle cx="345.0" cy="148.7" r="8" />
<circle cx="426.5" cy="152.0" r="8" />
<circle cx="556.4" cy="179.0" r="8" />
<circle cx="651.9" cy="204.4" r="8" />
<circle cx="712.8" cy="221.0" r="8" />
<circle cx="802.5" cy="255.6" r="8" />
<circle cx="1012.0" cy="344.2" r="8" />
<style>
circle {
fill: white;
stroke: #525252;
stroke-width: 4;
}
path {
fill: none;
stroke: #525252;
stroke-width: 8;
}</style>
</svg>