<svg width="472.2" height="1024.0" xmlns="http://www.w3.org/2000/svg">
<path d="M143.6 1012.0 L112.2 980.6 L112.2 945.5 L31.2 945.5 L12.0 926.2 L96.0 926.2 L100.5 921.7 L103.2 919.0 L103.2 876.9 L103.2 858.4 L82.3 837.5 L70.6 825.8 L70.6 789.1 L70.6 759.2 L47.7 736.3 L43.7 732.3 L43.7 659.8 L43.7 601.8 L41.5 599.6 L160.6 599.6 L164.0 596.2 L184.2 576.0 L295.8 576.0 L271.5 551.6 L271.5 518.5 L132.8 518.5 L128.8 514.5 L155.9 487.4 L155.9 451.0 L155.9 414.1 L180.7 389.4 L221.0 349.1 L222.1 349.1 L229.5 349.1 L257.3 321.3 L284.6 294.0 L291.0 294.0 L296.8 294.0 L363.5 227.4 L433.3 157.6 L460.2 157.6 L426.9 190.9 L311.2 190.9 L311.2 146.6 L319.6 138.1 L257.6 76.2 L241.1 76.2 L140.4 76.2 L126.7 62.5 L130.7 58.5 L130.7 12.0 " />
<circle cx="143.6" cy="1012.0" r="8" />
<circle cx="112.2" cy="945.5" r="8" />
<circle cx="12.0" cy="926.2" r="8" />
<circle cx="100.5" cy="921.7" r="8" />
<circle cx="103.2" cy="876.9" r="8" />
<circle cx="82.3" cy="837.5" r="8" />
<circle cx="70.6" cy="789.1" r="8" />
<circle cx="47.7" cy="736.3" r="8" />
<circle cx="43.7" cy="659.8" r="8" />
<circle cx="41.5" cy="599.6" r="8" />
<circle cx="164.0" cy="596.2" r="8" />
<circle cx="295.8" cy="576.0" r="8" />
<circle cx="271.5" cy="518.5" r="8" />
<circle cx="128.8" cy="514.5" r="8" />
<circle cx="155.9" cy="451.0" r="8" />
<circle cx="180.7" cy="389.4" r="8" />
<circle cx="222.1" cy="349.1" r="8" />
<circle cx="257.3" cy="321.3" r="8" />
<circle cx="291.0" cy="294.0" r="8" />
<circle cx="363.5" cy="227.4" r="8" />
<circle cx="460.2" cy="157.6" r="8" />
<circle cx="311.2" cy="190.9" r="8" />
<circle cx="319.6" cy="138.1" r="8" />
<circle cx="241.1" cy="76.2" r="8" />
<circle cx="126.7" cy="62.5" r="8" />
<circle cx="130.7" cy="12.0" r="8" />
<style>
circle {
fill: white;
stroke: #525252;
stroke-width: 4;
}
path {
fill: none;
stroke: #525252;
stroke-width: 8;
}</style>
</svg>