<svg width="1024.0" height="645.6" xmlns="http://www.w3.org/2000/svg">
<path d="M12.0 310.69349715887313 L45.6 310.7 L78.8 277.4 L78.8 225.8 L42.7 189.7 L95.1 137.3 L169.4 137.3 L236.4 137.3 L307.9 65.8 L358.0 65.8 L440.0 147.8 L459.1 147.8 L508.4 98.5 L594.8 12.0 L605.4 12.0 L748.5 12.0 L804.0 67.5 L870.8 134.4 L870.8 142.6 L807.0 206.5 L801.7 206.5 L736.9 271.3 L736.9 279.2 L781.1 323.3 L845.5 323.3 L845.5 363.8 L835.2 374.1 L784.7 424.6 L784.7 489.4 L784.7 561.0 L771.1 574.7 L830.0 633.6 L855.7 633.6 L899.2 633.6 L1012.0 520.8 " />
<circle cx="12.0" cy="310.7" r="8" />
<circle cx="78.8" cy="277.4" r="8" />
<circle cx="42.7" cy="189.7" r="8" />
<circle cx="169.4" cy="137.3" r="8" />
<circle cx="307.9" cy="65.8" r="8" />
<circle cx="440.0" cy="147.8" r="8" />
<circle cx="508.4" cy="98.5" r="8" />
<circle cx="605.4" cy="12.0" r="8" />
<circle cx="804.0" cy="67.5" r="8" />
<circle cx="870.8" cy="142.6" r="8" />
<circle cx="801.7" cy="206.5" r="8" />
<circle cx="736.9" cy="279.2" r="8" />
<circle cx="845.5" cy="323.3" r="8" />
<circle cx="835.2" cy="374.1" r="8" />
<circle cx="784.7" cy="489.4" r="8" />
<circle cx="771.1" cy="574.7" r="8" />
<circle cx="855.7" cy="633.6" r="8" />
<circle cx="1012.0" cy="520.8" r="8" />
<style>
circle {
fill: white;
stroke: #525252;
stroke-width: 4;
}
path {
fill: none;
stroke: #525252;
stroke-width: 8;
}</style>
</svg>