<svg width="1024.0" height="242.9" xmlns="http://www.w3.org/2000/svg">
<path d="M1011.9999999999999 229.23234268999101 L981.4 198.6 L939.2 198.6 L920.3 198.6 L908.5 186.7 L902.8 181.1 L887.6 181.1 L863.6 181.1 L854.8 172.3 L845.6 163.1 L810.3 163.1 L783.5 163.1 L782.3 161.9 L781.2 160.8 L736.0 160.8 L676.6 160.8 L675.2 159.4 L666.4 150.6 L616.4 150.6 L580.0 150.6 L571.8 142.4 L555.3 158.9 L555.3 163.0 L555.3 175.5 L566.8 187.0 L576.9 197.1 L576.9 208.9 L576.9 220.7 L587.1 230.9 L523.2 230.9 L518.9 226.5 L510.6 218.3 L510.6 216.5 L492.4 216.5 L488.5 212.6 L485.2 209.2 L424.4 209.2 L389.5 209.2 L386.6 206.4 L386.5 206.2 L357.7 206.2 L326.9 206.2 L323.0 202.4 L316.6 195.9 L265.6 195.9 L252.1 195.9 L242.5 186.4 L218.7 162.5 L201.3 162.5 L192.7 162.5 L183.7 153.5 L168.4 153.5 L166.5 155.5 L211.1 155.5 L260.0 106.6 L283.5 83.2 L285.4 83.2 L258.3 56.0 L183.3 56.0 L146.3 56.0 L133.3 42.9 L120.3 30.0 L84.8 30.0 L57.4 30.0 L47.3 20.0 L39.4 12.0 L12.0 12.0 " />
<circle cx="1012.0" cy="229.2" r="8" />
<circle cx="939.2" cy="198.6" r="8" />
<circle cx="908.5" cy="186.7" r="8" />
<circle cx="887.6" cy="181.1" r="8" />
<circle cx="854.8" cy="172.3" r="8" />
<circle cx="810.3" cy="163.1" r="8" />
<circle cx="782.3" cy="161.9" r="8" />
<circle cx="736.0" cy="160.8" r="8" />
<circle cx="675.2" cy="159.4" r="8" />
<circle cx="616.4" cy="150.6" r="8" />
<circle cx="571.8" cy="142.4" r="8" />
<circle cx="555.3" cy="163.0" r="8" />
<circle cx="566.8" cy="187.0" r="8" />
<circle cx="576.9" cy="208.9" r="8" />
<circle cx="587.1" cy="230.9" r="8" />
<circle cx="518.9" cy="226.5" r="8" />
<circle cx="510.6" cy="216.5" r="8" />
<circle cx="488.5" cy="212.6" r="8" />
<circle cx="424.4" cy="209.2" r="8" />
<circle cx="386.6" cy="206.4" r="8" />
<circle cx="357.7" cy="206.2" r="8" />
<circle cx="323.0" cy="202.4" r="8" />
<circle cx="265.6" cy="195.9" r="8" />
<circle cx="242.5" cy="186.4" r="8" />
<circle cx="201.3" cy="162.5" r="8" />
<circle cx="183.7" cy="153.5" r="8" />
<circle cx="166.5" cy="155.5" r="8" />
<circle cx="260.0" cy="106.6" r="8" />
<circle cx="285.4" cy="83.2" r="8" />
<circle cx="183.3" cy="56.0" r="8" />
<circle cx="133.3" cy="42.9" r="8" />
<circle cx="84.8" cy="30.0" r="8" />
<circle cx="47.3" cy="20.0" r="8" />
<circle cx="12.0" cy="12.0" r="8" />
<style>
circle {
fill: white;
stroke: #525252;
stroke-width: 4;
}
path {
fill: none;
stroke: #525252;
stroke-width: 8;
}</style>
</svg>