<svg width="1024.0" height="242.9" xmlns="http://www.w3.org/2000/svg">
<path d="M1011.9999999999999 229.23234268999101 L969.8 229.2 L939.2 198.6 L927.4 186.7 L908.5 186.7 L893.3 186.7 L887.6 181.1 L878.8 172.3 L854.8 172.3 L819.5 172.3 L810.3 163.1 L809.1 161.9 L782.3 161.9 L737.2 161.9 L736.0 160.8 L734.6 159.4 L675.2 159.4 L625.2 159.4 L616.4 150.6 L608.2 142.4 L571.8 142.4 L555.3 158.9 L555.3 163.0 L555.3 175.5 L566.8 187.0 L576.9 197.1 L576.9 208.9 L576.9 220.7 L587.1 230.9 L582.7 226.5 L518.9 226.5 L518.9 224.8 L510.6 216.5 L506.7 212.6 L488.5 212.6 L427.7 212.6 L424.4 209.2 L421.5 206.4 L386.6 206.4 L357.9 206.4 L357.7 206.2 L353.9 202.4 L323.0 202.4 L272.1 202.4 L265.6 195.9 L256.1 186.4 L242.5 186.4 L225.2 186.4 L201.3 162.5 L192.4 153.5 L183.7 153.5 L168.4 153.5 L166.5 155.5 L215.4 106.6 L260.0 106.6 L262.0 106.6 L285.4 83.2 L210.5 83.2 L183.3 56.0 L170.3 42.9 L133.3 42.9 L97.8 42.9 L84.8 30.0 L74.8 20.0 L47.3 20.0 L20.0 20.0 L12.0 12.0 " />
<circle cx="1012.0" cy="229.2" r="8" />
<circle cx="939.2" cy="198.6" r="8" />
<circle cx="908.5" cy="186.7" r="8" />
<circle cx="887.6" cy="181.1" r="8" />
<circle cx="854.8" cy="172.3" r="8" />
<circle cx="810.3" cy="163.1" r="8" />
<circle cx="782.3" cy="161.9" r="8" />
<circle cx="736.0" cy="160.8" r="8" />
<circle cx="675.2" cy="159.4" r="8" />
<circle cx="616.4" cy="150.6" r="8" />
<circle cx="571.8" cy="142.4" r="8" />
<circle cx="555.3" cy="163.0" r="8" />
<circle cx="566.8" cy="187.0" r="8" />
<circle cx="576.9" cy="208.9" r="8" />
<circle cx="587.1" cy="230.9" r="8" />
<circle cx="518.9" cy="226.5" r="8" />
<circle cx="510.6" cy="216.5" r="8" />
<circle cx="488.5" cy="212.6" r="8" />
<circle cx="424.4" cy="209.2" r="8" />
<circle cx="386.6" cy="206.4" r="8" />
<circle cx="357.7" cy="206.2" r="8" />
<circle cx="323.0" cy="202.4" r="8" />
<circle cx="265.6" cy="195.9" r="8" />
<circle cx="242.5" cy="186.4" r="8" />
<circle cx="201.3" cy="162.5" r="8" />
<circle cx="183.7" cy="153.5" r="8" />
<circle cx="166.5" cy="155.5" r="8" />
<circle cx="260.0" cy="106.6" r="8" />
<circle cx="285.4" cy="83.2" r="8" />
<circle cx="183.3" cy="56.0" r="8" />
<circle cx="133.3" cy="42.9" r="8" />
<circle cx="84.8" cy="30.0" r="8" />
<circle cx="47.3" cy="20.0" r="8" />
<circle cx="12.0" cy="12.0" r="8" />
<style>
circle {
fill: white;
stroke: #525252;
stroke-width: 4;
}
path {
fill: none;
stroke: #525252;
stroke-width: 8;
}</style>
</svg>