<svg width="1024.0" height="645.6" xmlns="http://www.w3.org/2000/svg">
<path d="M12.0 310.7 L45.3 277.4 L78.8 277.4 L42.7 241.3 L42.7 189.7 L117.0 189.7 L169.4 137.3 L240.9 65.8 L307.9 65.8 L358.0 65.8 L440.0 147.8 L489.3 98.5 L508.4 98.5 L518.9 98.5 L605.4 12.0 L660.9 67.5 L804.0 67.5 L804.0 75.8 L870.8 142.6 L865.6 142.6 L801.7 206.5 L736.9 271.3 L736.9 279.2 L801.4 279.2 L845.5 323.3 L835.2 333.5 L835.2 374.1 L835.2 438.8 L784.7 489.4 L771.1 503.0 L771.1 574.7 L796.8 574.7 L855.7 633.6 L968.4 520.8 L1012.0 520.8 " />
<circle cx="12.0" cy="310.7" r="8" />
<circle cx="78.8" cy="277.4" r="8" />
<circle cx="42.7" cy="189.7" r="8" />
<circle cx="169.4" cy="137.3" r="8" />
<circle cx="307.9" cy="65.8" r="8" />
<circle cx="440.0" cy="147.8" r="8" />
<circle cx="508.4" cy="98.5" r="8" />
<circle cx="605.4" cy="12.0" r="8" />
<circle cx="804.0" cy="67.5" r="8" />
<circle cx="870.8" cy="142.6" r="8" />
<circle cx="801.7" cy="206.5" r="8" />
<circle cx="736.9" cy="279.2" r="8" />
<circle cx="845.5" cy="323.3" r="8" />
<circle cx="835.2" cy="374.1" r="8" />
<circle cx="784.7" cy="489.4" r="8" />
<circle cx="771.1" cy="574.7" r="8" />
<circle cx="855.7" cy="633.6" r="8" />
<circle cx="1012.0" cy="520.8" r="8" />
<style>
circle {
fill: white;
stroke: #525252;
stroke-width: 4;
}
path {
fill: none;
stroke: #525252;
stroke-width: 8;
}</style>
</svg>