<svg width="868.8" height="1024.0" xmlns="http://www.w3.org/2000/svg">
<path d="M12.0 1012.0 L12.0 992.3 L136.1 868.1 L242.9 761.4 L242.9 753.7 L242.9 748.4 L313.0 678.3 L365.0 626.3 L365.0 621.2 L365.0 612.7 L414.2 563.4 L472.7 505.0 L472.7 470.3 L483.6 470.3 L579.9 374.1 L656.9 297.0 L656.9 290.2 L672.6 305.8 L856.8 305.8 L825.2 274.2 L825.2 238.0 L825.2 227.3 L756.3 158.4 L710.8 112.8 L681.1 112.8 L596.5 112.8 L566.2 82.5 L528.0 44.4 L414.4 44.4 L328.9 44.4 L296.5 12.0 L271.3 37.2 L271.3 90.6 L275.8 86.1 L410.3 86.1 L535.9 86.1 L571.6 121.8 " />
<circle cx="12.0" cy="1012.0" r="8" />
<circle cx="136.1" cy="868.1" r="8" />
<circle cx="242.9" cy="753.7" r="8" />
<circle cx="313.0" cy="678.3" r="8" />
<circle cx="365.0" cy="621.2" r="8" />
<circle cx="414.2" cy="563.4" r="8" />
<circle cx="472.7" cy="470.3" r="8" />
<circle cx="579.9" cy="374.1" r="8" />
<circle cx="656.9" cy="290.2" r="8" />
<circle cx="856.8" cy="305.8" r="8" />
<circle cx="825.2" cy="238.0" r="8" />
<circle cx="756.3" cy="158.4" r="8" />
<circle cx="681.1" cy="112.8" r="8" />
<circle cx="566.2" cy="82.5" r="8" />
<circle cx="414.4" cy="44.4" r="8" />
<circle cx="296.5" cy="12.0" r="8" />
<circle cx="271.3" cy="90.6" r="8" />
<circle cx="410.3" cy="86.1" r="8" />
<circle cx="571.6" cy="121.8" r="8" />
<style>
circle {
fill: white;
stroke: #40BDB0;
stroke-width: 4;
}
path {
fill: none;
stroke: #40BDB0;
stroke-width: 8;
}</style>
</svg>