<svg width="585.1" height="1024.0" xmlns="http://www.w3.org/2000/svg">
<path d="M460.5 12.0 L475.8 27.3 L573.1 27.3 L541.2 59.2 L541.2 83.8 L541.2 139.8 L534.7 146.2 L524.4 156.5 L466.2 156.5 L415.4 156.5 L388.4 183.5 L338.0 234.0 L337.6 234.0 L337.6 245.0 L256.4 326.2 L228.2 354.4 L217.6 354.4 L217.6 368.9 L186.0 400.5 L245.1 400.5 L266.8 422.2 L294.7 450.1 L304.1 450.1 L336.7 450.1 L354.2 467.6 L359.7 462.1 L421.2 462.1 L439.3 462.1 L467.2 490.0 L509.3 532.1 L509.3 538.6 L509.3 557.8 L531.8 580.3 L421.2 580.3 L412.9 572.0 L409.1 572.0 L359.3 621.9 L300.4 680.8 L293.7 680.8 L293.7 701.9 L258.0 737.7 L227.9 767.8 L227.9 773.0 L227.9 776.1 L196.1 807.9 L153.2 850.8 L153.2 854.0 L153.2 858.7 L87.9 924.0 L12.0 999.9 L12.0 1012.0 " />
<circle cx="460.5" cy="12.0" r="8" />
<circle cx="573.1" cy="27.3" r="8" />
<circle cx="541.2" cy="83.8" r="8" />
<circle cx="534.7" cy="146.2" r="8" />
<circle cx="466.2" cy="156.5" r="8" />
<circle cx="388.4" cy="183.5" r="8" />
<circle cx="337.6" cy="234.0" r="8" />
<circle cx="256.4" cy="326.2" r="8" />
<circle cx="217.6" cy="354.4" r="8" />
<circle cx="186.0" cy="400.5" r="8" />
<circle cx="266.8" cy="422.2" r="8" />
<circle cx="304.1" cy="450.1" r="8" />
<circle cx="354.2" cy="467.6" r="8" />
<circle cx="421.2" cy="462.1" r="8" />
<circle cx="467.2" cy="490.0" r="8" />
<circle cx="509.3" cy="538.6" r="8" />
<circle cx="531.8" cy="580.3" r="8" />
<circle cx="412.9" cy="572.0" r="8" />
<circle cx="359.3" cy="621.9" r="8" />
<circle cx="293.7" cy="680.8" r="8" />
<circle cx="258.0" cy="737.7" r="8" />
<circle cx="227.9" cy="773.0" r="8" />
<circle cx="196.1" cy="807.9" r="8" />
<circle cx="153.2" cy="854.0" r="8" />
<circle cx="87.9" cy="924.0" r="8" />
<circle cx="12.0" cy="1012.0" r="8" />
<style>
circle {
fill: white;
stroke: #40BDB0;
stroke-width: 4;
}
path {
fill: none;
stroke: #40BDB0;
stroke-width: 8;
}</style>
</svg>