<svg width="397.8" height="1024.0" xmlns="http://www.w3.org/2000/svg">
<path d="M385.76925719781997 1012.0000000000001 L365.4 991.6 L365.4 977.3 L365.4 968.6 L316.5 919.8 L281.8 885.0 L271.7 885.0 L257.3 885.0 L209.4 837.1 L193.5 821.2 L185.7 821.2 L170.6 821.2 L35.0 685.6 L14.0 664.6 L14.0 643.0 L14.0 624.7 L12.0 622.7 L221.3 622.7 L266.7 577.4 L273.1 570.9 L291.9 570.9 L344.8 570.9 L355.5 560.1 L355.0 559.6 L355.0 550.7 L276.6 550.7 L269.1 543.2 L238.0 512.2 L238.0 465.6 L238.0 416.7 L161.7 340.3 L155.6 334.3 L82.2 334.3 L74.9 327.0 L74.9 275.1 L74.9 234.7 L71.2 230.9 L36.0 195.8 L36.0 91.1 L49.0 91.1 L85.9 54.2 L109.4 30.7 L132.9 30.7 L162.0 30.7 L173.2 19.4 L167.4 13.6 L117.7 13.6 L59.7 13.6 L58.1 12.0 " />
<circle cx="385.8" cy="1012.0" r="8" />
<circle cx="365.4" cy="977.3" r="8" />
<circle cx="316.5" cy="919.8" r="8" />
<circle cx="271.7" cy="885.0" r="8" />
<circle cx="209.4" cy="837.1" r="8" />
<circle cx="185.7" cy="821.2" r="8" />
<circle cx="35.0" cy="685.6" r="8" />
<circle cx="14.0" cy="643.0" r="8" />
<circle cx="12.0" cy="622.7" r="8" />
<circle cx="266.7" cy="577.4" r="8" />
<circle cx="291.9" cy="570.9" r="8" />
<circle cx="355.5" cy="560.1" r="8" />
<circle cx="355.0" cy="550.7" r="8" />
<circle cx="269.1" cy="543.2" r="8" />
<circle cx="238.0" cy="465.6" r="8" />
<circle cx="161.7" cy="340.3" r="8" />
<circle cx="82.2" cy="334.3" r="8" />
<circle cx="74.9" cy="275.1" r="8" />
<circle cx="71.2" cy="230.9" r="8" />
<circle cx="36.0" cy="91.1" r="8" />
<circle cx="85.9" cy="54.2" r="8" />
<circle cx="132.9" cy="30.7" r="8" />
<circle cx="173.2" cy="19.4" r="8" />
<circle cx="117.7" cy="13.6" r="8" />
<circle cx="58.1" cy="12.0" r="8" />
<style>
circle {
fill: white;
stroke: black;
stroke-width: 4;
}
path {
fill: none;
stroke: #FFFFFF;
stroke-width: 8;
}</style>
</svg>