<svg width="397.8" height="1024.0" xmlns="http://www.w3.org/2000/svg">
<path d="M58.09271856889252 12.0 L114.2 12.0 L132.9 30.7 L109.4 54.2 L85.9 54.2 L72.9 54.2 L36.0 91.1 L36.0 195.8 L71.2 230.9 L74.9 234.7 L74.9 275.1 L74.9 327.0 L82.2 334.3 L88.2 340.3 L161.7 340.3 L238.0 416.7 L238.0 465.6 L238.0 512.2 L269.1 543.2 L291.9 566.0 L291.9 570.9 L344.8 570.9 L355.5 560.1 L355.5 551.2 L355.0 550.7 L283.0 622.7 L12.0 622.7 L12.0 640.9 L14.0 643.0 L35.0 664.0 L35.0 685.6 L170.6 821.2 L185.7 821.2 L193.5 821.2 L209.4 837.1 L257.3 885.0 L271.7 885.0 L281.8 885.0 L316.5 919.8 L365.4 968.6 L365.4 977.3 L365.4 991.6 L385.8 1012.0 " />
<circle cx="58.1" cy="12.0" r="8" />
<circle cx="132.9" cy="30.7" r="8" />
<circle cx="85.9" cy="54.2" r="8" />
<circle cx="36.0" cy="91.1" r="8" />
<circle cx="71.2" cy="230.9" r="8" />
<circle cx="74.9" cy="275.1" r="8" />
<circle cx="82.2" cy="334.3" r="8" />
<circle cx="161.7" cy="340.3" r="8" />
<circle cx="238.0" cy="465.6" r="8" />
<circle cx="269.1" cy="543.2" r="8" />
<circle cx="291.9" cy="570.9" r="8" />
<circle cx="355.5" cy="560.1" r="8" />
<circle cx="355.0" cy="550.7" r="8" />
<circle cx="12.0" cy="622.7" r="8" />
<circle cx="14.0" cy="643.0" r="8" />
<circle cx="35.0" cy="685.6" r="8" />
<circle cx="185.7" cy="821.2" r="8" />
<circle cx="209.4" cy="837.1" r="8" />
<circle cx="271.7" cy="885.0" r="8" />
<circle cx="316.5" cy="919.8" r="8" />
<circle cx="365.4" cy="977.3" r="8" />
<circle cx="385.8" cy="1012.0" r="8" />
<style>
circle {
fill: white;
stroke: black;
stroke-width: 4;
}
path {
fill: none;
stroke: #FFFFFF;
stroke-width: 8;
}</style>
</svg>