<svg width="906.9" height="1024.0" xmlns="http://www.w3.org/2000/svg">
<path d="M894.9 1012.0 L872.3 989.4 L870.7 989.4 L848.2 966.9 L848.2 962.4 L837.8 962.4 L823.4 948.0 L794.7 919.3 L792.0 919.3 L760.7 888.0 L760.7 883.8 L760.7 854.6 L752.4 846.3 L735.1 829.1 L735.1 817.0 L735.1 796.1 L696.4 757.4 L672.1 733.2 L672.1 726.1 L672.1 717.5 L648.6 694.0 L645.1 690.5 L640.7 690.5 L625.9 690.5 L610.8 675.5 L605.7 670.4 L603.9 670.4 L584.7 651.2 L584.7 645.2 L584.7 624.5 L577.3 617.1 L566.5 606.2 L564.1 606.2 L563.2 606.2 L553.3 596.4 L503.5 546.5 L503.5 540.5 L503.5 495.1 L428.3 420.0 L406.8 398.5 L406.8 358.4 L361.6 358.4 L261.2 258.1 L87.1 83.9 L87.1 45.1 L66.8 45.1 L42.1 20.4 L33.7 12.0 L12.0 12.0 " />
<circle cx="894.9" cy="1012.0" r="8" />
<circle cx="870.7" cy="989.4" r="8" />
<circle cx="848.2" cy="962.4" r="8" />
<circle cx="823.4" cy="948.0" r="8" />
<circle cx="792.0" cy="919.3" r="8" />
<circle cx="760.7" cy="883.8" r="8" />
<circle cx="752.4" cy="846.3" r="8" />
<circle cx="735.1" cy="817.0" r="8" />
<circle cx="696.4" cy="757.4" r="8" />
<circle cx="672.1" cy="726.1" r="8" />
<circle cx="648.6" cy="694.0" r="8" />
<circle cx="640.7" cy="690.5" r="8" />
<circle cx="610.8" cy="675.5" r="8" />
<circle cx="603.9" cy="670.4" r="8" />
<circle cx="584.7" cy="645.2" r="8" />
<circle cx="577.3" cy="617.1" r="8" />
<circle cx="564.1" cy="606.2" r="8" />
<circle cx="553.3" cy="596.4" r="8" />
<circle cx="503.5" cy="540.5" r="8" />
<circle cx="428.3" cy="420.0" r="8" />
<circle cx="406.8" cy="358.4" r="8" />
<circle cx="261.2" cy="258.1" r="8" />
<circle cx="87.1" cy="45.1" r="8" />
<circle cx="42.1" cy="20.4" r="8" />
<circle cx="12.0" cy="12.0" r="8" />
<style>
circle {
fill: white;
stroke: #525252;
stroke-width: 4;
}
path {
fill: none;
stroke: #525252;
stroke-width: 8;
}</style>
</svg>