<svg width="1024.0" height="388.6" xmlns="http://www.w3.org/2000/svg">
<path d="M1000.8020817469655 327.9139430645038 L1012.0 339.1 L1012.0 348.9 L1012.0 363.8 L1000.4 375.4 L999.2 376.6 L910.4 376.6 L860.9 376.6 L849.5 365.3 L849.5 332.7 L855.4 326.8 L855.4 320.6 L815.4 280.6 L781.7 246.9 L781.7 224.7 L767.3 210.3 L733.1 210.3 L631.6 210.3 L626.8 205.5 L625.7 204.4 L575.6 204.4 L575.6 204.4 L551.0 229.1 L526.7 229.1 L494.2 196.6 L466.6 169.0 L451.5 169.0 L396.4 169.0 L342.2 114.7 L302.3 74.8 L283.1 74.8 L283.1 50.2 L280.3 47.4 L245.2 12.3 L187.6 12.3 L132.3 12.3 L132.0 12.0 L72.7 71.3 L12.0 71.3 " />
<circle cx="1000.8" cy="327.9" r="8" />
<circle cx="1012.0" cy="348.9" r="8" />
<circle cx="1000.4" cy="375.4" r="8" />
<circle cx="910.4" cy="376.6" r="8" />
<circle cx="849.5" cy="365.3" r="8" />
<circle cx="855.4" cy="326.8" r="8" />
<circle cx="815.4" cy="280.6" r="8" />
<circle cx="781.7" cy="224.7" r="8" />
<circle cx="733.1" cy="210.3" r="8" />
<circle cx="626.8" cy="205.5" r="8" />
<circle cx="575.6" cy="204.4" r="8" />
<circle cx="551.0" cy="229.1" r="8" />
<circle cx="494.2" cy="196.6" r="8" />
<circle cx="451.5" cy="169.0" r="8" />
<circle cx="342.2" cy="114.7" r="8" />
<circle cx="283.1" cy="74.8" r="8" />
<circle cx="280.3" cy="47.4" r="8" />
<circle cx="187.6" cy="12.3" r="8" />
<circle cx="132.0" cy="12.0" r="8" />
<circle cx="12.0" cy="71.3" r="8" />
<style>
circle {
fill: white;
stroke: #525252;
stroke-width: 4;
}
path {
fill: none;
stroke: #525252;
stroke-width: 8;
}</style>
</svg>