<svg width="460.4" height="1024.0" xmlns="http://www.w3.org/2000/svg">
<path d="M434.461187256767 12.0 L434.5 28.0 L442.1 35.7 L444.1 37.7 L444.1 60.9 L444.1 91.8 L448.4 96.1 L448.4 134.4 L424.9 157.9 L391.2 191.6 L391.2 192.9 L391.2 223.4 L352.2 262.4 L331.5 283.2 L331.5 312.8 L331.5 352.6 L318.9 365.1 L309.9 374.2 L309.9 393.8 L309.9 406.5 L272.7 443.7 L224.8 491.6 L224.8 505.3 L188.9 541.2 L170.9 541.2 L170.9 601.3 L174.5 604.8 L162.3 617.0 L121.3 617.0 L95.9 642.4 L95.9 645.2 L95.9 647.4 L74.7 668.7 L40.8 702.5 L40.8 709.6 L40.8 714.6 L61.1 735.0 L89.7 763.6 L95.9 763.6 L107.3 763.6 L119.8 776.1 L120.4 776.8 L173.3 776.8 L205.3 808.8 L205.3 824.8 L192.5 837.6 L185.4 837.6 L142.5 837.6 L42.3 937.8 L12.0 968.1 L12.0 997.1 L26.9 1012.0 L42.9 1012.0 " />
<circle cx="434.5" cy="12.0" r="8" />
<circle cx="442.1" cy="35.7" r="8" />
<circle cx="444.1" cy="60.9" r="8" />
<circle cx="448.4" cy="96.1" r="8" />
<circle cx="424.9" cy="157.9" r="8" />
<circle cx="391.2" cy="192.9" r="8" />
<circle cx="352.2" cy="262.4" r="8" />
<circle cx="331.5" cy="312.8" r="8" />
<circle cx="318.9" cy="365.1" r="8" />
<circle cx="309.9" cy="393.8" r="8" />
<circle cx="272.7" cy="443.7" r="8" />
<circle cx="224.8" cy="505.3" r="8" />
<circle cx="170.9" cy="541.2" r="8" />
<circle cx="174.5" cy="604.8" r="8" />
<circle cx="121.3" cy="617.0" r="8" />
<circle cx="95.9" cy="645.2" r="8" />
<circle cx="74.7" cy="668.7" r="8" />
<circle cx="40.8" cy="709.6" r="8" />
<circle cx="61.1" cy="735.0" r="8" />
<circle cx="95.9" cy="763.6" r="8" />
<circle cx="119.8" cy="776.1" r="8" />
<circle cx="173.3" cy="776.8" r="8" />
<circle cx="205.3" cy="824.8" r="8" />
<circle cx="185.4" cy="837.6" r="8" />
<circle cx="42.3" cy="937.8" r="8" />
<circle cx="12.0" cy="997.1" r="8" />
<circle cx="42.9" cy="1012.0" r="8" />
<style>
circle {
fill: white;
stroke: #525252;
stroke-width: 4;
}
path {
fill: none;
stroke: #525252;
stroke-width: 8;
}</style>
</svg>