<svg width="1024.0" height="522.5" xmlns="http://www.w3.org/2000/svg">
<path d="M12.0 12.4 L12.0 44.2 L66.9 99.1 L136.0 168.2 L214.1 168.2 L229.1 168.2 L321.0 260.1 L321.0 227.6 L405.5 143.0 L451.5 97.0 L517.6 97.0 L578.6 97.0 L611.9 130.4 L649.0 167.4 L677.6 167.4 L677.6 118.3 L718.6 77.3 L764.4 31.5 L764.4 12.0 L818.4 66.0 L958.0 66.0 L958.0 100.8 L1012.0 154.8 L953.8 213.0 L953.8 330.1 L782.9 330.1 L772.4 319.6 L730.6 361.5 L730.6 510.5 " />
<circle cx="12.0" cy="12.4" r="8" />
<circle cx="66.9" cy="99.1" r="8" />
<circle cx="214.1" cy="168.2" r="8" />
<circle cx="321.0" cy="260.1" r="8" />
<circle cx="405.5" cy="143.0" r="8" />
<circle cx="517.6" cy="97.0" r="8" />
<circle cx="611.9" cy="130.4" r="8" />
<circle cx="677.6" cy="167.4" r="8" />
<circle cx="718.6" cy="77.3" r="8" />
<circle cx="764.4" cy="12.0" r="8" />
<circle cx="958.0" cy="66.0" r="8" />
<circle cx="1012.0" cy="154.8" r="8" />
<circle cx="953.8" cy="330.1" r="8" />
<circle cx="772.4" cy="319.6" r="8" />
<circle cx="730.6" cy="510.5" r="8" />
<style>
circle {
fill: white;
stroke: #525252;
stroke-width: 4;
}
path {
fill: none;
stroke: #525252;
stroke-width: 8;
}</style>
</svg>