<svg width="1006.8" height="1024.0" xmlns="http://www.w3.org/2000/svg">
<path d="M130.9 13.0 L132.1 14.5 L133.5 19.6 L133.8 24.9 L132.5 27.3 L131.2 29.7 L129.4 32.0 L122.7 40.8 L101.2 68.7 L98.8 71.9 L96.5 75.2 L104.5 76.0 L106.9 76.3 L107.9 76.4 L117.5 77.8 L126.3 79.9 L132.5 82.7 L154.0 95.6 L173.4 108.0 L194.5 123.4 L201.6 128.3 L226.1 142.4 L228.9 144.1 L230.3 145.9 L230.2 147.8 L226.9 152.6 L225.5 154.8 L225.5 157.0 L227.1 158.5 L230.0 160.4 L235.3 162.6 L238.8 163.5 L247.2 163.4 L252.1 162.7 L258.1 161.4 L261.8 160.0 L266.6 160.1 L269.5 160.8 L290.2 168.6 L293.9 170.0 L297.4 171.2 L335.8 185.5 L343.7 188.2 L346.6 189.0 L351.7 190.3 L355.1 191.0 L366.0 193.0 L376.6 195.0 L384.0 197.0 L389.6 199.2 L418.4 210.5 L424.6 213.1 L430.0 215.6 L432.4 216.6 L448.4 223.2 L455.9 226.4 L459.4 228.0 L463.0 229.4 L472.0 233.0 L471.0 235.8 L470.0 238.5 L468.1 244.1 L462.4 254.3 L460.5 258.0 L460.0 259.0 L459.8 259.6 L459.3 262.3 L459.1 265.2 L456.9 269.0 L450.5 282.1 L450.4 286.4 L448.1 290.5 L444.0 292.9 L440.7 295.7 L437.2 300.1 L433.2 309.9 L430.7 313.8 L427.7 320.1 L426.7 323.6 L426.6 326.2 L420.3 331.5 L413.5 335.4 L411.6 336.8 L410.4 338.2 L409.6 339.6 L412.8 340.5 L416.2 341.2 L415.8 342.1 L414.8 343.9 L412.4 347.8 L410.1 351.8 L407.9 355.9 L403.6 366.8 L397.8 375.1 L395.6 378.3 L394.9 380.0 L394.1 381.3 L391.3 387.5 L385.4 403.3 L384.2 406.3 L381.4 408.9 L380.0 411.4 L379.1 414.0 L375.7 428.0 L374.7 432.3 L374.7 438.4 L375.5 444.4 L377.6 453.5 L384.1 476.1 L382.3 477.6 L381.3 478.4 L380.3 479.4 L378.7 481.4 L373.6 486.9 L357.9 502.0 L354.1 506.0 L347.4 513.3 L343.5 517.8 L320.1 542.0 L317.4 545.0 L312.3 543.3 L295.3 537.6 L275.5 531.4 L270.4 529.8 L266.0 535.6 L256.2 531.8 L252.7 530.5 L247.9 528.9 L244.9 529.1 L242.5 529.8 L241.5 531.7 L238.7 536.4 L235.8 539.9 L232.9 543.0 L222.5 552.8 L207.4 567.2 L200.7 572.7 L190.7 580.3 L180.2 587.9 L179.9 589.5 L180.2 587.9 L175.7 584.5 L170.7 580.6 L164.3 577.1 L154.2 569.3 L138.2 558.9 L132.1 555.1 L126.5 558.1 L85.5 580.3 L81.7 582.3 L77.0 583.0 L72.6 584.0 L67.6 584.9 L57.4 587.8 L53.5 589.2 L49.5 591.0 L29.1 601.0 L17.5 606.6 L19.6 608.2 L23.3 610.8 L23.3 612.0 L23.3 613.3 L23.5 614.7 L23.6 616.1 L23.8 617.4 L24.2 619.2 L26.2 621.1 L28.6 622.5 L33.5 624.4 L45.8 628.7 L43.7 632.1 " />
<path d="M43.7 632.1 L42.6 632.1 L41.7 633.8 L41.6 634.8 L40.4 637.1 L41.6 637.6 L40.2 640.1 L40.2 642.2 L39.3 643.8 " />
<path d="M39.3 643.8 L39.3 640.2 L43.7 632.1 L45.8 628.7 L33.5 624.4 L28.6 622.5 L26.2 621.1 L24.2 619.2 L23.8 617.4 L23.6 616.1 L23.5 614.7 L23.3 613.3 L23.3 612.0 L23.3 610.8 L19.6 608.2 L25.3 605.4 L28.7 603.8 L30.8 602.7 L49.9 593.2 L56.3 590.4 L57.4 587.8 L59.9 581.5 L62.3 573.3 L63.0 566.9 L62.5 561.6 L61.7 557.6 L57.9 552.9 L53.5 548.8 L51.2 546.6 L48.8 544.4 L35.8 531.9 L35.9 530.1 L40.2 528.8 L40.5 527.0 L23.0 506.5 L20.2 505.4 L20.6 503.9 L18.1 500.9 L14.0 496.1 L12.6 493.7 L12.0 491.9 L12.3 490.4 L21.1 477.6 L23.0 475.2 L42.7 448.6 L63.5 421.1 L71.6 422.7 L76.1 423.1 L86.6 423.0 L102.8 422.7 L107.1 422.4 L135.0 421.3 L142.5 421.1 L149.8 420.9 L183.0 419.6 L191.5 419.4 L217.3 418.2 L242.1 417.2 L256.1 416.4 L258.9 416.1 L264.9 415.6 L267.7 415.3 L269.8 424.7 L271.1 432.4 L271.7 434.3 L272.5 437.5 L273.5 441.4 L274.2 443.1 L275.1 447.3 L275.4 461.6 L277.8 462.0 L310.9 468.2 L315.3 469.0 L320.4 469.8 L324.5 470.6 L326.6 470.9 L329.6 471.3 L339.9 473.0 L355.1 475.6 L363.1 476.7 L365.5 477.3 L367.5 477.5 L371.1 478.6 L378.7 481.4 L384.0 483.3 L398.7 488.6 L402.5 484.9 L405.2 482.1 L407.2 480.2 L414.7 474.1 L421.2 469.5 L424.9 467.4 L447.8 454.4 L450.5 456.7 L452.8 458.7 L454.7 460.7 L459.7 465.2 L462.0 465.5 L464.4 465.2 L467.8 462.9 L471.6 452.1 " />
<path d="M471.6 452.1 L473.7 451.5 L480.9 452.4 L477.2 463.0 L477.7 463.1 " />
<path d="M477.7 463.1 L470.8 484.0 L462.8 502.8 L443.9 546.1 L442.8 549.4 L442.1 552.4 L441.9 555.1 L442.1 572.3 L442.0 576.9 L441.4 582.0 L439.7 595.6 L438.4 601.2 L437.0 605.0 L421.3 639.0 L406.8 663.8 L405.1 667.6 L404.3 671.4 L403.5 676.2 L403.9 679.7 L404.5 683.4 L407.8 696.7 L408.1 699.6 L408.2 703.5 L407.7 708.5 L406.8 712.6 L390.9 758.9 " />
<path d="M390.9 758.9 L390.5 758.8 L392.7 751.5 L409.2 753.4 L410.6 754.3 L411.9 754.6 L412.5 759.5 L412.8 759.4 " />
<path d="M412.8 759.4 L413.5 763.2 L415.2 782.0 L415.9 788.9 L415.9 790.7 L416.1 792.7 L416.2 794.9 L418.8 816.4 L419.2 819.0 L423.3 818.9 L436.2 818.5 L440.0 818.4 L442.0 817.9 L443.8 817.0 L447.1 812.0 L448.2 810.4 L450.2 807.5 L454.0 802.2 L456.3 799.1 L457.3 796.3 L457.0 790.8 L455.6 780.3 L454.9 771.5 L453.6 759.2 L453.3 756.0 L442.9 756.1 L442.4 756.1 L432.8 755.3 L418.9 754.0 L406.2 752.3 L401.9 751.5 L393.9 750.8 L385.1 749.1 L373.9 745.3 L355.1 738.2 L343.2 733.9 L338.5 731.5 L335.7 729.0 L332.8 726.3 L329.3 722.5 L328.2 720.7 L327.6 720.0 L323.6 715.3 L319.8 710.8 L316.7 716.8 L315.6 718.9 L314.1 721.8 L311.9 726.7 L307.8 736.1 L303.2 746.1 L308.3 750.9 L310.0 752.8 L327.7 768.5 L332.8 773.5 L336.5 776.2 L338.8 777.9 L342.0 780.2 L325.2 793.9 L320.4 797.8 L307.6 808.5 L299.3 815.6 L294.8 819.6 L279.9 831.6 L274.2 835.9 L264.2 843.6 L262.9 844.6 L261.3 845.7 L258.9 847.5 L248.0 841.8 L244.1 838.9 L241.9 837.0 L240.2 835.2 L239.4 834.0 L236.6 829.3 L233.6 823.5 L227.5 810.7 L226.8 809.1 L225.9 807.3 L224.2 802.9 L220.6 792.4 L221.4 789.4 L223.1 786.4 L227.1 781.8 L228.5 780.4 L230.2 778.5 L236.7 771.4 L239.0 768.6 L243.9 763.9 L246.9 759.4 L248.2 755.2 L249.2 745.8 L249.3 743.8 L249.6 741.4 L251.8 740.3 L250.4 739.3 L248.5 739.3 L247.5 740.3 L242.1 741.0 L235.7 742.3 L227.5 744.0 L221.5 745.1 L216.6 745.7 L209.7 746.0 L202.9 745.7 L197.5 745.2 L186.0 743.5 L183.0 742.8 L180.2 742.3 L172.4 740.7 L147.2 736.3 L128.2 733.1 L125.0 732.6 L122.2 732.2 L100.1 730.8 L72.6 727.6 L53.2 723.0 L50.9 724.9 L53.2 723.0 L56.6 721.2 L62.8 717.5 L67.4 714.8 L81.9 707.8 L93.1 701.8 L108.7 693.6 L93.1 701.8 L81.9 707.8 L67.4 714.8 L81.9 707.8 L93.1 701.8 L108.7 693.6 L111.4 692.0 L156.1 667.8 L177.4 656.1 L182.0 653.5 L186.9 651.0 L196.3 646.0 L215.3 635.9 L230.8 627.6 L231.2 626.5 L231.3 625.3 L225.8 622.2 L223.1 620.8 L221.1 621.9 L213.5 625.9 L206.0 630.0 L192.0 637.0 L193.8 638.5 " />
<path d="M193.8 638.5 L195.0 639.4 L198.6 641.2 L200.5 642.4 L197.5 644.1 L197.8 644.3 " />
<path d="M197.8 644.3 L200.5 642.7 L203.3 641.1 L211.4 636.6 L220.7 632.0 L231.2 626.5 L246.0 619.1 L248.7 617.8 L251.3 616.6 L254.5 614.6 L256.1 613.5 L267.0 606.2 L272.7 601.6 L284.1 592.4 L289.7 587.1 L291.8 584.9 L293.9 582.8 L302.1 575.2 L304.9 573.0 L306.5 571.8 L306.8 571.5 L308.6 570.1 L314.3 564.3 L316.7 561.8 L318.0 560.5 L320.0 558.9 L321.5 557.6 L322.9 556.4 L325.6 554.1 L327.3 552.6 L330.3 550.2 L332.3 548.5 L337.8 544.0 L347.3 535.2 L363.4 520.4 L367.8 516.5 L369.9 514.6 L376.9 508.2 L396.8 490.6 L398.7 488.6 L402.5 484.9 L405.2 482.1 L407.2 480.2 L414.7 474.1 L421.2 469.5 L424.9 467.4 L447.8 454.4 L450.5 456.7 L452.8 458.7 L454.7 460.7 L459.6 466.3 L462.2 467.2 L466.6 465.8 L469.6 463.5 L472.4 461.1 L473.3 459.4 L474.1 457.4 L474.4 456.5 L475.3 454.1 L475.8 452.5 L479.5 444.5 L481.5 439.9 L485.5 430.7 L492.8 411.2 L499.1 393.1 L501.0 392.1 L503.2 384.6 L503.6 383.5 L504.2 382.1 L504.4 381.1 L504.0 379.6 L512.5 358.8 L512.9 357.5 L513.8 354.9 L513.9 354.6 L514.4 353.5 L514.6 352.6 L515.1 351.5 L515.6 350.2 L517.6 347.3 L519.7 345.6 L521.9 343.3 L524.0 340.2 L525.0 337.5 L525.5 334.4 L524.7 330.5 L523.1 327.4 L521.1 324.9 L516.8 320.0 L515.2 316.7 L515.6 314.0 L517.9 310.6 L521.7 307.7 L526.8 304.2 L531.6 300.1 L534.9 296.2 L537.3 290.9 L542.7 278.0 L555.0 248.6 L558.2 240.5 L560.1 234.7 L561.2 227.8 L562.4 219.0 L563.1 204.4 L563.2 201.9 " />
<path d="M563.2 201.9 L564.7 202.0 L564.5 204.7 L565.0 204.7 L565.1 203.7 L563.3 203.6 L560.7 202.0 " />
<path d="M560.7 202.0 L570.4 202.1 L572.1 202.1 L574.0 202.1 L579.6 202.2 L589.3 202.1 L594.5 201.0 L602.3 198.3 L608.2 196.1 L619.1 191.9 L625.4 188.9 L636.5 182.9 L644.6 177.9 L651.0 174.3 L659.1 171.2 L665.0 169.6 L678.6 167.8 L693.7 165.8 L699.5 165.8 L712.6 167.2 L716.0 167.6 L723.8 168.7 L725.9 169.1 L727.6 169.4 L735.7 170.6 L761.8 176.1 L775.0 179.7 L785.4 182.7 L820.9 192.5 L824.9 193.7 L827.4 194.3 L831.9 195.2 L834.1 199.6 L835.3 202.1 L836.5 204.5 L837.9 207.1 L846.4 223.5 L847.5 227.5 L847.1 230.5 L846.4 234.7 L843.7 238.2 L843.3 239.1 L842.4 239.7 L839.2 242.6 L830.4 249.5 L822.7 256.3 L814.8 261.7 L796.3 273.6 L780.7 283.0 L772.3 288.4 L763.4 293.6 L759.4 296.1 L758.4 297.7 L757.9 301.0 L756.9 305.9 L753.2 323.9 L751.8 332.6 L751.1 336.5 L750.5 340.1 L748.8 346.8 L745.1 352.9 L744.3 356.0 L746.1 357.8 L744.0 358.9 L744.6 361.9 L745.3 366.9 L744.3 372.7 L743.7 376.3 L743.2 380.4 L740.5 393.9 L739.8 397.1 L736.1 419.0 L735.5 420.8 L734.0 424.0 L732.4 426.7 L731.4 431.7 L722.9 454.9 L719.1 460.7 L716.3 464.5 L714.6 468.9 L716.5 470.8 L723.1 471.6 L730.6 472.7 " />
<path d="M730.6 472.7 L730.5 473.9 L726.8 473.7 L724.3 473.6 L720.9 472.7 L720.0 472.6 L720.6 469.2 L720.3 468.7 L715.3 468.0 L714.4 468.8 L712.6 468.8 L705.1 467.8 L700.7 467.5 L692.2 466.4 L645.2 461.1 L644.0 460.7 L649.0 454.8 L647.6 453.9 L645.0 450.6 L645.6 449.7 L646.0 449.8 L645.3 450.7 L645.0 450.6 L645.7 449.7 L645.2 449.4 L644.2 449.3 L643.7 449.8 L642.9 451.1 " />
<path d="M642.9 451.1 L643.7 449.8 L644.2 449.3 L645.2 449.4 L645.0 449.5 L644.4 450.4 L644.0 450.3 L644.7 449.4 L645.0 449.5 L644.4 450.4 L647.4 453.9 L649.0 454.8 L644.0 460.7 L645.2 461.1 L692.2 466.4 L700.7 467.5 L705.1 467.8 L712.6 468.8 L714.4 468.8 L715.3 468.0 L720.3 468.7 L720.6 469.2 L720.5 471.8 L722.6 471.8 L723.1 471.6 " />
<path d="M723.1 471.6 L730.6 472.7 L735.2 473.5 L740.5 474.6 L781.0 484.1 L807.4 490.4 L811.1 491.3 L814.9 492.2 L817.1 492.8 L832.8 496.3 L843.4 499.0 L847.2 500.0 L849.3 500.6 L853.2 501.9 L860.7 504.2 L858.3 507.9 L857.7 508.7 L857.0 509.7 L855.7 511.5 L855.4 514.3 L852.9 515.8 L851.8 517.7 L850.3 519.8 L847.5 524.2 L845.5 527.7 L845.1 528.6 L844.4 529.9 L840.7 535.9 L832.6 551.7 L830.1 556.3 " />
<path d="M830.1 556.3 L830.1 555.7 L829.8 556.3 L828.0 556.1 L828.2 555.0 L830.8 549.6 L831.1 548.4 " />
<path d="M831.1 548.4 L829.2 551.7 L826.3 558.0 L824.0 562.7 L818.6 574.0 L814.5 583.0 L811.0 590.0 L807.7 595.9 L804.7 602.1 L802.8 607.0 L799.1 614.8 L798.4 616.6 L800.8 616.9 L803.2 617.2 L812.1 617.1 L821.6 615.6 L828.1 614.6 L832.2 626.9 L833.6 631.3 L837.5 642.8 L855.4 640.6 L859.5 640.1 L871.7 638.5 L874.1 638.3 L876.5 638.0 L878.5 637.8 L880.5 637.6 L886.0 636.8 L899.3 635.1 L904.9 635.1 L909.1 636.3 L912.9 638.0 L917.0 640.8 L920.7 643.0 L926.4 645.0 L923.3 648.9 L922.1 650.6 L921.1 652.5 L919.4 654.8 L917.6 657.6 L916.2 662.1 L917.0 665.8 L918.7 668.7 L921.7 671.3 L925.9 674.1 L927.8 675.1 L929.6 676.3 L933.9 678.6 L949.7 689.2 L955.7 693.0 L958.7 694.9 L961.5 696.7 L967.0 700.4 L973.4 703.7 L979.0 704.7 L986.0 705.0 L991.5 704.3 L994.5 703.1 L994.8 705.6 L992.5 708.1 L939.5 731.4 L936.0 732.7 L932.6 734.1 L929.1 735.6 " />
<path d="M929.1 735.6 L928.4 736.0 L928.6 736.8 L917.9 741.4 L916.8 741.0 L861.6 764.3 L860.7 764.2 L859.7 763.9 L858.2 764.5 L857.9 765.8 L844.8 771.2 L844.1 771.2 L842.5 770.6 L841.9 771.2 L841.8 772.3 L840.1 773.1 L840.6 773.4 " />
<path d="M840.6 773.4 L836.7 775.0 L858.6 791.9 L860.0 795.2 L858.4 798.6 L841.7 808.1 L822.3 822.6 L818.3 826.1 L817.8 827.4 L819.3 828.5 L830.7 833.2 L831.4 834.8 L823.2 848.2 L822.7 850.4 L816.6 853.4 L811.7 860.0 L810.0 862.4 L808.3 864.7 L795.0 884.4 L792.9 888.1 L790.6 888.3 L789.3 889.6 L790.4 891.0 L793.1 890.9 L794.4 889.9 L798.4 890.9 L836.7 899.7 L840.9 900.6 L844.7 901.5 L919.2 919.3 L922.3 922.6 L924.7 924.4 L927.1 924.8 L928.8 923.5 L927.8 921.5 L919.2 919.3 L844.7 901.5 L840.9 900.6 L836.7 899.7 L798.4 890.9 L794.4 889.9 L793.1 890.9 L790.4 891.0 L789.3 894.0 L788.2 897.7 L784.2 911.6 L782.9 916.2 L781.8 920.6 L781.4 922.9 L781.1 925.1 L780.8 929.5 L779.1 935.9 L775.7 945.7 L774.9 948.0 L774.2 950.3 L772.8 954.9 L771.6 958.3 L770.1 964.7 L765.0 980.4 L759.7 996.7 L759.6 1000.5 L763.0 1001.5 L764.5 1001.3 L765.1 1000.3 L764.4 999.1 L759.7 996.7 L759.6 1000.5 L759.9 1003.4 L755.9 1009.8 L753.9 1012.0 L707.9 1003.4 L703.9 1002.7 L701.0 1002.1 L698.0 1001.5 L638.2 989.8 L634.1 989.0 L630.2 988.2 L626.9 987.5 L565.7 976.1 L559.5 975.2 L561.8 970.3 L573.4 946.9 L576.9 939.2 L578.6 935.8 L580.3 932.4 L591.8 908.4 L593.1 906.0 L594.9 902.2 L597.3 896.5 L604.8 880.7 L607.0 876.3 L608.4 873.6 L638.8 811.5 L640.1 808.4 L641.4 806.0 L642.8 803.5 L645.2 799.8 L658.9 802.5 L658.9 802.5 L674.2 805.3 L674.2 788.4 L674.2 786.9 L667.4 785.6 " />
<path d="M667.4 785.6 L671.4 785.6 L671.9 785.1 " />
<path d="M671.9 785.1 L671.5 785.7 L672.2 785.7 L672.9 785.0 L673.0 778.3 L671.1 776.8 L672.2 775.8 L672.1 775.1 L673.4 773.3 L684.5 762.8 L685.8 763.0 L687.9 763.0 L688.4 764.3 L686.2 766.3 " />
<path d="M686.2 766.3 L686.8 762.6 L689.8 759.4 L691.8 757.3 L693.9 755.3 L698.1 751.2 L706.8 742.9 L709.0 740.8 L711.4 738.6 L713.7 736.3 L723.5 727.3 L744.9 707.5 L758.3 694.9 L762.7 691.3 L765.5 688.7 L769.5 685.0 L782.1 672.7 L783.4 669.8 L785.9 665.7 L787.2 661.9 L787.9 660.5 L788.0 659.8 L791.2 652.4 L801.1 655.1 L803.0 655.8 L805.5 656.5 L818.9 660.9 L832.9 665.9 L852.3 672.8 L867.0 677.5 L887.6 683.2 L897.2 685.8 L900.2 686.7 " />
<path d="M900.2 686.7 L899.8 687.1 L901.6 687.6 L902.1 686.8 L901.2 686.6 L900.9 687.0 " />
<path d="M900.9 687.0 L887.6 683.2 L867.0 677.5 L852.3 672.8 L832.9 665.9 L818.9 660.9 L805.5 656.5 L803.0 655.8 L801.1 655.1 L791.2 652.4 L782.8 649.6 L778.6 648.4 L776.6 648.0 L774.9 647.4 L756.9 642.9 L732.0 637.9 L717.5 635.9 L698.8 633.3 L661.9 628.7 L659.6 628.4 L657.9 628.2 L652.1 627.6 L629.3 624.9 L604.4 622.1 L589.8 620.4 L575.1 618.6 L554.3 616.1 L552.9 615.9 L550.9 615.6 L546.4 614.9 L541.8 614.3 L534.0 612.7 L529.4 611.4 L523.7 609.4 L516.5 605.9 L510.2 603.1 L499.9 599.1 L492.8 597.4 L487.6 596.4 L477.3 595.6 L460.7 595.5 L445.1 594.4 L430.4 592.6 L419.9 590.7 L410.7 588.1 L407.7 587.1 L404.1 586.0 L399.4 584.3 L362.0 571.3 L330.3 560.8 L328.0 560.0 L326.7 559.5 L321.5 557.6 L315.8 555.5 L314.9 555.2 L312.0 554.2 L308.5 552.9 L286.8 544.8 L255.0 533.1 L251.4 531.8 L249.3 530.9 L247.2 530.0 L244.9 529.1 L246.2 526.7 L250.3 519.7 L253.4 515.2 L257.1 508.9 L260.6 501.4 L265.4 489.1 " />
<path d="M265.4 489.1 L266.0 488.6 L267.3 485.7 L269.3 485.7 L269.8 484.5 L291.4 487.9 L295.1 489.0 L298.8 490.2 L302.7 490.5 L307.1 490.1 L311.2 490.5 L318.3 491.5 L320.5 491.2 L326.6 492.7 L327.2 493.2 L347.2 498.3 L357.9 501.1 L366.6 492.5 L368.6 492.8 L370.4 490.9 L374.0 487.3 L373.6 486.9 " />
<path d="M373.6 486.9 L378.7 481.4 L380.3 479.4 L381.3 478.4 L382.3 477.6 L384.1 476.1 L377.6 453.5 L375.5 444.4 L374.7 438.4 L374.7 432.3 L375.7 428.0 L379.1 414.0 L380.0 411.4 L381.4 408.9 L384.2 406.3 L385.4 403.3 L391.3 387.5 L394.1 381.3 L394.9 380.0 L395.6 378.3 L397.8 375.1 L403.6 366.8 L407.9 355.9 L410.1 351.8 L412.4 347.8 L414.8 343.9 L415.8 342.1 L416.2 341.2 L412.8 340.5 L413.3 339.4 L412.6 336.9 L418.8 334.6 L420.9 332.6 L430.2 323.0 L433.1 319.7 L437.2 310.8 L440.2 306.1 L444.1 300.7 L446.4 296.0 L448.1 290.5 L450.4 286.4 L453.6 282.3 L458.7 271.9 L459.1 265.2 L459.3 262.3 L459.8 259.6 L460.0 259.0 L460.5 258.0 L462.4 254.3 L468.1 244.1 L470.0 238.5 L471.0 235.8 L472.0 233.0 L463.0 229.4 L459.4 228.0 L455.9 226.4 L448.4 223.2 L432.4 216.6 L430.0 215.6 L424.6 213.1 L418.4 210.5 L389.6 199.2 L384.0 197.0 L376.6 195.0 L366.0 193.0 L355.1 191.0 L351.7 190.3 L346.6 189.0 L343.7 188.2 L335.8 185.5 L297.4 171.2 L293.9 170.0 L290.2 168.6 L269.5 160.8 L266.6 160.1 L261.8 160.0 L258.1 161.4 L252.1 162.7 L247.2 163.4 L238.8 163.5 L235.3 162.6 L230.0 160.4 L227.1 158.5 L225.5 157.0 L225.5 154.8 L226.9 152.6 L230.2 147.8 L230.3 145.9 L228.9 144.1 L226.1 142.4 L201.6 128.3 L194.5 123.4 L173.4 108.0 L154.0 95.6 L132.5 82.7 L126.3 79.9 L117.5 77.8 L107.9 76.4 L106.9 76.3 L104.5 76.0 L96.5 75.2 L98.8 71.9 L101.2 68.7 L122.7 40.8 L129.4 32.0 L131.2 29.7 L132.5 27.3 L133.8 24.9 L133.5 19.6 L132.1 14.5 L134.9 13.7 L134.9 13.5 L133.6 12.0 " />
<circle cx="130.9" cy="13.0" r="8" />
<circle cx="43.7" cy="632.1" r="8" />
<circle cx="43.7" cy="632.1" r="8" />
<circle cx="39.3" cy="643.8" r="8" />
<circle cx="39.3" cy="643.8" r="8" />
<circle cx="471.6" cy="452.1" r="8" />
<circle cx="471.6" cy="452.1" r="8" />
<circle cx="477.7" cy="463.1" r="8" />
<circle cx="477.7" cy="463.1" r="8" />
<circle cx="390.9" cy="758.9" r="8" />
<circle cx="390.9" cy="758.9" r="8" />
<circle cx="412.8" cy="759.4" r="8" />
<circle cx="412.8" cy="759.4" r="8" />
<circle cx="193.8" cy="638.5" r="8" />
<circle cx="193.8" cy="638.5" r="8" />
<circle cx="197.8" cy="644.3" r="8" />
<circle cx="197.8" cy="644.3" r="8" />
<circle cx="563.2" cy="201.9" r="8" />
<circle cx="563.2" cy="201.9" r="8" />
<circle cx="560.7" cy="202.0" r="8" />
<circle cx="560.7" cy="202.0" r="8" />
<circle cx="730.6" cy="472.7" r="8" />
<circle cx="730.6" cy="472.7" r="8" />
<circle cx="642.9" cy="451.1" r="8" />
<circle cx="642.9" cy="451.1" r="8" />
<circle cx="723.1" cy="471.6" r="8" />
<circle cx="723.1" cy="471.6" r="8" />
<circle cx="830.1" cy="556.3" r="8" />
<circle cx="830.1" cy="556.3" r="8" />
<circle cx="831.1" cy="548.4" r="8" />
<circle cx="831.1" cy="548.4" r="8" />
<circle cx="929.1" cy="735.6" r="8" />
<circle cx="929.1" cy="735.6" r="8" />
<circle cx="840.6" cy="773.4" r="8" />
<circle cx="840.6" cy="773.4" r="8" />
<circle cx="667.4" cy="785.6" r="8" />
<circle cx="667.4" cy="785.6" r="8" />
<circle cx="671.9" cy="785.1" r="8" />
<circle cx="671.9" cy="785.1" r="8" />
<circle cx="686.2" cy="766.3" r="8" />
<circle cx="686.2" cy="766.3" r="8" />
<circle cx="900.2" cy="686.7" r="8" />
<circle cx="900.2" cy="686.7" r="8" />
<circle cx="900.9" cy="687.0" r="8" />
<circle cx="900.9" cy="687.0" r="8" />
<circle cx="265.4" cy="489.1" r="8" />
<circle cx="265.4" cy="489.1" r="8" />
<circle cx="373.6" cy="486.9" r="8" />
<circle cx="373.6" cy="486.9" r="8" />
<circle cx="133.6" cy="12.0" r="8" />
<style>
circle {
fill: white;
stroke: #ff61b1;
stroke-width: 4;
}
path {
fill: none;
stroke: #ff61b1;
stroke-width: 8;
}</style>
</svg>