<svg width="1024.0" height="704.5" xmlns="http://www.w3.org/2000/svg">
<path d="M424.1 331.9 L426.2 330.9 L433.2 327.4 L435.7 325.2 L438.3 322.5 L442.0 319.6 L447.2 316.2 L453.9 312.7 L454.9 312.2 L456.0 311.5 L458.7 309.8 L460.3 308.9 L462.8 307.0 L491.5 278.7 L494.8 275.4 L498.3 272.2 L500.2 270.1 L501.3 268.2 L502.3 263.2 L502.3 261.3 L502.3 260.1 L502.4 258.3 L502.4 257.9 L502.6 257.0 L502.6 255.5 L502.0 253.2 L502.4 252.1 L503.7 250.2 L505.4 248.1 L509.3 243.7 L515.1 238.0 L519.1 234.7 L526.2 230.0 L528.7 228.5 L531.8 226.8 L534.3 225.8 L526.2 230.0 L528.7 228.5 L531.8 226.8 L534.3 225.8 L537.0 224.4 L541.0 222.5 L546.6 220.0 L553.3 217.8 L559.6 215.9 L563.2 214.8 L571.6 212.8 L574.0 212.5 L577.0 212.0 L580.2 211.5 L582.1 211.1 L584.0 210.9 L589.8 210.4 L598.4 209.9 L606.6 209.6 L613.0 209.5 L615.7 209.5 L615.9 209.5 L624.2 209.7 L637.7 210.9 L639.5 211.1 L641.5 211.5 L642.1 211.5 L643.9 211.8 L647.6 212.5 L649.3 212.9 L651.1 213.0 L654.3 212.9 L657.0 213.5 L661.5 214.7 L690.3 223.6 L693.5 223.8 L696.1 223.0 L697.0 222.0 L698.1 221.1 L700.0 218.9 L705.6 213.0 L711.2 207.2 L712.3 206.0 L712.7 205.5 L714.4 204.0 L715.7 202.5 L717.0 201.1 L717.7 199.2 L717.7 197.5 L717.4 196.7 L716.8 195.5 L711.5 181.3 L708.2 172.4 L707.7 170.2 L707.7 166.9 L707.4 163.9 L708.2 161.3 L709.5 158.3 L710.3 155.2 L714.1 140.2 L718.1 124.7 L718.8 122.2 L719.2 120.6 L719.4 119.3 L720.1 116.7 L722.3 105.7 L722.4 102.2 L720.3 95.7 L716.3 91.0 L715.5 89.8 L714.0 86.8 L713.7 85.6 L713.4 84.4 L713.0 83.1 L712.5 81.4 L712.1 80.3 L711.5 78.9 L707.5 66.5 L706.7 63.1 L704.0 51.3 L701.7 35.5 L701.5 33.5 L701.5 32.7 L701.4 30.9 " />
<path d="M701.4 30.9 L701.2 21.5 L701.0 12.0 " />
<path d="M701.0 12.0 L700.8 13.7 L700.7 15.3 L700.8 26.7 L701.4 30.9 L701.5 32.7 L701.5 33.5 L701.7 35.5 L704.0 51.3 L706.7 63.1 L707.5 66.5 L711.5 78.9 L712.1 80.3 L712.5 81.4 L713.0 83.1 L713.4 84.4 L713.7 85.6 L714.0 86.8 L715.5 89.8 L716.3 91.0 L720.3 95.7 L722.4 102.2 L722.3 105.7 L720.1 116.7 L719.4 119.3 L719.2 120.6 L718.8 122.2 L718.1 124.7 L714.1 140.2 L710.3 155.2 L709.5 158.3 L708.2 161.3 L707.4 163.9 L707.7 166.9 L707.7 170.2 L708.2 172.4 L711.5 181.3 L716.8 195.5 L717.4 196.7 L717.7 197.5 L717.7 199.2 L717.0 201.1 L715.7 202.5 L714.4 204.0 L712.7 205.5 L712.3 206.0 L711.2 207.2 L705.6 213.0 L700.0 218.9 L698.1 221.1 L697.0 222.0 L696.1 223.0 L693.5 223.8 L690.3 223.6 L661.5 214.7 L657.0 213.5 L654.3 212.9 L651.1 213.0 L649.3 212.9 L647.6 212.5 L643.9 211.8 L642.1 211.5 L641.5 211.5 L639.5 211.1 L637.7 210.9 L624.2 209.7 L615.9 209.5 L615.7 209.5 L613.0 209.5 L606.6 209.6 L598.4 209.9 L589.8 210.4 L584.0 210.9 L582.1 211.1 L580.2 211.5 L577.0 212.0 L574.0 212.5 L571.6 212.8 L563.2 214.8 L559.6 215.9 L553.3 217.8 L546.6 220.0 L541.0 222.5 L537.0 224.4 L534.3 225.8 L531.8 226.8 L528.7 228.5 L526.2 230.0 L519.1 234.7 L515.1 238.0 L509.3 243.7 L505.4 248.1 L503.7 250.2 L502.4 252.1 L502.0 253.2 L502.6 255.5 L502.6 257.0 L502.4 257.9 L502.4 258.3 L502.3 260.1 L502.3 261.3 L502.3 263.2 L501.3 268.2 L500.2 270.1 L498.3 272.2 L494.8 275.4 L491.5 278.7 L462.8 307.0 L460.3 308.9 L458.7 309.8 L456.0 311.5 L454.9 312.2 L453.9 312.7 L447.2 316.2 L442.0 319.6 L438.3 322.5 L435.7 325.2 L433.2 327.4 L426.2 330.9 L424.1 331.9 L420.3 335.9 L418.5 338.0 L415.3 342.1 L411.7 349.4 L410.6 352.0 L409.6 354.7 L408.6 358.0 L407.1 361.2 L400.6 376.6 L400.1 378.2 L399.8 379.3 L399.3 381.0 L398.9 383.4 L402.5 383.9 L406.2 384.3 L412.1 384.8 L418.1 385.4 L444.1 387.2 L442.6 388.1 L440.9 397.2 L440.5 399.5 L440.0 401.1 L439.4 402.8 L436.7 411.2 L434.5 416.9 L434.4 421.2 L434.4 422.0 L434.4 423.0 L434.9 424.9 L435.6 425.5 L435.9 428.0 L436.4 430.5 L439.6 431.2 L448.3 433.4 L467.7 437.2 L475.7 438.9 L477.8 439.3 L479.1 439.5 L484.5 440.5 L483.7 441.9 L482.1 444.5 L480.8 446.0 L480.0 447.5 L480.2 449.3 L480.0 457.1 L480.2 465.7 L480.4 479.2 L480.4 485.9 L480.8 508.1 L480.8 510.5 L480.8 511.5 L480.8 514.2 L480.8 515.0 L480.8 517.0 L478.0 518.4 L475.2 519.9 L472.8 521.2 L470.7 522.9 L469.1 525.4 L469.1 528.3 L471.6 533.3 L472.6 536.1 L472.8 537.8 L470.9 540.0 L465.4 543.6 L460.3 547.1 L456.7 550.5 L453.7 553.4 L452.0 554.9 L450.2 556.8 L448.7 558.7 L446.0 561.8 L443.4 565.1 L435.6 574.2 L434.0 575.8 L433.4 576.5 L431.2 579.2 L429.9 580.6 L428.5 582.0 L423.9 586.9 L422.1 588.9 L420.3 590.7 L418.5 592.6 L417.3 593.9 L416.1 595.1 L414.8 596.1 L412.7 598.1 L411.8 599.1 L411.2 599.7 L408.0 604.1 L388.2 626.3 " />
<path d="M388.2 626.3 L384.4 606.9 L380.6 587.5 " />
<path d="M380.6 587.5 L395.9 589.4 L411.3 591.2 " />
<path d="M411.3 591.2 L417.3 593.9 L424.3 597.3 L429.7 599.2 L434.2 600.5 L441.8 602.1 L446.1 602.7 L450.5 603.3 L452.4 603.6 L453.8 603.7 L473.9 606.2 L488.1 607.9 L502.2 609.6 L526.2 612.3 L548.2 614.9 L553.8 615.5 L555.5 615.7 L557.6 615.9 L593.3 620.3 L611.3 622.8 L625.3 624.9 L649.3 629.7 L666.7 634.0 L668.3 634.5 L670.2 635.0 L674.3 636.1 L682.4 638.8 L683.6 633.2 L684.0 632.0 L684.5 630.4 L686.0 624.1 L688.0 616.1 L691.7 604.6 L699.5 588.9 L700.2 588.1 L700.4 587.1 L701.5 584.6 L711.4 564.1 L714.5 557.8 L718.2 549.6 L718.9 548.5 L720.0 546.1 L722.4 541.7 L730.2 526.4 L733.8 520.5 L734.5 519.3 L734.9 518.5 L736.8 515.0 L739.5 510.9 L740.9 508.8 L742.0 506.9 L744.4 505.5 L744.7 502.9 L745.9 501.1 L746.6 500.1 L747.2 499.4 L749.5 495.8 L751.4 492.4 L752.1 491.2 L752.6 490.3 L753.2 489.2 L754.7 486.7 L758.1 481.1 L761.5 475.5 L766.4 466.0 " />
<path d="M766.4 466.0 L780.3 472.0 L794.2 478.0 " />
<path d="M794.2 478.0 L785.5 470.6 L776.8 463.3 " />
<path d="M776.8 463.3 L775.5 463.1 L774.5 462.9 L769.2 461.8 L767.5 464.5 L767.0 465.7 L766.4 466.0 L761.5 475.5 L758.1 481.1 L754.7 486.7 L753.2 489.2 L752.6 490.3 L752.1 491.2 L751.4 492.4 L749.5 495.8 L742.3 493.5 L738.6 492.3 L736.5 491.8 L732.8 490.8 L722.6 488.2 L707.4 484.8 L705.4 484.2 L701.7 483.3 L698.1 482.4 L672.6 476.4 L633.5 467.2 L628.4 466.2 L623.9 465.4 L616.7 464.3 L610.4 463.6 L604.1 463.0 L597.5 462.2 L576.1 459.9 L546.2 456.6 L543.4 456.2 L540.8 455.9 L537.1 455.5 L531.8 454.8 L517.2 452.8 L512.0 451.8 L507.8 450.2 L500.2 446.1 L494.9 443.5 L488.1 441.3 L484.5 440.5 L479.1 439.5 L477.8 439.3 L475.7 438.9 L467.7 437.2 L448.3 433.4 L439.6 431.2 L436.4 430.5 L435.9 428.0 L435.6 425.5 L434.9 424.9 L434.4 423.0 L434.4 422.0 L434.4 421.2 L434.5 416.9 L436.7 411.2 L439.4 402.8 L440.0 401.1 L440.5 399.5 L440.9 397.2 " />
<path d="M440.9 397.2 L442.6 388.1 L444.1 387.2 L444.1 387.2 L454.1 387.8 L456.8 388.1 " />
<path d="M456.8 388.1 L463.5 388.6 L478.5 390.1 L479.3 390.2 L490.4 392.0 L494.1 392.7 L501.5 393.9 L511.7 395.5 " />
<path d="M511.7 395.5 L516.5 396.2 L538.1 399.8 L541.7 400.0 L543.4 399.5 L545.2 398.3 L546.8 395.6 L547.7 394.1 L549.2 392.7 L549.6 391.8 L566.5 399.4 L571.6 401.4 L575.0 402.3 L578.5 403.3 L580.5 403.7 L582.6 404.1 L586.7 405.1 L588.9 405.7 L589.8 405.9 L594.7 408.2 L595.8 408.6 L604.0 411.8 L611.6 414.1 L616.0 414.8 L621.6 415.0 L624.5 415.1 L625.3 415.1 L628.7 415.3 L638.3 415.6 L642.4 416.0 L646.5 417.0 L649.5 418.3 L652.1 419.8 L656.0 422.4 L656.6 422.9 L660.4 426.2 L664.8 428.6 L666.1 429.9 L669.3 429.9 L670.5 429.9 L672.4 430.1 L675.8 430.7 L679.3 431.3 L682.3 431.9 L687.5 433.5 L715.5 443.3 L729.5 448.1 L732.8 449.2 L733.8 449.6 L735.1 450.1 " />
<path d="M735.1 450.1 L737.2 450.7 L760.0 458.6 L762.1 459.4 L763.4 459.9 L769.2 461.8 L774.5 462.9 L775.5 463.1 L776.8 463.3 L781.3 464.4 L796.1 468.2 L819.7 473.2 L834.4 476.2 L846.4 479.2 L856.9 482.8 L860.0 484.3 L862.1 485.3 L863.5 485.9 L869.5 489.7 L887.5 501.0 L897.5 506.3 L899.3 507.3 L901.2 508.4 L918.9 517.4 L930.4 521.6 L937.4 523.7 L945.0 525.1 L946.8 525.4 L949.1 525.7 L967.3 529.6 L978.2 533.0 L988.2 538.1 L994.8 543.7 L1000.7 548.1 L1005.7 551.9 L1008.3 553.9 L1009.7 554.8 L1011.2 555.8 L1012.0 558.6 L1009.8 561.7 L998.3 573.4 L993.6 577.6 L990.0 580.0 L985.1 582.9 L982.3 583.9 L979.3 585.0 L976.5 586.1 L974.8 586.5 L966.8 588.9 L959.9 590.9 L958.3 591.5 L948.3 595.7 L939.2 599.6 L934.7 601.5 L933.2 602.5 L924.3 609.7 L923.5 610.4 L921.1 612.4 L922.5 611.2 L920.7 612.8 L907.3 625.0 L899.5 631.2 L898.3 631.9 L895.3 633.4 L892.8 634.9 " />
<path d="M892.8 634.9 L884.8 663.7 L876.7 692.5 " />
<path d="M876.7 692.5 L878.9 690.2 L878.6 687.7 L875.8 688.9 L870.4 689.5 L863.7 689.3 L858.3 688.4 L852.1 685.1 L846.8 681.6 L844.1 679.9 L841.2 678.0 L835.4 674.3 L820.1 664.1 L816.0 661.9 L814.3 660.7 L812.5 659.7 L808.4 657.1 L805.5 654.6 L803.9 651.7 L803.1 648.1 L804.4 643.8 L806.2 641.1 L807.8 638.9 L808.8 637.1 L809.9 635.5 L812.9 631.7 L807.4 629.8 L803.9 627.6 L799.9 624.9 L796.2 623.3 L792.1 622.1 L786.8 622.1 L774.0 623.8 L768.6 624.5 L766.7 624.7 L764.8 624.9 L762.5 625.2 L760.2 625.4 L748.4 626.9 L744.4 627.4 L727.1 629.5 L723.4 618.4 L722.0 614.2 L718.1 602.3 L711.8 603.3 L702.6 604.7 L694.0 604.8 L691.7 604.6 L695.9 601.6 L694.0 604.8 L697.6 598.2 L695.9 601.6 L700.4 592.6 L697.6 598.2 L704.1 585.2 L700.4 592.6 L705.5 582.7 L705.5 582.7 L707.0 579.9 L711.0 571.9 L714.2 564.8 L714.8 563.4 L720.3 552.3 L722.7 546.9 L724.5 542.5 L726.5 538.0 L728.2 535.1 L729.3 533.1 L732.0 528.2 L730.2 526.4 L733.8 520.5 L734.5 519.3 L734.9 518.5 L736.8 515.0 L739.5 510.9 L740.9 508.8 L742.0 506.9 L744.4 505.5 L744.7 502.9 L745.9 501.1 L746.6 500.1 L747.2 499.4 L749.5 495.8 L742.3 493.5 L738.6 492.3 L736.5 491.8 L732.8 490.8 L722.6 488.2 L707.4 484.8 L705.4 484.2 L701.7 483.3 L698.1 482.4 L672.6 476.4 L673.4 475.1 L654.0 470.7 L634.0 466.0 L625.1 464.1 L613.5 462.4 L610.4 463.6 L613.5 462.4 L615.3 458.1 L616.0 453.6 L616.5 448.2 L624.3 446.8 L633.2 444.1 L645.9 439.2 L660.5 433.7 L664.4 432.3 L666.3 430.9 L666.1 429.9 L664.8 428.6 L660.4 426.2 L656.6 422.9 L656.0 422.4 L654.1 418.5 L652.9 416.2 L651.7 413.9 L649.7 411.2 L643.9 404.5 L639.8 400.1 L639.6 397.9 L640.7 391.6 L645.5 384.2 L640.9 376.7 L636.1 376.3 L636.6 372.3 L637.2 368.9 L638.1 363.3 L640.6 355.9 L638.9 354.5 L640.9 353.0 L641.4 350.4 L641.5 343.9 L643.2 337.4 L643.7 333.9 L644.4 330.2 L645.8 321.8 L649.3 304.4 L650.3 299.7 L650.8 296.5 L651.8 294.9 L655.6 292.5 L664.2 287.5 L672.3 282.3 L687.3 273.2 L705.2 261.7 L712.9 256.6 L720.3 250.0 L728.7 243.3 L731.9 240.5 L732.7 239.9 L733.1 239.1 L735.7 235.6 L736.4 231.6 L736.8 228.7 L735.7 224.9 L727.5 209.0 L726.1 206.5 L725.0 204.2 L723.8 201.8 L721.8 197.5 L717.4 196.7 L714.9 196.1 L711.1 195.0 L676.8 185.5 L666.8 182.6 L654.1 179.1 L628.8 173.8 L621.0 172.7 L619.4 172.4 L621.0 171.3 L621.5 166.8 L622.1 161.8 L623.2 158.7 L624.7 155.9 L635.4 141.8 L637.2 139.4 L642.1 135.7 L644.5 133.8 L645.0 131.3 L642.1 129.5 L637.9 129.6 L630.6 128.8 " />
<path d="M630.6 128.8 L594.5 127.1 L558.5 125.3 " />
<path d="M558.5 125.3 L519.2 123.6 L478.8 121.6 L477.3 122.6 L475.8 121.4 L466.1 121.1 L450.5 120.8 L443.4 121.2 L435.5 122.2 L424.8 123.5 L409.9 125.3 L399.0 126.6 L400.1 128.5 L407.9 144.0 L411.8 151.7 L429.7 183.7 L422.1 170.8 L429.7 183.7 L433.3 190.5 L434.7 192.9 L441.5 204.5 L443.0 207.2 L447.1 214.3 L450.4 220.4 L443.5 223.3 L413.7 235.2 L408.1 235.6 L391.5 236.6 L379.6 234.9 L374.4 234.1 L373.4 236.7 L372.5 239.4 L370.0 245.2 L365.1 254.6 L363.3 258.1 L362.8 259.1 L362.6 259.7 L362.1 262.3 " />
<path d="M362.1 262.3 L362.1 262.3 L362.1 262.3 " />
<path d="M362.1 262.3 L362.6 259.7 L362.8 259.1 L363.3 258.1 L365.1 254.6 L370.0 245.2 L372.5 239.4 L373.4 236.7 L374.4 234.1 L365.6 230.5 L362.2 229.2 L358.8 227.7 L351.6 224.6 L336.1 218.2 L333.8 217.2 L328.6 214.9 L322.6 212.3 L294.9 201.5 L289.4 199.3 L282.3 197.4 L272.0 195.5 L261.5 193.5 L258.2 192.8 L253.3 191.5 L250.6 190.8 L242.9 188.2 L205.9 174.4 L202.5 173.2 L198.9 171.9 L179.0 164.4 L176.1 163.7 L171.5 163.6 L167.9 164.9 L162.2 166.2 L157.4 166.9 L149.3 166.9 L145.9 166.1 L140.9 163.9 L138.0 162.1 L136.5 160.7 L136.5 158.6 L137.9 156.4 L141.0 151.9 L141.1 150.0 L139.8 148.3 L137.0 146.6 L113.4 133.0 L106.6 128.3 L96.3 120.8 L86.2 113.4 L67.5 101.4 L46.7 89.0 L40.7 86.3 L32.2 84.3 L22.9 82.9 L22.0 82.8 L19.7 82.5 L12.0 81.8 L14.2 78.6 L16.5 75.5 L18.1 73.2 L24.7 64.5 L37.3 48.6 L43.7 40.1 L45.5 37.8 L46.7 35.5 L47.9 33.2 L47.7 28.1 L46.3 23.2 L49.0 22.4 L49.0 22.2 L47.8 20.7 " />
<circle cx="424.1" cy="331.9" r="8" />
<circle cx="701.4" cy="30.9" r="8" />
<circle cx="701.4" cy="30.9" r="8" />
<circle cx="701.0" cy="12.0" r="8" />
<circle cx="701.0" cy="12.0" r="8" />
<circle cx="388.2" cy="626.3" r="8" />
<circle cx="388.2" cy="626.3" r="8" />
<circle cx="380.6" cy="587.5" r="8" />
<circle cx="380.6" cy="587.5" r="8" />
<circle cx="411.3" cy="591.2" r="8" />
<circle cx="411.3" cy="591.2" r="8" />
<circle cx="766.4" cy="466.0" r="8" />
<circle cx="766.4" cy="466.0" r="8" />
<circle cx="794.2" cy="478.0" r="8" />
<circle cx="794.2" cy="478.0" r="8" />
<circle cx="776.8" cy="463.3" r="8" />
<circle cx="776.8" cy="463.3" r="8" />
<circle cx="440.9" cy="397.2" r="8" />
<circle cx="440.9" cy="397.2" r="8" />
<circle cx="456.8" cy="388.1" r="8" />
<circle cx="456.8" cy="388.1" r="8" />
<circle cx="511.7" cy="395.5" r="8" />
<circle cx="511.7" cy="395.5" r="8" />
<circle cx="735.1" cy="450.1" r="8" />
<circle cx="735.1" cy="450.1" r="8" />
<circle cx="892.8" cy="634.9" r="8" />
<circle cx="892.8" cy="634.9" r="8" />
<circle cx="876.7" cy="692.5" r="8" />
<circle cx="876.7" cy="692.5" r="8" />
<circle cx="630.6" cy="128.8" r="8" />
<circle cx="630.6" cy="128.8" r="8" />
<circle cx="558.5" cy="125.3" r="8" />
<circle cx="558.5" cy="125.3" r="8" />
<circle cx="362.1" cy="262.3" r="8" />
<circle cx="362.1" cy="262.3" r="8" />
<circle cx="362.1" cy="262.3" r="8" />
<circle cx="362.1" cy="262.3" r="8" />
<circle cx="47.8" cy="20.7" r="8" />
<style>
circle {
fill: white;
stroke: #ff61b1;
stroke-width: 4;
}
path {
fill: none;
stroke: #ff61b1;
stroke-width: 8;
}</style>
</svg>