<svg width="1024.0" height="460.9" xmlns="http://www.w3.org/2000/svg">
<path d="M688.5 204.4 L691.0 205.0 L699.3 207.1 L712.6 209.9 L720.8 211.6 L727.5 213.3 L733.4 215.3 L735.2 216.1 L736.3 216.7 L737.1 217.1 L740.5 219.2 L750.6 225.5 L756.2 228.5 L757.2 229.0 L758.3 229.7 L768.2 234.7 L774.7 237.1 L778.6 238.3 L782.9 239.0 L783.9 239.2 L785.2 239.4 L795.4 241.6 L801.5 243.5 L807.1 246.3 L810.8 249.5 L814.1 251.9 L816.9 254.1 L818.4 255.2 L819.1 255.7 L820.0 256.3 L823.1 258.0 L827.6 260.0 L833.9 262.2 L838.0 263.4 L838.9 263.8 L840.2 264.1 L846.4 266.1 L853.0 268.9 L857.9 271.7 L861.9 274.5 L864.7 276.8 L865.8 277.4 L865.8 277.6 L867.4 278.9 L868.9 280.4 L871.3 282.6 L881.7 292.5 L882.5 292.9 L883.1 293.5 L887.5 296.9 L890.9 301.1 L892.5 302.5 L895.0 302.8 L897.1 302.4 L919.9 291.5 L920.9 291.2 L921.9 290.8 " />
<path d="M921.9 290.8 L922.1 291.0 L923.5 290.4 L923.2 290.0 L922.2 290.4 L923.2 290.0 L923.5 290.4 L922.1 291.0 L921.9 290.8 " />
<path d="M921.9 290.8 L923.0 290.3 L924.1 290.0 L925.7 289.7 L927.4 289.9 L928.7 290.2 L930.0 291.4 L930.4 292.5 L931.3 295.1 " />
<path d="M931.3 295.1 L932.7 296.5 L933.1 297.2 L932.2 297.5 L932.8 298.6 L933.3 299.4 L932.2 297.5 L933.9 297.1 L934.2 297.1 L936.0 297.4 L938.0 297.0 L938.7 296.9 L939.6 296.9 L940.4 296.5 L936.9 293.9 L937.3 293.6 L939.1 294.9 L936.6 293.0 L935.5 292.2 L937.3 293.6 L936.2 294.2 L935.6 294.6 L934.5 294.0 L933.5 293.6 L934.5 294.1 L934.4 294.2 L932.2 294.8 L931.4 295.0 L933.0 297.3 L932.1 297.5 L933.4 299.6 L933.6 299.4 " />
<path d="M933.6 299.4 L934.3 300.3 L935.2 300.9 L936.2 301.6 L936.9 301.7 L938.2 301.6 L938.9 301.3 L941.1 300.5 L942.8 299.8 L944.6 298.7 L946.8 297.4 L949.7 296.1 L956.3 293.3 L957.6 292.5 L958.9 290.9 L959.9 289.8 L961.0 289.2 L964.1 287.9 L967.4 286.5 L976.7 282.4 L981.6 280.0 L982.6 279.0 L983.2 277.9 L983.1 276.9 L982.7 274.0 L982.5 272.8 L982.0 269.3 L981.9 267.9 L980.9 266.4 L980.0 265.4 L979.1 263.9 L979.1 263.3 L979.9 262.5 L980.6 261.4 L980.6 261.0 L979.2 258.7 L978.9 258.1 L978.3 257.1 L977.6 255.8 L977.5 255.3 L977.3 254.7 L978.0 254.7 L978.5 254.0 L979.3 253.8 L980.2 253.7 L980.9 253.7 L981.8 253.8 L982.6 253.9 L983.6 253.9 L984.4 253.9 L985.4 253.9 L986.5 253.9 L989.4 253.7 L992.4 253.3 L995.7 252.9 L999.3 252.5 L1003.4 252.0 L1006.5 251.2 L1008.1 250.7 L1008.8 250.3 L1009.5 249.7 L1010.2 249.5 L1012.0 248.8 L1011.3 248.3 L1010.3 248.1 L1009.2 248.2 L1008.9 247.3 L1008.5 245.3 L1007.6 241.5 L1007.3 240.4 L1007.2 240.1 L1006.6 238.1 L1008.1 237.7 L1008.9 237.6 " />
<path d="M1008.9 237.6 L1008.8 237.9 L1008.2 238.1 L1007.6 237.5 L1008.3 237.2 L1009.0 237.0 L1008.2 237.2 L1007.7 237.5 L1008.0 238.1 L1007.4 238.4 L1007.5 238.6 L1007.6 239.1 L1007.4 238.6 L1006.5 238.7 L1006.7 239.0 L1006.9 239.6 L1006.8 240.3 L1006.8 240.8 L1006.9 240.8 L1006.8 240.8 L1006.9 239.6 L1006.7 238.9 L1006.5 238.7 L1007.4 238.5 L1007.7 238.2 L1008.0 238.1 L1007.7 237.4 L1007.9 237.3 L1009.0 236.9 L1009.4 237.4 " />
<path d="M1009.4 237.4 L1008.9 237.6 L1008.1 237.7 L1006.6 238.1 L1002.0 239.1 L986.7 242.0 L983.0 243.0 L980.4 243.4 L978.2 243.7 L976.3 243.8 L974.6 243.8 L971.0 243.6 L964.8 243.0 L936.6 243.4 L931.0 242.1 L923.6 240.1 L909.6 236.9 L895.4 233.6 L889.5 232.4 L886.2 231.9 L883.7 231.9 L881.5 232.8 L880.8 231.5 L879.2 230.3 L877.3 229.2 L875.8 228.2 L873.8 227.4 L871.6 226.7 L868.8 226.0 L843.6 220.3 L842.5 220.5 L842.2 219.8 L839.8 219.2 " />
<path d="M839.8 219.2 L838.7 218.4 L839.8 218.7 L841.4 219.3 L840.9 220.4 L841.2 220.7 L841.3 221.1 L840.4 222.2 L841.3 221.1 L841.3 220.9 L843.4 221.4 L844.9 221.7 L845.5 222.0 L844.9 221.7 L843.3 221.4 L841.3 220.9 L841.3 221.1 L839.9 222.7 " />
<path d="M839.9 222.7 L833.8 230.6 L831.5 233.4 L829.8 235.6 L828.7 237.2 L828.0 238.7 L827.7 240.1 L827.6 241.9 L827.3 244.3 L827.0 246.8 L826.4 249.0 L825.6 250.9 L824.4 252.6 L823.2 254.1 " />
<path d="M823.2 254.1 L822.8 254.3 L822.2 254.8 L821.6 254.9 L821.5 255.0 L820.7 254.5 L820.5 254.6 L824.0 257.0 L824.3 256.6 L823.9 256.5 L824.8 255.3 L825.3 255.2 L824.8 255.3 L823.9 256.5 L824.3 256.6 L824.0 257.0 L820.2 254.4 L819.9 254.3 L819.4 254.2 L816.7 252.5 L814.1 251.9 " />
<path d="M814.1 251.9 L810.8 249.5 L807.1 246.3 L801.5 243.5 L795.4 241.6 L785.2 239.4 L783.9 239.2 L782.9 239.0 L778.6 238.3 L774.7 237.1 L768.2 234.7 L758.3 229.7 L757.2 229.0 L756.2 228.5 L750.6 225.5 L740.5 219.2 L737.1 217.1 L736.3 216.7 L735.2 216.1 L733.4 215.3 L727.5 213.3 L720.8 211.6 L712.6 209.9 L699.3 207.1 L691.0 205.0 L688.5 204.4 L687.7 204.2 L687.2 204.1 L684.2 203.5 L681.0 202.5 L680.2 202.2 L679.1 201.8 L666.2 197.3 L665.1 196.9 L664.3 196.7 L663.8 196.5 L662.0 195.9 L654.1 193.1 L638.3 187.6 L635.4 186.8 L633.7 186.4 L631.8 186.1 L629.9 185.7 L628.8 185.6 L628.1 185.6 L626.4 185.6 L625.6 184.9 L623.1 183.5 L621.0 181.7 L620.7 181.4 L618.5 179.9 L617.0 179.1 L615.3 178.4 L613.0 177.8 L610.7 177.6 L605.4 177.4 L603.4 177.3 L603.0 177.3 L601.4 177.3 L598.2 177.2 L595.8 176.8 L591.5 175.4 L586.9 173.7 L586.3 173.4 L583.5 172.2 L583.0 172.0 L581.8 171.7 L579.5 171.1 L578.3 170.9 L577.2 170.7 L575.2 170.2 L573.3 169.6 L570.5 168.5 L561.0 164.3 L560.7 163.9 L560.6 163.4 L561.2 162.5 L561.7 161.5 L562.0 161.1 L562.0 160.6 L561.8 160.3 L561.1 160.0 L548.6 159.2 L544.4 158.9 L542.7 158.8 L537.5 158.5 L532.3 158.1 L527.0 157.8 L525.4 157.5 L524.1 156.3 L520.9 154.9 L515.0 152.6 L511.5 151.7 L510.4 151.5 L508.9 151.2 L505.9 150.5 L501.1 149.3 L496.3 148.3 L487.8 146.4 L485.0 145.8 L483.0 145.4 L481.8 145.3 L482.4 143.4 L483.0 141.9 L483.6 140.4 L485.6 136.4 L487.4 134.0 L488.4 132.9 L490.6 130.6 L491.7 130.0 L495.6 128.1 L497.1 126.9 L498.5 125.4 L500.6 123.7 L503.5 121.8 L507.3 119.8 L507.8 119.6 L508.4 119.2 L510.0 118.2 L510.9 117.7 L512.3 116.7 L528.4 100.8 L530.2 98.9 L532.2 97.2 L533.3 95.9 L533.9 94.9 L534.4 92.1 L534.4 91.0 L534.4 90.4 L534.5 89.3 L534.5 89.1 L534.6 88.6 L534.6 87.7 L534.3 86.5 L534.5 85.8 L535.2 84.8 L536.2 83.6 L538.3 81.1 L541.6 77.9 L543.9 76.1 L547.8 73.4 " />
<path d="M547.8 73.4 L548.4 73.6 L549.7 73.1 L550.3 72.7 L550.4 72.4 L549.7 72.0 L550.5 71.6 L551.0 71.7 " />
<path d="M551.0 71.7 L549.2 72.6 L547.8 73.4 L543.9 76.1 L541.6 77.9 L538.3 81.1 L536.2 83.6 L535.2 84.8 L534.5 85.8 L534.3 86.5 L534.6 87.7 L534.6 88.6 L534.5 89.1 " />
<path d="M534.5 89.1 L534.0 88.6 L533.8 89.7 L533.9 89.8 L534.4 89.8 L534.5 89.6 L534.5 89.1 L534.5 89.5 L534.4 89.8 L533.9 89.8 L532.6 89.4 L532.0 89.4 L530.8 88.9 L530.6 89.6 " />
<path d="M530.6 89.6 L526.1 87.9 L517.9 84.6 L515.8 83.4 L514.1 81.9 L513.0 79.9 L512.8 78.0 L513.3 75.0 L514.0 72.8 L515.0 70.0 L515.9 67.5 L516.7 65.4 L517.3 63.4 L517.6 61.5 L517.9 59.0 L516.9 59.0 L517.9 59.0 L517.9 56.4 L517.6 53.8 L516.8 51.5 L516.6 49.4 L516.5 47.3 L516.3 43.6 L515.6 36.6 L515.6 33.9 L516.3 31.0 L517.7 27.3 L518.5 25.0 L519.1 23.5 L520.2 20.9 L521.3 17.0 L521.3 13.8 L544.2 14.8 L546.5 15.0 L548.8 15.0 L566.1 15.9 L569.1 16.1 L570.2 15.5 L571.0 16.2 L574.2 16.4 " />
<path d="M574.2 16.4 L574.1 16.7 L581.9 17.2 L573.2 16.7 L573.1 16.5 L573.3 14.6 L572.2 14.0 L572.0 12.3 L572.1 12.0 L572.0 13.7 L569.3 13.8 L568.3 14.2 L567.3 14.3 L565.6 14.3 L564.7 14.3 L566.0 14.3 L567.4 14.3 L567.5 14.6 L567.7 16.3 L583.0 17.2 L583.1 17.7 L582.7 17.6 L582.0 17.6 L581.5 17.7 L580.8 18.0 L579.8 18.9 L578.1 17.5 " />
<path d="M578.1 17.5 L580.4 17.7 L583.5 17.8 L594.5 18.2 L600.5 18.7 L604.1 19.4 L607.3 20.5 L608.7 21.4 L608.9 22.4 L608.2 23.5 L608.0 23.8 L607.4 24.5 L604.3 28.7 L602.5 31.0 L601.8 32.0 L601.1 33.6 L600.6 35.2 L600.1 37.3 L600.1 38.0 L600.1 39.4 L600.1 41.1 L599.2 49.3 L598.2 58.7 L598.2 59.3 L598.2 60.6 L598.1 62.0 L596.5 62.0 L592.9 62.0 L588.3 62.2 L583.5 62.4 L580.3 62.7 L579.2 62.9 L578.1 63.0 L576.4 63.3 L574.7 63.6 L573.3 63.8 L568.6 64.9 L566.6 65.5 L563.0 66.6 L559.3 67.9 L556.1 69.3 L553.9 70.3 L552.4 71.1 L551.0 71.7 L549.2 72.6 L547.8 73.4 L552.4 71.1 L551.0 71.7 L549.2 72.6 L547.8 73.4 L543.9 76.1 L541.6 77.9 L538.3 81.1 L536.2 83.6 L535.2 84.8 L534.5 85.8 L534.3 86.5 L534.6 87.7 L534.6 88.6 L534.5 89.1 L534.5 89.3 L534.4 90.4 L534.4 91.0 L534.4 92.1 L533.9 94.9 L533.3 95.9 L532.2 97.2 L530.2 98.9 L528.4 100.8 L512.3 116.7 L510.9 117.7 L510.0 118.2 L508.4 119.2 L507.8 119.6 L507.3 119.8 L503.5 121.8 L500.6 123.7 L498.5 125.4 L497.1 126.9 L495.6 128.1 L491.7 130.0 L490.6 130.6 L488.4 132.9 L487.4 134.0 L485.6 136.4 L483.6 140.4 L483.0 141.9 L482.4 143.4 L481.8 145.3 L483.0 145.4 L485.0 145.8 L487.8 146.4 L496.3 148.3 L501.1 149.3 L505.9 150.5 L508.9 151.2 L510.4 151.5 L511.5 151.7 L515.0 152.6 L520.9 154.9 L524.1 156.3 L525.2 155.8 L526.6 155.0 L534.7 150.7 L535.9 150.2 L537.0 149.8 L538.3 149.5 L539.5 149.3 L543.4 148.7 L546.5 148.4 L551.5 147.9 L557.3 147.3 L561.4 146.9 L562.6 146.8 L563.8 146.9 L564.8 147.1 L566.2 147.5 L567.9 147.8 L569.3 148.1 L570.6 148.1 L571.5 147.6 L572.1 146.7 L572.4 146.2 L573.2 144.5 L574.1 142.9 L574.9 142.4 L576.3 142.1 L579.9 142.9 L581.2 143.1 L583.4 143.2 L585.8 143.0 L589.9 142.4 L592.0 142.0 L595.0 142.0 L597.8 142.4 L601.7 143.1 L604.1 143.6 L604.8 143.7 L605.7 143.9 L606.7 144.1 L608.0 144.2 L610.1 143.5 L611.1 143.3 L613.0 143.5 L616.0 143.8 L618.6 144.1 L620.3 144.5 L627.4 146.5 L633.9 148.5 L635.4 148.8 L637.3 149.0 L639.3 149.0 L643.3 148.8 L650.4 148.3 L654.1 148.0 L656.8 147.8 L658.0 147.6 L658.6 147.6 L663.9 147.1 L669.8 146.5 L677.4 145.7 L682.7 145.1 L685.6 145.0 L688.1 145.1 L690.8 145.4 L695.5 146.3 L699.8 147.1 L700.8 147.3 L701.5 147.3 L707.0 147.7 L704.4 150.1 L704.0 150.6 L703.6 150.9 L700.2 155.4 L696.8 159.7 L693.6 164.5 L692.3 167.3 L691.5 170.3 L691.4 173.6 L692.1 177.0 L693.2 179.6 L693.7 180.5 L693.8 180.7 L694.2 182.0 L694.8 184.9 L694.7 186.7 L693.8 189.3 L692.2 192.0 L688.0 197.4 L684.9 202.2 L684.2 203.5 L683.3 205.0 L683.0 205.7 L682.7 205.9 L679.9 211.2 L678.0 214.3 L676.1 217.5 L675.2 218.9 L674.9 219.5 L674.6 220.0 L674.2 220.7 L673.1 222.6 L671.8 224.6 L671.5 225.0 L671.2 225.6 L670.5 226.6 L670.3 228.1 L668.9 228.9 L668.3 229.9 L667.5 231.1 L666.0 233.4 L664.9 235.3 L664.7 235.8 L664.3 236.5 L662.3 239.8 L658.0 248.3 L656.6 250.8 L656.0 252.2 L655.6 252.8 L653.5 257.4 L651.8 260.9 L646.2 272.4 L645.6 273.9 L645.5 274.4 L645.1 274.8 L640.7 283.6 L638.6 290.1 L637.5 294.6 L636.6 298.1 L636.4 299.0 L636.2 299.7 L635.5 302.8 L631.0 301.3 L628.7 300.7 L627.6 300.5 L626.7 300.2 L616.9 297.7 L603.4 295.0 L595.6 293.9 L585.5 292.5 L565.5 290.0 L564.3 289.9 L563.3 289.8 L560.2 289.4 L547.8 287.9 L534.4 286.5 L526.5 285.5 L518.5 284.5 L507.2 283.2 L506.4 283.1 L505.4 282.9 L502.9 282.6 L500.5 282.2 L496.2 281.3 L493.7 280.6 L490.6 279.6 L486.7 277.6 L483.4 276.1 L476.6 273.7 L473.9 273.1 L471.1 272.5 L465.5 272.1 L456.5 272.0 L448.1 271.4 L440.1 270.5 L434.4 269.5 L429.5 268.0 L427.8 267.5 L425.8 266.9 L423.3 266.0 L403.1 258.9 L385.9 253.3 L384.7 252.8 L384.0 252.5 " />
<path d="M384.0 252.5 L384.6 252.2 L383.9 252.0 L383.5 252.2 L385.4 252.9 L383.4 252.2 L382.7 252.6 L381.8 252.6 L379.8 251.9 L379.4 251.5 L376.8 250.6 L378.6 251.3 L379.3 250.5 L377.9 249.9 L379.4 250.4 L379.9 249.9 L377.5 249.2 L378.7 249.4 L380.2 249.4 L382.0 250.0 L383.4 248.9 L382.3 250.1 L382.9 250.3 L384.2 249.1 L382.9 250.3 L380.7 249.7 L380.1 249.9 L378.6 251.2 L377.1 250.8 L377.1 250.9 " />
<path d="M377.1 250.9 L379.2 251.8 L380.3 252.2 L381.5 252.7 L399.2 258.5 L402.4 259.6 L400.0 263.1 L398.4 264.5 L396.6 265.9 L395.6 266.6 L394.1 267.7 L389.3 271.3 L387.7 273.8 L382.7 278.5 L381.5 279.8 L380.1 280.9 L377.4 283.6 L371.9 288.7 L370.2 290.5 L369.0 292.3 L368.1 294.2 L367.9 295.0 L367.5 295.8 L366.3 297.6 L365.1 298.4 L363.7 298.8 L364.0 301.2 L365.2 301.7 L379.7 303.2 L389.3 304.2 L390.2 304.2 L391.9 304.4 L394.2 304.7 L393.2 305.6 L392.0 307.0 L389.5 312.6 L388.3 316.0 L387.4 318.0 L386.6 319.5 L384.9 323.1 L384.5 324.6 L383.2 328.3 L382.1 330.7 L380.2 334.5 L378.5 337.7 L377.9 338.9 L377.2 340.5 " />
<path d="M377.2 340.5 L376.7 340.3 L377.4 338.7 L378.5 338.8 L379.1 338.0 L379.9 336.5 L380.2 336.0 L380.8 335.9 L380.5 335.5 L379.3 335.2 L379.2 334.7 L379.3 334.1 L379.0 333.6 L379.9 333.1 L380.1 332.4 L380.6 331.8 L381.0 330.8 L379.3 328.6 " />
<path d="M379.3 328.6 L380.2 329.8 L380.1 332.4 L379.9 333.1 L379.0 333.6 L379.3 334.1 L379.2 334.7 L379.3 335.2 L378.0 337.6 L376.7 340.3 L377.2 340.5 " />
<path d="M377.2 340.5 L375.9 343.1 L373.7 348.2 L371.3 353.6 L374.0 356.2 L374.9 357.2 L384.5 365.7 L387.3 368.5 L389.3 369.9 L390.5 370.8 L392.3 372.1 L396.0 369.2 L400.8 365.5 L410.4 357.5 L415.6 353.5 L419.3 352.8 L420.4 351.8 L419.3 350.4 L418.0 351.6 L417.5 352.1 L415.6 353.5 L410.4 357.5 L400.8 365.5 L396.0 369.2 L392.3 372.1 L383.1 379.5 L380.5 381.6 L373.6 387.4 L369.1 391.2 L366.7 393.4 L358.6 399.9 L355.5 402.2 L350.1 406.4 L349.4 406.9 L348.6 407.5 L347.3 408.5 L345.6 409.8 L343.0 411.9 " />
<path d="M343.0 411.9 L342.7 411.7 L344.1 410.4 L345.3 410.9 L345.8 410.6 L346.7 409.9 L345.8 410.6 L345.3 410.9 L344.1 410.4 L342.7 411.7 L343.0 411.9 " />
<path d="M343.0 411.9 L336.1 417.9 L334.4 419.6 L333.7 420.9 L332.3 423.7 L331.5 425.7 L328.5 423.6 " />
<path d="M328.5 423.6 L328.7 423.2 L330.4 424.5 L330.8 424.6 L332.4 424.5 L333.2 423.5 L332.4 424.5 L330.6 424.6 L330.1 424.8 L331.0 425.6 L329.9 427.9 L328.7 430.7 L328.7 430.9 L327.5 433.2 L324.8 439.0 L324.4 439.7 L324.0 440.4 L323.4 441.6 L321.4 445.8 L320.8 446.8 L320.0 448.4 L320.0 448.8 L321.0 448.9 L321.6 447.5 L322.5 445.9 L322.4 445.1 " />
<path d="M322.4 445.1 L324.7 440.2 L328.5 432.3 L330.8 427.0 L331.5 425.7 L332.3 423.7 L333.7 420.9 L334.4 419.6 L336.1 417.9 L343.0 411.9 L345.6 409.8 L347.3 408.5 L348.6 407.5 L349.4 406.9 L350.1 406.4 L355.5 402.2 L358.6 399.9 L366.7 393.4 L369.1 391.2 " />
<path d="M369.1 391.2 L370.0 391.0 L369.8 391.1 L369.1 391.6 L368.4 391.5 L368.2 391.5 L367.4 392.1 L366.9 392.7 L366.5 393.1 L366.9 392.7 L367.4 392.1 L368.2 391.5 L368.4 391.5 L369.1 391.6 L369.1 391.2 " />
<path d="M369.1 391.2 L373.6 387.4 L380.5 381.6 L383.1 379.5 L392.3 372.1 L396.0 369.2 " />
<path d="M396.0 369.2 L396.4 369.5 L395.7 370.0 L393.6 371.6 L392.7 371.4 L392.3 371.4 L391.0 370.8 L390.1 370.2 L389.3 369.4 L389.3 369.9 " />
<path d="M389.3 369.9 L387.3 368.5 L384.5 365.7 L374.9 357.2 L374.0 356.2 L371.3 353.6 L373.7 348.2 L375.9 343.1 L377.2 340.5 L377.9 338.9 L378.5 337.7 L380.2 334.5 L376.6 330.2 L373.0 326.0 L371.6 324.6 L369.7 323.5 L367.8 322.6 L364.8 321.7 L352.7 318.7 L349.6 318.0 L344.9 316.6 L342.3 315.8 L340.0 315.4 L336.2 315.3 L332.7 315.3 L329.1 314.9 L325.5 314.7 L321.9 314.6 L319.3 314.4 L315.1 313.5 L311.5 311.3 L306.3 307.0 L304.9 305.3 L305.6 303.5 L308.2 302.1 L313.4 299.4 L323.6 293.9 L332.0 289.4 L332.2 288.8 L332.3 288.2 L329.3 286.5 L327.9 285.7 L326.8 286.4 L322.6 288.5 L318.6 290.7 L313.7 293.1 L311.0 294.5 L312.0 295.3 " />
<path d="M312.0 295.3 L313.0 296.2 L313.8 296.1 L313.9 295.6 L314.8 295.2 L315.6 295.1 L315.5 294.7 L316.0 294.9 L318.5 293.5 L321.1 292.5 L321.8 292.1 L322.2 291.0 L323.9 290.0 " />
<path d="M323.9 290.0 L322.2 290.9 L321.8 292.1 L321.2 292.7 L319.0 293.8 L318.2 294.5 L317.3 295.1 L315.1 296.1 L314.7 296.7 L314.9 296.8 L315.9 297.1 L313.8 298.3 L314.1 298.5 " />
<path d="M314.1 298.5 L315.6 297.6 L317.1 296.8 L321.5 294.3 L326.5 291.8 L332.2 288.8 L340.3 284.8 L341.7 284.1 L343.1 283.5 L344.9 282.4 L345.7 281.8 L351.6 277.8 L354.7 275.4 L360.9 270.3 L363.9 267.5 L365.0 266.3 L366.2 265.1 L370.6 261.1 L372.2 259.9 L373.0 259.2 L373.2 259.1 L374.2 258.3 L377.2 255.1 L378.5 253.8 L379.2 253.1 L380.3 252.2 L381.1 251.5 L381.9 250.9 L383.4 249.6 L384.3 248.8 L385.9 247.5 L387.0 246.6 L390.0 244.1 L395.1 239.4 L403.8 231.4 L406.2 229.3 L407.4 228.2 L411.1 224.8 L421.9 215.2 L422.9 214.2 L425.0 212.1 L426.5 210.6 L427.5 209.6 L431.6 206.3 L435.1 203.8 L437.1 202.6 L449.5 195.6 L450.3 195.2 L455.8 192.2 L456.9 191.5 L458.1 190.8 " />
<path d="M458.1 190.8 L459.5 190.3 L461.3 190.2 L462.7 189.8 L463.8 190.5 L478.5 192.3 L479.3 189.9 L479.6 189.9 " />
<path d="M479.6 189.9 L478.8 192.3 L478.4 193.3 L476.5 196.9 L474.9 199.5 L472.8 202.8 L469.9 206.0 L458.3 223.6 L449.7 240.2 L447.4 245.8 L446.9 247.4 L446.5 249.3 L446.4 250.9 L446.6 259.9 L446.5 262.7 L445.3 272.2 L444.5 275.2 L436.6 295.2 L433.1 304.6 L431.5 307.5 L425.9 314.2 L423.7 316.3 L420.8 318.5 L417.2 320.6 L411.7 323.0 L407.5 324.1 L403.4 325.0 L397.8 325.7 L393.1 325.9 L389.0 325.9 L383.0 325.2 L378.6 324.3 L374.2 323.1 L367.7 320.4 L341.2 308.4 L336.5 306.7 L331.5 305.3 L323.3 303.8 L315.8 303.1 L308.7 302.9 L300.4 303.2 L289.6 303.6 L277.1 304.2 L245.6 305.6 L217.9 306.6 L197.0 307.6 L114.0 311.1 L76.2 312.7 L14.5 315.4 " />
<path d="M14.5 315.4 L14.4 316.4 L14.8 316.4 L14.8 316.0 L15.1 315.8 " />
<path d="M15.1 315.8 L13.5 316.3 L12.5 316.2 L12.0 316.8 L12.6 317.3 L13.6 317.4 L15.4 317.7 L17.8 318.8 L18.5 319.0 L19.4 319.4 L22.0 317.5 L22.4 317.2 L23.0 316.8 L23.4 316.3 L27.4 313.7 L28.6 312.9 L30.5 311.5 L33.4 309.4 L38.6 305.6 L40.7 304.2 L54.5 294.7 L57.8 292.3 L58.9 291.4 L60.1 290.6 L62.4 290.2 L66.0 289.1 L71.1 287.4 L72.6 287.0 L72.0 286.4 L71.4 285.7 L69.7 285.5 L68.7 285.7 L66.0 286.5 " />
<path d="M66.0 286.5 L66.2 285.5 L66.9 286.4 L67.9 286.1 L67.3 284.9 L67.7 284.9 L67.7 284.5 L70.9 284.5 L73.9 284.4 L75.1 284.2 L77.2 283.7 L75.2 284.2 L73.9 284.4 L71.0 284.5 L67.7 284.5 L67.3 285.0 L68.7 286.4 L69.3 286.9 L72.2 286.0 L73.3 286.9 L84.7 283.0 L72.7 287.1 L72.4 287.2 L70.6 287.9 L70.5 288.1 L69.8 288.4 L69.4 288.3 L66.4 289.1 L69.4 288.3 L69.8 288.4 L70.5 288.1 L70.6 287.9 L72.4 287.2 L72.7 287.1 L98.3 278.4 L96.8 276.4 L95.3 275.4 L93.9 274.5 L93.6 274.2 L93.9 274.5 L95.1 276.9 L93.9 277.6 L92.6 278.1 L93.0 278.4 L94.0 278.1 L94.4 277.9 L94.8 277.1 " />
<path d="M94.8 277.1 L95.8 276.7 L97.6 276.4 L99.6 276.5 L103.1 276.1 L112.8 272.3 L113.8 271.9 L116.0 271.2 L117.7 270.6 L119.3 270.1 L125.3 268.0 L141.4 262.8 L144.4 261.8 L147.3 260.8 L149.8 259.9 L150.9 259.6 L152.5 259.0 L157.4 257.3 L167.3 253.9 L171.3 252.5 L173.3 251.8 L174.9 250.8 L191.4 241.5 L193.0 240.5 L194.7 239.4 L196.9 238.1 L203.2 234.0 L207.7 230.3 L210.9 227.5 L210.2 228.2 L213.2 225.7 L215.8 224.2 L218.0 223.2 L220.6 222.5 L238.4 217.8 L240.6 217.2 L242.9 216.6 L243.5 216.5 L266.9 210.4 L284.6 205.9 L285.2 205.8 L286.6 205.4 L289.2 204.7 L292.8 203.9 L303.8 200.9 L316.3 197.7 L318.5 197.2 L320.4 196.6 L321.6 196.3 L332.4 193.3 L342.5 190.3 L350.4 187.8 L351.9 187.3 L354.6 186.4 L358.7 185.6 L363.7 184.7 L368.7 183.4 L371.3 182.8 L373.9 182.2 L376.2 181.6 L389.7 177.9 L403.1 174.3 L408.9 172.7 " />
<circle cx="688.5" cy="204.4" r="8" />
<circle cx="921.9" cy="290.8" r="8" />
<circle cx="921.9" cy="290.8" r="8" />
<circle cx="921.9" cy="290.8" r="8" />
<circle cx="921.9" cy="290.8" r="8" />
<circle cx="931.3" cy="295.1" r="8" />
<circle cx="931.3" cy="295.1" r="8" />
<circle cx="933.6" cy="299.4" r="8" />
<circle cx="933.6" cy="299.4" r="8" />
<circle cx="1008.9" cy="237.6" r="8" />
<circle cx="1008.9" cy="237.6" r="8" />
<circle cx="1009.4" cy="237.4" r="8" />
<circle cx="1009.4" cy="237.4" r="8" />
<circle cx="839.8" cy="219.2" r="8" />
<circle cx="839.8" cy="219.2" r="8" />
<circle cx="839.9" cy="222.7" r="8" />
<circle cx="839.9" cy="222.7" r="8" />
<circle cx="823.2" cy="254.1" r="8" />
<circle cx="823.2" cy="254.1" r="8" />
<circle cx="814.1" cy="251.9" r="8" />
<circle cx="814.1" cy="251.9" r="8" />
<circle cx="547.8" cy="73.4" r="8" />
<circle cx="547.8" cy="73.4" r="8" />
<circle cx="551.0" cy="71.7" r="8" />
<circle cx="551.0" cy="71.7" r="8" />
<circle cx="534.5" cy="89.1" r="8" />
<circle cx="534.5" cy="89.1" r="8" />
<circle cx="530.6" cy="89.6" r="8" />
<circle cx="530.6" cy="89.6" r="8" />
<circle cx="574.2" cy="16.4" r="8" />
<circle cx="574.2" cy="16.4" r="8" />
<circle cx="578.1" cy="17.5" r="8" />
<circle cx="578.1" cy="17.5" r="8" />
<circle cx="384.0" cy="252.5" r="8" />
<circle cx="384.0" cy="252.5" r="8" />
<circle cx="377.1" cy="250.9" r="8" />
<circle cx="377.1" cy="250.9" r="8" />
<circle cx="377.2" cy="340.5" r="8" />
<circle cx="377.2" cy="340.5" r="8" />
<circle cx="379.3" cy="328.6" r="8" />
<circle cx="379.3" cy="328.6" r="8" />
<circle cx="377.2" cy="340.5" r="8" />
<circle cx="377.2" cy="340.5" r="8" />
<circle cx="343.0" cy="411.9" r="8" />
<circle cx="343.0" cy="411.9" r="8" />
<circle cx="343.0" cy="411.9" r="8" />
<circle cx="343.0" cy="411.9" r="8" />
<circle cx="328.5" cy="423.6" r="8" />
<circle cx="328.5" cy="423.6" r="8" />
<circle cx="322.4" cy="445.1" r="8" />
<circle cx="322.4" cy="445.1" r="8" />
<circle cx="369.1" cy="391.2" r="8" />
<circle cx="369.1" cy="391.2" r="8" />
<circle cx="369.1" cy="391.2" r="8" />
<circle cx="369.1" cy="391.2" r="8" />
<circle cx="396.0" cy="369.2" r="8" />
<circle cx="396.0" cy="369.2" r="8" />
<circle cx="389.3" cy="369.9" r="8" />
<circle cx="389.3" cy="369.9" r="8" />
<circle cx="312.0" cy="295.3" r="8" />
<circle cx="312.0" cy="295.3" r="8" />
<circle cx="323.9" cy="290.0" r="8" />
<circle cx="323.9" cy="290.0" r="8" />
<circle cx="314.1" cy="298.5" r="8" />
<circle cx="314.1" cy="298.5" r="8" />
<circle cx="458.1" cy="190.8" r="8" />
<circle cx="458.1" cy="190.8" r="8" />
<circle cx="479.6" cy="189.9" r="8" />
<circle cx="479.6" cy="189.9" r="8" />
<circle cx="14.5" cy="315.4" r="8" />
<circle cx="14.5" cy="315.4" r="8" />
<circle cx="15.1" cy="315.8" r="8" />
<circle cx="15.1" cy="315.8" r="8" />
<circle cx="66.0" cy="286.5" r="8" />
<circle cx="66.0" cy="286.5" r="8" />
<circle cx="94.8" cy="277.1" r="8" />
<circle cx="94.8" cy="277.1" r="8" />
<circle cx="408.9" cy="172.7" r="8" />
<style>
circle {
fill: white;
stroke: #ff61b1;
stroke-width: 4;
}
path {
fill: none;
stroke: #ff61b1;
stroke-width: 8;
}</style>
</svg>