<svg width="1024.0" height="459.1" xmlns="http://www.w3.org/2000/svg">
<path d="M688.5 202.5 L691.0 203.2 L699.3 205.3 L712.6 208.1 L720.8 209.8 L727.5 211.4 L733.4 213.4 L735.2 214.3 L736.3 214.9 L737.1 215.2 L740.5 217.3 L750.6 223.7 L756.2 226.7 L757.2 227.2 L758.3 227.8 L768.2 232.9 L774.7 235.3 L778.6 236.4 L782.9 237.2 L783.9 237.4 L785.2 237.6 L795.4 239.8 L801.5 241.6 L807.1 244.5 L810.8 247.6 L814.1 250.1 L816.9 252.3 L818.4 253.4 L819.1 253.9 L820.0 254.5 L823.1 256.2 L827.6 258.2 L833.9 260.4 L838.0 261.6 L838.9 262.0 L840.2 262.3 L846.4 264.3 L853.0 267.1 L857.9 269.8 L861.9 272.6 L864.7 274.9 L865.8 275.6 L865.8 275.7 L867.4 277.0 L868.9 278.5 L871.3 280.8 L881.7 290.7 L882.5 291.1 L883.1 291.7 L887.5 295.1 L890.9 299.2 L892.5 300.6 L895.0 301.0 L897.1 300.5 L919.9 289.7 L920.9 289.3 L921.9 289.0 " />
<path d="M921.9 289.0 L923.0 288.5 L924.1 288.2 L925.7 287.9 L927.4 288.0 L928.7 288.3 L930.0 289.6 L930.4 290.7 L931.3 293.2 " />
<path d="M933.6 297.6 L934.3 298.5 L935.2 299.0 L936.2 299.7 L936.9 299.8 L938.2 299.8 L938.9 299.5 L941.1 298.7 L942.8 298.0 L944.6 296.9 L946.8 295.5 L949.7 294.3 L956.3 291.5 L957.6 290.7 L958.9 289.1 L959.9 287.9 L961.0 287.3 L964.1 286.0 L967.4 284.6 L976.7 280.5 L981.6 278.2 L982.6 277.2 L983.2 276.0 L983.1 275.1 L982.7 272.2 L982.5 271.0 L982.0 267.4 L981.9 266.1 L980.9 264.6 L980.0 263.5 L979.1 262.1 L979.1 261.5 L979.9 260.7 L980.6 259.6 L980.6 259.1 L979.2 256.9 L978.9 256.2 L978.3 255.3 L977.6 253.9 L977.5 253.4 L977.3 252.9 L978.0 252.8 L978.5 252.2 L979.3 251.9 L980.2 251.9 L980.9 251.9 L981.8 252.0 L982.6 252.0 L983.6 252.0 L984.4 252.1 L985.4 252.1 L986.5 252.0 L989.4 251.9 L992.4 251.5 L995.7 251.0 L999.3 250.7 L1003.4 250.2 L1006.5 249.4 L1008.1 248.9 L1008.8 248.5 L1009.5 247.9 L1010.2 247.7 L1012.0 247.0 L1011.3 246.5 L1010.3 246.3 L1009.2 246.4 L1008.9 245.4 L1008.5 243.5 L1007.6 239.6 L1007.3 238.6 L1007.2 238.3 L1006.6 236.2 L1008.1 235.9 L1008.9 235.8 " />
<path d="M839.2 217.9 L841.5 218.8 L842.5 218.6 L842.9 219.3 L845.3 219.9 L849.4 220.8 L869.9 225.5 L872.1 226.2 L874.4 227.2 L877.7 229.1 L878.3 229.6 L879.9 230.5 L881.5 231.0 L883.7 230.0 L886.2 230.0 L889.5 230.5 L895.4 231.8 L909.6 235.0 L923.6 238.3 L931.0 240.3 L936.6 241.6 L964.8 241.2 L971.0 241.8 L974.6 242.0 L976.3 242.0 L978.2 241.9 L980.4 241.6 L983.0 241.2 L986.7 240.1 L1002.0 237.2 L1006.6 236.2 L1008.1 235.9 L1008.9 235.8 L1009.4 235.6 " />
<path d="M839.9 220.9 L833.8 228.8 L831.5 231.5 L829.8 233.7 L828.7 235.4 L828.0 236.9 L827.7 238.3 L827.6 240.1 L827.3 242.5 L827.0 245.0 L826.4 247.2 L825.6 249.1 L824.4 250.8 L823.2 252.3 " />
<path d="M547.8 71.6 L543.9 74.3 L541.6 76.1 L538.3 79.3 L536.2 81.8 L535.2 83.0 L534.5 84.0 L534.3 84.7 L534.6 85.9 L534.6 86.8 L534.5 87.3 L534.5 87.5 L534.4 88.5 L534.4 89.2 L534.4 90.3 L533.9 93.1 L533.3 94.1 L532.2 95.3 L530.2 97.1 L528.4 98.9 L512.3 114.8 L510.9 115.9 L510.0 116.4 L508.4 117.4 L507.8 117.7 L507.3 118.0 L503.5 120.0 L500.6 121.9 L498.5 123.5 L497.1 125.0 L495.6 126.3 L491.7 128.2 L490.6 128.8 L488.4 131.0 L487.4 132.2 L485.6 134.5 L483.6 138.6 L483.0 140.1 L482.4 141.6 L481.8 143.5 L481.0 145.3 L477.4 153.9 L477.1 154.8 L476.9 155.4 L476.6 156.3 L476.4 157.7 L478.5 158.0 L480.5 158.2 L483.8 158.5 L487.2 158.8 L501.8 159.8 L501.8 159.9 L507.4 160.2 L508.9 160.3 L512.7 160.6 L521.1 161.4 L521.5 161.5 L527.8 162.5 L529.8 162.9 L534.0 163.6 L539.7 164.5 L542.4 164.9 L554.5 166.9 L556.5 167.0 L557.5 166.7 L558.5 166.1 L559.4 164.5 L559.9 163.7 L560.7 162.9 L561.0 162.4 L570.5 166.7 L573.3 167.8 L575.2 168.3 L577.2 168.8 L578.3 169.1 L579.5 169.3 L581.8 169.9 L583.0 170.2 L583.5 170.3 L586.3 171.6 L586.9 171.8 L591.5 173.6 L595.8 174.9 L598.2 175.3 L601.4 175.4 L603.0 175.5 L603.4 175.5 L605.4 175.6 L610.7 175.8 L613.0 176.0 L615.3 176.6 L617.0 177.3 L618.5 178.1 L620.7 179.6 L621.0 179.8 L623.1 181.7 L625.6 183.1 L626.4 183.8 L628.1 183.8 L628.8 183.8 L629.9 183.9 L631.8 184.2 L633.7 184.6 L635.4 184.9 L638.3 185.8 L654.1 191.3 L662.0 194.0 L663.8 194.6 L664.3 194.8 L665.1 195.1 L666.2 195.5 L679.1 199.9 L680.2 200.3 L681.0 200.6 L684.2 201.7 L687.2 202.3 L687.7 202.4 L688.5 202.5 L691.0 203.2 L699.3 205.3 L712.6 208.1 L720.8 209.8 L727.5 211.4 L733.4 213.4 L735.2 214.3 L736.3 214.9 L737.1 215.2 L740.5 217.3 L750.6 223.7 L756.2 226.7 L757.2 227.2 L758.3 227.8 L768.2 232.9 L774.7 235.3 L778.6 236.4 L782.9 237.2 L783.9 237.4 L785.2 237.6 L795.4 239.8 L801.5 241.6 L807.1 244.5 L810.8 247.6 L814.1 250.1 L816.9 252.3 " />
<path d="M534.5 87.5 L534.5 87.3 L534.6 86.8 L534.6 85.9 L534.3 84.7 L534.5 84.0 L535.2 83.0 L536.2 81.8 L538.3 79.3 L541.6 76.1 L543.9 74.3 L547.8 71.6 L549.2 70.8 L551.0 69.8 L552.4 69.3 L547.8 71.6 L549.2 70.8 L551.0 69.8 " />
<path d="M530.6 87.7 L526.1 86.1 L517.9 82.7 L515.8 81.6 L514.1 80.1 L513.0 78.1 L512.8 76.1 L513.3 73.2 L514.0 71.0 L515.0 68.1 L515.9 65.7 L516.7 63.6 L517.3 61.5 L517.6 59.7 L517.9 57.1 L516.9 57.1 L517.9 57.1 L517.9 54.5 L517.6 52.0 L516.8 49.7 L516.6 47.6 L516.5 45.5 L516.3 41.8 L515.6 34.7 L515.6 32.0 L516.3 29.2 L517.7 25.4 L518.5 23.1 L519.1 21.6 L520.2 19.1 L521.3 15.1 L521.3 12.0 L544.2 13.0 L546.5 13.1 L548.8 13.2 L566.1 14.1 L569.1 14.2 L570.2 13.7 L571.0 14.3 L574.2 14.6 " />
<path d="M384.0 250.7 L384.7 251.0 L385.9 251.4 L403.1 257.1 L423.3 264.2 L425.8 265.0 L427.8 265.7 L429.5 266.2 L434.4 267.6 L440.1 268.7 L448.1 269.6 L456.5 270.2 L465.5 270.2 L471.1 270.7 L473.9 271.2 L476.6 271.8 L483.4 274.3 L486.7 275.8 L490.6 277.7 L493.7 278.8 L496.2 279.5 L500.5 280.4 L502.9 280.7 L505.4 281.1 L506.4 281.2 L507.2 281.3 L518.5 282.7 L526.5 283.7 L534.4 284.6 L547.8 286.1 L560.2 287.6 L563.3 287.9 L564.3 288.0 L565.5 288.2 L585.5 290.7 L595.6 292.1 L603.4 293.2 L616.9 295.9 L626.7 298.3 L627.6 298.6 L628.7 298.9 L631.0 299.5 L635.5 301.0 L636.2 297.9 L636.4 297.2 L636.6 296.3 L637.5 292.8 L638.6 288.3 L640.7 281.8 L645.1 273.0 L645.5 272.5 L645.6 272.0 L646.2 270.6 L651.8 259.1 L653.5 255.6 L655.6 251.0 L656.0 250.3 L656.6 249.0 L658.0 246.5 L662.3 237.9 L664.3 234.7 L664.7 234.0 L664.9 233.5 L666.0 231.6 L667.5 229.2 L668.3 228.1 L668.9 227.0 L670.3 226.2 L670.5 224.7 L671.2 223.7 L671.5 223.2 L671.8 222.8 L673.1 220.8 L674.2 218.9 L674.6 218.2 L674.9 217.7 L675.2 217.1 L676.1 215.6 L678.0 212.5 L679.9 209.4 L682.7 204.0 L683.0 203.9 L683.3 203.2 L684.2 201.7 L684.9 200.4 L688.0 195.6 L692.2 190.1 L693.8 187.4 L694.7 184.8 L694.8 183.0 L694.2 180.2 L693.8 178.9 L693.7 178.6 L693.2 177.7 L692.1 175.2 L691.4 171.8 L691.5 168.5 L692.3 165.5 L693.6 162.7 L696.8 157.9 L700.2 153.5 L703.6 149.1 L704.0 148.8 L704.4 148.2 L707.0 145.9 L701.5 145.5 L700.8 145.4 L699.8 145.3 L695.5 144.5 L690.8 143.6 L688.1 143.2 L685.6 143.1 L682.7 143.2 L677.4 143.8 L669.8 144.7 L663.9 145.3 L658.6 145.8 L658.0 145.8 L656.8 146.0 L654.1 146.1 L650.4 146.5 L643.3 146.9 L639.3 147.2 L637.3 147.2 L635.4 147.0 L633.9 146.7 L627.4 144.7 L620.3 142.6 L618.6 142.3 L616.0 142.0 L613.0 141.6 L611.1 141.5 L610.1 141.6 L608.0 142.4 L606.7 142.3 L605.7 142.1 L604.8 141.9 L604.1 141.7 L601.7 141.3 L597.8 140.6 L595.0 140.1 L592.0 140.2 L589.9 140.5 L585.8 141.2 L583.4 141.3 L581.2 141.2 L579.9 141.0 L576.3 140.3 L574.9 140.5 L574.1 141.0 L573.2 142.7 L572.4 144.4 L572.1 144.9 L571.5 145.8 L570.6 146.2 L569.3 146.3 L567.9 146.0 L566.2 145.6 L564.8 145.3 L563.8 145.1 L562.6 145.0 L561.4 145.1 L557.3 145.5 L551.5 146.1 L546.5 146.6 L543.4 146.9 L539.5 147.5 L538.3 147.7 L537.0 148.0 L535.9 148.4 L534.7 148.9 L526.6 153.2 L525.2 154.0 L524.1 154.5 L520.9 153.0 L515.0 150.7 L511.5 149.9 L510.4 149.6 L508.9 149.4 L505.9 148.6 L501.1 147.5 L496.3 146.4 L487.8 144.5 L485.0 143.9 L483.0 143.6 L481.8 143.5 L482.4 141.6 L483.0 140.1 L483.6 138.6 L485.6 134.5 L487.4 132.2 L488.4 131.0 L490.6 128.8 L491.7 128.2 L495.6 126.3 L497.1 125.0 L498.5 123.5 L500.6 121.9 L503.5 120.0 L507.3 118.0 L507.8 117.7 L508.4 117.4 L510.0 116.4 L510.9 115.9 L512.3 114.8 L528.4 98.9 L530.2 97.1 L532.2 95.3 L533.3 94.1 L533.9 93.1 L534.4 90.3 L534.4 89.2 L534.4 88.5 L534.5 87.5 L534.5 87.3 L534.6 86.8 L534.6 85.9 L534.3 84.7 L534.5 84.0 L535.2 83.0 L536.2 81.8 L538.3 79.3 L541.6 76.1 L543.9 74.3 L547.8 71.6 L549.2 70.8 L551.0 69.8 L552.4 69.3 L547.8 71.6 L549.2 70.8 L551.0 69.8 L552.4 69.3 L553.9 68.5 L556.1 67.4 L559.3 66.0 L563.0 64.8 L566.6 63.7 L568.6 63.1 L573.3 62.0 L574.7 61.8 L576.4 61.5 L578.1 61.2 L579.2 61.0 L580.3 60.9 L583.5 60.6 L588.3 60.3 L592.9 60.2 L596.5 60.1 L598.1 60.1 L598.2 58.8 L598.2 57.5 L598.2 56.9 L599.2 47.5 L600.1 39.3 L600.1 37.6 L600.1 36.2 L600.1 35.5 L600.6 33.4 L601.1 31.8 L601.8 30.2 L602.5 29.2 L604.3 26.8 L607.4 22.7 L608.0 22.0 L608.2 21.6 L608.9 20.6 L608.7 19.6 L607.3 18.7 L604.1 17.6 L600.5 16.9 L594.5 16.4 L583.5 16.0 L580.4 15.8 L578.1 15.7 " />
<path d="M377.1 249.1 L379.2 249.9 L380.3 250.4 L381.5 250.9 L399.2 256.7 L402.4 257.7 L400.0 261.3 L398.4 262.7 L396.6 264.1 L395.6 264.8 L394.1 265.9 L389.3 269.4 L387.7 272.0 L382.7 276.7 L381.5 277.9 L380.1 279.1 L377.4 281.8 L371.9 286.9 L370.2 288.6 L369.0 290.5 L368.1 292.4 L367.9 293.2 L367.5 293.9 L366.3 295.8 L365.1 296.6 L363.7 297.0 L364.0 299.4 L365.2 299.9 L379.7 301.3 L389.3 302.3 L390.2 302.4 L391.9 302.6 L394.2 302.8 L393.2 303.8 L392.0 305.2 L389.5 310.8 L388.3 314.1 L387.4 316.1 L386.6 317.7 L384.9 321.3 L384.5 322.8 L383.2 326.5 L382.1 328.8 L380.2 332.7 L378.5 335.9 L377.9 337.0 L377.2 338.6 " />
<path d="M377.2 338.6 L375.9 341.2 L373.7 346.3 L371.3 351.8 L374.0 354.4 L374.9 355.4 L384.5 363.9 L387.3 366.6 L389.3 368.1 L390.5 369.0 L392.3 370.2 L396.0 367.4 L400.8 363.7 L410.4 355.7 L415.6 351.7 L419.3 350.9 L420.4 350.0 L419.3 348.6 L418.0 349.8 L417.5 350.3 L415.6 351.7 L410.4 355.7 L400.8 363.7 L396.0 367.4 L392.3 370.2 L383.1 377.6 L380.5 379.7 L373.6 385.6 L369.1 389.4 L366.7 391.6 L358.6 398.1 L355.5 400.4 L350.1 404.6 L349.4 405.1 L348.6 405.7 L347.3 406.7 L345.6 408.0 L343.0 410.1 " />
<path d="M343.0 410.1 L336.1 416.1 L334.4 417.7 L333.7 419.1 L332.3 421.9 L331.5 423.9 L328.5 421.7 " />
<path d="M328.6 421.3 L330.5 422.7 L330.0 423.0 L331.0 423.8 L329.9 426.0 L328.7 428.8 L328.7 429.1 L327.5 431.4 L324.8 437.2 L324.4 437.9 L324.0 438.6 L323.4 439.7 L321.4 444.0 L320.8 444.9 L320.0 446.6 L320.0 446.9 L321.0 447.1 L321.6 445.6 L322.5 444.1 " />
<path d="M369.1 389.4 L366.7 391.6 L358.6 398.1 L355.5 400.4 L350.1 404.6 L349.4 405.1 L348.6 405.7 L347.3 406.7 L345.6 408.0 L343.0 410.1 L336.1 416.1 L334.4 417.7 L333.7 419.1 L332.3 421.9 L331.5 423.9 L330.8 425.2 L328.5 430.4 L324.7 438.3 L322.4 443.3 " />
<path d="M369.1 389.4 L373.6 385.6 L380.5 379.7 L383.1 377.6 L392.3 370.2 L396.0 367.4 " />
<path d="M389.3 368.1 L387.3 366.6 L384.5 363.9 L374.9 355.4 L374.0 354.4 L371.3 351.8 L373.7 346.3 L375.9 341.2 L377.2 338.6 L377.9 337.0 L378.5 335.9 L380.2 332.7 L376.6 328.4 L373.0 324.2 L371.6 322.8 L369.7 321.7 L367.8 320.8 L364.8 319.9 L352.7 316.8 L349.6 316.1 L344.9 314.8 L342.3 314.0 L340.0 313.6 L336.2 313.5 L332.7 313.5 L329.1 313.0 L325.5 312.9 L321.9 312.8 L319.3 312.6 L315.1 311.7 L311.5 309.4 L306.3 305.2 L304.9 303.5 L305.6 301.6 L308.2 300.3 L313.4 297.5 L323.6 292.1 L332.0 287.6 L332.2 287.0 L332.3 286.4 L329.3 284.7 L327.9 283.9 L326.8 284.5 L322.6 286.7 L318.6 288.9 L313.7 291.2 L311.0 292.7 L312.0 293.5 " />
<path d="M458.1 189.0 L456.9 189.6 L455.8 190.3 L450.3 193.4 L449.5 193.8 L437.1 200.8 L435.1 202.0 L431.6 204.5 L427.5 207.7 L426.5 208.8 L425.0 210.3 L422.9 212.3 L421.9 213.4 L411.1 223.0 L407.4 226.4 L406.2 227.4 L403.8 229.6 L395.1 237.6 L390.0 242.3 L387.0 244.8 L385.9 245.7 L384.3 247.0 L383.4 247.8 L381.9 249.0 L381.1 249.7 L380.3 250.4 L379.2 251.3 L378.5 252.0 L377.2 253.3 L374.2 256.4 L373.2 257.2 L373.0 257.4 L372.2 258.0 L370.6 259.2 L366.2 263.3 L365.0 264.5 L363.9 265.7 L360.9 268.5 L354.7 273.5 L351.6 276.0 L345.7 280.0 L344.9 280.5 L343.1 281.6 L341.7 282.3 L340.3 283.0 L332.2 287.0 L326.5 290.0 L321.5 292.5 L317.1 294.9 L314.6 295.1 L311.5 294.8 " />
<path d="M478.0 187.9 L475.2 196.1 L473.8 199.0 L470.7 202.7 L458.3 221.8 L449.7 238.4 L447.4 244.0 L446.9 245.6 L446.5 247.5 L446.4 249.1 L446.6 258.0 L446.5 260.9 L445.3 270.4 L444.5 273.4 L436.6 293.4 L433.1 302.8 L431.5 305.7 L425.9 312.4 L423.7 314.5 L420.8 316.6 L417.2 318.8 L411.7 321.1 L407.5 322.3 L403.4 323.2 L397.8 323.9 L393.1 324.1 L389.0 324.0 L383.0 323.4 L378.6 322.5 L374.2 321.2 L367.7 318.5 L341.2 306.6 L336.5 304.8 L331.5 303.5 L323.3 302.0 L315.8 301.2 L308.7 301.0 L300.4 301.3 L289.6 301.7 L277.1 302.4 L245.6 303.7 L217.9 304.8 L197.0 305.8 L114.0 309.3 L76.2 310.8 L14.5 313.5 " />
<path d="M15.1 314.0 L13.5 314.5 L12.5 314.4 L12.0 315.0 L12.6 315.5 L13.6 315.5 L15.4 315.9 L17.8 316.9 L18.5 317.2 L19.4 317.5 L22.0 315.6 L22.4 315.4 L23.0 314.9 L23.4 314.5 L27.4 311.8 L28.6 311.0 L30.5 309.6 L33.4 307.6 L38.6 303.8 L40.7 302.3 L54.5 292.9 L57.8 290.5 L58.9 289.6 L60.1 288.7 L62.4 288.4 L66.0 287.2 L71.1 285.6 L72.6 285.2 L72.0 284.5 L71.4 283.9 L69.7 283.6 L68.7 283.8 L66.0 284.7 " />
<path d="M66.7 284.0 L68.3 284.2 L71.6 283.3 L73.2 285.1 L98.7 276.4 L97.2 275.2 L95.4 275.9 L94.5 276.0 L94.1 276.2 " />
<path d="M408.9 170.9 L403.1 172.4 L389.7 176.0 L376.2 179.7 L373.9 180.4 L371.3 181.0 L368.7 181.6 L363.7 182.8 L358.7 183.8 L354.6 184.6 L351.9 185.5 L350.4 186.0 L342.5 188.5 L332.4 191.4 L321.6 194.4 L320.4 194.8 L318.5 195.3 L316.3 195.9 L303.8 199.1 L292.8 202.0 L289.2 202.9 L286.6 203.6 L285.2 204.0 L284.6 204.1 L266.9 208.6 L243.5 214.7 L242.9 214.8 L240.6 215.4 L238.4 216.0 L220.6 220.7 L218.0 221.4 L215.8 222.3 L213.2 223.8 L210.2 226.4 L210.9 225.7 L207.7 228.5 L203.2 232.1 L196.9 236.2 L194.7 237.6 L193.0 238.6 L191.4 239.6 L174.9 249.0 L173.3 250.0 L171.3 250.6 L167.3 252.1 L157.4 255.4 L152.5 257.2 L150.9 257.7 L149.8 258.0 L147.3 259.0 L144.4 259.9 L141.4 261.0 L125.3 266.2 L119.3 268.2 L117.7 268.8 L116.0 269.4 L113.8 270.1 L112.8 270.4 L103.1 274.2 L99.6 274.6 L97.6 274.6 L95.8 274.9 L94.8 275.3 " />
<circle cx="688.5" cy="202.5" r="8" />
<circle cx="921.9" cy="289.0" r="8" />
<circle cx="921.9" cy="289.0" r="8" />
<circle cx="931.3" cy="293.2" r="8" />
<circle cx="933.6" cy="297.6" r="8" />
<circle cx="1008.9" cy="235.8" r="8" />
<circle cx="839.2" cy="217.9" r="8" />
<circle cx="1009.4" cy="235.6" r="8" />
<circle cx="839.9" cy="220.9" r="8" />
<circle cx="823.2" cy="252.3" r="8" />
<circle cx="547.8" cy="71.6" r="8" />
<circle cx="816.9" cy="252.3" r="8" />
<circle cx="534.5" cy="87.5" r="8" />
<circle cx="551.0" cy="69.8" r="8" />
<circle cx="530.6" cy="87.7" r="8" />
<circle cx="574.2" cy="14.6" r="8" />
<circle cx="384.0" cy="250.7" r="8" />
<circle cx="578.1" cy="15.7" r="8" />
<circle cx="377.1" cy="249.1" r="8" />
<circle cx="377.2" cy="338.6" r="8" />
<circle cx="377.2" cy="338.6" r="8" />
<circle cx="343.0" cy="410.1" r="8" />
<circle cx="343.0" cy="410.1" r="8" />
<circle cx="328.5" cy="421.7" r="8" />
<circle cx="328.6" cy="421.3" r="8" />
<circle cx="322.5" cy="444.1" r="8" />
<circle cx="369.1" cy="389.4" r="8" />
<circle cx="322.4" cy="443.3" r="8" />
<circle cx="369.1" cy="389.4" r="8" />
<circle cx="396.0" cy="367.4" r="8" />
<circle cx="389.3" cy="368.1" r="8" />
<circle cx="312.0" cy="293.5" r="8" />
<circle cx="458.1" cy="189.0" r="8" />
<circle cx="311.5" cy="294.8" r="8" />
<circle cx="478.0" cy="187.9" r="8" />
<circle cx="14.5" cy="313.5" r="8" />
<circle cx="15.1" cy="314.0" r="8" />
<circle cx="66.0" cy="284.7" r="8" />
<circle cx="66.7" cy="284.0" r="8" />
<circle cx="94.1" cy="276.2" r="8" />
<circle cx="408.9" cy="170.9" r="8" />
<circle cx="94.8" cy="275.3" r="8" />
<style>
circle {
fill: white;
stroke: #ff61b1;
stroke-width: 4;
}
path {
fill: none;
stroke: #ff61b1;
stroke-width: 8;
}</style>
</svg>