<svg width="1024.0" height="103.6" xmlns="http://www.w3.org/2000/svg">
<path d="M12.0 17.020886180521444 L118.8 17.0 L125.5 23.8 L212.3 23.8 L216.8 19.3 L220.0 16.1 L290.1 16.1 L348.3 16.1 L348.7 15.7 L352.4 12.0 L438.7 12.0 L524.8 12.0 L532.2 19.4 L558.8 46.0 L629.8 46.0 L712.8 46.0 L747.2 80.5 L758.4 91.6 L782.7 91.6 L823.3 91.6 L843.1 71.9 L897.9 71.9 L901.8 75.8 L986.2 75.8 L1012.0 50.0 " />
<circle cx="12.0" cy="17.0" r="8" />
<circle cx="125.5" cy="23.8" r="8" />
<circle cx="216.8" cy="19.3" r="8" />
<circle cx="290.1" cy="16.1" r="8" />
<circle cx="348.7" cy="15.7" r="8" />
<circle cx="438.7" cy="12.0" r="8" />
<circle cx="532.2" cy="19.4" r="8" />
<circle cx="629.8" cy="46.0" r="8" />
<circle cx="747.2" cy="80.5" r="8" />
<circle cx="782.7" cy="91.6" r="8" />
<circle cx="843.1" cy="71.9" r="8" />
<circle cx="901.8" cy="75.8" r="8" />
<circle cx="1012.0" cy="50.0" r="8" />
<style>
circle {
fill: white;
stroke: black;
stroke-width: 4;
}
path {
fill: none;
stroke: #FFFFFF;
stroke-width: 8;
}</style>
</svg>