<svg width="1024.0" height="885.4" xmlns="http://www.w3.org/2000/svg">
<path d="M143.2 12.0 L146.7 15.5 L165.9 15.5 L165.9 47.5 L195.4 76.9 L137.5 134.8 L137.5 159.2 L137.5 172.3 L107.3 202.4 L83.3 226.4 L83.3 233.2 L82.2 233.2 L67.1 218.0 L47.6 198.6 L47.6 198.5 L47.6 198.3 L12.0 162.7 L12.0 171.6 L82.0 241.6 L89.4 249.0 L164.8 249.0 L164.8 265.6 L172.2 273.1 L190.2 291.1 L204.1 291.1 L210.8 291.1 L261.8 342.2 L286.7 367.0 L286.7 374.4 L286.7 380.8 L312.1 406.2 L337.9 432.0 L337.9 438.9 L337.9 453.0 L327.1 463.8 L337.7 463.8 L342.9 469.0 L347.1 473.2 L363.1 473.2 L383.9 473.2 L398.2 487.5 L412.4 501.7 L432.1 501.7 L447.4 501.7 L475.9 530.2 L470.0 536.1 L470.0 559.1 L470.0 624.3 L475.3 629.6 L495.5 649.8 L495.5 664.6 L495.5 687.5 L516.8 708.9 L528.1 720.2 L528.1 749.9 L528.1 771.0 L531.2 774.1 L532.0 774.9 L614.9 774.9 L680.1 774.9 L681.7 776.6 L683.4 778.2 L722.1 778.2 L773.1 778.2 L786.4 791.5 L799.0 804.2 L833.7 804.2 L855.6 804.2 L863.8 812.4 L881.0 829.5 L908.2 829.5 L968.1 829.5 L1012.0 873.4 " />
<circle cx="143.2" cy="12.0" r="8" />
<circle cx="165.9" cy="15.5" r="8" />
<circle cx="195.4" cy="76.9" r="8" />
<circle cx="137.5" cy="159.2" r="8" />
<circle cx="107.3" cy="202.4" r="8" />
<circle cx="83.3" cy="233.2" r="8" />
<circle cx="67.1" cy="218.0" r="8" />
<circle cx="47.6" cy="198.5" r="8" />
<circle cx="12.0" cy="162.7" r="8" />
<circle cx="82.0" cy="241.6" r="8" />
<circle cx="164.8" cy="249.0" r="8" />
<circle cx="172.2" cy="273.1" r="8" />
<circle cx="204.1" cy="291.1" r="8" />
<circle cx="261.8" cy="342.2" r="8" />
<circle cx="286.7" cy="374.4" r="8" />
<circle cx="312.1" cy="406.2" r="8" />
<circle cx="337.9" cy="438.9" r="8" />
<circle cx="327.1" cy="463.8" r="8" />
<circle cx="342.9" cy="469.0" r="8" />
<circle cx="363.1" cy="473.2" r="8" />
<circle cx="398.2" cy="487.5" r="8" />
<circle cx="432.1" cy="501.7" r="8" />
<circle cx="475.9" cy="530.2" r="8" />
<circle cx="470.0" cy="559.1" r="8" />
<circle cx="475.3" cy="629.6" r="8" />
<circle cx="495.5" cy="664.6" r="8" />
<circle cx="516.8" cy="708.9" r="8" />
<circle cx="528.1" cy="749.9" r="8" />
<circle cx="531.2" cy="774.1" r="8" />
<circle cx="614.9" cy="774.9" r="8" />
<circle cx="681.7" cy="776.6" r="8" />
<circle cx="722.1" cy="778.2" r="8" />
<circle cx="786.4" cy="791.5" r="8" />
<circle cx="833.7" cy="804.2" r="8" />
<circle cx="863.8" cy="812.4" r="8" />
<circle cx="908.2" cy="829.5" r="8" />
<circle cx="1012.0" cy="873.4" r="8" />
<style>
circle {
fill: white;
stroke: #525252;
stroke-width: 4;
}
path {
fill: none;
stroke: #525252;
stroke-width: 8;
}</style>
</svg>