<svg width="1024.0" height="505.0" xmlns="http://www.w3.org/2000/svg">
<path d="M1012.0 22.065531844343887 L909.7 22.1 L899.6 12.0 L899.6 19.0 L885.2 33.5 L848.4 70.2 L848.4 80.8 L848.4 121.3 L830.5 139.3 L808.3 161.4 L808.3 217.0 L781.4 244.0 L779.3 244.0 L720.2 244.0 L697.3 266.9 L613.1 351.0 L538.7 351.0 L508.9 351.0 L486.2 373.8 L458.6 401.3 L382.8 401.3 L331.3 401.3 L309.3 423.4 L288.6 444.1 L204.3 444.1 L139.7 444.1 L124.9 458.9 L90.9 493.0 L39.3 493.0 L39.3 478.9 L12.0 451.6 " />
<circle cx="1012.0" cy="22.1" r="8" />
<circle cx="899.6" cy="12.0" r="8" />
<circle cx="885.2" cy="33.5" r="8" />
<circle cx="848.4" cy="80.8" r="8" />
<circle cx="830.5" cy="139.3" r="8" />
<circle cx="808.3" cy="217.0" r="8" />
<circle cx="779.3" cy="244.0" r="8" />
<circle cx="697.3" cy="266.9" r="8" />
<circle cx="538.7" cy="351.0" r="8" />
<circle cx="486.2" cy="373.8" r="8" />
<circle cx="382.8" cy="401.3" r="8" />
<circle cx="309.3" cy="423.4" r="8" />
<circle cx="204.3" cy="444.1" r="8" />
<circle cx="124.9" cy="458.9" r="8" />
<circle cx="39.3" cy="493.0" r="8" />
<circle cx="12.0" cy="451.6" r="8" />
<style>
circle {
fill: white;
stroke: #525252;
stroke-width: 4;
}
path {
fill: none;
stroke: #525252;
stroke-width: 8;
}</style>
</svg>