<svg width="1024.0" height="951.4" xmlns="http://www.w3.org/2000/svg">
<path d="M12.0 12.0 L12.0 35.0 L51.8 74.8 L101.9 125.0 L158.5 125.0 L169.4 125.0 L236.0 191.6 L236.0 168.0 L297.3 106.7 L330.7 73.4 L378.6 73.4 L422.8 73.4 L447.0 97.5 L439.2 105.3 L439.2 175.1 L439.2 249.4 L647.5 457.8 L604.9 457.8 L554.8 507.9 L506.0 556.7 L506.0 588.4 L506.0 674.9 L524.6 693.5 L543.7 712.5 L543.7 757.5 L543.7 809.3 L588.0 853.6 L602.2 867.9 L602.2 885.8 L609.9 885.8 L644.9 920.8 L645.6 920.1 L714.8 920.1 L817.0 920.1 L836.3 939.4 L843.4 932.3 L934.8 932.3 L987.1 932.3 L1012.0 907.4 L936.3 831.7 L936.3 822.3 L936.3 786.0 L891.0 740.8 L846.6 696.4 L846.6 656.8 L846.6 613.4 L788.3 555.1 L734.9 501.8 L734.9 460.6 " />
<circle cx="12.0" cy="12.0" r="8" />
<circle cx="51.8" cy="74.8" r="8" />
<circle cx="158.5" cy="125.0" r="8" />
<circle cx="236.0" cy="191.6" r="8" />
<circle cx="297.3" cy="106.7" r="8" />
<circle cx="378.6" cy="73.4" r="8" />
<circle cx="447.0" cy="97.5" r="8" />
<circle cx="439.2" cy="175.1" r="8" />
<circle cx="647.5" cy="457.8" r="8" />
<circle cx="554.8" cy="507.9" r="8" />
<circle cx="506.0" cy="588.4" r="8" />
<circle cx="524.6" cy="693.5" r="8" />
<circle cx="543.7" cy="757.5" r="8" />
<circle cx="588.0" cy="853.6" r="8" />
<circle cx="602.2" cy="885.8" r="8" />
<circle cx="644.9" cy="920.8" r="8" />
<circle cx="714.8" cy="920.1" r="8" />
<circle cx="836.3" cy="939.4" r="8" />
<circle cx="934.8" cy="932.3" r="8" />
<circle cx="1012.0" cy="907.4" r="8" />
<circle cx="936.3" cy="822.3" r="8" />
<circle cx="891.0" cy="740.8" r="8" />
<circle cx="846.6" cy="656.8" r="8" />
<circle cx="788.3" cy="555.1" r="8" />
<circle cx="734.9" cy="460.6" r="8" />
<style>
circle {
fill: white;
stroke: #525252;
stroke-width: 4;
}
path {
fill: none;
stroke: #525252;
stroke-width: 8;
}</style>
</svg>