<svg width="818.7" height="1024.0" xmlns="http://www.w3.org/2000/svg">
<path d="M12.282463171491125 976.6969539866345 L12.3 1008.8 L12.0 1009.1 L14.9 1012.0 L56.8 1012.0 L98.1 1012.0 L99.5 1010.5 L119.8 990.2 L119.8 982.1 L127.4 974.5 L205.0 974.5 L221.8 974.5 L249.4 946.9 L252.3 944.0 L252.3 914.5 L252.3 898.5 L244.1 890.4 L236.3 882.5 L236.3 862.1 L236.3 854.1 L223.7 841.5 L214.4 832.2 L214.4 801.3 L214.4 788.3 L205.0 778.8 L205.0 768.6 L211.9 761.6 L242.2 731.4 L242.2 719.2 L219.0 696.1 L189.8 696.1 L189.8 696.0 L189.8 579.9 L189.8 446.1 L222.7 413.3 L231.1 404.9 L231.1 378.6 L231.1 358.4 L247.2 342.3 L369.7 342.3 L396.4 369.1 L398.1 370.7 L449.8 370.7 L452.8 367.7 L452.8 334.5 L452.8 305.2 L457.0 301.0 L513.2 244.9 L513.2 225.6 L552.8 186.0 L589.0 186.0 L612.1 186.0 L630.3 167.8 L678.4 167.8 L685.8 175.2 L691.1 175.2 L728.0 138.3 L745.4 121.0 L746.9 121.0 L772.0 121.0 L785.4 107.6 L806.7 86.3 L806.7 81.5 L806.7 45.4 L800.2 38.8 L782.3 20.9 L779.4 20.9 L751.5 20.9 L742.5 12.0 " />
<circle cx="12.3" cy="976.7" r="8" />
<circle cx="12.0" cy="1009.1" r="8" />
<circle cx="56.8" cy="1012.0" r="8" />
<circle cx="99.5" cy="1010.5" r="8" />
<circle cx="119.8" cy="982.1" r="8" />
<circle cx="205.0" cy="974.5" r="8" />
<circle cx="249.4" cy="946.9" r="8" />
<circle cx="252.3" cy="914.5" r="8" />
<circle cx="244.1" cy="890.4" r="8" />
<circle cx="236.3" cy="862.1" r="8" />
<circle cx="223.7" cy="841.5" r="8" />
<circle cx="214.4" cy="801.3" r="8" />
<circle cx="205.0" cy="778.8" r="8" />
<circle cx="211.9" cy="761.6" r="8" />
<circle cx="242.2" cy="719.2" r="8" />
<circle cx="189.8" cy="696.1" r="8" />
<circle cx="189.8" cy="579.9" r="8" />
<circle cx="222.7" cy="413.3" r="8" />
<circle cx="231.1" cy="378.6" r="8" />
<circle cx="247.2" cy="342.3" r="8" />
<circle cx="396.4" cy="369.1" r="8" />
<circle cx="449.8" cy="370.7" r="8" />
<circle cx="452.8" cy="334.5" r="8" />
<circle cx="457.0" cy="301.0" r="8" />
<circle cx="513.2" cy="225.6" r="8" />
<circle cx="589.0" cy="186.0" r="8" />
<circle cx="630.3" cy="167.8" r="8" />
<circle cx="685.8" cy="175.2" r="8" />
<circle cx="728.0" cy="138.3" r="8" />
<circle cx="746.9" cy="121.0" r="8" />
<circle cx="785.4" cy="107.6" r="8" />
<circle cx="806.7" cy="81.5" r="8" />
<circle cx="800.2" cy="38.8" r="8" />
<circle cx="779.4" cy="20.9" r="8" />
<circle cx="742.5" cy="12.0" r="8" />
<style>
circle {
fill: white;
stroke: #525252;
stroke-width: 4;
}
path {
fill: none;
stroke: #525252;
stroke-width: 8;
}</style>
</svg>