<svg width="813.9" height="1024.0" xmlns="http://www.w3.org/2000/svg">
<path d="M395.27768777528473 12.0 L395.3 53.6 L398.8 57.2 L398.8 90.8 L389.9 99.8 L389.9 116.8 L401.2 128.2 L419.5 146.4 L419.5 194.0 L419.5 238.7 L425.3 244.4 L425.3 280.9 L413.1 293.0 L413.1 338.5 L423.8 349.1 L398.4 374.5 L397.0 374.5 L336.5 374.5 L322.8 360.8 L321.6 362.0 L237.6 362.0 L198.8 362.0 L178.2 382.6 L139.7 421.1 L139.4 421.1 L77.5 483.0 L77.5 491.4 L55.9 513.0 L47.9 513.0 L23.7 537.1 L23.7 548.1 L23.7 573.1 L12.0 584.8 L14.1 582.7 L76.9 582.7 L135.5 582.7 L152.1 599.4 L199.1 599.4 L203.2 595.2 L230.6 595.2 L245.9 610.5 L261.9 626.5 L302.6 626.5 L340.1 626.5 L360.5 646.9 L383.6 670.0 L444.7 670.0 L474.5 670.0 L491.6 687.0 L520.2 715.6 L608.7 715.6 L627.1 715.6 L654.6 743.2 L682.0 770.6 L723.0 770.6 L770.3 770.6 L801.9 802.3 L801.9 809.2 L766.9 844.3 L732.6 878.5 L690.4 878.5 L683.7 878.5 L652.6 909.6 L631.5 930.7 L595.3 930.7 L551.2 930.7 L525.0 956.8 L493.8 988.1 L493.8 989.4 L471.2 1012.0 L460.1 1012.0 " />
<circle cx="395.3" cy="12.0" r="8" />
<circle cx="398.8" cy="57.2" r="8" />
<circle cx="389.9" cy="99.8" r="8" />
<circle cx="401.2" cy="128.2" r="8" />
<circle cx="419.5" cy="194.0" r="8" />
<circle cx="425.3" cy="244.4" r="8" />
<circle cx="413.1" cy="293.0" r="8" />
<circle cx="423.8" cy="349.1" r="8" />
<circle cx="397.0" cy="374.5" r="8" />
<circle cx="322.8" cy="360.8" r="8" />
<circle cx="237.6" cy="362.0" r="8" />
<circle cx="178.2" cy="382.6" r="8" />
<circle cx="139.4" cy="421.1" r="8" />
<circle cx="77.5" cy="491.4" r="8" />
<circle cx="47.9" cy="513.0" r="8" />
<circle cx="23.7" cy="548.1" r="8" />
<circle cx="12.0" cy="584.8" r="8" />
<circle cx="76.9" cy="582.7" r="8" />
<circle cx="152.1" cy="599.4" r="8" />
<circle cx="203.2" cy="595.2" r="8" />
<circle cx="245.9" cy="610.5" r="8" />
<circle cx="302.6" cy="626.5" r="8" />
<circle cx="360.5" cy="646.9" r="8" />
<circle cx="444.7" cy="670.0" r="8" />
<circle cx="491.6" cy="687.0" r="8" />
<circle cx="608.7" cy="715.6" r="8" />
<circle cx="654.6" cy="743.2" r="8" />
<circle cx="723.0" cy="770.6" r="8" />
<circle cx="801.9" cy="802.3" r="8" />
<circle cx="766.9" cy="844.3" r="8" />
<circle cx="690.4" cy="878.5" r="8" />
<circle cx="652.6" cy="909.6" r="8" />
<circle cx="595.3" cy="930.7" r="8" />
<circle cx="525.0" cy="956.8" r="8" />
<circle cx="493.8" cy="989.4" r="8" />
<circle cx="460.1" cy="1012.0" r="8" />
<style>
circle {
fill: white;
stroke: #8E364C;
stroke-width: 4;
}
path {
fill: none;
stroke: #8E364C;
stroke-width: 8;
}</style>
</svg>