<svg width="1024.0" height="485.8" xmlns="http://www.w3.org/2000/svg">
<path d="M256.1154212672607 473.81964907529334 L277.3 452.6 L277.3 439.3 L239.3 401.3 L235.4 401.3 L208.9 401.3 L165.7 358.0 L149.1 341.4 L88.5 341.4 L60.3 341.4 L12.0 293.1 L12.0 246.7 L40.6 218.1 L72.8 185.9 L72.8 175.5 L181.3 175.5 L181.4 175.6 L182.6 174.4 L182.6 132.2 L182.6 115.9 L215.9 82.5 L288.4 82.5 L306.7 100.7 L319.4 113.5 L399.6 113.5 L481.0 113.5 L494.2 126.7 L499.1 131.6 L668.0 131.6 L736.1 131.6 L738.3 129.4 L749.7 118.0 L749.7 87.6 L759.4 78.0 L876.9 78.0 L985.3 78.0 L996.7 89.4 L1012.0 74.1 L1012.0 12.0 " />
<circle cx="256.1" cy="473.8" r="8" />
<circle cx="277.3" cy="439.3" r="8" />
<circle cx="235.4" cy="401.3" r="8" />
<circle cx="165.7" cy="358.0" r="8" />
<circle cx="88.5" cy="341.4" r="8" />
<circle cx="12.0" cy="293.1" r="8" />
<circle cx="40.6" cy="218.1" r="8" />
<circle cx="72.8" cy="175.5" r="8" />
<circle cx="181.4" cy="175.6" r="8" />
<circle cx="182.6" cy="132.2" r="8" />
<circle cx="215.9" cy="82.5" r="8" />
<circle cx="306.7" cy="100.7" r="8" />
<circle cx="399.6" cy="113.5" r="8" />
<circle cx="494.2" cy="126.7" r="8" />
<circle cx="668.0" cy="131.6" r="8" />
<circle cx="738.3" cy="129.4" r="8" />
<circle cx="749.7" cy="87.6" r="8" />
<circle cx="876.9" cy="78.0" r="8" />
<circle cx="996.7" cy="89.4" r="8" />
<circle cx="1012.0" cy="12.0" r="8" />
<style>
circle {
fill: white;
stroke: #525252;
stroke-width: 4;
}
path {
fill: none;
stroke: #525252;
stroke-width: 8;
}</style>
</svg>