<svg width="1024.0" height="485.8" xmlns="http://www.w3.org/2000/svg">
<path d="M1012.0 12.0 L1007.5 16.5 L1007.5 63.6 L1007.5 78.6 L996.7 89.4 L985.3 78.0 L876.9 78.0 L782.1 78.0 L765.4 61.3 L738.3 88.4 L738.3 129.4 L670.3 129.4 L668.0 131.6 L652.6 147.0 L645.8 147.0 L514.5 147.0 L494.2 126.7 L481.0 113.5 L399.6 113.5 L319.4 113.5 L306.7 100.7 L288.4 82.5 L215.9 82.5 L215.9 98.9 L182.6 132.2 L181.4 133.4 L181.4 175.6 L72.9 175.6 L72.8 175.5 L40.6 207.7 L40.6 218.1 L40.6 264.5 L12.0 293.1 L40.2 293.1 L88.5 341.4 L105.1 358.0 L165.7 358.0 L192.1 358.0 L235.4 401.3 L273.4 439.3 L277.3 439.3 L256.1 460.5 L256.1 473.8 " />
<circle cx="1012.0" cy="12.0" r="8" />
<circle cx="1007.5" cy="63.6" r="8" />
<circle cx="996.7" cy="89.4" r="8" />
<circle cx="876.9" cy="78.0" r="8" />
<circle cx="765.4" cy="61.3" r="8" />
<circle cx="738.3" cy="129.4" r="8" />
<circle cx="668.0" cy="131.6" r="8" />
<circle cx="645.8" cy="147.0" r="8" />
<circle cx="494.2" cy="126.7" r="8" />
<circle cx="399.6" cy="113.5" r="8" />
<circle cx="306.7" cy="100.7" r="8" />
<circle cx="215.9" cy="82.5" r="8" />
<circle cx="182.6" cy="132.2" r="8" />
<circle cx="181.4" cy="175.6" r="8" />
<circle cx="72.8" cy="175.5" r="8" />
<circle cx="40.6" cy="218.1" r="8" />
<circle cx="12.0" cy="293.1" r="8" />
<circle cx="88.5" cy="341.4" r="8" />
<circle cx="165.7" cy="358.0" r="8" />
<circle cx="235.4" cy="401.3" r="8" />
<circle cx="277.3" cy="439.3" r="8" />
<circle cx="256.1" cy="473.8" r="8" />
<style>
circle {
fill: white;
stroke: #525252;
stroke-width: 4;
}
path {
fill: none;
stroke: #525252;
stroke-width: 8;
}</style>
</svg>