<svg width="643.4" height="1024.0" xmlns="http://www.w3.org/2000/svg">
<path d="M631.3755132033464 12.0 L625.2 18.1 L625.2 82.8 L625.2 103.4 L610.4 118.2 L605.0 123.6 L605.0 193.1 L605.0 224.7 L591.6 238.1 L565.8 263.9 L565.8 325.6 L565.8 375.1 L529.7 411.3 L469.3 471.7 L431.5 471.7 L393.7 471.7 L364.9 500.5 L259.8 605.6 L246.5 605.6 L246.5 622.1 L191.8 676.8 L168.7 699.9 L168.7 727.1 L168.7 730.5 L247.6 809.5 L167.5 809.5 L118.0 858.9 L95.8 881.1 L74.3 881.1 L74.3 950.0 L64.5 959.7 L12.2 1012.0 L12.0 1012.0 " />
<circle cx="631.4" cy="12.0" r="8" />
<circle cx="625.2" cy="82.8" r="8" />
<circle cx="610.4" cy="118.2" r="8" />
<circle cx="605.0" cy="193.1" r="8" />
<circle cx="591.6" cy="238.1" r="8" />
<circle cx="565.8" cy="325.6" r="8" />
<circle cx="529.7" cy="411.3" r="8" />
<circle cx="431.5" cy="471.7" r="8" />
<circle cx="364.9" cy="500.5" r="8" />
<circle cx="246.5" cy="605.6" r="8" />
<circle cx="191.8" cy="676.8" r="8" />
<circle cx="168.7" cy="727.1" r="8" />
<circle cx="247.6" cy="809.5" r="8" />
<circle cx="118.0" cy="858.9" r="8" />
<circle cx="74.3" cy="881.1" r="8" />
<circle cx="64.5" cy="959.7" r="8" />
<circle cx="12.0" cy="1012.0" r="8" />
<style>
circle {
fill: white;
stroke: #525252;
stroke-width: 4;
}
path {
fill: none;
stroke: #525252;
stroke-width: 8;
}</style>
</svg>