<svg width="689.7" height="1024.0" xmlns="http://www.w3.org/2000/svg">
<path d="M12.0 1012.0 L64.3 959.7 L64.5 959.7 L74.3 950.0 L74.3 881.1 L96.4 858.9 L118.0 858.9 L210.6 858.9 L212.8 856.7 L247.6 821.9 L247.6 809.5 L247.6 806.1 L168.7 727.1 L168.7 699.9 L191.8 676.8 L246.5 622.1 L246.5 605.6 L351.5 500.5 L364.9 500.5 L402.6 500.5 L431.5 471.7 L491.8 411.3 L529.7 411.3 L565.8 375.1 L565.8 325.6 L623.0 268.4 L677.7 268.4 L677.7 265.1 L639.8 227.2 L616.2 203.6 L616.2 156.3 L616.2 124.0 L610.4 118.2 L610.4 33.0 L631.4 12.0 " />
<circle cx="12.0" cy="1012.0" r="8" />
<circle cx="64.5" cy="959.7" r="8" />
<circle cx="74.3" cy="881.1" r="8" />
<circle cx="118.0" cy="858.9" r="8" />
<circle cx="212.8" cy="856.7" r="8" />
<circle cx="247.6" cy="809.5" r="8" />
<circle cx="168.7" cy="727.1" r="8" />
<circle cx="191.8" cy="676.8" r="8" />
<circle cx="246.5" cy="605.6" r="8" />
<circle cx="364.9" cy="500.5" r="8" />
<circle cx="431.5" cy="471.7" r="8" />
<circle cx="529.7" cy="411.3" r="8" />
<circle cx="565.8" cy="325.6" r="8" />
<circle cx="677.7" cy="268.4" r="8" />
<circle cx="639.8" cy="227.2" r="8" />
<circle cx="616.2" cy="156.3" r="8" />
<circle cx="610.4" cy="118.2" r="8" />
<circle cx="631.4" cy="12.0" r="8" />
<style>
circle {
fill: white;
stroke: #525252;
stroke-width: 4;
}
path {
fill: none;
stroke: #525252;
stroke-width: 8;
}</style>
</svg>