<svg width="1024.0" height="301.8" xmlns="http://www.w3.org/2000/svg">
<path d="M12.0 289.75697961915614 L115.6 186.2 L130.6 186.2 L224.0 186.2 L252.7 157.5 L332.1 157.5 L356.7 182.1 L369.0 194.4 L415.3 194.4 L427.5 194.4 L446.8 175.1 L577.0 44.9 L657.8 44.9 L751.2 44.9 L784.2 12.0 L831.3 12.0 L832.8 13.5 L854.7 35.4 L902.3 35.4 L985.2 35.4 L1012.0 62.2 L1012.0 94.2 L969.4 136.8 " />
<circle cx="12.0" cy="289.8" r="8" />
<circle cx="130.6" cy="186.2" r="8" />
<circle cx="252.7" cy="157.5" r="8" />
<circle cx="356.7" cy="182.1" r="8" />
<circle cx="415.3" cy="194.4" r="8" />
<circle cx="446.8" cy="175.1" r="8" />
<circle cx="657.8" cy="44.9" r="8" />
<circle cx="784.2" cy="12.0" r="8" />
<circle cx="832.8" cy="13.5" r="8" />
<circle cx="902.3" cy="35.4" r="8" />
<circle cx="1012.0" cy="62.2" r="8" />
<circle cx="969.4" cy="136.8" r="8" />
<style>
circle {
fill: white;
stroke: #525252;
stroke-width: 4;
}
path {
fill: none;
stroke: #525252;
stroke-width: 8;
}</style>
</svg>