<svg width="1024.0" height="471.2" xmlns="http://www.w3.org/2000/svg">
<path d="M495.6 26.2 L481.3 12.0 L452.8 12.0 L427.3 12.0 L415.2 24.1 L384.7 54.6 L384.7 82.2 L352.4 82.2 L277.3 157.3 L186.7 247.9 L186.7 248.5 L139.7 248.5 L67.1 321.2 L29.9 358.3 L12.0 358.3 L28.1 374.4 L57.3 374.4 L94.1 374.4 L99.2 379.5 L107.8 388.1 L168.3 388.1 L282.9 388.1 L297.1 402.3 L307.0 412.3 L365.2 412.3 L474.2 412.3 L497.0 435.1 L518.2 456.3 L623.4 456.3 L705.2 456.3 L708.1 459.2 L708.1 413.9 L722.9 399.2 L775.4 346.6 L954.2 346.6 L990.2 346.6 L1012.0 324.9 " />
<circle cx="495.6" cy="26.2" r="8" />
<circle cx="452.8" cy="12.0" r="8" />
<circle cx="415.2" cy="24.1" r="8" />
<circle cx="384.7" cy="82.2" r="8" />
<circle cx="277.3" cy="157.3" r="8" />
<circle cx="186.7" cy="248.5" r="8" />
<circle cx="67.1" cy="321.2" r="8" />
<circle cx="12.0" cy="358.3" r="8" />
<circle cx="57.3" cy="374.4" r="8" />
<circle cx="99.2" cy="379.5" r="8" />
<circle cx="168.3" cy="388.1" r="8" />
<circle cx="297.1" cy="402.3" r="8" />
<circle cx="365.2" cy="412.3" r="8" />
<circle cx="497.0" cy="435.1" r="8" />
<circle cx="623.4" cy="456.3" r="8" />
<circle cx="708.1" cy="459.2" r="8" />
<circle cx="722.9" cy="399.2" r="8" />
<circle cx="954.2" cy="346.6" r="8" />
<circle cx="1012.0" cy="324.9" r="8" />
<style>
circle {
fill: white;
stroke: #525252;
stroke-width: 4;
}
path {
fill: none;
stroke: #525252;
stroke-width: 8;
}</style>
</svg>