<svg width="1024.0" height="773.7" xmlns="http://www.w3.org/2000/svg">
<path d="M986.9338937607348 652.6418358452935 L986.9 674.5 L1012.0 699.5 L986.0 725.5 L986.0 759.0 L787.3 759.0 L784.7 761.7 L759.2 736.2 L648.3 736.2 L648.3 663.3 L661.4 650.2 L571.8 560.6 L571.8 546.6 L571.8 499.5 L608.2 463.1 L718.6 352.7 L718.6 320.5 L718.6 228.1 L812.7 134.0 L777.2 98.4 L777.2 28.6 L709.4 28.6 L692.8 12.0 L524.7 12.0 L489.7 46.9 L320.1 216.6 L197.3 216.6 L25.0 216.6 L12.0 229.6 L12.0 93.0 L26.3 78.7 " />
<circle cx="986.9" cy="652.6" r="8" />
<circle cx="1012.0" cy="699.5" r="8" />
<circle cx="986.0" cy="759.0" r="8" />
<circle cx="784.7" cy="761.7" r="8" />
<circle cx="648.3" cy="736.2" r="8" />
<circle cx="661.4" cy="650.2" r="8" />
<circle cx="571.8" cy="546.6" r="8" />
<circle cx="608.2" cy="463.1" r="8" />
<circle cx="718.6" cy="320.5" r="8" />
<circle cx="812.7" cy="134.0" r="8" />
<circle cx="777.2" cy="28.6" r="8" />
<circle cx="692.8" cy="12.0" r="8" />
<circle cx="489.7" cy="46.9" r="8" />
<circle cx="197.3" cy="216.6" r="8" />
<circle cx="12.0" cy="229.6" r="8" />
<circle cx="26.3" cy="78.7" r="8" />
<style>
circle {
fill: white;
stroke: #525252;
stroke-width: 4;
}
path {
fill: none;
stroke: #525252;
stroke-width: 8;
}</style>
</svg>