<svg width="1024.0" height="707.8" xmlns="http://www.w3.org/2000/svg">
<path d="M12.0 588.8 L33.4 610.2 L109.2 610.2 L338.6 610.2 L412.6 684.3 L424.2 695.8 L487.3 695.8 L487.3 617.9 L533.8 571.4 L592.4 512.8 L592.4 415.5 L592.4 345.6 L600.4 337.7 L603.0 335.0 L603.0 294.6 L627.8 294.6 L685.5 236.9 L726.6 195.8 L743.4 195.8 L757.9 195.8 L793.6 160.2 L825.7 128.1 L838.7 128.1 L838.7 111.7 L845.3 105.1 L879.2 71.3 L919.3 71.3 L952.7 71.3 L1012.0 12.0 " />
<circle cx="12.0" cy="588.8" r="8" />
<circle cx="109.2" cy="610.2" r="8" />
<circle cx="412.6" cy="684.3" r="8" />
<circle cx="487.3" cy="695.8" r="8" />
<circle cx="533.8" cy="571.4" r="8" />
<circle cx="592.4" cy="415.5" r="8" />
<circle cx="600.4" cy="337.7" r="8" />
<circle cx="603.0" cy="294.6" r="8" />
<circle cx="685.5" cy="236.9" r="8" />
<circle cx="743.4" cy="195.8" r="8" />
<circle cx="793.6" cy="160.2" r="8" />
<circle cx="838.7" cy="128.1" r="8" />
<circle cx="845.3" cy="105.1" r="8" />
<circle cx="919.3" cy="71.3" r="8" />
<circle cx="1012.0" cy="12.0" r="8" />
<style>
circle {
fill: white;
stroke: #525252;
stroke-width: 4;
}
path {
fill: none;
stroke: #525252;
stroke-width: 8;
}</style>
</svg>