<svg width="495.8" height="1024.0" xmlns="http://www.w3.org/2000/svg">
<path d="M141.53227721193574 12.0 L123.9 29.6 L101.2 29.6 L124.3 52.7 L124.3 99.0 L124.3 109.6 L146.0 131.4 L127.9 149.5 L127.9 173.4 L104.6 173.4 L49.4 228.6 L23.8 254.2 L23.8 273.9 L60.7 273.9 L92.4 305.5 L125.6 338.8 L172.5 338.8 L188.4 338.8 L235.2 385.6 L225.5 385.6 L199.7 411.4 L170.9 440.3 L170.9 453.5 L224.9 453.5 L244.7 473.3 L270.2 498.8 L278.8 498.8 L308.6 498.8 L324.5 514.8 L329.6 509.8 L385.7 509.8 L402.3 509.8 L427.7 535.2 L466.2 573.7 L466.2 579.7 L466.2 600.0 L483.8 617.6 L380.9 617.6 L372.2 608.9 L329.2 651.9 L329.2 655.7 L323.1 655.7 L269.3 709.5 L236.6 742.1 L236.6 761.5 L236.6 766.2 L209.1 793.7 L180.1 822.8 L180.1 825.6 L180.1 828.6 L141.0 867.7 L81.3 927.4 L81.3 931.6 L81.3 942.7 L12.0 1012.0 " />
<circle cx="141.5" cy="12.0" r="8" />
<circle cx="101.2" cy="29.6" r="8" />
<circle cx="124.3" cy="99.0" r="8" />
<circle cx="146.0" cy="131.4" r="8" />
<circle cx="127.9" cy="173.4" r="8" />
<circle cx="49.4" cy="228.6" r="8" />
<circle cx="23.8" cy="273.9" r="8" />
<circle cx="92.4" cy="305.5" r="8" />
<circle cx="172.5" cy="338.8" r="8" />
<circle cx="235.2" cy="385.6" r="8" />
<circle cx="199.7" cy="411.4" r="8" />
<circle cx="170.9" cy="453.5" r="8" />
<circle cx="244.7" cy="473.3" r="8" />
<circle cx="278.8" cy="498.8" r="8" />
<circle cx="324.5" cy="514.8" r="8" />
<circle cx="385.7" cy="509.8" r="8" />
<circle cx="427.7" cy="535.2" r="8" />
<circle cx="466.2" cy="579.7" r="8" />
<circle cx="483.8" cy="617.6" r="8" />
<circle cx="372.2" cy="608.9" r="8" />
<circle cx="329.2" cy="655.7" r="8" />
<circle cx="269.3" cy="709.5" r="8" />
<circle cx="236.6" cy="761.5" r="8" />
<circle cx="209.1" cy="793.7" r="8" />
<circle cx="180.1" cy="825.6" r="8" />
<circle cx="141.0" cy="867.7" r="8" />
<circle cx="81.3" cy="931.6" r="8" />
<circle cx="12.0" cy="1012.0" r="8" />
<style>
circle {
fill: white;
stroke: #FF671F;
stroke-width: 4;
}
path {
fill: none;
stroke: #FF671F;
stroke-width: 8;
}</style>
</svg>