<svg width="495.8" height="1024.0" xmlns="http://www.w3.org/2000/svg">
<path d="M12.0 1012.0 L81.3 942.7 L81.3 931.6 L81.3 927.4 L141.0 867.7 L180.1 828.6 L180.1 825.6 L180.1 822.8 L209.1 793.7 L236.6 766.2 L236.6 761.5 L236.6 742.1 L269.3 709.5 L323.1 655.7 L329.2 655.7 L372.2 612.6 L372.2 608.9 L475.1 608.9 L483.8 617.6 L466.2 600.0 L466.2 579.7 L466.2 573.7 L427.7 535.2 L402.3 509.8 L385.7 509.8 L338.4 509.8 L321.5 492.9 L302.0 473.3 L244.7 473.3 L190.7 473.3 L170.9 453.5 L170.9 440.3 L199.7 411.4 L225.5 385.6 L235.2 385.6 L219.3 385.6 L172.5 338.8 L139.2 305.5 L92.4 305.5 L55.5 305.5 L23.8 273.9 L23.8 254.2 L49.4 228.6 L104.6 173.4 L127.9 173.4 L146.0 155.2 L146.0 131.4 L146.0 120.7 L124.3 99.0 L101.2 75.9 L101.2 29.6 L118.8 12.0 L141.5 12.0 " />
<circle cx="12.0" cy="1012.0" r="8" />
<circle cx="81.3" cy="931.6" r="8" />
<circle cx="141.0" cy="867.7" r="8" />
<circle cx="180.1" cy="825.6" r="8" />
<circle cx="209.1" cy="793.7" r="8" />
<circle cx="236.6" cy="761.5" r="8" />
<circle cx="269.3" cy="709.5" r="8" />
<circle cx="329.2" cy="655.7" r="8" />
<circle cx="372.2" cy="608.9" r="8" />
<circle cx="483.8" cy="617.6" r="8" />
<circle cx="466.2" cy="579.7" r="8" />
<circle cx="427.7" cy="535.2" r="8" />
<circle cx="385.7" cy="509.8" r="8" />
<circle cx="321.5" cy="492.9" r="8" />
<circle cx="244.7" cy="473.3" r="8" />
<circle cx="170.9" cy="453.5" r="8" />
<circle cx="199.7" cy="411.4" r="8" />
<circle cx="235.2" cy="385.6" r="8" />
<circle cx="172.5" cy="338.8" r="8" />
<circle cx="92.4" cy="305.5" r="8" />
<circle cx="23.8" cy="273.9" r="8" />
<circle cx="49.4" cy="228.6" r="8" />
<circle cx="127.9" cy="173.4" r="8" />
<circle cx="146.0" cy="131.4" r="8" />
<circle cx="124.3" cy="99.0" r="8" />
<circle cx="101.2" cy="29.6" r="8" />
<circle cx="141.5" cy="12.0" r="8" />
<style>
circle {
fill: white;
stroke: #FF671F;
stroke-width: 4;
}
path {
fill: none;
stroke: #FF671F;
stroke-width: 8;
}</style>
</svg>