<svg width="1024.0" height="502.4" xmlns="http://www.w3.org/2000/svg">
<path d="M1012.0000000000001 490.4180525855619 L1012.0 456.4 L978.1 422.5 L945.4 389.8 L945.4 357.5 L945.4 325.6 L967.9 303.2 L960.3 310.7 L960.3 319.9 L960.3 289.8 L965.2 284.9 L966.3 283.8 L966.3 252.4 L966.3 232.2 L952.6 218.5 L923.0 188.9 L923.0 112.8 L923.0 67.0 L928.7 61.3 L937.0 53.0 L937.0 12.0 L893.1 55.9 L772.2 55.9 L691.3 55.9 L678.7 68.5 L623.5 123.6 L548.8 123.6 L495.9 123.6 L489.5 130.0 L442.0 177.4 L370.2 177.4 L306.6 177.4 L292.5 191.5 L231.4 191.5 L216.4 176.5 L212.9 173.0 L153.3 173.0 L51.0 173.0 L37.4 159.3 L37.4 202.8 L12.0 228.2 " />
<circle cx="1012.0" cy="490.4" r="8" />
<circle cx="978.1" cy="422.5" r="8" />
<circle cx="945.4" cy="357.5" r="8" />
<circle cx="967.9" cy="303.2" r="8" />
<circle cx="960.3" cy="319.9" r="8" />
<circle cx="965.2" cy="284.9" r="8" />
<circle cx="966.3" cy="252.4" r="8" />
<circle cx="952.6" cy="218.5" r="8" />
<circle cx="923.0" cy="112.8" r="8" />
<circle cx="928.7" cy="61.3" r="8" />
<circle cx="937.0" cy="12.0" r="8" />
<circle cx="772.2" cy="55.9" r="8" />
<circle cx="678.7" cy="68.5" r="8" />
<circle cx="548.8" cy="123.6" r="8" />
<circle cx="489.5" cy="130.0" r="8" />
<circle cx="370.2" cy="177.4" r="8" />
<circle cx="292.5" cy="191.5" r="8" />
<circle cx="216.4" cy="176.5" r="8" />
<circle cx="153.3" cy="173.0" r="8" />
<circle cx="37.4" cy="159.3" r="8" />
<circle cx="12.0" cy="228.2" r="8" />
<style>
circle {
fill: white;
stroke: black;
stroke-width: 4;
}
path {
fill: none;
stroke: #FFFFFF;
stroke-width: 8;
}</style>
</svg>