<svg width="1024.0" height="340.2" xmlns="http://www.w3.org/2000/svg">
<path d="M12.0 21.16342869141115 L21.2 12.0 L29.6 12.0 L46.7 12.0 L126.4 91.7 L180.5 145.8 L201.8 145.8 L246.2 190.1 L246.2 190.8 L309.2 190.8 L359.9 140.1 L333.1 166.9 L333.1 213.9 L358.9 239.7 L417.6 239.7 L501.3 239.7 L585.2 323.6 L587.4 325.7 L798.5 325.7 L804.4 325.7 L816.4 313.8 L822.7 307.5 L884.8 307.5 L902.5 307.5 L923.2 328.2 L950.9 328.2 L969.3 309.8 L977.2 301.9 L1012.0 301.9 " />
<circle cx="12.0" cy="21.2" r="8" />
<circle cx="29.6" cy="12.0" r="8" />
<circle cx="126.4" cy="91.7" r="8" />
<circle cx="201.8" cy="145.8" r="8" />
<circle cx="246.2" cy="190.8" r="8" />
<circle cx="359.9" cy="140.1" r="8" />
<circle cx="333.1" cy="213.9" r="8" />
<circle cx="417.6" cy="239.7" r="8" />
<circle cx="585.2" cy="323.6" r="8" />
<circle cx="798.5" cy="325.7" r="8" />
<circle cx="816.4" cy="313.8" r="8" />
<circle cx="884.8" cy="307.5" r="8" />
<circle cx="923.2" cy="328.2" r="8" />
<circle cx="969.3" cy="309.8" r="8" />
<circle cx="1012.0" cy="301.9" r="8" />
<style>
circle {
fill: white;
stroke: #525252;
stroke-width: 4;
}
path {
fill: none;
stroke: #525252;
stroke-width: 8;
}</style>
</svg>