<svg width="1024.0" height="977.7" xmlns="http://www.w3.org/2000/svg">
<path d="M1012.0000000000001 965.7054092271627 L995.0 965.7 L983.0 953.7 L978.1 958.7 L899.7 958.7 L885.7 958.7 L854.4 927.4 L820.8 893.8 L799.5 893.8 L777.9 893.8 L756.1 871.9 L725.8 841.6 L680.5 841.6 L641.4 841.6 L615.2 815.4 L588.9 789.1 L571.3 789.1 L486.7 789.1 L459.3 761.7 L443.0 745.4 L414.5 745.4 L356.1 745.4 L334.0 723.3 L314.5 703.9 L278.6 703.9 L239.7 703.9 L224.4 688.6 L209.8 673.9 L183.6 673.9 L145.9 673.9 L132.4 660.4 L116.7 644.8 L71.0 644.8 L27.8 644.8 L12.0 628.9 L12.0 511.3 L82.3 441.0 L86.2 437.1 L86.2 340.9 L86.2 267.3 L83.4 264.5 L83.4 169.0 L84.4 167.9 L84.4 96.7 L47.1 59.3 L47.1 12.4 L47.5 12.0 " />
<circle cx="1012.0" cy="965.7" r="8" />
<circle cx="983.0" cy="953.7" r="8" />
<circle cx="899.7" cy="958.7" r="8" />
<circle cx="854.4" cy="927.4" r="8" />
<circle cx="799.5" cy="893.8" r="8" />
<circle cx="756.1" cy="871.9" r="8" />
<circle cx="680.5" cy="841.6" r="8" />
<circle cx="615.2" cy="815.4" r="8" />
<circle cx="571.3" cy="789.1" r="8" />
<circle cx="459.3" cy="761.7" r="8" />
<circle cx="414.5" cy="745.4" r="8" />
<circle cx="334.0" cy="723.3" r="8" />
<circle cx="278.6" cy="703.9" r="8" />
<circle cx="224.4" cy="688.6" r="8" />
<circle cx="183.6" cy="673.9" r="8" />
<circle cx="132.4" cy="660.4" r="8" />
<circle cx="71.0" cy="644.8" r="8" />
<circle cx="12.0" cy="628.9" r="8" />
<circle cx="82.3" cy="441.0" r="8" />
<circle cx="86.2" cy="340.9" r="8" />
<circle cx="83.4" cy="264.5" r="8" />
<circle cx="84.4" cy="167.9" r="8" />
<circle cx="47.1" cy="59.3" r="8" />
<circle cx="47.5" cy="12.0" r="8" />
<style>
circle {
fill: white;
stroke: #000000;
stroke-width: 4;
}
path {
fill: none;
stroke: #000000;
stroke-width: 8;
}</style>
</svg>