<svg width="1024.0" height="346.2" xmlns="http://www.w3.org/2000/svg">
<path d="M12.0 12.0 L23.6 23.6 L30.3 23.6 L80.8 23.6 L142.7 85.6 L162.2 105.0 L167.0 105.0 L167.2 105.0 L179.4 117.2 L187.7 125.5 L188.8 125.5 L197.3 125.5 L210.4 138.6 L229.6 157.8 L238.5 157.8 L253.4 157.8 L260.3 164.7 L271.6 176.0 L283.7 176.0 L303.6 176.0 L309.4 181.8 L326.2 198.6 L372.1 198.6 L399.0 198.6 L408.5 208.1 L428.4 227.9 L483.0 227.9 L536.3 227.9 L560.9 252.5 L563.6 255.2 L585.4 255.2 L631.0 255.2 L645.7 269.9 L646.9 271.1 L691.8 271.1 L718.3 271.1 L724.3 277.1 L730.7 283.5 L767.1 283.5 L810.5 283.5 L811.5 284.5 L812.3 285.3 L845.2 285.3 L864.8 285.3 L865.6 286.1 L872.3 292.9 L898.1 292.9 L915.6 292.9 L922.0 299.2 L926.1 303.4 L937.2 303.4 L951.0 303.4 L959.6 312.0 L973.1 325.5 L980.7 325.5 L985.4 325.5 L991.7 331.8 L994.1 334.2 L1012.0 334.2 " />
<circle cx="12.0" cy="12.0" r="8" />
<circle cx="30.3" cy="23.6" r="8" />
<circle cx="142.7" cy="85.6" r="8" />
<circle cx="167.0" cy="105.0" r="8" />
<circle cx="179.4" cy="117.2" r="8" />
<circle cx="188.8" cy="125.5" r="8" />
<circle cx="210.4" cy="138.6" r="8" />
<circle cx="238.5" cy="157.8" r="8" />
<circle cx="260.3" cy="164.7" r="8" />
<circle cx="283.7" cy="176.0" r="8" />
<circle cx="309.4" cy="181.8" r="8" />
<circle cx="372.1" cy="198.6" r="8" />
<circle cx="408.5" cy="208.1" r="8" />
<circle cx="483.0" cy="227.9" r="8" />
<circle cx="560.9" cy="252.5" r="8" />
<circle cx="585.4" cy="255.2" r="8" />
<circle cx="645.7" cy="269.9" r="8" />
<circle cx="691.8" cy="271.1" r="8" />
<circle cx="724.3" cy="277.1" r="8" />
<circle cx="767.1" cy="283.5" r="8" />
<circle cx="811.5" cy="284.5" r="8" />
<circle cx="845.2" cy="285.3" r="8" />
<circle cx="865.6" cy="286.1" r="8" />
<circle cx="898.1" cy="292.9" r="8" />
<circle cx="922.0" cy="299.2" r="8" />
<circle cx="937.2" cy="303.4" r="8" />
<circle cx="959.6" cy="312.0" r="8" />
<circle cx="980.7" cy="325.5" r="8" />
<circle cx="991.7" cy="331.8" r="8" />
<circle cx="1012.0" cy="334.2" r="8" />
<style>
circle {
fill: white;
stroke: #525252;
stroke-width: 4;
}
path {
fill: none;
stroke: #525252;
stroke-width: 8;
}</style>
</svg>