<svg width="1024.0" height="440.6" xmlns="http://www.w3.org/2000/svg">
<path d="M125.76644870900856 12.0 L73.5 64.3 L73.5 66.2 L73.5 122.9 L12.0 184.3 L33.3 205.6 L132.5 205.6 L202.3 205.6 L220.6 223.9 L290.7 223.9 L310.1 204.5 L373.6 204.5 L392.0 222.9 L427.3 258.2 L522.7 258.2 L599.2 258.2 L622.3 281.3 L662.5 321.5 L662.5 322.5 L768.6 428.6 L1012.0 428.6 " />
<circle cx="125.8" cy="12.0" r="8" />
<circle cx="73.5" cy="66.2" r="8" />
<circle cx="12.0" cy="184.3" r="8" />
<circle cx="132.5" cy="205.6" r="8" />
<circle cx="220.6" cy="223.9" r="8" />
<circle cx="310.1" cy="204.5" r="8" />
<circle cx="392.0" cy="222.9" r="8" />
<circle cx="522.7" cy="258.2" r="8" />
<circle cx="622.3" cy="281.3" r="8" />
<circle cx="662.5" cy="322.5" r="8" />
<circle cx="1012.0" cy="428.6" r="8" />
<style>
circle {
fill: white;
stroke: #525252;
stroke-width: 4;
}
path {
fill: none;
stroke: #525252;
stroke-width: 8;
}</style>
</svg>