<svg width="1024.0" height="440.6" xmlns="http://www.w3.org/2000/svg">
<path d="M1012.0 428.55886240983705 L768.6 428.6 L662.5 322.5 L622.3 282.2 L622.3 281.3 L599.2 258.2 L522.7 258.2 L427.3 258.2 L392.0 222.9 L373.6 204.5 L310.1 204.5 L240.0 204.5 L220.6 223.9 L150.8 223.9 L132.5 205.6 L111.2 184.3 L12.0 184.3 L73.5 122.9 L73.5 66.2 L73.5 64.3 L125.8 12.0 " />
<circle cx="1012.0" cy="428.6" r="8" />
<circle cx="662.5" cy="322.5" r="8" />
<circle cx="622.3" cy="281.3" r="8" />
<circle cx="522.7" cy="258.2" r="8" />
<circle cx="392.0" cy="222.9" r="8" />
<circle cx="310.1" cy="204.5" r="8" />
<circle cx="220.6" cy="223.9" r="8" />
<circle cx="132.5" cy="205.6" r="8" />
<circle cx="12.0" cy="184.3" r="8" />
<circle cx="73.5" cy="66.2" r="8" />
<circle cx="125.8" cy="12.0" r="8" />
<style>
circle {
fill: white;
stroke: #525252;
stroke-width: 4;
}
path {
fill: none;
stroke: #525252;
stroke-width: 8;
}</style>
</svg>