<svg width="394.7" height="1024.0" xmlns="http://www.w3.org/2000/svg">
<path d="M277.48124350027365 1012.0 L277.5 999.8 L312.5 964.8 L303.6 956.0 L303.6 884.5 L303.6 858.9 L382.7 779.8 L340.5 737.6 L216.6 737.6 L204.4 737.6 L126.4 659.7 L79.1 612.3 L79.1 582.8 L79.1 475.6 L67.6 464.1 L53.1 449.6 L53.1 351.0 L53.1 258.5 L40.1 245.5 L12.0 217.4 L12.0 12.0 L30.1 30.1 L140.3 30.1 L140.3 45.8 L261.9 167.4 " />
<circle cx="277.5" cy="1012.0" r="8" />
<circle cx="312.5" cy="964.8" r="8" />
<circle cx="303.6" cy="884.5" r="8" />
<circle cx="382.7" cy="779.8" r="8" />
<circle cx="216.6" cy="737.6" r="8" />
<circle cx="126.4" cy="659.7" r="8" />
<circle cx="79.1" cy="582.8" r="8" />
<circle cx="67.6" cy="464.1" r="8" />
<circle cx="53.1" cy="351.0" r="8" />
<circle cx="40.1" cy="245.5" r="8" />
<circle cx="12.0" cy="12.0" r="8" />
<circle cx="140.3" cy="30.1" r="8" />
<circle cx="261.9" cy="167.4" r="8" />
<style>
circle {
fill: white;
stroke: #525252;
stroke-width: 4;
}
path {
fill: none;
stroke: #525252;
stroke-width: 8;
}</style>
</svg>