<svg width="390.0" height="1024.0" xmlns="http://www.w3.org/2000/svg">
<path d="M272.76739230359857 1012.0 L307.8 977.0 L307.8 964.8 L307.8 893.4 L298.9 884.5 L298.9 859.0 L378.0 779.9 L254.1 779.9 L211.9 737.6 L134.0 659.7 L121.7 659.7 L121.7 630.2 L74.4 582.9 L62.9 571.4 L62.9 464.2 L62.9 365.6 L48.4 351.1 L35.2 337.9 L35.2 246.7 L35.2 35.2 L12.0 12.0 L36.1 36.1 L143.1 36.1 L257.2 150.2 L257.2 167.5 " />
<circle cx="272.8" cy="1012.0" r="8" />
<circle cx="307.8" cy="964.8" r="8" />
<circle cx="298.9" cy="884.5" r="8" />
<circle cx="378.0" cy="779.9" r="8" />
<circle cx="211.9" cy="737.6" r="8" />
<circle cx="121.7" cy="659.7" r="8" />
<circle cx="74.4" cy="582.9" r="8" />
<circle cx="62.9" cy="464.2" r="8" />
<circle cx="48.4" cy="351.1" r="8" />
<circle cx="35.2" cy="246.7" r="8" />
<circle cx="12.0" cy="12.0" r="8" />
<circle cx="143.1" cy="36.1" r="8" />
<circle cx="257.2" cy="167.5" r="8" />
<style>
circle {
fill: white;
stroke: #525252;
stroke-width: 4;
}
path {
fill: none;
stroke: #525252;
stroke-width: 8;
}</style>
</svg>