<svg width="341.7" height="1024.0" xmlns="http://www.w3.org/2000/svg">
<path d="M257.1788676437137 167.50596176664496 L143.1 53.4 L143.1 36.1 L119.0 12.0 L12.0 12.0 L12.0 223.5 L35.2 246.7 L48.4 259.9 L48.4 351.1 L48.4 449.7 L62.9 464.2 L74.4 475.7 L74.4 582.9 L74.4 612.4 L121.7 659.7 L199.7 737.6 L211.9 737.6 L272.7 737.6 L329.7 794.7 L329.7 853.7 L298.9 884.5 L298.9 956.0 L307.8 964.8 L307.8 977.0 L272.8 1012.0 " />
<circle cx="257.2" cy="167.5" r="8" />
<circle cx="143.1" cy="36.1" r="8" />
<circle cx="12.0" cy="12.0" r="8" />
<circle cx="35.2" cy="246.7" r="8" />
<circle cx="48.4" cy="351.1" r="8" />
<circle cx="62.9" cy="464.2" r="8" />
<circle cx="74.4" cy="582.9" r="8" />
<circle cx="121.7" cy="659.7" r="8" />
<circle cx="211.9" cy="737.6" r="8" />
<circle cx="329.7" cy="794.7" r="8" />
<circle cx="298.9" cy="884.5" r="8" />
<circle cx="307.8" cy="964.8" r="8" />
<circle cx="272.8" cy="1012.0" r="8" />
<style>
circle {
fill: white;
stroke: #525252;
stroke-width: 4;
}
path {
fill: none;
stroke: #525252;
stroke-width: 8;
}</style>
</svg>