<svg width="556.8" height="1024.0" xmlns="http://www.w3.org/2000/svg">
<path d="M12.0 1012.0 L12.0 1002.8 L69.8 945.0 L119.5 895.4 L119.5 891.8 L119.5 889.3 L152.1 856.7 L176.3 832.5 L176.3 830.1 L176.3 826.2 L199.2 803.2 L226.4 776.0 L226.4 759.9 L226.4 720.1 L235.3 711.2 L228.1 704.0 L228.1 653.9 L167.7 653.9 L158.2 644.3 L140.9 627.0 L113.1 627.0 L113.1 602.8 L132.7 583.2 L144.4 571.5 L144.4 546.6 L144.4 535.6 L168.4 511.5 L189.9 490.1 L198.0 490.1 L198.0 481.7 L259.8 419.9 L298.1 381.5 L298.5 381.5 L337.1 381.5 L357.6 361.0 L358.8 359.8 L442.6 359.8 L502.9 359.8 L516.6 373.4 L541.8 348.2 L543.3 348.2 L532.7 337.6 L532.7 292.2 L532.7 255.9 L544.8 243.8 L539.0 238.0 L539.0 193.4 L539.0 146.0 L520.8 127.8 L509.5 116.5 L509.5 99.5 L509.5 65.9 L518.4 57.0 L514.9 53.5 L514.9 12.0 " />
<circle cx="12.0" cy="1012.0" r="8" />
<circle cx="69.8" cy="945.0" r="8" />
<circle cx="119.5" cy="891.8" r="8" />
<circle cx="152.1" cy="856.7" r="8" />
<circle cx="176.3" cy="830.1" r="8" />
<circle cx="199.2" cy="803.2" r="8" />
<circle cx="226.4" cy="759.9" r="8" />
<circle cx="235.3" cy="711.2" r="8" />
<circle cx="228.1" cy="653.9" r="8" />
<circle cx="158.2" cy="644.3" r="8" />
<circle cx="113.1" cy="627.0" r="8" />
<circle cx="132.7" cy="583.2" r="8" />
<circle cx="144.4" cy="546.6" r="8" />
<circle cx="168.4" cy="511.5" r="8" />
<circle cx="198.0" cy="490.1" r="8" />
<circle cx="259.8" cy="419.9" r="8" />
<circle cx="298.5" cy="381.5" r="8" />
<circle cx="357.6" cy="361.0" r="8" />
<circle cx="442.6" cy="359.8" r="8" />
<circle cx="516.6" cy="373.4" r="8" />
<circle cx="543.3" cy="348.2" r="8" />
<circle cx="532.7" cy="292.2" r="8" />
<circle cx="544.8" cy="243.8" r="8" />
<circle cx="539.0" cy="193.4" r="8" />
<circle cx="520.8" cy="127.8" r="8" />
<circle cx="509.5" cy="99.5" r="8" />
<circle cx="518.4" cy="57.0" r="8" />
<circle cx="514.9" cy="12.0" r="8" />
<style>
circle {
fill: white;
stroke: #F1B434;
stroke-width: 4;
}
path {
fill: none;
stroke: #F1B434;
stroke-width: 8;
}</style>
</svg>