<svg width="556.8" height="1024.0" xmlns="http://www.w3.org/2000/svg">
<path d="M514.8758194334988 12.0 L514.9 53.5 L518.4 57.0 L518.4 90.6 L509.5 99.5 L509.5 116.5 L520.8 127.8 L539.0 146.0 L539.0 193.4 L539.0 238.0 L544.8 243.8 L544.8 280.1 L532.7 292.2 L532.7 337.6 L543.3 348.2 L518.0 373.4 L516.6 373.4 L456.2 373.4 L442.6 359.8 L441.5 361.0 L357.6 361.0 L319.0 361.0 L298.5 381.5 L260.1 419.9 L259.8 419.9 L198.0 481.7 L198.0 490.1 L176.5 511.5 L168.4 511.5 L144.4 535.6 L144.4 546.6 L144.4 571.5 L132.7 583.2 L112.5 603.4 L112.5 628.6 L128.2 644.3 L158.2 644.3 L218.6 644.3 L228.1 653.9 L235.3 661.1 L235.3 711.2 L235.3 751.0 L226.4 759.9 L199.2 787.1 L199.2 803.2 L199.2 807.2 L176.3 830.1 L152.1 854.3 L152.1 856.7 L152.1 859.2 L119.5 891.8 L69.8 941.5 L69.8 945.0 L69.8 954.2 L12.0 1012.0 " />
<circle cx="514.9" cy="12.0" r="8" />
<circle cx="518.4" cy="57.0" r="8" />
<circle cx="509.5" cy="99.5" r="8" />
<circle cx="520.8" cy="127.8" r="8" />
<circle cx="539.0" cy="193.4" r="8" />
<circle cx="544.8" cy="243.8" r="8" />
<circle cx="532.7" cy="292.2" r="8" />
<circle cx="543.3" cy="348.2" r="8" />
<circle cx="516.6" cy="373.4" r="8" />
<circle cx="442.6" cy="359.8" r="8" />
<circle cx="357.6" cy="361.0" r="8" />
<circle cx="298.5" cy="381.5" r="8" />
<circle cx="259.8" cy="419.9" r="8" />
<circle cx="198.0" cy="490.1" r="8" />
<circle cx="168.4" cy="511.5" r="8" />
<circle cx="144.4" cy="546.6" r="8" />
<circle cx="132.7" cy="583.2" r="8" />
<circle cx="112.5" cy="628.6" r="8" />
<circle cx="158.2" cy="644.3" r="8" />
<circle cx="228.1" cy="653.9" r="8" />
<circle cx="235.3" cy="711.2" r="8" />
<circle cx="226.4" cy="759.9" r="8" />
<circle cx="199.2" cy="803.2" r="8" />
<circle cx="176.3" cy="830.1" r="8" />
<circle cx="152.1" cy="856.7" r="8" />
<circle cx="119.5" cy="891.8" r="8" />
<circle cx="69.8" cy="945.0" r="8" />
<circle cx="12.0" cy="1012.0" r="8" />
<style>
circle {
fill: white;
stroke: #F1B434;
stroke-width: 4;
}
path {
fill: none;
stroke: #F1B434;
stroke-width: 8;
}</style>
</svg>