<svg width="713.6" height="1024.0" xmlns="http://www.w3.org/2000/svg">
<path d="M434.3 12.0 L434.3 136.0 L437.0 138.7 L396.8 179.0 L396.8 201.2 L275.1 201.2 L234.3 242.1 L141.4 334.9 L141.4 356.5 L77.9 356.5 L12.0 422.4 L173.0 422.4 L233.9 483.3 L295.5 544.9 L335.2 544.9 L327.4 552.7 L327.4 650.7 L429.3 650.7 L501.7 723.0 L618.9 840.3 L683.0 840.3 L683.0 880.7 L701.6 899.3 L641.5 959.5 L641.5 1012.0 L537.6 1012.0 L498.2 972.7 L638.2 832.7 L638.2 825.0 " />
<circle cx="434.3" cy="12.0" r="8" />
<circle cx="437.0" cy="138.7" r="8" />
<circle cx="396.8" cy="201.2" r="8" />
<circle cx="234.3" cy="242.1" r="8" />
<circle cx="141.4" cy="356.5" r="8" />
<circle cx="12.0" cy="422.4" r="8" />
<circle cx="233.9" cy="483.3" r="8" />
<circle cx="335.2" cy="544.9" r="8" />
<circle cx="327.4" cy="650.7" r="8" />
<circle cx="501.7" cy="723.0" r="8" />
<circle cx="683.0" cy="840.3" r="8" />
<circle cx="701.6" cy="899.3" r="8" />
<circle cx="641.5" cy="1012.0" r="8" />
<circle cx="498.2" cy="972.7" r="8" />
<circle cx="638.2" cy="825.0" r="8" />
<style>
circle {
fill: white;
stroke: #525252;
stroke-width: 4;
}
path {
fill: none;
stroke: #525252;
stroke-width: 8;
}</style>
</svg>