<svg width="714.2" height="1024.0" xmlns="http://www.w3.org/2000/svg">
<path d="M450.7 12.0 L437.4 25.4 L437.4 138.0 L437.4 143.1 L368.6 211.9 L339.0 241.5 L234.5 241.5 L234.5 263.0 L141.5 356.0 L75.6 421.9 L12.0 421.9 L80.2 490.2 L208.6 490.2 L281.1 490.2 L335.5 544.5 L338.8 547.8 L338.8 642.1 L417.0 642.1 L496.3 721.4 L615.0 840.1 L683.5 840.1 L683.5 880.6 L702.2 899.2 L642.0 959.4 L642.0 1012.0 L538.0 1012.0 L498.6 972.6 L638.7 832.6 L638.7 824.8 " />
<circle cx="450.7" cy="12.0" r="8" />
<circle cx="437.4" cy="138.0" r="8" />
<circle cx="368.6" cy="211.9" r="8" />
<circle cx="234.5" cy="241.5" r="8" />
<circle cx="141.5" cy="356.0" r="8" />
<circle cx="12.0" cy="421.9" r="8" />
<circle cx="208.6" cy="490.2" r="8" />
<circle cx="335.5" cy="544.5" r="8" />
<circle cx="338.8" cy="642.1" r="8" />
<circle cx="496.3" cy="721.4" r="8" />
<circle cx="683.5" cy="840.1" r="8" />
<circle cx="702.2" cy="899.2" r="8" />
<circle cx="642.0" cy="1012.0" r="8" />
<circle cx="498.6" cy="972.6" r="8" />
<circle cx="638.7" cy="824.8" r="8" />
<style>
circle {
fill: white;
stroke: #525252;
stroke-width: 4;
}
path {
fill: none;
stroke: #525252;
stroke-width: 8;
}</style>
</svg>