<svg width="1024.0" height="791.3" xmlns="http://www.w3.org/2000/svg">
<path d="M978.9 184.4 L978.9 222.3 L997.0 240.4 L1001.7 245.1 L1001.7 300.0 L1001.7 373.1 L1012.0 383.3 L896.1 383.3 L774.6 504.9 L672.3 607.2 L586.4 607.2 L591.2 611.9 L755.4 611.9 L755.4 651.1 L784.2 680.0 L740.9 723.3 L740.9 762.5 L611.5 762.5 L609.0 760.1 L504.8 760.1 L485.6 779.3 L483.0 776.7 L483.0 708.0 L353.3 708.0 L347.8 713.5 L343.0 718.3 L236.8 718.3 L146.3 718.3 L143.0 721.6 L106.0 684.6 L12.0 684.6 L25.5 671.1 L102.6 671.1 L145.9 671.1 L226.9 590.1 L273.9 543.1 L303.3 543.1 L240.2 480.0 L195.3 480.0 L153.0 480.0 L97.7 424.7 L106.5 424.7 L170.0 361.2 L189.0 342.2 L189.0 294.0 L193.9 294.0 L278.7 209.2 L314.8 173.1 L314.8 169.0 L365.3 169.0 L427.3 107.0 L522.4 12.0 L588.6 12.0 " />
<circle cx="978.9" cy="184.4" r="8" />
<circle cx="997.0" cy="240.4" r="8" />
<circle cx="1001.7" cy="300.0" r="8" />
<circle cx="1012.0" cy="383.3" r="8" />
<circle cx="774.6" cy="504.9" r="8" />
<circle cx="586.4" cy="607.2" r="8" />
<circle cx="755.4" cy="611.9" r="8" />
<circle cx="784.2" cy="680.0" r="8" />
<circle cx="740.9" cy="762.5" r="8" />
<circle cx="609.0" cy="760.1" r="8" />
<circle cx="485.6" cy="779.3" r="8" />
<circle cx="483.0" cy="708.0" r="8" />
<circle cx="347.8" cy="713.5" r="8" />
<circle cx="236.8" cy="718.3" r="8" />
<circle cx="143.0" cy="721.6" r="8" />
<circle cx="12.0" cy="684.6" r="8" />
<circle cx="102.6" cy="671.1" r="8" />
<circle cx="226.9" cy="590.1" r="8" />
<circle cx="303.3" cy="543.1" r="8" />
<circle cx="195.3" cy="480.0" r="8" />
<circle cx="97.7" cy="424.7" r="8" />
<circle cx="170.0" cy="361.2" r="8" />
<circle cx="189.0" cy="294.0" r="8" />
<circle cx="278.7" cy="209.2" r="8" />
<circle cx="314.8" cy="169.0" r="8" />
<circle cx="427.3" cy="107.0" r="8" />
<circle cx="588.6" cy="12.0" r="8" />
<style>
circle {
fill: white;
stroke: #525252;
stroke-width: 4;
}
path {
fill: none;
stroke: #525252;
stroke-width: 8;
}</style>
</svg>