<svg width="1024.0" height="232.0" xmlns="http://www.w3.org/2000/svg">
<path d="M129.1 195.8 L105.6 172.3 L105.6 136.7 L65.8 136.7 L60.0 130.9 L14.5 85.5 L12.0 85.5 L12.0 59.3 L32.4 38.9 L59.3 12.0 L117.9 12.0 L141.1 12.0 L183.4 54.4 L166.7 71.2 L166.7 134.8 L227.5 134.8 L242.0 149.3 L283.7 107.5 L313.8 107.5 L383.5 107.5 L390.9 100.1 L400.7 109.8 L499.7 109.8 L599.3 109.8 L600.9 111.4 L611.5 122.1 L780.0 122.1 L780.6 122.1 L820.2 161.7 L853.8 195.3 L970.6 195.3 L987.3 195.3 L1012.0 220.0 " />
<circle cx="129.1" cy="195.8" r="8" />
<circle cx="105.6" cy="136.7" r="8" />
<circle cx="60.0" cy="130.9" r="8" />
<circle cx="12.0" cy="85.5" r="8" />
<circle cx="32.4" cy="38.9" r="8" />
<circle cx="117.9" cy="12.0" r="8" />
<circle cx="183.4" cy="54.4" r="8" />
<circle cx="166.7" cy="134.8" r="8" />
<circle cx="242.0" cy="149.3" r="8" />
<circle cx="313.8" cy="107.5" r="8" />
<circle cx="390.9" cy="100.1" r="8" />
<circle cx="499.7" cy="109.8" r="8" />
<circle cx="600.9" cy="111.4" r="8" />
<circle cx="780.0" cy="122.1" r="8" />
<circle cx="820.2" cy="161.7" r="8" />
<circle cx="970.6" cy="195.3" r="8" />
<circle cx="1012.0" cy="220.0" r="8" />
<style>
circle {
fill: white;
stroke: #E31E24;
stroke-width: 4;
}
path {
fill: none;
stroke: #E31E24;
stroke-width: 8;
}</style>
</svg>