<svg width="455.7" height="1024.0" xmlns="http://www.w3.org/2000/svg">
<path d="M251.9 12.0 L250.1 13.9 L250.1 35.6 L297.0 35.6 L303.5 42.0 L357.5 96.1 L411.7 96.1 L433.7 96.1 L443.7 106.0 L439.8 109.9 L439.8 137.5 L439.7 137.5 L418.8 158.3 L396.9 180.3 L396.9 216.0 L396.9 217.2 L365.5 248.6 L329.1 284.9 L329.1 313.4 L329.1 341.0 L309.8 360.3 L298.1 372.0 L298.1 409.1 L298.1 427.4 L289.7 435.8 L255.0 470.5 L255.0 482.3 L255.0 495.1 L210.3 539.8 L176.9 573.2 L160.1 573.2 L163.4 576.5 L163.4 632.5 L125.2 632.5 L113.9 643.8 L90.2 667.5 L90.2 670.1 L90.2 672.2 L70.4 692.0 L38.8 723.6 L38.8 730.1 L38.8 734.9 L57.8 753.8 L84.5 780.5 L90.2 780.5 L100.8 780.5 L112.5 792.2 L113.1 792.8 L162.3 792.8 L162.3 807.7 L192.1 837.5 L185.6 837.5 L173.7 849.5 L80.3 942.8 L40.3 942.8 L40.3 969.8 L12.0 998.1 L26.9 998.1 L40.8 1012.0 " />
<circle cx="251.9" cy="12.0" r="8" />
<circle cx="250.1" cy="35.6" r="8" />
<circle cx="303.5" cy="42.0" r="8" />
<circle cx="411.7" cy="96.1" r="8" />
<circle cx="443.7" cy="106.0" r="8" />
<circle cx="439.8" cy="137.5" r="8" />
<circle cx="418.8" cy="158.3" r="8" />
<circle cx="396.9" cy="216.0" r="8" />
<circle cx="365.5" cy="248.6" r="8" />
<circle cx="329.1" cy="313.4" r="8" />
<circle cx="309.8" cy="360.3" r="8" />
<circle cx="298.1" cy="409.1" r="8" />
<circle cx="289.7" cy="435.8" r="8" />
<circle cx="255.0" cy="482.3" r="8" />
<circle cx="210.3" cy="539.8" r="8" />
<circle cx="160.1" cy="573.2" r="8" />
<circle cx="163.4" cy="632.5" r="8" />
<circle cx="113.9" cy="643.8" r="8" />
<circle cx="90.2" cy="670.1" r="8" />
<circle cx="70.4" cy="692.0" r="8" />
<circle cx="38.8" cy="730.1" r="8" />
<circle cx="57.8" cy="753.8" r="8" />
<circle cx="90.2" cy="780.5" r="8" />
<circle cx="112.5" cy="792.2" r="8" />
<circle cx="162.3" cy="792.8" r="8" />
<circle cx="192.1" cy="837.5" r="8" />
<circle cx="173.7" cy="849.5" r="8" />
<circle cx="40.3" cy="942.8" r="8" />
<circle cx="12.0" cy="998.1" r="8" />
<circle cx="40.8" cy="1012.0" r="8" />
<style>
circle {
fill: white;
stroke: #000000;
stroke-width: 4;
}
path {
fill: none;
stroke: #000000;
stroke-width: 8;
}</style>
</svg>