<svg width="984.1" height="1024.0" xmlns="http://www.w3.org/2000/svg">
<path d="M972.1 1012.0 L919.7 959.6 L919.7 923.0 L919.7 900.5 L794.3 775.1 L705.1 685.9 L679.1 685.9 L642.1 685.9 L519.0 562.8 L478.1 521.9 L458.3 521.9 L419.4 521.9 L71.2 173.7 L17.3 119.8 L17.3 64.1 L17.3 17.3 L12.0 12.0 " />
<circle cx="972.1" cy="1012.0" r="8" />
<circle cx="919.7" cy="923.0" r="8" />
<circle cx="794.3" cy="775.1" r="8" />
<circle cx="679.1" cy="685.9" r="8" />
<circle cx="519.0" cy="562.8" r="8" />
<circle cx="458.3" cy="521.9" r="8" />
<circle cx="71.2" cy="173.7" r="8" />
<circle cx="17.3" cy="64.1" r="8" />
<circle cx="12.0" cy="12.0" r="8" />
<style>
circle {
fill: white;
stroke: black;
stroke-width: 4;
}
path {
fill: none;
stroke: #FFFFFF;
stroke-width: 8;
}</style>
</svg>