<svg width="425.7" height="1024.0" xmlns="http://www.w3.org/2000/svg">
<path d="M367.6247108046381 12.0 L374.0 18.4 L394.1 18.4 L396.2 18.4 L409.0 31.2 L413.7 35.9 L413.7 61.9 L413.7 65.3 L398.4 80.6 L388.8 90.2 L370.8 90.2 L369.7 90.2 L357.2 102.7 L332.2 127.7 L308.6 127.7 L266.6 127.7 L257.4 136.9 L228.9 165.4 L203.0 165.4 L203.0 179.2 L162.7 219.5 L159.6 222.5 L159.6 243.5 L159.6 267.3 L157.5 269.5 L156.3 268.3 L119.2 268.3 L31.2 268.3 L12.0 249.1 L142.5 249.1 L165.6 272.2 L176.3 261.5 L233.6 261.5 L198.9 296.1 L198.9 315.1 L198.9 381.0 L171.1 408.7 L228.6 408.7 L229.9 407.4 L229.9 427.3 L239.2 436.6 L190.2 436.6 L185.5 441.3 L176.8 450.0 L176.8 485.9 L176.8 508.7 L181.6 513.4 L188.5 520.3 L188.5 582.1 L188.5 609.2 L192.3 613.1 L196.5 617.3 L196.5 646.3 L196.5 677.8 L199.9 681.1 L213.8 695.0 L213.8 703.7 L213.8 747.9 L224.9 759.0 L223.7 760.3 L223.7 800.5 L223.7 834.1 L211.6 846.1 L200.7 857.0 L200.7 870.5 L200.7 887.1 L195.4 892.4 L188.3 899.5 L188.3 919.9 L127.1 919.9 L121.2 914.0 L113.3 921.9 L113.3 936.8 L112.9 936.8 L93.1 956.7 L74.2 975.5 L74.2 988.7 L74.2 1005.2 L67.5 1012.0 " />
<circle cx="367.6" cy="12.0" r="8" />
<circle cx="394.1" cy="18.4" r="8" />
<circle cx="409.0" cy="31.2" r="8" />
<circle cx="413.7" cy="61.9" r="8" />
<circle cx="398.4" cy="80.6" r="8" />
<circle cx="370.8" cy="90.2" r="8" />
<circle cx="357.2" cy="102.7" r="8" />
<circle cx="308.6" cy="127.7" r="8" />
<circle cx="257.4" cy="136.9" r="8" />
<circle cx="203.0" cy="165.4" r="8" />
<circle cx="162.7" cy="219.5" r="8" />
<circle cx="159.6" cy="243.5" r="8" />
<circle cx="157.5" cy="269.5" r="8" />
<circle cx="119.2" cy="268.3" r="8" />
<circle cx="12.0" cy="249.1" r="8" />
<circle cx="165.6" cy="272.2" r="8" />
<circle cx="233.6" cy="261.5" r="8" />
<circle cx="198.9" cy="315.1" r="8" />
<circle cx="171.1" cy="408.7" r="8" />
<circle cx="229.9" cy="407.4" r="8" />
<circle cx="239.2" cy="436.6" r="8" />
<circle cx="185.5" cy="441.3" r="8" />
<circle cx="176.8" cy="485.9" r="8" />
<circle cx="181.6" cy="513.4" r="8" />
<circle cx="188.5" cy="582.1" r="8" />
<circle cx="192.3" cy="613.1" r="8" />
<circle cx="196.5" cy="646.3" r="8" />
<circle cx="199.9" cy="681.1" r="8" />
<circle cx="213.8" cy="703.7" r="8" />
<circle cx="224.9" cy="759.0" r="8" />
<circle cx="223.7" cy="800.5" r="8" />
<circle cx="211.6" cy="846.1" r="8" />
<circle cx="200.7" cy="870.5" r="8" />
<circle cx="195.4" cy="892.4" r="8" />
<circle cx="188.3" cy="919.9" r="8" />
<circle cx="121.2" cy="914.0" r="8" />
<circle cx="113.3" cy="936.8" r="8" />
<circle cx="93.1" cy="956.7" r="8" />
<circle cx="74.2" cy="988.7" r="8" />
<circle cx="67.5" cy="1012.0" r="8" />
<style>
circle {
fill: white;
stroke: #000000;
stroke-width: 4;
}
path {
fill: none;
stroke: #000000;
stroke-width: 8;
}</style>
</svg>