<svg width="1024.0" height="927.2" xmlns="http://www.w3.org/2000/svg">
<path d="M1012.0 915.2 L979.9 883.2 L979.9 838.2 L979.9 806.9 L994.7 792.1 L972.3 769.8 L855.0 769.8 L852.7 767.5 L852.7 750.7 L852.7 737.1 L882.2 707.7 L915.4 674.5 L915.4 641.4 L915.4 586.5 L916.0 585.8 L889.9 559.6 L854.9 559.6 L793.0 559.6 L760.1 526.7 L727.9 494.5 L655.6 494.5 L573.8 494.5 L553.2 473.9 L405.4 326.1 L358.7 326.1 L358.7 314.2 L398.0 274.9 L397.8 274.7 L397.8 247.6 L390.6 247.6 L337.4 194.4 L301.6 158.6 L258.7 158.6 L344.0 243.9 L344.0 330.1 L303.3 330.1 L294.6 321.4 L283.3 321.4 L271.0 333.7 L197.2 260.0 L138.4 260.0 L100.2 260.0 L12.0 171.8 L52.7 171.8 L113.2 111.3 L202.0 22.5 L282.6 22.5 L304.6 22.5 L315.1 12.0 L348.8 45.7 L390.2 45.7 L425.7 45.7 L468.3 88.3 L502.6 122.6 L524.1 122.6 L553.1 122.6 L597.1 166.6 L646.9 216.4 L710.3 216.4 L734.2 216.4 L766.8 249.0 L757.7 249.0 L736.6 270.2 L718.0 288.8 L686.0 288.8 L613.7 288.8 L604.9 280.0 L587.7 297.2 L587.7 311.5 L589.2 311.5 L656.8 379.1 L665.0 370.9 L712.1 370.9 L773.4 370.9 L806.5 337.8 L807.7 338.9 L903.7 338.9 L914.2 338.9 L965.2 389.9 L932.0 423.0 L932.0 425.5 L881.6 425.5 L867.3 439.7 L822.6 484.5 L822.6 494.9 " />
<circle cx="1012.0" cy="915.2" r="8" />
<circle cx="979.9" cy="838.2" r="8" />
<circle cx="994.7" cy="792.1" r="8" />
<circle cx="855.0" cy="769.8" r="8" />
<circle cx="852.7" cy="750.7" r="8" />
<circle cx="882.2" cy="707.7" r="8" />
<circle cx="915.4" cy="641.4" r="8" />
<circle cx="916.0" cy="585.8" r="8" />
<circle cx="854.9" cy="559.6" r="8" />
<circle cx="760.1" cy="526.7" r="8" />
<circle cx="655.6" cy="494.5" r="8" />
<circle cx="553.2" cy="473.9" r="8" />
<circle cx="358.7" cy="326.1" r="8" />
<circle cx="398.0" cy="274.9" r="8" />
<circle cx="397.8" cy="247.6" r="8" />
<circle cx="337.4" cy="194.4" r="8" />
<circle cx="258.7" cy="158.6" r="8" />
<circle cx="344.0" cy="330.1" r="8" />
<circle cx="294.6" cy="321.4" r="8" />
<circle cx="271.0" cy="333.7" r="8" />
<circle cx="138.4" cy="260.0" r="8" />
<circle cx="12.0" cy="171.8" r="8" />
<circle cx="113.2" cy="111.3" r="8" />
<circle cx="282.6" cy="22.5" r="8" />
<circle cx="315.1" cy="12.0" r="8" />
<circle cx="390.2" cy="45.7" r="8" />
<circle cx="468.3" cy="88.3" r="8" />
<circle cx="524.1" cy="122.6" r="8" />
<circle cx="597.1" cy="166.6" r="8" />
<circle cx="710.3" cy="216.4" r="8" />
<circle cx="766.8" cy="249.0" r="8" />
<circle cx="736.6" cy="270.2" r="8" />
<circle cx="686.0" cy="288.8" r="8" />
<circle cx="604.9" cy="280.0" r="8" />
<circle cx="587.7" cy="311.5" r="8" />
<circle cx="656.8" cy="379.1" r="8" />
<circle cx="712.1" cy="370.9" r="8" />
<circle cx="806.5" cy="337.8" r="8" />
<circle cx="903.7" cy="338.9" r="8" />
<circle cx="965.2" cy="389.9" r="8" />
<circle cx="932.0" cy="425.5" r="8" />
<circle cx="867.3" cy="439.7" r="8" />
<circle cx="822.6" cy="494.9" r="8" />
<style>
circle {
fill: white;
stroke: #000000;
stroke-width: 4;
}
path {
fill: none;
stroke: #000000;
stroke-width: 8;
}</style>
</svg>