<svg width="1024.0" height="685.5" xmlns="http://www.w3.org/2000/svg">
<path d="M796.6580055126745 12.0 L794.0 14.6 L794.0 45.0 L859.8 45.0 L868.8 54.0 L909.3 94.4 L920.1 94.4 L914.6 99.9 L914.6 128.9 L925.0 128.9 L948.8 152.7 L994.4 107.1 L1012.0 107.1 L947.4 171.7 L929.1 171.7 L926.0 171.7 L901.4 196.3 L883.6 214.1 L879.4 214.1 L874.6 214.1 L856.4 232.2 L830.1 258.6 L829.3 258.6 L829.3 282.7 L813.2 298.8 L795.5 316.5 L795.5 340.4 L792.5 340.4 L765.9 367.0 L738.4 394.5 L738.4 396.0 L738.4 433.9 L739.8 435.3 L742.4 437.9 L742.4 485.3 L742.4 504.8 L757.4 519.8 L765.1 527.5 L765.1 551.4 L765.1 563.5 L778.7 577.2 L784.6 583.1 L784.6 622.0 L718.0 622.0 L691.2 648.8 L672.7 667.3 L659.8 667.3 L609.4 667.3 L603.1 673.5 L549.3 619.7 L508.9 619.7 L482.8 619.7 L424.1 561.0 L394.5 531.4 L351.6 531.4 L332.0 531.4 L288.5 487.9 L264.8 464.2 L230.7 464.2 L167.3 464.2 L142.5 439.4 L88.5 439.4 L56.6 471.2 L12.0 515.9 L12.0 525.6 " />
<circle cx="796.7" cy="12.0" r="8" />
<circle cx="794.0" cy="45.0" r="8" />
<circle cx="868.8" cy="54.0" r="8" />
<circle cx="920.1" cy="94.4" r="8" />
<circle cx="914.6" cy="128.9" r="8" />
<circle cx="948.8" cy="152.7" r="8" />
<circle cx="1012.0" cy="107.1" r="8" />
<circle cx="929.1" cy="171.7" r="8" />
<circle cx="901.4" cy="196.3" r="8" />
<circle cx="879.4" cy="214.1" r="8" />
<circle cx="856.4" cy="232.2" r="8" />
<circle cx="829.3" cy="258.6" r="8" />
<circle cx="813.2" cy="298.8" r="8" />
<circle cx="795.5" cy="340.4" r="8" />
<circle cx="765.9" cy="367.0" r="8" />
<circle cx="738.4" cy="396.0" r="8" />
<circle cx="739.8" cy="435.3" r="8" />
<circle cx="742.4" cy="485.3" r="8" />
<circle cx="757.4" cy="519.8" r="8" />
<circle cx="765.1" cy="551.4" r="8" />
<circle cx="778.7" cy="577.2" r="8" />
<circle cx="784.6" cy="622.0" r="8" />
<circle cx="691.2" cy="648.8" r="8" />
<circle cx="659.8" cy="667.3" r="8" />
<circle cx="603.1" cy="673.5" r="8" />
<circle cx="508.9" cy="619.7" r="8" />
<circle cx="424.1" cy="561.0" r="8" />
<circle cx="351.6" cy="531.4" r="8" />
<circle cx="288.5" cy="487.9" r="8" />
<circle cx="230.7" cy="464.2" r="8" />
<circle cx="142.5" cy="439.4" r="8" />
<circle cx="56.6" cy="471.2" r="8" />
<circle cx="12.0" cy="525.6" r="8" />
<style>
circle {
fill: white;
stroke: #525252;
stroke-width: 4;
}
path {
fill: none;
stroke: #525252;
stroke-width: 8;
}</style>
</svg>