<svg width="1024.0" height="802.8" xmlns="http://www.w3.org/2000/svg">
<path d="M177.20002474486336 790.7519385226719 L206.0 761.9 L206.0 755.5 L168.6 718.0 L158.9 718.0 L110.3 718.0 L78.6 686.4 L38.1 645.8 L12.0 645.8 L66.4 645.8 L112.4 599.8 L199.5 599.8 L233.6 633.9 L285.2 633.9 L296.4 622.7 L324.7 594.4 L371.0 594.4 L407.6 594.4 L430.9 571.1 L460.2 541.7 L507.3 541.7 L555.1 541.7 L574.5 522.3 L584.7 512.1 L643.3 512.1 L676.1 512.1 L737.6 450.6 L773.2 414.9 L795.5 414.9 L761.5 414.9 L713.6 367.1 L671.6 325.1 L639.6 325.1 L646.2 325.1 L694.4 277.0 L694.4 237.8 L686.3 229.7 L754.4 161.6 L776.9 161.6 L804.2 134.2 L804.2 131.1 L851.3 84.1 L889.6 84.1 L939.9 84.1 L1012.0 12.0 " />
<circle cx="177.2" cy="790.8" r="8" />
<circle cx="206.0" cy="755.5" r="8" />
<circle cx="158.9" cy="718.0" r="8" />
<circle cx="78.6" cy="686.4" r="8" />
<circle cx="12.0" cy="645.8" r="8" />
<circle cx="112.4" cy="599.8" r="8" />
<circle cx="233.6" cy="633.9" r="8" />
<circle cx="296.4" cy="622.7" r="8" />
<circle cx="371.0" cy="594.4" r="8" />
<circle cx="430.9" cy="571.1" r="8" />
<circle cx="507.3" cy="541.7" r="8" />
<circle cx="574.5" cy="522.3" r="8" />
<circle cx="643.3" cy="512.1" r="8" />
<circle cx="737.6" cy="450.6" r="8" />
<circle cx="795.5" cy="414.9" r="8" />
<circle cx="713.6" cy="367.1" r="8" />
<circle cx="639.6" cy="325.1" r="8" />
<circle cx="694.4" cy="277.0" r="8" />
<circle cx="686.3" cy="229.7" r="8" />
<circle cx="776.9" cy="161.6" r="8" />
<circle cx="804.2" cy="131.1" r="8" />
<circle cx="889.6" cy="84.1" r="8" />
<circle cx="1012.0" cy="12.0" r="8" />
<style>
circle {
fill: white;
stroke: #525252;
stroke-width: 4;
}
path {
fill: none;
stroke: #525252;
stroke-width: 8;
}</style>
</svg>