<svg width="1024.0" height="802.8" xmlns="http://www.w3.org/2000/svg">
<path d="M1012.0000000000001 12.0 L939.9 84.1 L889.6 84.1 L851.3 84.1 L804.2 131.1 L782.8 152.5 L770.1 152.5 L763.5 152.5 L686.3 229.7 L660.5 255.5 L620.9 255.5 L620.9 270.0 L630.8 280.0 L639.6 288.7 L639.6 325.1 L681.5 367.1 L713.6 367.1 L747.7 367.1 L795.5 414.9 L759.9 450.6 L737.6 450.6 L704.8 450.6 L643.3 512.1 L633.1 522.3 L574.5 522.3 L526.7 522.3 L507.3 541.7 L477.9 571.1 L430.9 571.1 L394.3 571.1 L371.0 594.4 L342.7 622.7 L296.4 622.7 L244.9 622.7 L233.6 633.9 L146.5 633.9 L112.4 599.8 L66.4 645.8 L12.0 645.8 L38.1 645.8 L78.6 686.4 L110.3 718.0 L158.9 718.0 L168.6 718.0 L206.0 755.5 L206.0 761.9 L177.2 790.8 " />
<circle cx="1012.0" cy="12.0" r="8" />
<circle cx="889.6" cy="84.1" r="8" />
<circle cx="804.2" cy="131.1" r="8" />
<circle cx="770.1" cy="152.5" r="8" />
<circle cx="686.3" cy="229.7" r="8" />
<circle cx="620.9" cy="255.5" r="8" />
<circle cx="630.8" cy="280.0" r="8" />
<circle cx="639.6" cy="325.1" r="8" />
<circle cx="713.6" cy="367.1" r="8" />
<circle cx="795.5" cy="414.9" r="8" />
<circle cx="737.6" cy="450.6" r="8" />
<circle cx="643.3" cy="512.1" r="8" />
<circle cx="574.5" cy="522.3" r="8" />
<circle cx="507.3" cy="541.7" r="8" />
<circle cx="430.9" cy="571.1" r="8" />
<circle cx="371.0" cy="594.4" r="8" />
<circle cx="296.4" cy="622.7" r="8" />
<circle cx="233.6" cy="633.9" r="8" />
<circle cx="112.4" cy="599.8" r="8" />
<circle cx="12.0" cy="645.8" r="8" />
<circle cx="78.6" cy="686.4" r="8" />
<circle cx="158.9" cy="718.0" r="8" />
<circle cx="206.0" cy="755.5" r="8" />
<circle cx="177.2" cy="790.8" r="8" />
<style>
circle {
fill: white;
stroke: #525252;
stroke-width: 4;
}
path {
fill: none;
stroke: #525252;
stroke-width: 8;
}</style>
</svg>