<svg width="846.5" height="1024.0" xmlns="http://www.w3.org/2000/svg">
<path d="M12.0 12.0 L56.7 12.0 L73.9 29.2 L124.9 80.2 L166.6 80.2 L176.7 80.2 L335.1 238.6 L309.6 264.1 L287.9 264.1 L263.1 288.9 L263.1 305.0 L263.1 349.0 L272.6 358.5 L282.3 368.1 L282.3 391.0 L282.3 417.3 L304.8 439.9 L312.0 447.1 L312.0 456.2 L329.8 474.0 L333.7 474.0 L368.9 474.0 L369.3 473.6 L421.2 473.6 L431.0 483.4 L465.1 517.5 L512.2 517.5 L528.0 517.5 L536.8 526.3 L571.6 561.1 L571.6 568.8 L571.6 588.8 L638.8 656.0 L638.8 719.8 L611.9 746.6 L574.6 746.6 L572.6 744.6 L552.1 765.0 L551.0 765.0 L540.7 765.0 L522.6 783.2 L545.4 806.0 L572.5 806.0 L676.5 806.0 L693.2 822.7 L753.0 882.4 L815.0 882.4 L815.0 901.2 L814.9 901.3 L814.9 920.0 L825.7 930.7 L825.7 956.1 L816.5 965.2 L816.5 994.0 L834.5 1012.0 L807.2 984.6 L756.6 984.6 L666.1 984.6 L665.1 985.6 L615.5 985.6 L609.4 979.5 L599.3 969.5 L545.8 969.5 L502.8 969.5 L489.1 955.7 L480.8 947.4 L433.0 947.4 L399.2 947.4 L389.1 937.3 L387.3 935.5 L331.1 935.5 L297.4 935.5 L281.3 919.4 L278.1 916.2 L278.1 885.6 " />
<circle cx="12.0" cy="12.0" r="8" />
<circle cx="73.9" cy="29.2" r="8" />
<circle cx="166.6" cy="80.2" r="8" />
<circle cx="335.1" cy="238.6" r="8" />
<circle cx="287.9" cy="264.1" r="8" />
<circle cx="263.1" cy="305.0" r="8" />
<circle cx="272.6" cy="358.5" r="8" />
<circle cx="282.3" cy="391.0" r="8" />
<circle cx="304.8" cy="439.9" r="8" />
<circle cx="312.0" cy="456.2" r="8" />
<circle cx="333.7" cy="474.0" r="8" />
<circle cx="369.3" cy="473.6" r="8" />
<circle cx="431.0" cy="483.4" r="8" />
<circle cx="512.2" cy="517.5" r="8" />
<circle cx="536.8" cy="526.3" r="8" />
<circle cx="571.6" cy="568.8" r="8" />
<circle cx="638.8" cy="656.0" r="8" />
<circle cx="611.9" cy="746.6" r="8" />
<circle cx="572.6" cy="744.6" r="8" />
<circle cx="551.0" cy="765.0" r="8" />
<circle cx="522.6" cy="783.2" r="8" />
<circle cx="572.5" cy="806.0" r="8" />
<circle cx="693.2" cy="822.7" r="8" />
<circle cx="815.0" cy="882.4" r="8" />
<circle cx="814.9" cy="901.3" r="8" />
<circle cx="825.7" cy="930.7" r="8" />
<circle cx="816.5" cy="965.2" r="8" />
<circle cx="834.5" cy="1012.0" r="8" />
<circle cx="756.6" cy="984.6" r="8" />
<circle cx="665.1" cy="985.6" r="8" />
<circle cx="609.4" cy="979.5" r="8" />
<circle cx="545.8" cy="969.5" r="8" />
<circle cx="489.1" cy="955.7" r="8" />
<circle cx="433.0" cy="947.4" r="8" />
<circle cx="389.1" cy="937.3" r="8" />
<circle cx="331.1" cy="935.5" r="8" />
<circle cx="281.3" cy="919.4" r="8" />
<circle cx="278.1" cy="885.6" r="8" />
<style>
circle {
fill: white;
stroke: #525252;
stroke-width: 4;
}
path {
fill: none;
stroke: #525252;
stroke-width: 8;
}</style>
</svg>