<svg width="846.5" height="1024.0" xmlns="http://www.w3.org/2000/svg">
<path d="M278.0785675942562 885.6245273572738 L278.1 916.2 L281.3 919.4 L297.4 935.5 L331.1 935.5 L387.3 935.5 L389.1 937.3 L399.2 947.4 L433.0 947.4 L480.8 947.4 L489.1 955.7 L502.8 969.5 L545.8 969.5 L599.3 969.5 L609.4 979.5 L615.5 985.6 L665.1 985.6 L755.6 985.6 L756.6 984.6 L807.2 984.6 L834.5 1012.0 L816.5 994.0 L816.5 965.2 L816.5 939.9 L825.7 930.7 L825.7 912.1 L814.9 901.3 L814.9 882.6 L815.0 882.4 L753.0 882.4 L693.2 822.7 L676.5 806.0 L572.5 806.0 L545.4 806.0 L522.6 783.2 L540.7 765.0 L551.0 765.0 L552.1 765.0 L572.6 744.6 L638.8 678.4 L638.8 656.0 L638.8 636.1 L571.6 568.8 L520.2 517.5 L512.2 517.5 L465.1 517.5 L431.0 483.4 L421.2 473.6 L369.3 473.6 L334.1 473.6 L333.7 474.0 L329.8 474.0 L312.0 456.2 L304.8 449.0 L304.8 439.9 L304.8 413.5 L282.3 391.0 L272.6 381.3 L272.6 358.5 L272.6 314.5 L263.1 305.0 L263.1 288.9 L287.9 264.1 L313.4 238.6 L335.1 238.6 L325.1 238.6 L166.6 80.2 L115.6 29.2 L73.9 29.2 L29.2 29.2 L12.0 12.0 " />
<circle cx="278.1" cy="885.6" r="8" />
<circle cx="281.3" cy="919.4" r="8" />
<circle cx="331.1" cy="935.5" r="8" />
<circle cx="389.1" cy="937.3" r="8" />
<circle cx="433.0" cy="947.4" r="8" />
<circle cx="489.1" cy="955.7" r="8" />
<circle cx="545.8" cy="969.5" r="8" />
<circle cx="609.4" cy="979.5" r="8" />
<circle cx="665.1" cy="985.6" r="8" />
<circle cx="756.6" cy="984.6" r="8" />
<circle cx="834.5" cy="1012.0" r="8" />
<circle cx="816.5" cy="965.2" r="8" />
<circle cx="825.7" cy="930.7" r="8" />
<circle cx="814.9" cy="901.3" r="8" />
<circle cx="815.0" cy="882.4" r="8" />
<circle cx="693.2" cy="822.7" r="8" />
<circle cx="572.5" cy="806.0" r="8" />
<circle cx="522.6" cy="783.2" r="8" />
<circle cx="551.0" cy="765.0" r="8" />
<circle cx="572.6" cy="744.6" r="8" />
<circle cx="638.8" cy="656.0" r="8" />
<circle cx="571.6" cy="568.8" r="8" />
<circle cx="512.2" cy="517.5" r="8" />
<circle cx="431.0" cy="483.4" r="8" />
<circle cx="369.3" cy="473.6" r="8" />
<circle cx="333.7" cy="474.0" r="8" />
<circle cx="312.0" cy="456.2" r="8" />
<circle cx="304.8" cy="439.9" r="8" />
<circle cx="282.3" cy="391.0" r="8" />
<circle cx="272.6" cy="358.5" r="8" />
<circle cx="263.1" cy="305.0" r="8" />
<circle cx="287.9" cy="264.1" r="8" />
<circle cx="335.1" cy="238.6" r="8" />
<circle cx="166.6" cy="80.2" r="8" />
<circle cx="73.9" cy="29.2" r="8" />
<circle cx="12.0" cy="12.0" r="8" />
<style>
circle {
fill: white;
stroke: #525252;
stroke-width: 4;
}
path {
fill: none;
stroke: #525252;
stroke-width: 8;
}</style>
</svg>