<svg width="476.4" height="1024.0" xmlns="http://www.w3.org/2000/svg">
<path d="M464.42180618577885 12.0 L460.4 16.0 L460.4 49.9 L460.4 70.3 L432.0 98.8 L419.9 86.7 L343.2 86.7 L280.9 86.7 L277.7 83.5 L276.0 81.8 L206.8 81.8 L207.7 82.7 L207.7 119.5 L207.7 155.6 L205.0 158.3 L202.6 160.8 L202.6 190.0 L202.6 254.8 L200.5 256.8 L206.5 256.8 L235.4 285.7 L285.6 335.9 L285.7 335.9 L257.5 364.1 L207.3 364.1 L207.3 403.1 L181.5 429.0 L169.1 441.4 L169.1 451.8 L169.1 466.3 L140.9 494.5 L187.0 540.6 L187.0 546.5 L187.0 569.2 L158.5 597.6 L131.9 624.2 L124.8 624.2 L124.8 643.6 L94.4 674.0 L146.5 674.0 L159.6 687.1 L175.0 702.4 L175.0 729.5 L175.0 741.0 L137.0 779.0 L120.9 795.1 L120.9 814.0 L120.9 816.4 L175.8 871.2 L120.0 871.2 L85.7 905.6 L70.3 921.0 L55.3 921.0 L55.3 968.9 L48.5 975.7 L12.2 1012.0 L12.0 1012.0 " />
<circle cx="464.4" cy="12.0" r="8" />
<circle cx="460.4" cy="49.9" r="8" />
<circle cx="432.0" cy="98.8" r="8" />
<circle cx="343.2" cy="86.7" r="8" />
<circle cx="277.7" cy="83.5" r="8" />
<circle cx="206.8" cy="81.8" r="8" />
<circle cx="207.7" cy="119.5" r="8" />
<circle cx="205.0" cy="158.3" r="8" />
<circle cx="202.6" cy="190.0" r="8" />
<circle cx="200.5" cy="256.8" r="8" />
<circle cx="235.4" cy="285.7" r="8" />
<circle cx="285.7" cy="335.9" r="8" />
<circle cx="207.3" cy="364.1" r="8" />
<circle cx="181.5" cy="429.0" r="8" />
<circle cx="169.1" cy="451.8" r="8" />
<circle cx="140.9" cy="494.5" r="8" />
<circle cx="187.0" cy="546.5" r="8" />
<circle cx="158.5" cy="597.6" r="8" />
<circle cx="124.8" cy="624.2" r="8" />
<circle cx="94.4" cy="674.0" r="8" />
<circle cx="159.6" cy="687.1" r="8" />
<circle cx="175.0" cy="729.5" r="8" />
<circle cx="137.0" cy="779.0" r="8" />
<circle cx="120.9" cy="814.0" r="8" />
<circle cx="175.8" cy="871.2" r="8" />
<circle cx="85.7" cy="905.6" r="8" />
<circle cx="55.3" cy="921.0" r="8" />
<circle cx="48.5" cy="975.7" r="8" />
<circle cx="12.0" cy="1012.0" r="8" />
<style>
circle {
fill: white;
stroke: #525252;
stroke-width: 4;
}
path {
fill: none;
stroke: #525252;
stroke-width: 8;
}</style>
</svg>