<svg width="1024.0" height="241.2" xmlns="http://www.w3.org/2000/svg">
<path d="M1012.0 229.2 L981.6 198.8 L940.1 198.8 L921.2 198.8 L909.3 186.9 L903.6 181.2 L888.4 181.2 L864.4 181.2 L855.6 172.5 L846.4 163.2 L811.0 163.2 L784.2 163.2 L783.0 162.1 L781.9 160.9 L736.7 160.9 L679.3 160.9 L678.7 160.4 L669.1 150.7 L617.0 150.7 L580.5 150.7 L572.3 142.5 L555.8 159.0 L555.8 163.1 L555.8 175.7 L567.3 187.1 L577.4 197.2 L577.4 209.0 L577.4 228.9 L577.6 229.1 L543.5 229.1 L535.7 221.3 L530.2 215.9 L518.0 215.9 L487.5 215.9 L484.0 212.3 L481.1 209.4 L424.8 209.4 L390.4 209.4 L387.5 206.5 L387.4 206.4 L358.1 206.4 L327.2 206.4 L323.3 202.5 L316.7 195.9 L264.8 195.9 L252.2 195.9 L242.7 186.5 L218.1 161.9 L200.1 161.9 L192.1 161.9 L183.9 153.7 L168.6 153.7 L166.6 155.6 L211.3 155.6 L260.2 106.7 L283.7 83.2 L285.7 83.2 L258.5 56.0 L183.4 56.0 L146.4 56.0 L133.4 43.0 L120.4 30.1 L84.9 30.1 L57.4 30.1 L47.4 20.0 L39.4 12.0 L12.0 12.0 " />
<circle cx="1012.0" cy="229.2" r="8" />
<circle cx="940.1" cy="198.8" r="8" />
<circle cx="909.3" cy="186.9" r="8" />
<circle cx="888.4" cy="181.2" r="8" />
<circle cx="855.6" cy="172.5" r="8" />
<circle cx="811.0" cy="163.2" r="8" />
<circle cx="783.0" cy="162.1" r="8" />
<circle cx="736.7" cy="160.9" r="8" />
<circle cx="678.7" cy="160.4" r="8" />
<circle cx="617.0" cy="150.7" r="8" />
<circle cx="572.3" cy="142.5" r="8" />
<circle cx="555.8" cy="163.1" r="8" />
<circle cx="567.3" cy="187.1" r="8" />
<circle cx="577.4" cy="209.0" r="8" />
<circle cx="577.6" cy="229.1" r="8" />
<circle cx="535.7" cy="221.3" r="8" />
<circle cx="518.0" cy="215.9" r="8" />
<circle cx="484.0" cy="212.3" r="8" />
<circle cx="424.8" cy="209.4" r="8" />
<circle cx="387.5" cy="206.5" r="8" />
<circle cx="358.1" cy="206.4" r="8" />
<circle cx="323.3" cy="202.5" r="8" />
<circle cx="264.8" cy="195.9" r="8" />
<circle cx="242.7" cy="186.5" r="8" />
<circle cx="200.1" cy="161.9" r="8" />
<circle cx="183.9" cy="153.7" r="8" />
<circle cx="166.6" cy="155.6" r="8" />
<circle cx="260.2" cy="106.7" r="8" />
<circle cx="285.7" cy="83.2" r="8" />
<circle cx="183.4" cy="56.0" r="8" />
<circle cx="133.4" cy="43.0" r="8" />
<circle cx="84.9" cy="30.1" r="8" />
<circle cx="47.4" cy="20.0" r="8" />
<circle cx="12.0" cy="12.0" r="8" />
<style>
circle {
fill: white;
stroke: #525252;
stroke-width: 4;
}
path {
fill: none;
stroke: #525252;
stroke-width: 8;
}</style>
</svg>