<svg width="1024.0" height="529.5" xmlns="http://www.w3.org/2000/svg">
<path d="M12.0 12.409539837377896 L67.6 68.0 L67.6 100.3 L137.8 170.5 L216.9 170.5 L232.2 170.5 L325.4 263.7 L411.1 177.9 L411.1 144.9 L457.8 98.3 L524.8 98.3 L586.6 98.3 L620.4 132.0 L647.8 159.4 L677.2 159.4 L728.6 108.0 L728.6 78.2 L728.6 58.4 L775.0 12.0 L916.6 12.0 L971.4 66.8 L1012.0 107.4 L1012.0 162.3 L1012.0 289.7 L967.1 334.6 L793.8 334.6 L783.2 324.0 L783.2 475.1 L740.8 517.5 " />
<circle cx="12.0" cy="12.4" r="8" />
<circle cx="67.6" cy="100.3" r="8" />
<circle cx="216.9" cy="170.5" r="8" />
<circle cx="325.4" cy="263.7" r="8" />
<circle cx="411.1" cy="144.9" r="8" />
<circle cx="524.8" cy="98.3" r="8" />
<circle cx="620.4" cy="132.0" r="8" />
<circle cx="677.2" cy="159.4" r="8" />
<circle cx="728.6" cy="78.2" r="8" />
<circle cx="775.0" cy="12.0" r="8" />
<circle cx="971.4" cy="66.8" r="8" />
<circle cx="1012.0" cy="162.3" r="8" />
<circle cx="967.1" cy="334.6" r="8" />
<circle cx="783.2" cy="324.0" r="8" />
<circle cx="740.8" cy="517.5" r="8" />
<style>
circle {
fill: white;
stroke: #525252;
stroke-width: 4;
}
path {
fill: none;
stroke: #525252;
stroke-width: 8;
}</style>
</svg>