<svg width="1024.0" height="207.8" xmlns="http://www.w3.org/2000/svg">
<path d="M1012.0 195.7876161520095 L901.1 195.8 L820.5 115.2 L789.2 84.0 L739.5 84.0 L699.5 84.0 L684.5 69.0 L661.6 46.0 L598.4 46.0 L505.4 46.0 L481.1 21.7 L478.1 18.7 L407.5 18.7 L288.7 18.7 L285.7 15.7 L282.1 12.0 L125.6 12.0 L49.9 12.0 L12.0 49.9 " />
<circle cx="1012.0" cy="195.8" r="8" />
<circle cx="820.5" cy="115.2" r="8" />
<circle cx="739.5" cy="84.0" r="8" />
<circle cx="684.5" cy="69.0" r="8" />
<circle cx="598.4" cy="46.0" r="8" />
<circle cx="481.1" cy="21.7" r="8" />
<circle cx="407.5" cy="18.7" r="8" />
<circle cx="285.7" cy="15.7" r="8" />
<circle cx="125.6" cy="12.0" r="8" />
<circle cx="12.0" cy="49.9" r="8" />
<style>
circle {
fill: white;
stroke: #525252;
stroke-width: 4;
}
path {
fill: none;
stroke: #525252;
stroke-width: 8;
}</style>
</svg>