<svg width="1024.0" height="205.7" xmlns="http://www.w3.org/2000/svg">
<path d="M1012.0 193.68204199771256 L931.4 113.1 L820.4 113.1 L770.7 113.1 L739.4 81.8 L724.4 66.9 L684.5 66.9 L621.3 66.9 L598.3 43.9 L574.0 19.5 L481.0 19.5 L410.4 19.5 L407.4 16.5 L404.4 13.5 L285.6 13.5 L134.5 13.5 L133.0 12.0 L48.5 12.0 L12.0 48.5 " />
<circle cx="1012.0" cy="193.7" r="8" />
<circle cx="820.4" cy="113.1" r="8" />
<circle cx="739.4" cy="81.8" r="8" />
<circle cx="684.5" cy="66.9" r="8" />
<circle cx="598.3" cy="43.9" r="8" />
<circle cx="481.0" cy="19.5" r="8" />
<circle cx="407.4" cy="16.5" r="8" />
<circle cx="285.6" cy="13.5" r="8" />
<circle cx="133.0" cy="12.0" r="8" />
<circle cx="12.0" cy="48.5" r="8" />
<style>
circle {
fill: white;
stroke: #525252;
stroke-width: 4;
}
path {
fill: none;
stroke: #525252;
stroke-width: 8;
}</style>
</svg>