<svg width="1024.0" height="333.4" xmlns="http://www.w3.org/2000/svg">
<path d="M1011.9999999999999 12.0 L1001.0 23.0 L1001.0 50.0 L1001.0 89.6 L982.7 107.9 L965.3 125.3 L965.3 148.7 L965.3 152.4 L939.0 178.6 L929.4 188.2 L929.4 205.8 L929.4 217.0 L914.7 231.7 L894.2 252.2 L894.2 275.2 L894.2 304.5 L877.3 321.4 L856.1 300.1 L745.3 300.1 L652.0 300.1 L643.2 291.4 L632.2 280.3 L613.3 280.3 L526.4 280.3 L505.6 259.6 L477.0 230.9 L428.5 230.9 L464.6 194.8 L470.3 194.8 L470.3 191.3 L500.1 161.5 L532.4 129.2 L569.3 129.2 L569.3 119.0 L582.9 105.4 L582.7 105.2 L582.7 81.4 L493.2 81.4 L483.9 90.7 L464.4 110.2 L411.9 110.2 L389.3 110.2 L382.2 117.3 L362.6 136.9 L316.0 136.9 L273.5 136.9 L262.2 148.3 L238.8 171.6 L180.3 171.6 L148.4 171.6 L135.6 184.5 L107.5 212.6 L95.5 212.6 L78.4 212.6 L58.6 232.3 L42.3 248.7 L12.0 248.7 " />
<circle cx="1012.0" cy="12.0" r="8" />
<circle cx="1001.0" cy="50.0" r="8" />
<circle cx="982.7" cy="107.9" r="8" />
<circle cx="965.3" cy="148.7" r="8" />
<circle cx="939.0" cy="178.6" r="8" />
<circle cx="929.4" cy="205.8" r="8" />
<circle cx="914.7" cy="231.7" r="8" />
<circle cx="894.2" cy="275.2" r="8" />
<circle cx="877.3" cy="321.4" r="8" />
<circle cx="745.3" cy="300.1" r="8" />
<circle cx="643.2" cy="291.4" r="8" />
<circle cx="613.3" cy="280.3" r="8" />
<circle cx="505.6" cy="259.6" r="8" />
<circle cx="428.5" cy="230.9" r="8" />
<circle cx="470.3" cy="194.8" r="8" />
<circle cx="500.1" cy="161.5" r="8" />
<circle cx="569.3" cy="129.2" r="8" />
<circle cx="582.9" cy="105.4" r="8" />
<circle cx="582.7" cy="81.4" r="8" />
<circle cx="483.9" cy="90.7" r="8" />
<circle cx="411.9" cy="110.2" r="8" />
<circle cx="382.2" cy="117.3" r="8" />
<circle cx="316.0" cy="136.9" r="8" />
<circle cx="262.2" cy="148.3" r="8" />
<circle cx="180.3" cy="171.6" r="8" />
<circle cx="135.6" cy="184.5" r="8" />
<circle cx="95.5" cy="212.6" r="8" />
<circle cx="58.6" cy="232.3" r="8" />
<circle cx="12.0" cy="248.7" r="8" />
<style>
circle {
fill: white;
stroke: #000000;
stroke-width: 4;
}
path {
fill: none;
stroke: #000000;
stroke-width: 8;
}</style>
</svg>