<svg width="1024.0" height="365.7" xmlns="http://www.w3.org/2000/svg">
<path d="M12.0 12.0 L21.2 21.2 L45.1 21.2 L67.4 21.2 L94.6 48.4 L179.2 133.1 L184.6 133.1 L205.2 133.1 L215.5 122.7 L226.6 133.8 L240.6 133.8 L261.2 133.8 L280.3 152.9 L292.6 165.2 L305.7 165.2 L316.5 165.2 L326.6 175.2 L346.7 195.3 L366.2 195.3 L401.7 195.3 L423.0 216.6 L443.3 237.0 L519.7 237.0 L536.3 237.0 L541.3 242.0 L544.4 245.1 L565.6 245.1 L593.0 245.1 L602.8 254.9 L616.9 240.7 L650.9 240.7 L674.0 240.7 L690.3 224.4 L703.5 211.2 L723.7 211.2 L735.4 211.2 L741.9 204.7 L741.9 231.2 L749.4 238.7 L742.5 245.5 L742.5 255.5 L742.5 291.7 L738.6 295.6 L739.3 296.3 L739.3 306.6 L781.5 306.6 L800.6 325.6 L825.8 350.8 L901.9 350.8 L910.0 350.8 L912.8 353.7 L946.9 319.5 L961.6 319.5 L961.6 307.0 L975.5 293.1 L987.7 280.9 L988.4 280.9 L988.4 283.5 L992.6 287.6 L999.0 294.1 L1012.0 294.1 " />
<circle cx="12.0" cy="12.0" r="8" />
<circle cx="45.1" cy="21.2" r="8" />
<circle cx="94.6" cy="48.4" r="8" />
<circle cx="184.6" cy="133.1" r="8" />
<circle cx="215.5" cy="122.7" r="8" />
<circle cx="240.6" cy="133.8" r="8" />
<circle cx="280.3" cy="152.9" r="8" />
<circle cx="305.7" cy="165.2" r="8" />
<circle cx="326.6" cy="175.2" r="8" />
<circle cx="366.2" cy="195.3" r="8" />
<circle cx="423.0" cy="216.6" r="8" />
<circle cx="519.7" cy="237.0" r="8" />
<circle cx="541.3" cy="242.0" r="8" />
<circle cx="565.6" cy="245.1" r="8" />
<circle cx="602.8" cy="254.9" r="8" />
<circle cx="650.9" cy="240.7" r="8" />
<circle cx="690.3" cy="224.4" r="8" />
<circle cx="723.7" cy="211.2" r="8" />
<circle cx="741.9" cy="204.7" r="8" />
<circle cx="749.4" cy="238.7" r="8" />
<circle cx="742.5" cy="255.5" r="8" />
<circle cx="738.6" cy="295.6" r="8" />
<circle cx="739.3" cy="306.6" r="8" />
<circle cx="800.6" cy="325.6" r="8" />
<circle cx="901.9" cy="350.8" r="8" />
<circle cx="912.8" cy="353.7" r="8" />
<circle cx="961.6" cy="319.5" r="8" />
<circle cx="975.5" cy="293.1" r="8" />
<circle cx="988.4" cy="280.9" r="8" />
<circle cx="992.6" cy="287.6" r="8" />
<circle cx="1012.0" cy="294.1" r="8" />
<style>
circle {
fill: white;
stroke: #525252;
stroke-width: 4;
}
path {
fill: none;
stroke: #525252;
stroke-width: 8;
}</style>
</svg>