<svg width="1024.0" height="946.9" xmlns="http://www.w3.org/2000/svg">
<path d="M444.9 934.9 L425.4 915.5 L425.4 904.4 L425.4 884.5 L407.6 866.7 L213.5 672.5 L154.1 672.5 L111.1 672.5 L12.0 573.5 L12.0 580.3 L22.8 591.1 L184.5 429.5 L380.5 429.5 L487.8 429.5 L504.6 412.6 L560.2 468.2 L752.3 468.2 L837.8 468.2 L893.5 412.5 L824.5 343.6 L802.9 343.6 L841.6 304.9 L1012.0 304.9 L992.0 284.8 L992.0 250.5 L992.0 231.3 L930.1 169.4 L906.2 145.5 L906.2 78.7 L898.6 78.7 L863.8 43.9 L831.9 12.0 L829.0 12.0 " />
<circle cx="444.9" cy="934.9" r="8" />
<circle cx="425.4" cy="904.4" r="8" />
<circle cx="407.6" cy="866.7" r="8" />
<circle cx="154.1" cy="672.5" r="8" />
<circle cx="12.0" cy="573.5" r="8" />
<circle cx="22.8" cy="591.1" r="8" />
<circle cx="380.5" cy="429.5" r="8" />
<circle cx="504.6" cy="412.6" r="8" />
<circle cx="752.3" cy="468.2" r="8" />
<circle cx="893.5" cy="412.5" r="8" />
<circle cx="802.9" cy="343.6" r="8" />
<circle cx="1012.0" cy="304.9" r="8" />
<circle cx="992.0" cy="250.5" r="8" />
<circle cx="930.1" cy="169.4" r="8" />
<circle cx="906.2" cy="78.7" r="8" />
<circle cx="863.8" cy="43.9" r="8" />
<circle cx="829.0" cy="12.0" r="8" />
<style>
circle {
fill: white;
stroke: black;
stroke-width: 4;
}
path {
fill: none;
stroke: #FFFFFF;
stroke-width: 8;
}</style>
</svg>