<svg width="1024.0" height="365.7" xmlns="http://www.w3.org/2000/svg">
<path d="M12.0 12.0 L35.9 12.0 L45.1 21.2 L72.3 48.4 L94.6 48.4 L100.0 48.4 L184.6 133.1 L205.2 133.1 L215.5 122.7 L229.5 122.7 L240.6 133.8 L259.8 152.9 L280.3 152.9 L293.4 152.9 L305.7 165.2 L315.7 175.2 L326.6 175.2 L346.2 175.2 L366.2 195.3 L387.5 216.6 L423.0 216.6 L499.3 216.6 L519.7 237.0 L524.8 242.0 L541.3 242.0 L562.5 242.0 L565.6 245.1 L575.3 254.9 L602.8 254.9 L636.7 254.9 L650.9 240.7 L667.2 224.4 L690.3 224.4 L710.6 224.4 L723.7 211.2 L730.3 204.7 L741.9 204.7 L749.4 212.1 L749.4 238.7 L749.4 248.7 L742.5 255.5 L738.6 259.5 L738.6 295.6 L738.6 305.9 L739.3 306.6 L758.3 325.6 L800.6 325.6 L876.7 325.6 L901.9 350.8 L904.7 353.7 L912.8 353.7 L927.5 353.7 L961.6 319.5 L975.5 305.7 L975.5 293.1 L987.7 280.9 L988.4 280.9 L992.6 285.1 L992.6 287.6 L999.0 294.1 L1012.0 294.1 " />
<circle cx="12.0" cy="12.0" r="8" />
<circle cx="45.1" cy="21.2" r="8" />
<circle cx="94.6" cy="48.4" r="8" />
<circle cx="184.6" cy="133.1" r="8" />
<circle cx="215.5" cy="122.7" r="8" />
<circle cx="240.6" cy="133.8" r="8" />
<circle cx="280.3" cy="152.9" r="8" />
<circle cx="305.7" cy="165.2" r="8" />
<circle cx="326.6" cy="175.2" r="8" />
<circle cx="366.2" cy="195.3" r="8" />
<circle cx="423.0" cy="216.6" r="8" />
<circle cx="519.7" cy="237.0" r="8" />
<circle cx="541.3" cy="242.0" r="8" />
<circle cx="565.6" cy="245.1" r="8" />
<circle cx="602.8" cy="254.9" r="8" />
<circle cx="650.9" cy="240.7" r="8" />
<circle cx="690.3" cy="224.4" r="8" />
<circle cx="723.7" cy="211.2" r="8" />
<circle cx="741.9" cy="204.7" r="8" />
<circle cx="749.4" cy="238.7" r="8" />
<circle cx="742.5" cy="255.5" r="8" />
<circle cx="738.6" cy="295.6" r="8" />
<circle cx="739.3" cy="306.6" r="8" />
<circle cx="800.6" cy="325.6" r="8" />
<circle cx="901.9" cy="350.8" r="8" />
<circle cx="912.8" cy="353.7" r="8" />
<circle cx="961.6" cy="319.5" r="8" />
<circle cx="975.5" cy="293.1" r="8" />
<circle cx="988.4" cy="280.9" r="8" />
<circle cx="992.6" cy="287.6" r="8" />
<circle cx="1012.0" cy="294.1" r="8" />
<style>
circle {
fill: white;
stroke: #525252;
stroke-width: 4;
}
path {
fill: none;
stroke: #525252;
stroke-width: 8;
}</style>
</svg>