<svg width="1024.0" height="523.9" xmlns="http://www.w3.org/2000/svg">
<path d="M332.06877896276944 226.51689337928633 L305.5 226.5 L297.7 234.3 L215.7 316.3 L190.5 316.3 L168.5 316.3 L155.9 303.7 L154.3 302.1 L83.5 302.1 L56.9 302.1 L51.7 296.9 L51.6 296.9 L12.0 296.9 L112.2 296.9 L120.9 305.6 L137.2 321.8 L261.8 321.8 L292.8 321.8 L301.2 330.2 L326.3 355.3 L402.1 355.3 L393.7 355.3 L358.0 391.0 L335.7 413.3 L335.7 418.8 L335.7 420.2 L286.5 469.5 L286.5 481.6 L290.2 485.4 L316.7 511.9 L347.7 511.9 L369.7 511.9 L456.2 425.5 L474.2 407.4 L474.2 396.9 L474.2 384.4 L533.2 325.4 L560.5 298.1 L560.5 292.2 L579.9 272.8 L612.9 272.8 L651.5 272.8 L666.7 287.9 L689.5 287.9 L694.5 282.9 L707.1 270.4 L727.6 270.4 L743.8 270.4 L754.2 260.1 L767.2 247.0 L788.1 247.0 L809.3 247.0 L817.9 238.4 L822.4 233.9 L848.4 233.9 L863.0 233.9 L890.2 206.6 L906.1 190.8 L915.9 190.8 L900.8 190.8 L879.6 169.6 L861.0 150.9 L846.7 150.9 L849.7 150.9 L871.1 129.6 L871.1 112.2 L867.5 108.6 L897.7 78.4 L907.7 78.4 L919.8 66.2 L919.8 64.9 L940.7 44.0 L957.7 44.0 L980.0 44.0 L1012.0 12.0 " />
<circle cx="332.1" cy="226.5" r="8" />
<circle cx="297.7" cy="234.3" r="8" />
<circle cx="190.5" cy="316.3" r="8" />
<circle cx="155.9" cy="303.7" r="8" />
<circle cx="83.5" cy="302.1" r="8" />
<circle cx="51.7" cy="296.9" r="8" />
<circle cx="12.0" cy="296.9" r="8" />
<circle cx="120.9" cy="305.6" r="8" />
<circle cx="261.8" cy="321.8" r="8" />
<circle cx="301.2" cy="330.2" r="8" />
<circle cx="402.1" cy="355.3" r="8" />
<circle cx="358.0" cy="391.0" r="8" />
<circle cx="335.7" cy="418.8" r="8" />
<circle cx="286.5" cy="469.5" r="8" />
<circle cx="290.2" cy="485.4" r="8" />
<circle cx="347.7" cy="511.9" r="8" />
<circle cx="456.2" cy="425.5" r="8" />
<circle cx="474.2" cy="396.9" r="8" />
<circle cx="533.2" cy="325.4" r="8" />
<circle cx="560.5" cy="292.2" r="8" />
<circle cx="612.9" cy="272.8" r="8" />
<circle cx="666.7" cy="287.9" r="8" />
<circle cx="694.5" cy="282.9" r="8" />
<circle cx="727.6" cy="270.4" r="8" />
<circle cx="754.2" cy="260.1" r="8" />
<circle cx="788.1" cy="247.0" r="8" />
<circle cx="817.9" cy="238.4" r="8" />
<circle cx="848.4" cy="233.9" r="8" />
<circle cx="890.2" cy="206.6" r="8" />
<circle cx="915.9" cy="190.8" r="8" />
<circle cx="879.6" cy="169.6" r="8" />
<circle cx="846.7" cy="150.9" r="8" />
<circle cx="871.1" cy="129.6" r="8" />
<circle cx="867.5" cy="108.6" r="8" />
<circle cx="907.7" cy="78.4" r="8" />
<circle cx="919.8" cy="64.9" r="8" />
<circle cx="957.7" cy="44.0" r="8" />
<circle cx="1012.0" cy="12.0" r="8" />
<style>
circle {
fill: white;
stroke: #000000;
stroke-width: 4;
}
path {
fill: none;
stroke: #000000;
stroke-width: 8;
}</style>
</svg>