<svg width="1024.0" height="275.4" xmlns="http://www.w3.org/2000/svg">
<path d="M27.1 263.4 L12.0 248.3 L12.0 229.3 L12.0 165.0 L22.4 154.6 L42.5 134.5 L42.5 129.3 L42.5 116.0 L93.3 65.2 L144.6 13.9 L158.9 13.9 L210.5 13.9 L233.5 36.9 L282.9 86.2 L390.7 86.2 L420.9 86.2 L438.0 103.3 L456.4 84.9 L527.4 84.9 L557.2 84.9 L588.4 53.7 L630.1 12.0 L670.8 12.0 L676.6 12.0 L721.3 56.8 L768.3 103.8 L780.0 103.8 L813.0 103.8 L839.4 130.2 L853.5 144.3 L912.9 144.3 L992.9 144.3 L1012.0 163.4 " />
<circle cx="27.1" cy="263.4" r="8" />
<circle cx="12.0" cy="229.3" r="8" />
<circle cx="22.4" cy="154.6" r="8" />
<circle cx="42.5" cy="129.3" r="8" />
<circle cx="93.3" cy="65.2" r="8" />
<circle cx="158.9" cy="13.9" r="8" />
<circle cx="233.5" cy="36.9" r="8" />
<circle cx="390.7" cy="86.2" r="8" />
<circle cx="438.0" cy="103.3" r="8" />
<circle cx="527.4" cy="84.9" r="8" />
<circle cx="588.4" cy="53.7" r="8" />
<circle cx="670.8" cy="12.0" r="8" />
<circle cx="721.3" cy="56.8" r="8" />
<circle cx="780.0" cy="103.8" r="8" />
<circle cx="839.4" cy="130.2" r="8" />
<circle cx="912.9" cy="144.3" r="8" />
<circle cx="1012.0" cy="163.4" r="8" />
<style>
circle {
fill: white;
stroke: #525252;
stroke-width: 4;
}
path {
fill: none;
stroke: #525252;
stroke-width: 8;
}</style>
</svg>