<svg width="1024.0" height="265.2" xmlns="http://www.w3.org/2000/svg">
<path d="M1012.0 157.3 L1003.0 166.3 L985.0 166.3 L944.3 166.3 L916.9 138.9 L903.4 125.4 L846.3 125.4 L814.7 125.4 L789.4 100.1 L744.3 55.0 L733.1 55.0 L727.6 55.0 L684.6 12.0 L645.5 12.0 L605.5 52.0 L575.6 82.0 L547.0 82.0 L478.8 82.0 L461.2 99.6 L444.8 83.2 L415.8 83.2 L312.3 83.2 L265.0 35.9 L242.9 13.9 L193.4 13.9 L179.6 13.9 L130.4 63.1 L81.7 111.8 L81.7 124.5 L81.7 129.6 L62.4 148.8 L52.4 158.8 L52.4 220.6 L28.4 220.6 L12.0 236.9 L50.5 236.9 L66.9 253.2 " />
<circle cx="1012.0" cy="157.3" r="8" />
<circle cx="985.0" cy="166.3" r="8" />
<circle cx="916.9" cy="138.9" r="8" />
<circle cx="846.3" cy="125.4" r="8" />
<circle cx="789.4" cy="100.1" r="8" />
<circle cx="733.1" cy="55.0" r="8" />
<circle cx="684.6" cy="12.0" r="8" />
<circle cx="605.5" cy="52.0" r="8" />
<circle cx="547.0" cy="82.0" r="8" />
<circle cx="461.2" cy="99.6" r="8" />
<circle cx="415.8" cy="83.2" r="8" />
<circle cx="265.0" cy="35.9" r="8" />
<circle cx="193.4" cy="13.9" r="8" />
<circle cx="130.4" cy="63.1" r="8" />
<circle cx="81.7" cy="124.5" r="8" />
<circle cx="62.4" cy="148.8" r="8" />
<circle cx="52.4" cy="220.6" r="8" />
<circle cx="12.0" cy="236.9" r="8" />
<circle cx="66.9" cy="253.2" r="8" />
<style>
circle {
fill: white;
stroke: #525252;
stroke-width: 4;
}
path {
fill: none;
stroke: #525252;
stroke-width: 8;
}</style>
</svg>