<svg width="273.9" height="1024.0" xmlns="http://www.w3.org/2000/svg">
<path d="M78.67111010422722 1008.446102872958 L82.2 1012.0 L144.4 1012.0 L128.8 996.4 L128.8 907.7 L128.8 885.3 L131.0 883.1 L98.3 850.3 L98.3 850.2 L98.3 787.6 L116.2 769.8 L132.0 754.0 L132.0 727.2 L132.0 688.1 L148.2 671.9 L152.6 667.5 L152.6 593.6 L115.4 593.6 L104.3 582.5 L81.8 560.0 L12.0 560.0 L44.7 527.3 L111.7 527.3 L202.3 527.3 L208.9 533.9 L208.9 506.2 L218.4 496.6 L146.2 496.6 L143.2 499.6 L143.2 435.7 L149.6 429.3 L173.8 405.1 L261.9 405.1 L234.7 377.9 L234.7 352.3 L234.7 326.3 L213.7 305.3 L116.5 208.1 L116.5 178.4 L116.5 107.7 L139.8 84.4 L211.4 12.9 L211.4 12.0 " />
<circle cx="78.7" cy="1008.4" r="8" />
<circle cx="144.4" cy="1012.0" r="8" />
<circle cx="128.8" cy="907.7" r="8" />
<circle cx="131.0" cy="883.1" r="8" />
<circle cx="98.3" cy="850.2" r="8" />
<circle cx="116.2" cy="769.8" r="8" />
<circle cx="132.0" cy="727.2" r="8" />
<circle cx="148.2" cy="671.9" r="8" />
<circle cx="152.6" cy="593.6" r="8" />
<circle cx="104.3" cy="582.5" r="8" />
<circle cx="12.0" cy="560.0" r="8" />
<circle cx="111.7" cy="527.3" r="8" />
<circle cx="208.9" cy="533.9" r="8" />
<circle cx="218.4" cy="496.6" r="8" />
<circle cx="143.2" cy="499.6" r="8" />
<circle cx="149.6" cy="429.3" r="8" />
<circle cx="261.9" cy="405.1" r="8" />
<circle cx="234.7" cy="352.3" r="8" />
<circle cx="213.7" cy="305.3" r="8" />
<circle cx="116.5" cy="178.4" r="8" />
<circle cx="139.8" cy="84.4" r="8" />
<circle cx="211.4" cy="12.0" r="8" />
<style>
circle {
fill: white;
stroke: black;
stroke-width: 4;
}
path {
fill: none;
stroke: #FFFFFF;
stroke-width: 8;
}</style>
</svg>