<svg width="274.8" height="1024.0" xmlns="http://www.w3.org/2000/svg">
<path d="M212.06824778868042 12.0 L140.3 83.8 L140.3 84.7 L140.3 155.6 L116.9 179.0 L116.9 208.8 L214.5 306.3 L235.5 327.4 L235.5 353.5 L235.5 379.2 L262.8 406.5 L238.5 430.8 L150.1 430.8 L143.7 437.2 L143.7 501.4 L216.1 501.4 L219.1 498.4 L209.6 507.9 L209.6 535.7 L203.0 529.1 L112.1 529.1 L44.8 529.1 L12.0 561.9 L34.6 584.6 L104.7 584.6 L139.0 584.6 L165.9 611.5 L165.9 657.0 L148.7 674.3 L132.4 690.5 L132.4 729.8 L132.4 756.6 L116.6 772.5 L98.6 790.4 L98.6 853.2 L98.6 880.4 L129.2 910.9 L129.2 961.7 L78.9 1012.0 " />
<circle cx="212.1" cy="12.0" r="8" />
<circle cx="140.3" cy="84.7" r="8" />
<circle cx="116.9" cy="179.0" r="8" />
<circle cx="214.5" cy="306.3" r="8" />
<circle cx="235.5" cy="353.5" r="8" />
<circle cx="262.8" cy="406.5" r="8" />
<circle cx="150.1" cy="430.8" r="8" />
<circle cx="143.7" cy="501.4" r="8" />
<circle cx="219.1" cy="498.4" r="8" />
<circle cx="209.6" cy="535.7" r="8" />
<circle cx="112.1" cy="529.1" r="8" />
<circle cx="12.0" cy="561.9" r="8" />
<circle cx="104.7" cy="584.6" r="8" />
<circle cx="165.9" cy="611.5" r="8" />
<circle cx="148.7" cy="674.3" r="8" />
<circle cx="132.4" cy="729.8" r="8" />
<circle cx="116.6" cy="772.5" r="8" />
<circle cx="98.6" cy="853.2" r="8" />
<circle cx="129.2" cy="910.9" r="8" />
<circle cx="78.9" cy="1012.0" r="8" />
<style>
circle {
fill: white;
stroke: black;
stroke-width: 4;
}
path {
fill: none;
stroke: #FFFFFF;
stroke-width: 8;
}</style>
</svg>