<svg width="1024.0" height="152.5" xmlns="http://www.w3.org/2000/svg">
<path d="M12.0 12.0 L72.8 12.0 L82.1 21.3 L85.5 24.7 L140.5 24.7 L228.4 24.7 L232.1 28.4 L237.0 33.4 L283.8 33.4 L364.6 33.4 L365.7 34.4 L370.5 39.3 L434.5 39.3 L535.3 39.3 L538.2 36.5 L589.4 36.5 L592.3 39.4 L608.2 55.3 L671.7 55.3 L741.8 55.3 L753.0 66.5 L764.5 78.0 L835.7 78.0 L983.5 78.0 L987.8 82.3 L1012.0 106.5 L1012.0 140.5 " />
<circle cx="12.0" cy="12.0" r="8" />
<circle cx="82.1" cy="21.3" r="8" />
<circle cx="140.5" cy="24.7" r="8" />
<circle cx="232.1" cy="28.4" r="8" />
<circle cx="283.8" cy="33.4" r="8" />
<circle cx="365.7" cy="34.4" r="8" />
<circle cx="434.5" cy="39.3" r="8" />
<circle cx="538.2" cy="36.5" r="8" />
<circle cx="592.3" cy="39.4" r="8" />
<circle cx="671.7" cy="55.3" r="8" />
<circle cx="753.0" cy="66.5" r="8" />
<circle cx="835.7" cy="78.0" r="8" />
<circle cx="987.8" cy="82.3" r="8" />
<circle cx="1012.0" cy="140.5" r="8" />
<style>
circle {
fill: white;
stroke: #525252;
stroke-width: 4;
}
path {
fill: none;
stroke: #525252;
stroke-width: 8;
}</style>
</svg>