<svg width="1024.0" height="345.9" xmlns="http://www.w3.org/2000/svg">
<path d="M920.6 333.9 L920.6 303.6 L938.3 285.9 L954.2 270.0 L1012.0 270.0 L994.1 252.2 L994.1 235.4 L994.1 218.3 L980.4 204.5 L916.5 140.7 L916.5 121.2 L916.5 74.8 L931.8 59.5 L978.8 12.6 L978.8 12.0 L945.1 12.0 L944.4 12.7 L906.1 51.0 L778.5 51.0 L699.7 51.0 L692.8 57.9 L674.2 76.5 L627.5 76.5 L542.2 76.5 L501.0 117.7 L484.0 134.7 L429.1 134.7 L341.1 134.7 L304.9 170.9 L281.6 194.1 L161.7 194.1 L128.0 194.1 L116.3 205.9 L31.4 290.8 L12.0 290.8 " />
<circle cx="920.6" cy="333.9" r="8" />
<circle cx="938.3" cy="285.9" r="8" />
<circle cx="1012.0" cy="270.0" r="8" />
<circle cx="994.1" cy="235.4" r="8" />
<circle cx="980.4" cy="204.5" r="8" />
<circle cx="916.5" cy="121.2" r="8" />
<circle cx="931.8" cy="59.5" r="8" />
<circle cx="978.8" cy="12.0" r="8" />
<circle cx="944.4" cy="12.7" r="8" />
<circle cx="778.5" cy="51.0" r="8" />
<circle cx="692.8" cy="57.9" r="8" />
<circle cx="627.5" cy="76.5" r="8" />
<circle cx="501.0" cy="117.7" r="8" />
<circle cx="429.1" cy="134.7" r="8" />
<circle cx="304.9" cy="170.9" r="8" />
<circle cx="161.7" cy="194.1" r="8" />
<circle cx="116.3" cy="205.9" r="8" />
<circle cx="12.0" cy="290.8" r="8" />
<style>
circle {
fill: white;
stroke: black;
stroke-width: 4;
}
path {
fill: none;
stroke: #FFFFFF;
stroke-width: 8;
}</style>
</svg>