<svg width="390.0" height="1024.0" xmlns="http://www.w3.org/2000/svg">
<path d="M272.8 1012.0 L272.8 999.8 L307.8 964.8 L298.9 956.0 L298.9 884.5 L298.9 859.0 L378.0 779.9 L335.8 737.6 L211.9 737.6 L199.7 737.6 L121.7 659.7 L74.4 612.4 L74.4 582.9 L74.4 475.7 L62.9 464.2 L48.4 449.7 L48.4 351.1 L48.4 258.6 L35.4 245.6 L12.0 222.2 L12.0 12.0 L36.1 36.1 L143.1 36.1 L143.1 53.4 L257.2 167.5 " />
<circle cx="272.8" cy="1012.0" r="8" />
<circle cx="307.8" cy="964.8" r="8" />
<circle cx="298.9" cy="884.5" r="8" />
<circle cx="378.0" cy="779.9" r="8" />
<circle cx="211.9" cy="737.6" r="8" />
<circle cx="121.7" cy="659.7" r="8" />
<circle cx="74.4" cy="582.9" r="8" />
<circle cx="62.9" cy="464.2" r="8" />
<circle cx="48.4" cy="351.1" r="8" />
<circle cx="35.4" cy="245.6" r="8" />
<circle cx="12.0" cy="12.0" r="8" />
<circle cx="143.1" cy="36.1" r="8" />
<circle cx="257.2" cy="167.5" r="8" />
<style>
circle {
fill: white;
stroke: #525252;
stroke-width: 4;
}
path {
fill: none;
stroke: #525252;
stroke-width: 8;
}</style>
</svg>