<svg width="1024.0" height="330.4" xmlns="http://www.w3.org/2000/svg">
<path d="M12.0 318.4 L12.0 313.8 L46.7 279.0 L61.0 264.8 L61.0 249.0 L61.0 240.0 L65.1 235.9 L61.9 232.7 L61.9 210.0 L61.9 192.4 L60.3 190.7 L48.6 179.1 L18.4 179.1 L16.3 177.0 L16.3 175.1 L16.3 158.3 L44.9 129.6 L61.0 113.5 L66.7 113.5 L89.7 113.5 L104.8 98.3 L111.4 91.7 L140.2 91.7 L177.7 91.7 L187.0 82.5 L196.8 72.7 L219.7 72.7 L253.5 72.7 L265.8 60.4 L275.9 50.3 L289.2 50.3 L322.3 50.3 L359.8 12.8 L360.6 12.0 L397.6 12.0 L431.0 12.0 L478.1 59.0 L506.9 87.9 L520.1 87.9 L520.1 94.8 L532.0 106.7 L544.7 119.4 L545.0 119.4 L560.3 119.4 L580.0 139.2 L596.0 155.2 L619.8 155.2 L619.8 171.7 L625.8 177.8 L628.7 180.6 L628.7 205.5 L660.5 205.5 L667.6 212.7 L676.0 221.1 L721.4 221.1 L771.5 221.1 L772.0 221.6 L773.0 222.6 L812.4 222.6 L835.8 222.6 L836.8 223.6 L844.8 231.6 L875.7 231.6 L896.6 231.6 L904.2 239.2 L909.2 244.2 L922.5 244.2 L938.9 244.2 L949.3 254.6 L965.4 270.7 L974.6 270.7 L980.2 270.7 L987.7 278.2 L990.6 281.1 L1012.0 281.1 " />
<circle cx="12.0" cy="318.4" r="8" />
<circle cx="46.7" cy="279.0" r="8" />
<circle cx="61.0" cy="249.0" r="8" />
<circle cx="65.1" cy="235.9" r="8" />
<circle cx="61.9" cy="210.0" r="8" />
<circle cx="60.3" cy="190.7" r="8" />
<circle cx="18.4" cy="179.1" r="8" />
<circle cx="16.3" cy="175.1" r="8" />
<circle cx="44.9" cy="129.6" r="8" />
<circle cx="66.7" cy="113.5" r="8" />
<circle cx="104.8" cy="98.3" r="8" />
<circle cx="140.2" cy="91.7" r="8" />
<circle cx="187.0" cy="82.5" r="8" />
<circle cx="219.7" cy="72.7" r="8" />
<circle cx="265.8" cy="60.4" r="8" />
<circle cx="289.2" cy="50.3" r="8" />
<circle cx="359.8" cy="12.8" r="8" />
<circle cx="397.6" cy="12.0" r="8" />
<circle cx="478.1" cy="59.0" r="8" />
<circle cx="520.1" cy="87.9" r="8" />
<circle cx="532.0" cy="106.7" r="8" />
<circle cx="545.0" cy="119.4" r="8" />
<circle cx="580.0" cy="139.2" r="8" />
<circle cx="619.8" cy="155.2" r="8" />
<circle cx="625.8" cy="177.8" r="8" />
<circle cx="628.7" cy="205.5" r="8" />
<circle cx="667.6" cy="212.7" r="8" />
<circle cx="721.4" cy="221.1" r="8" />
<circle cx="772.0" cy="221.6" r="8" />
<circle cx="812.4" cy="222.6" r="8" />
<circle cx="836.8" cy="223.6" r="8" />
<circle cx="875.7" cy="231.6" r="8" />
<circle cx="904.2" cy="239.2" r="8" />
<circle cx="922.5" cy="244.2" r="8" />
<circle cx="949.3" cy="254.6" r="8" />
<circle cx="974.6" cy="270.7" r="8" />
<circle cx="987.7" cy="278.2" r="8" />
<circle cx="1012.0" cy="281.1" r="8" />
<style>
circle {
fill: white;
stroke: #525252;
stroke-width: 4;
}
path {
fill: none;
stroke: #525252;
stroke-width: 8;
}</style>
</svg>