<svg width="1024.0" height="329.5" xmlns="http://www.w3.org/2000/svg">
<path d="M1012.0 281.0 L985.3 254.3 L948.6 254.3 L932.1 254.3 L921.8 243.9 L916.8 239.0 L903.6 239.0 L882.6 239.0 L875.0 231.4 L867.0 223.3 L836.2 223.3 L812.8 223.3 L811.8 222.3 L810.8 221.3 L771.5 221.3 L719.7 221.3 L718.5 220.1 L710.8 212.4 L667.3 212.4 L635.5 212.4 L628.4 205.3 L625.5 202.5 L625.5 177.6 L625.5 161.0 L619.5 155.0 L603.5 139.0 L579.8 139.0 L564.5 139.0 L544.8 119.3 L532.1 106.6 L531.8 106.6 L519.9 94.7 L519.9 87.8 L506.8 87.8 L477.9 59.0 L431.0 12.0 L397.6 12.0 L360.6 12.0 L359.8 12.8 L322.4 50.2 L289.3 50.2 L276.0 50.2 L265.9 60.3 L253.6 72.6 L219.9 72.6 L197.0 72.6 L187.2 82.4 L178.0 91.6 L140.5 91.6 L111.8 91.6 L105.2 98.2 L90.0 113.4 L67.1 113.4 L61.4 113.4 L45.3 129.5 L16.7 158.1 L16.7 174.9 L16.7 176.8 L18.8 178.9 L30.4 190.5 L60.6 190.5 L60.6 208.1 L62.3 209.8 L65.5 212.9 L65.5 235.6 L65.5 244.3 L63.2 246.5 L47.1 262.6 L47.1 278.7 L47.1 282.4 L12.0 317.5 " />
<circle cx="1012.0" cy="281.0" r="8" />
<circle cx="948.6" cy="254.3" r="8" />
<circle cx="921.8" cy="243.9" r="8" />
<circle cx="903.6" cy="239.0" r="8" />
<circle cx="875.0" cy="231.4" r="8" />
<circle cx="836.2" cy="223.3" r="8" />
<circle cx="811.8" cy="222.3" r="8" />
<circle cx="771.5" cy="221.3" r="8" />
<circle cx="718.5" cy="220.1" r="8" />
<circle cx="667.3" cy="212.4" r="8" />
<circle cx="628.4" cy="205.3" r="8" />
<circle cx="625.5" cy="177.6" r="8" />
<circle cx="619.5" cy="155.0" r="8" />
<circle cx="579.8" cy="139.0" r="8" />
<circle cx="544.8" cy="119.3" r="8" />
<circle cx="531.8" cy="106.6" r="8" />
<circle cx="519.9" cy="87.8" r="8" />
<circle cx="477.9" cy="59.0" r="8" />
<circle cx="397.6" cy="12.0" r="8" />
<circle cx="359.8" cy="12.8" r="8" />
<circle cx="289.3" cy="50.2" r="8" />
<circle cx="265.9" cy="60.3" r="8" />
<circle cx="219.9" cy="72.6" r="8" />
<circle cx="187.2" cy="82.4" r="8" />
<circle cx="140.5" cy="91.6" r="8" />
<circle cx="105.2" cy="98.2" r="8" />
<circle cx="67.1" cy="113.4" r="8" />
<circle cx="45.3" cy="129.5" r="8" />
<circle cx="16.7" cy="174.9" r="8" />
<circle cx="18.8" cy="178.9" r="8" />
<circle cx="60.6" cy="190.5" r="8" />
<circle cx="62.3" cy="209.8" r="8" />
<circle cx="65.5" cy="235.6" r="8" />
<circle cx="63.2" cy="246.5" r="8" />
<circle cx="47.1" cy="278.7" r="8" />
<circle cx="12.0" cy="317.5" r="8" />
<style>
circle {
fill: white;
stroke: #525252;
stroke-width: 4;
}
path {
fill: none;
stroke: #525252;
stroke-width: 8;
}</style>
</svg>