<svg width="1024.0" height="329.7" xmlns="http://www.w3.org/2000/svg">
<path d="M12.0 317.7 L12.0 314.1 L47.1 278.9 L63.3 262.8 L63.3 246.7 L63.3 238.0 L65.5 235.8 L62.3 232.6 L62.3 209.9 L62.3 192.3 L60.7 190.6 L49.1 179.0 L18.8 179.0 L16.7 176.9 L16.7 175.0 L16.7 158.2 L45.3 129.6 L61.5 113.5 L67.1 113.5 L90.1 113.5 L105.2 98.3 L111.8 91.7 L140.6 91.7 L178.1 91.7 L187.3 82.5 L197.2 72.7 L220.1 72.7 L253.8 72.7 L266.1 60.4 L276.2 50.3 L289.5 50.3 L322.6 50.3 L360.1 12.8 L360.9 12.0 L397.9 12.0 L431.3 12.0 L478.3 59.0 L507.2 87.9 L520.3 87.9 L520.3 94.7 L532.2 106.7 L544.9 119.4 L545.2 119.4 L560.5 119.4 L580.2 139.1 L596.2 155.1 L620.0 155.1 L620.0 171.6 L626.0 177.7 L628.8 180.5 L628.8 205.4 L660.6 205.4 L667.8 212.6 L675.4 220.3 L719.0 220.3 L770.9 220.3 L772.1 221.5 L773.1 222.5 L812.5 222.5 L835.9 222.5 L836.9 223.5 L844.9 231.5 L875.7 231.5 L896.7 231.5 L904.3 239.1 L909.2 244.1 L922.5 244.1 L939.0 244.1 L949.3 254.5 L965.4 270.5 L974.6 270.5 L980.2 270.5 L987.7 278.1 L990.6 281.0 L1012.0 281.0 " />
<circle cx="12.0" cy="317.7" r="8" />
<circle cx="47.1" cy="278.9" r="8" />
<circle cx="63.3" cy="246.7" r="8" />
<circle cx="65.5" cy="235.8" r="8" />
<circle cx="62.3" cy="209.9" r="8" />
<circle cx="60.7" cy="190.6" r="8" />
<circle cx="18.8" cy="179.0" r="8" />
<circle cx="16.7" cy="175.0" r="8" />
<circle cx="45.3" cy="129.6" r="8" />
<circle cx="67.1" cy="113.5" r="8" />
<circle cx="105.2" cy="98.3" r="8" />
<circle cx="140.6" cy="91.7" r="8" />
<circle cx="187.3" cy="82.5" r="8" />
<circle cx="220.1" cy="72.7" r="8" />
<circle cx="266.1" cy="60.4" r="8" />
<circle cx="289.5" cy="50.3" r="8" />
<circle cx="360.1" cy="12.8" r="8" />
<circle cx="397.9" cy="12.0" r="8" />
<circle cx="478.3" cy="59.0" r="8" />
<circle cx="520.3" cy="87.9" r="8" />
<circle cx="532.2" cy="106.7" r="8" />
<circle cx="545.2" cy="119.4" r="8" />
<circle cx="580.2" cy="139.1" r="8" />
<circle cx="620.0" cy="155.1" r="8" />
<circle cx="626.0" cy="177.7" r="8" />
<circle cx="628.8" cy="205.4" r="8" />
<circle cx="667.8" cy="212.6" r="8" />
<circle cx="719.0" cy="220.3" r="8" />
<circle cx="772.1" cy="221.5" r="8" />
<circle cx="812.5" cy="222.5" r="8" />
<circle cx="836.9" cy="223.5" r="8" />
<circle cx="875.7" cy="231.5" r="8" />
<circle cx="904.3" cy="239.1" r="8" />
<circle cx="922.5" cy="244.1" r="8" />
<circle cx="949.3" cy="254.5" r="8" />
<circle cx="974.6" cy="270.5" r="8" />
<circle cx="987.7" cy="278.1" r="8" />
<circle cx="1012.0" cy="281.0" r="8" />
<style>
circle {
fill: white;
stroke: #525252;
stroke-width: 4;
}
path {
fill: none;
stroke: #525252;
stroke-width: 8;
}</style>
</svg>