<svg width="1024.0" height="527.6" xmlns="http://www.w3.org/2000/svg">
<path d="M12.0 46.62248009625798 L26.2 32.4 L33.6 32.4 L45.8 32.4 L66.2 12.0 L71.3 17.1 L90.9 17.1 L116.2 17.1 L133.7 34.6 L151.0 51.9 L175.0 51.9 L240.5 51.9 L243.7 48.7 L279.8 84.8 L390.4 84.8 L407.5 84.8 L447.1 124.5 L521.7 199.0 L566.3 199.0 L587.3 199.0 L611.4 223.1 L658.6 270.3 L679.1 270.3 L710.6 270.3 L750.1 309.8 L767.9 292.0 L772.6 292.0 L788.0 292.0 L795.6 299.6 L797.1 301.1 L797.1 305.8 L822.1 305.8 L901.2 384.9 L912.2 395.9 L956.0 395.9 L994.8 395.9 L1012.0 413.2 L983.7 441.4 L983.7 475.4 L983.7 487.0 L955.2 515.6 L945.7 506.0 L884.6 506.0 " />
<circle cx="12.0" cy="46.6" r="8" />
<circle cx="33.6" cy="32.4" r="8" />
<circle cx="66.2" cy="12.0" r="8" />
<circle cx="90.9" cy="17.1" r="8" />
<circle cx="133.7" cy="34.6" r="8" />
<circle cx="175.0" cy="51.9" r="8" />
<circle cx="243.7" cy="48.7" r="8" />
<circle cx="390.4" cy="84.8" r="8" />
<circle cx="447.1" cy="124.5" r="8" />
<circle cx="566.3" cy="199.0" r="8" />
<circle cx="611.4" cy="223.1" r="8" />
<circle cx="679.1" cy="270.3" r="8" />
<circle cx="750.1" cy="309.8" r="8" />
<circle cx="772.6" cy="292.0" r="8" />
<circle cx="795.6" cy="299.6" r="8" />
<circle cx="797.1" cy="305.8" r="8" />
<circle cx="901.2" cy="384.9" r="8" />
<circle cx="956.0" cy="395.9" r="8" />
<circle cx="1012.0" cy="413.2" r="8" />
<circle cx="983.7" cy="475.4" r="8" />
<circle cx="955.2" cy="515.6" r="8" />
<circle cx="884.6" cy="506.0" r="8" />
<style>
circle {
fill: white;
stroke: #525252;
stroke-width: 4;
}
path {
fill: none;
stroke: #525252;
stroke-width: 8;
}</style>
</svg>