<svg width="1024.0" height="527.6" xmlns="http://www.w3.org/2000/svg">
<path d="M884.5755553465212 506.01942725667703 L894.1 515.6 L955.2 515.6 L955.2 503.9 L983.7 475.4 L1012.0 447.1 L1012.0 413.2 L973.3 413.2 L956.0 395.9 L945.0 384.9 L901.2 384.9 L866.2 384.9 L789.2 307.9 L784.5 303.2 L762.7 303.2 L756.7 303.2 L750.1 309.8 L710.6 270.3 L679.1 270.3 L658.6 270.3 L611.4 223.1 L587.3 199.0 L566.3 199.0 L521.7 199.0 L447.1 124.5 L407.5 84.8 L390.4 84.8 L279.8 84.8 L243.7 48.7 L234.0 58.4 L234.0 65.1 L188.2 65.1 L175.0 51.9 L157.7 34.6 L133.7 34.6 L88.8 34.6 L66.2 12.0 L54.0 12.0 L33.6 32.4 L19.4 46.6 L12.0 46.6 " />
<circle cx="884.6" cy="506.0" r="8" />
<circle cx="955.2" cy="515.6" r="8" />
<circle cx="983.7" cy="475.4" r="8" />
<circle cx="1012.0" cy="413.2" r="8" />
<circle cx="956.0" cy="395.9" r="8" />
<circle cx="901.2" cy="384.9" r="8" />
<circle cx="789.2" cy="307.9" r="8" />
<circle cx="762.7" cy="303.2" r="8" />
<circle cx="750.1" cy="309.8" r="8" />
<circle cx="679.1" cy="270.3" r="8" />
<circle cx="611.4" cy="223.1" r="8" />
<circle cx="566.3" cy="199.0" r="8" />
<circle cx="447.1" cy="124.5" r="8" />
<circle cx="390.4" cy="84.8" r="8" />
<circle cx="243.7" cy="48.7" r="8" />
<circle cx="234.0" cy="65.1" r="8" />
<circle cx="175.0" cy="51.9" r="8" />
<circle cx="133.7" cy="34.6" r="8" />
<circle cx="66.2" cy="12.0" r="8" />
<circle cx="33.6" cy="32.4" r="8" />
<circle cx="12.0" cy="46.6" r="8" />
<style>
circle {
fill: white;
stroke: #525252;
stroke-width: 4;
}
path {
fill: none;
stroke: #525252;
stroke-width: 8;
}</style>
</svg>