<svg width="1024.0" height="766.2" xmlns="http://www.w3.org/2000/svg">
<path d="M12.0 262.60999006235113 L27.9 278.5 L130.0 278.5 L94.4 314.1 L94.4 358.5 L94.4 445.3 L103.8 454.7 L92.4 466.1 L92.4 523.7 L92.4 562.1 L63.4 591.1 L141.5 591.1 L171.8 621.4 L213.8 663.4 L285.0 663.4 L412.5 663.4 L443.0 694.0 L459.2 710.1 L486.9 710.1 L623.8 710.1 L636.7 723.0 L667.9 754.2 L830.5 754.2 L830.5 711.2 L855.3 686.4 L885.4 656.3 L885.4 622.5 L885.4 606.0 L907.0 584.5 L921.1 570.4 L921.1 544.6 L921.1 539.3 L959.6 500.8 L985.2 475.2 L985.2 440.8 L985.2 382.6 L1012.0 355.8 L1010.1 353.9 L891.3 353.9 L773.2 353.9 L761.6 342.3 L674.8 342.3 L666.2 350.8 L656.2 360.9 L573.6 360.9 L506.1 360.9 L503.6 363.5 L485.0 344.8 L434.3 344.8 L434.3 332.4 L461.4 305.4 L485.6 281.2 L494.7 281.2 L494.7 271.7 L564.2 202.2 L607.5 159.0 L607.8 159.0 L651.3 159.0 L674.4 135.8 L683.3 127.0 L733.2 127.0 L733.2 79.0 L738.7 73.5 L766.0 46.2 L766.0 25.1 L682.7 25.1 L669.6 12.0 " />
<circle cx="12.0" cy="262.6" r="8" />
<circle cx="130.0" cy="278.5" r="8" />
<circle cx="94.4" cy="358.5" r="8" />
<circle cx="103.8" cy="454.7" r="8" />
<circle cx="92.4" cy="523.7" r="8" />
<circle cx="63.4" cy="591.1" r="8" />
<circle cx="171.8" cy="621.4" r="8" />
<circle cx="285.0" cy="663.4" r="8" />
<circle cx="443.0" cy="694.0" r="8" />
<circle cx="486.9" cy="710.1" r="8" />
<circle cx="636.7" cy="723.0" r="8" />
<circle cx="830.5" cy="754.2" r="8" />
<circle cx="855.3" cy="686.4" r="8" />
<circle cx="885.4" cy="622.5" r="8" />
<circle cx="907.0" cy="584.5" r="8" />
<circle cx="921.1" cy="544.6" r="8" />
<circle cx="959.6" cy="500.8" r="8" />
<circle cx="985.2" cy="440.8" r="8" />
<circle cx="1012.0" cy="355.8" r="8" />
<circle cx="891.3" cy="353.9" r="8" />
<circle cx="761.6" cy="342.3" r="8" />
<circle cx="666.2" cy="350.8" r="8" />
<circle cx="573.6" cy="360.9" r="8" />
<circle cx="503.6" cy="363.5" r="8" />
<circle cx="434.3" cy="344.8" r="8" />
<circle cx="461.4" cy="305.4" r="8" />
<circle cx="494.7" cy="281.2" r="8" />
<circle cx="564.2" cy="202.2" r="8" />
<circle cx="607.8" cy="159.0" r="8" />
<circle cx="674.4" cy="135.8" r="8" />
<circle cx="733.2" cy="127.0" r="8" />
<circle cx="738.7" cy="73.5" r="8" />
<circle cx="766.0" cy="25.1" r="8" />
<circle cx="669.6" cy="12.0" r="8" />
<style>
circle {
fill: white;
stroke: #003594;
stroke-width: 4;
}
path {
fill: none;
stroke: #003594;
stroke-width: 8;
}</style>
</svg>