<svg width="1024.0" height="766.2" xmlns="http://www.w3.org/2000/svg">
<path d="M669.5874116596219 12.0 L753.0 12.0 L766.0 25.1 L766.0 46.2 L738.7 73.5 L733.2 79.0 L733.2 127.0 L724.3 135.8 L674.4 135.8 L630.9 135.8 L607.8 159.0 L564.6 202.2 L564.2 202.2 L494.7 271.7 L494.7 281.2 L470.5 305.4 L461.4 305.4 L434.3 332.4 L434.3 344.8 L453.0 363.5 L503.6 363.5 L571.1 363.5 L573.6 360.9 L583.7 350.8 L666.2 350.8 L753.0 350.8 L761.6 342.3 L879.6 342.3 L891.3 353.9 L893.1 355.8 L1012.0 355.8 L1012.0 414.0 L985.2 440.8 L959.6 466.4 L959.6 500.8 L959.6 506.1 L921.1 544.6 L907.0 558.8 L907.0 584.5 L907.0 601.0 L885.4 622.5 L855.3 652.6 L855.3 686.4 L855.3 729.4 L830.5 754.2 L667.9 754.2 L636.7 723.0 L623.8 710.1 L486.9 710.1 L459.2 710.1 L443.0 694.0 L412.5 663.4 L285.0 663.4 L213.8 663.4 L171.8 621.4 L141.5 591.1 L63.4 591.1 L92.4 562.1 L92.4 523.7 L92.4 466.1 L103.8 454.7 L103.8 367.9 L94.4 358.5 L94.4 314.1 L130.0 278.5 L27.9 278.5 L12.0 262.6 " />
<circle cx="669.6" cy="12.0" r="8" />
<circle cx="766.0" cy="25.1" r="8" />
<circle cx="738.7" cy="73.5" r="8" />
<circle cx="733.2" cy="127.0" r="8" />
<circle cx="674.4" cy="135.8" r="8" />
<circle cx="607.8" cy="159.0" r="8" />
<circle cx="564.2" cy="202.2" r="8" />
<circle cx="494.7" cy="281.2" r="8" />
<circle cx="461.4" cy="305.4" r="8" />
<circle cx="434.3" cy="344.8" r="8" />
<circle cx="503.6" cy="363.5" r="8" />
<circle cx="573.6" cy="360.9" r="8" />
<circle cx="666.2" cy="350.8" r="8" />
<circle cx="761.6" cy="342.3" r="8" />
<circle cx="891.3" cy="353.9" r="8" />
<circle cx="1012.0" cy="355.8" r="8" />
<circle cx="985.2" cy="440.8" r="8" />
<circle cx="959.6" cy="500.8" r="8" />
<circle cx="921.1" cy="544.6" r="8" />
<circle cx="907.0" cy="584.5" r="8" />
<circle cx="885.4" cy="622.5" r="8" />
<circle cx="855.3" cy="686.4" r="8" />
<circle cx="830.5" cy="754.2" r="8" />
<circle cx="636.7" cy="723.0" r="8" />
<circle cx="486.9" cy="710.1" r="8" />
<circle cx="443.0" cy="694.0" r="8" />
<circle cx="285.0" cy="663.4" r="8" />
<circle cx="171.8" cy="621.4" r="8" />
<circle cx="63.4" cy="591.1" r="8" />
<circle cx="92.4" cy="523.7" r="8" />
<circle cx="103.8" cy="454.7" r="8" />
<circle cx="94.4" cy="358.5" r="8" />
<circle cx="130.0" cy="278.5" r="8" />
<circle cx="12.0" cy="262.6" r="8" />
<style>
circle {
fill: white;
stroke: #003594;
stroke-width: 4;
}
path {
fill: none;
stroke: #003594;
stroke-width: 8;
}</style>
</svg>