<svg width="1024.0" height="331.0" xmlns="http://www.w3.org/2000/svg">
<path d="M1012.0 292.7 L1004.0 300.7 L969.3 300.7 L941.5 300.7 L923.2 319.0 L902.5 298.3 L884.8 298.3 L853.3 298.3 L849.6 302.1 L847.0 304.6 L816.4 304.6 L810.5 304.6 L798.5 316.6 L796.4 314.4 L585.2 314.4 L501.5 314.4 L417.6 230.5 L391.8 204.7 L333.1 204.7 L269.3 204.7 L246.2 181.6 L245.7 181.2 L231.1 181.2 L201.8 151.9 L201.8 136.6 L180.5 136.6 L126.4 82.5 L55.9 12.0 L12.0 12.0 " />
<circle cx="1012.0" cy="292.7" r="8" />
<circle cx="969.3" cy="300.7" r="8" />
<circle cx="923.2" cy="319.0" r="8" />
<circle cx="884.8" cy="298.3" r="8" />
<circle cx="849.6" cy="302.1" r="8" />
<circle cx="816.4" cy="304.6" r="8" />
<circle cx="798.5" cy="316.6" r="8" />
<circle cx="585.2" cy="314.4" r="8" />
<circle cx="417.6" cy="230.5" r="8" />
<circle cx="333.1" cy="204.7" r="8" />
<circle cx="246.2" cy="181.6" r="8" />
<circle cx="231.1" cy="181.2" r="8" />
<circle cx="201.8" cy="136.6" r="8" />
<circle cx="126.4" cy="82.5" r="8" />
<circle cx="12.0" cy="12.0" r="8" />
<style>
circle {
fill: white;
stroke: #525252;
stroke-width: 4;
}
path {
fill: none;
stroke: #525252;
stroke-width: 8;
}</style>
</svg>