<svg width="1024.0" height="934.4" xmlns="http://www.w3.org/2000/svg">
<path d="M91.3 12.0 L90.9 12.4 L90.9 57.2 L90.9 125.2 L126.6 160.9 L125.6 161.8 L125.6 253.0 L125.6 323.3 L128.2 325.9 L124.5 329.6 L124.5 421.5 L124.5 533.8 L57.4 600.9 L46.7 611.6 L46.7 634.4 L46.7 669.7 L12.0 704.4 L12.0 691.3 L28.8 674.5 L88.6 614.7 L107.7 614.7 L118.9 614.7 L139.7 635.5 L151.9 647.7 L174.6 647.7 L217.4 647.7 L221.3 643.9 L235.2 657.8 L260.2 657.8 L297.3 657.8 L311.9 672.4 L330.5 691.0 L364.8 691.0 L420.6 691.0 L441.7 712.1 L457.3 727.7 L484.4 727.7 L565.3 727.7 L591.4 753.8 L616.5 778.9 L633.2 778.9 L670.6 778.9 L695.6 803.9 L724.5 832.8 L767.7 832.8 L788.3 832.8 L809.2 853.7 L841.2 885.8 L861.6 885.8 L874.9 885.8 L904.8 915.7 L909.5 910.9 L984.4 910.9 L1000.5 910.9 L1012.0 922.4 " />
<circle cx="91.3" cy="12.0" r="8" />
<circle cx="90.9" cy="57.2" r="8" />
<circle cx="126.6" cy="160.9" r="8" />
<circle cx="125.6" cy="253.0" r="8" />
<circle cx="128.2" cy="325.9" r="8" />
<circle cx="124.5" cy="421.5" r="8" />
<circle cx="57.4" cy="600.9" r="8" />
<circle cx="46.7" cy="634.4" r="8" />
<circle cx="12.0" cy="704.4" r="8" />
<circle cx="28.8" cy="674.5" r="8" />
<circle cx="107.7" cy="614.7" r="8" />
<circle cx="139.7" cy="635.5" r="8" />
<circle cx="174.6" cy="647.7" r="8" />
<circle cx="221.3" cy="643.9" r="8" />
<circle cx="260.2" cy="657.8" r="8" />
<circle cx="311.9" cy="672.4" r="8" />
<circle cx="364.8" cy="691.0" r="8" />
<circle cx="441.7" cy="712.1" r="8" />
<circle cx="484.4" cy="727.7" r="8" />
<circle cx="591.4" cy="753.8" r="8" />
<circle cx="633.2" cy="778.9" r="8" />
<circle cx="695.6" cy="803.9" r="8" />
<circle cx="767.7" cy="832.8" r="8" />
<circle cx="809.2" cy="853.7" r="8" />
<circle cx="861.6" cy="885.8" r="8" />
<circle cx="904.8" cy="915.7" r="8" />
<circle cx="984.4" cy="910.9" r="8" />
<circle cx="1012.0" cy="922.4" r="8" />
<style>
circle {
fill: white;
stroke: #440099;
stroke-width: 4;
}
path {
fill: none;
stroke: #440099;
stroke-width: 8;
}</style>
</svg>