<svg width="806.1" height="1024.0" xmlns="http://www.w3.org/2000/svg">
<path d="M794.101124531376 12.0 L650.0 156.1 L549.4 156.1 L472.7 156.1 L378.7 250.2 L335.9 293.0 L310.5 293.0 L297.2 293.0 L142.9 447.3 L91.2 499.0 L12.0 499.0 L12.0 528.0 L31.9 547.8 L49.4 565.3 L49.4 638.2 L133.3 722.1 L197.4 722.1 L265.5 722.1 L361.2 817.7 L289.9 889.0 L245.4 889.0 L179.8 889.0 L56.8 1012.0 " />
<circle cx="794.1" cy="12.0" r="8" />
<circle cx="549.4" cy="156.1" r="8" />
<circle cx="378.7" cy="250.2" r="8" />
<circle cx="310.5" cy="293.0" r="8" />
<circle cx="142.9" cy="447.3" r="8" />
<circle cx="12.0" cy="499.0" r="8" />
<circle cx="31.9" cy="547.8" r="8" />
<circle cx="49.4" cy="638.2" r="8" />
<circle cx="197.4" cy="722.1" r="8" />
<circle cx="361.2" cy="817.7" r="8" />
<circle cx="245.4" cy="889.0" r="8" />
<circle cx="56.8" cy="1012.0" r="8" />
<style>
circle {
fill: white;
stroke: #525252;
stroke-width: 4;
}
path {
fill: none;
stroke: #525252;
stroke-width: 8;
}</style>
</svg>