<svg width="1024.0" height="523.9" xmlns="http://www.w3.org/2000/svg">
<path d="M1012.0 12.0 L980.0 44.0 L957.7 44.0 L940.7 44.0 L919.8 64.9 L853.8 130.9 L842.9 130.9 L787.2 130.9 L687.5 230.5 L645.3 272.8 L612.9 272.8 L579.9 272.8 L560.5 292.2 L533.2 319.4 L533.2 325.4 L533.2 337.9 L474.2 396.9 L359.2 511.9 L347.7 511.9 L316.7 511.9 L290.2 485.4 L286.5 481.6 L286.5 469.5 L286.5 468.1 L335.7 418.8 L358.0 396.6 L358.0 391.0 L366.4 391.0 L402.1 355.3 L377.0 330.2 L301.2 330.2 L270.1 330.2 L261.8 321.8 L256.2 316.3 L190.5 316.3 L168.5 316.3 L155.9 303.7 L154.3 302.1 L83.5 302.1 L56.9 302.1 L51.7 296.9 L51.6 296.9 L12.0 296.9 " />
<circle cx="1012.0" cy="12.0" r="8" />
<circle cx="957.7" cy="44.0" r="8" />
<circle cx="919.8" cy="64.9" r="8" />
<circle cx="842.9" cy="130.9" r="8" />
<circle cx="687.5" cy="230.5" r="8" />
<circle cx="612.9" cy="272.8" r="8" />
<circle cx="560.5" cy="292.2" r="8" />
<circle cx="533.2" cy="325.4" r="8" />
<circle cx="474.2" cy="396.9" r="8" />
<circle cx="347.7" cy="511.9" r="8" />
<circle cx="290.2" cy="485.4" r="8" />
<circle cx="286.5" cy="469.5" r="8" />
<circle cx="335.7" cy="418.8" r="8" />
<circle cx="358.0" cy="391.0" r="8" />
<circle cx="402.1" cy="355.3" r="8" />
<circle cx="301.2" cy="330.2" r="8" />
<circle cx="261.8" cy="321.8" r="8" />
<circle cx="190.5" cy="316.3" r="8" />
<circle cx="155.9" cy="303.7" r="8" />
<circle cx="83.5" cy="302.1" r="8" />
<circle cx="51.7" cy="296.9" r="8" />
<circle cx="12.0" cy="296.9" r="8" />
<style>
circle {
fill: white;
stroke: #525252;
stroke-width: 4;
}
path {
fill: none;
stroke: #525252;
stroke-width: 8;
}</style>
</svg>