<svg width="1024.0" height="204.6" xmlns="http://www.w3.org/2000/svg">
<path d="M142.0 152.0 L139.5 149.5 L108.9 149.5 L105.1 149.5 L85.7 130.0 L62.5 106.8 L13.6 106.8 L12.0 105.2 L12.0 30.8 L16.7 30.8 L26.1 21.4 L31.1 16.4 L80.1 16.4 L94.1 16.4 L110.4 32.8 L124.9 18.3 L146.8 18.3 L174.2 18.3 L180.5 12.0 L187.2 18.6 L210.0 18.6 L262.3 18.6 L281.4 37.8 L292.3 48.6 L323.1 48.6 L385.5 48.6 L408.1 71.2 L436.2 99.4 L497.0 99.4 L521.9 99.4 L525.0 102.4 L541.8 119.2 L593.8 119.2 L645.1 119.2 L646.4 120.5 L653.2 127.4 L683.6 127.4 L725.2 127.4 L732.5 134.7 L733.6 135.8 L783.1 135.8 L820.7 135.8 L821.6 136.8 L822.6 137.7 L844.9 137.7 L874.3 137.7 L882.0 145.4 L889.2 152.7 L909.2 152.7 L921.9 152.7 L926.6 157.4 L936.5 167.3 L952.2 167.3 L961.0 167.3 L976.3 182.6 L983.5 189.8 L988.9 189.8 L1009.2 189.8 L1012.0 192.6 " />
<circle cx="142.0" cy="152.0" r="8" />
<circle cx="108.9" cy="149.5" r="8" />
<circle cx="85.7" cy="130.0" r="8" />
<circle cx="13.6" cy="106.8" r="8" />
<circle cx="12.0" cy="30.8" r="8" />
<circle cx="26.1" cy="21.4" r="8" />
<circle cx="80.1" cy="16.4" r="8" />
<circle cx="110.4" cy="32.8" r="8" />
<circle cx="146.8" cy="18.3" r="8" />
<circle cx="180.5" cy="12.0" r="8" />
<circle cx="210.0" cy="18.6" r="8" />
<circle cx="281.4" cy="37.8" r="8" />
<circle cx="323.1" cy="48.6" r="8" />
<circle cx="408.1" cy="71.2" r="8" />
<circle cx="497.0" cy="99.4" r="8" />
<circle cx="525.0" cy="102.4" r="8" />
<circle cx="593.8" cy="119.2" r="8" />
<circle cx="646.4" cy="120.5" r="8" />
<circle cx="683.6" cy="127.4" r="8" />
<circle cx="732.5" cy="134.7" r="8" />
<circle cx="783.1" cy="135.8" r="8" />
<circle cx="821.6" cy="136.8" r="8" />
<circle cx="844.9" cy="137.7" r="8" />
<circle cx="882.0" cy="145.4" r="8" />
<circle cx="909.2" cy="152.7" r="8" />
<circle cx="926.6" cy="157.4" r="8" />
<circle cx="952.2" cy="167.3" r="8" />
<circle cx="976.3" cy="182.6" r="8" />
<circle cx="988.9" cy="189.8" r="8" />
<circle cx="1012.0" cy="192.6" r="8" />
<style>
circle {
fill: white;
stroke: #525252;
stroke-width: 4;
}
path {
fill: none;
stroke: #525252;
stroke-width: 8;
}</style>
</svg>