<svg width="585.1" height="1024.0" xmlns="http://www.w3.org/2000/svg">
<path d="M460.5271494900176 12.0 L557.8 12.0 L573.1 27.3 L573.1 51.9 L541.2 83.8 L534.7 90.2 L534.7 146.2 L524.4 156.5 L466.2 156.5 L415.4 156.5 L388.4 183.5 L338.0 234.0 L337.6 234.0 L256.4 315.1 L256.4 326.2 L228.2 354.4 L217.6 354.4 L186.0 386.0 L186.0 400.5 L207.7 422.2 L266.8 422.2 L276.2 422.2 L304.1 450.1 L321.6 467.6 L354.2 467.6 L415.7 467.6 L421.2 462.1 L439.3 462.1 L467.2 490.0 L509.3 532.1 L509.3 538.6 L509.3 560.8 L528.6 580.2 L519.1 570.6 L406.4 570.6 L359.3 617.7 L359.3 621.9 L300.4 680.8 L293.7 680.8 L258.0 716.5 L258.0 737.7 L258.0 742.9 L227.9 773.0 L196.1 804.8 L196.1 807.9 L196.1 811.2 L153.2 854.0 L87.9 919.3 L87.9 924.0 L87.9 936.1 L12.0 1012.0 " />
<circle cx="460.5" cy="12.0" r="8" />
<circle cx="573.1" cy="27.3" r="8" />
<circle cx="541.2" cy="83.8" r="8" />
<circle cx="534.7" cy="146.2" r="8" />
<circle cx="466.2" cy="156.5" r="8" />
<circle cx="388.4" cy="183.5" r="8" />
<circle cx="337.6" cy="234.0" r="8" />
<circle cx="256.4" cy="326.2" r="8" />
<circle cx="217.6" cy="354.4" r="8" />
<circle cx="186.0" cy="400.5" r="8" />
<circle cx="266.8" cy="422.2" r="8" />
<circle cx="304.1" cy="450.1" r="8" />
<circle cx="354.2" cy="467.6" r="8" />
<circle cx="421.2" cy="462.1" r="8" />
<circle cx="467.2" cy="490.0" r="8" />
<circle cx="509.3" cy="538.6" r="8" />
<circle cx="528.6" cy="580.2" r="8" />
<circle cx="406.4" cy="570.6" r="8" />
<circle cx="359.3" cy="621.9" r="8" />
<circle cx="293.7" cy="680.8" r="8" />
<circle cx="258.0" cy="737.7" r="8" />
<circle cx="227.9" cy="773.0" r="8" />
<circle cx="196.1" cy="807.9" r="8" />
<circle cx="153.2" cy="854.0" r="8" />
<circle cx="87.9" cy="924.0" r="8" />
<circle cx="12.0" cy="1012.0" r="8" />
<style>
circle {
fill: white;
stroke: #40BDB0;
stroke-width: 4;
}
path {
fill: none;
stroke: #40BDB0;
stroke-width: 8;
}</style>
</svg>