<svg width="225.4" height="1024.0" xmlns="http://www.w3.org/2000/svg">
<path d="M12.0 1012.0 L12.0 1003.7 L64.1 951.6 L108.9 906.8 L108.9 903.6 L108.9 901.3 L138.3 871.9 L160.2 850.1 L160.2 848.0 L160.2 844.4 L180.8 823.7 L205.4 799.2 L205.4 784.7 L205.4 748.7 L213.4 740.7 L206.9 734.2 L206.9 689.0 L152.4 689.0 L143.8 680.4 L100.4 680.4 L86.7 694.2 L86.7 659.4 L120.9 625.2 L131.4 614.7 L131.4 592.3 L131.4 481.6 L197.5 415.5 L201.2 411.9 L201.2 321.3 L201.2 252.1 L198.6 249.5 L199.5 248.5 L199.5 158.7 L199.5 91.7 L164.4 56.5 L164.8 56.1 L164.8 12.0 " />
<circle cx="12.0" cy="1012.0" r="8" />
<circle cx="64.1" cy="951.6" r="8" />
<circle cx="108.9" cy="903.6" r="8" />
<circle cx="138.3" cy="871.9" r="8" />
<circle cx="160.2" cy="848.0" r="8" />
<circle cx="180.8" cy="823.7" r="8" />
<circle cx="205.4" cy="784.7" r="8" />
<circle cx="213.4" cy="740.7" r="8" />
<circle cx="206.9" cy="689.0" r="8" />
<circle cx="143.8" cy="680.4" r="8" />
<circle cx="86.7" cy="694.2" r="8" />
<circle cx="120.9" cy="625.2" r="8" />
<circle cx="131.4" cy="592.3" r="8" />
<circle cx="197.5" cy="415.5" r="8" />
<circle cx="201.2" cy="321.3" r="8" />
<circle cx="198.6" cy="249.5" r="8" />
<circle cx="199.5" cy="158.7" r="8" />
<circle cx="164.4" cy="56.5" r="8" />
<circle cx="164.8" cy="12.0" r="8" />
<style>
circle {
fill: white;
stroke: #F1B434;
stroke-width: 4;
}
path {
fill: none;
stroke: #F1B434;
stroke-width: 8;
}</style>
</svg>