<svg width="1024.0" height="362.6" xmlns="http://www.w3.org/2000/svg">
<path d="M834.0 350.6 L834.0 348.5 L858.2 324.4 L902.1 280.5 L905.0 280.5 L905.0 271.4 L931.1 245.3 L946.7 229.8 L946.7 202.8 L946.7 181.7 L965.5 162.8 L979.0 149.3 L979.0 139.0 L979.0 122.9 L987.9 114.0 L1012.0 89.9 L1012.0 86.5 L991.1 86.5 L979.0 74.5 L962.8 58.3 L919.8 58.3 L893.4 58.3 L879.0 44.0 L867.8 32.7 L839.2 32.7 L820.0 32.7 L809.2 21.9 L799.2 12.0 L771.5 12.0 L749.9 12.0 L746.4 15.5 L744.0 13.2 L720.3 13.2 L676.1 13.2 L674.7 14.6 L664.7 24.6 L660.2 24.6 L575.7 24.6 L568.2 32.1 L548.9 51.4 L500.5 51.4 L482.4 51.4 L475.4 58.5 L458.2 75.7 L415.0 75.7 L375.9 75.7 L365.5 86.1 L344.0 107.6 L290.2 107.6 L260.9 107.6 L249.0 119.4 L223.2 145.3 L212.2 145.3 L196.5 145.3 L178.3 163.4 L163.3 178.4 L135.4 178.4 L108.7 178.4 L93.5 193.6 L79.3 207.8 L55.1 207.8 L22.7 207.8 L12.0 218.5 " />
<circle cx="834.0" cy="350.6" r="8" />
<circle cx="858.2" cy="324.4" r="8" />
<circle cx="905.0" cy="280.5" r="8" />
<circle cx="931.1" cy="245.3" r="8" />
<circle cx="946.7" cy="202.8" r="8" />
<circle cx="965.5" cy="162.8" r="8" />
<circle cx="979.0" cy="139.0" r="8" />
<circle cx="987.9" cy="114.0" r="8" />
<circle cx="1012.0" cy="86.5" r="8" />
<circle cx="979.0" cy="74.5" r="8" />
<circle cx="919.8" cy="58.3" r="8" />
<circle cx="879.0" cy="44.0" r="8" />
<circle cx="839.2" cy="32.7" r="8" />
<circle cx="809.2" cy="21.9" r="8" />
<circle cx="771.5" cy="12.0" r="8" />
<circle cx="746.4" cy="15.5" r="8" />
<circle cx="720.3" cy="13.2" r="8" />
<circle cx="674.7" cy="14.6" r="8" />
<circle cx="660.2" cy="24.6" r="8" />
<circle cx="568.2" cy="32.1" r="8" />
<circle cx="500.5" cy="51.4" r="8" />
<circle cx="475.4" cy="58.5" r="8" />
<circle cx="415.0" cy="75.7" r="8" />
<circle cx="365.5" cy="86.1" r="8" />
<circle cx="290.2" cy="107.6" r="8" />
<circle cx="249.0" cy="119.4" r="8" />
<circle cx="212.2" cy="145.3" r="8" />
<circle cx="178.3" cy="163.4" r="8" />
<circle cx="135.4" cy="178.4" r="8" />
<circle cx="93.5" cy="193.6" r="8" />
<circle cx="55.1" cy="207.8" r="8" />
<circle cx="12.0" cy="218.5" r="8" />
<style>
circle {
fill: white;
stroke: #AD841F;
stroke-width: 4;
}
path {
fill: none;
stroke: #AD841F;
stroke-width: 8;
}</style>
</svg>