<svg width="1024.0" height="365.6" xmlns="http://www.w3.org/2000/svg">
<path d="M832.0 353.6 L832.0 351.1 L857.7 325.3 L901.8 281.3 L904.7 281.3 L904.7 272.2 L930.9 246.0 L946.5 230.4 L946.5 203.4 L946.5 182.2 L965.4 163.2 L978.9 149.7 L978.9 139.4 L978.9 123.2 L987.8 114.3 L1012.0 90.1 L1012.0 86.8 L991.0 86.8 L978.9 74.7 L962.6 58.4 L919.5 58.4 L893.0 58.4 L878.6 44.0 L867.4 32.8 L838.7 32.8 L819.4 32.8 L808.6 22.0 L798.6 12.0 L770.8 12.0 L749.1 12.0 L745.6 15.5 L743.3 13.2 L719.4 13.2 L675.1 13.2 L673.7 14.6 L663.6 24.7 L659.2 24.7 L576.7 24.7 L568.1 33.2 L550.1 51.3 L501.7 51.3 L480.8 51.3 L474.3 57.8 L456.2 75.9 L413.2 75.9 L374.1 75.9 L363.6 86.3 L342.0 107.9 L288.0 107.9 L258.7 107.9 L246.8 119.7 L220.9 145.6 L209.8 145.6 L194.0 145.6 L175.9 163.8 L160.8 178.9 L132.8 178.9 L106.0 178.9 L90.8 194.2 L76.5 208.4 L52.3 208.4 L22.6 208.4 L12.0 219.0 " />
<circle cx="832.0" cy="353.6" r="8" />
<circle cx="857.7" cy="325.3" r="8" />
<circle cx="904.7" cy="281.3" r="8" />
<circle cx="930.9" cy="246.0" r="8" />
<circle cx="946.5" cy="203.4" r="8" />
<circle cx="965.4" cy="163.2" r="8" />
<circle cx="978.9" cy="139.4" r="8" />
<circle cx="987.8" cy="114.3" r="8" />
<circle cx="1012.0" cy="86.8" r="8" />
<circle cx="978.9" cy="74.7" r="8" />
<circle cx="919.5" cy="58.4" r="8" />
<circle cx="878.6" cy="44.0" r="8" />
<circle cx="838.7" cy="32.8" r="8" />
<circle cx="808.6" cy="22.0" r="8" />
<circle cx="770.8" cy="12.0" r="8" />
<circle cx="745.6" cy="15.5" r="8" />
<circle cx="719.4" cy="13.2" r="8" />
<circle cx="673.7" cy="14.6" r="8" />
<circle cx="659.2" cy="24.7" r="8" />
<circle cx="568.1" cy="33.2" r="8" />
<circle cx="501.7" cy="51.3" r="8" />
<circle cx="474.3" cy="57.8" r="8" />
<circle cx="413.2" cy="75.9" r="8" />
<circle cx="363.6" cy="86.3" r="8" />
<circle cx="288.0" cy="107.9" r="8" />
<circle cx="246.8" cy="119.7" r="8" />
<circle cx="209.8" cy="145.6" r="8" />
<circle cx="175.9" cy="163.8" r="8" />
<circle cx="132.8" cy="178.9" r="8" />
<circle cx="90.8" cy="194.2" r="8" />
<circle cx="52.3" cy="208.4" r="8" />
<circle cx="12.0" cy="219.0" r="8" />
<style>
circle {
fill: white;
stroke: #AD841F;
stroke-width: 4;
}
path {
fill: none;
stroke: #AD841F;
stroke-width: 8;
}</style>
</svg>