<svg width="1024.0" height="152.8" xmlns="http://www.w3.org/2000/svg">
<path d="M980.4 12.0 L980.4 29.0 L994.1 42.8 L1012.0 60.7 L1012.0 77.5 L1012.0 104.5 L1005.8 110.7 L1000.9 115.6 L937.7 115.6 L827.6 115.6 L802.4 140.8 L791.3 129.7 L682.0 129.7 L605.1 129.7 L576.3 100.8 L572.3 96.8 L377.2 96.8 L314.1 96.8 L313.6 97.3 L310.2 100.7 L234.2 100.7 L140.0 100.7 L135.1 105.6 L127.8 98.2 L12.0 98.2 " />
<circle cx="980.4" cy="12.0" r="8" />
<circle cx="994.1" cy="42.8" r="8" />
<circle cx="1012.0" cy="77.5" r="8" />
<circle cx="1005.8" cy="110.7" r="8" />
<circle cx="937.7" cy="115.6" r="8" />
<circle cx="802.4" cy="140.8" r="8" />
<circle cx="682.0" cy="129.7" r="8" />
<circle cx="576.3" cy="100.8" r="8" />
<circle cx="377.2" cy="96.8" r="8" />
<circle cx="313.6" cy="97.3" r="8" />
<circle cx="234.2" cy="100.7" r="8" />
<circle cx="135.1" cy="105.6" r="8" />
<circle cx="12.0" cy="98.2" r="8" />
<style>
circle {
fill: white;
stroke: black;
stroke-width: 4;
}
path {
fill: none;
stroke: #FFFFFF;
stroke-width: 8;
}</style>
</svg>