<svg width="1024.0" height="505.8" xmlns="http://www.w3.org/2000/svg">
<path d="M372.2 12.0 L247.2 137.0 L160.0 137.0 L93.6 137.0 L12.0 218.5 L181.3 218.5 L206.1 243.3 L221.7 258.9 L300.5 258.9 L478.3 258.9 L489.8 270.4 L450.7 309.5 L450.7 359.7 L450.7 417.8 L444.0 424.5 L477.4 457.9 L477.4 491.0 L566.6 491.0 L569.4 493.8 L611.9 451.3 L621.9 451.3 L631.0 451.3 L734.8 347.5 L678.1 290.7 L653.3 290.7 L653.3 221.6 L666.4 208.5 L750.4 292.5 L905.5 292.5 L978.7 292.5 L1012.0 325.9 L999.0 338.9 L999.0 430.7 L955.4 430.7 L915.5 390.8 L909.3 384.6 L909.3 312.4 L909.3 262.6 L885.5 238.8 " />
<circle cx="372.2" cy="12.0" r="8" />
<circle cx="160.0" cy="137.0" r="8" />
<circle cx="12.0" cy="218.5" r="8" />
<circle cx="206.1" cy="243.3" r="8" />
<circle cx="300.5" cy="258.9" r="8" />
<circle cx="489.8" cy="270.4" r="8" />
<circle cx="450.7" cy="359.7" r="8" />
<circle cx="444.0" cy="424.5" r="8" />
<circle cx="477.4" cy="491.0" r="8" />
<circle cx="569.4" cy="493.8" r="8" />
<circle cx="621.9" cy="451.3" r="8" />
<circle cx="734.8" cy="347.5" r="8" />
<circle cx="653.3" cy="290.7" r="8" />
<circle cx="666.4" cy="208.5" r="8" />
<circle cx="905.5" cy="292.5" r="8" />
<circle cx="1012.0" cy="325.9" r="8" />
<circle cx="999.0" cy="430.7" r="8" />
<circle cx="915.5" cy="390.8" r="8" />
<circle cx="909.3" cy="312.4" r="8" />
<circle cx="885.5" cy="238.8" r="8" />
<style>
circle {
fill: white;
stroke: #525252;
stroke-width: 4;
}
path {
fill: none;
stroke: #525252;
stroke-width: 8;
}</style>
</svg>