<svg width="906.9" height="1024.0" xmlns="http://www.w3.org/2000/svg">
<path d="M894.8583823595181 1012.0 L872.3 989.4 L870.7 989.4 L870.7 984.9 L848.2 962.4 L833.8 948.0 L823.4 948.0 L820.7 948.0 L792.0 919.3 L760.7 888.0 L760.7 883.8 L757.5 880.7 L722.4 880.7 L721.7 880.7 L658.1 817.0 L641.2 800.1 L641.2 796.6 L641.2 779.8 L630.6 769.2 L619.9 758.5 L619.9 743.9 L619.9 727.5 L611.3 719.0 L601.1 708.7 L601.1 699.8 L593.8 707.1 L591.4 707.1 L586.9 707.1 L573.3 720.7 L606.8 687.2 L610.1 687.2 L610.1 676.6 L603.9 670.4 L584.7 651.2 L584.7 645.2 L584.7 624.5 L577.3 617.1 L566.5 606.2 L564.1 606.2 L563.2 606.2 L553.3 596.4 L503.5 546.5 L503.5 540.5 L503.5 495.1 L428.3 420.0 L406.8 398.5 L406.8 358.4 L306.5 258.1 L261.2 258.1 L261.2 219.2 L87.1 45.1 L62.3 20.4 L42.1 20.4 L20.4 20.4 L12.0 12.0 " />
<circle cx="894.9" cy="1012.0" r="8" />
<circle cx="870.7" cy="989.4" r="8" />
<circle cx="848.2" cy="962.4" r="8" />
<circle cx="823.4" cy="948.0" r="8" />
<circle cx="792.0" cy="919.3" r="8" />
<circle cx="760.7" cy="883.8" r="8" />
<circle cx="722.4" cy="880.7" r="8" />
<circle cx="658.1" cy="817.0" r="8" />
<circle cx="641.2" cy="796.6" r="8" />
<circle cx="630.6" cy="769.2" r="8" />
<circle cx="619.9" cy="743.9" r="8" />
<circle cx="611.3" cy="719.0" r="8" />
<circle cx="601.1" cy="699.8" r="8" />
<circle cx="591.4" cy="707.1" r="8" />
<circle cx="573.3" cy="720.7" r="8" />
<circle cx="610.1" cy="687.2" r="8" />
<circle cx="603.9" cy="670.4" r="8" />
<circle cx="584.7" cy="645.2" r="8" />
<circle cx="577.3" cy="617.1" r="8" />
<circle cx="564.1" cy="606.2" r="8" />
<circle cx="553.3" cy="596.4" r="8" />
<circle cx="503.5" cy="540.5" r="8" />
<circle cx="428.3" cy="420.0" r="8" />
<circle cx="406.8" cy="358.4" r="8" />
<circle cx="261.2" cy="258.1" r="8" />
<circle cx="87.1" cy="45.1" r="8" />
<circle cx="42.1" cy="20.4" r="8" />
<circle cx="12.0" cy="12.0" r="8" />
<style>
circle {
fill: white;
stroke: #525252;
stroke-width: 4;
}
path {
fill: none;
stroke: #525252;
stroke-width: 8;
}</style>
</svg>