<svg width="906.9" height="1024.0" xmlns="http://www.w3.org/2000/svg">
<path d="M12.0 12.0 L33.7 12.0 L42.1 20.4 L66.8 45.1 L87.1 45.1 L261.2 219.2 L261.2 258.1 L318.4 315.2 L338.8 315.2 L344.3 320.7 L344.3 341.3 L361.3 358.4 L406.8 358.4 L428.3 379.9 L428.3 420.0 L428.3 465.4 L503.5 540.5 L553.3 590.4 L553.3 596.4 L563.2 606.2 L564.1 606.2 L566.5 606.2 L577.3 617.1 L584.7 624.5 L584.7 645.2 L584.7 651.2 L603.9 670.4 L610.1 676.6 L610.1 687.2 L610.1 688.4 L591.4 707.1 L577.8 720.7 L573.3 720.7 L580.2 720.7 L601.1 699.8 L611.3 710.0 L611.3 719.0 L611.3 735.3 L619.9 743.9 L630.6 754.7 L630.6 769.2 L630.6 786.0 L641.2 796.6 L658.1 813.5 L658.1 817.0 L721.7 880.7 L722.4 880.7 L757.5 880.7 L760.7 883.8 L792.0 915.2 L792.0 919.3 L820.7 948.0 L823.4 948.0 L833.8 948.0 L848.2 962.4 L870.7 984.9 L870.7 989.4 L893.3 1012.0 L894.9 1012.0 " />
<circle cx="12.0" cy="12.0" r="8" />
<circle cx="42.1" cy="20.4" r="8" />
<circle cx="87.1" cy="45.1" r="8" />
<circle cx="261.2" cy="258.1" r="8" />
<circle cx="338.8" cy="315.2" r="8" />
<circle cx="344.3" cy="341.3" r="8" />
<circle cx="406.8" cy="358.4" r="8" />
<circle cx="428.3" cy="420.0" r="8" />
<circle cx="503.5" cy="540.5" r="8" />
<circle cx="553.3" cy="596.4" r="8" />
<circle cx="564.1" cy="606.2" r="8" />
<circle cx="577.3" cy="617.1" r="8" />
<circle cx="584.7" cy="645.2" r="8" />
<circle cx="603.9" cy="670.4" r="8" />
<circle cx="610.1" cy="687.2" r="8" />
<circle cx="591.4" cy="707.1" r="8" />
<circle cx="573.3" cy="720.7" r="8" />
<circle cx="601.1" cy="699.8" r="8" />
<circle cx="611.3" cy="719.0" r="8" />
<circle cx="619.9" cy="743.9" r="8" />
<circle cx="630.6" cy="769.2" r="8" />
<circle cx="641.2" cy="796.6" r="8" />
<circle cx="658.1" cy="817.0" r="8" />
<circle cx="722.4" cy="880.7" r="8" />
<circle cx="760.7" cy="883.8" r="8" />
<circle cx="792.0" cy="919.3" r="8" />
<circle cx="823.4" cy="948.0" r="8" />
<circle cx="848.2" cy="962.4" r="8" />
<circle cx="870.7" cy="989.4" r="8" />
<circle cx="894.9" cy="1012.0" r="8" />
<style>
circle {
fill: white;
stroke: #525252;
stroke-width: 4;
}
path {
fill: none;
stroke: #525252;
stroke-width: 8;
}</style>
</svg>