<svg width="1024.0" height="977.7" xmlns="http://www.w3.org/2000/svg">
<path d="M1012.0000000000001 965.7054092271627 L1000.0 953.7 L983.0 953.7 L904.6 953.7 L899.7 958.7 L868.3 927.4 L854.4 927.4 L833.1 927.4 L799.5 893.8 L777.6 871.9 L756.1 871.9 L710.8 871.9 L680.5 841.6 L654.3 815.4 L615.2 815.4 L597.7 815.4 L571.3 789.1 L544.0 761.7 L459.3 761.7 L430.9 761.7 L414.5 745.4 L392.4 723.3 L334.0 723.3 L298.0 723.3 L278.6 703.9 L263.3 688.6 L224.4 688.6 L198.3 688.6 L183.6 673.9 L170.1 660.4 L132.4 660.4 L86.6 660.4 L71.0 644.8 L55.1 628.9 L12.0 628.9 L12.0 511.3 L82.3 441.0 L86.2 437.1 L86.2 340.9 L86.2 267.3 L83.4 264.5 L84.4 263.5 L84.4 167.9 L84.4 96.7 L47.1 59.3 L47.5 58.9 L47.5 12.0 " />
<circle cx="1012.0" cy="965.7" r="8" />
<circle cx="983.0" cy="953.7" r="8" />
<circle cx="899.7" cy="958.7" r="8" />
<circle cx="854.4" cy="927.4" r="8" />
<circle cx="799.5" cy="893.8" r="8" />
<circle cx="756.1" cy="871.9" r="8" />
<circle cx="680.5" cy="841.6" r="8" />
<circle cx="615.2" cy="815.4" r="8" />
<circle cx="571.3" cy="789.1" r="8" />
<circle cx="459.3" cy="761.7" r="8" />
<circle cx="414.5" cy="745.4" r="8" />
<circle cx="334.0" cy="723.3" r="8" />
<circle cx="278.6" cy="703.9" r="8" />
<circle cx="224.4" cy="688.6" r="8" />
<circle cx="183.6" cy="673.9" r="8" />
<circle cx="132.4" cy="660.4" r="8" />
<circle cx="71.0" cy="644.8" r="8" />
<circle cx="12.0" cy="628.9" r="8" />
<circle cx="82.3" cy="441.0" r="8" />
<circle cx="86.2" cy="340.9" r="8" />
<circle cx="83.4" cy="264.5" r="8" />
<circle cx="84.4" cy="167.9" r="8" />
<circle cx="47.1" cy="59.3" r="8" />
<circle cx="47.5" cy="12.0" r="8" />
<style>
circle {
fill: white;
stroke: #440099;
stroke-width: 4;
}
path {
fill: none;
stroke: #440099;
stroke-width: 8;
}</style>
</svg>