<svg width="714.7" height="1024.0" xmlns="http://www.w3.org/2000/svg">
<path d="M196.3825631392434 1012.0 L208.5 999.9 L270.4 999.9 L335.1 999.9 L372.1 962.9 L466.9 868.1 L534.5 868.1 L534.5 820.6 L559.4 795.7 L587.5 767.6 L587.5 765.7 L488.5 765.7 L459.3 736.5 L424.6 701.8 L326.6 701.8 L268.6 701.8 L263.4 696.6 L254.2 687.4 L178.4 687.4 L178.4 694.8 L95.8 777.4 L64.3 745.9 L64.3 726.2 L64.3 654.8 L56.6 647.2 L47.0 637.5 L47.0 571.9 L47.0 511.1 L38.1 502.3 L22.7 486.9 L22.7 346.0 L22.7 294.3 L12.0 283.5 L31.6 263.9 L31.6 182.5 L142.7 182.5 L153.4 171.8 L132.3 150.7 L132.3 105.6 L145.3 105.6 L157.3 93.7 L168.5 82.4 L253.5 82.4 L364.5 82.4 L380.0 66.9 L405.1 41.7 L532.2 41.7 L623.2 41.7 L643.1 21.9 L652.9 12.0 L702.7 12.0 " />
<circle cx="196.4" cy="1012.0" r="8" />
<circle cx="270.4" cy="999.9" r="8" />
<circle cx="372.1" cy="962.9" r="8" />
<circle cx="534.5" cy="868.1" r="8" />
<circle cx="559.4" cy="795.7" r="8" />
<circle cx="587.5" cy="765.7" r="8" />
<circle cx="459.3" cy="736.5" r="8" />
<circle cx="326.6" cy="701.8" r="8" />
<circle cx="263.4" cy="696.6" r="8" />
<circle cx="178.4" cy="687.4" r="8" />
<circle cx="95.8" cy="777.4" r="8" />
<circle cx="64.3" cy="726.2" r="8" />
<circle cx="56.6" cy="647.2" r="8" />
<circle cx="47.0" cy="571.9" r="8" />
<circle cx="38.1" cy="502.3" r="8" />
<circle cx="22.7" cy="346.0" r="8" />
<circle cx="12.0" cy="283.5" r="8" />
<circle cx="31.6" cy="182.5" r="8" />
<circle cx="153.4" cy="171.8" r="8" />
<circle cx="132.3" cy="105.6" r="8" />
<circle cx="157.3" cy="93.7" r="8" />
<circle cx="253.5" cy="82.4" r="8" />
<circle cx="380.0" cy="66.9" r="8" />
<circle cx="532.2" cy="41.7" r="8" />
<circle cx="643.1" cy="21.9" r="8" />
<circle cx="702.7" cy="12.0" r="8" />
<style>
circle {
fill: white;
stroke: #525252;
stroke-width: 4;
}
path {
fill: none;
stroke: #525252;
stroke-width: 8;
}</style>
</svg>