<svg width="686.9" height="1024.0" xmlns="http://www.w3.org/2000/svg">
<path d="M616.3 1012.0 L636.7 991.6 L646.7 991.6 L646.7 990.4 L674.9 962.3 L635.1 922.5 L541.1 922.5 L410.4 922.5 L385.4 897.5 L375.1 887.2 L265.1 887.2 L242.8 887.2 L229.8 874.2 L205.3 849.6 L102.9 849.6 L45.7 849.6 L12.0 815.9 L18.7 815.9 L61.3 773.4 L96.4 738.2 L96.4 734.1 L139.9 734.1 L178.0 696.0 L194.6 679.4 L194.6 666.5 L194.6 644.5 L212.3 626.8 L222.9 616.2 L222.9 593.8 L222.9 482.9 L289.2 416.6 L292.8 412.9 L292.8 322.1 L292.8 252.7 L290.2 250.1 L291.2 249.2 L291.2 159.1 L291.2 91.9 L256.0 56.6 L256.3 56.2 L256.3 12.0 " />
<circle cx="616.3" cy="1012.0" r="8" />
<circle cx="646.7" cy="991.6" r="8" />
<circle cx="674.9" cy="962.3" r="8" />
<circle cx="541.1" cy="922.5" r="8" />
<circle cx="385.4" cy="897.5" r="8" />
<circle cx="265.1" cy="887.2" r="8" />
<circle cx="229.8" cy="874.2" r="8" />
<circle cx="102.9" cy="849.6" r="8" />
<circle cx="12.0" cy="815.9" r="8" />
<circle cx="61.3" cy="773.4" r="8" />
<circle cx="96.4" cy="734.1" r="8" />
<circle cx="178.0" cy="696.0" r="8" />
<circle cx="194.6" cy="666.5" r="8" />
<circle cx="212.3" cy="626.8" r="8" />
<circle cx="222.9" cy="593.8" r="8" />
<circle cx="289.2" cy="416.6" r="8" />
<circle cx="292.8" cy="322.1" r="8" />
<circle cx="290.2" cy="250.1" r="8" />
<circle cx="291.2" cy="159.1" r="8" />
<circle cx="256.0" cy="56.6" r="8" />
<circle cx="256.3" cy="12.0" r="8" />
<style>
circle {
fill: white;
stroke: #3CDBC0;
stroke-width: 4;
}
path {
fill: none;
stroke: #3CDBC0;
stroke-width: 8;
}</style>
</svg>