<svg width="1024.0" height="329.5" xmlns="http://www.w3.org/2000/svg">
<path d="M1012.0 280.9532497659244 L975.3 281.0 L948.6 254.3 L938.2 243.9 L921.8 243.9 L908.5 243.9 L903.6 239.0 L896.0 231.4 L875.0 231.4 L844.2 231.4 L836.2 223.3 L835.2 222.3 L811.8 222.3 L772.5 222.3 L771.5 221.3 L770.3 220.1 L718.5 220.1 L674.9 220.1 L667.3 212.4 L660.1 205.3 L628.4 205.3 L628.4 180.4 L625.5 177.6 L619.5 171.5 L619.5 155.0 L603.5 139.0 L579.8 139.0 L564.5 139.0 L544.8 119.3 L532.1 106.6 L531.8 106.6 L531.8 99.7 L519.9 87.8 L491.1 59.0 L477.9 59.0 L444.5 59.0 L397.6 12.0 L396.8 12.8 L359.8 12.8 L326.7 12.8 L289.3 50.2 L279.2 60.3 L265.9 60.3 L232.2 60.3 L219.9 72.6 L210.1 82.4 L187.2 82.4 L149.7 82.4 L140.5 91.6 L133.9 98.2 L105.2 98.2 L82.2 98.2 L67.1 113.4 L51.0 129.5 L45.3 129.5 L16.7 158.1 L16.7 174.9 L16.7 176.8 L18.8 178.9 L30.4 190.5 L60.6 190.5 L62.3 192.1 L62.3 209.8 L62.3 232.4 L65.5 235.6 L65.5 244.3 L63.2 246.5 L47.1 262.6 L47.1 278.7 L47.1 282.4 L12.0 317.5 " />
<circle cx="1012.0" cy="281.0" r="8" />
<circle cx="948.6" cy="254.3" r="8" />
<circle cx="921.8" cy="243.9" r="8" />
<circle cx="903.6" cy="239.0" r="8" />
<circle cx="875.0" cy="231.4" r="8" />
<circle cx="836.2" cy="223.3" r="8" />
<circle cx="811.8" cy="222.3" r="8" />
<circle cx="771.5" cy="221.3" r="8" />
<circle cx="718.5" cy="220.1" r="8" />
<circle cx="667.3" cy="212.4" r="8" />
<circle cx="628.4" cy="205.3" r="8" />
<circle cx="625.5" cy="177.6" r="8" />
<circle cx="619.5" cy="155.0" r="8" />
<circle cx="579.8" cy="139.0" r="8" />
<circle cx="544.8" cy="119.3" r="8" />
<circle cx="531.8" cy="106.6" r="8" />
<circle cx="519.9" cy="87.8" r="8" />
<circle cx="477.9" cy="59.0" r="8" />
<circle cx="397.6" cy="12.0" r="8" />
<circle cx="359.8" cy="12.8" r="8" />
<circle cx="289.3" cy="50.2" r="8" />
<circle cx="265.9" cy="60.3" r="8" />
<circle cx="219.9" cy="72.6" r="8" />
<circle cx="187.2" cy="82.4" r="8" />
<circle cx="140.5" cy="91.6" r="8" />
<circle cx="105.2" cy="98.2" r="8" />
<circle cx="67.1" cy="113.4" r="8" />
<circle cx="45.3" cy="129.5" r="8" />
<circle cx="16.7" cy="174.9" r="8" />
<circle cx="18.8" cy="178.9" r="8" />
<circle cx="60.6" cy="190.5" r="8" />
<circle cx="62.3" cy="209.8" r="8" />
<circle cx="65.5" cy="235.6" r="8" />
<circle cx="63.2" cy="246.5" r="8" />
<circle cx="47.1" cy="278.7" r="8" />
<circle cx="12.0" cy="317.5" r="8" />
<style>
circle {
fill: white;
stroke: #525252;
stroke-width: 4;
}
path {
fill: none;
stroke: #525252;
stroke-width: 8;
}</style>
</svg>