<svg width="1024.0" height="695.6" xmlns="http://www.w3.org/2000/svg">
<path d="M1012.0 683.6 L993.7 665.3 L946.2 665.3 L930.0 665.3 L901.7 637.0 L883.5 618.8 L854.5 618.8 L831.2 618.8 L822.4 610.0 L809.0 596.6 L772.2 596.6 L718.0 596.6 L703.8 582.5 L702.0 580.7 L660.9 580.7 L591.6 580.7 L589.9 578.9 L589.0 578.1 L500.9 578.1 L497.7 574.8 L497.7 552.3 L497.7 520.8 L485.6 508.7 L463.0 486.1 L463.0 461.7 L463.0 446.0 L441.5 424.5 L435.9 418.9 L435.9 349.6 L435.9 325.0 L442.1 318.8 L411.8 288.5 L395.5 288.5 L374.6 288.5 L359.5 273.5 L339.9 253.8 L300.8 253.8 L289.5 253.8 L284.0 248.2 L295.4 236.7 L295.4 221.8 L295.4 214.4 L268.0 187.0 L241.0 160.0 L241.0 153.2 L241.0 145.4 L214.6 119.0 L160.3 64.7 L153.2 64.7 L138.5 64.7 L119.3 45.5 L111.4 37.6 L111.4 19.9 L31.2 19.9 L23.3 12.0 L12.0 23.3 L12.0 28.9 L12.0 48.5 L29.5 66.0 L71.5 108.1 L84.9 108.1 L84.9 111.3 L121.8 148.2 " />
<circle cx="1012.0" cy="683.6" r="8" />
<circle cx="946.2" cy="665.3" r="8" />
<circle cx="901.7" cy="637.0" r="8" />
<circle cx="854.5" cy="618.8" r="8" />
<circle cx="822.4" cy="610.0" r="8" />
<circle cx="772.2" cy="596.6" r="8" />
<circle cx="703.8" cy="582.5" r="8" />
<circle cx="660.9" cy="580.7" r="8" />
<circle cx="589.9" cy="578.9" r="8" />
<circle cx="500.9" cy="578.1" r="8" />
<circle cx="497.7" cy="552.3" r="8" />
<circle cx="485.6" cy="508.7" r="8" />
<circle cx="463.0" cy="461.7" r="8" />
<circle cx="441.5" cy="424.5" r="8" />
<circle cx="435.9" cy="349.6" r="8" />
<circle cx="442.1" cy="318.8" r="8" />
<circle cx="395.5" cy="288.5" r="8" />
<circle cx="359.5" cy="273.5" r="8" />
<circle cx="300.8" cy="253.8" r="8" />
<circle cx="284.0" cy="248.2" r="8" />
<circle cx="295.4" cy="221.8" r="8" />
<circle cx="268.0" cy="187.0" r="8" />
<circle cx="241.0" cy="153.2" r="8" />
<circle cx="214.6" cy="119.0" r="8" />
<circle cx="153.2" cy="64.7" r="8" />
<circle cx="119.3" cy="45.5" r="8" />
<circle cx="111.4" cy="19.9" r="8" />
<circle cx="23.3" cy="12.0" r="8" />
<circle cx="12.0" cy="28.9" r="8" />
<circle cx="29.5" cy="66.0" r="8" />
<circle cx="84.9" cy="108.1" r="8" />
<circle cx="121.8" cy="148.2" r="8" />
<style>
circle {
fill: white;
stroke: #525252;
stroke-width: 4;
}
path {
fill: none;
stroke: #525252;
stroke-width: 8;
}</style>
</svg>