<svg width="1024.0" height="695.0" xmlns="http://www.w3.org/2000/svg">
<path d="M1012.0 683.0 L993.3 664.4 L944.9 664.4 L928.7 664.4 L900.5 636.1 L882.3 617.9 L853.3 617.9 L830.0 617.9 L821.3 609.2 L807.9 595.8 L771.1 595.8 L717.0 595.8 L702.8 581.6 L701.1 579.9 L660.0 579.9 L590.8 579.9 L589.0 578.1 L586.9 576.0 L495.8 576.0 L495.8 552.8 L497.0 551.6 L485.0 539.6 L485.0 508.0 L485.0 483.6 L462.3 461.0 L440.9 439.5 L440.9 423.9 L440.9 354.7 L435.3 349.1 L441.5 342.8 L441.5 318.4 L425.2 318.4 L395.0 288.1 L379.9 273.1 L359.0 273.1 L320.0 273.1 L300.4 253.4 L294.8 247.9 L283.6 247.9 L283.6 232.9 L295.0 221.5 L267.6 194.1 L267.6 186.8 L267.6 180.0 L240.7 153.0 L214.3 126.7 L214.3 118.8 L207.2 118.8 L153.0 64.6 L133.8 45.5 L119.2 45.5 L111.2 37.6 L111.2 19.9 L31.2 19.9 L23.3 12.0 L12.0 23.3 L12.0 28.8 L12.0 48.5 L29.4 65.9 L71.4 107.9 L84.8 107.9 L84.8 111.1 L121.7 148.0 " />
<circle cx="1012.0" cy="683.0" r="8" />
<circle cx="944.9" cy="664.4" r="8" />
<circle cx="900.5" cy="636.1" r="8" />
<circle cx="853.3" cy="617.9" r="8" />
<circle cx="821.3" cy="609.2" r="8" />
<circle cx="771.1" cy="595.8" r="8" />
<circle cx="702.8" cy="581.6" r="8" />
<circle cx="660.0" cy="579.9" r="8" />
<circle cx="589.0" cy="578.1" r="8" />
<circle cx="495.8" cy="576.0" r="8" />
<circle cx="497.0" cy="551.6" r="8" />
<circle cx="485.0" cy="508.0" r="8" />
<circle cx="462.3" cy="461.0" r="8" />
<circle cx="440.9" cy="423.9" r="8" />
<circle cx="435.3" cy="349.1" r="8" />
<circle cx="441.5" cy="318.4" r="8" />
<circle cx="395.0" cy="288.1" r="8" />
<circle cx="359.0" cy="273.1" r="8" />
<circle cx="300.4" cy="253.4" r="8" />
<circle cx="283.6" cy="247.9" r="8" />
<circle cx="295.0" cy="221.5" r="8" />
<circle cx="267.6" cy="186.8" r="8" />
<circle cx="240.7" cy="153.0" r="8" />
<circle cx="214.3" cy="118.8" r="8" />
<circle cx="153.0" cy="64.6" r="8" />
<circle cx="119.2" cy="45.5" r="8" />
<circle cx="111.2" cy="19.9" r="8" />
<circle cx="23.3" cy="12.0" r="8" />
<circle cx="12.0" cy="28.8" r="8" />
<circle cx="29.4" cy="65.9" r="8" />
<circle cx="84.8" cy="107.9" r="8" />
<circle cx="121.7" cy="148.0" r="8" />
<style>
circle {
fill: white;
stroke: #525252;
stroke-width: 4;
}
path {
fill: none;
stroke: #525252;
stroke-width: 8;
}</style>
</svg>