<svg width="250.5" height="1024.0" xmlns="http://www.w3.org/2000/svg">
<path d="M12.0 12.0 L12.0 100.0 L23.9 111.9 L61.6 149.5 L61.6 233.5 L61.6 298.2 L92.0 328.7 L98.9 335.5 L98.9 519.4 L98.9 670.8 L96.3 673.4 L91.8 677.9 L91.8 746.3 L91.8 813.7 L86.8 818.7 L82.2 823.2 L82.2 877.9 L99.8 860.4 L183.8 860.4 L183.8 883.0 L238.5 937.7 L237.9 937.7 L163.6 1012.0 " />
<circle cx="12.0" cy="12.0" r="8" />
<circle cx="23.9" cy="111.9" r="8" />
<circle cx="61.6" cy="233.5" r="8" />
<circle cx="92.0" cy="328.7" r="8" />
<circle cx="98.9" cy="519.4" r="8" />
<circle cx="96.3" cy="673.4" r="8" />
<circle cx="91.8" cy="746.3" r="8" />
<circle cx="86.8" cy="818.7" r="8" />
<circle cx="82.2" cy="877.9" r="8" />
<circle cx="183.8" cy="860.4" r="8" />
<circle cx="238.5" cy="937.7" r="8" />
<circle cx="163.6" cy="1012.0" r="8" />
<style>
circle {
fill: white;
stroke: #000000;
stroke-width: 4;
}
path {
fill: none;
stroke: #000000;
stroke-width: 8;
}</style>
</svg>