<svg width="1024.0" height="927.2" xmlns="http://www.w3.org/2000/svg">
<path d="M1012.0 915.2476195121849 L979.9 883.2 L979.9 838.2 L979.9 806.9 L994.7 792.1 L972.3 769.8 L855.0 769.8 L852.7 767.5 L852.7 750.7 L852.7 737.1 L882.2 707.7 L912.2 677.6 L912.2 636.8 L912.2 589.6 L916.0 585.8 L886.3 556.1 L867.2 556.1 L789.5 556.1 L760.1 526.7 L839.0 526.7 L945.7 420.0 L965.2 400.6 L965.2 389.9 L964.2 389.9 L921.5 347.2 L912.1 337.8 L806.5 337.8 L745.2 337.8 L712.1 370.9 L703.9 379.1 L656.8 379.1 L655.3 379.1 L587.7 311.5 L604.9 294.3 L604.9 280.0 L613.7 288.8 L686.0 288.8 L718.0 288.8 L736.6 270.2 L710.3 243.9 L710.3 216.4 L646.9 216.4 L597.1 166.6 L553.1 122.6 L524.1 122.6 L502.6 122.6 L468.3 88.3 L425.7 45.7 L390.2 45.7 L348.8 45.7 L315.1 12.0 L293.1 12.0 L282.6 22.5 L193.9 111.3 L113.2 111.3 L72.5 111.3 L12.0 171.8 L50.2 171.8 L138.4 260.0 L212.1 333.7 L271.0 333.7 L279.8 333.7 L313.1 300.5 L327.3 314.7 L356.1 314.7 L358.2 314.7 L398.0 274.9 L397.8 274.7 L397.8 247.6 L390.6 247.6 L337.4 194.4 L301.6 158.6 L258.7 158.6 L358.7 258.6 L358.7 326.1 L405.4 326.1 L553.2 473.9 L573.8 494.5 L655.6 494.5 " />
<circle cx="1012.0" cy="915.2" r="8" />
<circle cx="979.9" cy="838.2" r="8" />
<circle cx="994.7" cy="792.1" r="8" />
<circle cx="855.0" cy="769.8" r="8" />
<circle cx="852.7" cy="750.7" r="8" />
<circle cx="882.2" cy="707.7" r="8" />
<circle cx="912.2" cy="636.8" r="8" />
<circle cx="916.0" cy="585.8" r="8" />
<circle cx="867.2" cy="556.1" r="8" />
<circle cx="760.1" cy="526.7" r="8" />
<circle cx="945.7" cy="420.0" r="8" />
<circle cx="965.2" cy="389.9" r="8" />
<circle cx="921.5" cy="347.2" r="8" />
<circle cx="806.5" cy="337.8" r="8" />
<circle cx="712.1" cy="370.9" r="8" />
<circle cx="656.8" cy="379.1" r="8" />
<circle cx="587.7" cy="311.5" r="8" />
<circle cx="604.9" cy="280.0" r="8" />
<circle cx="686.0" cy="288.8" r="8" />
<circle cx="736.6" cy="270.2" r="8" />
<circle cx="710.3" cy="216.4" r="8" />
<circle cx="597.1" cy="166.6" r="8" />
<circle cx="524.1" cy="122.6" r="8" />
<circle cx="468.3" cy="88.3" r="8" />
<circle cx="390.2" cy="45.7" r="8" />
<circle cx="315.1" cy="12.0" r="8" />
<circle cx="282.6" cy="22.5" r="8" />
<circle cx="113.2" cy="111.3" r="8" />
<circle cx="12.0" cy="171.8" r="8" />
<circle cx="138.4" cy="260.0" r="8" />
<circle cx="271.0" cy="333.7" r="8" />
<circle cx="313.1" cy="300.5" r="8" />
<circle cx="356.1" cy="314.7" r="8" />
<circle cx="398.0" cy="274.9" r="8" />
<circle cx="397.8" cy="247.6" r="8" />
<circle cx="337.4" cy="194.4" r="8" />
<circle cx="258.7" cy="158.6" r="8" />
<circle cx="358.7" cy="326.1" r="8" />
<circle cx="553.2" cy="473.9" r="8" />
<circle cx="655.6" cy="494.5" r="8" />
<style>
circle {
fill: white;
stroke: #000000;
stroke-width: 4;
}
path {
fill: none;
stroke: #000000;
stroke-width: 8;
}</style>
</svg>