<svg width="1024.0" height="426.6" xmlns="http://www.w3.org/2000/svg">
<path d="M76.1 414.6 L76.1 404.4 L111.1 369.4 L57.1 369.4 L40.9 385.7 L14.4 359.2 L12.0 359.2 L12.0 346.5 L40.7 317.8 L65.7 292.8 L166.7 292.8 L166.7 236.9 L186.9 216.8 L186.0 216.0 L186.0 168.4 L186.0 125.2 L257.9 53.3 L281.0 30.2 L283.1 30.2 L264.9 12.0 L252.3 12.0 L288.6 48.3 L444.0 48.3 L513.5 48.3 L533.2 67.9 L630.5 165.2 L699.1 165.2 L699.1 166.3 L731.1 198.4 L769.2 236.5 L832.4 236.5 L916.6 236.5 L940.1 260.0 L982.7 217.3 L1012.0 217.3 L978.8 184.2 L972.4 184.2 " />
<circle cx="76.1" cy="414.6" r="8" />
<circle cx="111.1" cy="369.4" r="8" />
<circle cx="40.9" cy="385.7" r="8" />
<circle cx="12.0" cy="359.2" r="8" />
<circle cx="40.7" cy="317.8" r="8" />
<circle cx="166.7" cy="292.8" r="8" />
<circle cx="186.9" cy="216.8" r="8" />
<circle cx="186.0" cy="168.4" r="8" />
<circle cx="257.9" cy="53.3" r="8" />
<circle cx="283.1" cy="30.2" r="8" />
<circle cx="252.3" cy="12.0" r="8" />
<circle cx="444.0" cy="48.3" r="8" />
<circle cx="533.2" cy="67.9" r="8" />
<circle cx="699.1" cy="165.2" r="8" />
<circle cx="731.1" cy="198.4" r="8" />
<circle cx="832.4" cy="236.5" r="8" />
<circle cx="940.1" cy="260.0" r="8" />
<circle cx="1012.0" cy="217.3" r="8" />
<circle cx="972.4" cy="184.2" r="8" />
<style>
circle {
fill: white;
stroke: black;
stroke-width: 4;
}
path {
fill: none;
stroke: #FFFFFF;
stroke-width: 8;
}</style>
</svg>