<svg width="1024.0" height="302.3" xmlns="http://www.w3.org/2000/svg">
<path d="M12.0 12.0 L13.2 13.2 L132.2 13.2 L225.8 13.2 L228.2 15.6 L230.6 17.9 L286.2 17.9 L359.4 17.9 L378.6 37.1 L396.7 55.2 L446.5 55.2 L478.0 55.2 L489.8 67.0 L514.4 91.6 L553.6 91.6 L575.4 91.6 L613.6 129.9 L631.6 147.8 L644.9 147.8 L695.7 147.8 L702.6 154.6 L714.3 166.3 L787.6 166.3 L828.5 166.3 L842.5 180.3 L861.2 199.0 L914.2 199.0 L894.9 218.2 L894.9 230.9 L948.1 230.9 L954.5 237.2 L959.4 242.1 L992.9 242.1 L992.9 271.2 L1012.0 290.3 " />
<circle cx="12.0" cy="12.0" r="8" />
<circle cx="132.2" cy="13.2" r="8" />
<circle cx="228.2" cy="15.6" r="8" />
<circle cx="286.2" cy="17.9" r="8" />
<circle cx="378.6" cy="37.1" r="8" />
<circle cx="446.5" cy="55.2" r="8" />
<circle cx="489.8" cy="67.0" r="8" />
<circle cx="553.6" cy="91.6" r="8" />
<circle cx="613.6" cy="129.9" r="8" />
<circle cx="644.9" cy="147.8" r="8" />
<circle cx="702.6" cy="154.6" r="8" />
<circle cx="787.6" cy="166.3" r="8" />
<circle cx="842.5" cy="180.3" r="8" />
<circle cx="914.2" cy="199.0" r="8" />
<circle cx="894.9" cy="230.9" r="8" />
<circle cx="954.5" cy="237.2" r="8" />
<circle cx="992.9" cy="242.1" r="8" />
<circle cx="1012.0" cy="290.3" r="8" />
<style>
circle {
fill: white;
stroke: #000000;
stroke-width: 4;
}
path {
fill: none;
stroke: #000000;
stroke-width: 8;
}</style>
</svg>