<svg width="1024.0" height="302.4" xmlns="http://www.w3.org/2000/svg">
<path d="M12.0 12.0 L14.9 14.9 L137.3 14.9 L230.3 14.9 L232.6 17.2 L235.0 19.6 L290.2 19.6 L362.9 19.6 L381.9 38.6 L399.9 56.6 L449.3 56.6 L480.6 56.6 L492.3 68.3 L516.8 92.7 L555.7 92.7 L577.4 92.7 L615.3 130.7 L633.2 148.5 L646.4 148.5 L696.9 148.5 L703.7 155.3 L715.3 166.9 L788.1 166.9 L828.7 166.9 L842.6 180.8 L861.2 199.4 L913.8 199.4 L894.7 218.5 L894.7 231.0 L947.5 231.0 L953.8 237.3 L958.7 242.2 L991.9 242.2 L991.9 270.3 L1012.0 290.4 " />
<circle cx="12.0" cy="12.0" r="8" />
<circle cx="137.3" cy="14.9" r="8" />
<circle cx="232.6" cy="17.2" r="8" />
<circle cx="290.2" cy="19.6" r="8" />
<circle cx="381.9" cy="38.6" r="8" />
<circle cx="449.3" cy="56.6" r="8" />
<circle cx="492.3" cy="68.3" r="8" />
<circle cx="555.7" cy="92.7" r="8" />
<circle cx="615.3" cy="130.7" r="8" />
<circle cx="646.4" cy="148.5" r="8" />
<circle cx="703.7" cy="155.3" r="8" />
<circle cx="788.1" cy="166.9" r="8" />
<circle cx="842.6" cy="180.8" r="8" />
<circle cx="913.8" cy="199.4" r="8" />
<circle cx="894.7" cy="231.0" r="8" />
<circle cx="953.8" cy="237.3" r="8" />
<circle cx="991.9" cy="242.2" r="8" />
<circle cx="1012.0" cy="290.4" r="8" />
<style>
circle {
fill: white;
stroke: #000000;
stroke-width: 4;
}
path {
fill: none;
stroke: #000000;
stroke-width: 8;
}</style>
</svg>