<svg width="1024.0" height="181.4" xmlns="http://www.w3.org/2000/svg">
<path d="M1012.0000000000001 99.35788934838192 L969.6 99.4 L938.8 68.5 L926.8 56.6 L907.8 56.6 L892.5 56.6 L886.8 50.9 L878.0 42.1 L853.9 42.1 L818.3 42.1 L809.0 32.8 L807.9 31.6 L780.9 31.6 L735.5 31.6 L734.3 30.5 L732.9 29.1 L673.1 29.1 L622.8 29.1 L614.0 20.3 L605.7 12.0 L569.0 12.0 L552.5 28.6 L552.5 32.7 L552.5 45.3 L564.0 56.8 L574.1 67.0 L574.1 78.9 L574.1 90.7 L584.4 101.0 L580.0 96.6 L515.8 96.6 L515.8 94.8 L507.5 86.5 L503.5 82.6 L485.2 82.6 L424.1 82.6 L420.7 79.2 L417.8 76.3 L382.7 76.3 L353.8 76.3 L353.6 76.2 L349.7 72.3 L318.7 72.3 L267.4 72.3 L261.0 65.9 L261.0 69.7 L252.9 77.8 L252.9 88.3 L253.5 88.9 L254.7 90.1 L254.7 109.2 L254.7 151.2 L253.2 152.7 L215.5 152.7 L213.5 150.8 L211.6 148.9 L179.9 148.9 L68.6 148.9 L56.8 160.7 L51.3 166.1 L24.7 166.1 L15.3 166.1 L12.0 169.4 " />
<circle cx="1012.0" cy="99.4" r="8" />
<circle cx="938.8" cy="68.5" r="8" />
<circle cx="907.8" cy="56.6" r="8" />
<circle cx="886.8" cy="50.9" r="8" />
<circle cx="853.9" cy="42.1" r="8" />
<circle cx="809.0" cy="32.8" r="8" />
<circle cx="780.9" cy="31.6" r="8" />
<circle cx="734.3" cy="30.5" r="8" />
<circle cx="673.1" cy="29.1" r="8" />
<circle cx="614.0" cy="20.3" r="8" />
<circle cx="569.0" cy="12.0" r="8" />
<circle cx="552.5" cy="32.7" r="8" />
<circle cx="564.0" cy="56.8" r="8" />
<circle cx="574.1" cy="78.9" r="8" />
<circle cx="584.4" cy="101.0" r="8" />
<circle cx="515.8" cy="96.6" r="8" />
<circle cx="507.5" cy="86.5" r="8" />
<circle cx="485.2" cy="82.6" r="8" />
<circle cx="420.7" cy="79.2" r="8" />
<circle cx="382.7" cy="76.3" r="8" />
<circle cx="353.6" cy="76.2" r="8" />
<circle cx="318.7" cy="72.3" r="8" />
<circle cx="261.0" cy="65.9" r="8" />
<circle cx="252.9" cy="77.8" r="8" />
<circle cx="253.5" cy="88.9" r="8" />
<circle cx="254.7" cy="109.2" r="8" />
<circle cx="253.2" cy="152.7" r="8" />
<circle cx="213.5" cy="150.8" r="8" />
<circle cx="179.9" cy="148.9" r="8" />
<circle cx="56.8" cy="160.7" r="8" />
<circle cx="24.7" cy="166.1" r="8" />
<circle cx="12.0" cy="169.4" r="8" />
<style>
circle {
fill: white;
stroke: #525252;
stroke-width: 4;
}
path {
fill: none;
stroke: #525252;
stroke-width: 8;
}</style>
</svg>