<svg width="1024.0" height="181.4" xmlns="http://www.w3.org/2000/svg">
<path d="M12.0 169.40709883804175 L21.4 169.4 L24.7 166.1 L30.1 160.7 L56.8 160.7 L168.0 160.7 L179.9 148.9 L211.6 148.9 L213.5 150.8 L254.7 109.6 L254.7 109.2 L254.7 90.1 L253.5 88.9 L252.9 88.3 L252.9 77.8 L252.9 73.9 L261.0 65.9 L312.3 65.9 L318.7 72.3 L322.6 76.2 L353.6 76.2 L382.6 76.2 L382.7 76.3 L385.6 79.2 L420.7 79.2 L481.9 79.2 L485.2 82.6 L489.1 86.5 L507.5 86.5 L515.8 94.8 L515.8 96.6 L520.2 101.0 L584.4 101.0 L584.4 89.1 L574.1 78.9 L564.0 68.7 L564.0 56.8 L564.0 44.2 L552.5 32.7 L552.5 28.6 L569.0 12.0 L605.7 12.0 L614.0 20.3 L622.8 29.1 L673.1 29.1 L732.9 29.1 L734.3 30.5 L735.5 31.6 L780.9 31.6 L807.9 31.6 L809.0 32.8 L818.3 42.1 L853.9 42.1 L878.0 42.1 L886.8 50.9 L892.5 56.6 L907.8 56.6 L926.8 56.6 L938.8 68.5 L957.3 87.1 L967.9 87.1 L974.4 87.1 L983.1 95.8 L986.6 99.4 L1012.0 99.4 " />
<circle cx="12.0" cy="169.4" r="8" />
<circle cx="24.7" cy="166.1" r="8" />
<circle cx="56.8" cy="160.7" r="8" />
<circle cx="179.9" cy="148.9" r="8" />
<circle cx="213.5" cy="150.8" r="8" />
<circle cx="254.7" cy="109.2" r="8" />
<circle cx="253.5" cy="88.9" r="8" />
<circle cx="252.9" cy="77.8" r="8" />
<circle cx="261.0" cy="65.9" r="8" />
<circle cx="318.7" cy="72.3" r="8" />
<circle cx="353.6" cy="76.2" r="8" />
<circle cx="382.7" cy="76.3" r="8" />
<circle cx="420.7" cy="79.2" r="8" />
<circle cx="485.2" cy="82.6" r="8" />
<circle cx="507.5" cy="86.5" r="8" />
<circle cx="515.8" cy="96.6" r="8" />
<circle cx="584.4" cy="101.0" r="8" />
<circle cx="574.1" cy="78.9" r="8" />
<circle cx="564.0" cy="56.8" r="8" />
<circle cx="552.5" cy="32.7" r="8" />
<circle cx="569.0" cy="12.0" r="8" />
<circle cx="614.0" cy="20.3" r="8" />
<circle cx="673.1" cy="29.1" r="8" />
<circle cx="734.3" cy="30.5" r="8" />
<circle cx="780.9" cy="31.6" r="8" />
<circle cx="809.0" cy="32.8" r="8" />
<circle cx="853.9" cy="42.1" r="8" />
<circle cx="886.8" cy="50.9" r="8" />
<circle cx="907.8" cy="56.6" r="8" />
<circle cx="938.8" cy="68.5" r="8" />
<circle cx="967.9" cy="87.1" r="8" />
<circle cx="983.1" cy="95.8" r="8" />
<circle cx="1012.0" cy="99.4" r="8" />
<style>
circle {
fill: white;
stroke: #525252;
stroke-width: 4;
}
path {
fill: none;
stroke: #525252;
stroke-width: 8;
}</style>
</svg>