<svg width="1024.0" height="747.5" xmlns="http://www.w3.org/2000/svg">
<path d="M1007.0 735.5 L992.5 720.9 L963.4 720.9 L963.4 628.2 L999.7 591.9 L1012.0 579.6 L1012.0 523.9 L1012.0 516.3 L994.5 498.8 L973.8 478.1 L808.8 478.1 L680.1 478.1 L661.2 459.2 L647.7 445.7 L610.7 445.7 L631.7 424.7 L651.6 424.7 L677.9 424.7 L705.5 397.1 L738.2 364.4 L769.3 364.4 L835.1 364.4 L887.6 311.9 L917.6 281.9 L917.6 254.4 L692.6 254.4 L526.0 421.0 L315.3 210.2 L252.2 210.2 L250.0 210.2 L214.4 174.6 L194.5 154.8 L194.5 137.2 L194.5 129.2 L121.7 56.4 L93.7 28.3 L93.7 12.0 L32.0 12.0 L29.5 14.6 L27.1 16.9 L12.0 16.9 " />
<circle cx="1007.0" cy="735.5" r="8" />
<circle cx="963.4" cy="720.9" r="8" />
<circle cx="999.7" cy="591.9" r="8" />
<circle cx="1012.0" cy="523.9" r="8" />
<circle cx="994.5" cy="498.8" r="8" />
<circle cx="808.8" cy="478.1" r="8" />
<circle cx="661.2" cy="459.2" r="8" />
<circle cx="610.7" cy="445.7" r="8" />
<circle cx="651.6" cy="424.7" r="8" />
<circle cx="705.5" cy="397.1" r="8" />
<circle cx="769.3" cy="364.4" r="8" />
<circle cx="887.6" cy="311.9" r="8" />
<circle cx="917.6" cy="254.4" r="8" />
<circle cx="526.0" cy="421.0" r="8" />
<circle cx="252.2" cy="210.2" r="8" />
<circle cx="214.4" cy="174.6" r="8" />
<circle cx="194.5" cy="137.2" r="8" />
<circle cx="121.7" cy="56.4" r="8" />
<circle cx="93.7" cy="12.0" r="8" />
<circle cx="29.5" cy="14.6" r="8" />
<circle cx="12.0" cy="16.9" r="8" />
<style>
circle {
fill: white;
stroke: #525252;
stroke-width: 4;
}
path {
fill: none;
stroke: #525252;
stroke-width: 8;
}</style>
</svg>