<svg width="498.7" height="1024.0" xmlns="http://www.w3.org/2000/svg">
<path d="M12.0 1012.0 L12.0 1001.0 L81.3 931.6 L141.0 872.0 L141.0 867.7 L141.0 864.8 L180.1 825.6 L209.1 796.6 L209.1 793.7 L209.1 789.0 L236.6 761.5 L269.3 728.8 L269.3 709.5 L275.4 709.5 L329.2 655.7 L374.7 610.2 L378.2 610.2 L479.2 610.2 L486.7 617.7 L486.7 600.2 L466.2 579.7 L427.7 541.2 L427.7 535.2 L411.1 535.2 L385.7 509.8 L368.8 492.9 L321.5 492.9 L264.2 492.9 L244.7 473.3 L224.9 453.5 L170.9 453.5 L170.9 440.3 L199.7 411.4 L225.5 385.6 L235.2 385.6 L188.4 338.8 L172.5 338.8 L125.6 338.8 L92.4 305.5 L60.7 273.9 L23.8 273.9 L23.8 254.2 L49.4 228.6 L104.6 173.4 L127.9 173.4 L127.9 149.5 L146.0 131.4 L124.3 109.6 L124.3 99.0 L124.3 52.7 L101.2 29.6 L123.9 29.6 L141.5 12.0 " />
<circle cx="12.0" cy="1012.0" r="8" />
<circle cx="81.3" cy="931.6" r="8" />
<circle cx="141.0" cy="867.7" r="8" />
<circle cx="180.1" cy="825.6" r="8" />
<circle cx="209.1" cy="793.7" r="8" />
<circle cx="236.6" cy="761.5" r="8" />
<circle cx="269.3" cy="709.5" r="8" />
<circle cx="329.2" cy="655.7" r="8" />
<circle cx="378.2" cy="610.2" r="8" />
<circle cx="486.7" cy="617.7" r="8" />
<circle cx="466.2" cy="579.7" r="8" />
<circle cx="427.7" cy="535.2" r="8" />
<circle cx="385.7" cy="509.8" r="8" />
<circle cx="321.5" cy="492.9" r="8" />
<circle cx="244.7" cy="473.3" r="8" />
<circle cx="170.9" cy="453.5" r="8" />
<circle cx="199.7" cy="411.4" r="8" />
<circle cx="235.2" cy="385.6" r="8" />
<circle cx="172.5" cy="338.8" r="8" />
<circle cx="92.4" cy="305.5" r="8" />
<circle cx="23.8" cy="273.9" r="8" />
<circle cx="49.4" cy="228.6" r="8" />
<circle cx="127.9" cy="173.4" r="8" />
<circle cx="146.0" cy="131.4" r="8" />
<circle cx="124.3" cy="99.0" r="8" />
<circle cx="101.2" cy="29.6" r="8" />
<circle cx="141.5" cy="12.0" r="8" />
<style>
circle {
fill: white;
stroke: #FF671F;
stroke-width: 4;
}
path {
fill: none;
stroke: #FF671F;
stroke-width: 8;
}</style>
</svg>