<svg width="1024.0" height="356.5" xmlns="http://www.w3.org/2000/svg">
<path d="M1012.0 261.1393892836276 L927.8 261.1 L914.5 247.9 L911.0 244.4 L842.7 244.4 L766.7 244.4 L764.8 242.5 L759.1 248.2 L632.6 248.2 L529.4 248.2 L520.0 238.8 L545.0 213.8 L549.9 213.8 L547.1 213.8 L479.5 281.4 L465.0 295.9 L465.0 344.5 L435.9 315.5 L370.5 315.5 L296.7 315.5 L278.0 296.8 L144.6 163.4 L102.4 163.4 L137.9 127.8 L137.9 117.1 L137.9 92.6 L137.7 92.4 L89.6 44.4 L83.1 44.4 L44.4 44.4 L12.0 12.0 " />
<circle cx="1012.0" cy="261.1" r="8" />
<circle cx="914.5" cy="247.9" r="8" />
<circle cx="842.7" cy="244.4" r="8" />
<circle cx="764.8" cy="242.5" r="8" />
<circle cx="632.6" cy="248.2" r="8" />
<circle cx="520.0" cy="238.8" r="8" />
<circle cx="549.9" cy="213.8" r="8" />
<circle cx="479.5" cy="281.4" r="8" />
<circle cx="465.0" cy="344.5" r="8" />
<circle cx="370.5" cy="315.5" r="8" />
<circle cx="278.0" cy="296.8" r="8" />
<circle cx="102.4" cy="163.4" r="8" />
<circle cx="137.9" cy="117.1" r="8" />
<circle cx="137.7" cy="92.4" r="8" />
<circle cx="83.1" cy="44.4" r="8" />
<circle cx="12.0" cy="12.0" r="8" />
<style>
circle {
fill: white;
stroke: #525252;
stroke-width: 4;
}
path {
fill: none;
stroke: #525252;
stroke-width: 8;
}</style>
</svg>