<svg width="1024.0" height="556.6" xmlns="http://www.w3.org/2000/svg">
<path d="M189.8 474.0 L243.0 420.8 L392.0 420.8 L477.2 420.8 L601.0 544.6 L602.5 543.0 L739.1 543.0 L662.8 466.7 L615.4 466.7 L585.0 436.3 L585.0 349.5 L719.7 349.5 L796.2 273.0 L872.0 197.2 L1012.0 197.2 L862.0 47.3 L763.6 47.3 L671.6 47.3 L586.5 132.4 L466.1 12.0 L304.6 12.0 L373.0 80.4 L373.0 137.7 L72.2 137.7 L12.0 197.9 L85.7 197.9 L170.9 283.1 " />
<circle cx="189.8" cy="474.0" r="8" />
<circle cx="392.0" cy="420.8" r="8" />
<circle cx="601.0" cy="544.6" r="8" />
<circle cx="739.1" cy="543.0" r="8" />
<circle cx="615.4" cy="466.7" r="8" />
<circle cx="585.0" cy="349.5" r="8" />
<circle cx="796.2" cy="273.0" r="8" />
<circle cx="1012.0" cy="197.2" r="8" />
<circle cx="763.6" cy="47.3" r="8" />
<circle cx="586.5" cy="132.4" r="8" />
<circle cx="304.6" cy="12.0" r="8" />
<circle cx="373.0" cy="137.7" r="8" />
<circle cx="12.0" cy="197.9" r="8" />
<circle cx="170.9" cy="283.1" r="8" />
<style>
circle {
fill: white;
stroke: #525252;
stroke-width: 4;
}
path {
fill: none;
stroke: #525252;
stroke-width: 8;
}</style>
</svg>