<svg width="1024.0" height="652.9" xmlns="http://www.w3.org/2000/svg">
<path d="M899.638228692151 640.8588990589436 L899.6 606.3 L913.8 592.2 L953.2 552.8 L953.2 525.3 L954.0 525.3 L995.5 483.8 L1012.0 467.3 L1012.0 436.1 L981.5 436.1 L859.8 314.4 L815.0 269.6 L715.5 269.6 L715.5 301.7 L711.7 305.5 L684.7 332.5 L684.7 351.9 L611.9 351.9 L600.5 340.5 L597.4 337.4 L538.3 337.4 L472.7 337.4 L471.0 335.8 L452.4 317.1 L371.9 317.1 L370.9 316.1 L370.9 269.4 L370.9 257.8 L331.2 218.1 L275.0 161.9 L275.0 144.1 L259.8 144.1 L211.4 95.7 L155.5 39.9 L150.1 39.9 L130.9 39.9 L103.0 12.0 L77.3 12.0 L63.0 26.3 L33.5 55.9 L12.0 55.9 " />
<circle cx="899.6" cy="640.9" r="8" />
<circle cx="913.8" cy="592.2" r="8" />
<circle cx="953.2" cy="525.3" r="8" />
<circle cx="995.5" cy="483.8" r="8" />
<circle cx="1012.0" cy="436.1" r="8" />
<circle cx="859.8" cy="314.4" r="8" />
<circle cx="715.5" cy="269.6" r="8" />
<circle cx="711.7" cy="305.5" r="8" />
<circle cx="684.7" cy="351.9" r="8" />
<circle cx="600.5" cy="340.5" r="8" />
<circle cx="538.3" cy="337.4" r="8" />
<circle cx="471.0" cy="335.8" r="8" />
<circle cx="371.9" cy="317.1" r="8" />
<circle cx="370.9" cy="269.4" r="8" />
<circle cx="331.2" cy="218.1" r="8" />
<circle cx="275.0" cy="144.1" r="8" />
<circle cx="211.4" cy="95.7" r="8" />
<circle cx="150.1" cy="39.9" r="8" />
<circle cx="103.0" cy="12.0" r="8" />
<circle cx="63.0" cy="26.3" r="8" />
<circle cx="12.0" cy="55.9" r="8" />
<style>
circle {
fill: white;
stroke: #525252;
stroke-width: 4;
}
path {
fill: none;
stroke: #525252;
stroke-width: 8;
}</style>
</svg>