<svg width="1024.0" height="652.9" xmlns="http://www.w3.org/2000/svg">
<path d="M12.0 55.86665440585011 L41.5 26.3 L63.0 26.3 L88.7 26.3 L103.0 12.0 L122.3 12.0 L150.1 39.9 L206.0 95.7 L211.4 95.7 L226.6 95.7 L275.0 144.1 L331.2 200.3 L331.2 218.1 L331.2 229.7 L370.9 269.4 L371.9 270.4 L371.9 317.1 L395.7 341.0 L396.6 341.0 L465.9 341.0 L471.0 335.8 L536.7 335.8 L538.3 337.4 L541.4 340.5 L600.5 340.5 L673.3 340.5 L684.7 351.9 L711.7 324.9 L711.7 305.5 L711.7 273.4 L715.5 269.6 L815.0 269.6 L859.8 314.4 L873.3 327.9 L873.3 369.6 L873.3 370.3 L851.3 392.4 L895.0 436.1 L1012.0 436.1 L1012.0 467.3 L995.5 483.8 L954.0 525.3 L953.2 525.3 L913.8 564.7 L913.8 592.2 L913.8 626.7 L899.6 640.9 " />
<circle cx="12.0" cy="55.9" r="8" />
<circle cx="63.0" cy="26.3" r="8" />
<circle cx="103.0" cy="12.0" r="8" />
<circle cx="150.1" cy="39.9" r="8" />
<circle cx="211.4" cy="95.7" r="8" />
<circle cx="275.0" cy="144.1" r="8" />
<circle cx="331.2" cy="218.1" r="8" />
<circle cx="370.9" cy="269.4" r="8" />
<circle cx="371.9" cy="317.1" r="8" />
<circle cx="396.6" cy="341.0" r="8" />
<circle cx="471.0" cy="335.8" r="8" />
<circle cx="538.3" cy="337.4" r="8" />
<circle cx="600.5" cy="340.5" r="8" />
<circle cx="684.7" cy="351.9" r="8" />
<circle cx="711.7" cy="305.5" r="8" />
<circle cx="715.5" cy="269.6" r="8" />
<circle cx="859.8" cy="314.4" r="8" />
<circle cx="873.3" cy="369.6" r="8" />
<circle cx="851.3" cy="392.4" r="8" />
<circle cx="1012.0" cy="436.1" r="8" />
<circle cx="995.5" cy="483.8" r="8" />
<circle cx="953.2" cy="525.3" r="8" />
<circle cx="913.8" cy="592.2" r="8" />
<circle cx="899.6" cy="640.9" r="8" />
<style>
circle {
fill: white;
stroke: #525252;
stroke-width: 4;
}
path {
fill: none;
stroke: #525252;
stroke-width: 8;
}</style>
</svg>