<svg width="1024.0" height="666.9" xmlns="http://www.w3.org/2000/svg">
<path d="M883.0 645.0 L892.9 654.9 L955.2 654.9 L955.2 643.2 L983.7 614.7 L1012.0 586.5 L1012.0 552.5 L973.3 552.5 L956.0 535.3 L945.0 524.2 L901.2 524.2 L866.2 524.2 L789.2 447.2 L784.5 442.6 L762.7 442.6 L755.4 442.6 L748.6 449.4 L708.8 409.7 L679.1 409.7 L659.9 409.7 L612.1 362.0 L588.5 338.3 L566.3 338.3 L521.7 338.3 L447.1 263.8 L407.5 224.1 L390.4 224.1 L279.8 224.1 L243.7 188.0 L234.0 197.8 L234.0 204.4 L188.2 204.4 L175.0 191.2 L157.7 173.9 L133.7 173.9 L88.8 173.9 L66.2 151.3 L54.0 151.3 L33.6 171.8 L19.4 186.0 L12.0 186.0 L41.5 156.5 L90.9 156.5 L101.3 156.5 L107.3 150.4 L146.5 111.3 L157.9 111.3 L167.8 111.3 L208.1 71.0 L192.6 55.5 L192.6 12.0 " />
<circle cx="883.0" cy="645.0" r="8" />
<circle cx="955.2" cy="654.9" r="8" />
<circle cx="983.7" cy="614.7" r="8" />
<circle cx="1012.0" cy="552.5" r="8" />
<circle cx="956.0" cy="535.3" r="8" />
<circle cx="901.2" cy="524.2" r="8" />
<circle cx="789.2" cy="447.2" r="8" />
<circle cx="762.7" cy="442.6" r="8" />
<circle cx="748.6" cy="449.4" r="8" />
<circle cx="679.1" cy="409.7" r="8" />
<circle cx="612.1" cy="362.0" r="8" />
<circle cx="566.3" cy="338.3" r="8" />
<circle cx="447.1" cy="263.8" r="8" />
<circle cx="390.4" cy="224.1" r="8" />
<circle cx="243.7" cy="188.0" r="8" />
<circle cx="234.0" cy="204.4" r="8" />
<circle cx="175.0" cy="191.2" r="8" />
<circle cx="133.7" cy="173.9" r="8" />
<circle cx="66.2" cy="151.3" r="8" />
<circle cx="33.6" cy="171.8" r="8" />
<circle cx="12.0" cy="186.0" r="8" />
<circle cx="90.9" cy="156.5" r="8" />
<circle cx="107.3" cy="150.4" r="8" />
<circle cx="157.9" cy="111.3" r="8" />
<circle cx="208.1" cy="71.0" r="8" />
<circle cx="192.6" cy="12.0" r="8" />
<style>
circle {
fill: white;
stroke: #525252;
stroke-width: 4;
}
path {
fill: none;
stroke: #525252;
stroke-width: 8;
}</style>
</svg>