<svg width="1024.0" height="260.5" xmlns="http://www.w3.org/2000/svg">
<path d="M12.0 248.5 L22.2 238.3 L32.6 238.3 L21.5 227.1 L21.5 211.2 L21.5 187.0 L41.4 167.1 L13.3 139.0 L13.3 135.1 L13.3 108.0 L30.0 91.3 L48.9 72.4 L48.9 66.3 L48.9 66.4 L112.3 66.4 L112.3 41.7 L113.0 41.0 L132.5 21.6 L132.5 12.0 L143.1 22.6 L185.5 22.6 L232.4 22.6 L239.9 30.1 L247.6 37.8 L295.2 37.8 L393.9 37.8 L396.8 40.7 L396.8 24.9 L404.2 17.5 L426.2 39.4 L437.9 39.4 L430.3 47.0 L430.3 53.4 L430.3 62.3 L413.0 79.6 L455.3 79.6 L458.3 76.5 L481.5 99.7 L510.9 99.7 L565.4 99.7 L570.0 104.4 L587.8 122.2 L643.2 122.2 L671.0 122.2 L679.0 130.2 L697.3 148.5 L697.3 159.1 L723.3 159.1 L746.3 182.1 L776.9 212.7 L781.9 212.7 L781.9 201.9 L810.1 173.7 L825.4 158.4 L847.4 158.4 L867.7 158.4 L878.8 169.5 L887.8 178.5 L897.4 178.5 L914.1 178.5 L931.6 160.9 L937.0 166.3 L978.9 166.3 L1000.7 166.3 L1012.0 177.6 " />
<circle cx="12.0" cy="248.5" r="8" />
<circle cx="32.6" cy="238.3" r="8" />
<circle cx="21.5" cy="211.2" r="8" />
<circle cx="41.4" cy="167.1" r="8" />
<circle cx="13.3" cy="135.1" r="8" />
<circle cx="30.0" cy="91.3" r="8" />
<circle cx="48.9" cy="66.3" r="8" />
<circle cx="112.3" cy="66.4" r="8" />
<circle cx="113.0" cy="41.0" r="8" />
<circle cx="132.5" cy="12.0" r="8" />
<circle cx="185.5" cy="22.6" r="8" />
<circle cx="239.9" cy="30.1" r="8" />
<circle cx="295.2" cy="37.8" r="8" />
<circle cx="396.8" cy="40.7" r="8" />
<circle cx="404.2" cy="17.5" r="8" />
<circle cx="437.9" cy="39.4" r="8" />
<circle cx="430.3" cy="53.4" r="8" />
<circle cx="413.0" cy="79.6" r="8" />
<circle cx="458.3" cy="76.5" r="8" />
<circle cx="510.9" cy="99.7" r="8" />
<circle cx="570.0" cy="104.4" r="8" />
<circle cx="643.2" cy="122.2" r="8" />
<circle cx="679.0" cy="130.2" r="8" />
<circle cx="697.3" cy="159.1" r="8" />
<circle cx="746.3" cy="182.1" r="8" />
<circle cx="781.9" cy="212.7" r="8" />
<circle cx="810.1" cy="173.7" r="8" />
<circle cx="847.4" cy="158.4" r="8" />
<circle cx="878.8" cy="169.5" r="8" />
<circle cx="897.4" cy="178.5" r="8" />
<circle cx="931.6" cy="160.9" r="8" />
<circle cx="978.9" cy="166.3" r="8" />
<circle cx="1012.0" cy="177.6" r="8" />
<style>
circle {
fill: white;
stroke: #000000;
stroke-width: 4;
}
path {
fill: none;
stroke: #000000;
stroke-width: 8;
}</style>
</svg>