<svg width="1024.0" height="261.6" xmlns="http://www.w3.org/2000/svg">
<path d="M12.0 249.6 L22.3 239.3 L32.7 239.3 L21.5 228.1 L21.5 212.2 L21.5 187.8 L41.5 167.8 L13.3 139.6 L13.3 135.7 L13.3 108.4 L30.1 91.6 L49.0 72.7 L49.0 66.6 L49.1 66.6 L112.8 66.6 L112.8 41.8 L113.5 41.2 L133.0 21.6 L133.0 12.0 L143.7 22.7 L186.4 22.7 L233.4 22.7 L240.9 30.2 L248.7 37.9 L296.5 37.9 L395.7 37.9 L398.6 40.8 L398.6 25.0 L406.1 17.5 L428.1 39.5 L439.9 39.5 L432.3 47.2 L432.3 53.6 L432.3 62.5 L414.9 79.9 L457.4 79.9 L460.4 76.8 L483.7 100.2 L513.2 100.2 L567.9 100.2 L572.6 104.8 L590.5 122.7 L646.1 122.7 L674.1 122.7 L682.1 130.8 L700.5 149.1 L700.5 159.8 L726.6 159.8 L749.7 182.9 L780.5 213.7 L785.5 213.7 L785.5 202.8 L813.8 174.5 L829.2 159.1 L851.3 159.1 L871.7 159.1 L882.8 170.2 L891.9 179.3 L901.6 179.3 L918.3 179.3 L935.9 161.6 L941.4 167.0 L983.4 167.0 L998.8 167.0 L1012.0 180.2 " />
<circle cx="12.0" cy="249.6" r="8" />
<circle cx="32.7" cy="239.3" r="8" />
<circle cx="21.5" cy="212.2" r="8" />
<circle cx="41.5" cy="167.8" r="8" />
<circle cx="13.3" cy="135.7" r="8" />
<circle cx="30.1" cy="91.6" r="8" />
<circle cx="49.0" cy="66.6" r="8" />
<circle cx="112.8" cy="66.6" r="8" />
<circle cx="113.5" cy="41.2" r="8" />
<circle cx="133.0" cy="12.0" r="8" />
<circle cx="186.4" cy="22.7" r="8" />
<circle cx="240.9" cy="30.2" r="8" />
<circle cx="296.5" cy="37.9" r="8" />
<circle cx="398.6" cy="40.8" r="8" />
<circle cx="406.1" cy="17.5" r="8" />
<circle cx="439.9" cy="39.5" r="8" />
<circle cx="432.3" cy="53.6" r="8" />
<circle cx="414.9" cy="79.9" r="8" />
<circle cx="460.4" cy="76.8" r="8" />
<circle cx="513.2" cy="100.2" r="8" />
<circle cx="572.6" cy="104.8" r="8" />
<circle cx="646.1" cy="122.7" r="8" />
<circle cx="682.1" cy="130.8" r="8" />
<circle cx="700.5" cy="159.8" r="8" />
<circle cx="749.7" cy="182.9" r="8" />
<circle cx="785.5" cy="213.7" r="8" />
<circle cx="813.8" cy="174.5" r="8" />
<circle cx="851.3" cy="159.1" r="8" />
<circle cx="882.8" cy="170.2" r="8" />
<circle cx="901.6" cy="179.3" r="8" />
<circle cx="935.9" cy="161.6" r="8" />
<circle cx="983.4" cy="167.0" r="8" />
<circle cx="1012.0" cy="180.2" r="8" />
<style>
circle {
fill: white;
stroke: #000000;
stroke-width: 4;
}
path {
fill: none;
stroke: #000000;
stroke-width: 8;
}</style>
</svg>