<svg width="1024.0" height="259.6" xmlns="http://www.w3.org/2000/svg">
<path d="M12.0 19.01524638884506 L12.2 19.2 L39.7 19.2 L139.9 19.2 L146.9 26.1 L166.1 45.4 L177.5 45.4 L179.3 45.4 L207.1 73.2 L283.6 149.6 L290.3 149.6 L291.1 149.6 L302.6 138.1 L312.1 128.7 L312.1 105.0 L312.1 87.7 L319.7 80.1 L335.4 64.4 L335.4 59.9 L335.4 56.9 L341.6 50.7 L345.9 55.0 L389.5 55.0 L402.1 55.0 L412.3 44.8 L415.5 41.6 L431.2 41.6 L451.9 41.6 L457.4 36.0 L462.6 30.8 L473.2 30.8 L539.4 30.8 L558.3 12.0 L563.4 17.2 L576.8 17.2 L598.9 17.2 L615.4 33.6 L650.5 68.8 L698.2 68.8 L698.2 83.0 L706.8 91.6 L713.5 98.3 L713.5 104.7 L717.4 104.7 L742.0 129.3 L762.8 150.1 L773.7 150.1 L780.1 150.1 L793.3 163.3 L811.4 181.3 L829.6 181.3 L834.6 181.3 L843.8 190.5 L854.6 201.3 L862.7 201.3 L868.0 201.3 L883.7 217.0 L914.3 247.6 L920.6 247.6 L937.2 247.6 L940.5 244.3 L955.6 229.2 L972.8 229.2 L987.1 229.2 L988.3 227.9 L994.5 234.1 L1012.0 234.1 " />
<circle cx="12.0" cy="19.0" r="8" />
<circle cx="39.7" cy="19.2" r="8" />
<circle cx="146.9" cy="26.1" r="8" />
<circle cx="177.5" cy="45.4" r="8" />
<circle cx="207.1" cy="73.2" r="8" />
<circle cx="290.3" cy="149.6" r="8" />
<circle cx="302.6" cy="138.1" r="8" />
<circle cx="312.1" cy="105.0" r="8" />
<circle cx="319.7" cy="80.1" r="8" />
<circle cx="335.4" cy="59.9" r="8" />
<circle cx="341.6" cy="50.7" r="8" />
<circle cx="389.5" cy="55.0" r="8" />
<circle cx="412.3" cy="44.8" r="8" />
<circle cx="431.2" cy="41.6" r="8" />
<circle cx="457.4" cy="36.0" r="8" />
<circle cx="473.2" cy="30.8" r="8" />
<circle cx="558.3" cy="12.0" r="8" />
<circle cx="576.8" cy="17.2" r="8" />
<circle cx="615.4" cy="33.6" r="8" />
<circle cx="698.2" cy="68.8" r="8" />
<circle cx="706.8" cy="91.6" r="8" />
<circle cx="713.5" cy="104.7" r="8" />
<circle cx="742.0" cy="129.3" r="8" />
<circle cx="773.7" cy="150.1" r="8" />
<circle cx="793.3" cy="163.3" r="8" />
<circle cx="829.6" cy="181.3" r="8" />
<circle cx="843.8" cy="190.5" r="8" />
<circle cx="862.7" cy="201.3" r="8" />
<circle cx="883.7" cy="217.0" r="8" />
<circle cx="920.6" cy="247.6" r="8" />
<circle cx="940.5" cy="244.3" r="8" />
<circle cx="972.8" cy="229.2" r="8" />
<circle cx="988.3" cy="227.9" r="8" />
<circle cx="1012.0" cy="234.1" r="8" />
<style>
circle {
fill: white;
stroke: #525252;
stroke-width: 4;
}
path {
fill: none;
stroke: #525252;
stroke-width: 8;
}</style>
</svg>