<svg width="1024.0" height="973.2" xmlns="http://www.w3.org/2000/svg">
<path d="M183.04741894739675 12.0 L173.0 22.1 L173.0 139.0 L173.0 139.8 L97.8 215.0 L17.5 295.3 L17.5 315.6 L17.5 481.9 L12.0 487.3 L99.1 574.5 L99.1 699.3 L99.1 770.6 L178.7 850.2 L289.8 961.2 L308.8 961.2 L311.7 961.2 L413.1 859.8 L482.9 790.0 L501.5 790.0 L517.6 790.0 L586.3 721.4 L753.9 553.7 L768.7 553.7 L836.5 553.7 L1012.0 378.2 " />
<circle cx="183.0" cy="12.0" r="8" />
<circle cx="173.0" cy="139.0" r="8" />
<circle cx="97.8" cy="215.0" r="8" />
<circle cx="17.5" cy="315.6" r="8" />
<circle cx="12.0" cy="487.3" r="8" />
<circle cx="99.1" cy="699.3" r="8" />
<circle cx="178.7" cy="850.2" r="8" />
<circle cx="308.8" cy="961.2" r="8" />
<circle cx="413.1" cy="859.8" r="8" />
<circle cx="501.5" cy="790.0" r="8" />
<circle cx="586.3" cy="721.4" r="8" />
<circle cx="768.7" cy="553.7" r="8" />
<circle cx="1012.0" cy="378.2" r="8" />
<style>
circle {
fill: white;
stroke: #525252;
stroke-width: 4;
}
path {
fill: none;
stroke: #525252;
stroke-width: 8;
}</style>
</svg>