<svg width="1024.0" height="181.7" xmlns="http://www.w3.org/2000/svg">
<path d="M51.6 12.0 L41.6 22.0 L12.0 22.0 L22.7 32.7 L33.2 32.7 L56.2 32.7 L67.2 21.8 L75.1 29.7 L90.2 29.7 L108.8 29.7 L117.5 38.4 L120.8 41.7 L139.3 41.7 L142.4 41.7 L150.2 33.9 L163.0 21.1 L167.6 21.1 L202.1 21.1 L202.6 21.6 L204.6 23.7 L231.9 23.7 L251.5 23.7 L254.3 20.9 L254.3 38.4 L249.5 43.1 L245.9 46.8 L245.9 58.4 L286.4 58.4 L286.4 58.4 L286.4 42.6 L286.8 42.2 L299.3 29.8 L299.3 23.7 L306.1 30.5 L333.2 30.5 L363.1 30.5 L367.8 35.2 L372.8 40.2 L403.2 40.2 L466.2 40.2 L468.0 42.0 L468.0 31.9 L472.8 27.2 L486.8 41.2 L494.3 41.2 L489.4 46.0 L489.4 50.1 L489.4 55.1 L477.8 66.7 L505.5 66.7 L507.3 64.9 L522.6 80.1 L542.9 80.1 L577.0 80.1 L579.6 82.7 L590.9 94.0 L625.3 94.0 L643.1 94.0 L648.2 99.2 L659.9 110.8 L659.9 117.6 L676.5 117.6 L691.2 132.3 L710.7 151.8 L713.9 151.8 L713.9 144.9 L731.9 126.9 L741.6 117.2 L755.7 117.2 L768.7 117.2 L775.7 124.2 L783.6 132.1 L789.7 132.1 L796.1 132.1 L809.5 118.8 L812.9 122.2 L839.7 122.2 L853.6 122.2 L860.8 129.4 L877.7 146.3 L877.7 154.3 L880.6 154.3 L896.0 169.7 L931.8 133.9 L937.0 133.9 L946.1 133.9 L964.2 115.8 L981.4 98.6 L981.4 82.9 L981.4 73.6 L990.4 64.6 L1002.0 53.0 L1004.1 53.0 L1004.1 47.3 L1012.0 39.5 L1002.8 30.2 L909.4 30.2 L869.9 30.2 L869.6 30.5 L867.8 32.3 L855.7 32.3 " />
<circle cx="51.6" cy="12.0" r="8" />
<circle cx="12.0" cy="22.0" r="8" />
<circle cx="33.2" cy="32.7" r="8" />
<circle cx="67.2" cy="21.8" r="8" />
<circle cx="90.2" cy="29.7" r="8" />
<circle cx="117.5" cy="38.4" r="8" />
<circle cx="139.3" cy="41.7" r="8" />
<circle cx="150.2" cy="33.9" r="8" />
<circle cx="167.6" cy="21.1" r="8" />
<circle cx="202.6" cy="21.6" r="8" />
<circle cx="231.9" cy="23.7" r="8" />
<circle cx="254.3" cy="20.9" r="8" />
<circle cx="249.5" cy="43.1" r="8" />
<circle cx="245.9" cy="58.4" r="8" />
<circle cx="286.4" cy="58.4" r="8" />
<circle cx="286.8" cy="42.2" r="8" />
<circle cx="299.3" cy="23.7" r="8" />
<circle cx="333.2" cy="30.5" r="8" />
<circle cx="367.8" cy="35.2" r="8" />
<circle cx="403.2" cy="40.2" r="8" />
<circle cx="468.0" cy="42.0" r="8" />
<circle cx="472.8" cy="27.2" r="8" />
<circle cx="494.3" cy="41.2" r="8" />
<circle cx="489.4" cy="50.1" r="8" />
<circle cx="477.8" cy="66.7" r="8" />
<circle cx="507.3" cy="64.9" r="8" />
<circle cx="542.9" cy="80.1" r="8" />
<circle cx="579.6" cy="82.7" r="8" />
<circle cx="625.3" cy="94.0" r="8" />
<circle cx="648.2" cy="99.2" r="8" />
<circle cx="659.9" cy="117.6" r="8" />
<circle cx="691.2" cy="132.3" r="8" />
<circle cx="713.9" cy="151.8" r="8" />
<circle cx="731.9" cy="126.9" r="8" />
<circle cx="755.7" cy="117.2" r="8" />
<circle cx="775.7" cy="124.2" r="8" />
<circle cx="789.7" cy="132.1" r="8" />
<circle cx="809.5" cy="118.8" r="8" />
<circle cx="839.7" cy="122.2" r="8" />
<circle cx="860.8" cy="129.4" r="8" />
<circle cx="877.7" cy="154.3" r="8" />
<circle cx="896.0" cy="169.7" r="8" />
<circle cx="937.0" cy="133.9" r="8" />
<circle cx="964.2" cy="115.8" r="8" />
<circle cx="981.4" cy="82.9" r="8" />
<circle cx="990.4" cy="64.6" r="8" />
<circle cx="1004.1" cy="53.0" r="8" />
<circle cx="1012.0" cy="39.5" r="8" />
<circle cx="909.4" cy="30.2" r="8" />
<circle cx="869.6" cy="30.5" r="8" />
<circle cx="855.7" cy="32.3" r="8" />
<style>
circle {
fill: white;
stroke: #000000;
stroke-width: 4;
}
path {
fill: none;
stroke: #000000;
stroke-width: 8;
}</style>
</svg>