<svg width="1024.0" height="870.7" xmlns="http://www.w3.org/2000/svg">
<path d="M393.7079213372303 858.7415932673413 L484.6 767.9 L484.6 753.4 L484.6 747.8 L562.7 669.7 L614.0 618.4 L614.0 614.5 L614.0 610.8 L652.0 572.7 L688.1 536.7 L688.1 530.5 L688.1 505.1 L730.9 462.3 L801.3 391.8 L809.3 391.8 L865.7 335.4 L865.7 330.5 L1000.6 330.5 L1012.0 341.9 L988.9 318.8 L988.9 292.2 L988.9 284.4 L938.5 234.0 L905.1 200.7 L883.4 200.7 L821.5 200.7 L799.3 178.5 L791.5 186.3 L743.3 186.3 L690.4 186.3 L685.2 181.1 L682.0 184.4 L583.5 184.4 L517.1 184.4 L507.5 174.7 L494.9 162.1 L389.4 162.1 L427.5 124.0 L427.5 99.0 L390.4 61.9 L285.5 61.9 L204.4 61.9 L176.8 34.2 L154.5 12.0 L12.0 12.0 " />
<circle cx="393.7" cy="858.7" r="8" />
<circle cx="484.6" cy="753.4" r="8" />
<circle cx="562.7" cy="669.7" r="8" />
<circle cx="614.0" cy="614.5" r="8" />
<circle cx="652.0" cy="572.7" r="8" />
<circle cx="688.1" cy="530.5" r="8" />
<circle cx="730.9" cy="462.3" r="8" />
<circle cx="809.3" cy="391.8" r="8" />
<circle cx="865.7" cy="330.5" r="8" />
<circle cx="1012.0" cy="341.9" r="8" />
<circle cx="988.9" cy="292.2" r="8" />
<circle cx="938.5" cy="234.0" r="8" />
<circle cx="883.4" cy="200.7" r="8" />
<circle cx="799.3" cy="178.5" r="8" />
<circle cx="743.3" cy="186.3" r="8" />
<circle cx="685.2" cy="181.1" r="8" />
<circle cx="583.5" cy="184.4" r="8" />
<circle cx="507.5" cy="174.7" r="8" />
<circle cx="389.4" cy="162.1" r="8" />
<circle cx="427.5" cy="99.0" r="8" />
<circle cx="285.5" cy="61.9" r="8" />
<circle cx="176.8" cy="34.2" r="8" />
<circle cx="12.0" cy="12.0" r="8" />
<style>
circle {
fill: white;
stroke: #72C4E7;
stroke-width: 4;
}
path {
fill: none;
stroke: #72C4E7;
stroke-width: 8;
}</style>
</svg>