<svg width="1024.0" height="280.1" xmlns="http://www.w3.org/2000/svg">
<path d="M1012.0 108.97777355190865 L970.7 109.0 L959.7 98.0 L937.7 76.0 L866.8 76.0 L849.0 76.0 L828.0 55.0 L816.2 66.8 L753.0 66.8 L637.4 66.8 L630.0 59.4 L611.9 41.4 L531.4 41.4 L531.4 109.4 L533.5 111.5 L492.8 152.2 L479.6 152.2 L458.0 152.2 L429.5 180.7 L419.3 190.9 L374.3 190.9 L321.6 190.9 L267.0 245.5 L244.4 268.1 L213.3 268.1 L149.5 268.1 L146.3 264.9 L99.1 217.6 L99.1 207.5 L135.0 171.6 L152.8 171.6 L158.1 171.6 L181.6 148.0 L173.4 148.0 L123.0 97.6 L85.0 59.6 L42.1 59.6 L42.1 42.1 L12.0 12.0 " />
<circle cx="1012.0" cy="109.0" r="8" />
<circle cx="959.7" cy="98.0" r="8" />
<circle cx="866.8" cy="76.0" r="8" />
<circle cx="828.0" cy="55.0" r="8" />
<circle cx="753.0" cy="66.8" r="8" />
<circle cx="630.0" cy="59.4" r="8" />
<circle cx="531.4" cy="41.4" r="8" />
<circle cx="533.5" cy="111.5" r="8" />
<circle cx="479.6" cy="152.2" r="8" />
<circle cx="429.5" cy="180.7" r="8" />
<circle cx="374.3" cy="190.9" r="8" />
<circle cx="267.0" cy="245.5" r="8" />
<circle cx="213.3" cy="268.1" r="8" />
<circle cx="146.3" cy="264.9" r="8" />
<circle cx="99.1" cy="207.5" r="8" />
<circle cx="152.8" cy="171.6" r="8" />
<circle cx="181.6" cy="148.0" r="8" />
<circle cx="123.0" cy="97.6" r="8" />
<circle cx="42.1" cy="59.6" r="8" />
<circle cx="12.0" cy="12.0" r="8" />
<style>
circle {
fill: white;
stroke: #525252;
stroke-width: 4;
}
path {
fill: none;
stroke: #525252;
stroke-width: 8;
}</style>
</svg>