<svg width="1024.0" height="594.9" xmlns="http://www.w3.org/2000/svg">
<path d="M852.0 110.3 L837.7 95.9 L837.7 76.7 L777.3 76.7 L767.5 86.4 L925.0 86.4 L943.0 104.5 L984.8 146.2 L1012.0 146.2 L920.9 237.3 L920.9 267.1 L917.1 267.1 L751.9 432.2 L601.3 582.9 L588.8 582.9 L217.8 582.9 L130.9 496.0 L12.0 377.1 L12.0 204.2 L434.8 204.2 L527.0 112.0 L555.0 84.0 L567.3 84.0 L567.3 35.1 L590.4 12.0 L622.9 44.6 L711.5 44.6 " />
<circle cx="852.0" cy="110.3" r="8" />
<circle cx="837.7" cy="76.7" r="8" />
<circle cx="767.5" cy="86.4" r="8" />
<circle cx="943.0" cy="104.5" r="8" />
<circle cx="1012.0" cy="146.2" r="8" />
<circle cx="920.9" cy="267.1" r="8" />
<circle cx="751.9" cy="432.2" r="8" />
<circle cx="588.8" cy="582.9" r="8" />
<circle cx="130.9" cy="496.0" r="8" />
<circle cx="12.0" cy="204.2" r="8" />
<circle cx="527.0" cy="112.0" r="8" />
<circle cx="567.3" cy="84.0" r="8" />
<circle cx="590.4" cy="12.0" r="8" />
<circle cx="711.5" cy="44.6" r="8" />
<style>
circle {
fill: white;
stroke: #595FA7;
stroke-width: 4;
}
path {
fill: none;
stroke: #595FA7;
stroke-width: 8;
}</style>
</svg>