<svg width="893.0" height="1024.0" xmlns="http://www.w3.org/2000/svg">
<path d="M25.56857559271542 1012.0000000000001 L25.6 971.8 L58.6 938.8 L12.0 892.1 L12.0 885.7 L12.0 840.7 L39.8 812.9 L71.0 781.7 L71.0 771.6 L71.0 741.5 L80.5 732.0 L134.3 678.2 L149.7 678.2 L206.5 678.2 L209.8 681.4 L209.8 668.8 L265.1 613.4 L280.0 628.4 L375.6 628.4 L375.6 610.1 L420.1 565.5 L444.2 589.6 L516.1 589.6 L558.8 589.6 L567.2 598.1 L567.2 584.9 L591.7 560.4 L625.8 526.4 L661.9 526.4 L685.8 526.4 L709.4 502.8 L680.2 473.5 L680.2 442.7 L674.1 442.7 L638.8 407.4 L662.4 383.8 L662.4 379.3 L736.7 379.3 L742.2 373.7 L744.0 375.4 L814.4 375.4 L877.7 375.4 L881.0 378.7 L881.0 342.1 L875.3 336.4 L856.2 317.2 L856.2 281.2 L856.2 258.0 L839.0 240.8 L834.3 236.1 L834.3 183.2 L834.3 149.2 L835.6 148.0 L834.9 147.3 L834.9 109.8 L834.9 71.6 L840.0 66.4 L773.7 66.4 L771.3 68.8 L766.6 64.1 L699.2 64.1 L699.2 12.5 L699.7 12.0 " />
<circle cx="25.6" cy="1012.0" r="8" />
<circle cx="58.6" cy="938.8" r="8" />
<circle cx="12.0" cy="885.7" r="8" />
<circle cx="39.8" cy="812.9" r="8" />
<circle cx="71.0" cy="771.6" r="8" />
<circle cx="80.5" cy="732.0" r="8" />
<circle cx="149.7" cy="678.2" r="8" />
<circle cx="209.8" cy="681.4" r="8" />
<circle cx="265.1" cy="613.4" r="8" />
<circle cx="375.6" cy="628.4" r="8" />
<circle cx="420.1" cy="565.5" r="8" />
<circle cx="516.1" cy="589.6" r="8" />
<circle cx="567.2" cy="598.1" r="8" />
<circle cx="591.7" cy="560.4" r="8" />
<circle cx="661.9" cy="526.4" r="8" />
<circle cx="709.4" cy="502.8" r="8" />
<circle cx="680.2" cy="442.7" r="8" />
<circle cx="638.8" cy="407.4" r="8" />
<circle cx="662.4" cy="379.3" r="8" />
<circle cx="742.2" cy="373.7" r="8" />
<circle cx="814.4" cy="375.4" r="8" />
<circle cx="881.0" cy="378.7" r="8" />
<circle cx="875.3" cy="336.4" r="8" />
<circle cx="856.2" cy="281.2" r="8" />
<circle cx="839.0" cy="240.8" r="8" />
<circle cx="834.3" cy="183.2" r="8" />
<circle cx="835.6" cy="148.0" r="8" />
<circle cx="834.9" cy="109.8" r="8" />
<circle cx="840.0" cy="66.4" r="8" />
<circle cx="771.3" cy="68.8" r="8" />
<circle cx="699.2" cy="64.1" r="8" />
<circle cx="699.7" cy="12.0" r="8" />
<style>
circle {
fill: white;
stroke: #525252;
stroke-width: 4;
}
path {
fill: none;
stroke: #525252;
stroke-width: 8;
}</style>
</svg>