<svg width="1024.0" height="948.5" xmlns="http://www.w3.org/2000/svg">
<path d="M995.3 12.0 L792.9 214.5 L570.8 214.5 L570.8 238.4 L417.1 392.1 L197.6 611.6 L197.6 649.6 L197.6 750.9 L12.0 936.5 L283.8 936.5 L302.8 917.5 L443.5 776.8 L498.5 776.8 L693.0 776.8 L804.0 665.8 L918.8 780.7 L1012.0 780.7 L945.7 714.4 L945.7 596.9 L945.7 486.7 L904.5 445.6 " />
<circle cx="995.3" cy="12.0" r="8" />
<circle cx="570.8" cy="214.5" r="8" />
<circle cx="417.1" cy="392.1" r="8" />
<circle cx="197.6" cy="649.6" r="8" />
<circle cx="12.0" cy="936.5" r="8" />
<circle cx="302.8" cy="917.5" r="8" />
<circle cx="498.5" cy="776.8" r="8" />
<circle cx="804.0" cy="665.8" r="8" />
<circle cx="1012.0" cy="780.7" r="8" />
<circle cx="945.7" cy="596.9" r="8" />
<circle cx="904.5" cy="445.6" r="8" />
<style>
circle {
fill: white;
stroke: black;
stroke-width: 4;
}
path {
fill: none;
stroke: #FFFFFF;
stroke-width: 8;
}</style>
</svg>