<svg width="990.4" height="1024.0" xmlns="http://www.w3.org/2000/svg">
<path d="M268.8 12.0 L268.8 57.5 L269.0 57.8 L306.2 94.9 L306.2 165.7 L306.2 260.6 L305.2 261.6 L307.9 264.4 L307.9 337.5 L307.9 433.2 L304.1 437.0 L234.2 506.9 L234.2 623.7 L234.2 647.4 L223.1 658.6 L184.6 697.0 L184.6 732.4 L140.1 732.4 L100.9 771.6 L63.9 808.6 L63.9 813.0 L56.8 813.0 L12.0 857.8 L72.3 857.8 L107.8 893.3 L133.6 919.2 L241.5 919.2 L265.0 919.2 L278.7 932.9 L289.6 943.8 L405.5 943.8 L544.9 943.8 L570.0 968.8 L613.1 1012.0 L710.4 1012.0 L752.3 1012.0 L777.2 987.2 L797.2 967.1 L831.6 967.1 L838.1 967.1 L867.6 937.6 L900.1 905.1 L940.2 905.1 L943.5 905.1 L978.4 870.2 L943.2 835.1 L898.5 835.1 L859.6 835.1 L833.5 809.0 L807.4 782.9 L790.0 782.9 L705.8 782.9 L678.7 755.7 L700.3 734.0 L700.3 704.9 L700.3 655.7 L723.0 633.0 L721.4 631.4 L620.9 631.4 L521.0 631.4 L511.1 621.6 L440.8 621.6 L433.3 629.1 L425.1 637.3 L352.1 637.3 L295.0 637.3 L292.8 639.5 L257.1 603.8 L257.1 590.3 L264.8 590.3 L285.3 569.9 L248.1 532.7 L235.5 532.7 L198.3 532.7 L171.9 506.3 L146.8 481.2 L117.5 481.2 L117.5 465.5 L137.8 445.2 L181.6 401.4 L200.0 401.4 L200.0 382.4 L214.5 368.0 L197.2 350.7 L197.2 342.3 L197.2 305.5 L178.9 287.2 L196.9 287.2 L210.9 273.2 " />
<circle cx="268.8" cy="12.0" r="8" />
<circle cx="269.0" cy="57.8" r="8" />
<circle cx="306.2" cy="165.7" r="8" />
<circle cx="305.2" cy="261.6" r="8" />
<circle cx="307.9" cy="337.5" r="8" />
<circle cx="304.1" cy="437.0" r="8" />
<circle cx="234.2" cy="623.7" r="8" />
<circle cx="223.1" cy="658.6" r="8" />
<circle cx="184.6" cy="732.4" r="8" />
<circle cx="100.9" cy="771.6" r="8" />
<circle cx="63.9" cy="813.0" r="8" />
<circle cx="12.0" cy="857.8" r="8" />
<circle cx="107.8" cy="893.3" r="8" />
<circle cx="241.5" cy="919.2" r="8" />
<circle cx="278.7" cy="932.9" r="8" />
<circle cx="405.5" cy="943.8" r="8" />
<circle cx="570.0" cy="968.8" r="8" />
<circle cx="710.4" cy="1012.0" r="8" />
<circle cx="777.2" cy="987.2" r="8" />
<circle cx="831.6" cy="967.1" r="8" />
<circle cx="867.6" cy="937.6" r="8" />
<circle cx="940.2" cy="905.1" r="8" />
<circle cx="978.4" cy="870.2" r="8" />
<circle cx="898.5" cy="835.1" r="8" />
<circle cx="833.5" cy="809.0" r="8" />
<circle cx="790.0" cy="782.9" r="8" />
<circle cx="678.7" cy="755.7" r="8" />
<circle cx="700.3" cy="704.9" r="8" />
<circle cx="723.0" cy="633.0" r="8" />
<circle cx="620.9" cy="631.4" r="8" />
<circle cx="511.1" cy="621.6" r="8" />
<circle cx="433.3" cy="629.1" r="8" />
<circle cx="352.1" cy="637.3" r="8" />
<circle cx="292.8" cy="639.5" r="8" />
<circle cx="257.1" cy="590.3" r="8" />
<circle cx="285.3" cy="569.9" r="8" />
<circle cx="235.5" cy="532.7" r="8" />
<circle cx="171.9" cy="506.3" r="8" />
<circle cx="117.5" cy="481.2" r="8" />
<circle cx="137.8" cy="445.2" r="8" />
<circle cx="200.0" cy="401.4" r="8" />
<circle cx="214.5" cy="368.0" r="8" />
<circle cx="197.2" cy="342.3" r="8" />
<circle cx="178.9" cy="287.2" r="8" />
<circle cx="210.9" cy="273.2" r="8" />
<style>
circle {
fill: white;
stroke: black;
stroke-width: 4;
}
path {
fill: none;
stroke: #FFFFFF;
stroke-width: 8;
}</style>
</svg>