<svg width="1024.0" height="1009.5" xmlns="http://www.w3.org/2000/svg">
<path d="M815.7 997.5 L782.2 963.9 L782.2 912.9 L869.3 912.9 L872.2 910.1 L886.7 895.5 L886.7 856.7 L940.5 856.7 L1012.0 785.1 L959.0 732.1 L959.0 685.8 L959.0 647.9 L900.5 589.4 L903.7 586.1 L903.7 546.9 L903.7 498.4 L907.3 494.8 L906.1 493.6 L906.1 444.1 L792.2 444.1 L765.9 417.8 L718.8 370.7 L717.7 370.7 L681.9 370.7 L623.7 312.5 L573.4 262.2 L546.8 262.2 L520.4 262.2 L484.4 226.2 L429.3 171.1 L359.4 171.1 L327.3 171.1 L278.7 122.5 L240.9 84.7 L217.1 84.7 L215.3 84.7 L192.0 107.9 L157.2 73.2 L108.1 73.2 L73.2 73.2 L12.0 12.0 " />
<circle cx="815.7" cy="997.5" r="8" />
<circle cx="782.2" cy="912.9" r="8" />
<circle cx="872.2" cy="910.1" r="8" />
<circle cx="886.7" cy="856.7" r="8" />
<circle cx="1012.0" cy="785.1" r="8" />
<circle cx="959.0" cy="685.8" r="8" />
<circle cx="900.5" cy="589.4" r="8" />
<circle cx="903.7" cy="546.9" r="8" />
<circle cx="907.3" cy="494.8" r="8" />
<circle cx="906.1" cy="444.1" r="8" />
<circle cx="765.9" cy="417.8" r="8" />
<circle cx="717.7" cy="370.7" r="8" />
<circle cx="623.7" cy="312.5" r="8" />
<circle cx="546.8" cy="262.2" r="8" />
<circle cx="484.4" cy="226.2" r="8" />
<circle cx="359.4" cy="171.1" r="8" />
<circle cx="278.7" cy="122.5" r="8" />
<circle cx="217.1" cy="84.7" r="8" />
<circle cx="192.0" cy="107.9" r="8" />
<circle cx="108.1" cy="73.2" r="8" />
<circle cx="12.0" cy="12.0" r="8" />
<style>
circle {
fill: white;
stroke: #525252;
stroke-width: 4;
}
path {
fill: none;
stroke: #525252;
stroke-width: 8;
}</style>
</svg>