<svg width="1024.0" height="856.1" xmlns="http://www.w3.org/2000/svg">
<path d="M31.0 844.1 L315.1 560.1 L668.3 560.1 L814.5 560.1 L858.0 516.5 L860.4 519.0 L1012.0 519.0 L989.9 496.8 L791.4 496.8 L724.3 496.8 L674.5 447.1 L594.4 367.0 L540.6 367.0 L505.0 367.0 L436.9 298.9 L345.9 207.9 L309.1 207.9 L207.9 207.9 L12.0 12.0 " />
<circle cx="31.0" cy="844.1" r="8" />
<circle cx="668.3" cy="560.1" r="8" />
<circle cx="858.0" cy="516.5" r="8" />
<circle cx="1012.0" cy="519.0" r="8" />
<circle cx="791.4" cy="496.8" r="8" />
<circle cx="674.5" cy="447.1" r="8" />
<circle cx="540.6" cy="367.0" r="8" />
<circle cx="436.9" cy="298.9" r="8" />
<circle cx="309.1" cy="207.9" r="8" />
<circle cx="12.0" cy="12.0" r="8" />
<style>
circle {
fill: white;
stroke: black;
stroke-width: 4;
}
path {
fill: none;
stroke: #FFFFFF;
stroke-width: 8;
}</style>
</svg>