<svg width="681.6" height="1024.0" xmlns="http://www.w3.org/2000/svg">
<path d="M669.5932425393297 1012.0000000000001 L617.5 1012.0 L602.5 997.0 L569.1 963.6 L465.4 963.6 L509.1 963.6 L554.7 917.9 L554.7 915.3 L524.5 885.1 L505.6 866.2 L505.6 828.5 L505.6 802.7 L501.0 798.1 L501.0 730.1 L517.7 713.4 L603.8 627.2 L643.1 627.2 L643.1 578.0 L629.8 564.6 L591.7 526.5 L528.3 526.5 L489.3 526.5 L476.7 514.0 L473.2 517.5 L397.5 517.5 L344.0 517.5 L304.8 556.7 L294.0 567.5 L242.3 567.5 L223.5 567.5 L177.0 521.1 L137.3 481.3 L130.4 481.3 L130.4 423.9 L127.1 420.7 L125.9 419.4 L125.9 362.9 L125.9 349.0 L154.0 320.9 L159.5 315.4 L159.5 291.4 L159.5 243.5 L129.4 213.4 L97.9 181.9 L44.2 181.9 L44.2 154.9 L20.3 130.9 L12.0 122.7 L12.0 81.2 L12.0 40.9 L19.2 33.6 L36.2 16.6 L53.2 16.6 L106.1 16.6 L110.8 12.0 L176.1 12.0 L199.1 35.0 " />
<circle cx="669.6" cy="1012.0" r="8" />
<circle cx="602.5" cy="997.0" r="8" />
<circle cx="465.4" cy="963.6" r="8" />
<circle cx="554.7" cy="917.9" r="8" />
<circle cx="524.5" cy="885.1" r="8" />
<circle cx="505.6" cy="828.5" r="8" />
<circle cx="501.0" cy="798.1" r="8" />
<circle cx="517.7" cy="713.4" r="8" />
<circle cx="643.1" cy="627.2" r="8" />
<circle cx="629.8" cy="564.6" r="8" />
<circle cx="528.3" cy="526.5" r="8" />
<circle cx="476.7" cy="514.0" r="8" />
<circle cx="397.5" cy="517.5" r="8" />
<circle cx="304.8" cy="556.7" r="8" />
<circle cx="242.3" cy="567.5" r="8" />
<circle cx="177.0" cy="521.1" r="8" />
<circle cx="130.4" cy="481.3" r="8" />
<circle cx="127.1" cy="420.7" r="8" />
<circle cx="125.9" cy="362.9" r="8" />
<circle cx="154.0" cy="320.9" r="8" />
<circle cx="159.5" cy="291.4" r="8" />
<circle cx="129.4" cy="213.4" r="8" />
<circle cx="44.2" cy="181.9" r="8" />
<circle cx="20.3" cy="130.9" r="8" />
<circle cx="12.0" cy="81.2" r="8" />
<circle cx="19.2" cy="33.6" r="8" />
<circle cx="53.2" cy="16.6" r="8" />
<circle cx="110.8" cy="12.0" r="8" />
<circle cx="199.1" cy="35.0" r="8" />
<style>
circle {
fill: white;
stroke: #525252;
stroke-width: 4;
}
path {
fill: none;
stroke: #525252;
stroke-width: 8;
}</style>
</svg>