<svg width="1024.0" height="798.7" xmlns="http://www.w3.org/2000/svg">
<path d="M554.9 684.1 L528.3 657.4 L416.1 657.4 L422.3 651.2 L538.7 651.2 L538.7 592.9 L542.5 589.1 L513.5 560.2 L513.5 534.5 L513.5 483.7 L497.3 467.5 L465.5 435.7 L465.5 394.2 L465.5 293.9 L460.0 288.3 L456.9 285.3 L456.9 204.9 L305.2 204.9 L298.8 211.3 L293.2 217.0 L169.0 217.0 L63.1 217.0 L59.2 220.9 L12.0 173.7 L12.0 161.8 L62.6 161.8 L157.4 67.0 L212.4 12.0 L246.7 12.0 L331.0 12.0 L404.5 85.5 L462.4 143.4 L515.3 143.4 L569.9 143.4 L626.7 200.2 L626.7 165.0 L613.0 151.4 L681.0 151.4 L697.5 134.9 L734.7 172.1 L809.4 172.1 L775.7 138.4 L775.7 92.5 L776.1 92.9 L917.5 92.9 L980.2 92.9 L1012.0 124.7 L992.1 124.7 L941.3 175.5 L831.5 285.2 L809.6 285.2 L809.6 367.2 L752.2 424.6 L717.5 459.4 L717.5 569.4 L717.5 623.7 L692.5 648.7 L589.7 751.6 L589.7 786.7 " />
<circle cx="554.9" cy="684.1" r="8" />
<circle cx="416.1" cy="657.4" r="8" />
<circle cx="538.7" cy="651.2" r="8" />
<circle cx="542.5" cy="589.1" r="8" />
<circle cx="513.5" cy="534.5" r="8" />
<circle cx="497.3" cy="467.5" r="8" />
<circle cx="465.5" cy="394.2" r="8" />
<circle cx="460.0" cy="288.3" r="8" />
<circle cx="456.9" cy="204.9" r="8" />
<circle cx="298.8" cy="211.3" r="8" />
<circle cx="169.0" cy="217.0" r="8" />
<circle cx="59.2" cy="220.9" r="8" />
<circle cx="12.0" cy="161.8" r="8" />
<circle cx="157.4" cy="67.0" r="8" />
<circle cx="246.7" cy="12.0" r="8" />
<circle cx="404.5" cy="85.5" r="8" />
<circle cx="515.3" cy="143.4" r="8" />
<circle cx="626.7" cy="200.2" r="8" />
<circle cx="613.0" cy="151.4" r="8" />
<circle cx="697.5" cy="134.9" r="8" />
<circle cx="809.4" cy="172.1" r="8" />
<circle cx="775.7" cy="92.5" r="8" />
<circle cx="917.5" cy="92.9" r="8" />
<circle cx="1012.0" cy="124.7" r="8" />
<circle cx="941.3" cy="175.5" r="8" />
<circle cx="809.6" cy="285.2" r="8" />
<circle cx="752.2" cy="424.6" r="8" />
<circle cx="717.5" cy="569.4" r="8" />
<circle cx="692.5" cy="648.7" r="8" />
<circle cx="589.7" cy="786.7" r="8" />
<style>
circle {
fill: white;
stroke: #525252;
stroke-width: 4;
}
path {
fill: none;
stroke: #525252;
stroke-width: 8;
}</style>
</svg>