<svg width="971.2" height="1024.0" xmlns="http://www.w3.org/2000/svg">
<path d="M12.0 349.1 L112.0 449.1 L113.9 449.1 L122.8 449.1 L190.9 517.2 L286.6 421.5 L421.6 421.5 L421.6 418.0 L519.6 320.1 L659.5 180.2 L659.5 179.6 L659.5 32.1 L679.5 12.0 L679.5 315.3 L369.2 625.6 L567.3 625.6 L624.6 683.0 L676.2 631.4 L733.8 631.4 L833.7 631.4 L904.2 560.9 L904.2 658.1 L959.2 713.2 L931.9 740.5 L931.9 854.6 L852.1 854.6 L728.4 978.3 L694.7 1012.0 L607.4 1012.0 " />
<circle cx="12.0" cy="349.1" r="8" />
<circle cx="113.9" cy="449.1" r="8" />
<circle cx="190.9" cy="517.2" r="8" />
<circle cx="421.6" cy="421.5" r="8" />
<circle cx="519.6" cy="320.1" r="8" />
<circle cx="659.5" cy="179.6" r="8" />
<circle cx="679.5" cy="12.0" r="8" />
<circle cx="369.2" cy="625.6" r="8" />
<circle cx="624.6" cy="683.0" r="8" />
<circle cx="733.8" cy="631.4" r="8" />
<circle cx="904.2" cy="560.9" r="8" />
<circle cx="959.2" cy="713.2" r="8" />
<circle cx="931.9" cy="854.6" r="8" />
<circle cx="728.4" cy="978.3" r="8" />
<circle cx="607.4" cy="1012.0" r="8" />
<style>
circle {
fill: white;
stroke: black;
stroke-width: 4;
}
path {
fill: none;
stroke: #FFFFFF;
stroke-width: 8;
}</style>
</svg>