<svg width="1024.0" height="733.1" xmlns="http://www.w3.org/2000/svg">
<path d="M1012.0 644.1 L935.0 721.1 L599.1 721.1 L345.7 721.1 L316.1 691.5 L307.8 683.1 L12.0 683.1 L12.0 630.1 L422.7 219.4 L510.4 131.7 L608.2 131.7 L777.9 131.7 L897.7 12.0 L897.7 177.1 L991.2 270.6 L944.7 317.1 L944.7 511.0 " />
<circle cx="1012.0" cy="644.1" r="8" />
<circle cx="599.1" cy="721.1" r="8" />
<circle cx="316.1" cy="691.5" r="8" />
<circle cx="12.0" cy="683.1" r="8" />
<circle cx="422.7" cy="219.4" r="8" />
<circle cx="608.2" cy="131.7" r="8" />
<circle cx="897.7" cy="12.0" r="8" />
<circle cx="991.2" cy="270.6" r="8" />
<circle cx="944.7" cy="511.0" r="8" />
<style>
circle {
fill: white;
stroke: #525252;
stroke-width: 4;
}
path {
fill: none;
stroke: #525252;
stroke-width: 8;
}</style>
</svg>