<svg width="1024.0" height="809.9" xmlns="http://www.w3.org/2000/svg">
<path d="M12.0 146.97270694332397 L12.0 61.7 L61.7 12.0 L61.7 130.0 L49.9 141.8 L183.2 141.8 L188.7 136.3 L263.8 211.4 L275.8 211.4 L427.6 211.4 L452.2 235.9 L492.7 276.4 L723.0 276.4 L795.0 276.4 L809.0 290.4 L966.1 447.5 L1012.0 447.5 L989.8 469.7 L987.7 469.7 L987.7 508.3 L960.4 535.6 L948.8 524.0 L714.7 524.0 L532.4 524.0 L519.2 510.9 L519.2 552.8 L531.8 565.4 L642.0 675.6 L642.0 764.5 L642.0 777.4 L662.4 797.9 " />
<circle cx="12.0" cy="147.0" r="8" />
<circle cx="61.7" cy="12.0" r="8" />
<circle cx="49.9" cy="141.8" r="8" />
<circle cx="188.7" cy="136.3" r="8" />
<circle cx="275.8" cy="211.4" r="8" />
<circle cx="452.2" cy="235.9" r="8" />
<circle cx="723.0" cy="276.4" r="8" />
<circle cx="809.0" cy="290.4" r="8" />
<circle cx="1012.0" cy="447.5" r="8" />
<circle cx="987.7" cy="469.7" r="8" />
<circle cx="960.4" cy="535.6" r="8" />
<circle cx="714.7" cy="524.0" r="8" />
<circle cx="519.2" cy="510.9" r="8" />
<circle cx="531.8" cy="565.4" r="8" />
<circle cx="642.0" cy="764.5" r="8" />
<circle cx="662.4" cy="797.9" r="8" />
<style>
circle {
fill: white;
stroke: black;
stroke-width: 4;
}
path {
fill: none;
stroke: #FFFFFF;
stroke-width: 8;
}</style>
</svg>