<svg width="861.5" height="1024.0" xmlns="http://www.w3.org/2000/svg">
<path d="M839.6847274044136 1012.0 L839.7 890.5 L849.5 880.6 L838.0 880.6 L673.5 716.1 L575.5 618.2 L569.5 618.2 L569.5 569.8 L514.7 515.1 L314.3 314.6 L314.3 292.5 L314.3 247.6 L236.9 170.2 L229.9 177.2 L60.2 177.2 L75.2 162.2 L75.2 12.0 L75.2 120.5 L12.0 183.8 " />
<circle cx="839.7" cy="1012.0" r="8" />
<circle cx="849.5" cy="880.6" r="8" />
<circle cx="673.5" cy="716.1" r="8" />
<circle cx="569.5" cy="618.2" r="8" />
<circle cx="514.7" cy="515.1" r="8" />
<circle cx="314.3" cy="292.5" r="8" />
<circle cx="236.9" cy="170.2" r="8" />
<circle cx="60.2" cy="177.2" r="8" />
<circle cx="75.2" cy="12.0" r="8" />
<circle cx="12.0" cy="183.8" r="8" />
<style>
circle {
fill: white;
stroke: black;
stroke-width: 4;
}
path {
fill: none;
stroke: #FFFFFF;
stroke-width: 8;
}</style>
</svg>