<svg width="1024.0" height="666.9" xmlns="http://www.w3.org/2000/svg">
<path d="M884.5755553465212 645.3680703309951 L945.7 645.4 L955.2 654.9 L983.7 626.4 L983.7 614.7 L983.7 580.8 L1012.0 552.5 L973.3 552.5 L956.0 535.3 L945.0 524.2 L901.2 524.2 L866.2 524.2 L789.2 447.2 L784.5 442.6 L762.7 442.6 L756.7 442.6 L750.1 449.2 L718.6 449.2 L679.1 409.7 L631.3 362.0 L612.1 362.0 L589.9 362.0 L566.3 338.3 L491.8 263.8 L447.1 263.8 L430.1 263.8 L390.4 224.1 L354.3 188.0 L243.7 188.0 L234.0 197.8 L234.0 204.4 L220.8 191.2 L175.0 191.2 L151.0 191.2 L133.7 173.9 L111.1 151.3 L66.2 151.3 L54.0 151.3 L33.6 171.8 L19.4 186.0 L12.0 186.0 L61.4 186.0 L90.9 156.5 L96.9 150.4 L107.3 150.4 L118.7 150.4 L157.9 111.3 L198.2 71.0 L208.1 71.0 L208.1 27.5 L192.6 12.0 " />
<circle cx="884.6" cy="645.4" r="8" />
<circle cx="955.2" cy="654.9" r="8" />
<circle cx="983.7" cy="614.7" r="8" />
<circle cx="1012.0" cy="552.5" r="8" />
<circle cx="956.0" cy="535.3" r="8" />
<circle cx="901.2" cy="524.2" r="8" />
<circle cx="789.2" cy="447.2" r="8" />
<circle cx="762.7" cy="442.6" r="8" />
<circle cx="750.1" cy="449.2" r="8" />
<circle cx="679.1" cy="409.7" r="8" />
<circle cx="612.1" cy="362.0" r="8" />
<circle cx="566.3" cy="338.3" r="8" />
<circle cx="447.1" cy="263.8" r="8" />
<circle cx="390.4" cy="224.1" r="8" />
<circle cx="243.7" cy="188.0" r="8" />
<circle cx="234.0" cy="204.4" r="8" />
<circle cx="175.0" cy="191.2" r="8" />
<circle cx="133.7" cy="173.9" r="8" />
<circle cx="66.2" cy="151.3" r="8" />
<circle cx="33.6" cy="171.8" r="8" />
<circle cx="12.0" cy="186.0" r="8" />
<circle cx="90.9" cy="156.5" r="8" />
<circle cx="107.3" cy="150.4" r="8" />
<circle cx="157.9" cy="111.3" r="8" />
<circle cx="208.1" cy="71.0" r="8" />
<circle cx="192.6" cy="12.0" r="8" />
<style>
circle {
fill: white;
stroke: #525252;
stroke-width: 4;
}
path {
fill: none;
stroke: #525252;
stroke-width: 8;
}</style>
</svg>