<svg width="1024.0" height="666.9" xmlns="http://www.w3.org/2000/svg">
<path d="M192.62509283628228 12.0 L192.6 55.5 L208.1 71.0 L167.8 111.3 L157.9 111.3 L106.3 111.3 L66.2 151.3 L45.8 171.8 L33.6 171.8 L26.2 171.8 L12.0 186.0 L41.5 156.5 L90.9 156.5 L116.2 156.5 L133.7 173.9 L151.0 191.2 L175.0 191.2 L240.5 191.2 L243.7 188.0 L354.3 188.0 L390.4 224.1 L430.1 263.8 L447.1 263.8 L491.8 263.8 L566.3 338.3 L589.9 362.0 L612.1 362.0 L631.3 362.0 L679.1 409.7 L718.6 449.2 L750.1 449.2 L754.8 449.2 L772.6 431.4 L788.0 431.4 L795.6 439.0 L797.1 440.4 L797.1 445.1 L876.2 524.2 L901.2 524.2 L945.0 524.2 L956.0 535.3 L973.3 552.5 L1012.0 552.5 L1012.0 586.5 L983.7 614.7 L955.2 643.2 L955.2 654.9 L945.7 645.4 L884.6 645.4 " />
<circle cx="192.6" cy="12.0" r="8" />
<circle cx="208.1" cy="71.0" r="8" />
<circle cx="157.9" cy="111.3" r="8" />
<circle cx="66.2" cy="151.3" r="8" />
<circle cx="33.6" cy="171.8" r="8" />
<circle cx="12.0" cy="186.0" r="8" />
<circle cx="90.9" cy="156.5" r="8" />
<circle cx="133.7" cy="173.9" r="8" />
<circle cx="175.0" cy="191.2" r="8" />
<circle cx="243.7" cy="188.0" r="8" />
<circle cx="390.4" cy="224.1" r="8" />
<circle cx="447.1" cy="263.8" r="8" />
<circle cx="566.3" cy="338.3" r="8" />
<circle cx="612.1" cy="362.0" r="8" />
<circle cx="679.1" cy="409.7" r="8" />
<circle cx="750.1" cy="449.2" r="8" />
<circle cx="772.6" cy="431.4" r="8" />
<circle cx="795.6" cy="439.0" r="8" />
<circle cx="797.1" cy="445.1" r="8" />
<circle cx="901.2" cy="524.2" r="8" />
<circle cx="956.0" cy="535.3" r="8" />
<circle cx="1012.0" cy="552.5" r="8" />
<circle cx="983.7" cy="614.7" r="8" />
<circle cx="955.2" cy="654.9" r="8" />
<circle cx="884.6" cy="645.4" r="8" />
<style>
circle {
fill: white;
stroke: #525252;
stroke-width: 4;
}
path {
fill: none;
stroke: #525252;
stroke-width: 8;
}</style>
</svg>