<svg width="1024.0" height="1022.1" xmlns="http://www.w3.org/2000/svg">
<path d="M507.74668045578056 12.0 L507.7 39.7 L493.2 54.2 L480.8 66.7 L480.8 82.8 L480.8 137.1 L470.7 147.1 L432.1 185.8 L432.1 228.6 L432.1 241.0 L401.3 271.7 L386.0 287.0 L386.0 326.1 L386.0 358.6 L373.2 371.4 L353.4 391.2 L353.4 453.2 L353.0 453.6 L258.0 453.6 L171.5 453.6 L151.3 433.4 L143.1 425.2 L17.3 425.2 L12.0 430.6 L12.0 482.5 L54.6 525.2 L57.5 525.2 L109.1 576.7 L109.1 578.8 L160.2 629.9 L236.4 629.9 L309.9 629.9 L476.8 796.8 L532.6 852.6 L572.8 852.6 L672.7 852.6 L733.6 913.6 L754.7 934.7 L803.1 934.7 L861.0 934.7 L880.6 954.2 L936.4 1010.1 L1012.0 1010.1 " />
<circle cx="507.7" cy="12.0" r="8" />
<circle cx="493.2" cy="54.2" r="8" />
<circle cx="480.8" cy="82.8" r="8" />
<circle cx="470.7" cy="147.1" r="8" />
<circle cx="432.1" cy="228.6" r="8" />
<circle cx="401.3" cy="271.7" r="8" />
<circle cx="386.0" cy="326.1" r="8" />
<circle cx="373.2" cy="371.4" r="8" />
<circle cx="353.4" cy="453.2" r="8" />
<circle cx="258.0" cy="453.6" r="8" />
<circle cx="151.3" cy="433.4" r="8" />
<circle cx="17.3" cy="425.2" r="8" />
<circle cx="12.0" cy="482.5" r="8" />
<circle cx="57.5" cy="525.2" r="8" />
<circle cx="109.1" cy="578.8" r="8" />
<circle cx="236.4" cy="629.9" r="8" />
<circle cx="476.8" cy="796.8" r="8" />
<circle cx="572.8" cy="852.6" r="8" />
<circle cx="733.6" cy="913.6" r="8" />
<circle cx="803.1" cy="934.7" r="8" />
<circle cx="880.6" cy="954.2" r="8" />
<circle cx="1012.0" cy="1010.1" r="8" />
<style>
circle {
fill: white;
stroke: #525252;
stroke-width: 4;
}
path {
fill: none;
stroke: #525252;
stroke-width: 8;
}</style>
</svg>