<svg width="1024.0" height="291.1" xmlns="http://www.w3.org/2000/svg">
<path d="M299.6515104572797 271.20260403984616 L281.0 271.2 L273.0 279.1 L237.6 279.1 L213.9 255.4 L202.1 243.6 L152.5 243.6 L125.1 243.6 L103.1 221.6 L63.9 182.4 L54.1 182.4 L49.3 182.4 L12.0 145.1 L49.2 107.9 L76.5 107.9 L105.2 107.9 L152.1 60.9 L179.2 33.8 L195.9 33.8 L239.0 33.8 L259.6 13.2 L288.0 13.2 L302.8 28.0 L319.2 44.5 L354.2 44.5 L388.9 44.5 L395.0 50.7 L400.8 50.7 L415.4 36.1 L439.5 12.0 L448.2 12.0 L512.9 12.0 L513.7 12.9 L517.6 16.8 L568.8 16.8 L649.6 16.8 L651.9 14.5 L692.9 14.5 L695.3 16.8 L708.0 29.6 L758.8 29.6 L815.0 29.6 L823.9 38.5 L833.2 47.7 L890.2 47.7 L1008.6 47.7 L1012.0 51.2 " />
<circle cx="299.7" cy="271.2" r="8" />
<circle cx="273.0" cy="279.1" r="8" />
<circle cx="213.9" cy="255.4" r="8" />
<circle cx="152.5" cy="243.6" r="8" />
<circle cx="103.1" cy="221.6" r="8" />
<circle cx="54.1" cy="182.4" r="8" />
<circle cx="12.0" cy="145.1" r="8" />
<circle cx="76.5" cy="107.9" r="8" />
<circle cx="152.1" cy="60.9" r="8" />
<circle cx="195.9" cy="33.8" r="8" />
<circle cx="259.6" cy="13.2" r="8" />
<circle cx="302.8" cy="28.0" r="8" />
<circle cx="354.2" cy="44.5" r="8" />
<circle cx="395.0" cy="50.7" r="8" />
<circle cx="415.4" cy="36.1" r="8" />
<circle cx="448.2" cy="12.0" r="8" />
<circle cx="513.7" cy="12.9" r="8" />
<circle cx="568.8" cy="16.8" r="8" />
<circle cx="651.9" cy="14.5" r="8" />
<circle cx="695.3" cy="16.8" r="8" />
<circle cx="758.8" cy="29.6" r="8" />
<circle cx="823.9" cy="38.5" r="8" />
<circle cx="890.2" cy="47.7" r="8" />
<circle cx="1012.0" cy="51.2" r="8" />
<style>
circle {
fill: white;
stroke: #525252;
stroke-width: 4;
}
path {
fill: none;
stroke: #525252;
stroke-width: 8;
}</style>
</svg>