<svg width="370.2" height="1024.0" xmlns="http://www.w3.org/2000/svg">
<path d="M12.0 1012.0 L12.0 995.5 L18.8 988.7 L30.4 977.0 L30.4 976.1 L43.1 976.1 L60.9 958.2 L68.7 950.4 L87.6 950.4 L112.1 950.4 L120.6 941.9 L132.8 929.7 L132.8 919.9 L132.8 899.5 L140.0 892.4 L145.3 887.1 L145.3 870.5 L145.3 857.0 L156.2 846.1 L181.8 820.5 L202.2 820.5 L202.2 807.7 L202.7 807.2 L196.0 800.5 L168.3 800.5 L168.3 760.3 L169.5 759.0 L158.4 747.9 L158.4 703.7 L158.4 695.0 L144.5 681.1 L141.1 677.8 L141.1 646.3 L141.1 617.3 L136.8 613.1 L133.0 609.2 L133.0 582.1 L133.0 520.3 L126.1 513.4 L121.4 508.7 L121.4 485.9 L121.4 434.4 L115.9 428.8 L115.7 428.6 L115.7 408.7 L115.7 327.8 L128.0 315.5 L102.0 289.5 L102.0 269.5 L102.0 245.7 L104.2 243.5 L107.2 240.5 L107.2 219.5 L107.2 205.7 L147.5 165.4 L175.9 136.9 L201.9 136.9 L218.5 136.9 L231.6 123.9 L236.9 129.2 L271.4 129.2 L275.3 129.2 L301.8 102.7 L314.2 90.2 L315.3 90.2 L333.3 90.2 L342.9 80.6 L358.2 65.3 L358.2 61.9 L358.2 35.9 L353.5 31.2 L340.7 18.4 L338.6 18.4 L318.6 18.4 L312.2 12.0 " />
<circle cx="12.0" cy="1012.0" r="8" />
<circle cx="18.8" cy="988.7" r="8" />
<circle cx="30.4" cy="976.1" r="8" />
<circle cx="60.9" cy="958.2" r="8" />
<circle cx="87.6" cy="950.4" r="8" />
<circle cx="120.6" cy="941.9" r="8" />
<circle cx="132.8" cy="919.9" r="8" />
<circle cx="140.0" cy="892.4" r="8" />
<circle cx="145.3" cy="870.5" r="8" />
<circle cx="156.2" cy="846.1" r="8" />
<circle cx="202.2" cy="820.5" r="8" />
<circle cx="202.7" cy="807.2" r="8" />
<circle cx="168.3" cy="800.5" r="8" />
<circle cx="169.5" cy="759.0" r="8" />
<circle cx="158.4" cy="703.7" r="8" />
<circle cx="144.5" cy="681.1" r="8" />
<circle cx="141.1" cy="646.3" r="8" />
<circle cx="136.8" cy="613.1" r="8" />
<circle cx="133.0" cy="582.1" r="8" />
<circle cx="126.1" cy="513.4" r="8" />
<circle cx="121.4" cy="485.9" r="8" />
<circle cx="115.9" cy="428.8" r="8" />
<circle cx="115.7" cy="408.7" r="8" />
<circle cx="128.0" cy="315.5" r="8" />
<circle cx="102.0" cy="269.5" r="8" />
<circle cx="104.2" cy="243.5" r="8" />
<circle cx="107.2" cy="219.5" r="8" />
<circle cx="147.5" cy="165.4" r="8" />
<circle cx="201.9" cy="136.9" r="8" />
<circle cx="231.6" cy="123.9" r="8" />
<circle cx="271.4" cy="129.2" r="8" />
<circle cx="301.8" cy="102.7" r="8" />
<circle cx="315.3" cy="90.2" r="8" />
<circle cx="342.9" cy="80.6" r="8" />
<circle cx="358.2" cy="61.9" r="8" />
<circle cx="353.5" cy="31.2" r="8" />
<circle cx="338.6" cy="18.4" r="8" />
<circle cx="312.2" cy="12.0" r="8" />
<style>
circle {
fill: white;
stroke: #525252;
stroke-width: 4;
}
path {
fill: none;
stroke: #525252;
stroke-width: 8;
}</style>
</svg>