<svg width="1024.0" height="306.1" xmlns="http://www.w3.org/2000/svg">
<path d="M12.0 12.0 L21.2 21.2 L45.1 21.2 L67.4 21.2 L94.6 48.4 L179.2 133.1 L184.6 133.1 L205.2 133.1 L215.5 122.7 L226.6 133.8 L240.6 133.8 L261.2 133.8 L280.3 152.9 L292.6 165.2 L305.7 165.2 L316.5 165.2 L326.6 175.2 L346.7 195.3 L366.2 195.3 L401.7 195.3 L423.0 216.6 L443.3 237.0 L519.7 237.0 L536.3 237.0 L541.3 242.0 L544.4 245.1 L565.6 245.1 L593.0 245.1 L602.8 254.9 L616.9 240.7 L650.9 240.7 L674.0 240.7 L690.3 224.4 L703.5 211.2 L723.7 211.2 L744.7 211.2 L760.2 195.7 L771.1 184.7 L796.2 184.7 L820.0 184.7 L828.8 175.9 L833.3 171.5 L833.3 169.6 L813.3 169.6 L797.7 154.0 L792.1 159.5 L792.1 166.6 L794.8 163.9 L824.5 163.9 L850.8 163.9 L899.1 212.3 L917.9 231.1 L929.6 231.1 L938.6 231.1 L988.4 280.9 L992.6 285.1 L992.6 287.6 L1005.5 287.6 L1012.0 294.1 " />
<circle cx="12.0" cy="12.0" r="8" />
<circle cx="45.1" cy="21.2" r="8" />
<circle cx="94.6" cy="48.4" r="8" />
<circle cx="184.6" cy="133.1" r="8" />
<circle cx="215.5" cy="122.7" r="8" />
<circle cx="240.6" cy="133.8" r="8" />
<circle cx="280.3" cy="152.9" r="8" />
<circle cx="305.7" cy="165.2" r="8" />
<circle cx="326.6" cy="175.2" r="8" />
<circle cx="366.2" cy="195.3" r="8" />
<circle cx="423.0" cy="216.6" r="8" />
<circle cx="519.7" cy="237.0" r="8" />
<circle cx="541.3" cy="242.0" r="8" />
<circle cx="565.6" cy="245.1" r="8" />
<circle cx="602.8" cy="254.9" r="8" />
<circle cx="650.9" cy="240.7" r="8" />
<circle cx="690.3" cy="224.4" r="8" />
<circle cx="723.7" cy="211.2" r="8" />
<circle cx="760.2" cy="195.7" r="8" />
<circle cx="796.2" cy="184.7" r="8" />
<circle cx="828.8" cy="175.9" r="8" />
<circle cx="833.3" cy="169.6" r="8" />
<circle cx="797.7" cy="154.0" r="8" />
<circle cx="792.1" cy="166.6" r="8" />
<circle cx="824.5" cy="163.9" r="8" />
<circle cx="899.1" cy="212.3" r="8" />
<circle cx="929.6" cy="231.1" r="8" />
<circle cx="988.4" cy="280.9" r="8" />
<circle cx="992.6" cy="287.6" r="8" />
<circle cx="1012.0" cy="294.1" r="8" />
<style>
circle {
fill: white;
stroke: #525252;
stroke-width: 4;
}
path {
fill: none;
stroke: #525252;
stroke-width: 8;
}</style>
</svg>