<svg width="1024.0" height="306.1" xmlns="http://www.w3.org/2000/svg">
<path d="M1012.0 294.10752688171874 L999.0 294.1 L992.6 287.6 L936.0 231.1 L929.6 231.1 L917.9 231.1 L899.1 212.3 L856.4 169.6 L833.3 169.6 L813.3 169.6 L797.7 154.0 L797.7 161.0 L792.1 166.6 L794.8 163.9 L824.5 163.9 L828.8 168.3 L828.8 175.9 L820.0 184.7 L796.2 184.7 L771.1 184.7 L760.2 195.7 L744.7 211.2 L723.7 211.2 L703.5 211.2 L690.3 224.4 L674.0 240.7 L650.9 240.7 L616.9 240.7 L602.8 254.9 L575.3 254.9 L565.6 245.1 L562.5 242.0 L541.3 242.0 L524.8 242.0 L519.7 237.0 L499.3 216.6 L423.0 216.6 L387.5 216.6 L366.2 195.3 L346.2 175.2 L326.6 175.2 L315.7 175.2 L305.7 165.2 L293.4 152.9 L280.3 152.9 L259.8 152.9 L240.6 133.8 L229.5 122.7 L215.5 122.7 L168.9 122.7 L94.6 48.4 L67.4 21.2 L45.1 21.2 L21.2 21.2 L12.0 12.0 " />
<circle cx="1012.0" cy="294.1" r="8" />
<circle cx="992.6" cy="287.6" r="8" />
<circle cx="929.6" cy="231.1" r="8" />
<circle cx="899.1" cy="212.3" r="8" />
<circle cx="833.3" cy="169.6" r="8" />
<circle cx="797.7" cy="154.0" r="8" />
<circle cx="792.1" cy="166.6" r="8" />
<circle cx="824.5" cy="163.9" r="8" />
<circle cx="828.8" cy="175.9" r="8" />
<circle cx="796.2" cy="184.7" r="8" />
<circle cx="760.2" cy="195.7" r="8" />
<circle cx="723.7" cy="211.2" r="8" />
<circle cx="690.3" cy="224.4" r="8" />
<circle cx="650.9" cy="240.7" r="8" />
<circle cx="602.8" cy="254.9" r="8" />
<circle cx="565.6" cy="245.1" r="8" />
<circle cx="541.3" cy="242.0" r="8" />
<circle cx="519.7" cy="237.0" r="8" />
<circle cx="423.0" cy="216.6" r="8" />
<circle cx="366.2" cy="195.3" r="8" />
<circle cx="326.6" cy="175.2" r="8" />
<circle cx="305.7" cy="165.2" r="8" />
<circle cx="280.3" cy="152.9" r="8" />
<circle cx="240.6" cy="133.8" r="8" />
<circle cx="215.5" cy="122.7" r="8" />
<circle cx="94.6" cy="48.4" r="8" />
<circle cx="45.1" cy="21.2" r="8" />
<circle cx="12.0" cy="12.0" r="8" />
<style>
circle {
fill: white;
stroke: #525252;
stroke-width: 4;
}
path {
fill: none;
stroke: #525252;
stroke-width: 8;
}</style>
</svg>