<svg width="1024.0" height="328.6" xmlns="http://www.w3.org/2000/svg">
<path d="M1012.0 12.0 L991.7 32.3 L991.7 38.4 L969.8 38.4 L968.6 37.2 L967.0 35.6 L946.7 35.6 L927.2 35.6 L924.4 38.4 L922.3 36.3 L895.0 36.3 L860.6 36.3 L860.1 35.8 L858.0 33.7 L838.0 33.7 L800.5 33.7 L799.0 32.1 L764.0 32.1 L759.7 36.5 L748.7 47.4 L725.8 47.4 L716.9 47.4 L702.5 61.9 L677.4 86.9 L662.2 86.9 L647.6 86.9 L627.8 106.7 L609.3 125.2 L591.2 125.2 L578.0 125.2 L564.1 139.1 L556.0 147.3 L524.4 147.3 L511.0 147.3 L503.4 139.7 L481.5 117.8 L433.6 117.8 L410.5 117.8 L400.4 107.6 L382.8 90.0 L343.3 90.0 L333.9 90.0 L320.3 76.4 L312.4 68.5 L213.7 68.5 L213.7 92.3 L204.9 101.1 L227.0 101.1 L253.9 127.9 L268.8 142.8 L314.1 142.8 L332.8 142.8 L348.8 158.8 L341.0 166.6 L341.0 170.0 L341.0 197.5 L335.3 203.2 L312.4 226.1 L312.4 227.1 L312.4 231.3 L300.3 243.4 L254.8 288.9 L169.7 288.9 L83.1 288.9 L80.9 291.1 L79.3 292.7 L44.1 292.7 L17.5 292.7 L12.0 298.3 L22.8 309.1 L22.8 316.6 " />
<circle cx="1012.0" cy="12.0" r="8" />
<circle cx="991.7" cy="38.4" r="8" />
<circle cx="968.6" cy="37.2" r="8" />
<circle cx="946.7" cy="35.6" r="8" />
<circle cx="924.4" cy="38.4" r="8" />
<circle cx="895.0" cy="36.3" r="8" />
<circle cx="860.1" cy="35.8" r="8" />
<circle cx="838.0" cy="33.7" r="8" />
<circle cx="799.0" cy="32.1" r="8" />
<circle cx="759.7" cy="36.5" r="8" />
<circle cx="725.8" cy="47.4" r="8" />
<circle cx="702.5" cy="61.9" r="8" />
<circle cx="662.2" cy="86.9" r="8" />
<circle cx="627.8" cy="106.7" r="8" />
<circle cx="591.2" cy="125.2" r="8" />
<circle cx="564.1" cy="139.1" r="8" />
<circle cx="524.4" cy="147.3" r="8" />
<circle cx="503.4" cy="139.7" r="8" />
<circle cx="433.6" cy="117.8" r="8" />
<circle cx="400.4" cy="107.6" r="8" />
<circle cx="343.3" cy="90.0" r="8" />
<circle cx="320.3" cy="76.4" r="8" />
<circle cx="213.7" cy="68.5" r="8" />
<circle cx="204.9" cy="101.1" r="8" />
<circle cx="253.9" cy="127.9" r="8" />
<circle cx="314.1" cy="142.8" r="8" />
<circle cx="348.8" cy="158.8" r="8" />
<circle cx="341.0" cy="170.0" r="8" />
<circle cx="335.3" cy="203.2" r="8" />
<circle cx="312.4" cy="227.1" r="8" />
<circle cx="300.3" cy="243.4" r="8" />
<circle cx="169.7" cy="288.9" r="8" />
<circle cx="80.9" cy="291.1" r="8" />
<circle cx="44.1" cy="292.7" r="8" />
<circle cx="12.0" cy="298.3" r="8" />
<circle cx="22.8" cy="316.6" r="8" />
<style>
circle {
fill: white;
stroke: #525252;
stroke-width: 4;
}
path {
fill: none;
stroke: #525252;
stroke-width: 8;
}</style>
</svg>