<svg width="711.3" height="1024.0" xmlns="http://www.w3.org/2000/svg">
<path d="M12.0 12.0 L12.0 89.7 L39.8 117.5 L111.8 189.5 L111.8 211.8 L118.6 211.8 L137.8 231.1 L194.1 287.4 L249.8 287.4 L266.4 287.4 L279.5 300.5 L367.5 388.6 L367.5 420.6 L367.5 447.2 L458.5 538.1 L603.6 683.3 L603.6 761.4 L603.6 806.6 L668.3 871.4 L699.3 902.4 L699.3 1012.0 L567.8 1012.0 L555.8 1000.0 L317.4 761.6 L315.0 761.6 L251.6 698.2 L251.6 684.9 L251.6 622.1 L212.0 582.5 L171.6 542.1 L171.6 487.4 L171.6 426.1 L139.4 393.9 L101.1 355.6 L101.1 322.1 L101.1 309.1 L135.1 275.1 " />
<circle cx="12.0" cy="12.0" r="8" />
<circle cx="39.8" cy="117.5" r="8" />
<circle cx="111.8" cy="211.8" r="8" />
<circle cx="137.8" cy="231.1" r="8" />
<circle cx="249.8" cy="287.4" r="8" />
<circle cx="279.5" cy="300.5" r="8" />
<circle cx="367.5" cy="420.6" r="8" />
<circle cx="458.5" cy="538.1" r="8" />
<circle cx="603.6" cy="761.4" r="8" />
<circle cx="668.3" cy="871.4" r="8" />
<circle cx="699.3" cy="1012.0" r="8" />
<circle cx="555.8" cy="1000.0" r="8" />
<circle cx="315.0" cy="761.6" r="8" />
<circle cx="251.6" cy="684.9" r="8" />
<circle cx="212.0" cy="582.5" r="8" />
<circle cx="171.6" cy="487.4" r="8" />
<circle cx="139.4" cy="393.9" r="8" />
<circle cx="101.1" cy="322.1" r="8" />
<circle cx="135.1" cy="275.1" r="8" />
<style>
circle {
fill: white;
stroke: black;
stroke-width: 4;
}
path {
fill: none;
stroke: #FFFFFF;
stroke-width: 8;
}</style>
</svg>