<svg width="1020.8" height="1024.0" xmlns="http://www.w3.org/2000/svg">
<path d="M12.0 1012.0 L23.0 1001.0 L53.8 1001.0 L79.0 1001.0 L93.8 986.2 L109.6 970.4 L137.5 970.4 L166.4 970.4 L182.1 954.7 L201.0 935.8 L217.4 935.8 L228.9 935.8 L255.8 909.0 L268.1 896.6 L298.6 896.6 L354.6 896.6 L377.0 874.3 L387.9 863.4 L428.6 863.4 L473.2 863.4 L491.9 844.6 L517.4 819.1 L589.3 819.1 L585.3 823.2 L585.3 853.5 L585.3 867.5 L604.8 887.0 L635.8 856.0 L671.1 856.0 L671.1 846.2 L684.1 833.2 L699.0 818.4 L699.0 799.8 L699.0 781.6 L707.6 773.0 L710.4 770.1 L754.1 770.1 L833.5 770.1 L840.1 763.6 L847.8 771.3 L921.0 771.3 L921.0 729.4 L931.4 719.0 L984.5 665.9 L1008.8 665.9 L1000.5 657.6 L1000.5 627.2 L1000.5 593.9 L992.7 586.1 L1001.6 577.2 L1001.6 550.6 L1001.6 517.8 L997.4 513.6 L984.0 500.2 L984.0 465.4 L989.8 465.4 L1003.8 451.3 L1007.0 448.2 L1007.0 429.1 L1007.0 388.6 L1006.6 388.3 L998.1 379.8 L998.1 352.2 L998.1 318.0 L1008.0 308.1 L1000.4 300.5 L1000.4 267.0 L968.6 267.0 L954.5 281.1 L954.5 279.8 L1003.6 230.7 L994.5 221.6 L994.5 203.8 L994.5 180.8 L985.7 172.0 L971.6 158.0 L971.6 149.0 L971.6 114.3 L961.2 103.9 L954.0 96.7 L954.0 79.1 L954.0 63.9 L958.4 59.5 L992.3 25.6 L992.3 12.0 " />
<circle cx="12.0" cy="1012.0" r="8" />
<circle cx="53.8" cy="1001.0" r="8" />
<circle cx="93.8" cy="986.2" r="8" />
<circle cx="137.5" cy="970.4" r="8" />
<circle cx="182.1" cy="954.7" r="8" />
<circle cx="217.4" cy="935.8" r="8" />
<circle cx="255.8" cy="909.0" r="8" />
<circle cx="298.6" cy="896.6" r="8" />
<circle cx="377.0" cy="874.3" r="8" />
<circle cx="428.6" cy="863.4" r="8" />
<circle cx="491.9" cy="844.6" r="8" />
<circle cx="589.3" cy="819.1" r="8" />
<circle cx="585.3" cy="853.5" r="8" />
<circle cx="604.8" cy="887.0" r="8" />
<circle cx="671.1" cy="856.0" r="8" />
<circle cx="684.1" cy="833.2" r="8" />
<circle cx="699.0" cy="799.8" r="8" />
<circle cx="707.6" cy="773.0" r="8" />
<circle cx="754.1" cy="770.1" r="8" />
<circle cx="840.1" cy="763.6" r="8" />
<circle cx="921.0" cy="771.3" r="8" />
<circle cx="931.4" cy="719.0" r="8" />
<circle cx="1008.8" cy="665.9" r="8" />
<circle cx="1000.5" cy="627.2" r="8" />
<circle cx="992.7" cy="586.1" r="8" />
<circle cx="1001.6" cy="550.6" r="8" />
<circle cx="997.4" cy="513.6" r="8" />
<circle cx="984.0" cy="465.4" r="8" />
<circle cx="1003.8" cy="451.3" r="8" />
<circle cx="1007.0" cy="429.1" r="8" />
<circle cx="1006.6" cy="388.3" r="8" />
<circle cx="998.1" cy="352.2" r="8" />
<circle cx="1008.0" cy="308.1" r="8" />
<circle cx="1000.4" cy="267.0" r="8" />
<circle cx="954.5" cy="281.1" r="8" />
<circle cx="1003.6" cy="230.7" r="8" />
<circle cx="994.5" cy="203.8" r="8" />
<circle cx="985.7" cy="172.0" r="8" />
<circle cx="971.6" cy="149.0" r="8" />
<circle cx="961.2" cy="103.9" r="8" />
<circle cx="954.0" cy="79.1" r="8" />
<circle cx="958.4" cy="59.5" r="8" />
<circle cx="992.3" cy="12.0" r="8" />
<style>
circle {
fill: white;
stroke: #000000;
stroke-width: 4;
}
path {
fill: none;
stroke: #000000;
stroke-width: 8;
}</style>
</svg>