<svg width="1024.0" height="808.8" xmlns="http://www.w3.org/2000/svg">
<path d="M12.0 701.3871226961837 L40.3 729.6 L43.9 729.6 L51.3 729.6 L80.9 759.3 L97.6 776.0 L118.4 776.0 L155.9 776.0 L164.8 784.9 L176.8 796.8 L229.7 796.8 L253.9 796.8 L262.5 788.2 L274.1 776.6 L293.9 776.6 L315.8 776.6 L328.2 764.2 L340.5 751.9 L363.2 751.9 L376.1 751.9 L390.9 737.1 L412.0 716.0 L421.0 716.0 L445.0 716.0 L454.6 706.3 L472.2 688.7 L516.2 688.7 L548.1 688.7 L556.7 680.2 L571.4 665.5 L606.4 665.5 L662.8 665.5 L682.8 645.5 L682.8 669.2 L679.7 672.4 L695.0 687.7 L695.0 698.7 L719.3 674.4 L747.0 674.4 L747.0 666.7 L757.2 656.5 L768.9 644.9 L768.9 630.3 L768.9 616.0 L775.6 609.2 L777.8 607.0 L812.2 607.0 L874.5 607.0 L879.6 601.9 L885.6 607.9 L943.1 607.9 L943.1 575.0 L951.2 566.9 L993.0 525.2 L1012.0 525.2 L1005.5 518.7 L1005.5 494.9 L1005.5 468.7 L999.4 462.6 L1006.4 455.6 L1006.4 434.7 L1006.4 409.0 L1003.1 405.7 L992.6 395.2 L992.6 367.8 L997.1 367.8 L1008.1 356.8 L1010.6 354.3 L1010.6 339.3 L1010.6 307.6 L1010.3 307.3 L1003.7 300.6 L1003.7 279.0 L1003.7 252.2 L1011.4 244.4 L1005.4 238.4 L1005.4 212.1 L980.5 212.1 L969.4 223.2 L969.4 222.2 L1007.9 183.7 L1000.8 176.5 L1000.8 162.5 L1000.8 144.5 L993.9 137.6 L982.8 126.6 L982.8 119.6 L982.8 92.3 L974.7 84.1 L966.3 75.8 L966.3 64.4 L966.3 55.4 L972.4 49.3 L999.0 22.7 L999.0 12.0 " />
<circle cx="12.0" cy="701.4" r="8" />
<circle cx="43.9" cy="729.6" r="8" />
<circle cx="80.9" cy="759.3" r="8" />
<circle cx="118.4" cy="776.0" r="8" />
<circle cx="164.8" cy="784.9" r="8" />
<circle cx="229.7" cy="796.8" r="8" />
<circle cx="262.5" cy="788.2" r="8" />
<circle cx="293.9" cy="776.6" r="8" />
<circle cx="328.2" cy="764.2" r="8" />
<circle cx="363.2" cy="751.9" r="8" />
<circle cx="390.9" cy="737.1" r="8" />
<circle cx="421.0" cy="716.0" r="8" />
<circle cx="454.6" cy="706.3" r="8" />
<circle cx="516.2" cy="688.7" r="8" />
<circle cx="556.7" cy="680.2" r="8" />
<circle cx="606.4" cy="665.5" r="8" />
<circle cx="682.8" cy="645.5" r="8" />
<circle cx="679.7" cy="672.4" r="8" />
<circle cx="695.0" cy="698.7" r="8" />
<circle cx="747.0" cy="674.4" r="8" />
<circle cx="757.2" cy="656.5" r="8" />
<circle cx="768.9" cy="630.3" r="8" />
<circle cx="775.6" cy="609.2" r="8" />
<circle cx="812.2" cy="607.0" r="8" />
<circle cx="879.6" cy="601.9" r="8" />
<circle cx="943.1" cy="607.9" r="8" />
<circle cx="951.2" cy="566.9" r="8" />
<circle cx="1012.0" cy="525.2" r="8" />
<circle cx="1005.5" cy="494.9" r="8" />
<circle cx="999.4" cy="462.6" r="8" />
<circle cx="1006.4" cy="434.7" r="8" />
<circle cx="1003.1" cy="405.7" r="8" />
<circle cx="992.6" cy="367.8" r="8" />
<circle cx="1008.1" cy="356.8" r="8" />
<circle cx="1010.6" cy="339.3" r="8" />
<circle cx="1010.3" cy="307.3" r="8" />
<circle cx="1003.7" cy="279.0" r="8" />
<circle cx="1011.4" cy="244.4" r="8" />
<circle cx="1005.4" cy="212.1" r="8" />
<circle cx="969.4" cy="223.2" r="8" />
<circle cx="1007.9" cy="183.7" r="8" />
<circle cx="1000.8" cy="162.5" r="8" />
<circle cx="993.9" cy="137.6" r="8" />
<circle cx="982.8" cy="119.6" r="8" />
<circle cx="974.7" cy="84.1" r="8" />
<circle cx="966.3" cy="64.4" r="8" />
<circle cx="972.4" cy="49.3" r="8" />
<circle cx="999.0" cy="12.0" r="8" />
<style>
circle {
fill: white;
stroke: #000000;
stroke-width: 4;
}
path {
fill: none;
stroke: #000000;
stroke-width: 8;
}</style>
</svg>