<svg width="1024.0" height="986.0" xmlns="http://www.w3.org/2000/svg">
<path d="M996.9238265173261 12.0 L966.0 43.0 L966.0 55.4 L966.0 65.9 L958.8 73.0 L958.8 86.3 L968.5 96.0 L978.1 105.5 L978.1 137.2 L978.1 145.3 L990.9 158.2 L998.9 166.2 L998.9 187.2 L998.9 203.5 L1007.2 211.8 L1007.2 242.0 L1004.3 244.9 L1004.3 275.5 L1011.3 282.5 L1011.3 313.7 L1002.3 322.8 L1002.3 347.9 L1010.1 355.7 L1010.4 356.0 L1010.4 393.0 L1010.4 405.2 L989.4 426.2 L989.4 458.0 L1001.6 470.2 L1005.5 474.0 L1005.5 503.9 L1005.5 528.3 L997.4 536.4 L997.4 566.9 L1004.5 574.0 L1012.0 581.5 L1012.0 609.3 L963.4 657.8 L941.3 657.8 L938.5 660.6 L938.5 689.7 L938.5 698.9 L931.9 705.6 L864.9 705.6 L857.9 698.5 L847.6 688.3 L789.1 688.3 L755.7 688.3 L736.9 707.1 L729.0 715.0 L729.0 731.6 L729.0 748.6 L715.4 762.1 L703.6 774.0 L703.6 782.9 L675.3 811.2 L643.0 811.2 L591.7 811.2 L580.5 800.1 L553.0 772.6 L539.9 772.6 L499.2 772.6 L482.0 789.7 L472.1 799.6 L434.9 799.6 L383.7 799.6 L363.3 820.1 L352.0 831.3 L324.2 831.3 L313.7 831.3 L289.1 855.9 L271.9 873.1 L256.9 873.1 L230.4 873.1 L216.1 887.4 L201.7 901.9 L176.2 901.9 L153.2 901.9 L139.7 915.4 L129.7 925.4 L101.5 925.4 L85.1 925.4 L78.1 932.4 L54.1 956.4 L50.5 956.4 L29.6 956.4 L12.0 974.0 " />
<circle cx="996.9" cy="12.0" r="8" />
<circle cx="966.0" cy="55.4" r="8" />
<circle cx="958.8" cy="73.0" r="8" />
<circle cx="968.5" cy="96.0" r="8" />
<circle cx="978.1" cy="137.2" r="8" />
<circle cx="990.9" cy="158.2" r="8" />
<circle cx="998.9" cy="187.2" r="8" />
<circle cx="1007.2" cy="211.8" r="8" />
<circle cx="1004.3" cy="244.9" r="8" />
<circle cx="1011.3" cy="282.5" r="8" />
<circle cx="1002.3" cy="322.8" r="8" />
<circle cx="1010.1" cy="355.7" r="8" />
<circle cx="1010.4" cy="393.0" r="8" />
<circle cx="989.4" cy="426.2" r="8" />
<circle cx="1001.6" cy="470.2" r="8" />
<circle cx="1005.5" cy="503.9" r="8" />
<circle cx="997.4" cy="536.4" r="8" />
<circle cx="1004.5" cy="574.0" r="8" />
<circle cx="1012.0" cy="609.3" r="8" />
<circle cx="941.3" cy="657.8" r="8" />
<circle cx="938.5" cy="689.7" r="8" />
<circle cx="931.9" cy="705.6" r="8" />
<circle cx="857.9" cy="698.5" r="8" />
<circle cx="789.1" cy="688.3" r="8" />
<circle cx="736.9" cy="707.1" r="8" />
<circle cx="729.0" cy="731.6" r="8" />
<circle cx="715.4" cy="762.1" r="8" />
<circle cx="703.6" cy="782.9" r="8" />
<circle cx="643.0" cy="811.2" r="8" />
<circle cx="580.5" cy="800.1" r="8" />
<circle cx="539.9" cy="772.6" r="8" />
<circle cx="482.0" cy="789.7" r="8" />
<circle cx="434.9" cy="799.6" r="8" />
<circle cx="363.3" cy="820.1" r="8" />
<circle cx="324.2" cy="831.3" r="8" />
<circle cx="289.1" cy="855.9" r="8" />
<circle cx="256.9" cy="873.1" r="8" />
<circle cx="216.1" cy="887.4" r="8" />
<circle cx="176.2" cy="901.9" r="8" />
<circle cx="139.7" cy="915.4" r="8" />
<circle cx="101.5" cy="925.4" r="8" />
<circle cx="78.1" cy="932.4" r="8" />
<circle cx="50.5" cy="956.4" r="8" />
<circle cx="12.0" cy="974.0" r="8" />
<style>
circle {
fill: white;
stroke: #000000;
stroke-width: 4;
}
path {
fill: none;
stroke: #000000;
stroke-width: 8;
}</style>
</svg>