<svg width="1024.0" height="579.4" xmlns="http://www.w3.org/2000/svg">
<path d="M12.0 567.4186206154378 L104.5 474.9 L153.8 474.9 L187.3 474.9 L241.0 421.3 L323.2 421.3 L394.9 493.0 L451.4 549.5 L503.0 549.5 L509.0 549.5 L564.1 494.4 L600.7 457.8 L600.7 408.5 L600.7 358.7 L634.1 325.3 L688.6 270.8 L690.2 270.8 L700.2 270.8 L737.7 233.3 L774.6 196.4 L783.2 196.4 L791.2 196.4 L881.3 106.3 L975.6 12.0 L1012.0 12.0 " />
<circle cx="12.0" cy="567.4" r="8" />
<circle cx="153.8" cy="474.9" r="8" />
<circle cx="241.0" cy="421.3" r="8" />
<circle cx="394.9" cy="493.0" r="8" />
<circle cx="503.0" cy="549.5" r="8" />
<circle cx="564.1" cy="494.4" r="8" />
<circle cx="600.7" cy="408.5" r="8" />
<circle cx="634.1" cy="325.3" r="8" />
<circle cx="690.2" cy="270.8" r="8" />
<circle cx="737.7" cy="233.3" r="8" />
<circle cx="783.2" cy="196.4" r="8" />
<circle cx="881.3" cy="106.3" r="8" />
<circle cx="1012.0" cy="12.0" r="8" />
<style>
circle {
fill: white;
stroke: #525252;
stroke-width: 4;
}
path {
fill: none;
stroke: #525252;
stroke-width: 8;
}</style>
</svg>