<svg width="1024.0" height="840.0" xmlns="http://www.w3.org/2000/svg">
<path d="M366.6 734.9 L366.6 753.5 L388.0 774.9 L365.8 797.1 L365.8 825.7 L196.1 825.7 L193.8 828.0 L172.1 806.3 L77.3 806.3 L77.3 743.9 L88.5 732.7 L12.0 656.2 L12.0 644.3 L12.0 604.0 L43.1 573.0 L137.3 478.7 L137.3 451.1 L137.3 372.2 L217.8 291.8 L187.4 261.4 L187.4 201.8 L129.5 201.8 L115.4 187.6 L312.6 187.6 L326.5 201.5 L348.7 179.4 L907.5 179.4 L907.5 150.6 L927.0 131.1 L1012.0 46.1 L1012.0 12.0 " />
<circle cx="366.6" cy="734.9" r="8" />
<circle cx="388.0" cy="774.9" r="8" />
<circle cx="365.8" cy="825.7" r="8" />
<circle cx="193.8" cy="828.0" r="8" />
<circle cx="77.3" cy="806.3" r="8" />
<circle cx="88.5" cy="732.7" r="8" />
<circle cx="12.0" cy="644.3" r="8" />
<circle cx="43.1" cy="573.0" r="8" />
<circle cx="137.3" cy="451.1" r="8" />
<circle cx="217.8" cy="291.8" r="8" />
<circle cx="187.4" cy="201.8" r="8" />
<circle cx="115.4" cy="187.6" r="8" />
<circle cx="326.5" cy="201.5" r="8" />
<circle cx="907.5" cy="179.4" r="8" />
<circle cx="927.0" cy="131.1" r="8" />
<circle cx="1012.0" cy="12.0" r="8" />
<style>
circle {
fill: white;
stroke: #525252;
stroke-width: 4;
}
path {
fill: none;
stroke: #525252;
stroke-width: 8;
}</style>
</svg>