<svg width="770.5" height="1024.0" xmlns="http://www.w3.org/2000/svg">
<path d="M90.32464317297953 12.0 L90.3 56.2 L89.9 56.6 L89.9 123.8 L125.2 159.1 L125.2 249.2 L124.2 250.1 L124.2 319.5 L126.8 322.1 L126.8 412.9 L123.2 416.6 L56.9 482.9 L56.9 593.8 L56.9 616.2 L46.3 626.8 L12.0 661.1 L12.0 696.0 L12.0 683.9 L28.0 667.9 L71.0 625.0 L104.8 625.0 L157.6 625.0 L172.6 640.0 L215.0 640.0 L218.7 636.2 L243.4 636.2 L257.2 650.0 L271.6 664.4 L308.3 664.4 L342.2 664.4 L360.5 682.8 L381.3 703.6 L436.5 703.6 L463.3 703.6 L478.7 719.0 L504.5 744.8 L584.3 744.8 L600.9 744.8 L625.7 769.6 L650.4 794.3 L687.3 794.3 L730.0 794.3 L758.5 822.9 L758.5 829.1 L726.9 860.8 L696.0 891.6 L658.0 891.6 L651.9 891.6 L623.9 919.7 L604.8 938.7 L572.2 938.7 L532.4 938.7 L508.8 962.3 L480.7 990.4 L480.7 991.6 L460.3 1012.0 L450.3 1012.0 " />
<circle cx="90.3" cy="12.0" r="8" />
<circle cx="89.9" cy="56.6" r="8" />
<circle cx="125.2" cy="159.1" r="8" />
<circle cx="124.2" cy="250.1" r="8" />
<circle cx="126.8" cy="322.1" r="8" />
<circle cx="123.2" cy="416.6" r="8" />
<circle cx="56.9" cy="593.8" r="8" />
<circle cx="46.3" cy="626.8" r="8" />
<circle cx="12.0" cy="696.0" r="8" />
<circle cx="28.0" cy="667.9" r="8" />
<circle cx="104.8" cy="625.0" r="8" />
<circle cx="172.6" cy="640.0" r="8" />
<circle cx="218.7" cy="636.2" r="8" />
<circle cx="257.2" cy="650.0" r="8" />
<circle cx="308.3" cy="664.4" r="8" />
<circle cx="360.5" cy="682.8" r="8" />
<circle cx="436.5" cy="703.6" r="8" />
<circle cx="478.7" cy="719.0" r="8" />
<circle cx="584.3" cy="744.8" r="8" />
<circle cx="625.7" cy="769.6" r="8" />
<circle cx="687.3" cy="794.3" r="8" />
<circle cx="758.5" cy="822.9" r="8" />
<circle cx="726.9" cy="860.8" r="8" />
<circle cx="658.0" cy="891.6" r="8" />
<circle cx="623.9" cy="919.7" r="8" />
<circle cx="572.2" cy="938.7" r="8" />
<circle cx="508.8" cy="962.3" r="8" />
<circle cx="480.7" cy="991.6" r="8" />
<circle cx="450.3" cy="1012.0" r="8" />
<style>
circle {
fill: white;
stroke: #000000;
stroke-width: 4;
}
path {
fill: none;
stroke: #000000;
stroke-width: 8;
}</style>
</svg>