<svg width="846.5" height="1024.0" xmlns="http://www.w3.org/2000/svg">
<path d="M12.0 12.0 L56.7 12.0 L73.9 29.2 L124.9 80.2 L166.6 80.2 L176.7 80.2 L335.1 238.6 L309.6 264.1 L287.9 264.1 L263.1 288.9 L263.1 305.0 L263.1 349.0 L272.6 358.5 L282.3 368.1 L282.3 391.0 L282.3 417.3 L304.8 439.9 L312.0 447.1 L312.0 456.2 L329.8 474.0 L333.7 474.0 L368.9 474.0 L369.3 473.6 L421.2 473.6 L431.0 483.4 L477.5 483.4 L481.1 479.8 L493.8 467.2 L520.4 467.2 L527.3 467.2 L541.9 481.8 L563.0 502.9 L563.0 503.1 L563.0 504.0 L594.5 535.4 L613.2 554.1 L672.1 554.1 L713.8 554.1 L731.8 572.1 L755.8 596.1 L796.0 596.1 L725.8 596.1 L685.2 636.7 L611.9 710.0 L611.9 746.6 L609.9 744.6 L572.6 744.6 L571.5 744.6 L551.0 765.0 L532.8 783.2 L522.6 783.2 L585.8 783.2 L605.3 763.8 L572.5 796.6 L572.5 806.0 L552.9 825.6 L530.5 825.6 L519.9 825.6 L472.3 873.2 L437.8 907.7 L437.8 910.2 L410.8 937.3 L389.1 937.3 L422.9 937.3 L433.0 947.4 L441.3 955.7 L489.1 955.7 L532.1 955.7 L545.8 969.5 L555.9 979.5 L609.4 979.5 L659.0 979.5 L665.1 985.6 L755.6 985.6 L756.6 984.6 L807.2 984.6 L834.5 1012.0 " />
<circle cx="12.0" cy="12.0" r="8" />
<circle cx="73.9" cy="29.2" r="8" />
<circle cx="166.6" cy="80.2" r="8" />
<circle cx="335.1" cy="238.6" r="8" />
<circle cx="287.9" cy="264.1" r="8" />
<circle cx="263.1" cy="305.0" r="8" />
<circle cx="272.6" cy="358.5" r="8" />
<circle cx="282.3" cy="391.0" r="8" />
<circle cx="304.8" cy="439.9" r="8" />
<circle cx="312.0" cy="456.2" r="8" />
<circle cx="333.7" cy="474.0" r="8" />
<circle cx="369.3" cy="473.6" r="8" />
<circle cx="431.0" cy="483.4" r="8" />
<circle cx="481.1" cy="479.8" r="8" />
<circle cx="520.4" cy="467.2" r="8" />
<circle cx="541.9" cy="481.8" r="8" />
<circle cx="563.0" cy="503.1" r="8" />
<circle cx="594.5" cy="535.4" r="8" />
<circle cx="672.1" cy="554.1" r="8" />
<circle cx="731.8" cy="572.1" r="8" />
<circle cx="796.0" cy="596.1" r="8" />
<circle cx="685.2" cy="636.7" r="8" />
<circle cx="611.9" cy="746.6" r="8" />
<circle cx="572.6" cy="744.6" r="8" />
<circle cx="551.0" cy="765.0" r="8" />
<circle cx="522.6" cy="783.2" r="8" />
<circle cx="605.3" cy="763.8" r="8" />
<circle cx="572.5" cy="806.0" r="8" />
<circle cx="530.5" cy="825.6" r="8" />
<circle cx="472.3" cy="873.2" r="8" />
<circle cx="437.8" cy="910.2" r="8" />
<circle cx="389.1" cy="937.3" r="8" />
<circle cx="433.0" cy="947.4" r="8" />
<circle cx="489.1" cy="955.7" r="8" />
<circle cx="545.8" cy="969.5" r="8" />
<circle cx="609.4" cy="979.5" r="8" />
<circle cx="665.1" cy="985.6" r="8" />
<circle cx="756.6" cy="984.6" r="8" />
<circle cx="834.5" cy="1012.0" r="8" />
<style>
circle {
fill: white;
stroke: #525252;
stroke-width: 4;
}
path {
fill: none;
stroke: #525252;
stroke-width: 8;
}</style>
</svg>