<svg width="1024.0" height="416.8" xmlns="http://www.w3.org/2000/svg">
<path d="M12.0 88.20256294891799 L12.0 60.4 L12.3 60.2 L39.7 32.8 L39.7 12.0 L87.6 12.0 L155.0 79.4 L175.9 79.4 L180.0 75.4 L190.1 65.3 L196.0 65.3 L227.9 65.3 L247.1 46.2 L248.2 45.0 L278.6 45.0 L324.9 45.0 L327.1 42.9 L317.6 52.3 L317.6 61.9 L307.5 72.0 L302.3 72.0 L316.2 72.0 L340.8 47.4 L354.7 47.4 L358.3 51.0 L370.7 63.5 L388.7 63.5 L405.7 63.5 L418.0 75.7 L464.5 75.7 L466.8 73.4 L545.2 73.4 L570.8 99.1 L599.0 127.2 L611.1 127.2 L642.8 127.2 L695.7 180.1 L712.4 196.9 L728.2 196.9 L741.8 196.9 L775.7 230.8 L803.8 258.8 L826.1 258.8 L829.5 258.8 L842.1 246.1 L853.0 246.1 L858.4 251.6 L859.5 252.6 L859.5 255.9 L915.6 312.0 L933.3 312.0 L964.4 312.0 L972.3 319.9 L984.5 332.1 L1012.0 332.1 L1012.0 356.2 L991.9 376.3 L971.7 396.5 L971.7 404.8 L965.0 398.0 L921.6 398.0 " />
<circle cx="12.0" cy="88.2" r="8" />
<circle cx="12.3" cy="60.2" r="8" />
<circle cx="39.7" cy="12.0" r="8" />
<circle cx="155.0" cy="79.4" r="8" />
<circle cx="180.0" cy="75.4" r="8" />
<circle cx="196.0" cy="65.3" r="8" />
<circle cx="247.1" cy="46.2" r="8" />
<circle cx="278.6" cy="45.0" r="8" />
<circle cx="327.1" cy="42.9" r="8" />
<circle cx="317.6" cy="61.9" r="8" />
<circle cx="302.3" cy="72.0" r="8" />
<circle cx="340.8" cy="47.4" r="8" />
<circle cx="358.3" cy="51.0" r="8" />
<circle cx="388.7" cy="63.5" r="8" />
<circle cx="418.0" cy="75.7" r="8" />
<circle cx="466.8" cy="73.4" r="8" />
<circle cx="570.8" cy="99.1" r="8" />
<circle cx="611.1" cy="127.2" r="8" />
<circle cx="695.7" cy="180.1" r="8" />
<circle cx="728.2" cy="196.9" r="8" />
<circle cx="775.7" cy="230.8" r="8" />
<circle cx="826.1" cy="258.8" r="8" />
<circle cx="842.1" cy="246.1" r="8" />
<circle cx="858.4" cy="251.6" r="8" />
<circle cx="859.5" cy="255.9" r="8" />
<circle cx="933.3" cy="312.0" r="8" />
<circle cx="972.3" cy="319.9" r="8" />
<circle cx="1012.0" cy="332.1" r="8" />
<circle cx="991.9" cy="376.3" r="8" />
<circle cx="971.7" cy="404.8" r="8" />
<circle cx="921.6" cy="398.0" r="8" />
<style>
circle {
fill: white;
stroke: #525252;
stroke-width: 4;
}
path {
fill: none;
stroke: #525252;
stroke-width: 8;
}</style>
</svg>