<svg width="1024.0" height="323.1" xmlns="http://www.w3.org/2000/svg">
<path d="M1012.0 311.1 L1003.2 302.3 L990.7 302.3 L933.2 302.3 L929.5 306.0 L906.5 283.0 L896.3 283.0 L880.7 283.0 L856.0 258.3 L839.9 242.2 L824.1 242.2 L790.9 242.2 L768.6 220.0 L749.4 200.7 L720.6 200.7 L707.8 200.7 L688.5 181.4 L668.4 161.4 L606.2 161.4 L606.2 164.7 L582.1 188.8 L573.3 179.9 L542.4 179.9 L481.1 179.9 L461.4 160.1 L456.2 155.0 L395.9 155.0 L352.3 155.0 L336.7 139.4 L330.0 132.7 L287.5 132.7 L268.0 132.7 L255.8 120.5 L235.5 100.2 L235.5 85.3 L188.3 85.3 L182.7 79.6 L199.7 62.6 L199.7 51.4 L152.8 51.4 L136.1 34.8 L123.8 22.4 L87.5 22.4 L22.4 22.4 L12.0 12.0 " />
<circle cx="1012.0" cy="311.1" r="8" />
<circle cx="990.7" cy="302.3" r="8" />
<circle cx="929.5" cy="306.0" r="8" />
<circle cx="896.3" cy="283.0" r="8" />
<circle cx="856.0" cy="258.3" r="8" />
<circle cx="824.1" cy="242.2" r="8" />
<circle cx="768.6" cy="220.0" r="8" />
<circle cx="720.6" cy="200.7" r="8" />
<circle cx="688.5" cy="181.4" r="8" />
<circle cx="606.2" cy="161.4" r="8" />
<circle cx="582.1" cy="188.8" r="8" />
<circle cx="542.4" cy="179.9" r="8" />
<circle cx="461.4" cy="160.1" r="8" />
<circle cx="395.9" cy="155.0" r="8" />
<circle cx="336.7" cy="139.4" r="8" />
<circle cx="287.5" cy="132.7" r="8" />
<circle cx="255.8" cy="120.5" r="8" />
<circle cx="235.5" cy="85.3" r="8" />
<circle cx="182.7" cy="79.6" r="8" />
<circle cx="199.7" cy="51.4" r="8" />
<circle cx="136.1" cy="34.8" r="8" />
<circle cx="87.5" cy="22.4" r="8" />
<circle cx="12.0" cy="12.0" r="8" />
<style>
circle {
fill: white;
stroke: #FEDB00;
stroke-width: 4;
}
path {
fill: none;
stroke: #FEDB00;
stroke-width: 8;
}</style>
</svg>