<svg width="1024.0" height="323.1" xmlns="http://www.w3.org/2000/svg">
<path d="M1012.0 311.1 L1003.2 302.3 L990.7 302.3 L933.2 302.3 L929.5 306.0 L905.6 282.0 L895.8 282.0 L881.2 282.0 L860.0 260.8 L845.1 246.0 L827.7 246.0 L794.6 246.0 L768.6 220.0 L749.4 200.7 L720.6 200.7 L707.8 200.7 L688.5 181.4 L668.4 161.4 L606.2 161.4 L606.2 164.7 L582.1 188.8 L573.3 179.9 L542.4 179.9 L482.7 179.9 L463.1 160.2 L458.6 155.8 L399.4 155.8 L353.1 155.8 L336.7 139.4 L329.7 132.4 L286.5 132.4 L267.7 132.4 L255.8 120.5 L269.5 106.7 L269.5 89.6 L269.5 72.1 L277.8 63.9 L265.3 51.4 L199.7 51.4 L152.8 51.4 L136.1 34.8 L123.8 22.4 L87.5 22.4 L22.4 22.4 L12.0 12.0 " />
<circle cx="1012.0" cy="311.1" r="8" />
<circle cx="990.7" cy="302.3" r="8" />
<circle cx="929.5" cy="306.0" r="8" />
<circle cx="895.8" cy="282.0" r="8" />
<circle cx="860.0" cy="260.8" r="8" />
<circle cx="827.7" cy="246.0" r="8" />
<circle cx="768.6" cy="220.0" r="8" />
<circle cx="720.6" cy="200.7" r="8" />
<circle cx="688.5" cy="181.4" r="8" />
<circle cx="606.2" cy="161.4" r="8" />
<circle cx="582.1" cy="188.8" r="8" />
<circle cx="542.4" cy="179.9" r="8" />
<circle cx="463.1" cy="160.2" r="8" />
<circle cx="399.4" cy="155.8" r="8" />
<circle cx="336.7" cy="139.4" r="8" />
<circle cx="286.5" cy="132.4" r="8" />
<circle cx="255.8" cy="120.5" r="8" />
<circle cx="269.5" cy="89.6" r="8" />
<circle cx="277.8" cy="63.9" r="8" />
<circle cx="199.7" cy="51.4" r="8" />
<circle cx="136.1" cy="34.8" r="8" />
<circle cx="87.5" cy="22.4" r="8" />
<circle cx="12.0" cy="12.0" r="8" />
<style>
circle {
fill: white;
stroke: #FEDB00;
stroke-width: 4;
}
path {
fill: none;
stroke: #FEDB00;
stroke-width: 8;
}</style>
</svg>