<svg width="1024.0" height="798.7" xmlns="http://www.w3.org/2000/svg">
<path d="M589.658020396571 786.7387263444986 L692.5 683.9 L692.5 648.7 L692.5 594.4 L717.5 569.4 L752.2 534.7 L752.2 424.6 L752.2 342.6 L809.6 285.2 L919.4 175.5 L941.3 175.5 L961.2 175.5 L1012.0 124.7 L949.3 124.7 L917.5 92.9 L917.1 92.5 L775.7 92.5 L775.7 138.4 L809.4 172.1 L772.2 134.9 L697.5 134.9 L629.5 134.9 L613.0 151.4 L613.0 186.5 L626.7 200.2 L622.0 204.9 L456.9 204.9 L515.3 146.5 L515.3 143.4 L457.4 85.5 L404.5 85.5 L320.2 85.5 L246.7 12.0 L191.8 67.0 L157.4 67.0 L106.8 67.0 L12.0 161.8 L12.0 173.7 L59.2 220.9 L165.1 220.9 L169.0 217.0 L174.6 211.3 L298.8 211.3 L383.0 211.3 L460.0 288.3 L465.5 293.9 L465.5 394.2 L465.5 435.7 L497.3 467.5 L513.5 483.7 L513.5 534.5 L513.5 560.2 L542.5 589.1 L542.5 647.4 L538.7 651.2 L532.5 657.4 L416.1 657.4 L528.3 657.4 L554.9 684.1 " />
<circle cx="589.7" cy="786.7" r="8" />
<circle cx="692.5" cy="648.7" r="8" />
<circle cx="717.5" cy="569.4" r="8" />
<circle cx="752.2" cy="424.6" r="8" />
<circle cx="809.6" cy="285.2" r="8" />
<circle cx="941.3" cy="175.5" r="8" />
<circle cx="1012.0" cy="124.7" r="8" />
<circle cx="917.5" cy="92.9" r="8" />
<circle cx="775.7" cy="92.5" r="8" />
<circle cx="809.4" cy="172.1" r="8" />
<circle cx="697.5" cy="134.9" r="8" />
<circle cx="613.0" cy="151.4" r="8" />
<circle cx="626.7" cy="200.2" r="8" />
<circle cx="456.9" cy="204.9" r="8" />
<circle cx="515.3" cy="143.4" r="8" />
<circle cx="404.5" cy="85.5" r="8" />
<circle cx="246.7" cy="12.0" r="8" />
<circle cx="157.4" cy="67.0" r="8" />
<circle cx="12.0" cy="161.8" r="8" />
<circle cx="59.2" cy="220.9" r="8" />
<circle cx="169.0" cy="217.0" r="8" />
<circle cx="298.8" cy="211.3" r="8" />
<circle cx="460.0" cy="288.3" r="8" />
<circle cx="465.5" cy="394.2" r="8" />
<circle cx="497.3" cy="467.5" r="8" />
<circle cx="513.5" cy="534.5" r="8" />
<circle cx="542.5" cy="589.1" r="8" />
<circle cx="538.7" cy="651.2" r="8" />
<circle cx="416.1" cy="657.4" r="8" />
<circle cx="554.9" cy="684.1" r="8" />
<style>
circle {
fill: white;
stroke: #525252;
stroke-width: 4;
}
path {
fill: none;
stroke: #525252;
stroke-width: 8;
}</style>
</svg>