<svg width="1024.0" height="383.0" xmlns="http://www.w3.org/2000/svg">
<path d="M12.0 290.040400541142 L231.7 290.0 L234.2 292.5 L373.3 292.5 L377.2 288.6 L429.1 236.7 L429.1 133.9 L446.1 117.0 L501.0 117.0 L586.2 117.0 L627.5 75.7 L646.1 57.1 L692.8 57.1 L771.7 57.1 L778.5 50.3 L816.8 12.0 L944.4 12.0 L944.4 46.2 L931.8 58.8 L916.5 74.1 L916.5 120.5 L916.5 140.0 L980.4 203.8 L994.1 217.6 L994.1 234.6 L994.1 251.5 L1012.0 269.3 L1012.0 296.3 L1005.8 302.5 L977.1 331.2 L977.1 353.8 L972.8 349.5 L913.4 349.5 L869.4 349.5 L847.9 371.0 " />
<circle cx="12.0" cy="290.0" r="8" />
<circle cx="234.2" cy="292.5" r="8" />
<circle cx="377.2" cy="288.6" r="8" />
<circle cx="429.1" cy="133.9" r="8" />
<circle cx="501.0" cy="117.0" r="8" />
<circle cx="627.5" cy="75.7" r="8" />
<circle cx="692.8" cy="57.1" r="8" />
<circle cx="778.5" cy="50.3" r="8" />
<circle cx="944.4" cy="12.0" r="8" />
<circle cx="931.8" cy="58.8" r="8" />
<circle cx="916.5" cy="120.5" r="8" />
<circle cx="980.4" cy="203.8" r="8" />
<circle cx="994.1" cy="234.6" r="8" />
<circle cx="1012.0" cy="269.3" r="8" />
<circle cx="1005.8" cy="302.5" r="8" />
<circle cx="977.1" cy="353.8" r="8" />
<circle cx="913.4" cy="349.5" r="8" />
<circle cx="847.9" cy="371.0" r="8" />
<style>
circle {
fill: white;
stroke: black;
stroke-width: 4;
}
path {
fill: none;
stroke: #FFFFFF;
stroke-width: 8;
}</style>
</svg>