<svg width="1024.0" height="394.9" xmlns="http://www.w3.org/2000/svg">
<path d="M1012.0 12.0 L965.0 59.0 L932.2 59.0 L907.1 59.0 L876.4 89.7 L779.3 186.9 L763.2 186.9 L706.2 186.9 L653.8 239.2 L652.3 240.7 L585.1 240.7 L563.0 240.7 L529.7 274.0 L481.7 322.0 L437.7 322.0 L420.9 322.0 L409.0 310.1 L404.6 314.5 L389.1 314.5 L317.8 314.5 L314.8 317.4 L244.5 317.4 L240.9 313.9 L240.9 313.8 L132.5 313.8 L43.5 313.8 L34.8 305.2 L12.4 327.5 L12.0 327.5 L56.0 327.5 L68.4 339.9 L111.4 382.9 L244.5 382.9 " />
<circle cx="1012.0" cy="12.0" r="8" />
<circle cx="932.2" cy="59.0" r="8" />
<circle cx="876.4" cy="89.7" r="8" />
<circle cx="763.2" cy="186.9" r="8" />
<circle cx="653.8" cy="239.2" r="8" />
<circle cx="585.1" cy="240.7" r="8" />
<circle cx="529.7" cy="274.0" r="8" />
<circle cx="437.7" cy="322.0" r="8" />
<circle cx="409.0" cy="310.1" r="8" />
<circle cx="389.1" cy="314.5" r="8" />
<circle cx="314.8" cy="317.4" r="8" />
<circle cx="240.9" cy="313.9" r="8" />
<circle cx="132.5" cy="313.8" r="8" />
<circle cx="34.8" cy="305.2" r="8" />
<circle cx="12.0" cy="327.5" r="8" />
<circle cx="68.4" cy="339.9" r="8" />
<circle cx="244.5" cy="382.9" r="8" />
<style>
circle {
fill: white;
stroke: #525252;
stroke-width: 4;
}
path {
fill: none;
stroke: #525252;
stroke-width: 8;
}</style>
</svg>