<svg width="912.2" height="1024.0" xmlns="http://www.w3.org/2000/svg">
<path d="M723.0993558352162 1012.0 L760.1 1012.0 L784.7 987.4 L803.3 968.7 L809.5 968.7 L835.3 943.0 L835.3 941.4 L835.3 926.8 L826.7 918.2 L826.7 889.7 L836.7 879.8 L836.7 862.0 L836.1 861.4 L819.5 844.8 L790.1 844.8 L808.1 826.8 L808.1 821.6 L799.7 829.9 L772.0 829.9 L770.7 829.9 L757.1 816.3 L791.2 782.2 L836.6 782.2 L847.0 771.9 L847.0 743.1 L847.0 718.7 L846.6 718.3 L846.6 697.5 L883.7 660.4 L896.5 647.6 L896.5 647.3 L887.1 637.9 L880.6 637.9 L900.2 618.4 L900.2 592.5 L877.4 569.7 L849.2 569.7 L849.2 533.3 L846.5 530.5 L837.2 539.8 L790.2 539.8 L785.4 544.6 L785.4 544.8 L769.3 528.7 L757.1 528.7 L733.9 528.7 L718.0 512.7 L705.2 499.9 L683.3 499.9 L598.2 499.9 L594.1 495.8 L587.1 488.8 L555.5 488.8 L493.1 488.8 L355.0 350.7 L115.3 111.0 L115.3 57.6 L81.3 23.5 L53.4 23.5 L23.5 23.5 L12.0 12.0 " />
<circle cx="723.1" cy="1012.0" r="8" />
<circle cx="784.7" cy="987.4" r="8" />
<circle cx="809.5" cy="968.7" r="8" />
<circle cx="835.3" cy="941.4" r="8" />
<circle cx="826.7" cy="918.2" r="8" />
<circle cx="836.7" cy="879.8" r="8" />
<circle cx="836.1" cy="861.4" r="8" />
<circle cx="790.1" cy="844.8" r="8" />
<circle cx="808.1" cy="821.6" r="8" />
<circle cx="772.0" cy="829.9" r="8" />
<circle cx="757.1" cy="816.3" r="8" />
<circle cx="836.6" cy="782.2" r="8" />
<circle cx="847.0" cy="743.1" r="8" />
<circle cx="846.6" cy="718.3" r="8" />
<circle cx="883.7" cy="660.4" r="8" />
<circle cx="896.5" cy="647.3" r="8" />
<circle cx="880.6" cy="637.9" r="8" />
<circle cx="900.2" cy="592.5" r="8" />
<circle cx="849.2" cy="569.7" r="8" />
<circle cx="846.5" cy="530.5" r="8" />
<circle cx="790.2" cy="539.8" r="8" />
<circle cx="785.4" cy="544.8" r="8" />
<circle cx="757.1" cy="528.7" r="8" />
<circle cx="718.0" cy="512.7" r="8" />
<circle cx="683.3" cy="499.9" r="8" />
<circle cx="594.1" cy="495.8" r="8" />
<circle cx="555.5" cy="488.8" r="8" />
<circle cx="355.0" cy="350.7" r="8" />
<circle cx="115.3" cy="57.6" r="8" />
<circle cx="53.4" cy="23.5" r="8" />
<circle cx="12.0" cy="12.0" r="8" />
<style>
circle {
fill: white;
stroke: #525252;
stroke-width: 4;
}
path {
fill: none;
stroke: #525252;
stroke-width: 8;
}</style>
</svg>