<svg width="934.5" height="1024.0" xmlns="http://www.w3.org/2000/svg">
<path d="M12.0 12.0 L23.8 23.8 L54.4 23.8 L83.0 23.8 L117.9 58.7 L363.6 304.4 L363.6 359.2 L392.5 359.2 L473.2 439.9 L480.9 447.6 L480.9 476.7 L577.5 476.7 L608.8 508.0 L612.9 512.1 L698.6 512.1 L720.8 512.1 L732.8 524.1 L749.5 540.8 L773.9 540.8 L797.4 540.8 L809.8 553.1 L819.3 543.6 L867.5 543.6 L867.5 581.0 L870.3 583.8 L893.7 607.1 L922.5 607.1 L919.8 609.9 L919.8 662.1 L919.8 662.4 L904.6 677.5 L867.1 715.1 L867.1 737.9 L867.1 764.9 L866.6 765.3 L857.1 774.8 L857.1 802.1 L810.4 802.1 L775.9 836.6 L777.2 836.6 L791.1 850.6 L806.4 865.8 L809.7 865.8 L839.7 865.8 L857.4 883.5 L857.0 884.0 L857.0 903.4 L857.0 912.5 L844.2 925.2 L847.3 928.3 L847.3 941.1 L847.3 956.1 L856.0 964.9 L829.6 991.3 L829.6 992.8 L823.3 992.8 L804.1 1012.0 " />
<circle cx="12.0" cy="12.0" r="8" />
<circle cx="54.4" cy="23.8" r="8" />
<circle cx="117.9" cy="58.7" r="8" />
<circle cx="363.6" cy="359.2" r="8" />
<circle cx="473.2" cy="439.9" r="8" />
<circle cx="480.9" cy="476.7" r="8" />
<circle cx="608.8" cy="508.0" r="8" />
<circle cx="698.6" cy="512.1" r="8" />
<circle cx="732.8" cy="524.1" r="8" />
<circle cx="773.9" cy="540.8" r="8" />
<circle cx="809.8" cy="553.1" r="8" />
<circle cx="867.5" cy="543.6" r="8" />
<circle cx="870.3" cy="583.8" r="8" />
<circle cx="922.5" cy="607.1" r="8" />
<circle cx="919.8" cy="662.1" r="8" />
<circle cx="904.6" cy="677.5" r="8" />
<circle cx="867.1" cy="737.9" r="8" />
<circle cx="866.6" cy="765.3" r="8" />
<circle cx="857.1" cy="802.1" r="8" />
<circle cx="775.9" cy="836.6" r="8" />
<circle cx="791.1" cy="850.6" r="8" />
<circle cx="809.7" cy="865.8" r="8" />
<circle cx="857.4" cy="883.5" r="8" />
<circle cx="857.0" cy="903.4" r="8" />
<circle cx="844.2" cy="925.2" r="8" />
<circle cx="847.3" cy="941.1" r="8" />
<circle cx="856.0" cy="964.9" r="8" />
<circle cx="829.6" cy="992.8" r="8" />
<circle cx="804.1" cy="1012.0" r="8" />
<style>
circle {
fill: white;
stroke: #525252;
stroke-width: 4;
}
path {
fill: none;
stroke: #525252;
stroke-width: 8;
}</style>
</svg>