<svg width="934.5" height="1024.0" xmlns="http://www.w3.org/2000/svg">
<path d="M12.0 12.0 L42.6 12.0 L54.4 23.8 L89.4 58.7 L117.9 58.7 L363.6 304.4 L363.6 359.2 L444.3 439.9 L473.2 439.9 L480.9 447.6 L480.9 476.7 L512.2 508.0 L608.8 508.0 L696.0 508.0 L700.2 512.2 L713.3 525.3 L735.8 525.3 L759.5 525.3 L775.8 541.7 L787.3 553.1 L809.8 553.1 L858.0 553.1 L867.5 543.6 L870.3 546.4 L870.3 583.8 L893.7 607.1 L922.5 607.1 L922.5 659.5 L918.7 663.3 L905.7 676.3 L905.7 676.7 L905.7 698.0 L867.6 736.1 L867.6 761.1 L868.0 761.6 L868.0 791.0 L857.4 801.6 L822.5 836.6 L775.9 836.6 L777.2 836.6 L791.1 850.6 L806.4 865.8 L809.7 865.8 L839.8 865.8 L856.8 882.8 L857.4 883.5 L857.4 901.7 L857.4 912.0 L844.2 925.2 L844.2 938.0 L847.3 941.1 L856.0 949.8 L856.0 964.9 L856.0 966.4 L829.6 992.8 L810.5 1012.0 L804.1 1012.0 " />
<circle cx="12.0" cy="12.0" r="8" />
<circle cx="54.4" cy="23.8" r="8" />
<circle cx="117.9" cy="58.7" r="8" />
<circle cx="363.6" cy="359.2" r="8" />
<circle cx="473.2" cy="439.9" r="8" />
<circle cx="480.9" cy="476.7" r="8" />
<circle cx="608.8" cy="508.0" r="8" />
<circle cx="700.2" cy="512.2" r="8" />
<circle cx="735.8" cy="525.3" r="8" />
<circle cx="775.8" cy="541.7" r="8" />
<circle cx="809.8" cy="553.1" r="8" />
<circle cx="867.5" cy="543.6" r="8" />
<circle cx="870.3" cy="583.8" r="8" />
<circle cx="922.5" cy="607.1" r="8" />
<circle cx="918.7" cy="663.3" r="8" />
<circle cx="905.7" cy="676.7" r="8" />
<circle cx="867.6" cy="736.1" r="8" />
<circle cx="868.0" cy="761.6" r="8" />
<circle cx="857.4" cy="801.6" r="8" />
<circle cx="775.9" cy="836.6" r="8" />
<circle cx="791.1" cy="850.6" r="8" />
<circle cx="809.7" cy="865.8" r="8" />
<circle cx="856.8" cy="882.8" r="8" />
<circle cx="857.4" cy="901.7" r="8" />
<circle cx="844.2" cy="925.2" r="8" />
<circle cx="847.3" cy="941.1" r="8" />
<circle cx="856.0" cy="964.9" r="8" />
<circle cx="829.6" cy="992.8" r="8" />
<circle cx="804.1" cy="1012.0" r="8" />
<style>
circle {
fill: white;
stroke: #525252;
stroke-width: 4;
}
path {
fill: none;
stroke: #525252;
stroke-width: 8;
}</style>
</svg>