<?xml version="1.0" encoding="utf-8" ?>
<svg xmlns="http://www.w3.org/2000/svg" width="512" height="512">
    <path stroke="#d8d8d8" stroke-width="12" fill="#d8d8d8"
          d="m236.791 430.259c-22.889.364-45.798-1.487-67.525-9.078-15.971-5.579-22.281-8.161-39.125-.781-5.333 2.337-10.575 5.499-16.472 6.104-13.454 1.38-28.0408-11.112-32.2581-23.352-6.7697-19.649 9.9283-26.771 8.1013-44.49-.6876-6.669-4.0467-13.234-5.9366-19.668-18.9527-64.522-1.0205-137.71 41.8804-188.801 38.962-46.4 92.781-73.4899 152.717-78.728 20.322-.0532 39.898 1.7824 59.4 7.5584 14.764 4.3724 29.094 9.1548 43.798 1.5792 13.066-6.7315 21.277-12.9453 35.365-1.2312 36.034 29.9616 3.329 36.4656 5.983 66.3896.74 8.345 4.36 15.502 6.686 23.412 22.095 75.13-10.377 160.888-68.77 210.658-35.312 30.097-78.007 46.401-123.844 50.428zm45.868-338.4541c-53.183 3.269-101.733 26.5821-137.255 66.6781-40.949 46.22-58.9086 112.199-42.946 172.251 4.61 17.345 10.461 28.67 4.608 47.025-4.395 13.781-14.5897 19.756 3.283 29.245 30.702-11.163 32.781-15.378 65.442-4.792 18.626 6.038 37.655 8.876 57.271 8.312 40.715-2.904 81.056-18.701 112.573-44.755 55.25-45.674 84.021-124.668 63.455-194.407-1.281-4.344-3.206-8.485-4.365-12.859-5.642-21.301-1.206-35.012 8.885-52.867-2.346-3.717-8.997-10.031-12.868-12.1556-5.606 2.7134-10.396 6.2234-16.413 8.1936-25.521 8.358-36.427.438-58.952-5.1117-13.803-3.4004-28.476-5.4243-42.718-4.7574z"/>
    <path stroke="#d8d8d8" stroke-width="12" fill="#d8d8d8"
          d="M162.988 288.585c10.839-3.379 8.731-13.61 11.376-22.995 7.146-25.347 21.661-48.1 41.375-65.451 3.02-2.657 10.97-7.95 12.677-10.634 4.947-7.779-2.121-15.658-10.281-15.182-4.69 1.267-8.786 4.787-12.487 7.832-26.822 22.07-47.223 54.686-53.453 89.059-1.509 8.325-1.551 19.192 10.793 17.371Z"/>
</svg>
