<?xml version="1.0" encoding="utf-8" ?>
<svg xmlns="http://www.w3.org/2000/svg" width="512" height="512">
    <path stroke="#d8d8d8" stroke-width="12" fill="#d8d8d8"
          d="M254.042 335.349L254.052 412.666C254.072 422.479 254.97 432.701 242.264 432.997C231.693 433.243 221.047 432.988 210.47 432.985L111.057 432.982C104.462 432.99 97.5762 433.394 91.0241 432.781C80.4989 431.796 83.5339 414.844 83.5353 407.191L83.5409 211.618C83.5357 191.64 81.5078 192.845 88.8112 175.274C94.8174 160.824 101.403 146.596 107.777 132.303C112.165 122.465 115.563 119.84 115.548 108.858L115.539 97.1217C115.554 75.4056 122.154 69.0594 143.617 69.1156L257.001 69.1033C279.057 69.0739 287.325 71.6087 287.162 94.989L287.105 106.175C287.081 116.943 290.679 121.357 294.919 131C300.442 143.559 305.866 156.234 311.69 168.655C317.125 180.247 319.775 181.808 319.762 194.366L319.735 208.614C319.726 212.964 320.323 222.134 319.363 225.861C317.276 233.96 305.849 235.291 301.827 228.16C298.284 221.877 301.301 200.477 299.922 191.816C299.08 186.529 280.735 147.645 277.598 141.811C273.235 147.69 270.91 155.477 267.969 162.115L259.007 182.344C252.741 196.453 254.014 193.948 254.03 209.539L254.042 335.349ZM135.916 88.9977L135.916 107.614L223.955 107.618C238.605 107.619 253.3 107.892 267.943 107.614C268.079 101.413 267.925 95.2008 267.943 88.9977L183.812 88.9969C167.852 88.9979 151.874 88.8305 135.916 88.9977ZM257.373 128.015L131.387 128.015C124.458 144.86 116.49 163.687 108.613 180.17L112.688 180.17L238.04 180.17L254.67 142.408C256.807 137.618 259.344 132.861 261.294 128.015L257.373 128.015ZM103.279 200.103L103.279 413.267L234.694 413.267C235.057 389.665 234.694 365.994 234.694 342.384L234.694 200.103L103.279 200.103Z"/>
    <path stroke="#d8d8d8" stroke-width="12" fill="#d8d8d8"
          d="M409.307 425.084C399.413 433.522 388.593 432.999 376.463 432.993L325.749 432.988C320.11 432.99 314.099 433.375 308.54 432.393C281.291 427.577 283.259 398.587 282.037 377.987L276.571 277.808C276.037 268.105 272.246 253.709 286.317 252.5C296.869 252.688 307.461 252.501 318.016 252.501L406.28 252.488C415.868 252.488 428.206 250.411 427.714 264.341C427.451 271.795 426.778 279.244 426.425 286.696L421.572 387.247C420.916 403.045 421.8 413.419 409.307 425.084ZM296.287 273.031C295.306 285.18 297.815 297.494 296.986 309.677C302.268 309.183 307.544 310.03 312.825 310.254C335.814 311.23 342.266 308.035 362.84 300.387C372.366 296.845 382.53 295.817 392.625 295.681L406.554 295.681C406.408 288.093 407.234 280.582 407.223 273.031L296.287 273.031ZM387.659 315.56C375.38 316.085 369.012 319.042 357.848 323.531C343.754 329.197 328.631 330.046 313.587 329.574C308.78 329.424 303.87 328.748 299.076 329.186C298.589 334.164 299.315 339.309 299.698 344.282L302.261 387.483C302.977 401.133 300.291 411.786 316.456 412.448L382.568 412.469C406.446 412.57 401.265 402.198 402.485 381.997C403.767 360.76 405.599 337.182 405.474 315.936L405.47 315.56L387.659 315.56Z"/>
</svg>
