<?xml version="1.0" encoding="utf-8" ?>
<svg xmlns="http://www.w3.org/2000/svg" width="512" height="512">
    <path stroke="#d8d8d8" stroke-width="12" fill="#d8d8d8"
          d="m245.507 121.622c17.676-40.0961 48.445-61.4601 92.871-65.8869 10.652-.1543 20.167.4929 30.517 3.085.739 38.7502-9.882 62.5039-35.12 89.7259 40.47 11.063 70.275 48.745 82.603 87.412 13.561 42.532 10.41 90.647-8.35 131.162-22.761 49.157-69.202 87.781-126.003 77.597-8.966-1.608-17.26-4.389-25.943-6.981-33.545 12.211-63.035 10.905-94.186-5.394-67.276-37.556-89.3978-127.485-66.321-197.578 20.381-61.905 74.26-105.795 140.591-83.869-3.058-14.993-11.593-27.368-22.222-38.026-4.61-4.623-10.817-7.063-9.616-14.7844.765-4.9233 5.972-8.6902 10.857-7.7909 10.609 1.9531 23.964 21.8213 30.322 31.3283zm96.416-46.6715c-26.802 2.7056-47.919 11.0012-65.71 32.7135-10.336 12.613-18.739 31.484-18.406 48.018 2.364.003 4.729.026 7.093 0 46.895-1.98 78.976-34.731 83.841-80.7315-2.273-.0112-4.546-.0368-6.818 0zM197.676 164.778c-23.96 2.17-43.382 13.625-58.845 32.128-48.2928 57.787-41.9619 158.601 16.453 207.174 26.601 22.12 58.728 27.617 90.827 16.431 3.335-1.162 6.582-2.661 9.971-3.649 66.329 25.749 115.126-7.049 139.353-70.706 10.387-27.289 13.021-71.492 3.306-100.022-9.818-31.41-25.68-57.098-55.588-72.716-8.588-4.485-26.003-10.574-35.212-7.748-11.364 3.487-16.768 6.578-29.911 8.142 52.346 37.115 87.562 127.802 47.295 184.717-2.201 3.111-7.954 10.563-11.779 11.278-4.799.896-7.625-3.693-6.012-7.811 1.097-2.8 2.948-5.405 4.327-8.085 28.12-54.678 4.592-123.709-41.209-161.14-19.175-15.671-47.604-29.61-72.976-27.993z"/>
    <path stroke="#d8d8d8" stroke-width="12" fill="#d8d8d8"
          d="m147.598 300.258c10.273 4.442 6.601-4.225 7.714-12.864 2.902-22.528 13.111-45.354 29.365-61.489 3.164-3.14 8.983-7.047 11.024-10.763 3.959-7.207-1.349-14.222-8.894-14.069-4.649.711-7.674 3.781-11.017 6.844-20.368 18.666-33.88 42.026-38.658 69.492-2.001 11.505-1.658 16.591 10.466 22.849Z"/>
</svg>
