<svg width="1024.0" height="264.3" xmlns="http://www.w3.org/2000/svg">
<path d="M1012.0000000000001 156.60022763076302 L1002.9 165.7 L981.5 165.7 L940.9 165.7 L913.6 138.5 L900.2 125.0 L843.3 125.0 L811.8 125.0 L786.6 99.7 L741.6 54.8 L730.4 54.8 L725.0 54.8 L682.2 12.0 L643.2 12.0 L603.3 51.9 L573.5 81.7 L545.0 81.7 L477.1 81.7 L459.5 99.3 L443.2 83.0 L414.3 83.0 L311.2 83.0 L264.1 35.8 L242.1 13.9 L192.7 13.9 L179.0 13.9 L130.0 62.9 L81.4 111.4 L81.4 124.1 L81.4 129.1 L62.2 148.3 L52.3 158.3 L52.3 219.8 L28.3 219.8 L12.0 236.1 L50.4 236.1 L66.7 252.3 " />
<circle cx="1012.0" cy="156.6" r="8" />
<circle cx="981.5" cy="165.7" r="8" />
<circle cx="913.6" cy="138.5" r="8" />
<circle cx="843.3" cy="125.0" r="8" />
<circle cx="786.6" cy="99.7" r="8" />
<circle cx="730.4" cy="54.8" r="8" />
<circle cx="682.2" cy="12.0" r="8" />
<circle cx="603.3" cy="51.9" r="8" />
<circle cx="545.0" cy="81.7" r="8" />
<circle cx="459.5" cy="99.3" r="8" />
<circle cx="414.3" cy="83.0" r="8" />
<circle cx="264.1" cy="35.8" r="8" />
<circle cx="192.7" cy="13.9" r="8" />
<circle cx="130.0" cy="62.9" r="8" />
<circle cx="81.4" cy="124.1" r="8" />
<circle cx="62.2" cy="148.3" r="8" />
<circle cx="52.3" cy="219.8" r="8" />
<circle cx="12.0" cy="236.1" r="8" />
<circle cx="66.7" cy="252.3" r="8" />
<style>
circle {
fill: white;
stroke: #525252;
stroke-width: 4;
}
path {
fill: none;
stroke: #525252;
stroke-width: 8;
}</style>
</svg>