<svg width="1024.0" height="274.4" xmlns="http://www.w3.org/2000/svg">
<path d="M26.999142197255196 262.4292478959675 L12.0 247.4 L12.0 228.5 L12.0 164.4 L22.4 154.1 L42.4 134.1 L42.4 128.8 L42.4 115.6 L93.0 65.0 L144.1 13.9 L158.4 13.9 L209.8 13.9 L232.7 36.8 L281.8 86.0 L389.3 86.0 L419.3 86.0 L436.3 103.0 L454.7 84.6 L525.4 84.6 L555.1 84.6 L586.2 53.6 L627.8 12.0 L668.3 12.0 L674.0 12.0 L718.6 56.6 L765.5 103.4 L777.1 103.4 L809.9 103.4 L836.2 129.7 L850.3 143.8 L909.5 143.8 L993.1 143.8 L1012.0 162.7 " />
<circle cx="27.0" cy="262.4" r="8" />
<circle cx="12.0" cy="228.5" r="8" />
<circle cx="22.4" cy="154.1" r="8" />
<circle cx="42.4" cy="128.8" r="8" />
<circle cx="93.0" cy="65.0" r="8" />
<circle cx="158.4" cy="13.9" r="8" />
<circle cx="232.7" cy="36.8" r="8" />
<circle cx="389.3" cy="86.0" r="8" />
<circle cx="436.3" cy="103.0" r="8" />
<circle cx="525.4" cy="84.6" r="8" />
<circle cx="586.2" cy="53.6" r="8" />
<circle cx="668.3" cy="12.0" r="8" />
<circle cx="718.6" cy="56.6" r="8" />
<circle cx="777.1" cy="103.4" r="8" />
<circle cx="836.2" cy="129.7" r="8" />
<circle cx="909.5" cy="143.8" r="8" />
<circle cx="1012.0" cy="162.7" r="8" />
<style>
circle {
fill: white;
stroke: #525252;
stroke-width: 4;
}
path {
fill: none;
stroke: #525252;
stroke-width: 8;
}</style>
</svg>