<svg width="1024.0" height="995.2" xmlns="http://www.w3.org/2000/svg">
<path d="M12.0 12.0 L86.2 86.2 L86.2 128.8 L165.0 207.6 L166.8 207.6 L261.4 207.6 L383.9 330.1 L483.3 429.5 L630.7 429.5 L663.0 429.5 L805.8 572.3 L805.8 622.0 L685.8 742.0 L730.2 786.4 L927.6 786.4 L1012.0 870.8 L1012.0 911.8 L959.7 964.2 L821.0 964.2 L677.9 964.2 L658.8 983.2 " />
<circle cx="12.0" cy="12.0" r="8" />
<circle cx="86.2" cy="128.8" r="8" />
<circle cx="166.8" cy="207.6" r="8" />
<circle cx="383.9" cy="330.1" r="8" />
<circle cx="630.7" cy="429.5" r="8" />
<circle cx="805.8" cy="572.3" r="8" />
<circle cx="685.8" cy="742.0" r="8" />
<circle cx="927.6" cy="786.4" r="8" />
<circle cx="1012.0" cy="911.8" r="8" />
<circle cx="821.0" cy="964.2" r="8" />
<circle cx="658.8" cy="983.2" r="8" />
<style>
circle {
fill: white;
stroke: #525252;
stroke-width: 4;
}
path {
fill: none;
stroke: #525252;
stroke-width: 8;
}</style>
</svg>