<svg width="1024.0" height="1023.6" xmlns="http://www.w3.org/2000/svg">
<path d="M658.7835942218355 983.2233805775251 L577.6 983.2 L549.3 1011.6 L596.7 964.2 L821.0 964.2 L959.7 964.2 L1012.0 911.8 L1012.0 870.8 L927.6 786.4 L883.2 742.0 L685.8 742.0 L793.0 634.8 L793.0 615.7 L793.0 585.1 L805.8 572.3 L773.6 572.3 L630.7 429.5 L531.4 330.1 L383.9 330.1 L289.4 330.1 L166.8 207.6 L88.1 128.8 L86.2 128.8 L86.2 86.2 L12.0 12.0 " />
<circle cx="658.8" cy="983.2" r="8" />
<circle cx="549.3" cy="1011.6" r="8" />
<circle cx="821.0" cy="964.2" r="8" />
<circle cx="1012.0" cy="911.8" r="8" />
<circle cx="927.6" cy="786.4" r="8" />
<circle cx="685.8" cy="742.0" r="8" />
<circle cx="793.0" cy="615.7" r="8" />
<circle cx="805.8" cy="572.3" r="8" />
<circle cx="630.7" cy="429.5" r="8" />
<circle cx="383.9" cy="330.1" r="8" />
<circle cx="166.8" cy="207.6" r="8" />
<circle cx="86.2" cy="128.8" r="8" />
<circle cx="12.0" cy="12.0" r="8" />
<style>
circle {
fill: white;
stroke: #525252;
stroke-width: 4;
}
path {
fill: none;
stroke: #525252;
stroke-width: 8;
}</style>
</svg>