<svg width="1024.0" height="826.4" xmlns="http://www.w3.org/2000/svg">
<path d="M223.8 12.0 L223.4 12.3 L223.4 50.7 L273.5 50.7 L277.0 54.2 L278.8 52.4 L328.1 52.4 L324.2 56.3 L324.2 84.7 L324.2 112.6 L324.7 113.1 L323.8 114.0 L323.8 139.2 L324.2 138.8 L407.9 138.8 L453.8 138.8 L480.9 165.9 L489.7 174.7 L489.7 188.0 L489.7 188.5 L450.1 228.0 L447.1 231.1 L447.1 256.7 L447.1 272.1 L425.6 293.6 L406.6 312.7 L406.6 327.3 L356.8 327.3 L354.4 329.7 L328.6 355.5 L293.3 355.5 L259.3 355.5 L252.2 362.6 L250.7 364.2 L250.7 413.1 L255.2 413.1 L277.0 434.9 L273.7 434.9 L236.8 471.9 L194.8 513.9 L194.8 516.2 L194.8 535.7 L185.6 544.8 L170.2 560.2 L170.2 579.2 L170.2 590.4 L155.9 604.8 L122.8 637.8 L85.1 637.8 L85.1 641.4 L54.7 671.8 L17.8 708.7 L12.0 708.7 L41.2 737.9 L90.8 737.9 L179.5 737.9 L200.8 759.2 L212.0 770.4 L231.3 770.4 L326.6 770.4 L335.6 779.4 L357.3 801.1 L470.5 801.1 L484.4 801.1 L510.1 775.4 L524.1 789.4 L552.6 789.4 L586.7 789.4 L598.7 801.4 L611.7 814.4 L644.7 814.4 L669.4 814.4 L683.9 799.9 L710.2 773.6 L716.5 773.6 L749.4 773.6 L775.4 747.6 L804.1 718.9 L806.8 718.9 L826.2 718.9 L842.8 735.4 L866.4 759.0 L882.6 759.0 L894.1 759.0 L923.5 729.6 L939.4 713.7 L944.1 713.7 L944.1 729.1 L976.6 761.7 L1006.4 791.4 L1012.0 791.4 " />
<circle cx="223.8" cy="12.0" r="8" />
<circle cx="223.4" cy="50.7" r="8" />
<circle cx="277.0" cy="54.2" r="8" />
<circle cx="328.1" cy="52.4" r="8" />
<circle cx="324.2" cy="84.7" r="8" />
<circle cx="324.7" cy="113.1" r="8" />
<circle cx="323.8" cy="139.2" r="8" />
<circle cx="407.9" cy="138.8" r="8" />
<circle cx="480.9" cy="165.9" r="8" />
<circle cx="489.7" cy="188.0" r="8" />
<circle cx="450.1" cy="228.0" r="8" />
<circle cx="447.1" cy="256.7" r="8" />
<circle cx="425.6" cy="293.6" r="8" />
<circle cx="406.6" cy="327.3" r="8" />
<circle cx="354.4" cy="329.7" r="8" />
<circle cx="293.3" cy="355.5" r="8" />
<circle cx="252.2" cy="362.6" r="8" />
<circle cx="250.7" cy="413.1" r="8" />
<circle cx="277.0" cy="434.9" r="8" />
<circle cx="236.8" cy="471.9" r="8" />
<circle cx="194.8" cy="516.2" r="8" />
<circle cx="185.6" cy="544.8" r="8" />
<circle cx="170.2" cy="579.2" r="8" />
<circle cx="155.9" cy="604.8" r="8" />
<circle cx="85.1" cy="637.8" r="8" />
<circle cx="54.7" cy="671.8" r="8" />
<circle cx="12.0" cy="708.7" r="8" />
<circle cx="90.8" cy="737.9" r="8" />
<circle cx="200.8" cy="759.2" r="8" />
<circle cx="231.3" cy="770.4" r="8" />
<circle cx="335.6" cy="779.4" r="8" />
<circle cx="470.5" cy="801.1" r="8" />
<circle cx="510.1" cy="775.4" r="8" />
<circle cx="552.6" cy="789.4" r="8" />
<circle cx="598.7" cy="801.4" r="8" />
<circle cx="644.7" cy="814.4" r="8" />
<circle cx="683.9" cy="799.9" r="8" />
<circle cx="716.5" cy="773.6" r="8" />
<circle cx="775.4" cy="747.6" r="8" />
<circle cx="806.8" cy="718.9" r="8" />
<circle cx="842.8" cy="735.4" r="8" />
<circle cx="882.6" cy="759.0" r="8" />
<circle cx="923.5" cy="729.6" r="8" />
<circle cx="944.1" cy="713.7" r="8" />
<circle cx="976.6" cy="761.7" r="8" />
<circle cx="1012.0" cy="791.4" r="8" />
<style>
circle {
fill: white;
stroke: #000000;
stroke-width: 4;
}
path {
fill: none;
stroke: #000000;
stroke-width: 8;
}</style>
</svg>