<svg width="1024.0" height="110.9" xmlns="http://www.w3.org/2000/svg">
<path d="M12.0 17.47978691968295 L128.5 17.5 L135.9 24.8 L230.6 24.8 L235.5 19.9 L239.0 16.5 L315.5 16.5 L379.0 16.5 L379.5 16.1 L383.5 12.0 L477.8 12.0 L571.7 12.0 L579.8 20.1 L608.8 49.1 L686.2 49.1 L776.8 49.1 L814.4 86.7 L826.6 98.9 L853.1 98.9 L897.4 98.9 L919.0 77.3 L978.8 77.3 L983.2 81.7 L1012.0 52.8 L1012.0 30.0 L994.6 12.6 L944.1 12.6 " />
<circle cx="12.0" cy="17.5" r="8" />
<circle cx="135.9" cy="24.8" r="8" />
<circle cx="235.5" cy="19.9" r="8" />
<circle cx="315.5" cy="16.5" r="8" />
<circle cx="379.5" cy="16.1" r="8" />
<circle cx="477.8" cy="12.0" r="8" />
<circle cx="579.8" cy="20.1" r="8" />
<circle cx="686.2" cy="49.1" r="8" />
<circle cx="814.4" cy="86.7" r="8" />
<circle cx="853.1" cy="98.9" r="8" />
<circle cx="919.0" cy="77.3" r="8" />
<circle cx="983.2" cy="81.7" r="8" />
<circle cx="1012.0" cy="30.0" r="8" />
<circle cx="944.1" cy="12.6" r="8" />
<style>
circle {
fill: white;
stroke: black;
stroke-width: 4;
}
path {
fill: none;
stroke: #FFFFFF;
stroke-width: 8;
}</style>
</svg>