<svg width="614.7" height="1024.0" xmlns="http://www.w3.org/2000/svg">
<path d="M204.98815763694904 12.0 L205.0 45.2 L201.8 48.3 L194.2 55.9 L194.2 66.5 L194.2 102.2 L191.4 105.0 L184.6 111.9 L184.6 128.1 L184.6 159.7 L171.3 173.0 L200.7 143.6 L228.8 143.6 L275.5 143.6 L293.1 161.3 L302.7 170.9 L302.7 204.1 L302.7 221.6 L293.1 231.2 L278.5 245.9 L278.5 257.1 L278.5 280.0 L258.0 300.5 L241.1 317.4 L241.1 346.6 L241.1 356.5 L212.8 384.9 L165.1 432.5 L161.9 432.5 L134.1 460.4 L134.1 463.1 L134.1 464.2 L103.4 494.8 L67.5 530.8 L67.5 564.0 L67.5 574.7 L52.3 589.8 L39.0 603.2 L39.0 617.6 L39.0 642.7 L15.2 666.5 L12.0 669.6 L12.0 700.3 L37.2 725.5 L38.9 725.5 L69.3 756.0 L69.3 757.2 L99.5 787.4 L144.5 787.4 L187.9 787.4 L286.6 886.0 L319.5 919.0 L343.3 919.0 L402.3 919.0 L438.3 955.0 L450.7 967.4 L479.3 967.4 L513.5 967.4 L525.1 979.0 L558.1 1012.0 L602.7 1012.0 " />
<circle cx="205.0" cy="12.0" r="8" />
<circle cx="201.8" cy="48.3" r="8" />
<circle cx="194.2" cy="66.5" r="8" />
<circle cx="191.4" cy="105.0" r="8" />
<circle cx="184.6" cy="128.1" r="8" />
<circle cx="171.3" cy="173.0" r="8" />
<circle cx="228.8" cy="143.6" r="8" />
<circle cx="293.1" cy="161.3" r="8" />
<circle cx="302.7" cy="204.1" r="8" />
<circle cx="293.1" cy="231.2" r="8" />
<circle cx="278.5" cy="257.1" r="8" />
<circle cx="258.0" cy="300.5" r="8" />
<circle cx="241.1" cy="346.6" r="8" />
<circle cx="212.8" cy="384.9" r="8" />
<circle cx="161.9" cy="432.5" r="8" />
<circle cx="134.1" cy="463.1" r="8" />
<circle cx="103.4" cy="494.8" r="8" />
<circle cx="67.5" cy="564.0" r="8" />
<circle cx="52.3" cy="589.8" r="8" />
<circle cx="39.0" cy="617.6" r="8" />
<circle cx="15.2" cy="666.5" r="8" />
<circle cx="12.0" cy="700.3" r="8" />
<circle cx="38.9" cy="725.5" r="8" />
<circle cx="69.3" cy="757.2" r="8" />
<circle cx="144.5" cy="787.4" r="8" />
<circle cx="286.6" cy="886.0" r="8" />
<circle cx="343.3" cy="919.0" r="8" />
<circle cx="438.3" cy="955.0" r="8" />
<circle cx="479.3" cy="967.4" r="8" />
<circle cx="525.1" cy="979.0" r="8" />
<circle cx="602.7" cy="1012.0" r="8" />
<style>
circle {
fill: white;
stroke: #000000;
stroke-width: 4;
}
path {
fill: none;
stroke: #000000;
stroke-width: 8;
}</style>
</svg>