<svg width="1024.0" height="99.5" xmlns="http://www.w3.org/2000/svg">
<path d="M1011.9999999999999 67.55974580212444 L1008.5 71.1 L920.8 71.1 L860.7 71.1 L860.1 71.7 L857.8 73.9 L827.3 73.9 L757.8 73.9 L754.9 76.8 L754.3 76.3 L670.2 76.3 L631.3 76.3 L624.1 69.1 L623.0 67.9 L550.2 67.9 L478.0 67.9 L470.8 60.8 L417.7 60.8 L412.4 66.0 L406.3 72.2 L355.8 72.2 L314.5 72.2 L312.9 73.7 L301.5 62.3 L270.5 62.3 L270.5 79.5 L262.5 87.5 L258.2 83.3 L229.1 83.3 L182.9 83.3 L177.4 77.8 L194.1 61.1 L194.1 50.1 L148.1 50.1 L131.8 33.8 L119.7 21.7 L84.2 21.7 L21.7 21.7 L12.0 12.0 " />
<circle cx="1012.0" cy="67.6" r="8" />
<circle cx="920.8" cy="71.1" r="8" />
<circle cx="860.1" cy="71.7" r="8" />
<circle cx="827.3" cy="73.9" r="8" />
<circle cx="754.9" cy="76.8" r="8" />
<circle cx="670.2" cy="76.3" r="8" />
<circle cx="624.1" cy="69.1" r="8" />
<circle cx="550.2" cy="67.9" r="8" />
<circle cx="470.8" cy="60.8" r="8" />
<circle cx="412.4" cy="66.0" r="8" />
<circle cx="355.8" cy="72.2" r="8" />
<circle cx="312.9" cy="73.7" r="8" />
<circle cx="270.5" cy="62.3" r="8" />
<circle cx="262.5" cy="87.5" r="8" />
<circle cx="229.1" cy="83.3" r="8" />
<circle cx="177.4" cy="77.8" r="8" />
<circle cx="194.1" cy="50.1" r="8" />
<circle cx="131.8" cy="33.8" r="8" />
<circle cx="84.2" cy="21.7" r="8" />
<circle cx="12.0" cy="12.0" r="8" />
<style>
circle {
fill: white;
stroke: #DA291C;
stroke-width: 4;
}
path {
fill: none;
stroke: #DA291C;
stroke-width: 8;
}</style>
</svg>