<svg width="1024.0" height="408.9" xmlns="http://www.w3.org/2000/svg">
<path d="M12.0 296.856337687281 L51.6 296.9 L51.7 296.9 L60.3 305.6 L120.9 305.6 L154.1 305.6 L155.9 303.7 L177.9 303.7 L190.5 316.3 L196.0 321.8 L261.8 321.8 L292.8 321.8 L301.2 330.2 L326.3 355.3 L402.1 355.3 L432.6 355.3 L474.2 396.9 L533.2 337.9 L533.2 325.4 L533.2 319.4 L560.5 292.2 L579.9 272.8 L612.9 272.8 L645.3 272.8 L687.5 230.5 L741.7 176.4 L814.5 176.4 L821.3 176.4 L846.7 150.9 L868.1 129.6 L871.1 129.6 L871.1 112.2 L867.5 108.6 L897.7 78.4 L907.7 78.4 L919.8 66.2 L919.8 64.9 L940.7 44.0 L957.7 44.0 L980.0 44.0 L1012.0 12.0 " />
<circle cx="12.0" cy="296.9" r="8" />
<circle cx="51.7" cy="296.9" r="8" />
<circle cx="120.9" cy="305.6" r="8" />
<circle cx="155.9" cy="303.7" r="8" />
<circle cx="190.5" cy="316.3" r="8" />
<circle cx="261.8" cy="321.8" r="8" />
<circle cx="301.2" cy="330.2" r="8" />
<circle cx="402.1" cy="355.3" r="8" />
<circle cx="474.2" cy="396.9" r="8" />
<circle cx="533.2" cy="325.4" r="8" />
<circle cx="560.5" cy="292.2" r="8" />
<circle cx="612.9" cy="272.8" r="8" />
<circle cx="687.5" cy="230.5" r="8" />
<circle cx="814.5" cy="176.4" r="8" />
<circle cx="846.7" cy="150.9" r="8" />
<circle cx="871.1" cy="129.6" r="8" />
<circle cx="867.5" cy="108.6" r="8" />
<circle cx="907.7" cy="78.4" r="8" />
<circle cx="919.8" cy="64.9" r="8" />
<circle cx="957.7" cy="44.0" r="8" />
<circle cx="1012.0" cy="12.0" r="8" />
<style>
circle {
fill: white;
stroke: #525252;
stroke-width: 4;
}
path {
fill: none;
stroke: #525252;
stroke-width: 8;
}</style>
</svg>