<svg width="1024.0" height="485.9" xmlns="http://www.w3.org/2000/svg">
<path d="M1012.0 339.6373842317795 L990.2 361.4 L954.2 361.4 L775.4 361.4 L722.9 414.0 L708.1 428.7 L708.1 473.9 L626.3 473.9 L623.4 471.0 L602.2 449.8 L497.0 449.8 L388.0 449.8 L365.2 427.0 L355.3 417.1 L297.1 417.1 L182.6 417.1 L168.3 402.9 L159.8 394.3 L99.2 394.3 L62.4 394.3 L57.3 389.2 L41.2 373.1 L12.0 373.1 L79.8 305.3 L97.1 305.3 L144.7 305.3 L186.7 263.3 L277.3 172.7 L277.3 172.0 L309.7 172.0 L384.7 97.0 L415.2 66.5 L415.2 38.9 L416.8 38.9 L443.7 12.0 L443.7 17.7 L452.8 26.8 L467.0 41.0 L495.6 41.0 " />
<circle cx="1012.0" cy="339.6" r="8" />
<circle cx="954.2" cy="361.4" r="8" />
<circle cx="722.9" cy="414.0" r="8" />
<circle cx="708.1" cy="473.9" r="8" />
<circle cx="623.4" cy="471.0" r="8" />
<circle cx="497.0" cy="449.8" r="8" />
<circle cx="365.2" cy="427.0" r="8" />
<circle cx="297.1" cy="417.1" r="8" />
<circle cx="168.3" cy="402.9" r="8" />
<circle cx="99.2" cy="394.3" r="8" />
<circle cx="57.3" cy="389.2" r="8" />
<circle cx="12.0" cy="373.1" r="8" />
<circle cx="97.1" cy="305.3" r="8" />
<circle cx="186.7" cy="263.3" r="8" />
<circle cx="277.3" cy="172.0" r="8" />
<circle cx="384.7" cy="97.0" r="8" />
<circle cx="415.2" cy="38.9" r="8" />
<circle cx="443.7" cy="12.0" r="8" />
<circle cx="452.8" cy="26.8" r="8" />
<circle cx="495.6" cy="41.0" r="8" />
<style>
circle {
fill: white;
stroke: #525252;
stroke-width: 4;
}
path {
fill: none;
stroke: #525252;
stroke-width: 8;
}</style>
</svg>