<svg width="1024.0" height="287.8" xmlns="http://www.w3.org/2000/svg">
<path d="M1012.0 63.3 L997.5 48.8 L904.1 48.8 L846.2 48.8 L836.8 39.4 L827.7 30.3 L770.7 30.3 L719.0 30.3 L706.1 17.4 L703.7 15.0 L662.0 15.0 L623.3 15.0 L620.3 12.0 L583.0 12.0 L577.7 17.3 L573.7 13.4 L521.7 13.4 L455.9 13.4 L455.1 12.5 L446.3 12.5 L421.8 36.9 L407.0 51.8 L401.1 51.8 L365.9 51.8 L359.6 45.5 L342.9 28.7 L307.4 28.7 L278.6 28.7 L263.5 13.7 L219.8 13.7 L198.8 34.6 L171.3 62.1 L154.4 62.1 L125.2 62.1 L77.5 109.9 L39.7 147.7 L12.0 147.7 L49.9 185.6 L54.8 185.6 L64.7 185.6 L104.5 225.4 L126.9 247.8 L154.8 247.8 L205.1 247.8 L217.1 259.7 L233.1 275.8 L304.2 275.8 " />
<circle cx="1012.0" cy="63.3" r="8" />
<circle cx="904.1" cy="48.8" r="8" />
<circle cx="836.8" cy="39.4" r="8" />
<circle cx="770.7" cy="30.3" r="8" />
<circle cx="706.1" cy="17.4" r="8" />
<circle cx="662.0" cy="15.0" r="8" />
<circle cx="620.3" cy="12.0" r="8" />
<circle cx="577.7" cy="17.3" r="8" />
<circle cx="521.7" cy="13.4" r="8" />
<circle cx="455.1" cy="12.5" r="8" />
<circle cx="421.8" cy="36.9" r="8" />
<circle cx="401.1" cy="51.8" r="8" />
<circle cx="359.6" cy="45.5" r="8" />
<circle cx="307.4" cy="28.7" r="8" />
<circle cx="263.5" cy="13.7" r="8" />
<circle cx="198.8" cy="34.6" r="8" />
<circle cx="154.4" cy="62.1" r="8" />
<circle cx="77.5" cy="109.9" r="8" />
<circle cx="12.0" cy="147.7" r="8" />
<circle cx="54.8" cy="185.6" r="8" />
<circle cx="104.5" cy="225.4" r="8" />
<circle cx="154.8" cy="247.8" r="8" />
<circle cx="217.1" cy="259.7" r="8" />
<circle cx="304.2" cy="275.8" r="8" />
<style>
circle {
fill: white;
stroke: #525252;
stroke-width: 4;
}
path {
fill: none;
stroke: #525252;
stroke-width: 8;
}</style>
</svg>