<svg width="1024.0" height="377.4" xmlns="http://www.w3.org/2000/svg">
<path d="M1012.0 12.0 L1012.0 65.5 L1007.7 69.8 L991.1 86.3 L991.1 107.7 L952.0 68.6 L847.7 68.6 L815.0 68.6 L800.3 83.2 L783.3 100.3 L783.3 112.5 L758.1 137.7 L753.6 137.7 L734.0 157.2 L734.0 177.3 L734.0 211.3 L696.7 248.7 L657.6 287.7 L637.7 287.7 L626.5 287.7 L548.9 365.4 L542.6 365.4 L509.2 332.0 L466.2 289.0 L466.2 280.6 L466.2 255.7 L447.8 237.2 L422.9 212.4 L358.6 212.4 L337.5 233.4 L337.5 242.4 L337.5 256.0 L314.2 279.3 L283.4 310.1 L283.4 316.2 L273.1 305.9 L237.3 305.9 L226.4 305.9 L193.3 272.7 L193.3 287.7 L154.3 326.7 L147.4 326.7 L105.1 284.3 L73.2 252.5 L37.3 252.5 L37.3 237.8 L12.0 212.6 " />
<circle cx="1012.0" cy="12.0" r="8" />
<circle cx="1007.7" cy="69.8" r="8" />
<circle cx="991.1" cy="107.7" r="8" />
<circle cx="847.7" cy="68.6" r="8" />
<circle cx="800.3" cy="83.2" r="8" />
<circle cx="783.3" cy="112.5" r="8" />
<circle cx="753.6" cy="137.7" r="8" />
<circle cx="734.0" cy="177.3" r="8" />
<circle cx="696.7" cy="248.7" r="8" />
<circle cx="637.7" cy="287.7" r="8" />
<circle cx="548.9" cy="365.4" r="8" />
<circle cx="509.2" cy="332.0" r="8" />
<circle cx="466.2" cy="280.6" r="8" />
<circle cx="447.8" cy="237.2" r="8" />
<circle cx="358.6" cy="212.4" r="8" />
<circle cx="337.5" cy="242.4" r="8" />
<circle cx="314.2" cy="279.3" r="8" />
<circle cx="283.4" cy="316.2" r="8" />
<circle cx="237.3" cy="305.9" r="8" />
<circle cx="193.3" cy="272.7" r="8" />
<circle cx="154.3" cy="326.7" r="8" />
<circle cx="105.1" cy="284.3" r="8" />
<circle cx="37.3" cy="252.5" r="8" />
<circle cx="12.0" cy="212.6" r="8" />
<style>
circle {
fill: white;
stroke: #525252;
stroke-width: 4;
}
path {
fill: none;
stroke: #525252;
stroke-width: 8;
}</style>
</svg>