<svg width="591.1" height="1024.0" xmlns="http://www.w3.org/2000/svg">
<path d="M579.1 12.0 L575.7 15.4 L575.7 51.3 L575.7 62.7 L567.4 70.9 L564.4 73.9 L564.4 112.5 L564.4 130.0 L557.0 137.5 L544.7 149.8 L544.7 186.1 L544.7 211.5 L522.6 233.6 L493.9 262.3 L493.9 306.4 L493.9 332.5 L475.6 350.8 L457.4 369.0 L457.4 396.8 L423.9 396.8 L366.2 454.5 L338.7 481.9 L294.2 481.9 L282.3 481.9 L270.0 494.2 L264.5 499.6 L264.5 537.9 L264.4 537.9 L235.4 566.9 L205.0 597.3 L205.0 646.9 L205.0 648.6 L161.3 692.2 L110.8 742.7 L110.8 782.2 L110.8 820.6 L84.0 847.4 L67.7 863.7 L67.7 915.2 L67.7 940.6 L56.1 952.3 L12.0 996.3 L12.0 1012.0 " />
<circle cx="579.1" cy="12.0" r="8" />
<circle cx="575.7" cy="51.3" r="8" />
<circle cx="567.4" cy="70.9" r="8" />
<circle cx="564.4" cy="112.5" r="8" />
<circle cx="557.0" cy="137.5" r="8" />
<circle cx="544.7" cy="186.1" r="8" />
<circle cx="522.6" cy="233.6" r="8" />
<circle cx="493.9" cy="306.4" r="8" />
<circle cx="475.6" cy="350.8" r="8" />
<circle cx="457.4" cy="396.8" r="8" />
<circle cx="366.2" cy="454.5" r="8" />
<circle cx="294.2" cy="481.9" r="8" />
<circle cx="270.0" cy="494.2" r="8" />
<circle cx="264.5" cy="537.9" r="8" />
<circle cx="235.4" cy="566.9" r="8" />
<circle cx="205.0" cy="646.9" r="8" />
<circle cx="161.3" cy="692.2" r="8" />
<circle cx="110.8" cy="782.2" r="8" />
<circle cx="84.0" cy="847.4" r="8" />
<circle cx="67.7" cy="915.2" r="8" />
<circle cx="56.1" cy="952.3" r="8" />
<circle cx="12.0" cy="1012.0" r="8" />
<style>
circle {
fill: white;
stroke: #525252;
stroke-width: 4;
}
path {
fill: none;
stroke: #525252;
stroke-width: 8;
}</style>
</svg>