<svg width="592.4" height="1024.0" xmlns="http://www.w3.org/2000/svg">
<path d="M580.4 12.0 L577.0 15.4 L577.0 51.1 L577.0 62.4 L568.8 70.6 L565.8 73.6 L565.8 112.0 L565.8 129.5 L558.4 136.9 L544.2 151.1 L544.2 185.1 L544.2 212.5 L524.2 232.5 L495.7 261.1 L495.7 305.0 L495.7 331.0 L477.5 349.2 L459.3 367.3 L459.3 394.9 L426.0 394.9 L368.5 452.3 L341.2 479.6 L296.9 479.6 L285.0 479.6 L272.8 491.9 L267.4 497.3 L267.4 535.3 L267.3 535.3 L238.4 564.2 L208.1 594.5 L208.1 643.8 L208.1 645.5 L164.7 688.9 L114.4 739.1 L114.4 778.4 L114.4 816.6 L87.7 843.4 L71.5 859.5 L71.5 910.8 L71.5 936.1 L59.9 947.7 L12.0 995.6 L12.0 1012.0 " />
<circle cx="580.4" cy="12.0" r="8" />
<circle cx="577.0" cy="51.1" r="8" />
<circle cx="568.8" cy="70.6" r="8" />
<circle cx="565.8" cy="112.0" r="8" />
<circle cx="558.4" cy="136.9" r="8" />
<circle cx="544.2" cy="185.1" r="8" />
<circle cx="524.2" cy="232.5" r="8" />
<circle cx="495.7" cy="305.0" r="8" />
<circle cx="477.5" cy="349.2" r="8" />
<circle cx="459.3" cy="394.9" r="8" />
<circle cx="368.5" cy="452.3" r="8" />
<circle cx="296.9" cy="479.6" r="8" />
<circle cx="272.8" cy="491.9" r="8" />
<circle cx="267.4" cy="535.3" r="8" />
<circle cx="238.4" cy="564.2" r="8" />
<circle cx="208.1" cy="643.8" r="8" />
<circle cx="164.7" cy="688.9" r="8" />
<circle cx="114.4" cy="778.4" r="8" />
<circle cx="87.7" cy="843.4" r="8" />
<circle cx="71.5" cy="910.8" r="8" />
<circle cx="59.9" cy="947.7" r="8" />
<circle cx="12.0" cy="1012.0" r="8" />
<style>
circle {
fill: white;
stroke: #525252;
stroke-width: 4;
}
path {
fill: none;
stroke: #525252;
stroke-width: 8;
}</style>
</svg>