<svg width="618.0" height="1024.0" xmlns="http://www.w3.org/2000/svg">
<path d="M12.0 1012.0 L12.0 995.6 L59.9 947.7 L71.5 936.1 L71.5 910.8 L71.5 859.5 L87.7 843.4 L114.4 816.6 L114.4 778.4 L114.4 739.1 L164.7 688.9 L208.1 645.5 L208.1 643.8 L208.1 594.5 L238.4 564.2 L267.3 535.3 L267.4 535.3 L267.4 497.3 L272.8 491.9 L285.0 479.6 L296.9 479.6 L348.0 479.6 L349.3 478.4 L368.5 459.2 L368.5 452.3 L401.9 452.3 L459.3 394.9 L477.5 376.7 L477.5 349.2 L477.5 323.2 L495.7 305.0 L524.2 276.4 L524.2 232.5 L524.2 205.1 L544.2 185.1 L575.8 153.6 L606.0 153.6 L585.1 132.6 L585.1 130.8 L585.1 104.7 L572.0 91.7 L568.8 88.4 L568.8 70.6 L568.8 23.6 L580.4 12.0 " />
<circle cx="12.0" cy="1012.0" r="8" />
<circle cx="59.9" cy="947.7" r="8" />
<circle cx="71.5" cy="910.8" r="8" />
<circle cx="87.7" cy="843.4" r="8" />
<circle cx="114.4" cy="778.4" r="8" />
<circle cx="164.7" cy="688.9" r="8" />
<circle cx="208.1" cy="643.8" r="8" />
<circle cx="238.4" cy="564.2" r="8" />
<circle cx="267.4" cy="535.3" r="8" />
<circle cx="272.8" cy="491.9" r="8" />
<circle cx="296.9" cy="479.6" r="8" />
<circle cx="349.3" cy="478.4" r="8" />
<circle cx="368.5" cy="452.3" r="8" />
<circle cx="459.3" cy="394.9" r="8" />
<circle cx="477.5" cy="349.2" r="8" />
<circle cx="495.7" cy="305.0" r="8" />
<circle cx="524.2" cy="232.5" r="8" />
<circle cx="544.2" cy="185.1" r="8" />
<circle cx="606.0" cy="153.6" r="8" />
<circle cx="585.1" cy="130.8" r="8" />
<circle cx="572.0" cy="91.7" r="8" />
<circle cx="568.8" cy="70.6" r="8" />
<circle cx="580.4" cy="12.0" r="8" />
<style>
circle {
fill: white;
stroke: #525252;
stroke-width: 4;
}
path {
fill: none;
stroke: #525252;
stroke-width: 8;
}</style>
</svg>