<svg width="1024.0" height="579.4" xmlns="http://www.w3.org/2000/svg">
<path d="M1012.0 12.0 L878.5 145.5 L840.5 145.5 L834.1 145.5 L783.2 196.4 L746.4 233.3 L737.7 233.3 L727.7 233.3 L690.2 270.8 L635.7 325.3 L634.1 325.3 L634.1 375.1 L600.7 408.5 L564.1 445.1 L564.1 494.4 L558.1 494.4 L503.0 549.5 L446.5 493.0 L394.9 493.0 L312.7 493.0 L241.0 421.3 L207.5 421.3 L153.8 474.9 L61.3 567.4 L12.0 567.4 " />
<circle cx="1012.0" cy="12.0" r="8" />
<circle cx="840.5" cy="145.5" r="8" />
<circle cx="783.2" cy="196.4" r="8" />
<circle cx="737.7" cy="233.3" r="8" />
<circle cx="690.2" cy="270.8" r="8" />
<circle cx="634.1" cy="325.3" r="8" />
<circle cx="600.7" cy="408.5" r="8" />
<circle cx="564.1" cy="494.4" r="8" />
<circle cx="503.0" cy="549.5" r="8" />
<circle cx="394.9" cy="493.0" r="8" />
<circle cx="241.0" cy="421.3" r="8" />
<circle cx="153.8" cy="474.9" r="8" />
<circle cx="12.0" cy="567.4" r="8" />
<style>
circle {
fill: white;
stroke: #525252;
stroke-width: 4;
}
path {
fill: none;
stroke: #525252;
stroke-width: 8;
}</style>
</svg>