<svg width="1024.0" height="852.5" xmlns="http://www.w3.org/2000/svg">
<path d="M49.4 12.0 L45.7 15.7 L45.7 54.7 L45.7 67.1 L36.7 76.0 L33.5 79.3 L33.5 121.2 L33.5 140.3 L25.4 148.4 L12.0 161.7 L12.0 201.2 L46.6 166.6 L77.3 166.6 L132.2 166.6 L152.9 187.3 L164.2 198.6 L164.2 237.7 L221.4 237.7 L243.4 259.7 L247.5 263.8 L310.9 263.8 L314.2 263.8 L349.6 299.3 L371.8 321.5 L371.8 353.1 L402.9 353.1 L577.2 527.4 L602.0 502.6 L651.3 502.6 L684.8 502.6 L711.3 529.1 L757.1 574.9 L806.3 574.9 L837.7 574.9 L867.0 604.3 L891.1 628.4 L917.2 628.4 L964.0 628.4 L1012.0 676.4 L993.7 676.4 L951.2 718.8 L889.2 656.8 L706.6 656.8 L735.5 685.6 L735.5 711.4 L735.5 734.9 L764.9 764.4 L814.1 813.6 L814.1 819.7 L780.2 819.7 L764.0 835.9 L759.4 840.5 L699.9 840.5 L633.5 840.5 L621.0 827.9 L576.0 827.9 L575.5 828.4 L552.8 805.7 L547.8 805.7 L538.5 796.4 L538.5 784.7 L538.5 751.0 L509.7 722.2 L497.4 709.9 L497.4 680.7 L497.4 624.5 L485.2 612.4 L517.0 580.7 L517.0 560.0 L517.0 455.5 L394.6 333.1 L264.2 202.7 L194.9 202.7 L115.4 202.7 L54.5 141.8 L40.2 127.5 L40.2 99.0 " />
<circle cx="49.4" cy="12.0" r="8" />
<circle cx="45.7" cy="54.7" r="8" />
<circle cx="36.7" cy="76.0" r="8" />
<circle cx="33.5" cy="121.2" r="8" />
<circle cx="25.4" cy="148.4" r="8" />
<circle cx="12.0" cy="201.2" r="8" />
<circle cx="77.3" cy="166.6" r="8" />
<circle cx="152.9" cy="187.3" r="8" />
<circle cx="164.2" cy="237.7" r="8" />
<circle cx="243.4" cy="259.7" r="8" />
<circle cx="310.9" cy="263.8" r="8" />
<circle cx="349.6" cy="299.3" r="8" />
<circle cx="371.8" cy="353.1" r="8" />
<circle cx="577.2" cy="527.4" r="8" />
<circle cx="651.3" cy="502.6" r="8" />
<circle cx="711.3" cy="529.1" r="8" />
<circle cx="806.3" cy="574.9" r="8" />
<circle cx="867.0" cy="604.3" r="8" />
<circle cx="917.2" cy="628.4" r="8" />
<circle cx="1012.0" cy="676.4" r="8" />
<circle cx="951.2" cy="718.8" r="8" />
<circle cx="706.6" cy="656.8" r="8" />
<circle cx="735.5" cy="711.4" r="8" />
<circle cx="764.9" cy="764.4" r="8" />
<circle cx="814.1" cy="819.7" r="8" />
<circle cx="764.0" cy="835.9" r="8" />
<circle cx="699.9" cy="840.5" r="8" />
<circle cx="621.0" cy="827.9" r="8" />
<circle cx="575.5" cy="828.4" r="8" />
<circle cx="547.8" cy="805.7" r="8" />
<circle cx="538.5" cy="784.7" r="8" />
<circle cx="509.7" cy="722.2" r="8" />
<circle cx="497.4" cy="680.7" r="8" />
<circle cx="485.2" cy="612.4" r="8" />
<circle cx="517.0" cy="560.0" r="8" />
<circle cx="394.6" cy="333.1" r="8" />
<circle cx="194.9" cy="202.7" r="8" />
<circle cx="54.5" cy="141.8" r="8" />
<circle cx="40.2" cy="99.0" r="8" />
<style>
circle {
fill: white;
stroke: #000000;
stroke-width: 4;
}
path {
fill: none;
stroke: #000000;
stroke-width: 8;
}</style>
</svg>