<svg width="1024.0" height="165.0" xmlns="http://www.w3.org/2000/svg">
<path d="M1012.0 12.0 L1009.2 14.8 L940.6 14.8 L893.4 14.8 L893.0 15.2 L891.2 17.0 L867.3 17.0 L812.8 17.0 L810.6 19.3 L810.1 18.8 L744.2 18.8 L713.7 18.8 L708.1 13.2 L695.2 26.0 L695.2 53.9 L695.2 70.4 L683.0 82.7 L664.5 101.2 L664.5 103.7 L640.9 103.7 L634.1 96.9 L619.0 81.8 L573.2 81.8 L527.7 81.8 L524.3 78.4 L511.8 65.8 L476.3 65.8 L443.1 65.8 L437.8 60.5 L428.7 51.3 L414.2 51.3 L413.7 50.9 L413.7 35.3 L350.7 35.3 L344.2 41.8 L330.4 55.6 L293.5 55.6 L276.2 55.6 L270.2 61.6 L257.4 74.4 L226.0 74.4 L196.1 74.4 L188.1 82.4 L171.7 98.8 L130.5 98.8 L108.0 98.8 L99.0 107.9 L79.2 127.6 L70.7 127.6 L58.7 127.6 L44.8 141.5 L33.3 153.0 L12.0 153.0 " />
<circle cx="1012.0" cy="12.0" r="8" />
<circle cx="940.6" cy="14.8" r="8" />
<circle cx="893.0" cy="15.2" r="8" />
<circle cx="867.3" cy="17.0" r="8" />
<circle cx="810.6" cy="19.3" r="8" />
<circle cx="744.2" cy="18.8" r="8" />
<circle cx="708.1" cy="13.2" r="8" />
<circle cx="695.2" cy="53.9" r="8" />
<circle cx="683.0" cy="82.7" r="8" />
<circle cx="664.5" cy="103.7" r="8" />
<circle cx="634.1" cy="96.9" r="8" />
<circle cx="573.2" cy="81.8" r="8" />
<circle cx="524.3" cy="78.4" r="8" />
<circle cx="476.3" cy="65.8" r="8" />
<circle cx="437.8" cy="60.5" r="8" />
<circle cx="414.2" cy="51.3" r="8" />
<circle cx="413.7" cy="35.3" r="8" />
<circle cx="344.2" cy="41.8" r="8" />
<circle cx="293.5" cy="55.6" r="8" />
<circle cx="270.2" cy="61.6" r="8" />
<circle cx="226.0" cy="74.4" r="8" />
<circle cx="188.1" cy="82.4" r="8" />
<circle cx="130.5" cy="98.8" r="8" />
<circle cx="99.0" cy="107.9" r="8" />
<circle cx="70.7" cy="127.6" r="8" />
<circle cx="44.8" cy="141.5" r="8" />
<circle cx="12.0" cy="153.0" r="8" />
<style>
circle {
fill: white;
stroke: #009639;
stroke-width: 4;
}
path {
fill: none;
stroke: #009639;
stroke-width: 8;
}</style>
</svg>