<svg width="1024.0" height="180.9" xmlns="http://www.w3.org/2000/svg">
<path d="M12.0 168.9 L19.5 161.4 L42.2 161.4 L59.1 161.4 L69.0 151.5 L79.6 140.9 L98.3 140.9 L117.8 140.9 L128.3 130.3 L141.0 117.6 L152.0 117.6 L159.7 117.6 L177.8 99.6 L186.1 91.3 L206.6 91.3 L244.2 91.3 L259.2 76.3 L266.5 69.0 L293.9 69.0 L324.1 69.0 L336.1 57.0 L353.6 39.5 L400.7 39.5 L459.2 39.5 L465.4 33.3 L465.4 47.5 L465.8 47.9 L474.3 56.5 L488.0 56.5 L517.8 56.5 L522.5 61.2 L533.5 72.1 L564.0 72.1 L606.3 72.1 L609.9 75.7 L623.7 89.6 L666.7 89.6 L688.3 89.6 L694.5 95.8 L694.5 93.5 L711.4 76.6 L722.6 65.4 L722.6 50.3 L722.6 24.8 L734.3 13.1 L739.5 18.2 L767.3 18.2 L827.5 18.2 L828.0 18.6 L830.0 16.6 L879.8 16.6 L901.6 16.6 L903.3 14.9 L903.7 14.5 L946.7 14.5 L1009.5 14.5 L1012.0 12.0 " />
<circle cx="12.0" cy="168.9" r="8" />
<circle cx="42.2" cy="161.4" r="8" />
<circle cx="69.0" cy="151.5" r="8" />
<circle cx="98.3" cy="140.9" r="8" />
<circle cx="128.3" cy="130.3" r="8" />
<circle cx="152.0" cy="117.6" r="8" />
<circle cx="177.8" cy="99.6" r="8" />
<circle cx="206.6" cy="91.3" r="8" />
<circle cx="259.2" cy="76.3" r="8" />
<circle cx="293.9" cy="69.0" r="8" />
<circle cx="336.1" cy="57.0" r="8" />
<circle cx="400.7" cy="39.5" r="8" />
<circle cx="465.4" cy="33.3" r="8" />
<circle cx="465.8" cy="47.9" r="8" />
<circle cx="488.0" cy="56.5" r="8" />
<circle cx="522.5" cy="61.2" r="8" />
<circle cx="564.0" cy="72.1" r="8" />
<circle cx="609.9" cy="75.7" r="8" />
<circle cx="666.7" cy="89.6" r="8" />
<circle cx="694.5" cy="95.8" r="8" />
<circle cx="711.4" cy="76.6" r="8" />
<circle cx="722.6" cy="50.3" r="8" />
<circle cx="734.3" cy="13.1" r="8" />
<circle cx="767.3" cy="18.2" r="8" />
<circle cx="828.0" cy="18.6" r="8" />
<circle cx="879.8" cy="16.6" r="8" />
<circle cx="903.3" cy="14.9" r="8" />
<circle cx="946.7" cy="14.5" r="8" />
<circle cx="1012.0" cy="12.0" r="8" />
<style>
circle {
fill: white;
stroke: #009639;
stroke-width: 4;
}
path {
fill: none;
stroke: #009639;
stroke-width: 8;
}</style>
</svg>