<svg width="1024.0" height="206.7" xmlns="http://www.w3.org/2000/svg">
<path d="M1012.0 88.84139313051145 L1012.0 88.9 L975.8 88.9 L975.8 106.9 L973.0 109.7 L973.4 110.1 L973.4 154.7 L973.4 169.4 L948.0 194.7 L938.9 185.6 L938.9 171.8 L891.4 171.8 L863.5 143.9 L856.6 137.0 L834.0 137.0 L784.0 137.0 L776.7 144.3 L776.4 144.6 L704.5 144.6 L693.3 133.3 L693.3 104.3 L693.3 73.2 L673.0 52.9 L598.4 52.9 L597.4 53.9 L587.8 44.3 L546.1 44.3 L546.1 16.9 L551.1 12.0 L519.1 12.0 L492.3 38.8 L484.0 47.1 L441.9 47.1 L426.1 47.1 L403.2 24.1 L382.1 24.1 L370.3 35.9 L346.0 60.2 L328.3 60.2 L326.4 60.2 L305.2 81.4 L277.8 54.0 L255.0 54.0 L228.4 54.0 L206.8 32.4 L192.6 32.4 L185.9 39.2 L128.9 96.2 L77.1 96.2 L50.9 96.2 L12.0 135.1 " />
<circle cx="1012.0" cy="88.8" r="8" />
<circle cx="975.8" cy="88.9" r="8" />
<circle cx="973.0" cy="109.7" r="8" />
<circle cx="973.4" cy="154.7" r="8" />
<circle cx="948.0" cy="194.7" r="8" />
<circle cx="938.9" cy="171.8" r="8" />
<circle cx="863.5" cy="143.9" r="8" />
<circle cx="834.0" cy="137.0" r="8" />
<circle cx="776.7" cy="144.3" r="8" />
<circle cx="704.5" cy="144.6" r="8" />
<circle cx="693.3" cy="104.3" r="8" />
<circle cx="673.0" cy="52.9" r="8" />
<circle cx="597.4" cy="53.9" r="8" />
<circle cx="546.1" cy="44.3" r="8" />
<circle cx="551.1" cy="12.0" r="8" />
<circle cx="492.3" cy="38.8" r="8" />
<circle cx="441.9" cy="47.1" r="8" />
<circle cx="403.2" cy="24.1" r="8" />
<circle cx="370.3" cy="35.9" r="8" />
<circle cx="328.3" cy="60.2" r="8" />
<circle cx="305.2" cy="81.4" r="8" />
<circle cx="255.0" cy="54.0" r="8" />
<circle cx="206.8" cy="32.4" r="8" />
<circle cx="185.9" cy="39.2" r="8" />
<circle cx="77.1" cy="96.2" r="8" />
<circle cx="12.0" cy="135.1" r="8" />
<style>
circle {
fill: white;
stroke: #525252;
stroke-width: 4;
}
path {
fill: none;
stroke: #525252;
stroke-width: 8;
}</style>
</svg>