<svg width="1024.0" height="206.9" xmlns="http://www.w3.org/2000/svg">
<path d="M1012.0000000000001 88.90868353248092 L1012.0 88.9 L975.7 88.9 L975.7 107.0 L972.9 109.8 L973.3 110.2 L973.3 154.8 L973.3 169.5 L948.0 194.9 L938.8 185.7 L938.8 172.0 L891.3 172.0 L863.3 144.0 L856.5 137.1 L833.8 137.1 L783.8 137.1 L776.5 144.4 L776.2 144.7 L704.3 144.7 L693.0 133.4 L693.0 104.4 L693.0 73.2 L672.7 52.9 L598.0 52.9 L597.0 53.9 L587.4 44.4 L545.7 44.4 L545.7 16.9 L550.7 12.0 L518.6 12.0 L491.8 38.8 L483.6 47.1 L441.4 47.1 L425.6 47.1 L402.7 24.1 L381.5 24.1 L369.7 36.0 L345.4 60.3 L327.7 60.3 L325.8 60.3 L304.6 81.5 L277.2 54.1 L254.3 54.1 L227.7 54.1 L206.1 32.4 L191.9 32.4 L185.2 39.2 L128.1 96.3 L76.2 96.3 L50.3 96.3 L12.0 134.6 " />
<circle cx="1012.0" cy="88.9" r="8" />
<circle cx="975.7" cy="88.9" r="8" />
<circle cx="972.9" cy="109.8" r="8" />
<circle cx="973.3" cy="154.8" r="8" />
<circle cx="948.0" cy="194.9" r="8" />
<circle cx="938.8" cy="172.0" r="8" />
<circle cx="863.3" cy="144.0" r="8" />
<circle cx="833.8" cy="137.1" r="8" />
<circle cx="776.5" cy="144.4" r="8" />
<circle cx="704.3" cy="144.7" r="8" />
<circle cx="693.0" cy="104.4" r="8" />
<circle cx="672.7" cy="52.9" r="8" />
<circle cx="597.0" cy="53.9" r="8" />
<circle cx="545.7" cy="44.4" r="8" />
<circle cx="550.7" cy="12.0" r="8" />
<circle cx="491.8" cy="38.8" r="8" />
<circle cx="441.4" cy="47.1" r="8" />
<circle cx="402.7" cy="24.1" r="8" />
<circle cx="369.7" cy="36.0" r="8" />
<circle cx="327.7" cy="60.3" r="8" />
<circle cx="304.6" cy="81.5" r="8" />
<circle cx="254.3" cy="54.1" r="8" />
<circle cx="206.1" cy="32.4" r="8" />
<circle cx="185.2" cy="39.2" r="8" />
<circle cx="76.2" cy="96.3" r="8" />
<circle cx="12.0" cy="134.6" r="8" />
<style>
circle {
fill: white;
stroke: #525252;
stroke-width: 4;
}
path {
fill: none;
stroke: #525252;
stroke-width: 8;
}</style>
</svg>