<svg width="1024.0" height="194.7" xmlns="http://www.w3.org/2000/svg">
<path d="M12.0 122.4112426257208 L50.3 84.1 L76.2 84.1 L128.1 84.1 L185.2 27.0 L191.9 20.3 L206.1 20.3 L232.6 20.3 L254.3 41.9 L260.5 48.1 L327.7 48.1 L345.4 48.1 L369.7 23.8 L381.5 12.0 L402.7 12.0 L418.5 12.0 L441.4 34.9 L483.6 34.9 L491.8 26.7 L540.2 26.7 L545.7 32.2 L555.3 41.8 L597.0 41.8 L671.7 41.8 L672.7 40.8 L693.0 61.1 L693.0 92.3 L693.0 121.3 L704.3 132.5 L776.2 132.5 L776.5 132.3 L776.9 131.9 L863.3 131.9 L910.8 131.9 L938.8 159.8 L948.0 169.0 L948.0 182.7 L954.3 182.7 L969.8 167.2 L973.3 163.7 L973.3 142.7 L973.3 98.1 L972.9 97.7 L993.8 76.8 L1012.0 76.8 " />
<circle cx="12.0" cy="122.4" r="8" />
<circle cx="76.2" cy="84.1" r="8" />
<circle cx="185.2" cy="27.0" r="8" />
<circle cx="206.1" cy="20.3" r="8" />
<circle cx="254.3" cy="41.9" r="8" />
<circle cx="327.7" cy="48.1" r="8" />
<circle cx="369.7" cy="23.8" r="8" />
<circle cx="402.7" cy="12.0" r="8" />
<circle cx="441.4" cy="34.9" r="8" />
<circle cx="491.8" cy="26.7" r="8" />
<circle cx="545.7" cy="32.2" r="8" />
<circle cx="597.0" cy="41.8" r="8" />
<circle cx="672.7" cy="40.8" r="8" />
<circle cx="693.0" cy="92.3" r="8" />
<circle cx="704.3" cy="132.5" r="8" />
<circle cx="776.5" cy="132.3" r="8" />
<circle cx="863.3" cy="131.9" r="8" />
<circle cx="938.8" cy="159.8" r="8" />
<circle cx="948.0" cy="182.7" r="8" />
<circle cx="969.8" cy="167.2" r="8" />
<circle cx="973.3" cy="142.7" r="8" />
<circle cx="972.9" cy="97.7" r="8" />
<circle cx="1012.0" cy="76.8" r="8" />
<style>
circle {
fill: white;
stroke: #525252;
stroke-width: 4;
}
path {
fill: none;
stroke: #525252;
stroke-width: 8;
}</style>
</svg>