<svg width="1024.0" height="512.9" xmlns="http://www.w3.org/2000/svg">
<path d="M994.9466919868898 12.0 L994.9 12.0 L970.2 12.0 L970.2 24.3 L968.3 26.2 L968.6 26.5 L968.6 56.9 L968.6 67.0 L951.3 84.2 L1004.4 137.4 L1004.4 137.6 L1004.4 161.0 L1012.0 168.6 L999.6 181.0 L999.6 181.4 L988.2 181.4 L963.7 205.9 L969.9 212.1 L969.9 234.9 L951.7 234.9 L911.7 274.9 L909.4 277.2 L909.4 301.1 L909.4 308.7 L903.9 314.2 L898.2 308.4 L843.1 308.4 L794.9 308.4 L786.5 300.0 L759.0 300.0 L743.5 315.5 L737.0 321.9 L737.0 335.7 L737.0 349.1 L726.2 359.9 L716.1 370.0 L716.1 377.9 L689.5 377.9 L666.2 401.2 L657.1 392.0 L614.8 392.0 L604.0 392.0 L581.4 369.3 L547.8 369.3 L533.7 383.4 L525.5 391.6 L495.0 391.6 L452.8 391.6 L436.0 408.4 L426.7 417.7 L403.8 417.7 L395.2 417.7 L374.9 437.9 L360.8 452.1 L348.4 452.1 L326.7 452.1 L314.9 463.9 L303.0 475.8 L282.0 475.8 L263.1 475.8 L252.0 486.9 L243.7 495.2 L220.5 495.2 L207.0 495.2 L201.2 500.9 L184.0 483.7 L158.4 483.7 L122.4 483.7 L113.9 475.2 L97.9 459.2 L78.0 459.2 L70.9 459.2 L42.5 430.8 L15.5 403.7 L12.0 403.7 " />
<circle cx="994.9" cy="12.0" r="8" />
<circle cx="970.2" cy="12.0" r="8" />
<circle cx="968.3" cy="26.2" r="8" />
<circle cx="968.6" cy="56.9" r="8" />
<circle cx="951.3" cy="84.2" r="8" />
<circle cx="1004.4" cy="137.6" r="8" />
<circle cx="1012.0" cy="168.6" r="8" />
<circle cx="999.6" cy="181.4" r="8" />
<circle cx="963.7" cy="205.9" r="8" />
<circle cx="969.9" cy="234.9" r="8" />
<circle cx="911.7" cy="274.9" r="8" />
<circle cx="909.4" cy="301.1" r="8" />
<circle cx="903.9" cy="314.2" r="8" />
<circle cx="843.1" cy="308.4" r="8" />
<circle cx="786.5" cy="300.0" r="8" />
<circle cx="743.5" cy="315.5" r="8" />
<circle cx="737.0" cy="335.7" r="8" />
<circle cx="726.2" cy="359.9" r="8" />
<circle cx="716.1" cy="377.9" r="8" />
<circle cx="666.2" cy="401.2" r="8" />
<circle cx="614.8" cy="392.0" r="8" />
<circle cx="581.4" cy="369.3" r="8" />
<circle cx="533.7" cy="383.4" r="8" />
<circle cx="495.0" cy="391.6" r="8" />
<circle cx="436.0" cy="408.4" r="8" />
<circle cx="403.8" cy="417.7" r="8" />
<circle cx="374.9" cy="437.9" r="8" />
<circle cx="348.4" cy="452.1" r="8" />
<circle cx="314.9" cy="463.9" r="8" />
<circle cx="282.0" cy="475.8" r="8" />
<circle cx="252.0" cy="486.9" r="8" />
<circle cx="220.5" cy="495.2" r="8" />
<circle cx="201.2" cy="500.9" r="8" />
<circle cx="158.4" cy="483.7" r="8" />
<circle cx="113.9" cy="475.2" r="8" />
<circle cx="78.0" cy="459.2" r="8" />
<circle cx="42.5" cy="430.8" r="8" />
<circle cx="12.0" cy="403.7" r="8" />
<style>
circle {
fill: white;
stroke: #000000;
stroke-width: 4;
}
path {
fill: none;
stroke: #000000;
stroke-width: 8;
}</style>
</svg>