<svg width="1024.0" height="628.7" xmlns="http://www.w3.org/2000/svg">
<path d="M992.2881803724903 12.0 L992.3 12.0 L963.7 12.0 L963.7 26.3 L961.5 28.5 L961.8 28.8 L961.8 63.9 L961.8 75.5 L941.8 95.5 L1003.2 156.9 L1003.2 157.2 L1003.2 184.3 L1012.0 193.0 L997.7 207.3 L997.7 207.8 L984.5 207.8 L956.2 236.1 L963.3 243.3 L963.3 269.7 L942.3 269.7 L896.1 315.9 L893.5 318.5 L893.5 346.2 L893.5 355.0 L887.1 361.3 L880.4 354.6 L816.7 354.6 L761.1 354.6 L751.3 344.9 L719.5 344.9 L701.6 362.8 L694.1 370.3 L694.1 386.1 L694.1 402.2 L681.2 415.1 L669.9 426.4 L669.9 434.9 L639.2 434.9 L612.3 461.8 L601.7 451.3 L552.9 451.3 L540.4 451.3 L514.2 425.1 L475.5 425.1 L459.2 441.3 L449.7 450.8 L414.4 450.8 L365.6 450.8 L346.2 470.2 L335.5 480.9 L309.0 480.9 L299.0 480.9 L275.6 504.3 L259.2 520.7 L245.0 520.7 L219.8 520.7 L206.2 534.3 L192.4 548.1 L168.2 548.1 L146.3 548.1 L133.5 560.9 L123.9 570.5 L97.2 570.5 L81.5 570.5 L74.9 577.1 L52.1 599.9 L48.6 599.9 L28.8 599.9 L12.0 616.7 " />
<circle cx="992.3" cy="12.0" r="8" />
<circle cx="963.7" cy="12.0" r="8" />
<circle cx="961.5" cy="28.5" r="8" />
<circle cx="961.8" cy="63.9" r="8" />
<circle cx="941.8" cy="95.5" r="8" />
<circle cx="1003.2" cy="157.2" r="8" />
<circle cx="1012.0" cy="193.0" r="8" />
<circle cx="997.7" cy="207.8" r="8" />
<circle cx="956.2" cy="236.1" r="8" />
<circle cx="963.3" cy="269.7" r="8" />
<circle cx="896.1" cy="315.9" r="8" />
<circle cx="893.5" cy="346.2" r="8" />
<circle cx="887.1" cy="361.3" r="8" />
<circle cx="816.7" cy="354.6" r="8" />
<circle cx="751.3" cy="344.9" r="8" />
<circle cx="701.6" cy="362.8" r="8" />
<circle cx="694.1" cy="386.1" r="8" />
<circle cx="681.2" cy="415.1" r="8" />
<circle cx="669.9" cy="434.9" r="8" />
<circle cx="612.3" cy="461.8" r="8" />
<circle cx="552.9" cy="451.3" r="8" />
<circle cx="514.2" cy="425.1" r="8" />
<circle cx="459.2" cy="441.3" r="8" />
<circle cx="414.4" cy="450.8" r="8" />
<circle cx="346.2" cy="470.2" r="8" />
<circle cx="309.0" cy="480.9" r="8" />
<circle cx="275.6" cy="504.3" r="8" />
<circle cx="245.0" cy="520.7" r="8" />
<circle cx="206.2" cy="534.3" r="8" />
<circle cx="168.2" cy="548.1" r="8" />
<circle cx="133.5" cy="560.9" r="8" />
<circle cx="97.2" cy="570.5" r="8" />
<circle cx="74.9" cy="577.1" r="8" />
<circle cx="48.6" cy="599.9" r="8" />
<circle cx="12.0" cy="616.7" r="8" />
<style>
circle {
fill: white;
stroke: #000000;
stroke-width: 4;
}
path {
fill: none;
stroke: #000000;
stroke-width: 8;
}</style>
</svg>