<svg width="1024.0" height="634.0" xmlns="http://www.w3.org/2000/svg">
<path d="M12.0 622.007748754808 L32.0 622.0 L48.9 605.1 L78.6 575.4 L97.9 575.4 L124.9 575.4 L134.6 565.8 L147.5 552.8 L169.6 552.8 L194.0 552.8 L207.9 539.0 L221.7 525.2 L247.1 525.2 L261.4 525.2 L278.0 508.7 L301.5 485.1 L311.6 485.1 L338.4 485.1 L349.2 474.3 L368.8 454.7 L417.9 454.7 L453.6 454.7 L463.1 445.1 L479.6 428.7 L518.7 428.7 L581.7 428.7 L604.1 406.3 L600.5 409.9 L600.5 436.5 L600.5 448.7 L617.6 465.8 L648.6 465.8 L675.7 438.7 L687.1 427.3 L687.1 418.7 L687.1 402.5 L700.2 389.4 L707.7 381.9 L707.7 365.9 L710.2 363.4 L748.5 363.4 L818.1 363.4 L823.9 357.7 L888.1 357.7 L894.8 364.4 L903.9 355.4 L903.9 318.6 L950.5 272.0 L971.8 272.0 L971.8 245.3 L964.5 238.1 L993.1 209.5 L1006.4 209.5 L1012.0 203.9 L1012.0 158.5 L1012.0 158.2 L950.1 96.2 L962.4 83.9 L967.4 83.9 L970.2 81.1 L970.2 64.4 L970.2 28.9 L969.9 28.6 L986.5 12.0 L1000.9 12.0 " />
<circle cx="12.0" cy="622.0" r="8" />
<circle cx="48.9" cy="605.1" r="8" />
<circle cx="97.9" cy="575.4" r="8" />
<circle cx="134.6" cy="565.8" r="8" />
<circle cx="169.6" cy="552.8" r="8" />
<circle cx="207.9" cy="539.0" r="8" />
<circle cx="247.1" cy="525.2" r="8" />
<circle cx="278.0" cy="508.7" r="8" />
<circle cx="311.6" cy="485.1" r="8" />
<circle cx="349.2" cy="474.3" r="8" />
<circle cx="417.9" cy="454.7" r="8" />
<circle cx="463.1" cy="445.1" r="8" />
<circle cx="518.7" cy="428.7" r="8" />
<circle cx="604.1" cy="406.3" r="8" />
<circle cx="600.5" cy="436.5" r="8" />
<circle cx="617.6" cy="465.8" r="8" />
<circle cx="675.7" cy="438.7" r="8" />
<circle cx="687.1" cy="418.7" r="8" />
<circle cx="700.2" cy="389.4" r="8" />
<circle cx="707.7" cy="365.9" r="8" />
<circle cx="748.5" cy="363.4" r="8" />
<circle cx="823.9" cy="357.7" r="8" />
<circle cx="894.8" cy="364.4" r="8" />
<circle cx="903.9" cy="318.6" r="8" />
<circle cx="971.8" cy="272.0" r="8" />
<circle cx="964.5" cy="238.1" r="8" />
<circle cx="1006.4" cy="209.5" r="8" />
<circle cx="1012.0" cy="158.5" r="8" />
<circle cx="950.1" cy="96.2" r="8" />
<circle cx="967.4" cy="83.9" r="8" />
<circle cx="970.2" cy="64.4" r="8" />
<circle cx="969.9" cy="28.6" r="8" />
<circle cx="1000.9" cy="12.0" r="8" />
<style>
circle {
fill: white;
stroke: #000000;
stroke-width: 4;
}
path {
fill: none;
stroke: #000000;
stroke-width: 8;
}</style>
</svg>