<svg width="1024.0" height="928.3" xmlns="http://www.w3.org/2000/svg">
<path d="M1012.0 916.3 L981.6 885.9 L981.6 839.6 L981.6 808.3 L996.3 793.5 L974.0 771.1 L856.4 771.1 L854.1 768.8 L854.1 751.9 L854.1 738.4 L883.6 708.9 L913.8 678.7 L913.8 637.9 L913.8 590.6 L917.6 586.8 L887.8 557.0 L868.6 557.0 L790.8 557.0 L761.4 527.6 L840.4 527.6 L947.3 420.7 L966.8 401.3 L966.8 390.5 L965.8 390.5 L923.1 347.8 L913.6 338.4 L807.9 338.4 L746.5 338.4 L713.3 371.5 L705.1 379.7 L657.9 379.7 L656.4 379.7 L588.7 312.0 L605.9 294.8 L605.9 280.4 L605.9 239.7 L631.9 213.8 L598.1 180.0 L598.1 166.9 L569.1 166.9 L525.0 122.8 L490.6 88.4 L469.1 88.4 L433.5 88.4 L390.8 45.7 L357.1 12.0 L315.7 12.0 L293.6 12.0 L283.1 22.5 L194.2 111.5 L113.4 111.5 L72.6 111.5 L12.0 172.1 L50.3 172.1 L138.6 260.4 L216.8 338.6 L282.3 338.6 L342.0 338.6 L347.0 343.6 L347.0 327.0 L398.7 275.3 L398.5 275.1 L398.5 248.0 L391.3 248.0 L337.9 194.7 L302.1 158.8 L259.1 158.8 L554.1 453.8 L554.1 474.6 L636.0 474.6 L656.7 495.4 " />
<circle cx="1012.0" cy="916.3" r="8" />
<circle cx="981.6" cy="839.6" r="8" />
<circle cx="996.3" cy="793.5" r="8" />
<circle cx="856.4" cy="771.1" r="8" />
<circle cx="854.1" cy="751.9" r="8" />
<circle cx="883.6" cy="708.9" r="8" />
<circle cx="913.8" cy="637.9" r="8" />
<circle cx="917.6" cy="586.8" r="8" />
<circle cx="868.6" cy="557.0" r="8" />
<circle cx="761.4" cy="527.6" r="8" />
<circle cx="947.3" cy="420.7" r="8" />
<circle cx="966.8" cy="390.5" r="8" />
<circle cx="923.1" cy="347.8" r="8" />
<circle cx="807.9" cy="338.4" r="8" />
<circle cx="713.3" cy="371.5" r="8" />
<circle cx="657.9" cy="379.7" r="8" />
<circle cx="588.7" cy="312.0" r="8" />
<circle cx="605.9" cy="280.4" r="8" />
<circle cx="631.9" cy="213.8" r="8" />
<circle cx="598.1" cy="166.9" r="8" />
<circle cx="525.0" cy="122.8" r="8" />
<circle cx="469.1" cy="88.4" r="8" />
<circle cx="390.8" cy="45.7" r="8" />
<circle cx="315.7" cy="12.0" r="8" />
<circle cx="283.1" cy="22.5" r="8" />
<circle cx="113.4" cy="111.5" r="8" />
<circle cx="12.0" cy="172.1" r="8" />
<circle cx="138.6" cy="260.4" r="8" />
<circle cx="282.3" cy="338.6" r="8" />
<circle cx="347.0" cy="343.6" r="8" />
<circle cx="398.7" cy="275.3" r="8" />
<circle cx="398.5" cy="248.0" r="8" />
<circle cx="337.9" cy="194.7" r="8" />
<circle cx="259.1" cy="158.8" r="8" />
<circle cx="554.1" cy="474.6" r="8" />
<circle cx="656.7" cy="495.4" r="8" />
<style>
circle {
fill: white;
stroke: #000000;
stroke-width: 4;
}
path {
fill: none;
stroke: #000000;
stroke-width: 8;
}</style>
</svg>