<svg width="1024.0" height="928.5" xmlns="http://www.w3.org/2000/svg">
<path d="M1012.0 916.5 L979.9 884.3 L979.9 839.3 L979.9 808.0 L994.6 793.2 L972.3 770.9 L854.8 770.9 L852.5 768.5 L852.5 751.7 L852.5 738.1 L882.0 708.6 L917.5 673.1 L917.5 633.7 L917.5 588.2 L915.9 586.6 L889.7 560.4 L854.7 560.4 L792.7 560.4 L759.8 527.4 L830.5 527.4 L931.9 426.0 L965.1 392.8 L965.1 390.4 L954.6 390.4 L903.5 339.4 L902.4 338.2 L806.3 338.2 L744.8 338.2 L711.7 371.4 L703.5 379.6 L656.3 379.6 L654.8 379.6 L587.1 311.9 L604.4 294.7 L604.4 280.3 L604.4 239.6 L630.3 213.7 L596.5 180.0 L596.5 166.8 L567.5 166.8 L523.4 122.7 L489.1 88.4 L467.6 88.4 L432.0 88.4 L389.3 45.7 L355.6 12.0 L314.2 12.0 L292.2 12.0 L281.6 22.5 L192.8 111.4 L112.0 111.4 L71.6 111.4 L12.0 171.1 L47.9 171.1 L137.2 260.3 L211.5 334.7 L267.1 334.7 L278.3 334.7 L312.1 300.8 L326.4 315.1 L355.2 315.1 L357.3 315.1 L397.2 275.2 L397.0 275.0 L397.0 248.0 L389.8 248.0 L336.5 194.7 L300.6 158.8 L257.7 158.8 L357.8 259.0 L357.8 326.6 L404.6 326.6 L552.5 474.5 L573.2 495.2 L655.1 495.2 " />
<circle cx="1012.0" cy="916.5" r="8" />
<circle cx="979.9" cy="839.3" r="8" />
<circle cx="994.6" cy="793.2" r="8" />
<circle cx="854.8" cy="770.9" r="8" />
<circle cx="852.5" cy="751.7" r="8" />
<circle cx="882.0" cy="708.6" r="8" />
<circle cx="917.5" cy="633.7" r="8" />
<circle cx="915.9" cy="586.6" r="8" />
<circle cx="854.7" cy="560.4" r="8" />
<circle cx="759.8" cy="527.4" r="8" />
<circle cx="931.9" cy="426.0" r="8" />
<circle cx="965.1" cy="390.4" r="8" />
<circle cx="903.5" cy="339.4" r="8" />
<circle cx="806.3" cy="338.2" r="8" />
<circle cx="711.7" cy="371.4" r="8" />
<circle cx="656.3" cy="379.6" r="8" />
<circle cx="587.1" cy="311.9" r="8" />
<circle cx="604.4" cy="280.3" r="8" />
<circle cx="630.3" cy="213.7" r="8" />
<circle cx="596.5" cy="166.8" r="8" />
<circle cx="523.4" cy="122.7" r="8" />
<circle cx="467.6" cy="88.4" r="8" />
<circle cx="389.3" cy="45.7" r="8" />
<circle cx="314.2" cy="12.0" r="8" />
<circle cx="281.6" cy="22.5" r="8" />
<circle cx="112.0" cy="111.4" r="8" />
<circle cx="12.0" cy="171.1" r="8" />
<circle cx="137.2" cy="260.3" r="8" />
<circle cx="267.1" cy="334.7" r="8" />
<circle cx="312.1" cy="300.8" r="8" />
<circle cx="355.2" cy="315.1" r="8" />
<circle cx="397.2" cy="275.2" r="8" />
<circle cx="397.0" cy="248.0" r="8" />
<circle cx="336.5" cy="194.7" r="8" />
<circle cx="257.7" cy="158.8" r="8" />
<circle cx="357.8" cy="326.6" r="8" />
<circle cx="552.5" cy="474.5" r="8" />
<circle cx="655.1" cy="495.2" r="8" />
<style>
circle {
fill: white;
stroke: #000000;
stroke-width: 4;
}
path {
fill: none;
stroke: #000000;
stroke-width: 8;
}</style>
</svg>