<svg width="526.7" height="1024.0" xmlns="http://www.w3.org/2000/svg">
<path d="M163.0 12.0 L156.2 18.9 L156.2 91.2 L156.2 114.2 L139.6 130.8 L133.5 136.9 L133.5 214.6 L133.5 250.0 L118.5 265.0 L89.7 293.8 L89.7 362.8 L153.6 298.9 L214.9 298.9 L316.6 298.9 L355.1 337.3 L376.0 358.2 L376.0 430.7 L376.0 468.9 L355.0 489.8 L323.2 521.7 L323.2 546.2 L323.2 596.2 L278.5 640.9 L241.8 677.6 L241.8 741.3 L296.5 686.7 L326.1 686.7 L386.8 686.7 L416.5 716.4 L442.1 742.0 L514.7 742.0 L436.7 820.0 L436.7 868.9 L418.3 868.9 L380.7 906.5 L362.0 925.2 L362.0 960.9 L362.0 981.6 L345.9 997.7 L331.6 1012.0 L254.5 1012.0 L171.3 1012.0 L153.5 994.2 L149.9 990.6 L12.0 990.6 " />
<circle cx="163.0" cy="12.0" r="8" />
<circle cx="156.2" cy="91.2" r="8" />
<circle cx="139.6" cy="130.8" r="8" />
<circle cx="133.5" cy="214.6" r="8" />
<circle cx="118.5" cy="265.0" r="8" />
<circle cx="89.7" cy="362.8" r="8" />
<circle cx="214.9" cy="298.9" r="8" />
<circle cx="355.1" cy="337.3" r="8" />
<circle cx="376.0" cy="430.7" r="8" />
<circle cx="355.0" cy="489.8" r="8" />
<circle cx="323.2" cy="546.2" r="8" />
<circle cx="278.5" cy="640.9" r="8" />
<circle cx="241.8" cy="741.3" r="8" />
<circle cx="326.1" cy="686.7" r="8" />
<circle cx="416.5" cy="716.4" r="8" />
<circle cx="514.7" cy="742.0" r="8" />
<circle cx="436.7" cy="868.9" r="8" />
<circle cx="380.7" cy="906.5" r="8" />
<circle cx="362.0" cy="960.9" r="8" />
<circle cx="345.9" cy="997.7" r="8" />
<circle cx="254.5" cy="1012.0" r="8" />
<circle cx="153.5" cy="994.2" r="8" />
<circle cx="12.0" cy="990.6" r="8" />
<style>
circle {
fill: white;
stroke: #000000;
stroke-width: 4;
}
path {
fill: none;
stroke: #000000;
stroke-width: 8;
}</style>
</svg>