<svg width="530.3" height="1024.0" xmlns="http://www.w3.org/2000/svg">
<path d="M166.6 12.0 L159.7 18.9 L159.7 91.2 L159.7 114.2 L143.1 130.8 L137.1 136.9 L137.1 214.6 L137.1 250.0 L122.1 265.0 L93.3 293.8 L93.3 362.8 L157.2 298.9 L218.5 298.9 L320.2 298.9 L358.7 337.3 L379.6 358.2 L379.6 430.7 L379.6 468.9 L358.6 489.8 L326.7 521.7 L326.7 546.2 L326.7 596.2 L282.1 640.9 L245.4 677.6 L245.4 741.3 L300.0 686.7 L329.6 686.7 L390.4 686.7 L420.1 716.4 L445.7 742.0 L518.3 742.0 L440.3 820.0 L440.3 868.9 L421.9 868.9 L384.2 906.5 L365.6 925.2 L365.6 960.9 L365.6 981.6 L349.5 997.7 L335.2 1012.0 L258.1 1012.0 L174.9 1012.0 L157.1 994.2 L13.0 994.2 L12.0 995.2 " />
<circle cx="166.6" cy="12.0" r="8" />
<circle cx="159.7" cy="91.2" r="8" />
<circle cx="143.1" cy="130.8" r="8" />
<circle cx="137.1" cy="214.6" r="8" />
<circle cx="122.1" cy="265.0" r="8" />
<circle cx="93.3" cy="362.8" r="8" />
<circle cx="218.5" cy="298.9" r="8" />
<circle cx="358.7" cy="337.3" r="8" />
<circle cx="379.6" cy="430.7" r="8" />
<circle cx="358.6" cy="489.8" r="8" />
<circle cx="326.7" cy="546.2" r="8" />
<circle cx="282.1" cy="640.9" r="8" />
<circle cx="245.4" cy="741.3" r="8" />
<circle cx="329.6" cy="686.7" r="8" />
<circle cx="420.1" cy="716.4" r="8" />
<circle cx="518.3" cy="742.0" r="8" />
<circle cx="440.3" cy="868.9" r="8" />
<circle cx="384.2" cy="906.5" r="8" />
<circle cx="365.6" cy="960.9" r="8" />
<circle cx="349.5" cy="997.7" r="8" />
<circle cx="258.1" cy="1012.0" r="8" />
<circle cx="157.1" cy="994.2" r="8" />
<circle cx="12.0" cy="995.2" r="8" />
<style>
circle {
fill: white;
stroke: #000000;
stroke-width: 4;
}
path {
fill: none;
stroke: #000000;
stroke-width: 8;
}</style>
</svg>