<svg width="1024.0" height="204.6" xmlns="http://www.w3.org/2000/svg">
<path d="M141.8869516260205 151.8703270585041 L139.4 149.3 L108.8 149.3 L105.0 149.3 L85.6 129.9 L62.5 106.8 L13.6 106.8 L12.0 105.2 L12.0 30.8 L16.6 30.8 L26.1 21.4 L31.0 16.4 L80.0 16.4 L94.0 16.4 L110.3 32.7 L124.8 18.3 L146.7 18.3 L174.1 18.3 L180.4 12.0 L187.0 18.6 L209.8 18.6 L262.1 18.6 L281.2 37.7 L292.1 48.6 L322.8 48.6 L385.2 48.6 L407.8 71.2 L435.9 99.3 L496.7 99.3 L521.5 99.3 L524.6 102.4 L541.4 119.1 L593.4 119.1 L644.6 119.1 L645.9 120.5 L652.7 127.3 L683.0 127.3 L726.3 127.3 L734.3 135.3 L734.8 135.7 L782.5 135.7 L820.1 135.7 L821.0 136.7 L822.0 137.6 L844.2 137.6 L873.6 137.6 L881.3 145.3 L888.6 152.6 L908.5 152.6 L921.2 152.6 L925.9 157.3 L935.8 167.2 L951.5 167.2 L960.2 167.2 L975.6 182.5 L982.8 189.7 L988.1 189.7 L1009.1 189.7 L1012.0 192.6 " />
<circle cx="141.9" cy="151.9" r="8" />
<circle cx="108.8" cy="149.3" r="8" />
<circle cx="85.6" cy="129.9" r="8" />
<circle cx="13.6" cy="106.8" r="8" />
<circle cx="12.0" cy="30.8" r="8" />
<circle cx="26.1" cy="21.4" r="8" />
<circle cx="80.0" cy="16.4" r="8" />
<circle cx="110.3" cy="32.7" r="8" />
<circle cx="146.7" cy="18.3" r="8" />
<circle cx="180.4" cy="12.0" r="8" />
<circle cx="209.8" cy="18.6" r="8" />
<circle cx="281.2" cy="37.7" r="8" />
<circle cx="322.8" cy="48.6" r="8" />
<circle cx="407.8" cy="71.2" r="8" />
<circle cx="496.7" cy="99.3" r="8" />
<circle cx="524.6" cy="102.4" r="8" />
<circle cx="593.4" cy="119.1" r="8" />
<circle cx="645.9" cy="120.5" r="8" />
<circle cx="683.0" cy="127.3" r="8" />
<circle cx="734.3" cy="135.3" r="8" />
<circle cx="782.5" cy="135.7" r="8" />
<circle cx="821.0" cy="136.7" r="8" />
<circle cx="844.2" cy="137.6" r="8" />
<circle cx="881.3" cy="145.3" r="8" />
<circle cx="908.5" cy="152.6" r="8" />
<circle cx="925.9" cy="157.3" r="8" />
<circle cx="951.5" cy="167.2" r="8" />
<circle cx="975.6" cy="182.5" r="8" />
<circle cx="988.1" cy="189.7" r="8" />
<circle cx="1012.0" cy="192.6" r="8" />
<style>
circle {
fill: white;
stroke: #525252;
stroke-width: 4;
}
path {
fill: none;
stroke: #525252;
stroke-width: 8;
}</style>
</svg>