<svg width="1024.0" height="204.6" xmlns="http://www.w3.org/2000/svg">
<path d="M1012.0 192.64869713479732 L976.9 192.6 L951.5 167.2 L941.6 157.3 L925.9 157.3 L913.3 157.3 L908.5 152.6 L901.3 145.3 L881.3 145.3 L851.9 145.3 L844.2 137.6 L843.3 136.7 L821.0 136.7 L783.5 136.7 L782.5 135.7 L781.4 134.6 L731.9 134.6 L690.3 134.6 L683.0 127.3 L676.2 120.5 L645.9 120.5 L594.7 120.5 L593.4 119.1 L576.6 102.4 L524.6 102.4 L499.7 102.4 L496.7 99.3 L468.6 71.2 L407.8 71.2 L345.5 71.2 L322.8 48.6 L312.0 37.7 L281.2 37.7 L251.7 37.7 L241.0 27.0 L232.6 18.6 L209.8 18.6 L187.0 18.6 L180.4 12.0 L174.1 18.3 L146.7 18.3 L124.8 18.3 L110.3 32.7 L96.4 32.7 L80.0 16.4 L77.1 19.4 L52.3 19.4 L28.1 19.4 L26.1 21.4 L16.6 30.8 L12.0 30.8 L12.0 105.2 L13.6 106.8 L36.8 129.9 L85.6 129.9 L89.4 129.9 L108.8 149.3 L111.3 151.9 L141.9 151.9 " />
<circle cx="1012.0" cy="192.6" r="8" />
<circle cx="951.5" cy="167.2" r="8" />
<circle cx="925.9" cy="157.3" r="8" />
<circle cx="908.5" cy="152.6" r="8" />
<circle cx="881.3" cy="145.3" r="8" />
<circle cx="844.2" cy="137.6" r="8" />
<circle cx="821.0" cy="136.7" r="8" />
<circle cx="782.5" cy="135.7" r="8" />
<circle cx="731.9" cy="134.6" r="8" />
<circle cx="683.0" cy="127.3" r="8" />
<circle cx="645.9" cy="120.5" r="8" />
<circle cx="593.4" cy="119.1" r="8" />
<circle cx="524.6" cy="102.4" r="8" />
<circle cx="496.7" cy="99.3" r="8" />
<circle cx="407.8" cy="71.2" r="8" />
<circle cx="322.8" cy="48.6" r="8" />
<circle cx="281.2" cy="37.7" r="8" />
<circle cx="241.0" cy="27.0" r="8" />
<circle cx="209.8" cy="18.6" r="8" />
<circle cx="180.4" cy="12.0" r="8" />
<circle cx="146.7" cy="18.3" r="8" />
<circle cx="110.3" cy="32.7" r="8" />
<circle cx="80.0" cy="16.4" r="8" />
<circle cx="52.3" cy="19.4" r="8" />
<circle cx="26.1" cy="21.4" r="8" />
<circle cx="12.0" cy="30.8" r="8" />
<circle cx="13.6" cy="106.8" r="8" />
<circle cx="85.6" cy="129.9" r="8" />
<circle cx="108.8" cy="149.3" r="8" />
<circle cx="141.9" cy="151.9" r="8" />
<style>
circle {
fill: white;
stroke: #525252;
stroke-width: 4;
}
path {
fill: none;
stroke: #525252;
stroke-width: 8;
}</style>
</svg>