<svg width="689.4" height="1024.0" xmlns="http://www.w3.org/2000/svg">
<path d="M145.4 1012.0 L145.4 980.8 L168.4 957.8 L89.7 879.1 L12.0 879.1 L12.0 780.3 L71.0 721.3 L145.3 647.0 L145.3 523.6 L145.3 435.0 L155.4 424.9 L158.8 421.6 L158.8 370.3 L190.2 370.3 L263.3 297.2 L256.4 290.2 L256.4 211.8 L176.3 211.8 L176.1 212.0 L303.7 212.0 L336.8 245.1 L382.1 290.4 L417.0 290.4 L431.4 290.4 L490.7 349.7 L505.4 335.0 L561.7 335.0 L563.2 335.0 L603.6 294.7 L628.6 269.6 L628.6 248.2 L628.6 209.5 L637.7 200.4 L567.3 130.1 L466.0 130.1 L508.9 87.1 L559.8 87.1 L602.2 87.1 L677.4 12.0 " />
<circle cx="145.4" cy="1012.0" r="8" />
<circle cx="168.4" cy="957.8" r="8" />
<circle cx="12.0" cy="879.1" r="8" />
<circle cx="71.0" cy="721.3" r="8" />
<circle cx="145.3" cy="523.6" r="8" />
<circle cx="155.4" cy="424.9" r="8" />
<circle cx="158.8" cy="370.3" r="8" />
<circle cx="263.3" cy="297.2" r="8" />
<circle cx="256.4" cy="211.8" r="8" />
<circle cx="176.1" cy="212.0" r="8" />
<circle cx="336.8" cy="245.1" r="8" />
<circle cx="417.0" cy="290.4" r="8" />
<circle cx="490.7" cy="349.7" r="8" />
<circle cx="561.7" cy="335.0" r="8" />
<circle cx="603.6" cy="294.7" r="8" />
<circle cx="628.6" cy="248.2" r="8" />
<circle cx="637.7" cy="200.4" r="8" />
<circle cx="466.0" cy="130.1" r="8" />
<circle cx="559.8" cy="87.1" r="8" />
<circle cx="677.4" cy="12.0" r="8" />
<style>
circle {
fill: white;
stroke: #525252;
stroke-width: 4;
}
path {
fill: none;
stroke: #525252;
stroke-width: 8;
}</style>
</svg>