<svg width="689.3" height="1024.0" xmlns="http://www.w3.org/2000/svg">
<path d="M145.4 1012.0 L145.4 980.7 L168.4 957.7 L89.7 879.0 L12.0 879.0 L12.0 780.2 L71.0 721.2 L145.3 646.9 L145.3 523.5 L145.3 435.0 L155.4 424.9 L158.8 421.5 L158.8 370.3 L190.1 370.3 L263.3 297.1 L256.3 290.2 L256.3 211.8 L176.3 211.8 L176.1 212.0 L303.6 212.0 L336.7 245.0 L382.0 290.3 L417.0 290.3 L431.3 290.3 L490.7 349.7 L505.4 335.0 L561.6 335.0 L563.2 335.0 L603.5 294.6 L628.6 269.6 L628.6 248.2 L628.6 209.4 L637.6 200.4 L567.2 130.1 L465.9 130.1 L508.8 87.1 L559.7 87.1 L602.1 87.1 L677.3 12.0 " />
<circle cx="145.4" cy="1012.0" r="8" />
<circle cx="168.4" cy="957.7" r="8" />
<circle cx="12.0" cy="879.0" r="8" />
<circle cx="71.0" cy="721.2" r="8" />
<circle cx="145.3" cy="523.5" r="8" />
<circle cx="155.4" cy="424.9" r="8" />
<circle cx="158.8" cy="370.3" r="8" />
<circle cx="263.3" cy="297.1" r="8" />
<circle cx="256.3" cy="211.8" r="8" />
<circle cx="176.1" cy="212.0" r="8" />
<circle cx="336.7" cy="245.0" r="8" />
<circle cx="417.0" cy="290.3" r="8" />
<circle cx="490.7" cy="349.7" r="8" />
<circle cx="561.6" cy="335.0" r="8" />
<circle cx="603.5" cy="294.6" r="8" />
<circle cx="628.6" cy="248.2" r="8" />
<circle cx="637.6" cy="200.4" r="8" />
<circle cx="465.9" cy="130.1" r="8" />
<circle cx="559.7" cy="87.1" r="8" />
<circle cx="677.3" cy="12.0" r="8" />
<style>
circle {
fill: white;
stroke: #525252;
stroke-width: 4;
}
path {
fill: none;
stroke: #525252;
stroke-width: 8;
}</style>
</svg>