<svg width="1024.0" height="684.4" xmlns="http://www.w3.org/2000/svg">
<path d="M105.620665906048 280.7898470441512 L105.6 317.4 L85.5 337.5 L54.9 368.2 L54.9 391.7 L54.9 439.7 L12.0 482.6 L56.0 526.6 L57.7 526.6 L116.0 526.6 L144.6 555.2 L169.1 579.8 L238.8 579.8 L311.1 652.0 L311.1 667.6 L316.0 672.4 L413.5 672.4 L461.1 672.4 L495.7 637.9 L548.4 585.2 L576.6 585.2 L629.0 585.2 L659.7 554.4 L675.3 538.8 L744.2 538.8 L777.3 538.8 L820.9 495.2 L883.1 433.0 L903.2 433.0 L905.6 433.0 L933.7 404.9 L1012.0 483.2 L1012.0 498.5 L885.3 371.8 L861.9 371.8 L756.3 371.8 L742.7 358.2 L719.8 335.3 L699.0 335.3 L737.5 296.9 L737.5 280.5 L686.8 229.8 L582.8 229.8 L497.1 229.8 L464.6 197.3 L428.7 161.4 L352.9 161.4 L225.3 161.4 L196.9 133.0 L196.9 50.2 L235.0 12.0 L521.2 12.0 L539.3 30.1 L606.5 97.3 L607.6 97.3 " />
<circle cx="105.6" cy="280.8" r="8" />
<circle cx="85.5" cy="337.5" r="8" />
<circle cx="54.9" cy="391.7" r="8" />
<circle cx="12.0" cy="482.6" r="8" />
<circle cx="57.7" cy="526.6" r="8" />
<circle cx="144.6" cy="555.2" r="8" />
<circle cx="238.8" cy="579.8" r="8" />
<circle cx="311.1" cy="667.6" r="8" />
<circle cx="413.5" cy="672.4" r="8" />
<circle cx="495.7" cy="637.9" r="8" />
<circle cx="576.6" cy="585.2" r="8" />
<circle cx="659.7" cy="554.4" r="8" />
<circle cx="744.2" cy="538.8" r="8" />
<circle cx="820.9" cy="495.2" r="8" />
<circle cx="903.2" cy="433.0" r="8" />
<circle cx="933.7" cy="404.9" r="8" />
<circle cx="1012.0" cy="498.5" r="8" />
<circle cx="861.9" cy="371.8" r="8" />
<circle cx="742.7" cy="358.2" r="8" />
<circle cx="699.0" cy="335.3" r="8" />
<circle cx="737.5" cy="280.5" r="8" />
<circle cx="582.8" cy="229.8" r="8" />
<circle cx="464.6" cy="197.3" r="8" />
<circle cx="352.9" cy="161.4" r="8" />
<circle cx="196.9" cy="133.0" r="8" />
<circle cx="235.0" cy="12.0" r="8" />
<circle cx="539.3" cy="30.1" r="8" />
<circle cx="607.6" cy="97.3" r="8" />
<style>
circle {
fill: white;
stroke: #525252;
stroke-width: 4;
}
path {
fill: none;
stroke: #525252;
stroke-width: 8;
}</style>
</svg>