<svg width="1024.0" height="684.4" xmlns="http://www.w3.org/2000/svg">
<path d="M607.5923699620212 97.33902538631159 L540.3 30.1 L539.3 30.1 L253.1 30.1 L235.0 12.0 L235.0 94.8 L196.9 133.0 L225.3 161.4 L352.9 161.4 L428.7 161.4 L464.6 197.3 L497.1 229.8 L582.8 229.8 L686.8 229.8 L737.5 280.5 L737.5 296.9 L699.0 335.3 L721.9 358.2 L742.7 358.2 L848.3 358.2 L861.9 371.8 L895.0 404.9 L933.7 404.9 L1012.0 483.2 L1012.0 498.5 L946.5 433.0 L903.2 433.0 L883.1 433.0 L820.9 495.2 L777.3 538.8 L744.2 538.8 L675.3 538.8 L659.7 554.4 L576.2 637.9 L495.7 637.9 L448.1 637.9 L413.5 672.4 L316.0 672.4 L311.1 667.6 L238.8 595.3 L238.8 579.8 L214.3 555.2 L144.6 555.2 L86.2 555.2 L57.7 526.6 L13.6 482.6 L12.0 482.6 L54.9 439.7 L54.9 391.7 L54.9 368.2 L85.5 337.5 L105.6 317.4 L105.6 280.8 " />
<circle cx="607.6" cy="97.3" r="8" />
<circle cx="539.3" cy="30.1" r="8" />
<circle cx="235.0" cy="12.0" r="8" />
<circle cx="196.9" cy="133.0" r="8" />
<circle cx="352.9" cy="161.4" r="8" />
<circle cx="464.6" cy="197.3" r="8" />
<circle cx="582.8" cy="229.8" r="8" />
<circle cx="737.5" cy="280.5" r="8" />
<circle cx="699.0" cy="335.3" r="8" />
<circle cx="742.7" cy="358.2" r="8" />
<circle cx="861.9" cy="371.8" r="8" />
<circle cx="933.7" cy="404.9" r="8" />
<circle cx="1012.0" cy="498.5" r="8" />
<circle cx="903.2" cy="433.0" r="8" />
<circle cx="820.9" cy="495.2" r="8" />
<circle cx="744.2" cy="538.8" r="8" />
<circle cx="659.7" cy="554.4" r="8" />
<circle cx="495.7" cy="637.9" r="8" />
<circle cx="413.5" cy="672.4" r="8" />
<circle cx="311.1" cy="667.6" r="8" />
<circle cx="238.8" cy="579.8" r="8" />
<circle cx="144.6" cy="555.2" r="8" />
<circle cx="57.7" cy="526.6" r="8" />
<circle cx="12.0" cy="482.6" r="8" />
<circle cx="54.9" cy="391.7" r="8" />
<circle cx="85.5" cy="337.5" r="8" />
<circle cx="105.6" cy="280.8" r="8" />
<style>
circle {
fill: white;
stroke: #525252;
stroke-width: 4;
}
path {
fill: none;
stroke: #525252;
stroke-width: 8;
}</style>
</svg>