<svg width="1024.0" height="274.4" xmlns="http://www.w3.org/2000/svg">
<path d="M402.5 120.3 L390.9 108.7 L390.9 93.0 L341.8 93.0 L333.8 101.0 L461.9 101.0 L476.6 115.6 L501.1 140.1 L544.7 140.1 L609.8 140.1 L635.3 165.6 L667.8 198.1 L727.9 198.1 L825.6 198.1 L862.5 235.1 L889.8 262.4 L937.4 262.4 L937.4 130.6 L1012.0 56.0 L1009.3 53.3 L840.1 53.3 L672.1 53.3 L655.5 36.8 L537.2 36.8 L524.6 49.4 L510.7 63.2 L388.0 63.2 L291.9 63.2 L288.3 66.9 L233.4 12.0 L12.0 12.0 L89.2 89.2 L93.5 89.2 L161.1 89.2 L171.0 99.0 L174.3 95.7 L274.6 95.7 " />
<circle cx="402.5" cy="120.3" r="8" />
<circle cx="390.9" cy="93.0" r="8" />
<circle cx="333.8" cy="101.0" r="8" />
<circle cx="476.6" cy="115.6" r="8" />
<circle cx="544.7" cy="140.1" r="8" />
<circle cx="635.3" cy="165.6" r="8" />
<circle cx="727.9" cy="198.1" r="8" />
<circle cx="862.5" cy="235.1" r="8" />
<circle cx="937.4" cy="262.4" r="8" />
<circle cx="1012.0" cy="56.0" r="8" />
<circle cx="840.1" cy="53.3" r="8" />
<circle cx="655.5" cy="36.8" r="8" />
<circle cx="524.6" cy="49.4" r="8" />
<circle cx="388.0" cy="63.2" r="8" />
<circle cx="288.3" cy="66.9" r="8" />
<circle cx="12.0" cy="12.0" r="8" />
<circle cx="93.5" cy="89.2" r="8" />
<circle cx="171.0" cy="99.0" r="8" />
<circle cx="274.6" cy="95.7" r="8" />
<style>
circle {
fill: white;
stroke: #0D7B49;
stroke-width: 4;
}
path {
fill: none;
stroke: #0D7B49;
stroke-width: 8;
}</style>
</svg>