<svg width="1024.0" height="868.5" xmlns="http://www.w3.org/2000/svg">
<path d="M12.0 12.0 L35.1 35.1 L179.9 35.1 L260.7 35.1 L288.2 62.6 L325.2 99.6 L429.7 99.6 L391.8 137.6 L391.8 162.5 L496.8 162.5 L509.4 175.1 L519.0 184.7 L585.1 184.7 L683.3 184.7 L686.5 181.5 L712.5 207.5 L804.1 207.5 L877.4 207.5 L883.9 200.9 L917.1 234.1 L938.7 234.1 L938.7 241.9 L989.0 292.1 L1012.0 315.2 L1012.0 341.6 L877.7 341.6 L866.3 330.2 L810.1 386.4 L810.1 391.4 L802.1 391.4 L731.9 461.6 L689.3 504.2 L689.3 529.5 L689.3 535.7 L653.4 571.6 L615.5 609.5 L615.5 613.2 L615.5 617.1 L564.4 668.2 L486.6 746.0 L486.6 751.6 L486.6 766.0 L396.0 856.5 " />
<circle cx="12.0" cy="12.0" r="8" />
<circle cx="179.9" cy="35.1" r="8" />
<circle cx="288.2" cy="62.6" r="8" />
<circle cx="429.7" cy="99.6" r="8" />
<circle cx="391.8" cy="162.5" r="8" />
<circle cx="509.4" cy="175.1" r="8" />
<circle cx="585.1" cy="184.7" r="8" />
<circle cx="686.5" cy="181.5" r="8" />
<circle cx="804.1" cy="207.5" r="8" />
<circle cx="883.9" cy="200.9" r="8" />
<circle cx="938.7" cy="234.1" r="8" />
<circle cx="989.0" cy="292.1" r="8" />
<circle cx="1012.0" cy="341.6" r="8" />
<circle cx="866.3" cy="330.2" r="8" />
<circle cx="810.1" cy="391.4" r="8" />
<circle cx="731.9" cy="461.6" r="8" />
<circle cx="689.3" cy="529.5" r="8" />
<circle cx="653.4" cy="571.6" r="8" />
<circle cx="615.5" cy="613.2" r="8" />
<circle cx="564.4" cy="668.2" r="8" />
<circle cx="486.6" cy="751.6" r="8" />
<circle cx="396.0" cy="856.5" r="8" />
<style>
circle {
fill: white;
stroke: #72C4E7;
stroke-width: 4;
}
path {
fill: none;
stroke: #72C4E7;
stroke-width: 8;
}</style>
</svg>