<svg width="1024.0" height="865.3" xmlns="http://www.w3.org/2000/svg">
<path d="M12.0 12.0 L35.0 35.0 L179.3 35.0 L259.8 35.0 L287.2 62.4 L324.0 99.3 L428.2 99.3 L390.4 137.1 L390.4 161.9 L495.0 161.9 L507.5 174.5 L517.1 184.0 L583.0 184.0 L680.7 184.0 L683.9 180.8 L709.9 206.7 L801.1 206.7 L874.1 206.7 L880.6 200.2 L913.7 233.3 L935.3 233.3 L935.3 241.1 L985.3 291.1 L1012.0 317.8 L1012.0 340.6 L880.6 340.6 L870.8 330.7 L866.3 330.7 L807.1 390.0 L737.1 459.9 L729.2 459.9 L729.2 485.1 L686.8 527.5 L651.0 563.3 L651.0 569.5 L651.0 573.2 L613.2 610.9 L562.3 661.8 L562.3 665.7 L562.3 671.3 L484.8 748.8 L394.6 839.0 L394.6 853.3 " />
<circle cx="12.0" cy="12.0" r="8" />
<circle cx="179.3" cy="35.0" r="8" />
<circle cx="287.2" cy="62.4" r="8" />
<circle cx="428.2" cy="99.3" r="8" />
<circle cx="390.4" cy="161.9" r="8" />
<circle cx="507.5" cy="174.5" r="8" />
<circle cx="583.0" cy="184.0" r="8" />
<circle cx="683.9" cy="180.8" r="8" />
<circle cx="801.1" cy="206.7" r="8" />
<circle cx="880.6" cy="200.2" r="8" />
<circle cx="935.3" cy="233.3" r="8" />
<circle cx="985.3" cy="291.1" r="8" />
<circle cx="1012.0" cy="340.6" r="8" />
<circle cx="870.8" cy="330.7" r="8" />
<circle cx="807.1" cy="390.0" r="8" />
<circle cx="729.2" cy="459.9" r="8" />
<circle cx="686.8" cy="527.5" r="8" />
<circle cx="651.0" cy="569.5" r="8" />
<circle cx="613.2" cy="610.9" r="8" />
<circle cx="562.3" cy="665.7" r="8" />
<circle cx="484.8" cy="748.8" r="8" />
<circle cx="394.6" cy="853.3" r="8" />
<style>
circle {
fill: white;
stroke: #72C4E7;
stroke-width: 4;
}
path {
fill: none;
stroke: #72C4E7;
stroke-width: 8;
}</style>
</svg>