<svg width="1024.0" height="716.4" xmlns="http://www.w3.org/2000/svg">
<path d="M786.4 687.5 L803.3 704.4 L911.5 704.4 L911.5 683.7 L962.0 633.2 L1012.0 583.2 L1012.0 523.1 L943.4 523.1 L912.9 492.6 L893.3 473.0 L815.8 473.0 L753.3 473.0 L632.9 352.6 L617.6 337.2 L617.6 336.7 L578.9 336.7 L570.7 328.5 L560.0 328.5 L548.3 340.2 L478.4 270.3 L422.6 270.3 L386.4 270.3 L302.8 186.7 L260.1 144.0 L222.9 144.0 L144.0 144.0 L12.0 12.0 " />
<circle cx="786.4" cy="687.5" r="8" />
<circle cx="911.5" cy="704.4" r="8" />
<circle cx="962.0" cy="633.2" r="8" />
<circle cx="1012.0" cy="523.1" r="8" />
<circle cx="912.9" cy="492.6" r="8" />
<circle cx="815.8" cy="473.0" r="8" />
<circle cx="632.9" cy="352.6" r="8" />
<circle cx="617.6" cy="336.7" r="8" />
<circle cx="570.7" cy="328.5" r="8" />
<circle cx="548.3" cy="340.2" r="8" />
<circle cx="422.6" cy="270.3" r="8" />
<circle cx="302.8" cy="186.7" r="8" />
<circle cx="222.9" cy="144.0" r="8" />
<circle cx="12.0" cy="12.0" r="8" />
<style>
circle {
fill: white;
stroke: #525252;
stroke-width: 4;
}
path {
fill: none;
stroke: #525252;
stroke-width: 8;
}</style>
</svg>