<svg width="1024.0" height="493.6" xmlns="http://www.w3.org/2000/svg">
<path d="M12.0 331.4202763491869 L97.9 331.4 L123.3 356.8 L155.3 324.8 L155.3 306.7 L155.3 246.9 L155.8 246.4 L157.9 244.3 L157.9 181.3 L157.9 142.6 L209.3 91.2 L109.2 91.2 L76.8 58.9 L123.7 12.0 L219.9 12.0 L349.7 12.0 L359.1 21.4 L364.0 26.3 L440.4 26.3 L558.3 26.3 L577.4 45.3 L608.8 76.8 L787.7 76.8 L843.6 76.8 L854.4 87.6 L976.4 209.6 L1012.0 209.6 L1010.4 209.6 L993.1 226.9 L971.9 248.1 L971.9 278.0 L962.9 269.0 L781.2 269.0 L639.6 269.0 L629.4 258.8 L639.2 268.6 L639.2 301.1 L639.2 370.1 L724.8 455.7 L740.6 471.6 L740.6 481.6 " />
<circle cx="12.0" cy="331.4" r="8" />
<circle cx="123.3" cy="356.8" r="8" />
<circle cx="155.3" cy="306.7" r="8" />
<circle cx="155.8" cy="246.4" r="8" />
<circle cx="157.9" cy="181.3" r="8" />
<circle cx="209.3" cy="91.2" r="8" />
<circle cx="76.8" cy="58.9" r="8" />
<circle cx="219.9" cy="12.0" r="8" />
<circle cx="359.1" cy="21.4" r="8" />
<circle cx="440.4" cy="26.3" r="8" />
<circle cx="577.4" cy="45.3" r="8" />
<circle cx="787.7" cy="76.8" r="8" />
<circle cx="854.4" cy="87.6" r="8" />
<circle cx="1012.0" cy="209.6" r="8" />
<circle cx="993.1" cy="226.9" r="8" />
<circle cx="971.9" cy="278.0" r="8" />
<circle cx="781.2" cy="269.0" r="8" />
<circle cx="629.4" cy="258.8" r="8" />
<circle cx="639.2" cy="301.1" r="8" />
<circle cx="724.8" cy="455.7" r="8" />
<circle cx="740.6" cy="481.6" r="8" />
<style>
circle {
fill: white;
stroke: black;
stroke-width: 4;
}
path {
fill: none;
stroke: #FFFFFF;
stroke-width: 8;
}</style>
</svg>