<svg width="1024.0" height="663.2" xmlns="http://www.w3.org/2000/svg">
<path d="M1003.8137186519618 651.246822895763 L1003.8 550.3 L1012.0 542.1 L1002.4 542.1 L865.8 405.5 L784.4 324.2 L779.4 324.2 L779.4 284.0 L733.9 238.5 L567.4 72.0 L567.4 53.7 L538.6 24.8 L484.5 24.8 L307.8 24.8 L295.0 12.0 L231.1 75.8 L100.3 75.8 L236.5 75.8 L280.5 119.8 L280.5 172.5 L210.6 242.5 L207.7 245.3 L207.7 331.1 L207.7 412.5 L207.0 413.2 L163.4 456.7 L163.4 481.4 L128.9 446.8 L12.0 446.8 " />
<circle cx="1003.8" cy="651.2" r="8" />
<circle cx="1012.0" cy="542.1" r="8" />
<circle cx="865.8" cy="405.5" r="8" />
<circle cx="779.4" cy="324.2" r="8" />
<circle cx="733.9" cy="238.5" r="8" />
<circle cx="567.4" cy="53.7" r="8" />
<circle cx="484.5" cy="24.8" r="8" />
<circle cx="295.0" cy="12.0" r="8" />
<circle cx="100.3" cy="75.8" r="8" />
<circle cx="280.5" cy="119.8" r="8" />
<circle cx="210.6" cy="242.5" r="8" />
<circle cx="207.7" cy="331.1" r="8" />
<circle cx="207.0" cy="413.2" r="8" />
<circle cx="163.4" cy="481.4" r="8" />
<circle cx="12.0" cy="446.8" r="8" />
<style>
circle {
fill: white;
stroke: black;
stroke-width: 4;
}
path {
fill: none;
stroke: #FFFFFF;
stroke-width: 8;
}</style>
</svg>