<svg width="1024.0" height="584.5" xmlns="http://www.w3.org/2000/svg">
<path d="M1012.0 12.0 L901.8 122.2 L825.0 122.2 L766.3 122.2 L694.4 194.1 L661.7 226.8 L642.3 226.8 L632.1 226.8 L514.2 344.8 L382.5 344.8 L348.2 310.5 L279.7 242.1 L205.6 242.1 L205.6 132.8 L183.0 110.2 L203.4 130.6 L225.9 130.6 L225.9 250.2 L177.7 298.4 L127.0 349.0 L127.0 371.2 L127.0 380.5 L76.0 431.6 L31.2 476.4 L31.2 481.8 L31.2 528.6 L12.0 547.7 L36.8 572.5 L111.9 572.5 " />
<circle cx="1012.0" cy="12.0" r="8" />
<circle cx="825.0" cy="122.2" r="8" />
<circle cx="694.4" cy="194.1" r="8" />
<circle cx="642.3" cy="226.8" r="8" />
<circle cx="514.2" cy="344.8" r="8" />
<circle cx="348.2" cy="310.5" r="8" />
<circle cx="205.6" cy="242.1" r="8" />
<circle cx="183.0" cy="110.2" r="8" />
<circle cx="225.9" cy="130.6" r="8" />
<circle cx="177.7" cy="298.4" r="8" />
<circle cx="127.0" cy="371.2" r="8" />
<circle cx="76.0" cy="431.6" r="8" />
<circle cx="31.2" cy="481.8" r="8" />
<circle cx="12.0" cy="547.7" r="8" />
<circle cx="111.9" cy="572.5" r="8" />
<style>
circle {
fill: white;
stroke: #525252;
stroke-width: 4;
}
path {
fill: none;
stroke: #525252;
stroke-width: 8;
}</style>
</svg>