<svg width="1024.0" height="584.5" xmlns="http://www.w3.org/2000/svg">
<path d="M111.87733181191382 572.5191254677591 L36.8 572.5 L12.0 547.7 L12.0 500.9 L31.2 481.8 L76.0 436.9 L76.0 431.6 L76.0 422.3 L127.0 371.2 L177.7 320.6 L177.7 298.4 L177.7 270.0 L205.6 242.1 L205.6 132.8 L183.0 110.2 L203.4 130.6 L225.9 130.6 L269.7 174.3 L269.7 280.6 L299.6 310.5 L348.2 310.5 L414.1 376.4 L414.1 384.3 L414.1 406.4 L429.3 421.6 L521.9 421.6 L526.5 417.0 L526.5 357.1 L514.2 344.8 L618.3 240.7 L652.6 240.7 L694.4 198.8 L694.4 194.1 L766.3 122.2 L825.0 122.2 L901.8 122.2 L1012.0 12.0 " />
<circle cx="111.9" cy="572.5" r="8" />
<circle cx="12.0" cy="547.7" r="8" />
<circle cx="31.2" cy="481.8" r="8" />
<circle cx="76.0" cy="431.6" r="8" />
<circle cx="127.0" cy="371.2" r="8" />
<circle cx="177.7" cy="298.4" r="8" />
<circle cx="205.6" cy="242.1" r="8" />
<circle cx="183.0" cy="110.2" r="8" />
<circle cx="225.9" cy="130.6" r="8" />
<circle cx="269.7" cy="280.6" r="8" />
<circle cx="348.2" cy="310.5" r="8" />
<circle cx="414.1" cy="384.3" r="8" />
<circle cx="429.3" cy="421.6" r="8" />
<circle cx="526.5" cy="417.0" r="8" />
<circle cx="514.2" cy="344.8" r="8" />
<circle cx="652.6" cy="240.7" r="8" />
<circle cx="694.4" cy="194.1" r="8" />
<circle cx="825.0" cy="122.2" r="8" />
<circle cx="1012.0" cy="12.0" r="8" />
<style>
circle {
fill: white;
stroke: #525252;
stroke-width: 4;
}
path {
fill: none;
stroke: #525252;
stroke-width: 8;
}</style>
</svg>