<svg width="1024.0" height="392.8" xmlns="http://www.w3.org/2000/svg">
<path d="M12.0 380.8 L12.0 361.7 L23.2 350.5 L29.2 356.5 L74.2 356.5 L100.4 356.5 L102.0 358.1 L108.6 364.7 L135.4 364.7 L163.4 364.7 L169.6 358.5 L190.5 337.6 L222.2 337.6 L245.5 337.6 L248.2 334.8 L272.5 310.5 L305.4 310.5 L341.0 310.5 L346.6 305.0 L365.9 285.7 L419.1 285.7 L419.1 247.6 L482.5 184.3 L455.1 157.0 L455.1 129.4 L456.9 129.4 L471.7 114.6 L481.3 105.0 L481.3 94.8 L481.3 73.9 L493.6 61.6 L505.7 49.4 L697.4 49.4 L813.7 49.4 L828.3 34.9 L851.1 12.0 L1012.0 12.0 " />
<circle cx="12.0" cy="380.8" r="8" />
<circle cx="23.2" cy="350.5" r="8" />
<circle cx="74.2" cy="356.5" r="8" />
<circle cx="102.0" cy="358.1" r="8" />
<circle cx="135.4" cy="364.7" r="8" />
<circle cx="169.6" cy="358.5" r="8" />
<circle cx="222.2" cy="337.6" r="8" />
<circle cx="248.2" cy="334.8" r="8" />
<circle cx="305.4" cy="310.5" r="8" />
<circle cx="346.6" cy="305.0" r="8" />
<circle cx="419.1" cy="285.7" r="8" />
<circle cx="482.5" cy="184.3" r="8" />
<circle cx="455.1" cy="129.4" r="8" />
<circle cx="471.7" cy="114.6" r="8" />
<circle cx="481.3" cy="94.8" r="8" />
<circle cx="493.6" cy="61.6" r="8" />
<circle cx="697.4" cy="49.4" r="8" />
<circle cx="828.3" cy="34.9" r="8" />
<circle cx="1012.0" cy="12.0" r="8" />
<style>
circle {
fill: white;
stroke: black;
stroke-width: 4;
}
path {
fill: none;
stroke: #FFFFFF;
stroke-width: 8;
}</style>
</svg>