<svg width="1024.0" height="156.8" xmlns="http://www.w3.org/2000/svg">
<path d="M1012.0 144.8 L993.3 126.1 L967.5 126.1 L956.0 126.1 L948.7 118.8 L945.2 115.3 L935.9 115.3 L921.3 115.3 L915.9 110.0 L910.3 104.3 L888.7 104.3 L872.3 104.3 L871.6 103.6 L870.9 103.0 L843.3 103.0 L807.0 103.0 L806.1 102.1 L800.8 96.7 L770.2 96.7 L747.9 96.7 L742.9 91.7 L742.0 90.8 L704.3 90.8 L666.1 90.8 L653.7 78.4 L651.5 76.2 L633.2 76.2 L588.6 76.2 L567.9 55.5 L551.3 38.9 L505.5 38.9 L482.8 38.9 L474.9 30.9 L467.0 23.0 L445.3 23.0 L428.5 23.0 L422.4 16.9 L417.5 12.0 L400.8 12.0 L380.6 12.0 L376.0 16.6 L365.4 27.2 L349.3 27.2 L345.3 27.2 L334.0 38.6 L313.9 58.6 L313.9 70.4 L289.4 70.4 L278.2 81.7 L274.1 77.6 L268.7 77.6 L225.3 77.6 L224.4 78.5 L215.8 87.1 L199.3 87.1 L193.6 87.1 L172.2 108.5 L160.7 120.1 L156.3 120.1 L153.0 120.1 L139.9 133.2 L129.1 122.5 L65.1 122.5 L49.8 122.5 L26.9 99.6 L25.7 98.4 L12.0 98.4 " />
<circle cx="1012.0" cy="144.8" r="8" />
<circle cx="967.5" cy="126.1" r="8" />
<circle cx="948.7" cy="118.8" r="8" />
<circle cx="935.9" cy="115.3" r="8" />
<circle cx="915.9" cy="110.0" r="8" />
<circle cx="888.7" cy="104.3" r="8" />
<circle cx="871.6" cy="103.6" r="8" />
<circle cx="843.3" cy="103.0" r="8" />
<circle cx="806.1" cy="102.1" r="8" />
<circle cx="770.2" cy="96.7" r="8" />
<circle cx="742.9" cy="91.7" r="8" />
<circle cx="704.3" cy="90.8" r="8" />
<circle cx="653.7" cy="78.4" r="8" />
<circle cx="633.2" cy="76.2" r="8" />
<circle cx="567.9" cy="55.5" r="8" />
<circle cx="505.5" cy="38.9" r="8" />
<circle cx="474.9" cy="30.9" r="8" />
<circle cx="445.3" cy="23.0" r="8" />
<circle cx="422.4" cy="16.9" r="8" />
<circle cx="400.8" cy="12.0" r="8" />
<circle cx="376.0" cy="16.6" r="8" />
<circle cx="349.3" cy="27.2" r="8" />
<circle cx="334.0" cy="38.6" r="8" />
<circle cx="313.9" cy="70.4" r="8" />
<circle cx="278.2" cy="81.7" r="8" />
<circle cx="268.7" cy="77.6" r="8" />
<circle cx="224.4" cy="78.5" r="8" />
<circle cx="199.3" cy="87.1" r="8" />
<circle cx="172.2" cy="108.5" r="8" />
<circle cx="156.3" cy="120.1" r="8" />
<circle cx="139.9" cy="133.2" r="8" />
<circle cx="65.1" cy="122.5" r="8" />
<circle cx="26.9" cy="99.6" r="8" />
<circle cx="12.0" cy="98.4" r="8" />
<style>
circle {
fill: white;
stroke: #525252;
stroke-width: 4;
}
path {
fill: none;
stroke: #525252;
stroke-width: 8;
}</style>
</svg>