<svg width="1024.0" height="156.7" xmlns="http://www.w3.org/2000/svg">
<path d="M12.0 98.5 L13.2 99.6 L26.9 99.6 L42.2 99.6 L65.1 122.5 L75.8 133.3 L139.9 133.3 L143.3 133.3 L156.4 120.1 L168.0 108.5 L172.3 108.5 L178.0 108.5 L199.4 87.1 L207.9 78.6 L224.1 78.6 L267.8 78.6 L268.8 77.6 L272.9 81.7 L278.3 81.7 L302.8 81.7 L314.1 70.4 L334.2 50.4 L334.2 38.6 L338.1 38.6 L349.5 27.3 L360.1 16.6 L376.2 16.6 L396.4 16.6 L401.0 12.0 L405.9 16.9 L422.6 16.9 L461.1 16.9 L475.1 30.9 L483.1 38.9 L505.7 38.9 L551.6 38.9 L568.2 55.5 L588.9 76.2 L633.6 76.2 L651.8 76.2 L654.1 78.5 L666.4 90.8 L704.7 90.8 L742.4 90.8 L743.3 91.8 L748.3 96.8 L770.6 96.8 L802.5 96.8 L808.3 102.6 L808.7 103.0 L843.8 103.0 L871.4 103.0 L872.1 103.7 L872.8 104.4 L889.2 104.4 L910.8 104.4 L916.4 110.0 L921.8 115.4 L936.5 115.4 L945.8 115.4 L949.2 118.9 L956.5 126.1 L968.1 126.1 L974.5 126.1 L985.8 137.4 L991.1 142.7 L995.0 142.7 L1010.0 142.7 L1012.0 144.7 " />
<circle cx="12.0" cy="98.5" r="8" />
<circle cx="26.9" cy="99.6" r="8" />
<circle cx="65.1" cy="122.5" r="8" />
<circle cx="139.9" cy="133.3" r="8" />
<circle cx="156.4" cy="120.1" r="8" />
<circle cx="172.3" cy="108.5" r="8" />
<circle cx="199.4" cy="87.1" r="8" />
<circle cx="224.1" cy="78.6" r="8" />
<circle cx="268.8" cy="77.6" r="8" />
<circle cx="278.3" cy="81.7" r="8" />
<circle cx="314.1" cy="70.4" r="8" />
<circle cx="334.2" cy="38.6" r="8" />
<circle cx="349.5" cy="27.3" r="8" />
<circle cx="376.2" cy="16.6" r="8" />
<circle cx="401.0" cy="12.0" r="8" />
<circle cx="422.6" cy="16.9" r="8" />
<circle cx="475.1" cy="30.9" r="8" />
<circle cx="505.7" cy="38.9" r="8" />
<circle cx="568.2" cy="55.5" r="8" />
<circle cx="633.6" cy="76.2" r="8" />
<circle cx="654.1" cy="78.5" r="8" />
<circle cx="704.7" cy="90.8" r="8" />
<circle cx="743.3" cy="91.8" r="8" />
<circle cx="770.6" cy="96.8" r="8" />
<circle cx="808.3" cy="102.6" r="8" />
<circle cx="843.8" cy="103.0" r="8" />
<circle cx="872.1" cy="103.7" r="8" />
<circle cx="889.2" cy="104.4" r="8" />
<circle cx="916.4" cy="110.0" r="8" />
<circle cx="936.5" cy="115.4" r="8" />
<circle cx="949.2" cy="118.9" r="8" />
<circle cx="968.1" cy="126.1" r="8" />
<circle cx="985.8" cy="137.4" r="8" />
<circle cx="995.0" cy="142.7" r="8" />
<circle cx="1012.0" cy="144.7" r="8" />
<style>
circle {
fill: white;
stroke: #525252;
stroke-width: 4;
}
path {
fill: none;
stroke: #525252;
stroke-width: 8;
}</style>
</svg>