<svg width="1024.0" height="420.1" xmlns="http://www.w3.org/2000/svg">
<path d="M12.0 403.5 L16.6 408.1 L107.8 408.1 L107.8 334.8 L152.0 290.7 L158.0 284.7 L158.0 232.1 L158.0 201.7 L160.0 199.7 L203.4 156.3 L222.0 156.3 L234.7 156.3 L265.6 125.4 L292.5 152.3 L313.2 152.3 L321.8 152.3 L357.0 187.5 L357.9 188.3 L432.6 188.3 L532.3 188.3 L550.1 170.6 L550.1 182.9 L522.0 210.9 L493.8 239.1 L493.8 244.3 L493.8 247.2 L469.0 272.1 L458.3 282.7 L458.3 308.6 L499.9 308.6 L513.6 322.3 L529.3 306.7 L547.5 306.7 L621.5 306.7 L689.4 238.8 L815.3 112.8 L836.2 112.8 L868.6 112.8 L908.4 73.0 L969.5 12.0 L1012.0 12.0 " />
<circle cx="12.0" cy="403.5" r="8" />
<circle cx="107.8" cy="408.1" r="8" />
<circle cx="152.0" cy="290.7" r="8" />
<circle cx="158.0" cy="232.1" r="8" />
<circle cx="160.0" cy="199.7" r="8" />
<circle cx="222.0" cy="156.3" r="8" />
<circle cx="265.6" cy="125.4" r="8" />
<circle cx="313.2" cy="152.3" r="8" />
<circle cx="357.0" cy="187.5" r="8" />
<circle cx="432.6" cy="188.3" r="8" />
<circle cx="550.1" cy="170.6" r="8" />
<circle cx="522.0" cy="210.9" r="8" />
<circle cx="493.8" cy="244.3" r="8" />
<circle cx="469.0" cy="272.1" r="8" />
<circle cx="458.3" cy="308.6" r="8" />
<circle cx="513.6" cy="322.3" r="8" />
<circle cx="547.5" cy="306.7" r="8" />
<circle cx="689.4" cy="238.8" r="8" />
<circle cx="836.2" cy="112.8" r="8" />
<circle cx="908.4" cy="73.0" r="8" />
<circle cx="1012.0" cy="12.0" r="8" />
<style>
circle {
fill: white;
stroke: #525252;
stroke-width: 4;
}
path {
fill: none;
stroke: #525252;
stroke-width: 8;
}</style>
</svg>