<svg width="1024.0" height="181.6" xmlns="http://www.w3.org/2000/svg">
<path d="M1012.0 99.2 L981.4 68.6 L939.6 68.6 L920.6 68.6 L908.6 56.6 L902.9 50.9 L887.6 50.9 L863.4 50.9 L854.6 42.1 L845.3 32.8 L809.7 32.8 L782.8 32.8 L781.6 31.7 L780.5 30.5 L735.0 30.5 L677.2 30.5 L676.6 29.9 L666.9 20.3 L614.5 20.3 L577.8 20.3 L569.5 12.0 L553.0 28.6 L553.0 32.7 L553.0 45.3 L564.5 56.9 L574.7 67.0 L574.7 78.9 L574.7 98.9 L574.8 99.1 L540.6 99.1 L532.7 91.3 L527.2 85.8 L514.9 85.8 L484.2 85.8 L480.7 82.2 L477.8 79.3 L421.1 79.3 L386.5 79.3 L383.5 76.3 L383.5 76.3 L354.0 76.3 L322.9 76.3 L319.0 72.4 L312.4 65.7 L260.1 65.7 L260.1 70.9 L253.1 77.9 L253.7 78.5 L253.7 89.0 L253.7 108.1 L254.9 109.3 L253.4 110.7 L253.4 152.8 L215.7 152.8 L213.7 150.9 L211.8 149.0 L180.0 149.0 L68.7 149.0 L56.8 160.9 L51.4 166.3 L24.7 166.3 L15.3 166.3 L12.0 169.6 " />
<circle cx="1012.0" cy="99.2" r="8" />
<circle cx="939.6" cy="68.6" r="8" />
<circle cx="908.6" cy="56.6" r="8" />
<circle cx="887.6" cy="50.9" r="8" />
<circle cx="854.6" cy="42.1" r="8" />
<circle cx="809.7" cy="32.8" r="8" />
<circle cx="781.6" cy="31.7" r="8" />
<circle cx="735.0" cy="30.5" r="8" />
<circle cx="676.6" cy="29.9" r="8" />
<circle cx="614.5" cy="20.3" r="8" />
<circle cx="569.5" cy="12.0" r="8" />
<circle cx="553.0" cy="32.7" r="8" />
<circle cx="564.5" cy="56.9" r="8" />
<circle cx="574.7" cy="78.9" r="8" />
<circle cx="574.8" cy="99.1" r="8" />
<circle cx="532.7" cy="91.3" r="8" />
<circle cx="514.9" cy="85.8" r="8" />
<circle cx="480.7" cy="82.2" r="8" />
<circle cx="421.1" cy="79.3" r="8" />
<circle cx="383.5" cy="76.3" r="8" />
<circle cx="354.0" cy="76.3" r="8" />
<circle cx="319.0" cy="72.4" r="8" />
<circle cx="260.1" cy="65.7" r="8" />
<circle cx="253.1" cy="77.9" r="8" />
<circle cx="253.7" cy="89.0" r="8" />
<circle cx="254.9" cy="109.3" r="8" />
<circle cx="253.4" cy="152.8" r="8" />
<circle cx="213.7" cy="150.9" r="8" />
<circle cx="180.0" cy="149.0" r="8" />
<circle cx="56.8" cy="160.9" r="8" />
<circle cx="24.7" cy="166.3" r="8" />
<circle cx="12.0" cy="169.6" r="8" />
<style>
circle {
fill: white;
stroke: #525252;
stroke-width: 4;
}
path {
fill: none;
stroke: #525252;
stroke-width: 8;
}</style>
</svg>