<svg width="1024.0" height="953.2" xmlns="http://www.w3.org/2000/svg">
<path d="M218.62617703611622 12.0 L166.8 63.8 L166.8 65.7 L166.8 121.9 L105.9 182.8 L80.3 208.4 L80.3 226.6 L80.3 250.9 L57.7 273.5 L17.3 313.9 L17.3 356.3 L17.3 408.3 L12.0 413.6 L14.8 413.6 L57.5 456.2 L109.1 507.8 L109.1 509.9 L185.3 509.9 L236.4 561.0 L403.3 727.9 L476.8 727.9 L517.0 727.9 L572.8 783.7 L633.7 844.7 L733.6 844.7 L782.0 844.7 L803.1 865.8 L822.7 885.3 L880.6 885.3 L956.1 885.3 L1012.0 941.2 " />
<circle cx="218.6" cy="12.0" r="8" />
<circle cx="166.8" cy="65.7" r="8" />
<circle cx="105.9" cy="182.8" r="8" />
<circle cx="80.3" cy="226.6" r="8" />
<circle cx="57.7" cy="273.5" r="8" />
<circle cx="17.3" cy="356.3" r="8" />
<circle cx="12.0" cy="413.6" r="8" />
<circle cx="57.5" cy="456.2" r="8" />
<circle cx="109.1" cy="509.9" r="8" />
<circle cx="236.4" cy="561.0" r="8" />
<circle cx="476.8" cy="727.9" r="8" />
<circle cx="572.8" cy="783.7" r="8" />
<circle cx="733.6" cy="844.7" r="8" />
<circle cx="803.1" cy="865.8" r="8" />
<circle cx="880.6" cy="885.3" r="8" />
<circle cx="1012.0" cy="941.2" r="8" />
<style>
circle {
fill: white;
stroke: #525252;
stroke-width: 4;
}
path {
fill: none;
stroke: #525252;
stroke-width: 8;
}</style>
</svg>