<svg width="1024.0" height="956.8" xmlns="http://www.w3.org/2000/svg">
<path d="M221.40400887181897 12.0 L166.8 66.6 L166.8 69.3 L166.8 120.9 L101.7 186.0 L80.3 207.4 L80.3 230.2 L80.3 254.5 L57.7 277.1 L17.3 317.5 L17.3 359.9 L17.3 411.9 L12.0 417.2 L14.8 417.2 L57.5 459.8 L109.1 511.4 L109.1 513.5 L185.3 513.5 L236.4 564.6 L403.3 731.5 L476.8 731.5 L517.0 731.5 L572.8 787.3 L633.7 848.3 L733.6 848.3 L782.0 848.3 L803.1 869.4 L822.7 888.9 L880.6 888.9 L956.1 888.9 L1012.0 944.8 " />
<circle cx="221.4" cy="12.0" r="8" />
<circle cx="166.8" cy="69.3" r="8" />
<circle cx="101.7" cy="186.0" r="8" />
<circle cx="80.3" cy="230.2" r="8" />
<circle cx="57.7" cy="277.1" r="8" />
<circle cx="17.3" cy="359.9" r="8" />
<circle cx="12.0" cy="417.2" r="8" />
<circle cx="57.5" cy="459.8" r="8" />
<circle cx="109.1" cy="513.5" r="8" />
<circle cx="236.4" cy="564.6" r="8" />
<circle cx="476.8" cy="731.5" r="8" />
<circle cx="572.8" cy="787.3" r="8" />
<circle cx="733.6" cy="848.3" r="8" />
<circle cx="803.1" cy="869.4" r="8" />
<circle cx="880.6" cy="888.9" r="8" />
<circle cx="1012.0" cy="944.8" r="8" />
<style>
circle {
fill: white;
stroke: #525252;
stroke-width: 4;
}
path {
fill: none;
stroke: #525252;
stroke-width: 8;
}</style>
</svg>