<svg width="1024.0" height="791.3" xmlns="http://www.w3.org/2000/svg">
<path d="M588.6192101898256 12.0 L493.6 107.0 L427.3 107.0 L376.8 107.0 L314.8 169.0 L286.6 197.2 L269.9 197.2 L261.1 197.2 L159.4 299.0 L125.3 333.0 L73.1 333.0 L73.1 352.1 L86.2 365.2 L97.7 376.7 L97.7 424.7 L153.0 480.0 L195.3 480.0 L240.2 480.0 L303.3 543.1 L256.3 590.1 L226.9 590.1 L183.7 590.1 L102.6 671.1 L89.2 684.6 L12.0 684.6 L106.0 684.6 L143.0 721.6 L233.5 721.6 L236.8 718.3 L241.7 713.5 L347.8 713.5 L477.5 713.5 L483.0 708.0 L485.6 710.6 L485.6 779.3 L589.8 779.3 L609.0 760.1 L738.4 760.1 L740.9 762.5 L784.2 719.1 L784.2 680.0 L784.2 640.7 L755.4 611.9 L750.7 607.2 L586.4 607.2 L672.3 607.2 L774.6 504.9 L931.7 504.9 L956.4 529.5 L1012.0 473.9 L1012.0 383.3 L1012.0 310.3 L1001.7 300.0 L997.0 295.3 L997.0 240.4 L997.0 202.5 L978.9 184.4 " />
<circle cx="588.6" cy="12.0" r="8" />
<circle cx="427.3" cy="107.0" r="8" />
<circle cx="314.8" cy="169.0" r="8" />
<circle cx="269.9" cy="197.2" r="8" />
<circle cx="159.4" cy="299.0" r="8" />
<circle cx="73.1" cy="333.0" r="8" />
<circle cx="86.2" cy="365.2" r="8" />
<circle cx="97.7" cy="424.7" r="8" />
<circle cx="195.3" cy="480.0" r="8" />
<circle cx="303.3" cy="543.1" r="8" />
<circle cx="226.9" cy="590.1" r="8" />
<circle cx="102.6" cy="671.1" r="8" />
<circle cx="12.0" cy="684.6" r="8" />
<circle cx="143.0" cy="721.6" r="8" />
<circle cx="236.8" cy="718.3" r="8" />
<circle cx="347.8" cy="713.5" r="8" />
<circle cx="483.0" cy="708.0" r="8" />
<circle cx="485.6" cy="779.3" r="8" />
<circle cx="609.0" cy="760.1" r="8" />
<circle cx="740.9" cy="762.5" r="8" />
<circle cx="784.2" cy="680.0" r="8" />
<circle cx="755.4" cy="611.9" r="8" />
<circle cx="586.4" cy="607.2" r="8" />
<circle cx="774.6" cy="504.9" r="8" />
<circle cx="956.4" cy="529.5" r="8" />
<circle cx="1012.0" cy="383.3" r="8" />
<circle cx="1001.7" cy="300.0" r="8" />
<circle cx="997.0" cy="240.4" r="8" />
<circle cx="978.9" cy="184.4" r="8" />
<style>
circle {
fill: white;
stroke: #525252;
stroke-width: 4;
}
path {
fill: none;
stroke: #525252;
stroke-width: 8;
}</style>
</svg>