<svg width="1024.0" height="323.2" xmlns="http://www.w3.org/2000/svg">
<path d="M1012.0 311.19005938490795 L1003.2 302.4 L990.7 302.4 L933.0 302.4 L929.4 306.0 L906.3 283.0 L896.1 283.0 L880.4 283.0 L855.7 258.3 L839.6 242.2 L823.8 242.2 L790.5 242.2 L768.2 219.9 L748.9 200.6 L720.2 200.6 L707.3 200.6 L687.9 181.3 L667.8 161.2 L605.5 161.2 L605.5 164.5 L581.4 188.6 L572.5 179.7 L541.7 179.7 L480.2 179.7 L460.4 159.9 L455.3 154.8 L394.8 154.8 L351.2 154.8 L335.6 139.2 L328.8 132.4 L286.3 132.4 L265.1 132.4 L254.0 121.4 L234.2 101.5 L234.2 85.0 L186.9 85.0 L181.3 79.3 L198.3 62.2 L198.3 51.0 L151.3 51.0 L134.6 34.4 L122.2 22.0 L85.9 22.0 L22.0 22.0 L12.0 12.0 " />
<circle cx="1012.0" cy="311.2" r="8" />
<circle cx="990.7" cy="302.4" r="8" />
<circle cx="929.4" cy="306.0" r="8" />
<circle cx="896.1" cy="283.0" r="8" />
<circle cx="855.7" cy="258.3" r="8" />
<circle cx="823.8" cy="242.2" r="8" />
<circle cx="768.2" cy="219.9" r="8" />
<circle cx="720.2" cy="200.6" r="8" />
<circle cx="687.9" cy="181.3" r="8" />
<circle cx="605.5" cy="161.2" r="8" />
<circle cx="581.4" cy="188.6" r="8" />
<circle cx="541.7" cy="179.7" r="8" />
<circle cx="460.4" cy="159.9" r="8" />
<circle cx="394.8" cy="154.8" r="8" />
<circle cx="335.6" cy="139.2" r="8" />
<circle cx="286.3" cy="132.4" r="8" />
<circle cx="254.0" cy="121.4" r="8" />
<circle cx="234.2" cy="85.0" r="8" />
<circle cx="181.3" cy="79.3" r="8" />
<circle cx="198.3" cy="51.0" r="8" />
<circle cx="134.6" cy="34.4" r="8" />
<circle cx="85.9" cy="22.0" r="8" />
<circle cx="12.0" cy="12.0" r="8" />
<style>
circle {
fill: white;
stroke: #FEDB00;
stroke-width: 4;
}
path {
fill: none;
stroke: #FEDB00;
stroke-width: 8;
}</style>
</svg>