<svg width="1024.0" height="405.2" xmlns="http://www.w3.org/2000/svg">
<path d="M12.0 212.66507129668446 L12.0 259.8 L13.0 260.8 L37.1 284.8 L37.9 284.8 L107.7 284.8 L113.0 279.6 L114.6 281.2 L180.8 281.2 L240.4 281.2 L243.5 284.3 L255.0 295.8 L328.4 295.8 L391.9 295.8 L421.3 325.2 L432.7 336.6 L496.3 336.6 L614.2 336.6 L658.3 380.7 L670.8 393.2 L799.6 393.2 L799.6 350.2 L814.7 335.1 L825.8 323.9 L825.8 289.0 L825.8 260.7 L848.8 237.7 L902.7 183.8 L945.8 183.8 L945.8 156.7 L946.9 155.7 L968.5 134.0 L968.5 126.5 L968.5 82.2 L963.1 76.8 L1012.0 27.8 L1012.0 12.0 " />
<circle cx="12.0" cy="212.7" r="8" />
<circle cx="13.0" cy="260.8" r="8" />
<circle cx="37.9" cy="284.8" r="8" />
<circle cx="113.0" cy="279.6" r="8" />
<circle cx="180.8" cy="281.2" r="8" />
<circle cx="243.5" cy="284.3" r="8" />
<circle cx="328.4" cy="295.8" r="8" />
<circle cx="421.3" cy="325.2" r="8" />
<circle cx="496.3" cy="336.6" r="8" />
<circle cx="658.3" cy="380.7" r="8" />
<circle cx="799.6" cy="393.2" r="8" />
<circle cx="814.7" cy="335.1" r="8" />
<circle cx="825.8" cy="289.0" r="8" />
<circle cx="848.8" cy="237.7" r="8" />
<circle cx="945.8" cy="183.8" r="8" />
<circle cx="946.9" cy="155.7" r="8" />
<circle cx="968.5" cy="126.5" r="8" />
<circle cx="963.1" cy="76.8" r="8" />
<circle cx="1012.0" cy="12.0" r="8" />
<style>
circle {
fill: white;
stroke: #525252;
stroke-width: 4;
}
path {
fill: none;
stroke: #525252;
stroke-width: 8;
}</style>
</svg>