<svg width="1024.0" height="405.2" xmlns="http://www.w3.org/2000/svg">
<path d="M1012.0 12.0 L991.3 12.0 L982.1 21.2 L963.1 40.2 L963.1 76.8 L963.1 121.0 L968.5 126.5 L968.5 134.0 L946.9 155.7 L945.8 156.7 L945.8 183.8 L891.9 237.7 L848.8 237.7 L825.8 260.7 L825.8 289.0 L825.8 323.9 L814.7 335.1 L799.6 350.2 L799.6 393.2 L787.1 380.7 L658.3 380.7 L540.4 380.7 L496.3 336.6 L484.9 325.2 L421.3 325.2 L357.8 325.2 L328.4 295.8 L316.9 284.3 L243.5 284.3 L183.9 284.3 L180.8 281.2 L179.2 279.6 L113.0 279.6 L31.8 279.6 L13.0 260.8 L12.0 259.8 L12.0 212.7 " />
<circle cx="1012.0" cy="12.0" r="8" />
<circle cx="982.1" cy="21.2" r="8" />
<circle cx="963.1" cy="76.8" r="8" />
<circle cx="968.5" cy="126.5" r="8" />
<circle cx="946.9" cy="155.7" r="8" />
<circle cx="945.8" cy="183.8" r="8" />
<circle cx="848.8" cy="237.7" r="8" />
<circle cx="825.8" cy="289.0" r="8" />
<circle cx="814.7" cy="335.1" r="8" />
<circle cx="799.6" cy="393.2" r="8" />
<circle cx="658.3" cy="380.7" r="8" />
<circle cx="496.3" cy="336.6" r="8" />
<circle cx="421.3" cy="325.2" r="8" />
<circle cx="328.4" cy="295.8" r="8" />
<circle cx="243.5" cy="284.3" r="8" />
<circle cx="180.8" cy="281.2" r="8" />
<circle cx="113.0" cy="279.6" r="8" />
<circle cx="13.0" cy="260.8" r="8" />
<circle cx="12.0" cy="212.7" r="8" />
<style>
circle {
fill: white;
stroke: #525252;
stroke-width: 4;
}
path {
fill: none;
stroke: #525252;
stroke-width: 8;
}</style>
</svg>