<svg width="1024.0" height="346.7" xmlns="http://www.w3.org/2000/svg">
<path d="M1012.0 149.07603302607544 L999.1 149.1 L993.6 154.6 L969.0 154.6 L952.6 138.1 L944.5 130.0 L910.1 130.0 L891.1 130.0 L875.9 114.7 L848.7 87.6 L842.0 87.6 L838.6 87.6 L812.8 61.7 L788.7 85.8 L765.2 85.8 L748.0 85.8 L730.0 103.8 L719.3 114.5 L678.3 114.5 L660.9 114.5 L651.0 104.6 L622.6 76.1 L560.3 76.1 L530.5 76.1 L517.2 62.9 L494.4 40.0 L442.9 40.0 L430.6 40.0 L413.0 22.4 L402.6 12.0 L274.3 12.0 L262.8 23.5 L262.8 54.5 L297.7 89.4 L326.5 89.4 L385.4 89.4 L404.8 108.7 L425.5 129.5 L450.0 129.5 L521.1 200.6 L521.1 290.0 L512.9 298.2 L490.0 298.2 L217.6 298.2 L217.1 298.7 L214.2 301.5 L101.6 301.5 L55.9 301.5 L53.8 303.6 L46.6 310.8 L12.0 310.8 L12.0 320.7 L26.1 334.7 " />
<circle cx="1012.0" cy="149.1" r="8" />
<circle cx="993.6" cy="154.6" r="8" />
<circle cx="952.6" cy="138.1" r="8" />
<circle cx="910.1" cy="130.0" r="8" />
<circle cx="875.9" cy="114.7" r="8" />
<circle cx="842.0" cy="87.6" r="8" />
<circle cx="812.8" cy="61.7" r="8" />
<circle cx="765.2" cy="85.8" r="8" />
<circle cx="730.0" cy="103.8" r="8" />
<circle cx="678.3" cy="114.5" r="8" />
<circle cx="651.0" cy="104.6" r="8" />
<circle cx="560.3" cy="76.1" r="8" />
<circle cx="517.2" cy="62.9" r="8" />
<circle cx="442.9" cy="40.0" r="8" />
<circle cx="413.0" cy="22.4" r="8" />
<circle cx="274.3" cy="12.0" r="8" />
<circle cx="262.8" cy="54.5" r="8" />
<circle cx="326.5" cy="89.4" r="8" />
<circle cx="404.8" cy="108.7" r="8" />
<circle cx="450.0" cy="129.5" r="8" />
<circle cx="521.1" cy="290.0" r="8" />
<circle cx="490.0" cy="298.2" r="8" />
<circle cx="217.1" cy="298.7" r="8" />
<circle cx="101.6" cy="301.5" r="8" />
<circle cx="53.8" cy="303.6" r="8" />
<circle cx="12.0" cy="310.8" r="8" />
<circle cx="26.1" cy="334.7" r="8" />
<style>
circle {
fill: white;
stroke: #000000;
stroke-width: 4;
}
path {
fill: none;
stroke: #000000;
stroke-width: 8;
}</style>
</svg>