<svg width="1024.0" height="346.7" xmlns="http://www.w3.org/2000/svg">
<path d="M26.07751867263977 334.7396405057954 L12.0 320.7 L12.0 310.8 L19.2 303.6 L53.8 303.6 L99.5 303.6 L101.6 301.5 L104.4 298.7 L217.1 298.7 L327.8 298.7 L386.9 239.5 L402.6 223.8 L402.6 218.3 L402.6 217.0 L432.4 187.2 L438.4 181.2 L438.4 144.1 L438.4 141.1 L450.0 129.5 L425.5 129.5 L404.8 108.7 L385.4 89.4 L326.5 89.4 L297.7 89.4 L262.8 54.5 L262.8 23.5 L274.3 12.0 L402.6 12.0 L413.0 22.4 L430.6 40.0 L442.9 40.0 L494.4 40.0 L517.2 62.9 L530.5 76.1 L560.3 76.1 L622.6 76.1 L651.0 104.6 L660.9 114.5 L678.3 114.5 L719.3 114.5 L730.0 103.8 L748.0 85.8 L765.2 85.8 L788.7 85.8 L812.8 61.7 L816.1 61.7 L842.0 87.6 L869.1 114.7 L875.9 114.7 L894.9 114.7 L910.1 130.0 L918.3 138.1 L952.6 138.1 L1001.0 138.1 L1012.0 149.1 " />
<circle cx="26.1" cy="334.7" r="8" />
<circle cx="12.0" cy="310.8" r="8" />
<circle cx="53.8" cy="303.6" r="8" />
<circle cx="101.6" cy="301.5" r="8" />
<circle cx="217.1" cy="298.7" r="8" />
<circle cx="386.9" cy="239.5" r="8" />
<circle cx="402.6" cy="218.3" r="8" />
<circle cx="432.4" cy="187.2" r="8" />
<circle cx="438.4" cy="144.1" r="8" />
<circle cx="450.0" cy="129.5" r="8" />
<circle cx="404.8" cy="108.7" r="8" />
<circle cx="326.5" cy="89.4" r="8" />
<circle cx="262.8" cy="54.5" r="8" />
<circle cx="274.3" cy="12.0" r="8" />
<circle cx="413.0" cy="22.4" r="8" />
<circle cx="442.9" cy="40.0" r="8" />
<circle cx="517.2" cy="62.9" r="8" />
<circle cx="560.3" cy="76.1" r="8" />
<circle cx="651.0" cy="104.6" r="8" />
<circle cx="678.3" cy="114.5" r="8" />
<circle cx="730.0" cy="103.8" r="8" />
<circle cx="765.2" cy="85.8" r="8" />
<circle cx="812.8" cy="61.7" r="8" />
<circle cx="842.0" cy="87.6" r="8" />
<circle cx="875.9" cy="114.7" r="8" />
<circle cx="910.1" cy="130.0" r="8" />
<circle cx="952.6" cy="138.1" r="8" />
<circle cx="1012.0" cy="149.1" r="8" />
<style>
circle {
fill: white;
stroke: #000000;
stroke-width: 4;
}
path {
fill: none;
stroke: #000000;
stroke-width: 8;
}</style>
</svg>