<svg width="1024.0" height="590.2" xmlns="http://www.w3.org/2000/svg">
<path d="M1012.0 578.1623503313588 L948.1 578.2 L923.5 553.5 L886.3 516.3 L865.0 516.3 L826.8 516.3 L802.8 492.3 L791.3 480.8 L760.7 480.8 L712.2 480.8 L694.5 463.2 L675.9 444.5 L604.5 444.5 L550.4 444.5 L548.1 442.2 L527.1 421.3 L527.1 407.1 L526.1 408.2 L455.9 408.2 L393.6 408.2 L392.7 409.0 L337.3 409.0 L333.2 404.9 L317.4 389.1 L317.4 347.5 L317.4 315.4 L287.6 285.6 L259.3 257.3 L259.3 236.7 L259.3 145.4 L251.9 138.0 L251.9 105.8 L260.1 97.6 L238.7 97.6 L198.8 57.7 L179.0 37.9 L151.5 37.9 L100.0 37.9 L74.1 12.0 L50.7 35.4 L36.7 35.4 L28.3 35.4 L12.0 51.7 " />
<circle cx="1012.0" cy="578.2" r="8" />
<circle cx="923.5" cy="553.5" r="8" />
<circle cx="865.0" cy="516.3" r="8" />
<circle cx="802.8" cy="492.3" r="8" />
<circle cx="760.7" cy="480.8" r="8" />
<circle cx="694.5" cy="463.2" r="8" />
<circle cx="604.5" cy="444.5" r="8" />
<circle cx="548.1" cy="442.2" r="8" />
<circle cx="527.1" cy="407.1" r="8" />
<circle cx="455.9" cy="408.2" r="8" />
<circle cx="392.7" cy="409.0" r="8" />
<circle cx="333.2" cy="404.9" r="8" />
<circle cx="317.4" cy="347.5" r="8" />
<circle cx="287.6" cy="285.6" r="8" />
<circle cx="259.3" cy="236.7" r="8" />
<circle cx="251.9" cy="138.0" r="8" />
<circle cx="260.1" cy="97.6" r="8" />
<circle cx="198.8" cy="57.7" r="8" />
<circle cx="151.5" cy="37.9" r="8" />
<circle cx="74.1" cy="12.0" r="8" />
<circle cx="36.7" cy="35.4" r="8" />
<circle cx="12.0" cy="51.7" r="8" />
<style>
circle {
fill: white;
stroke: #525252;
stroke-width: 4;
}
path {
fill: none;
stroke: #525252;
stroke-width: 8;
}</style>
</svg>