<svg width="1024.0" height="591.5" xmlns="http://www.w3.org/2000/svg">
<path d="M12.0 12.0 L79.5 12.0 L105.4 38.0 L110.3 42.8 L185.1 42.8 L189.0 42.8 L230.7 84.6 L267.5 84.6 L293.0 59.0 L326.9 59.0 L345.5 77.6 L345.5 131.0 L339.5 137.0 L339.5 194.0 L499.2 353.7 L557.3 353.7 L586.6 324.5 L626.1 324.5 L657.4 355.7 L711.4 409.8 L769.4 409.8 L806.4 409.8 L841.0 444.3 L869.4 472.8 L900.1 472.8 L955.4 472.8 L1012.0 529.4 L961.9 579.5 L940.3 579.5 " />
<circle cx="12.0" cy="12.0" r="8" />
<circle cx="105.4" cy="38.0" r="8" />
<circle cx="185.1" cy="42.8" r="8" />
<circle cx="230.7" cy="84.6" r="8" />
<circle cx="293.0" cy="59.0" r="8" />
<circle cx="345.5" cy="77.6" r="8" />
<circle cx="339.5" cy="137.0" r="8" />
<circle cx="499.2" cy="353.7" r="8" />
<circle cx="586.6" cy="324.5" r="8" />
<circle cx="657.4" cy="355.7" r="8" />
<circle cx="769.4" cy="409.8" r="8" />
<circle cx="841.0" cy="444.3" r="8" />
<circle cx="900.1" cy="472.8" r="8" />
<circle cx="1012.0" cy="529.4" r="8" />
<circle cx="940.3" cy="579.5" r="8" />
<style>
circle {
fill: white;
stroke: #525252;
stroke-width: 4;
}
path {
fill: none;
stroke: #525252;
stroke-width: 8;
}</style>
</svg>