<svg width="1024.0" height="695.0" xmlns="http://www.w3.org/2000/svg">
<path d="M1012.0 683.0373841116724 L963.5 683.0 L944.9 664.4 L916.6 636.1 L900.5 636.1 L871.5 636.1 L853.3 617.9 L844.6 609.2 L821.3 609.2 L784.5 609.2 L771.1 595.8 L757.0 581.6 L702.8 581.6 L661.7 581.6 L660.0 579.9 L658.2 578.1 L589.0 578.1 L497.9 578.1 L495.8 576.0 L495.8 552.8 L497.0 551.6 L497.0 520.1 L485.0 508.0 L462.3 485.4 L462.3 461.0 L462.3 445.4 L440.9 423.9 L435.3 418.3 L435.3 349.1 L435.3 324.6 L441.5 318.4 L425.2 318.4 L395.0 288.1 L379.9 273.1 L359.0 273.1 L320.0 273.1 L300.4 253.4 L294.8 247.9 L283.6 247.9 L295.0 236.4 L295.0 221.5 L295.0 214.2 L267.6 186.8 L240.7 159.8 L240.7 153.0 L240.7 145.2 L214.3 118.8 L160.1 64.6 L153.0 64.6 L138.3 64.6 L119.2 45.5 L111.2 37.6 L111.2 19.9 L103.4 12.0 L23.3 12.0 L12.0 23.3 L12.0 28.8 L12.0 48.5 L29.4 65.9 L71.4 107.9 L84.8 107.9 L121.7 144.8 L121.7 148.0 " />
<circle cx="1012.0" cy="683.0" r="8" />
<circle cx="944.9" cy="664.4" r="8" />
<circle cx="900.5" cy="636.1" r="8" />
<circle cx="853.3" cy="617.9" r="8" />
<circle cx="821.3" cy="609.2" r="8" />
<circle cx="771.1" cy="595.8" r="8" />
<circle cx="702.8" cy="581.6" r="8" />
<circle cx="660.0" cy="579.9" r="8" />
<circle cx="589.0" cy="578.1" r="8" />
<circle cx="495.8" cy="576.0" r="8" />
<circle cx="497.0" cy="551.6" r="8" />
<circle cx="485.0" cy="508.0" r="8" />
<circle cx="462.3" cy="461.0" r="8" />
<circle cx="440.9" cy="423.9" r="8" />
<circle cx="435.3" cy="349.1" r="8" />
<circle cx="441.5" cy="318.4" r="8" />
<circle cx="395.0" cy="288.1" r="8" />
<circle cx="359.0" cy="273.1" r="8" />
<circle cx="300.4" cy="253.4" r="8" />
<circle cx="283.6" cy="247.9" r="8" />
<circle cx="295.0" cy="221.5" r="8" />
<circle cx="267.6" cy="186.8" r="8" />
<circle cx="240.7" cy="153.0" r="8" />
<circle cx="214.3" cy="118.8" r="8" />
<circle cx="153.0" cy="64.6" r="8" />
<circle cx="119.2" cy="45.5" r="8" />
<circle cx="111.2" cy="19.9" r="8" />
<circle cx="23.3" cy="12.0" r="8" />
<circle cx="12.0" cy="28.8" r="8" />
<circle cx="29.4" cy="65.9" r="8" />
<circle cx="84.8" cy="107.9" r="8" />
<circle cx="121.7" cy="148.0" r="8" />
<style>
circle {
fill: white;
stroke: #525252;
stroke-width: 4;
}
path {
fill: none;
stroke: #525252;
stroke-width: 8;
}</style>
</svg>