<svg width="1024.0" height="969.8" xmlns="http://www.w3.org/2000/svg">
<path d="M972.6 12.0 L972.2 12.4 L972.2 60.2 L972.2 132.7 L1010.2 170.8 L1009.2 171.8 L1009.2 269.1 L1009.2 344.0 L1012.0 346.8 L1008.1 350.8 L1008.1 448.8 L1008.1 568.5 L936.5 640.1 L925.1 651.5 L925.1 675.8 L918.9 675.8 L905.1 689.6 L893.3 701.4 L779.4 701.4 L712.6 701.4 L687.7 726.3 L678.7 735.3 L649.9 735.3 L590.6 735.3 L565.7 760.2 L551.2 774.7 L497.1 774.7 L422.6 774.7 L392.9 804.4 L376.5 820.8 L336.0 820.8 L320.7 820.8 L285.0 856.6 L259.9 881.7 L238.1 881.7 L199.6 881.7 L178.8 902.5 L157.7 923.5 L120.7 923.5 L87.2 923.5 L67.6 943.1 L53.0 957.8 L12.0 957.8 " />
<circle cx="972.6" cy="12.0" r="8" />
<circle cx="972.2" cy="60.2" r="8" />
<circle cx="1010.2" cy="170.8" r="8" />
<circle cx="1009.2" cy="269.1" r="8" />
<circle cx="1012.0" cy="346.8" r="8" />
<circle cx="1008.1" cy="448.8" r="8" />
<circle cx="936.5" cy="640.1" r="8" />
<circle cx="925.1" cy="675.8" r="8" />
<circle cx="905.1" cy="689.6" r="8" />
<circle cx="779.4" cy="701.4" r="8" />
<circle cx="687.7" cy="726.3" r="8" />
<circle cx="649.9" cy="735.3" r="8" />
<circle cx="565.7" cy="760.2" r="8" />
<circle cx="497.1" cy="774.7" r="8" />
<circle cx="392.9" cy="804.4" r="8" />
<circle cx="336.0" cy="820.8" r="8" />
<circle cx="285.0" cy="856.6" r="8" />
<circle cx="238.1" cy="881.7" r="8" />
<circle cx="178.8" cy="902.5" r="8" />
<circle cx="120.7" cy="923.5" r="8" />
<circle cx="67.6" cy="943.1" r="8" />
<circle cx="12.0" cy="957.8" r="8" />
<style>
circle {
fill: white;
stroke: #A2AAAD;
stroke-width: 4;
}
path {
fill: none;
stroke: #A2AAAD;
stroke-width: 8;
}</style>
</svg>