<svg width="1024.0" height="966.1" xmlns="http://www.w3.org/2000/svg">
<path d="M972.8 12.0 L972.3 12.4 L972.3 60.0 L972.3 132.2 L1010.2 170.1 L1009.2 171.1 L1009.2 268.0 L1009.2 342.7 L1012.0 345.5 L1008.1 349.4 L1008.1 447.0 L1008.1 566.3 L936.8 637.5 L925.4 648.9 L925.4 673.1 L925.4 710.6 L888.5 747.4 L888.5 733.6 L906.4 715.7 L905.5 714.9 L905.5 686.9 L790.3 686.9 L778.1 699.1 L753.4 723.8 L685.3 723.8 L660.4 723.8 L650.7 733.5 L627.0 757.2 L567.5 757.2 L513.6 757.2 L499.2 771.6 L469.6 801.2 L395.4 801.2 L355.1 801.2 L338.7 817.5 L303.2 853.1 L287.9 853.1 L266.2 853.1 L241.2 878.1 L220.5 898.9 L182.1 898.9 L145.2 898.9 L124.3 919.8 L104.8 939.3 L71.4 939.3 L26.7 939.3 L12.0 954.1 " />
<circle cx="972.8" cy="12.0" r="8" />
<circle cx="972.3" cy="60.0" r="8" />
<circle cx="1010.2" cy="170.1" r="8" />
<circle cx="1009.2" cy="268.0" r="8" />
<circle cx="1012.0" cy="345.5" r="8" />
<circle cx="1008.1" cy="447.0" r="8" />
<circle cx="936.8" cy="637.5" r="8" />
<circle cx="925.4" cy="673.1" r="8" />
<circle cx="888.5" cy="747.4" r="8" />
<circle cx="906.4" cy="715.7" r="8" />
<circle cx="905.5" cy="686.9" r="8" />
<circle cx="778.1" cy="699.1" r="8" />
<circle cx="685.3" cy="723.8" r="8" />
<circle cx="650.7" cy="733.5" r="8" />
<circle cx="567.5" cy="757.2" r="8" />
<circle cx="499.2" cy="771.6" r="8" />
<circle cx="395.4" cy="801.2" r="8" />
<circle cx="338.7" cy="817.5" r="8" />
<circle cx="287.9" cy="853.1" r="8" />
<circle cx="241.2" cy="878.1" r="8" />
<circle cx="182.1" cy="898.9" r="8" />
<circle cx="124.3" cy="919.8" r="8" />
<circle cx="71.4" cy="939.3" r="8" />
<circle cx="12.0" cy="954.1" r="8" />
<style>
circle {
fill: white;
stroke: #A2AAAD;
stroke-width: 4;
}
path {
fill: none;
stroke: #A2AAAD;
stroke-width: 8;
}</style>
</svg>