<svg width="1024.0" height="966.1" xmlns="http://www.w3.org/2000/svg">
<path d="M972.8 12.0 L972.3 12.4 L972.3 60.0 L972.3 132.2 L1010.2 170.1 L1009.2 171.1 L1009.2 268.0 L1009.2 342.7 L1012.0 345.5 L1008.1 349.4 L1008.1 447.0 L1008.1 566.3 L936.8 637.5 L925.4 648.9 L925.4 673.1 L919.3 673.1 L905.5 686.9 L895.2 697.2 L778.6 697.2 L711.9 697.2 L685.3 723.8 L675.6 733.5 L650.7 733.5 L591.2 733.5 L567.5 757.2 L553.1 771.6 L499.2 771.6 L425.0 771.6 L395.4 801.2 L379.1 817.5 L338.7 817.5 L323.5 817.5 L287.9 853.1 L262.9 878.1 L241.2 878.1 L202.9 878.1 L182.1 898.9 L161.2 919.8 L124.3 919.8 L91.0 919.8 L71.4 939.3 L56.7 954.1 L12.0 954.1 " />
<circle cx="972.8" cy="12.0" r="8" />
<circle cx="972.3" cy="60.0" r="8" />
<circle cx="1010.2" cy="170.1" r="8" />
<circle cx="1009.2" cy="268.0" r="8" />
<circle cx="1012.0" cy="345.5" r="8" />
<circle cx="1008.1" cy="447.0" r="8" />
<circle cx="936.8" cy="637.5" r="8" />
<circle cx="925.4" cy="673.1" r="8" />
<circle cx="905.5" cy="686.9" r="8" />
<circle cx="778.6" cy="697.2" r="8" />
<circle cx="685.3" cy="723.8" r="8" />
<circle cx="650.7" cy="733.5" r="8" />
<circle cx="567.5" cy="757.2" r="8" />
<circle cx="499.2" cy="771.6" r="8" />
<circle cx="395.4" cy="801.2" r="8" />
<circle cx="338.7" cy="817.5" r="8" />
<circle cx="287.9" cy="853.1" r="8" />
<circle cx="241.2" cy="878.1" r="8" />
<circle cx="182.1" cy="898.9" r="8" />
<circle cx="124.3" cy="919.8" r="8" />
<circle cx="71.4" cy="939.3" r="8" />
<circle cx="12.0" cy="954.1" r="8" />
<style>
circle {
fill: white;
stroke: #A2AAAD;
stroke-width: 4;
}
path {
fill: none;
stroke: #A2AAAD;
stroke-width: 8;
}</style>
</svg>