<svg width="1024.0" height="227.2" xmlns="http://www.w3.org/2000/svg">
<path d="M28.5 105.4 L20.6 97.5 L12.0 97.5 L12.0 82.3 L27.7 66.5 L82.3 12.0 L105.0 12.0 L161.8 12.0 L220.5 70.7 L223.0 73.2 L227.6 73.2 L227.6 46.1 L247.1 26.6 L352.4 131.8 L364.3 131.8 L402.9 131.8 L424.5 153.4 L437.6 166.5 L469.4 166.5 L492.1 166.5 L496.8 171.2 L518.3 192.7 L539.9 192.7 L552.8 192.7 L575.2 215.2 L575.2 207.3 L669.5 113.0 L673.6 108.9 L806.8 108.9 L943.8 108.9 L985.7 67.0 L996.5 77.8 L998.9 77.8 L998.9 74.0 L1012.0 60.9 " />
<circle cx="28.5" cy="105.4" r="8" />
<circle cx="12.0" cy="97.5" r="8" />
<circle cx="27.7" cy="66.5" r="8" />
<circle cx="105.0" cy="12.0" r="8" />
<circle cx="220.5" cy="70.7" r="8" />
<circle cx="227.6" cy="73.2" r="8" />
<circle cx="247.1" cy="26.6" r="8" />
<circle cx="364.3" cy="131.8" r="8" />
<circle cx="424.5" cy="153.4" r="8" />
<circle cx="469.4" cy="166.5" r="8" />
<circle cx="496.8" cy="171.2" r="8" />
<circle cx="539.9" cy="192.7" r="8" />
<circle cx="575.2" cy="215.2" r="8" />
<circle cx="669.5" cy="113.0" r="8" />
<circle cx="806.8" cy="108.9" r="8" />
<circle cx="985.7" cy="67.0" r="8" />
<circle cx="998.9" cy="77.8" r="8" />
<circle cx="1012.0" cy="60.9" r="8" />
<style>
circle {
fill: white;
stroke: black;
stroke-width: 4;
}
path {
fill: none;
stroke: #FFFFFF;
stroke-width: 8;
}</style>
</svg>