<svg width="1024.0" height="964.2" xmlns="http://www.w3.org/2000/svg">
<path d="M1012.0000000000001 952.1503614137066 L1009.6 949.8 L933.0 949.8 L886.9 949.8 L864.9 927.8 L855.1 917.9 L828.0 917.9 L796.1 917.9 L780.2 902.1 L756.4 878.2 L708.8 878.2 L680.6 878.2 L644.4 842.0 L605.0 802.6 L594.1 802.6 L575.4 802.6 L541.4 768.5 L433.2 660.4 L360.1 660.4 L340.4 640.6 L340.4 637.8 L323.5 637.8 L280.6 594.8 L252.9 567.1 L178.6 567.1 L123.0 567.1 L59.7 630.4 L43.3 646.9 L43.3 684.0 L43.3 702.1 L30.5 714.9 L12.0 733.4 L12.0 753.1 L73.6 691.5 L73.6 585.0 L73.6 532.5 L63.7 522.6 L47.1 506.0 L47.1 493.4 L47.1 441.0 L52.0 436.0 L62.3 425.8 L62.3 400.3 L62.3 383.0 L133.3 312.0 L137.3 308.0 L137.3 269.6 L137.3 267.9 L147.6 257.6 L167.1 238.0 L167.1 208.3 L167.1 190.2 L183.9 173.5 L199.7 157.6 L199.7 140.8 L199.7 102.6 L247.9 54.4 L288.4 14.0 L288.4 12.0 " />
<circle cx="1012.0" cy="952.2" r="8" />
<circle cx="933.0" cy="949.8" r="8" />
<circle cx="864.9" cy="927.8" r="8" />
<circle cx="828.0" cy="917.9" r="8" />
<circle cx="780.2" cy="902.1" r="8" />
<circle cx="708.8" cy="878.2" r="8" />
<circle cx="644.4" cy="842.0" r="8" />
<circle cx="594.1" cy="802.6" r="8" />
<circle cx="541.4" cy="768.5" r="8" />
<circle cx="360.1" cy="660.4" r="8" />
<circle cx="340.4" cy="637.8" r="8" />
<circle cx="280.6" cy="594.8" r="8" />
<circle cx="178.6" cy="567.1" r="8" />
<circle cx="59.7" cy="630.4" r="8" />
<circle cx="43.3" cy="684.0" r="8" />
<circle cx="30.5" cy="714.9" r="8" />
<circle cx="12.0" cy="753.1" r="8" />
<circle cx="73.6" cy="585.0" r="8" />
<circle cx="63.7" cy="522.6" r="8" />
<circle cx="47.1" cy="493.4" r="8" />
<circle cx="52.0" cy="436.0" r="8" />
<circle cx="62.3" cy="400.3" r="8" />
<circle cx="133.3" cy="312.0" r="8" />
<circle cx="137.3" cy="269.6" r="8" />
<circle cx="147.6" cy="257.6" r="8" />
<circle cx="167.1" cy="208.3" r="8" />
<circle cx="183.9" cy="173.5" r="8" />
<circle cx="199.7" cy="140.8" r="8" />
<circle cx="247.9" cy="54.4" r="8" />
<circle cx="288.4" cy="12.0" r="8" />
<style>
circle {
fill: white;
stroke: #525252;
stroke-width: 4;
}
path {
fill: none;
stroke: #525252;
stroke-width: 8;
}</style>
</svg>