<svg width="1024.0" height="961.5" xmlns="http://www.w3.org/2000/svg">
<path d="M1012.0000000000001 949.4885588626 L1009.6 947.1 L933.0 947.1 L886.9 947.1 L864.9 925.2 L855.1 915.3 L828.0 915.3 L796.1 915.3 L780.2 899.4 L756.4 875.6 L708.8 875.6 L680.6 875.6 L644.4 839.4 L605.0 799.9 L594.1 799.9 L575.4 799.9 L541.4 765.8 L433.2 657.7 L360.1 657.7 L340.4 638.0 L340.4 635.1 L323.5 635.1 L280.6 592.1 L252.9 564.4 L178.6 564.4 L123.0 564.4 L59.7 627.8 L43.3 644.2 L43.3 681.3 L43.3 699.5 L30.5 712.2 L12.0 730.7 L12.0 750.4 L73.6 688.8 L73.6 582.4 L73.6 529.9 L63.7 519.9 L47.1 503.3 L47.1 490.7 L47.1 438.3 L52.0 433.4 L62.3 423.1 L62.3 397.7 L62.3 380.4 L133.3 309.3 L137.3 305.4 L137.3 266.9 L137.3 265.2 L147.6 254.9 L167.1 235.4 L167.1 205.6 L167.1 187.6 L183.9 170.9 L202.8 151.9 L202.8 138.4 L202.8 96.8 L247.9 51.7 L286.3 13.4 L286.3 12.0 " />
<circle cx="1012.0" cy="949.5" r="8" />
<circle cx="933.0" cy="947.1" r="8" />
<circle cx="864.9" cy="925.2" r="8" />
<circle cx="828.0" cy="915.3" r="8" />
<circle cx="780.2" cy="899.4" r="8" />
<circle cx="708.8" cy="875.6" r="8" />
<circle cx="644.4" cy="839.4" r="8" />
<circle cx="594.1" cy="799.9" r="8" />
<circle cx="541.4" cy="765.8" r="8" />
<circle cx="360.1" cy="657.7" r="8" />
<circle cx="340.4" cy="635.1" r="8" />
<circle cx="280.6" cy="592.1" r="8" />
<circle cx="178.6" cy="564.4" r="8" />
<circle cx="59.7" cy="627.8" r="8" />
<circle cx="43.3" cy="681.3" r="8" />
<circle cx="30.5" cy="712.2" r="8" />
<circle cx="12.0" cy="750.4" r="8" />
<circle cx="73.6" cy="582.4" r="8" />
<circle cx="63.7" cy="519.9" r="8" />
<circle cx="47.1" cy="490.7" r="8" />
<circle cx="52.0" cy="433.4" r="8" />
<circle cx="62.3" cy="397.7" r="8" />
<circle cx="133.3" cy="309.3" r="8" />
<circle cx="137.3" cy="266.9" r="8" />
<circle cx="147.6" cy="254.9" r="8" />
<circle cx="167.1" cy="205.6" r="8" />
<circle cx="183.9" cy="170.9" r="8" />
<circle cx="202.8" cy="138.4" r="8" />
<circle cx="247.9" cy="51.7" r="8" />
<circle cx="286.3" cy="12.0" r="8" />
<style>
circle {
fill: white;
stroke: #525252;
stroke-width: 4;
}
path {
fill: none;
stroke: #525252;
stroke-width: 8;
}</style>
</svg>