<svg width="1024.0" height="961.5" xmlns="http://www.w3.org/2000/svg">
<path d="M286.3017061892811 12.0 L247.9 50.4 L247.9 51.7 L247.9 93.3 L202.8 138.4 L183.9 157.4 L183.9 170.9 L183.9 188.9 L167.1 205.6 L137.3 235.5 L137.3 266.9 L137.3 305.4 L133.3 309.3 L62.3 380.4 L62.3 397.7 L62.3 423.1 L52.0 433.4 L52.0 508.3 L63.7 519.9 L73.6 529.9 L73.6 582.4 L73.6 613.9 L59.7 627.8 L43.3 644.2 L43.3 681.3 L43.3 699.5 L30.5 712.2 L12.0 730.7 L12.0 750.4 L12.0 731.0 L178.6 564.4 L252.9 564.4 L280.6 592.1 L323.5 635.1 L340.4 635.1 L360.1 654.8 L360.1 657.7 L468.2 765.8 L541.4 765.8 L560.0 765.8 L594.1 799.9 L633.5 839.4 L644.4 839.4 L672.6 839.4 L708.8 875.6 L732.6 899.4 L780.2 899.4 L812.1 899.4 L828.0 915.3 L837.8 925.2 L864.9 925.2 L911.0 925.2 L933.0 947.1 L935.3 949.5 L1012.0 949.5 " />
<circle cx="286.3" cy="12.0" r="8" />
<circle cx="247.9" cy="51.7" r="8" />
<circle cx="202.8" cy="138.4" r="8" />
<circle cx="183.9" cy="170.9" r="8" />
<circle cx="167.1" cy="205.6" r="8" />
<circle cx="137.3" cy="266.9" r="8" />
<circle cx="133.3" cy="309.3" r="8" />
<circle cx="62.3" cy="397.7" r="8" />
<circle cx="52.0" cy="433.4" r="8" />
<circle cx="63.7" cy="519.9" r="8" />
<circle cx="73.6" cy="582.4" r="8" />
<circle cx="59.7" cy="627.8" r="8" />
<circle cx="43.3" cy="681.3" r="8" />
<circle cx="30.5" cy="712.2" r="8" />
<circle cx="12.0" cy="750.4" r="8" />
<circle cx="178.6" cy="564.4" r="8" />
<circle cx="280.6" cy="592.1" r="8" />
<circle cx="340.4" cy="635.1" r="8" />
<circle cx="360.1" cy="657.7" r="8" />
<circle cx="541.4" cy="765.8" r="8" />
<circle cx="594.1" cy="799.9" r="8" />
<circle cx="644.4" cy="839.4" r="8" />
<circle cx="708.8" cy="875.6" r="8" />
<circle cx="780.2" cy="899.4" r="8" />
<circle cx="828.0" cy="915.3" r="8" />
<circle cx="864.9" cy="925.2" r="8" />
<circle cx="933.0" cy="947.1" r="8" />
<circle cx="1012.0" cy="949.5" r="8" />
<style>
circle {
fill: white;
stroke: #525252;
stroke-width: 4;
}
path {
fill: none;
stroke: #525252;
stroke-width: 8;
}</style>
</svg>