<svg width="1024.0" height="409.6" xmlns="http://www.w3.org/2000/svg">
<path d="M12.0 296.9 L12.1 296.9 L51.7 296.9 L77.4 296.9 L82.4 301.9 L84.2 303.7 L155.9 303.7 L177.9 303.7 L190.5 316.3 L196.0 321.8 L261.8 321.8 L292.8 321.8 L301.2 330.2 L326.3 355.3 L402.1 355.3 L433.7 355.3 L476.0 397.6 L476.0 384.2 L534.1 326.1 L560.5 299.7 L560.5 292.2 L593.4 292.2 L612.9 272.8 L655.1 230.5 L687.5 230.5 L760.4 230.5 L814.5 176.4 L840.0 150.9 L846.7 150.9 L849.7 150.9 L871.1 129.6 L877.5 123.2 L877.5 106.9 L879.1 106.9 L907.7 78.4 L919.8 66.2 L919.8 64.9 L936.8 64.9 L957.7 44.0 L989.7 12.0 L1012.0 12.0 " />
<circle cx="12.0" cy="296.9" r="8" />
<circle cx="51.7" cy="296.9" r="8" />
<circle cx="82.4" cy="301.9" r="8" />
<circle cx="155.9" cy="303.7" r="8" />
<circle cx="190.5" cy="316.3" r="8" />
<circle cx="261.8" cy="321.8" r="8" />
<circle cx="301.2" cy="330.2" r="8" />
<circle cx="402.1" cy="355.3" r="8" />
<circle cx="476.0" cy="397.6" r="8" />
<circle cx="534.1" cy="326.1" r="8" />
<circle cx="560.5" cy="292.2" r="8" />
<circle cx="612.9" cy="272.8" r="8" />
<circle cx="687.5" cy="230.5" r="8" />
<circle cx="814.5" cy="176.4" r="8" />
<circle cx="846.7" cy="150.9" r="8" />
<circle cx="871.1" cy="129.6" r="8" />
<circle cx="877.5" cy="106.9" r="8" />
<circle cx="907.7" cy="78.4" r="8" />
<circle cx="919.8" cy="64.9" r="8" />
<circle cx="957.7" cy="44.0" r="8" />
<circle cx="1012.0" cy="12.0" r="8" />
<style>
circle {
fill: white;
stroke: #525252;
stroke-width: 4;
}
path {
fill: none;
stroke: #525252;
stroke-width: 8;
}</style>
</svg>