<svg width="1024.0" height="704.3" xmlns="http://www.w3.org/2000/svg">
<path d="M12.0 585.915289864523 L33.3 607.2 L108.7 607.2 L336.9 607.2 L410.5 680.8 L422.0 692.3 L484.7 692.3 L484.7 614.9 L531.0 568.6 L589.3 510.3 L589.3 413.5 L589.3 344.0 L597.2 336.1 L599.9 333.5 L599.9 293.3 L624.5 293.3 L681.9 235.9 L722.7 195.0 L739.5 195.0 L753.9 195.0 L789.4 159.5 L821.3 127.6 L834.2 127.6 L834.2 111.4 L840.8 104.8 L874.5 71.1 L914.4 71.1 L952.9 71.1 L1012.0 12.0 " />
<circle cx="12.0" cy="585.9" r="8" />
<circle cx="108.7" cy="607.2" r="8" />
<circle cx="410.5" cy="680.8" r="8" />
<circle cx="484.7" cy="692.3" r="8" />
<circle cx="531.0" cy="568.6" r="8" />
<circle cx="589.3" cy="413.5" r="8" />
<circle cx="597.2" cy="336.1" r="8" />
<circle cx="599.9" cy="293.3" r="8" />
<circle cx="681.9" cy="235.9" r="8" />
<circle cx="739.5" cy="195.0" r="8" />
<circle cx="789.4" cy="159.5" r="8" />
<circle cx="834.2" cy="127.6" r="8" />
<circle cx="840.8" cy="104.8" r="8" />
<circle cx="914.4" cy="71.1" r="8" />
<circle cx="1012.0" cy="12.0" r="8" />
<style>
circle {
fill: white;
stroke: #525252;
stroke-width: 4;
}
path {
fill: none;
stroke: #525252;
stroke-width: 8;
}</style>
</svg>