<svg width="1024.0" height="704.3" xmlns="http://www.w3.org/2000/svg">
<path d="M12.0 585.915289864523 L87.4 585.9 L108.7 607.2 L182.3 680.8 L410.5 680.8 L473.2 680.8 L484.7 692.3 L531.0 646.1 L531.0 568.6 L531.0 471.8 L589.3 413.5 L597.2 405.6 L597.2 336.1 L597.2 295.9 L599.9 293.3 L657.3 235.9 L681.9 235.9 L698.6 235.9 L739.5 195.0 L774.9 159.5 L789.4 159.5 L802.3 159.5 L834.2 127.6 L840.8 121.0 L840.8 104.8 L874.5 71.1 L914.4 71.1 L952.9 71.1 L1012.0 12.0 " />
<circle cx="12.0" cy="585.9" r="8" />
<circle cx="108.7" cy="607.2" r="8" />
<circle cx="410.5" cy="680.8" r="8" />
<circle cx="484.7" cy="692.3" r="8" />
<circle cx="531.0" cy="568.6" r="8" />
<circle cx="589.3" cy="413.5" r="8" />
<circle cx="597.2" cy="336.1" r="8" />
<circle cx="599.9" cy="293.3" r="8" />
<circle cx="681.9" cy="235.9" r="8" />
<circle cx="739.5" cy="195.0" r="8" />
<circle cx="789.4" cy="159.5" r="8" />
<circle cx="834.2" cy="127.6" r="8" />
<circle cx="840.8" cy="104.8" r="8" />
<circle cx="914.4" cy="71.1" r="8" />
<circle cx="1012.0" cy="12.0" r="8" />
<style>
circle {
fill: white;
stroke: #525252;
stroke-width: 4;
}
path {
fill: none;
stroke: #525252;
stroke-width: 8;
}</style>
</svg>