<svg width="768.1" height="1024.0" xmlns="http://www.w3.org/2000/svg">
<path d="M12.0 1012.0000000000001 L62.1 961.9 L62.1 954.9 L62.1 910.2 L95.4 876.8 L130.3 842.0 L130.3 766.3 L130.3 714.8 L151.4 693.7 L187.7 657.4 L187.7 654.4 L243.3 598.8 L282.7 598.8 L341.6 598.8 L365.8 574.5 L392.5 547.9 L468.5 547.9 L506.4 510.0 L506.4 479.7 L506.4 416.1 L528.8 393.7 L545.3 377.3 L545.3 325.6 L545.3 283.8 L579.2 249.9 L658.9 170.2 L722.6 170.2 L724.1 168.6 L724.1 128.6 L724.1 117.5 L756.1 85.5 L756.1 20.1 L748.0 12.0 " />
<circle cx="12.0" cy="1012.0" r="8" />
<circle cx="62.1" cy="954.9" r="8" />
<circle cx="95.4" cy="876.8" r="8" />
<circle cx="130.3" cy="766.3" r="8" />
<circle cx="151.4" cy="693.7" r="8" />
<circle cx="187.7" cy="654.4" r="8" />
<circle cx="282.7" cy="598.8" r="8" />
<circle cx="365.8" cy="574.5" r="8" />
<circle cx="468.5" cy="547.9" r="8" />
<circle cx="506.4" cy="479.7" r="8" />
<circle cx="528.8" cy="393.7" r="8" />
<circle cx="545.3" cy="325.6" r="8" />
<circle cx="579.2" cy="249.9" r="8" />
<circle cx="722.6" cy="170.2" r="8" />
<circle cx="724.1" cy="128.6" r="8" />
<circle cx="756.1" cy="85.5" r="8" />
<circle cx="748.0" cy="12.0" r="8" />
<style>
circle {
fill: white;
stroke: #000000;
stroke-width: 4;
}
path {
fill: none;
stroke: #000000;
stroke-width: 8;
}</style>
</svg>