<svg width="1024.0" height="523.9" xmlns="http://www.w3.org/2000/svg">
<path d="M1012.0 12.0 L980.0 44.0 L957.7 44.0 L940.7 44.0 L919.8 64.9 L910.3 74.4 L904.7 74.4 L893.4 74.4 L857.5 110.3 L847.7 120.1 L838.5 120.1 L842.9 124.5 L842.9 130.9 L842.9 147.1 L846.7 150.9 L865.4 169.6 L879.6 169.6 L894.7 169.6 L915.9 190.8 L906.1 190.8 L890.2 206.6 L863.0 233.9 L848.4 233.9 L822.4 233.9 L817.9 238.4 L809.3 247.0 L788.1 247.0 L767.2 247.0 L754.2 260.1 L743.8 270.4 L727.6 270.4 L707.1 270.4 L694.5 282.9 L689.5 287.9 L666.7 287.9 L628.0 287.9 L612.9 272.8 L579.9 272.8 L560.5 292.2 L534.1 318.6 L534.1 326.1 L534.1 339.5 L476.0 397.6 L361.6 511.9 L347.7 511.9 L316.7 511.9 L290.2 485.4 L286.5 481.6 L286.5 469.5 L286.5 468.1 L335.7 418.8 L358.0 396.6 L358.0 391.0 L366.4 391.0 L402.1 355.3 L377.0 330.2 L301.2 330.2 L270.1 330.2 L261.8 321.8 L256.2 316.3 L190.5 316.3 L168.5 316.3 L155.9 303.7 L154.6 302.4 L83.3 302.4 L57.1 302.4 L51.7 296.9 L51.6 296.9 L12.0 296.9 L17.0 301.9 L82.4 301.9 L230.1 301.9 L297.7 234.3 L305.5 226.5 L332.1 226.5 " />
<circle cx="1012.0" cy="12.0" r="8" />
<circle cx="957.7" cy="44.0" r="8" />
<circle cx="919.8" cy="64.9" r="8" />
<circle cx="904.7" cy="74.4" r="8" />
<circle cx="857.5" cy="110.3" r="8" />
<circle cx="838.5" cy="120.1" r="8" />
<circle cx="842.9" cy="130.9" r="8" />
<circle cx="846.7" cy="150.9" r="8" />
<circle cx="879.6" cy="169.6" r="8" />
<circle cx="915.9" cy="190.8" r="8" />
<circle cx="890.2" cy="206.6" r="8" />
<circle cx="848.4" cy="233.9" r="8" />
<circle cx="817.9" cy="238.4" r="8" />
<circle cx="788.1" cy="247.0" r="8" />
<circle cx="754.2" cy="260.1" r="8" />
<circle cx="727.6" cy="270.4" r="8" />
<circle cx="694.5" cy="282.9" r="8" />
<circle cx="666.7" cy="287.9" r="8" />
<circle cx="612.9" cy="272.8" r="8" />
<circle cx="560.5" cy="292.2" r="8" />
<circle cx="534.1" cy="326.1" r="8" />
<circle cx="476.0" cy="397.6" r="8" />
<circle cx="347.7" cy="511.9" r="8" />
<circle cx="290.2" cy="485.4" r="8" />
<circle cx="286.5" cy="469.5" r="8" />
<circle cx="335.7" cy="418.8" r="8" />
<circle cx="358.0" cy="391.0" r="8" />
<circle cx="402.1" cy="355.3" r="8" />
<circle cx="301.2" cy="330.2" r="8" />
<circle cx="261.8" cy="321.8" r="8" />
<circle cx="190.5" cy="316.3" r="8" />
<circle cx="155.9" cy="303.7" r="8" />
<circle cx="83.3" cy="302.4" r="8" />
<circle cx="51.7" cy="296.9" r="8" />
<circle cx="12.0" cy="296.9" r="8" />
<circle cx="82.4" cy="301.9" r="8" />
<circle cx="297.7" cy="234.3" r="8" />
<circle cx="332.1" cy="226.5" r="8" />
<style>
circle {
fill: white;
stroke: #000000;
stroke-width: 4;
}
path {
fill: none;
stroke: #000000;
stroke-width: 8;
}</style>
</svg>