<svg width="1024.0" height="763.7" xmlns="http://www.w3.org/2000/svg">
<path d="M721.3278130779023 751.7494704684784 L721.3 712.0 L737.6 695.7 L765.7 667.6 L765.7 665.3 L796.2 665.3 L839.1 622.4 L857.8 603.6 L903.3 603.6 L962.1 603.6 L982.7 583.0 L1012.0 553.7 L1012.0 530.3 L865.0 530.3 L850.7 516.0 L800.3 465.6 L665.7 465.6 L593.1 465.6 L580.0 452.5 L546.5 419.0 L473.9 419.0 L473.9 396.7 L504.9 365.7 L509.3 361.3 L509.3 324.2 L471.1 324.2 L454.3 307.4 L448.0 301.1 L350.2 301.1 L331.8 282.7 L331.8 257.8 L331.8 200.9 L326.8 195.8 L226.1 195.8 L225.8 196.2 L222.4 199.6 L153.6 199.6 L133.7 199.6 L115.9 181.7 L85.9 151.8 L34.8 151.8 L12.0 129.0 L12.0 103.3 L41.9 103.3 L75.8 69.3 L77.2 67.9 L181.6 67.9 L181.6 50.3 L195.3 36.6 L182.1 23.5 L182.1 12.0 " />
<circle cx="721.3" cy="751.7" r="8" />
<circle cx="737.6" cy="695.7" r="8" />
<circle cx="765.7" cy="665.3" r="8" />
<circle cx="839.1" cy="622.4" r="8" />
<circle cx="903.3" cy="603.6" r="8" />
<circle cx="982.7" cy="583.0" r="8" />
<circle cx="1012.0" cy="530.3" r="8" />
<circle cx="850.7" cy="516.0" r="8" />
<circle cx="665.7" cy="465.6" r="8" />
<circle cx="580.0" cy="452.5" r="8" />
<circle cx="473.9" cy="419.0" r="8" />
<circle cx="504.9" cy="365.7" r="8" />
<circle cx="509.3" cy="324.2" r="8" />
<circle cx="454.3" cy="307.4" r="8" />
<circle cx="350.2" cy="301.1" r="8" />
<circle cx="331.8" cy="257.8" r="8" />
<circle cx="326.8" cy="195.8" r="8" />
<circle cx="225.8" cy="196.2" r="8" />
<circle cx="153.6" cy="199.6" r="8" />
<circle cx="115.9" cy="181.7" r="8" />
<circle cx="34.8" cy="151.8" r="8" />
<circle cx="12.0" cy="103.3" r="8" />
<circle cx="75.8" cy="69.3" r="8" />
<circle cx="181.6" cy="67.9" r="8" />
<circle cx="195.3" cy="36.6" r="8" />
<circle cx="182.1" cy="12.0" r="8" />
<style>
circle {
fill: white;
stroke: #525252;
stroke-width: 4;
}
path {
fill: none;
stroke: #525252;
stroke-width: 8;
}</style>
</svg>