<svg width="1024.0" height="763.7" xmlns="http://www.w3.org/2000/svg">
<path d="M182.1359802789937 12.0 L195.3 25.2 L195.3 36.6 L195.3 54.2 L181.6 67.9 L180.2 69.3 L75.8 69.3 L46.0 69.3 L12.0 103.3 L12.0 129.0 L34.8 151.8 L64.7 181.7 L115.9 181.7 L135.8 181.7 L153.6 199.6 L222.4 199.6 L225.8 196.2 L226.1 195.8 L326.8 195.8 L331.8 200.9 L331.8 257.8 L331.8 282.7 L350.2 301.1 L356.6 307.4 L454.3 307.4 L492.5 307.4 L509.3 324.2 L509.3 361.3 L504.9 365.7 L473.9 396.7 L473.9 419.0 L507.4 452.5 L580.0 452.5 L652.6 452.5 L665.7 465.6 L716.0 516.0 L850.7 516.0 L997.7 516.0 L1012.0 530.3 L1012.0 553.7 L982.7 583.0 L962.1 603.6 L903.3 603.6 L857.8 603.6 L839.1 622.4 L796.2 665.3 L765.7 665.3 L737.6 693.3 L737.6 695.7 L737.6 735.5 L721.3 751.7 " />
<circle cx="182.1" cy="12.0" r="8" />
<circle cx="195.3" cy="36.6" r="8" />
<circle cx="181.6" cy="67.9" r="8" />
<circle cx="75.8" cy="69.3" r="8" />
<circle cx="12.0" cy="103.3" r="8" />
<circle cx="34.8" cy="151.8" r="8" />
<circle cx="115.9" cy="181.7" r="8" />
<circle cx="153.6" cy="199.6" r="8" />
<circle cx="225.8" cy="196.2" r="8" />
<circle cx="326.8" cy="195.8" r="8" />
<circle cx="331.8" cy="257.8" r="8" />
<circle cx="350.2" cy="301.1" r="8" />
<circle cx="454.3" cy="307.4" r="8" />
<circle cx="509.3" cy="324.2" r="8" />
<circle cx="504.9" cy="365.7" r="8" />
<circle cx="473.9" cy="419.0" r="8" />
<circle cx="580.0" cy="452.5" r="8" />
<circle cx="665.7" cy="465.6" r="8" />
<circle cx="850.7" cy="516.0" r="8" />
<circle cx="1012.0" cy="530.3" r="8" />
<circle cx="982.7" cy="583.0" r="8" />
<circle cx="903.3" cy="603.6" r="8" />
<circle cx="839.1" cy="622.4" r="8" />
<circle cx="765.7" cy="665.3" r="8" />
<circle cx="737.6" cy="695.7" r="8" />
<circle cx="721.3" cy="751.7" r="8" />
<style>
circle {
fill: white;
stroke: #525252;
stroke-width: 4;
}
path {
fill: none;
stroke: #525252;
stroke-width: 8;
}</style>
</svg>