<svg width="489.7" height="1024.0" xmlns="http://www.w3.org/2000/svg">
<path d="M12.0 1012.0 L79.6 944.4 L183.2 944.4 L249.0 944.4 L274.5 919.0 L291.6 901.9 L291.6 862.9 L291.6 849.3 L327.0 813.8 L329.9 811.0 L329.9 767.9 L402.3 840.4 L477.7 840.4 L436.1 798.8 L436.1 734.4 L436.1 720.1 L383.0 666.9 L329.3 613.2 L329.3 586.6 L245.8 586.6 L198.7 539.4 L249.7 488.3 L249.7 473.4 L170.9 473.4 L147.2 497.2 L108.5 458.5 L105.0 458.5 L201.9 361.6 L330.9 361.6 L330.9 279.9 L360.3 250.6 L359.1 249.4 L359.1 180.0 L359.1 116.9 L464.0 12.0 " />
<circle cx="12.0" cy="1012.0" r="8" />
<circle cx="183.2" cy="944.4" r="8" />
<circle cx="274.5" cy="919.0" r="8" />
<circle cx="291.6" cy="862.9" r="8" />
<circle cx="327.0" cy="813.8" r="8" />
<circle cx="329.9" cy="767.9" r="8" />
<circle cx="477.7" cy="840.4" r="8" />
<circle cx="436.1" cy="734.4" r="8" />
<circle cx="383.0" cy="666.9" r="8" />
<circle cx="329.3" cy="586.6" r="8" />
<circle cx="198.7" cy="539.4" r="8" />
<circle cx="249.7" cy="473.4" r="8" />
<circle cx="147.2" cy="497.2" r="8" />
<circle cx="105.0" cy="458.5" r="8" />
<circle cx="330.9" cy="361.6" r="8" />
<circle cx="360.3" cy="250.6" r="8" />
<circle cx="359.1" cy="180.0" r="8" />
<circle cx="464.0" cy="12.0" r="8" />
<style>
circle {
fill: white;
stroke: black;
stroke-width: 4;
}
path {
fill: none;
stroke: #FFFFFF;
stroke-width: 8;
}</style>
</svg>