<svg width="1024.0" height="505.8" xmlns="http://www.w3.org/2000/svg">
<path d="M885.5211678898285 238.78840887498507 L885.5 288.6 L909.3 312.4 L915.5 318.6 L915.5 390.8 L959.1 390.8 L999.0 430.7 L999.0 338.9 L1012.0 325.9 L978.7 292.5 L905.5 292.5 L750.4 292.5 L666.4 208.5 L653.3 221.6 L653.3 290.7 L653.3 358.1 L687.9 392.7 L680.5 392.7 L621.9 451.3 L579.4 493.8 L569.4 493.8 L480.2 493.8 L477.4 491.0 L444.0 457.6 L444.0 424.5 L444.0 366.4 L450.7 359.7 L489.8 320.6 L489.8 270.4 L312.1 270.4 L300.5 258.9 L284.9 243.3 L206.1 243.3 L36.7 243.3 L12.0 218.5 L78.5 218.5 L160.0 137.0 L285.0 12.0 L372.2 12.0 " />
<circle cx="885.5" cy="238.8" r="8" />
<circle cx="909.3" cy="312.4" r="8" />
<circle cx="915.5" cy="390.8" r="8" />
<circle cx="999.0" cy="430.7" r="8" />
<circle cx="1012.0" cy="325.9" r="8" />
<circle cx="905.5" cy="292.5" r="8" />
<circle cx="666.4" cy="208.5" r="8" />
<circle cx="653.3" cy="290.7" r="8" />
<circle cx="687.9" cy="392.7" r="8" />
<circle cx="621.9" cy="451.3" r="8" />
<circle cx="569.4" cy="493.8" r="8" />
<circle cx="477.4" cy="491.0" r="8" />
<circle cx="444.0" cy="424.5" r="8" />
<circle cx="450.7" cy="359.7" r="8" />
<circle cx="489.8" cy="270.4" r="8" />
<circle cx="300.5" cy="258.9" r="8" />
<circle cx="206.1" cy="243.3" r="8" />
<circle cx="12.0" cy="218.5" r="8" />
<circle cx="160.0" cy="137.0" r="8" />
<circle cx="372.2" cy="12.0" r="8" />
<style>
circle {
fill: white;
stroke: #525252;
stroke-width: 4;
}
path {
fill: none;
stroke: #525252;
stroke-width: 8;
}</style>
</svg>