<svg width="1024.0" height="539.2" xmlns="http://www.w3.org/2000/svg">
<path d="M12.0 527.2349997916657 L40.7 527.2 L69.1 498.8 L69.1 454.7 L38.2 423.9 L38.2 356.8 L93.5 301.5 L93.5 290.8 L15.6 212.9 L15.6 137.7 L62.0 91.3 L114.2 39.0 L114.2 22.1 L290.0 22.1 L290.1 22.3 L420.8 22.3 L425.3 17.8 L431.1 12.0 L543.9 12.0 L582.2 50.3 L582.2 58.6 L654.5 130.9 L688.9 130.9 L823.7 130.9 L852.9 160.1 L937.7 160.1 L1012.0 85.8 " />
<circle cx="12.0" cy="527.2" r="8" />
<circle cx="69.1" cy="498.8" r="8" />
<circle cx="38.2" cy="423.9" r="8" />
<circle cx="93.5" cy="301.5" r="8" />
<circle cx="15.6" cy="212.9" r="8" />
<circle cx="62.0" cy="91.3" r="8" />
<circle cx="114.2" cy="22.1" r="8" />
<circle cx="290.1" cy="22.3" r="8" />
<circle cx="425.3" cy="17.8" r="8" />
<circle cx="543.9" cy="12.0" r="8" />
<circle cx="582.2" cy="58.6" r="8" />
<circle cx="688.9" cy="130.9" r="8" />
<circle cx="852.9" cy="160.1" r="8" />
<circle cx="1012.0" cy="85.8" r="8" />
<style>
circle {
fill: white;
stroke: #525252;
stroke-width: 4;
}
path {
fill: none;
stroke: #525252;
stroke-width: 8;
}</style>
</svg>