<svg width="285.3" height="1024.0" xmlns="http://www.w3.org/2000/svg">
<path d="M136.7573759364666 27.33431521573648 L93.2 27.3 L77.9 12.0 L63.5 26.4 L16.8 26.4 L12.0 31.2 L12.0 58.1 L12.0 85.8 L17.5 91.3 L33.5 107.3 L33.5 125.3 L54.5 146.3 L90.3 146.3 L110.4 166.4 L110.4 198.3 L110.4 214.3 L106.7 218.1 L118.6 230.0 L254.6 230.0 L269.0 244.4 L269.0 271.5 L269.0 299.1 L273.3 303.4 L270.8 300.9 L223.1 300.9 L170.1 300.9 L168.8 299.6 L169.5 300.3 L169.5 328.5 L169.5 356.2 L167.5 358.2 L165.6 360.1 L165.6 382.5 L165.6 432.1 L164.0 433.7 L186.2 455.8 L190.7 455.8 L190.8 455.8 L229.2 494.2 L207.6 515.8 L169.2 515.8 L129.7 515.8 L107.4 538.1 L98.1 547.4 L98.1 567.1 L113.9 583.0 L139.9 583.0 L139.9 594.1 L118.3 615.7 L171.4 668.8 L179.5 668.8 L179.5 700.4 L172.5 707.4 L150.9 729.0 L150.9 741.8 L150.9 745.0 L132.7 763.2 L113.5 782.4 L113.5 784.3 L124.9 795.7 L144.4 795.7 L144.4 804.5 L115.3 833.6 L103.0 845.9 L103.0 860.4 L103.0 862.2 L145.1 904.2 L118.7 930.5 L76.1 930.5 L64.6 930.5 L52.8 942.3 L47.6 947.5 L47.6 984.2 L19.8 1012.0 L19.6 1012.0 " />
<circle cx="136.8" cy="27.3" r="8" />
<circle cx="77.9" cy="12.0" r="8" />
<circle cx="16.8" cy="26.4" r="8" />
<circle cx="12.0" cy="58.1" r="8" />
<circle cx="17.5" cy="91.3" r="8" />
<circle cx="33.5" cy="125.3" r="8" />
<circle cx="90.3" cy="146.3" r="8" />
<circle cx="110.4" cy="198.3" r="8" />
<circle cx="106.7" cy="218.1" r="8" />
<circle cx="254.6" cy="230.0" r="8" />
<circle cx="269.0" cy="271.5" r="8" />
<circle cx="273.3" cy="303.4" r="8" />
<circle cx="223.1" cy="300.9" r="8" />
<circle cx="168.8" cy="299.6" r="8" />
<circle cx="169.5" cy="328.5" r="8" />
<circle cx="167.5" cy="358.2" r="8" />
<circle cx="165.6" cy="382.5" r="8" />
<circle cx="164.0" cy="433.7" r="8" />
<circle cx="190.7" cy="455.8" r="8" />
<circle cx="229.2" cy="494.2" r="8" />
<circle cx="169.2" cy="515.8" r="8" />
<circle cx="107.4" cy="538.1" r="8" />
<circle cx="98.1" cy="567.1" r="8" />
<circle cx="139.9" cy="583.0" r="8" />
<circle cx="118.3" cy="615.7" r="8" />
<circle cx="179.5" cy="668.8" r="8" />
<circle cx="172.5" cy="707.4" r="8" />
<circle cx="150.9" cy="741.8" r="8" />
<circle cx="132.7" cy="763.2" r="8" />
<circle cx="113.5" cy="784.3" r="8" />
<circle cx="144.4" cy="795.7" r="8" />
<circle cx="115.3" cy="833.6" r="8" />
<circle cx="103.0" cy="860.4" r="8" />
<circle cx="145.1" cy="904.2" r="8" />
<circle cx="76.1" cy="930.5" r="8" />
<circle cx="52.8" cy="942.3" r="8" />
<circle cx="47.6" cy="984.2" r="8" />
<circle cx="19.6" cy="1012.0" r="8" />
<style>
circle {
fill: white;
stroke: #000000;
stroke-width: 4;
}
path {
fill: none;
stroke: #000000;
stroke-width: 8;
}</style>
</svg>