<svg width="1024.0" height="521.5" xmlns="http://www.w3.org/2000/svg">
<path d="M1012.0 192.0 L948.8 128.8 L862.6 128.8 L823.3 128.8 L798.7 104.1 L786.8 92.3 L755.3 92.3 L705.4 92.3 L687.2 74.2 L668.0 55.0 L594.6 55.0 L538.9 55.0 L536.5 52.6 L534.1 50.2 L440.3 50.2 L316.7 50.2 L313.8 47.3 L295.5 29.0 L191.6 29.0 L115.9 29.0 L98.8 12.0 L64.6 46.2 L64.6 54.8 L64.6 80.8 L88.4 104.6 L109.4 125.6 L109.4 150.1 L109.4 174.7 L130.6 195.8 L38.8 195.8 L12.0 222.6 L33.7 244.3 L33.7 257.3 L53.6 257.3 L78.7 282.4 L95.6 299.3 L97.9 299.3 L103.3 299.3 L140.6 336.6 L146.1 331.1 L192.9 331.1 L211.9 331.1 L258.6 377.7 L297.6 416.7 L302.5 416.7 L312.7 416.7 L353.7 457.6 L376.7 480.6 L405.3 480.6 L457.1 480.6 L469.4 492.9 L486.0 509.5 L555.7 509.5 " />
<circle cx="1012.0" cy="192.0" r="8" />
<circle cx="862.6" cy="128.8" r="8" />
<circle cx="798.7" cy="104.1" r="8" />
<circle cx="755.3" cy="92.3" r="8" />
<circle cx="687.2" cy="74.2" r="8" />
<circle cx="594.6" cy="55.0" r="8" />
<circle cx="536.5" cy="52.6" r="8" />
<circle cx="440.3" cy="50.2" r="8" />
<circle cx="313.8" cy="47.3" r="8" />
<circle cx="191.6" cy="29.0" r="8" />
<circle cx="98.8" cy="12.0" r="8" />
<circle cx="64.6" cy="54.8" r="8" />
<circle cx="88.4" cy="104.6" r="8" />
<circle cx="109.4" cy="150.1" r="8" />
<circle cx="130.6" cy="195.8" r="8" />
<circle cx="12.0" cy="222.6" r="8" />
<circle cx="33.7" cy="257.3" r="8" />
<circle cx="78.7" cy="282.4" r="8" />
<circle cx="97.9" cy="299.3" r="8" />
<circle cx="140.6" cy="336.6" r="8" />
<circle cx="192.9" cy="331.1" r="8" />
<circle cx="258.6" cy="377.7" r="8" />
<circle cx="302.5" cy="416.7" r="8" />
<circle cx="353.7" cy="457.6" r="8" />
<circle cx="405.3" cy="480.6" r="8" />
<circle cx="469.4" cy="492.9" r="8" />
<circle cx="555.7" cy="509.5" r="8" />
<style>
circle {
fill: white;
stroke: #525252;
stroke-width: 4;
}
path {
fill: none;
stroke: #525252;
stroke-width: 8;
}</style>
</svg>