<svg width="1024.0" height="509.0" xmlns="http://www.w3.org/2000/svg">
<path d="M1012.0 187.4 L950.4 125.9 L866.4 125.9 L828.1 125.9 L804.1 101.8 L792.5 90.3 L761.8 90.3 L713.1 90.3 L695.4 72.6 L676.7 53.9 L605.1 53.9 L550.8 53.9 L548.5 51.5 L546.2 49.2 L454.7 49.2 L338.4 49.2 L337.3 48.1 L317.8 28.6 L212.4 28.6 L138.5 28.6 L121.9 12.0 L88.5 45.4 L88.5 53.7 L88.5 79.0 L111.8 102.3 L132.2 122.7 L132.2 146.6 L132.2 186.9 L132.6 187.3 L63.6 187.3 L47.8 171.5 L36.8 160.4 L12.0 160.4 L14.7 163.1 L14.7 182.4 L14.7 207.4 L58.4 251.1 L82.9 275.6 L102.3 275.6 L104.5 275.6 L121.0 292.1 L157.3 328.4 L162.6 328.4 L208.2 328.4 L213.6 323.0 L259.0 368.5 L277.6 368.5 L282.5 368.5 L320.5 406.5 L360.4 446.4 L370.3 446.4 L398.3 446.4 L420.7 468.8 L432.6 480.8 L483.1 480.8 L551.0 480.8 L567.2 497.0 " />
<circle cx="1012.0" cy="187.4" r="8" />
<circle cx="866.4" cy="125.9" r="8" />
<circle cx="804.1" cy="101.8" r="8" />
<circle cx="761.8" cy="90.3" r="8" />
<circle cx="695.4" cy="72.6" r="8" />
<circle cx="605.1" cy="53.9" r="8" />
<circle cx="548.5" cy="51.5" r="8" />
<circle cx="454.7" cy="49.2" r="8" />
<circle cx="337.3" cy="48.1" r="8" />
<circle cx="212.4" cy="28.6" r="8" />
<circle cx="121.9" cy="12.0" r="8" />
<circle cx="88.5" cy="53.7" r="8" />
<circle cx="111.8" cy="102.3" r="8" />
<circle cx="132.2" cy="146.6" r="8" />
<circle cx="132.6" cy="187.3" r="8" />
<circle cx="47.8" cy="171.5" r="8" />
<circle cx="12.0" cy="160.4" r="8" />
<circle cx="14.7" cy="182.4" r="8" />
<circle cx="58.4" cy="251.1" r="8" />
<circle cx="102.3" cy="275.6" r="8" />
<circle cx="121.0" cy="292.1" r="8" />
<circle cx="162.6" cy="328.4" r="8" />
<circle cx="213.6" cy="323.0" r="8" />
<circle cx="277.6" cy="368.5" r="8" />
<circle cx="320.5" cy="406.5" r="8" />
<circle cx="370.3" cy="446.4" r="8" />
<circle cx="420.7" cy="468.8" r="8" />
<circle cx="483.1" cy="480.8" r="8" />
<circle cx="567.2" cy="497.0" r="8" />
<style>
circle {
fill: white;
stroke: #525252;
stroke-width: 4;
}
path {
fill: none;
stroke: #525252;
stroke-width: 8;
}</style>
</svg>