<svg width="1024.0" height="520.5" xmlns="http://www.w3.org/2000/svg">
<path d="M1012.0 192.1 L948.5 128.6 L861.0 128.6 L821.8 128.6 L797.2 104.0 L785.4 92.2 L753.8 92.2 L704.0 92.2 L685.9 74.0 L666.8 54.9 L593.5 54.9 L537.9 54.9 L535.5 52.5 L533.1 50.1 L439.5 50.1 L316.1 50.1 L313.2 47.2 L295.0 29.0 L191.3 29.0 L115.7 29.0 L98.7 12.0 L64.5 46.2 L64.5 54.7 L64.5 80.6 L88.3 104.5 L109.2 125.4 L109.2 149.9 L109.2 174.4 L130.3 195.5 L38.7 195.5 L12.0 222.2 L33.6 243.8 L33.6 256.8 L53.5 256.8 L78.6 281.9 L95.4 298.8 L97.7 298.8 L103.1 298.8 L140.3 336.0 L145.8 330.5 L192.5 330.5 L211.6 330.5 L258.1 377.0 L297.0 415.9 L302.0 415.9 L312.2 415.9 L353.0 456.8 L376.0 479.7 L404.6 479.7 L456.3 479.7 L468.5 492.0 L485.0 508.5 L558.0 508.5 " />
<circle cx="1012.0" cy="192.1" r="8" />
<circle cx="861.0" cy="128.6" r="8" />
<circle cx="797.2" cy="104.0" r="8" />
<circle cx="753.8" cy="92.2" r="8" />
<circle cx="685.9" cy="74.0" r="8" />
<circle cx="593.5" cy="54.9" r="8" />
<circle cx="535.5" cy="52.5" r="8" />
<circle cx="439.5" cy="50.1" r="8" />
<circle cx="313.2" cy="47.2" r="8" />
<circle cx="191.3" cy="29.0" r="8" />
<circle cx="98.7" cy="12.0" r="8" />
<circle cx="64.5" cy="54.7" r="8" />
<circle cx="88.3" cy="104.5" r="8" />
<circle cx="109.2" cy="149.9" r="8" />
<circle cx="130.3" cy="195.5" r="8" />
<circle cx="12.0" cy="222.2" r="8" />
<circle cx="33.6" cy="256.8" r="8" />
<circle cx="78.6" cy="281.9" r="8" />
<circle cx="97.7" cy="298.8" r="8" />
<circle cx="140.3" cy="336.0" r="8" />
<circle cx="192.5" cy="330.5" r="8" />
<circle cx="258.1" cy="377.0" r="8" />
<circle cx="302.0" cy="415.9" r="8" />
<circle cx="353.0" cy="456.8" r="8" />
<circle cx="404.6" cy="479.7" r="8" />
<circle cx="468.5" cy="492.0" r="8" />
<circle cx="558.0" cy="508.5" r="8" />
<style>
circle {
fill: white;
stroke: #525252;
stroke-width: 4;
}
path {
fill: none;
stroke: #525252;
stroke-width: 8;
}</style>
</svg>