<svg width="1024.0" height="377.4" xmlns="http://www.w3.org/2000/svg">
<path d="M12.0 212.6 L12.0 227.2 L37.3 252.5 L69.1 284.3 L105.1 284.3 L112.0 284.3 L154.3 326.7 L155.7 325.3 L215.0 325.3 L274.2 325.3 L283.4 316.2 L315.6 284.0 L318.6 284.0 L332.5 284.0 L361.5 255.0 L369.0 262.5 L426.9 262.5 L457.0 262.5 L472.7 278.2 L509.2 314.7 L509.2 332.0 L515.5 332.0 L548.9 365.4 L626.5 287.7 L637.7 287.7 L657.6 287.7 L696.7 248.7 L734.0 211.3 L734.0 177.3 L734.0 157.2 L753.6 137.7 L778.8 112.5 L783.3 112.5 L783.3 100.3 L800.3 83.2 L815.0 68.6 L847.7 68.6 L952.0 68.6 L991.1 107.7 L991.1 86.3 L1007.7 69.8 L1012.0 65.5 L1012.0 12.0 " />
<circle cx="12.0" cy="212.6" r="8" />
<circle cx="37.3" cy="252.5" r="8" />
<circle cx="105.1" cy="284.3" r="8" />
<circle cx="154.3" cy="326.7" r="8" />
<circle cx="215.0" cy="325.3" r="8" />
<circle cx="283.4" cy="316.2" r="8" />
<circle cx="318.6" cy="284.0" r="8" />
<circle cx="361.5" cy="255.0" r="8" />
<circle cx="426.9" cy="262.5" r="8" />
<circle cx="472.7" cy="278.2" r="8" />
<circle cx="509.2" cy="332.0" r="8" />
<circle cx="548.9" cy="365.4" r="8" />
<circle cx="637.7" cy="287.7" r="8" />
<circle cx="696.7" cy="248.7" r="8" />
<circle cx="734.0" cy="177.3" r="8" />
<circle cx="753.6" cy="137.7" r="8" />
<circle cx="783.3" cy="112.5" r="8" />
<circle cx="800.3" cy="83.2" r="8" />
<circle cx="847.7" cy="68.6" r="8" />
<circle cx="991.1" cy="107.7" r="8" />
<circle cx="1007.7" cy="69.8" r="8" />
<circle cx="1012.0" cy="12.0" r="8" />
<style>
circle {
fill: white;
stroke: #525252;
stroke-width: 4;
}
path {
fill: none;
stroke: #525252;
stroke-width: 8;
}</style>
</svg>