<svg width="1024.0" height="537.7" xmlns="http://www.w3.org/2000/svg">
<path d="M1012.0 16.1 L1007.9 12.0 L946.1 12.0 L914.5 12.0 L861.6 64.8 L823.7 102.7 L789.4 102.7 L789.4 112.5 L762.3 139.5 L687.9 213.9 L613.7 213.9 L562.5 213.9 L539.8 236.7 L479.1 297.4 L457.2 297.4 L451.3 297.4 L410.5 338.1 L389.1 359.5 L389.1 361.0 L389.1 397.2 L370.1 416.1 L298.0 488.3 L246.5 488.3 L197.2 488.3 L169.0 516.5 L159.7 525.7 L112.6 525.7 L112.6 519.5 L130.4 501.8 L125.9 497.3 L125.9 461.1 L125.9 448.1 L166.0 408.0 L144.6 386.6 L81.7 386.6 L75.5 386.6 L36.0 347.0 L12.0 323.0 L12.0 308.1 " />
<circle cx="1012.0" cy="16.1" r="8" />
<circle cx="946.1" cy="12.0" r="8" />
<circle cx="861.6" cy="64.8" r="8" />
<circle cx="789.4" cy="102.7" r="8" />
<circle cx="762.3" cy="139.5" r="8" />
<circle cx="613.7" cy="213.9" r="8" />
<circle cx="539.8" cy="236.7" r="8" />
<circle cx="457.2" cy="297.4" r="8" />
<circle cx="410.5" cy="338.1" r="8" />
<circle cx="389.1" cy="361.0" r="8" />
<circle cx="370.1" cy="416.1" r="8" />
<circle cx="246.5" cy="488.3" r="8" />
<circle cx="169.0" cy="516.5" r="8" />
<circle cx="112.6" cy="525.7" r="8" />
<circle cx="130.4" cy="501.8" r="8" />
<circle cx="125.9" cy="461.1" r="8" />
<circle cx="166.0" cy="408.0" r="8" />
<circle cx="81.7" cy="386.6" r="8" />
<circle cx="36.0" cy="347.0" r="8" />
<circle cx="12.0" cy="308.1" r="8" />
<style>
circle {
fill: white;
stroke: #525252;
stroke-width: 4;
}
path {
fill: none;
stroke: #525252;
stroke-width: 8;
}</style>
</svg>