<svg width="1024.0" height="884.6" xmlns="http://www.w3.org/2000/svg">
<path d="M143.06696862077234 12.0 L162.3 12.0 L165.7 15.5 L195.1 44.9 L195.1 76.8 L195.1 101.1 L137.3 159.0 L107.2 189.1 L107.2 202.2 L107.2 209.0 L83.2 232.9 L82.1 232.9 L67.0 217.8 L47.5 198.3 L47.5 198.2 L47.5 198.0 L12.0 162.5 L81.9 232.3 L81.9 241.3 L89.3 248.7 L164.6 248.7 L172.0 256.1 L172.0 272.8 L190.0 290.8 L203.8 290.8 L210.5 290.8 L261.5 341.8 L286.3 366.6 L286.3 374.0 L286.3 380.3 L311.7 405.7 L337.5 431.5 L337.5 438.3 L337.5 452.4 L326.7 463.2 L331.9 468.4 L342.5 468.4 L358.5 468.4 L362.7 472.6 L377.0 486.9 L397.7 486.9 L417.4 486.9 L431.5 501.0 L460.0 529.5 L475.3 529.5 L475.3 552.5 L469.4 558.4 L469.4 623.5 L474.7 628.8 L494.9 649.0 L494.9 663.7 L494.9 686.7 L516.2 707.9 L527.5 719.2 L527.5 748.9 L527.5 770.7 L526.3 771.9 L528.4 773.9 L614.1 773.9 L679.2 773.9 L680.8 775.5 L682.5 777.2 L721.1 777.2 L772.1 777.2 L785.4 790.5 L798.0 803.1 L832.6 803.1 L854.5 803.1 L862.7 811.3 L879.8 828.4 L907.1 828.4 L967.8 828.4 L1012.0 872.6 " />
<circle cx="143.1" cy="12.0" r="8" />
<circle cx="165.7" cy="15.5" r="8" />
<circle cx="195.1" cy="76.8" r="8" />
<circle cx="137.3" cy="159.0" r="8" />
<circle cx="107.2" cy="202.2" r="8" />
<circle cx="83.2" cy="232.9" r="8" />
<circle cx="67.0" cy="217.8" r="8" />
<circle cx="47.5" cy="198.2" r="8" />
<circle cx="12.0" cy="162.5" r="8" />
<circle cx="81.9" cy="241.3" r="8" />
<circle cx="164.6" cy="248.7" r="8" />
<circle cx="172.0" cy="272.8" r="8" />
<circle cx="203.8" cy="290.8" r="8" />
<circle cx="261.5" cy="341.8" r="8" />
<circle cx="286.3" cy="374.0" r="8" />
<circle cx="311.7" cy="405.7" r="8" />
<circle cx="337.5" cy="438.3" r="8" />
<circle cx="326.7" cy="463.2" r="8" />
<circle cx="342.5" cy="468.4" r="8" />
<circle cx="362.7" cy="472.6" r="8" />
<circle cx="397.7" cy="486.9" r="8" />
<circle cx="431.5" cy="501.0" r="8" />
<circle cx="475.3" cy="529.5" r="8" />
<circle cx="469.4" cy="558.4" r="8" />
<circle cx="474.7" cy="628.8" r="8" />
<circle cx="494.9" cy="663.7" r="8" />
<circle cx="516.2" cy="707.9" r="8" />
<circle cx="527.5" cy="748.9" r="8" />
<circle cx="526.3" cy="771.9" r="8" />
<circle cx="614.1" cy="773.9" r="8" />
<circle cx="680.8" cy="775.5" r="8" />
<circle cx="721.1" cy="777.2" r="8" />
<circle cx="785.4" cy="790.5" r="8" />
<circle cx="832.6" cy="803.1" r="8" />
<circle cx="862.7" cy="811.3" r="8" />
<circle cx="907.1" cy="828.4" r="8" />
<circle cx="1012.0" cy="872.6" r="8" />
<style>
circle {
fill: white;
stroke: #525252;
stroke-width: 4;
}
path {
fill: none;
stroke: #525252;
stroke-width: 8;
}</style>
</svg>