<svg width="807.3" height="1024.0" xmlns="http://www.w3.org/2000/svg">
<path d="M448.4 1012.0 L471.0 989.4 L482.1 989.4 L482.1 988.1 L513.3 956.8 L540.3 929.8 L587.9 929.8 L619.5 929.8 L638.1 911.2 L671.6 877.6 L679.7 877.6 L721.8 877.6 L755.1 844.3 L791.8 807.5 L795.3 807.5 L758.3 770.6 L711.2 770.6 L670.3 770.6 L642.9 743.2 L615.3 715.6 L597.0 715.6 L508.4 715.6 L479.9 687.0 L462.8 670.0 L433.0 670.0 L371.9 670.0 L348.8 646.9 L328.4 626.5 L290.8 626.5 L250.1 626.5 L234.1 610.5 L218.8 595.2 L191.5 595.2 L152.0 595.2 L137.9 581.1 L121.5 564.7 L73.7 564.7 L28.6 564.7 L12.0 548.1 L36.1 524.0 L36.1 513.0 L44.2 513.0 L65.8 491.4 L127.7 429.5 L127.7 421.1 L128.0 421.1 L166.5 382.6 L187.1 362.0 L225.8 362.0 L309.9 362.0 L311.1 360.8 L324.7 374.5 L385.2 374.5 L386.7 374.5 L412.0 349.1 L401.4 338.5 L401.4 293.0 L401.4 256.6 L413.5 244.4 L407.7 238.7 L407.7 194.0 L407.7 146.4 L389.5 128.2 L378.1 116.8 L378.1 99.8 L378.1 66.1 L387.1 57.2 L383.5 53.6 L383.5 12.0 " />
<circle cx="448.4" cy="1012.0" r="8" />
<circle cx="482.1" cy="989.4" r="8" />
<circle cx="513.3" cy="956.8" r="8" />
<circle cx="587.9" cy="929.8" r="8" />
<circle cx="638.1" cy="911.2" r="8" />
<circle cx="679.7" cy="877.6" r="8" />
<circle cx="755.1" cy="844.3" r="8" />
<circle cx="795.3" cy="807.5" r="8" />
<circle cx="711.2" cy="770.6" r="8" />
<circle cx="642.9" cy="743.2" r="8" />
<circle cx="597.0" cy="715.6" r="8" />
<circle cx="479.9" cy="687.0" r="8" />
<circle cx="433.0" cy="670.0" r="8" />
<circle cx="348.8" cy="646.9" r="8" />
<circle cx="290.8" cy="626.5" r="8" />
<circle cx="234.1" cy="610.5" r="8" />
<circle cx="191.5" cy="595.2" r="8" />
<circle cx="137.9" cy="581.1" r="8" />
<circle cx="73.7" cy="564.7" r="8" />
<circle cx="12.0" cy="548.1" r="8" />
<circle cx="36.1" cy="513.0" r="8" />
<circle cx="65.8" cy="491.4" r="8" />
<circle cx="127.7" cy="421.1" r="8" />
<circle cx="166.5" cy="382.6" r="8" />
<circle cx="225.8" cy="362.0" r="8" />
<circle cx="311.1" cy="360.8" r="8" />
<circle cx="385.2" cy="374.5" r="8" />
<circle cx="412.0" cy="349.1" r="8" />
<circle cx="401.4" cy="293.0" r="8" />
<circle cx="413.5" cy="244.4" r="8" />
<circle cx="407.7" cy="194.0" r="8" />
<circle cx="389.5" cy="128.2" r="8" />
<circle cx="378.1" cy="99.8" r="8" />
<circle cx="387.1" cy="57.2" r="8" />
<circle cx="383.5" cy="12.0" r="8" />
<style>
circle {
fill: white;
stroke: #8E364C;
stroke-width: 4;
}
path {
fill: none;
stroke: #8E364C;
stroke-width: 8;
}</style>
</svg>