<svg width="1024.0" height="611.2" xmlns="http://www.w3.org/2000/svg">
<path d="M579.3 599.2 L607.9 570.6 L621.9 570.6 L621.9 568.9 L661.4 529.4 L694.6 496.3 L750.4 496.3 L796.2 496.3 L822.9 469.5 L862.3 430.2 L870.9 430.2 L924.3 430.2 L967.6 386.9 L1012.0 342.5 L1012.0 333.7 L952.1 333.7 L912.0 293.6 L877.3 258.9 L825.5 258.9 L802.3 258.9 L767.4 224.0 L731.2 187.8 L619.1 187.8 L581.4 187.8 L559.8 166.2 L530.6 137.0 L453.2 137.0 L405.6 137.0 L379.8 111.2 L359.6 91.0 L308.1 91.0 L273.5 91.0 L254.1 71.6 L236.2 53.7 L186.2 53.7 L119.1 53.7 L96.5 31.1 L77.4 12.0 L26.9 12.0 L26.9 43.6 L12.0 58.4 L91.5 58.4 L94.1 55.8 L115.2 76.9 L189.4 76.9 " />
<circle cx="579.3" cy="599.2" r="8" />
<circle cx="621.9" cy="570.6" r="8" />
<circle cx="661.4" cy="529.4" r="8" />
<circle cx="750.4" cy="496.3" r="8" />
<circle cx="822.9" cy="469.5" r="8" />
<circle cx="870.9" cy="430.2" r="8" />
<circle cx="967.6" cy="386.9" r="8" />
<circle cx="1012.0" cy="333.7" r="8" />
<circle cx="912.0" cy="293.6" r="8" />
<circle cx="825.5" cy="258.9" r="8" />
<circle cx="767.4" cy="224.0" r="8" />
<circle cx="619.1" cy="187.8" r="8" />
<circle cx="559.8" cy="166.2" r="8" />
<circle cx="453.2" cy="137.0" r="8" />
<circle cx="379.8" cy="111.2" r="8" />
<circle cx="308.1" cy="91.0" r="8" />
<circle cx="254.1" cy="71.6" r="8" />
<circle cx="186.2" cy="53.7" r="8" />
<circle cx="96.5" cy="31.1" r="8" />
<circle cx="26.9" cy="12.0" r="8" />
<circle cx="12.0" cy="58.4" r="8" />
<circle cx="94.1" cy="55.8" r="8" />
<circle cx="189.4" cy="76.9" r="8" />
<style>
circle {
fill: white;
stroke: #8E364C;
stroke-width: 4;
}
path {
fill: none;
stroke: #8E364C;
stroke-width: 8;
}</style>
</svg>