<svg width="802.2" height="1024.0" xmlns="http://www.w3.org/2000/svg">
<path d="M448.4 1012.0 L471.0 989.4 L482.1 989.4 L482.1 988.1 L513.3 956.8 L539.4 930.7 L583.5 930.7 L619.7 930.7 L640.8 909.6 L671.9 878.5 L678.7 878.5 L720.9 878.5 L755.1 844.3 L790.2 809.2 L790.2 802.3 L742.9 802.3 L711.2 770.6 L683.8 743.2 L642.9 743.2 L624.5 743.2 L597.0 715.6 L568.4 687.0 L479.9 687.0 L450.1 687.0 L433.0 670.0 L409.9 646.9 L348.8 646.9 L311.2 646.9 L290.8 626.5 L274.8 610.5 L234.1 610.5 L206.8 610.5 L191.5 595.2 L177.4 581.1 L137.9 581.1 L84.8 581.1 L67.0 563.3 L51.9 548.1 L12.0 548.1 L12.0 537.1 L36.1 513.0 L57.7 491.4 L65.8 491.4 L65.8 483.0 L127.7 421.1 L166.2 382.6 L166.5 382.6 L205.2 382.6 L225.8 362.0 L227.0 360.8 L311.1 360.8 L371.6 360.8 L385.2 374.5 L410.6 349.1 L412.0 349.1 L401.4 338.5 L401.4 293.0 L401.4 256.6 L413.5 244.4 L407.7 238.7 L407.7 194.0 L407.7 146.4 L389.5 128.2 L378.1 116.8 L378.1 99.8 L378.1 66.1 L387.1 57.2 L383.5 53.6 L383.5 12.0 " />
<circle cx="448.4" cy="1012.0" r="8" />
<circle cx="482.1" cy="989.4" r="8" />
<circle cx="513.3" cy="956.8" r="8" />
<circle cx="583.5" cy="930.7" r="8" />
<circle cx="640.8" cy="909.6" r="8" />
<circle cx="678.7" cy="878.5" r="8" />
<circle cx="755.1" cy="844.3" r="8" />
<circle cx="790.2" cy="802.3" r="8" />
<circle cx="711.2" cy="770.6" r="8" />
<circle cx="642.9" cy="743.2" r="8" />
<circle cx="597.0" cy="715.6" r="8" />
<circle cx="479.9" cy="687.0" r="8" />
<circle cx="433.0" cy="670.0" r="8" />
<circle cx="348.8" cy="646.9" r="8" />
<circle cx="290.8" cy="626.5" r="8" />
<circle cx="234.1" cy="610.5" r="8" />
<circle cx="191.5" cy="595.2" r="8" />
<circle cx="137.9" cy="581.1" r="8" />
<circle cx="67.0" cy="563.3" r="8" />
<circle cx="12.0" cy="548.1" r="8" />
<circle cx="36.1" cy="513.0" r="8" />
<circle cx="65.8" cy="491.4" r="8" />
<circle cx="127.7" cy="421.1" r="8" />
<circle cx="166.5" cy="382.6" r="8" />
<circle cx="225.8" cy="362.0" r="8" />
<circle cx="311.1" cy="360.8" r="8" />
<circle cx="385.2" cy="374.5" r="8" />
<circle cx="412.0" cy="349.1" r="8" />
<circle cx="401.4" cy="293.0" r="8" />
<circle cx="413.5" cy="244.4" r="8" />
<circle cx="407.7" cy="194.0" r="8" />
<circle cx="389.5" cy="128.2" r="8" />
<circle cx="378.1" cy="99.8" r="8" />
<circle cx="387.1" cy="57.2" r="8" />
<circle cx="383.5" cy="12.0" r="8" />
<style>
circle {
fill: white;
stroke: #8E364C;
stroke-width: 4;
}
path {
fill: none;
stroke: #8E364C;
stroke-width: 8;
}</style>
</svg>