<svg width="1024.0" height="590.7" xmlns="http://www.w3.org/2000/svg">
<path d="M1012.0 578.7 L987.8 554.6 L925.2 554.6 L903.9 554.6 L866.6 517.2 L842.6 493.2 L804.3 493.2 L773.6 493.2 L762.1 481.7 L744.4 464.0 L695.8 464.0 L624.3 464.0 L605.6 445.3 L603.3 443.0 L549.1 443.0 L528.1 422.0 L528.1 407.9 L457.8 407.9 L456.8 408.9 L455.9 409.8 L393.5 409.8 L338.0 409.8 L333.8 405.6 L318.0 389.8 L318.0 348.2 L318.0 315.9 L288.1 286.1 L259.7 257.7 L259.7 237.1 L259.7 145.7 L252.3 138.3 L260.6 130.0 L260.6 97.7 L239.1 97.7 L199.2 57.8 L179.3 37.9 L151.7 37.9 L100.2 37.9 L74.2 12.0 L60.2 12.0 L36.8 35.4 L20.4 51.8 L12.0 51.8 " />
<circle cx="1012.0" cy="578.7" r="8" />
<circle cx="925.2" cy="554.6" r="8" />
<circle cx="866.6" cy="517.2" r="8" />
<circle cx="804.3" cy="493.2" r="8" />
<circle cx="762.1" cy="481.7" r="8" />
<circle cx="695.8" cy="464.0" r="8" />
<circle cx="605.6" cy="445.3" r="8" />
<circle cx="549.1" cy="443.0" r="8" />
<circle cx="528.1" cy="407.9" r="8" />
<circle cx="456.8" cy="408.9" r="8" />
<circle cx="393.5" cy="409.8" r="8" />
<circle cx="333.8" cy="405.6" r="8" />
<circle cx="318.0" cy="348.2" r="8" />
<circle cx="288.1" cy="286.1" r="8" />
<circle cx="259.7" cy="237.1" r="8" />
<circle cx="252.3" cy="138.3" r="8" />
<circle cx="260.6" cy="97.7" r="8" />
<circle cx="199.2" cy="57.8" r="8" />
<circle cx="151.7" cy="37.9" r="8" />
<circle cx="74.2" cy="12.0" r="8" />
<circle cx="36.8" cy="35.4" r="8" />
<circle cx="12.0" cy="51.8" r="8" />
<style>
circle {
fill: white;
stroke: #525252;
stroke-width: 4;
}
path {
fill: none;
stroke: #525252;
stroke-width: 8;
}</style>
</svg>