<svg width="766.0" height="1024.0" xmlns="http://www.w3.org/2000/svg">
<path d="M332.3276978483316 1012.0 L351.6 992.7 L351.6 980.7 L317.1 946.2 L313.5 946.2 L289.5 946.2 L250.3 907.0 L216.2 941.2 L184.1 941.2 L148.6 941.2 L123.6 966.2 L88.3 966.2 L63.1 941.1 L31.6 909.6 L12.0 909.6 L34.0 909.6 L59.3 884.2 L95.4 848.1 L110.9 848.1 L136.9 822.1 L136.9 780.0 L136.9 770.6 L166.1 741.4 L175.0 732.5 L175.0 704.3 L175.0 699.8 L132.1 657.0 L135.1 654.1 L239.7 654.1 L292.8 654.1 L295.8 657.1 L347.6 605.3 L347.6 593.5 L437.0 593.5 L450.9 607.4 L492.6 565.8 L492.6 548.7 L492.6 499.0 L533.9 457.7 L617.4 374.2 L679.2 374.2 L694.4 359.0 L694.4 350.6 L694.4 303.8 L693.4 302.7 L693.4 291.2 L716.6 268.0 L721.3 263.3 L721.3 243.5 L721.3 203.8 L696.3 178.8 L670.2 152.8 L625.7 152.8 L625.7 130.4 L605.8 110.5 L599.0 103.7 L599.0 69.3 L599.0 35.9 L605.0 29.9 L619.1 15.8 L633.1 15.8 L677.0 15.8 L680.9 12.0 L734.9 12.0 L754.0 31.0 " />
<circle cx="332.3" cy="1012.0" r="8" />
<circle cx="351.6" cy="980.7" r="8" />
<circle cx="313.5" cy="946.2" r="8" />
<circle cx="250.3" cy="907.0" r="8" />
<circle cx="184.1" cy="941.2" r="8" />
<circle cx="123.6" cy="966.2" r="8" />
<circle cx="63.1" cy="941.1" r="8" />
<circle cx="12.0" cy="909.6" r="8" />
<circle cx="59.3" cy="884.2" r="8" />
<circle cx="110.9" cy="848.1" r="8" />
<circle cx="136.9" cy="780.0" r="8" />
<circle cx="166.1" cy="741.4" r="8" />
<circle cx="175.0" cy="704.3" r="8" />
<circle cx="132.1" cy="657.0" r="8" />
<circle cx="239.7" cy="654.1" r="8" />
<circle cx="295.8" cy="657.1" r="8" />
<circle cx="347.6" cy="593.5" r="8" />
<circle cx="450.9" cy="607.4" r="8" />
<circle cx="492.6" cy="548.7" r="8" />
<circle cx="533.9" cy="457.7" r="8" />
<circle cx="679.2" cy="374.2" r="8" />
<circle cx="694.4" cy="350.6" r="8" />
<circle cx="693.4" cy="302.7" r="8" />
<circle cx="716.6" cy="268.0" r="8" />
<circle cx="721.3" cy="243.5" r="8" />
<circle cx="696.3" cy="178.8" r="8" />
<circle cx="625.7" cy="152.8" r="8" />
<circle cx="605.8" cy="110.5" r="8" />
<circle cx="599.0" cy="69.3" r="8" />
<circle cx="605.0" cy="29.9" r="8" />
<circle cx="633.1" cy="15.8" r="8" />
<circle cx="680.9" cy="12.0" r="8" />
<circle cx="754.0" cy="31.0" r="8" />
<style>
circle {
fill: white;
stroke: #525252;
stroke-width: 4;
}
path {
fill: none;
stroke: #525252;
stroke-width: 8;
}</style>
</svg>