<svg width="1024.0" height="152.3" xmlns="http://www.w3.org/2000/svg">
<path d="M1012.0 140.3 L989.0 117.3 L989.0 82.4 L983.1 82.4 L969.6 95.9 L951.7 78.1 L836.8 78.1 L765.5 78.1 L753.9 66.5 L742.8 55.4 L672.6 55.4 L609.0 55.4 L593.1 39.4 L590.2 36.5 L538.9 36.5 L491.2 36.5 L487.5 32.8 L441.6 32.8 L435.0 39.3 L430.2 34.5 L366.1 34.5 L285.2 34.5 L284.2 33.4 L279.2 28.4 L232.4 28.4 L144.3 28.4 L140.6 24.7 L137.2 21.3 L82.2 21.3 L21.3 21.3 L12.0 12.0 " />
<circle cx="1012.0" cy="140.3" r="8" />
<circle cx="989.0" cy="82.4" r="8" />
<circle cx="969.6" cy="95.9" r="8" />
<circle cx="836.8" cy="78.1" r="8" />
<circle cx="753.9" cy="66.5" r="8" />
<circle cx="672.6" cy="55.4" r="8" />
<circle cx="593.1" cy="39.4" r="8" />
<circle cx="538.9" cy="36.5" r="8" />
<circle cx="487.5" cy="32.8" r="8" />
<circle cx="435.0" cy="39.3" r="8" />
<circle cx="366.1" cy="34.5" r="8" />
<circle cx="284.2" cy="33.4" r="8" />
<circle cx="232.4" cy="28.4" r="8" />
<circle cx="140.6" cy="24.7" r="8" />
<circle cx="82.2" cy="21.3" r="8" />
<circle cx="12.0" cy="12.0" r="8" />
<style>
circle {
fill: white;
stroke: #525252;
stroke-width: 4;
}
path {
fill: none;
stroke: #525252;
stroke-width: 8;
}</style>
</svg>