<svg width="1024.0" height="152.5" xmlns="http://www.w3.org/2000/svg">
<path d="M1012.0 140.5 L987.8 116.3 L987.8 82.3 L981.8 82.3 L968.3 95.8 L950.5 78.0 L835.7 78.0 L764.5 78.0 L753.0 66.5 L741.8 55.3 L671.7 55.3 L608.2 55.3 L592.3 39.4 L589.4 36.5 L538.2 36.5 L490.6 36.5 L486.9 32.8 L441.0 32.8 L434.5 39.3 L429.6 34.4 L365.7 34.4 L284.9 34.4 L283.8 33.4 L278.8 28.4 L232.1 28.4 L144.1 28.4 L140.5 24.7 L137.0 21.3 L82.1 21.3 L21.3 21.3 L12.0 12.0 " />
<circle cx="1012.0" cy="140.5" r="8" />
<circle cx="987.8" cy="82.3" r="8" />
<circle cx="968.3" cy="95.8" r="8" />
<circle cx="835.7" cy="78.0" r="8" />
<circle cx="753.0" cy="66.5" r="8" />
<circle cx="671.7" cy="55.3" r="8" />
<circle cx="592.3" cy="39.4" r="8" />
<circle cx="538.2" cy="36.5" r="8" />
<circle cx="486.9" cy="32.8" r="8" />
<circle cx="434.5" cy="39.3" r="8" />
<circle cx="365.7" cy="34.4" r="8" />
<circle cx="283.8" cy="33.4" r="8" />
<circle cx="232.1" cy="28.4" r="8" />
<circle cx="140.5" cy="24.7" r="8" />
<circle cx="82.1" cy="21.3" r="8" />
<circle cx="12.0" cy="12.0" r="8" />
<style>
circle {
fill: white;
stroke: #525252;
stroke-width: 4;
}
path {
fill: none;
stroke: #525252;
stroke-width: 8;
}</style>
</svg>