<svg width="1024.0" height="394.9" xmlns="http://www.w3.org/2000/svg">
<path d="M244.5 382.9 L201.6 339.9 L68.4 339.9 L24.4 339.9 L12.0 327.5 L12.4 327.5 L34.8 305.2 L43.5 313.8 L132.5 313.8 L240.9 313.8 L240.9 313.9 L244.5 317.4 L314.8 317.4 L386.2 317.4 L389.1 314.5 L393.5 310.1 L409.0 310.1 L425.8 310.1 L437.7 322.0 L485.7 274.0 L529.7 274.0 L551.9 274.0 L585.1 240.7 L595.7 251.3 L627.7 251.3 L641.7 251.3 L653.8 239.2 L706.2 186.9 L763.2 186.9 L802.8 186.9 L804.7 184.9 L814.1 175.5 L814.1 151.6 L816.6 151.6 L858.6 109.6 L876.4 91.8 L876.4 89.7 L901.5 89.7 L932.2 59.0 L979.2 12.0 L1012.0 12.0 " />
<circle cx="244.5" cy="382.9" r="8" />
<circle cx="68.4" cy="339.9" r="8" />
<circle cx="12.0" cy="327.5" r="8" />
<circle cx="34.8" cy="305.2" r="8" />
<circle cx="132.5" cy="313.8" r="8" />
<circle cx="240.9" cy="313.9" r="8" />
<circle cx="314.8" cy="317.4" r="8" />
<circle cx="389.1" cy="314.5" r="8" />
<circle cx="409.0" cy="310.1" r="8" />
<circle cx="437.7" cy="322.0" r="8" />
<circle cx="529.7" cy="274.0" r="8" />
<circle cx="585.1" cy="240.7" r="8" />
<circle cx="627.7" cy="251.3" r="8" />
<circle cx="653.8" cy="239.2" r="8" />
<circle cx="763.2" cy="186.9" r="8" />
<circle cx="804.7" cy="184.9" r="8" />
<circle cx="814.1" cy="151.6" r="8" />
<circle cx="858.6" cy="109.6" r="8" />
<circle cx="876.4" cy="89.7" r="8" />
<circle cx="932.2" cy="59.0" r="8" />
<circle cx="1012.0" cy="12.0" r="8" />
<style>
circle {
fill: white;
stroke: #525252;
stroke-width: 4;
}
path {
fill: none;
stroke: #525252;
stroke-width: 8;
}</style>
</svg>