<svg width="1024.0" height="296.0" xmlns="http://www.w3.org/2000/svg">
<path d="M553.1465518323552 25.49854814346635 L588.8 25.5 L594.0 20.2 L594.9 19.4 L710.7 19.4 L882.7 19.4 L890.1 12.0 L977.4 12.0 L1012.0 46.6 L1012.0 63.1 L989.0 86.2 L954.8 120.3 L948.6 120.3 L922.2 146.8 L922.2 173.9 L922.2 220.1 L871.6 270.6 L858.2 284.0 L786.4 284.0 L654.9 284.0 L646.5 275.6 L626.0 255.2 L534.5 255.2 L447.4 255.2 L413.7 221.5 L376.1 183.8 L298.7 183.8 L235.1 183.8 L210.9 159.7 L184.2 133.0 L127.9 133.0 L33.1 133.0 L12.0 111.9 L12.0 50.4 L40.4 22.0 " />
<circle cx="553.1" cy="25.5" r="8" />
<circle cx="594.0" cy="20.2" r="8" />
<circle cx="710.7" cy="19.4" r="8" />
<circle cx="890.1" cy="12.0" r="8" />
<circle cx="1012.0" cy="46.6" r="8" />
<circle cx="989.0" cy="86.2" r="8" />
<circle cx="948.6" cy="120.3" r="8" />
<circle cx="922.2" cy="173.9" r="8" />
<circle cx="871.6" cy="270.6" r="8" />
<circle cx="786.4" cy="284.0" r="8" />
<circle cx="646.5" cy="275.6" r="8" />
<circle cx="534.5" cy="255.2" r="8" />
<circle cx="413.7" cy="221.5" r="8" />
<circle cx="298.7" cy="183.8" r="8" />
<circle cx="210.9" cy="159.7" r="8" />
<circle cx="127.9" cy="133.0" r="8" />
<circle cx="12.0" cy="111.9" r="8" />
<circle cx="40.4" cy="22.0" r="8" />
<style>
circle {
fill: white;
stroke: #525252;
stroke-width: 4;
}
path {
fill: none;
stroke: #525252;
stroke-width: 8;
}</style>
</svg>