<svg width="1024.0" height="288.6" xmlns="http://www.w3.org/2000/svg">
<path d="M40.35919901983757 14.59485526414382 L40.4 76.1 L12.0 104.5 L33.1 125.6 L127.9 125.6 L184.2 125.6 L210.9 152.3 L235.1 176.4 L298.7 176.4 L376.1 176.4 L413.7 214.1 L447.4 247.8 L534.5 247.8 L626.0 247.8 L646.5 268.2 L654.9 276.6 L786.4 276.6 L858.2 276.6 L871.6 263.2 L922.2 212.7 L922.2 166.5 L922.2 139.4 L948.6 112.9 L982.8 78.8 L989.0 78.8 L1012.0 55.7 L1012.0 39.2 L984.8 12.0 L710.7 12.0 L594.9 12.0 L594.0 12.8 L588.8 18.1 L553.1 18.1 " />
<circle cx="40.4" cy="14.6" r="8" />
<circle cx="12.0" cy="104.5" r="8" />
<circle cx="127.9" cy="125.6" r="8" />
<circle cx="210.9" cy="152.3" r="8" />
<circle cx="298.7" cy="176.4" r="8" />
<circle cx="413.7" cy="214.1" r="8" />
<circle cx="534.5" cy="247.8" r="8" />
<circle cx="646.5" cy="268.2" r="8" />
<circle cx="786.4" cy="276.6" r="8" />
<circle cx="871.6" cy="263.2" r="8" />
<circle cx="922.2" cy="166.5" r="8" />
<circle cx="948.6" cy="112.9" r="8" />
<circle cx="989.0" cy="78.8" r="8" />
<circle cx="1012.0" cy="39.2" r="8" />
<circle cx="710.7" cy="12.0" r="8" />
<circle cx="594.0" cy="12.8" r="8" />
<circle cx="553.1" cy="18.1" r="8" />
<style>
circle {
fill: white;
stroke: #525252;
stroke-width: 4;
}
path {
fill: none;
stroke: #525252;
stroke-width: 8;
}</style>
</svg>