<svg width="1024.0" height="202.0" xmlns="http://www.w3.org/2000/svg">
<path d="M1012.0 57.3 L991.3 36.6 L969.0 36.6 L919.2 36.6 L901.4 18.8 L818.8 18.8 L766.7 70.9 L710.6 127.0 L648.5 127.0 L594.6 73.1 L594.6 12.0 L630.6 48.0 L630.6 136.9 L548.0 136.9 L521.3 163.6 L499.3 185.6 L205.8 185.6 L16.4 185.6 L12.0 190.0 " />
<circle cx="1012.0" cy="57.3" r="8" />
<circle cx="969.0" cy="36.6" r="8" />
<circle cx="901.4" cy="18.8" r="8" />
<circle cx="766.7" cy="70.9" r="8" />
<circle cx="648.5" cy="127.0" r="8" />
<circle cx="594.6" cy="12.0" r="8" />
<circle cx="630.6" cy="136.9" r="8" />
<circle cx="521.3" cy="163.6" r="8" />
<circle cx="205.8" cy="185.6" r="8" />
<circle cx="12.0" cy="190.0" r="8" />
<style>
circle {
fill: white;
stroke: black;
stroke-width: 4;
}
path {
fill: none;
stroke: #FFFFFF;
stroke-width: 8;
}</style>
</svg>